%TF.GenerationSoftware,KiCad,Pcbnew,(6.0.2)*%
%TF.CreationDate,2022-07-20T19:38:25+09:00*%
%TF.ProjectId,shutdown,73687574-646f-4776-9e2e-6b696361645f,rev?*%
%TF.SameCoordinates,Original*%
%TF.FileFunction,Soldermask,Bot*%
%TF.FilePolarity,Negative*%
%FSLAX46Y46*%
G04 Gerber Fmt 4.6, Leading zero omitted, Abs format (unit mm)*
G04 Created by KiCad (PCBNEW (6.0.2)) date 2022-07-20 19:38:25*
%MOMM*%
%LPD*%
G01*
G04 APERTURE LIST*
%ADD10R,1.600000X1.600000*%
%ADD11C,1.600000*%
%ADD12R,1.371600X1.371600*%
%ADD13C,1.371600*%
%ADD14C,1.400000*%
%ADD15O,1.400000X1.400000*%
%ADD16C,2.032000*%
%ADD17R,2.000000X2.000000*%
%ADD18R,2.085000X2.085000*%
%ADD19C,2.085000*%
%ADD20R,2.200000X2.200000*%
%ADD21O,2.200000X2.200000*%
%ADD22C,1.905000*%
G04 APERTURE END LIST*
D10*
%TO.C,C5*%
X221655113Y-102990000D03*
D11*
X219155113Y-102990000D03*
%TD*%
D10*
%TO.C,C6*%
X231200000Y-82360000D03*
D11*
X233700000Y-82360000D03*
%TD*%
D10*
%TO.C,C2*%
X225094888Y-76110000D03*
D11*
X227594888Y-76110000D03*
%TD*%
D12*
%TO.C,U5*%
X208640000Y-98610000D03*
D13*
X208640000Y-101150000D03*
X208640000Y-103690000D03*
X208640000Y-106230000D03*
X216260000Y-106230000D03*
X216260000Y-103690000D03*
X216260000Y-101150000D03*
X216260000Y-98610000D03*
%TD*%
D14*
%TO.C,R3*%
X210800000Y-86400000D03*
D15*
X218420000Y-86400000D03*
%TD*%
D16*
%TO.C,RELAY_BMS1*%
X180330000Y-92070000D03*
X180330000Y-107310000D03*
X180330000Y-117470000D03*
X190490000Y-112390000D03*
X190490000Y-92070000D03*
X185410000Y-92070000D03*
%TD*%
D10*
%TO.C,C3*%
X219750000Y-96900000D03*
D11*
X222250000Y-96900000D03*
%TD*%
D10*
%TO.C,C7*%
X211735112Y-111040000D03*
D11*
X209235112Y-111040000D03*
%TD*%
D17*
%TO.C,F1*%
X149115000Y-77445000D03*
X171815000Y-77445000D03*
%TD*%
D12*
%TO.C,U6*%
X227680000Y-98430000D03*
D13*
X227680000Y-100970000D03*
X227680000Y-103510000D03*
X227680000Y-106050000D03*
X235300000Y-106050000D03*
X235300000Y-103510000D03*
X235300000Y-100970000D03*
X235300000Y-98430000D03*
%TD*%
D18*
%TO.C,Q1*%
X162880000Y-123310000D03*
D19*
X160340000Y-123310000D03*
X157800000Y-123310000D03*
%TD*%
D14*
%TO.C,R9*%
X216620000Y-95110000D03*
D15*
X209000000Y-95110000D03*
%TD*%
D20*
%TO.C,D3*%
X148920000Y-87810000D03*
D21*
X159080000Y-87810000D03*
%TD*%
D12*
%TO.C,U8*%
X197920000Y-108924371D03*
D13*
X197920000Y-111464371D03*
X197920000Y-114004371D03*
X197920000Y-116544371D03*
X205540000Y-116544371D03*
X205540000Y-114004371D03*
X205540000Y-111464371D03*
X205540000Y-108924371D03*
%TD*%
D14*
%TO.C,R13*%
X222460000Y-115640000D03*
D15*
X214840000Y-115640000D03*
%TD*%
D14*
%TO.C,R2*%
X135770000Y-118610000D03*
D15*
X143390000Y-118610000D03*
%TD*%
D14*
%TO.C,R14*%
X214100000Y-118070000D03*
D15*
X221720000Y-118070000D03*
%TD*%
D14*
%TO.C,R8*%
X222850000Y-89500000D03*
D15*
X230470000Y-89500000D03*
%TD*%
D18*
%TO.C,Q2*%
X226920000Y-116970000D03*
D19*
X229460000Y-116970000D03*
X232000000Y-116970000D03*
%TD*%
D14*
%TO.C,R5*%
X211230000Y-92480000D03*
D15*
X218850000Y-92480000D03*
%TD*%
D14*
%TO.C,R11*%
X224710000Y-106250000D03*
D15*
X224710000Y-98630000D03*
%TD*%
D22*
%TO.C,U1*%
X181600000Y-82420000D03*
X191760000Y-82420000D03*
X199380000Y-82420000D03*
X196840000Y-74800000D03*
X181600000Y-74800000D03*
%TD*%
D14*
%TO.C,R10*%
X225150000Y-94630000D03*
D15*
X232770000Y-94630000D03*
%TD*%
D16*
%TO.C,RELAY_BSPD1*%
X149130000Y-92010000D03*
X149130000Y-107250000D03*
X149130000Y-117410000D03*
X159290000Y-112330000D03*
X159290000Y-92010000D03*
X154210000Y-92010000D03*
%TD*%
D10*
%TO.C,C4*%
X235570000Y-88770000D03*
D11*
X233070000Y-88770000D03*
%TD*%
D10*
%TO.C,C1*%
X218931700Y-76070000D03*
D11*
X221431700Y-76070000D03*
%TD*%
D16*
%TO.C,RELAY_IMD1*%
X164360000Y-91960000D03*
X164360000Y-107200000D03*
X164360000Y-117360000D03*
X174520000Y-112280000D03*
X174520000Y-91960000D03*
X169440000Y-91960000D03*
%TD*%
D14*
%TO.C,R6*%
X231750000Y-92210000D03*
D15*
X224130000Y-92210000D03*
%TD*%
D14*
%TO.C,R12*%
X227590000Y-109220000D03*
D15*
X235210000Y-109220000D03*
%TD*%
D10*
%TO.C,C8*%
X202614888Y-104120000D03*
D11*
X205114888Y-104120000D03*
%TD*%
D20*
%TO.C,D2*%
X164340000Y-86330000D03*
D21*
X174500000Y-86330000D03*
%TD*%
D20*
%TO.C,D4*%
X148870000Y-84140000D03*
D21*
X159030000Y-84140000D03*
%TD*%
D20*
%TO.C,D1*%
X180010000Y-86240000D03*
D21*
X190170000Y-86240000D03*
%TD*%
D14*
%TO.C,R7*%
X212930000Y-89770000D03*
D15*
X220550000Y-89770000D03*
%TD*%
D14*
%TO.C,R4*%
X220480000Y-87310000D03*
D15*
X228100000Y-87310000D03*
%TD*%
M02*
