%TF.GenerationSoftware,KiCad,Pcbnew,(6.0.2)*%
%TF.CreationDate,2022-07-20T19:38:25+09:00*%
%TF.ProjectId,shutdown,73687574-646f-4776-9e2e-6b696361645f,rev?*%
%TF.SameCoordinates,Original*%
%TF.FileFunction,Paste,Top*%
%TF.FilePolarity,Positive*%
%FSLAX46Y46*%
G04 Gerber Fmt 4.6, Leading zero omitted, Abs format (unit mm)*
G04 Created by KiCad (PCBNEW (6.0.2)) date 2022-07-20 19:38:25*
%MOMM*%
%LPD*%
G01*
G04 APERTURE LIST*
G04 Aperture macros list*
%AMRoundRect*
0 Rectangle with rounded corners*
0 $1 Rounding radius*
0 $2 $3 $4 $5 $6 $7 $8 $9 X,Y pos of 4 corners*
0 Add a 4 corners polygon primitive as box body*
4,1,4,$2,$3,$4,$5,$6,$7,$8,$9,$2,$3,0*
0 Add four circle primitives for the rounded corners*
1,1,$1+$1,$2,$3*
1,1,$1+$1,$4,$5*
1,1,$1+$1,$6,$7*
1,1,$1+$1,$8,$9*
0 Add four rect primitives between the rounded corners*
20,1,$1+$1,$2,$3,$4,$5,0*
20,1,$1+$1,$4,$5,$6,$7,0*
20,1,$1+$1,$6,$7,$8,$9,0*
20,1,$1+$1,$8,$9,$2,$3,0*%
G04 Aperture macros list end*
%ADD10R,4.241800X2.057400*%
%ADD11R,1.244600X2.260600*%
%ADD12R,2.057400X4.241800*%
%ADD13R,2.260600X1.244600*%
%ADD14R,0.794499X0.354800*%
%ADD15R,1.473200X0.889000*%
%ADD16RoundRect,0.074803X0.075197X-0.175197X0.075197X0.175197X-0.075197X0.175197X-0.075197X-0.175197X0*%
%ADD17RoundRect,0.075000X0.075000X-0.175000X0.075000X0.175000X-0.075000X0.175000X-0.075000X-0.175000X0*%
G04 APERTURE END LIST*
D10*
%TO.C,J2*%
X171260000Y-64449200D03*
X200460000Y-64449200D03*
D11*
X196860000Y-70029200D03*
X194860000Y-70029200D03*
X192860000Y-70029200D03*
X190860000Y-70029200D03*
X188860000Y-70029200D03*
X186860000Y-70029200D03*
X184860000Y-70029200D03*
X182860000Y-70029200D03*
X180860000Y-70029200D03*
X178860000Y-70029200D03*
X176860000Y-70029200D03*
X174860000Y-70029200D03*
%TD*%
D12*
%TO.C,J1*%
X137310000Y-112850000D03*
X137310000Y-77650000D03*
D13*
X142890000Y-81250000D03*
X142890000Y-83250000D03*
X142890000Y-85250000D03*
X142890000Y-87250000D03*
X142890000Y-89250000D03*
X142890000Y-91250000D03*
X142890000Y-93250000D03*
X142890000Y-95250000D03*
X142890000Y-97250000D03*
X142890000Y-99250000D03*
X142890000Y-101250000D03*
X142890000Y-103250000D03*
X142890000Y-105250000D03*
X142890000Y-107250000D03*
X142890000Y-109250000D03*
%TD*%
D14*
%TO.C,U7*%
X221919649Y-109890001D03*
X221919649Y-110540000D03*
X221919649Y-111189999D03*
X224060351Y-111189999D03*
X224060351Y-109890001D03*
%TD*%
D15*
%TO.C,U2*%
X208673900Y-80220000D03*
X208673900Y-77930000D03*
X208673900Y-75640000D03*
%TD*%
D16*
%TO.C,U4*%
X225520000Y-84350000D03*
D17*
X226470000Y-84350000D03*
X227420000Y-84350000D03*
X225520000Y-82250000D03*
X227420000Y-82250000D03*
%TD*%
D16*
%TO.C,U3*%
X218600000Y-84440000D03*
D17*
X219550000Y-84440000D03*
X220500000Y-84440000D03*
X218600000Y-82340000D03*
X220500000Y-82340000D03*
%TD*%
D10*
%TO.C,J3*%
X206820000Y-64539850D03*
X236020000Y-64539850D03*
D11*
X232420000Y-70119850D03*
X230420000Y-70119850D03*
X228420000Y-70119850D03*
X226420000Y-70119850D03*
X224420000Y-70119850D03*
X222420000Y-70119850D03*
X220420000Y-70119850D03*
X218420000Y-70119850D03*
X216420000Y-70119850D03*
X214420000Y-70119850D03*
X212420000Y-70119850D03*
X210420000Y-70119850D03*
%TD*%
D10*
%TO.C,J4*%
X136000000Y-64489200D03*
X165200000Y-64489200D03*
D11*
X161600000Y-70069200D03*
X159600000Y-70069200D03*
X157600000Y-70069200D03*
X155600000Y-70069200D03*
X153600000Y-70069200D03*
X151600000Y-70069200D03*
X149600000Y-70069200D03*
X147600000Y-70069200D03*
X145600000Y-70069200D03*
X143600000Y-70069200D03*
X141600000Y-70069200D03*
X139600000Y-70069200D03*
%TD*%
M02*
