M48
; DRILL file {KiCad (6.0.2)} date Wed Jul 20 19:38:21 2022
; FORMAT={-:-/ absolute / metric / decimal}
; #@! TF.CreationDate,2022-07-20T19:38:21+09:00
; #@! TF.GenerationSoftware,Kicad,Pcbnew,(6.0.2)
; #@! TF.FileFunction,Plated,1,2,PTH
FMAT,2
METRIC
; #@! TA.AperFunction,Plated,PTH,ViaDrill
T1C0.400
; #@! TA.AperFunction,Plated,PTH,ComponentDrill
T2C0.700
; #@! TA.AperFunction,Plated,PTH,ComponentDrill
T3C0.800
; #@! TA.AperFunction,Plated,PTH,ComponentDrill
T4C0.864
; #@! TA.AperFunction,Plated,PTH,ComponentDrill
T5C1.100
; #@! TA.AperFunction,Plated,PTH,ComponentDrill
T6C1.200
; #@! TA.AperFunction,Plated,PTH,ComponentDrill
T7C1.390
; #@! TA.AperFunction,Plated,PTH,ComponentDrill
T8C1.397
; #@! TA.AperFunction,Plated,PTH,ComponentDrill
T9C1.524
; #@! TA.AperFunction,Plated,PTH,ViaDrill
T10C3.000
%
G90
G05
T1
X132.83Y-59.56
X140.035Y-106.135
X140.44Y-93.25
X140.47Y-91.268
X140.63Y-83.33
X145.82Y-95.26
X145.83Y-85.32
X152.41Y-88.57
X161.56Y-83.89
X161.715Y-76.385
X163.96Y-98.24
X186.86Y-72.63
X194.96Y-70.69
X199.19Y-72.69
X199.89Y-70.91
X202.57Y-78.24
X213.39Y-86.81
X214.82Y-80.14
X217.62Y-83.69
X218.42Y-72.3
X223.06Y-111.19
X223.55Y-84.35
X226.48Y-83.21
X230.66Y-72.35
T2
X135.77Y-118.61
X143.39Y-118.61
X209.0Y-95.11
X210.8Y-86.4
X211.23Y-92.48
X212.93Y-89.77
X214.1Y-118.07
X214.84Y-115.64
X216.62Y-95.11
X218.42Y-86.4
X218.85Y-92.48
X220.48Y-87.31
X220.55Y-89.77
X221.72Y-118.07
X222.46Y-115.64
X222.85Y-89.5
X224.13Y-92.21
X224.71Y-98.63
X224.71Y-106.25
X225.15Y-94.63
X227.59Y-109.22
X228.1Y-87.31
X230.47Y-89.5
X231.75Y-92.21
X232.77Y-94.63
X235.21Y-109.22
T3
X202.615Y-104.12
X205.115Y-104.12
X209.235Y-111.04
X211.735Y-111.04
X218.932Y-76.07
X219.155Y-102.99
X219.75Y-96.9
X221.432Y-76.07
X221.655Y-102.99
X222.25Y-96.9
X225.095Y-76.11
X227.595Y-76.11
X231.2Y-82.36
X233.07Y-88.77
X233.7Y-82.36
X235.57Y-88.77
T4
X197.92Y-108.924
X197.92Y-111.464
X197.92Y-114.004
X197.92Y-116.544
X205.54Y-108.924
X205.54Y-111.464
X205.54Y-114.004
X205.54Y-116.544
X208.64Y-98.61
X208.64Y-101.15
X208.64Y-103.69
X208.64Y-106.23
X216.26Y-98.61
X216.26Y-101.15
X216.26Y-103.69
X216.26Y-106.23
X227.68Y-98.43
X227.68Y-100.97
X227.68Y-103.51
X227.68Y-106.05
X235.3Y-98.43
X235.3Y-100.97
X235.3Y-103.51
X235.3Y-106.05
T5
X148.87Y-84.14
X148.92Y-87.81
X159.03Y-84.14
X159.08Y-87.81
X164.34Y-86.33
X174.5Y-86.33
X180.01Y-86.24
X190.17Y-86.24
T7
X157.8Y-123.31
X160.34Y-123.31
X162.88Y-123.31
X226.92Y-116.97
X229.46Y-116.97
X232.0Y-116.97
T8
X181.6Y-74.8
X181.6Y-82.42
X191.76Y-82.42
X196.84Y-74.8
X199.38Y-82.42
T9
X149.13Y-92.01
X149.13Y-107.25
X149.13Y-117.41
X154.21Y-92.01
X159.29Y-92.01
X159.29Y-112.33
X164.36Y-91.96
X164.36Y-107.2
X164.36Y-117.36
X169.44Y-91.96
X174.52Y-91.96
X174.52Y-112.28
X180.33Y-92.07
X180.33Y-107.31
X180.33Y-117.47
X185.41Y-92.07
X190.49Y-92.07
X190.49Y-112.39
T10
X131.61Y-56.15
X131.61Y-130.49
X236.96Y-55.94
X236.96Y-130.49
T6
G00X148.965Y-77.445
M15
G01X149.265Y-77.445
M16
G05
G00X171.665Y-77.445
M15
G01X171.965Y-77.445
M16
G05
T0
M30
