%TF.GenerationSoftware,KiCad,Pcbnew,(6.0.2)*%
%TF.CreationDate,2022-07-20T19:38:25+09:00*%
%TF.ProjectId,shutdown,73687574-646f-4776-9e2e-6b696361645f,rev?*%
%TF.SameCoordinates,Original*%
%TF.FileFunction,Soldermask,Top*%
%TF.FilePolarity,Negative*%
%FSLAX46Y46*%
G04 Gerber Fmt 4.6, Leading zero omitted, Abs format (unit mm)*
G04 Created by KiCad (PCBNEW (6.0.2)) date 2022-07-20 19:38:25*
%MOMM*%
%LPD*%
G01*
G04 APERTURE LIST*
G04 Aperture macros list*
%AMRoundRect*
0 Rectangle with rounded corners*
0 $1 Rounding radius*
0 $2 $3 $4 $5 $6 $7 $8 $9 X,Y pos of 4 corners*
0 Add a 4 corners polygon primitive as box body*
4,1,4,$2,$3,$4,$5,$6,$7,$8,$9,$2,$3,0*
0 Add four circle primitives for the rounded corners*
1,1,$1+$1,$2,$3*
1,1,$1+$1,$4,$5*
1,1,$1+$1,$6,$7*
1,1,$1+$1,$8,$9*
0 Add four rect primitives between the rounded corners*
20,1,$1+$1,$2,$3,$4,$5,0*
20,1,$1+$1,$4,$5,$6,$7,0*
20,1,$1+$1,$6,$7,$8,$9,0*
20,1,$1+$1,$8,$9,$2,$3,0*%
G04 Aperture macros list end*
%ADD10R,4.241800X2.057400*%
%ADD11R,1.244600X2.260600*%
%ADD12R,1.600000X1.600000*%
%ADD13C,1.600000*%
%ADD14R,1.371600X1.371600*%
%ADD15C,1.371600*%
%ADD16R,2.057400X4.241800*%
%ADD17R,2.260600X1.244600*%
%ADD18C,1.400000*%
%ADD19O,1.400000X1.400000*%
%ADD20R,0.794499X0.354800*%
%ADD21R,1.473200X0.889000*%
%ADD22C,2.032000*%
%ADD23RoundRect,0.074803X0.075197X-0.175197X0.075197X0.175197X-0.075197X0.175197X-0.075197X-0.175197X0*%
%ADD24RoundRect,0.075000X0.075000X-0.175000X0.075000X0.175000X-0.075000X0.175000X-0.075000X-0.175000X0*%
%ADD25R,2.000000X2.000000*%
%ADD26R,2.085000X2.085000*%
%ADD27C,2.085000*%
%ADD28R,2.200000X2.200000*%
%ADD29O,2.200000X2.200000*%
%ADD30C,1.905000*%
G04 APERTURE END LIST*
D10*
%TO.C,J2*%
X171260000Y-64449200D03*
X200460000Y-64449200D03*
D11*
X196860000Y-70029200D03*
X194860000Y-70029200D03*
X192860000Y-70029200D03*
X190860000Y-70029200D03*
X188860000Y-70029200D03*
X186860000Y-70029200D03*
X184860000Y-70029200D03*
X182860000Y-70029200D03*
X180860000Y-70029200D03*
X178860000Y-70029200D03*
X176860000Y-70029200D03*
X174860000Y-70029200D03*
%TD*%
D12*
%TO.C,C5*%
X221655113Y-102990000D03*
D13*
X219155113Y-102990000D03*
%TD*%
D12*
%TO.C,C6*%
X231200000Y-82360000D03*
D13*
X233700000Y-82360000D03*
%TD*%
D12*
%TO.C,C2*%
X225094888Y-76110000D03*
D13*
X227594888Y-76110000D03*
%TD*%
D14*
%TO.C,U5*%
X208640000Y-98610000D03*
D15*
X208640000Y-101150000D03*
X208640000Y-103690000D03*
X208640000Y-106230000D03*
X216260000Y-106230000D03*
X216260000Y-103690000D03*
X216260000Y-101150000D03*
X216260000Y-98610000D03*
%TD*%
D16*
%TO.C,J1*%
X137310000Y-112850000D03*
X137310000Y-77650000D03*
D17*
X142890000Y-81250000D03*
X142890000Y-83250000D03*
X142890000Y-85250000D03*
X142890000Y-87250000D03*
X142890000Y-89250000D03*
X142890000Y-91250000D03*
X142890000Y-93250000D03*
X142890000Y-95250000D03*
X142890000Y-97250000D03*
X142890000Y-99250000D03*
X142890000Y-101250000D03*
X142890000Y-103250000D03*
X142890000Y-105250000D03*
X142890000Y-107250000D03*
X142890000Y-109250000D03*
%TD*%
D18*
%TO.C,R3*%
X210800000Y-86400000D03*
D19*
X218420000Y-86400000D03*
%TD*%
D20*
%TO.C,U7*%
X221919649Y-109890001D03*
X221919649Y-110540000D03*
X221919649Y-111189999D03*
X224060351Y-111189999D03*
X224060351Y-109890001D03*
%TD*%
D21*
%TO.C,U2*%
X208673900Y-80220000D03*
X208673900Y-77930000D03*
X208673900Y-75640000D03*
%TD*%
D22*
%TO.C,RELAY_BMS1*%
X180330000Y-92070000D03*
X180330000Y-107310000D03*
X180330000Y-117470000D03*
X190490000Y-112390000D03*
X190490000Y-92070000D03*
X185410000Y-92070000D03*
%TD*%
D12*
%TO.C,C3*%
X219750000Y-96900000D03*
D13*
X222250000Y-96900000D03*
%TD*%
D23*
%TO.C,U4*%
X225520000Y-84350000D03*
D24*
X226470000Y-84350000D03*
X227420000Y-84350000D03*
X225520000Y-82250000D03*
X227420000Y-82250000D03*
%TD*%
D12*
%TO.C,C7*%
X211735112Y-111040000D03*
D13*
X209235112Y-111040000D03*
%TD*%
D25*
%TO.C,F1*%
X149115000Y-77445000D03*
X171815000Y-77445000D03*
%TD*%
D14*
%TO.C,U6*%
X227680000Y-98430000D03*
D15*
X227680000Y-100970000D03*
X227680000Y-103510000D03*
X227680000Y-106050000D03*
X235300000Y-106050000D03*
X235300000Y-103510000D03*
X235300000Y-100970000D03*
X235300000Y-98430000D03*
%TD*%
D26*
%TO.C,Q1*%
X162880000Y-123310000D03*
D27*
X160340000Y-123310000D03*
X157800000Y-123310000D03*
%TD*%
D23*
%TO.C,U3*%
X218600000Y-84440000D03*
D24*
X219550000Y-84440000D03*
X220500000Y-84440000D03*
X218600000Y-82340000D03*
X220500000Y-82340000D03*
%TD*%
D18*
%TO.C,R9*%
X216620000Y-95110000D03*
D19*
X209000000Y-95110000D03*
%TD*%
D28*
%TO.C,D3*%
X148920000Y-87810000D03*
D29*
X159080000Y-87810000D03*
%TD*%
D10*
%TO.C,J3*%
X206820000Y-64539850D03*
X236020000Y-64539850D03*
D11*
X232420000Y-70119850D03*
X230420000Y-70119850D03*
X228420000Y-70119850D03*
X226420000Y-70119850D03*
X224420000Y-70119850D03*
X222420000Y-70119850D03*
X220420000Y-70119850D03*
X218420000Y-70119850D03*
X216420000Y-70119850D03*
X214420000Y-70119850D03*
X212420000Y-70119850D03*
X210420000Y-70119850D03*
%TD*%
D14*
%TO.C,U8*%
X197920000Y-108924371D03*
D15*
X197920000Y-111464371D03*
X197920000Y-114004371D03*
X197920000Y-116544371D03*
X205540000Y-116544371D03*
X205540000Y-114004371D03*
X205540000Y-111464371D03*
X205540000Y-108924371D03*
%TD*%
D18*
%TO.C,R13*%
X222460000Y-115640000D03*
D19*
X214840000Y-115640000D03*
%TD*%
D18*
%TO.C,R2*%
X135770000Y-118610000D03*
D19*
X143390000Y-118610000D03*
%TD*%
D18*
%TO.C,R14*%
X214100000Y-118070000D03*
D19*
X221720000Y-118070000D03*
%TD*%
D18*
%TO.C,R8*%
X222850000Y-89500000D03*
D19*
X230470000Y-89500000D03*
%TD*%
D26*
%TO.C,Q2*%
X226920000Y-116970000D03*
D27*
X229460000Y-116970000D03*
X232000000Y-116970000D03*
%TD*%
D18*
%TO.C,R5*%
X211230000Y-92480000D03*
D19*
X218850000Y-92480000D03*
%TD*%
D18*
%TO.C,R11*%
X224710000Y-106250000D03*
D19*
X224710000Y-98630000D03*
%TD*%
D30*
%TO.C,U1*%
X181600000Y-82420000D03*
X191760000Y-82420000D03*
X199380000Y-82420000D03*
X196840000Y-74800000D03*
X181600000Y-74800000D03*
%TD*%
D18*
%TO.C,R10*%
X225150000Y-94630000D03*
D19*
X232770000Y-94630000D03*
%TD*%
D22*
%TO.C,RELAY_BSPD1*%
X149130000Y-92010000D03*
X149130000Y-107250000D03*
X149130000Y-117410000D03*
X159290000Y-112330000D03*
X159290000Y-92010000D03*
X154210000Y-92010000D03*
%TD*%
D12*
%TO.C,C4*%
X235570000Y-88770000D03*
D13*
X233070000Y-88770000D03*
%TD*%
D12*
%TO.C,C1*%
X218931700Y-76070000D03*
D13*
X221431700Y-76070000D03*
%TD*%
D22*
%TO.C,RELAY_IMD1*%
X164360000Y-91960000D03*
X164360000Y-107200000D03*
X164360000Y-117360000D03*
X174520000Y-112280000D03*
X174520000Y-91960000D03*
X169440000Y-91960000D03*
%TD*%
D18*
%TO.C,R6*%
X231750000Y-92210000D03*
D19*
X224130000Y-92210000D03*
%TD*%
D18*
%TO.C,R12*%
X227590000Y-109220000D03*
D19*
X235210000Y-109220000D03*
%TD*%
D12*
%TO.C,C8*%
X202614888Y-104120000D03*
D13*
X205114888Y-104120000D03*
%TD*%
D28*
%TO.C,D2*%
X164340000Y-86330000D03*
D29*
X174500000Y-86330000D03*
%TD*%
D10*
%TO.C,J4*%
X136000000Y-64489200D03*
X165200000Y-64489200D03*
D11*
X161600000Y-70069200D03*
X159600000Y-70069200D03*
X157600000Y-70069200D03*
X155600000Y-70069200D03*
X153600000Y-70069200D03*
X151600000Y-70069200D03*
X149600000Y-70069200D03*
X147600000Y-70069200D03*
X145600000Y-70069200D03*
X143600000Y-70069200D03*
X141600000Y-70069200D03*
X139600000Y-70069200D03*
%TD*%
D28*
%TO.C,D4*%
X148870000Y-84140000D03*
D29*
X159030000Y-84140000D03*
%TD*%
D28*
%TO.C,D1*%
X180010000Y-86240000D03*
D29*
X190170000Y-86240000D03*
%TD*%
D18*
%TO.C,R7*%
X212930000Y-89770000D03*
D19*
X220550000Y-89770000D03*
%TD*%
D18*
%TO.C,R4*%
X220480000Y-87310000D03*
D19*
X228100000Y-87310000D03*
%TD*%
M02*
