%TF.GenerationSoftware,KiCad,Pcbnew,(6.0.5)*%
%TF.CreationDate,2022-10-04T16:53:02+09:00*%
%TF.ProjectId,DASHBOARD,44415348-424f-4415-9244-2e6b69636164,rev?*%
%TF.SameCoordinates,Original*%
%TF.FileFunction,Legend,Bot*%
%TF.FilePolarity,Positive*%
%FSLAX46Y46*%
G04 Gerber Fmt 4.6, Leading zero omitted, Abs format (unit mm)*
G04 Created by KiCad (PCBNEW (6.0.5)) date 2022-10-04 16:53:02*
%MOMM*%
%LPD*%
G01*
G04 APERTURE LIST*
%ADD10C,0.150000*%
G04 APERTURE END LIST*
D10*
%TO.C,U6*%
X217767104Y-145300780D02*
X216967104Y-145300780D01*
X217348057Y-145300780D02*
X217348057Y-144843638D01*
X217767104Y-144843638D02*
X216967104Y-144843638D01*
X216967104Y-144576971D02*
X217767104Y-144310304D01*
X216967104Y-144043638D01*
X217767104Y-143357923D02*
X217767104Y-143815066D01*
X217767104Y-143586495D02*
X216967104Y-143586495D01*
X217081390Y-143662685D01*
X217157580Y-143738876D01*
X217195676Y-143815066D01*
X217690904Y-158864380D02*
X216890904Y-158864380D01*
X217271857Y-158864380D02*
X217271857Y-158407238D01*
X217690904Y-158407238D02*
X216890904Y-158407238D01*
X216890904Y-158140571D02*
X217690904Y-157873904D01*
X216890904Y-157607238D01*
X217157571Y-156997714D02*
X217690904Y-156997714D01*
X216852809Y-157188190D02*
X217424238Y-157378666D01*
X217424238Y-156883428D01*
X217817904Y-147815380D02*
X217017904Y-147815380D01*
X217398857Y-147815380D02*
X217398857Y-147358238D01*
X217817904Y-147358238D02*
X217017904Y-147358238D01*
X217017904Y-147091571D02*
X217817904Y-146824904D01*
X217017904Y-146558238D01*
X217094095Y-146329666D02*
X217056000Y-146291571D01*
X217017904Y-146215380D01*
X217017904Y-146024904D01*
X217056000Y-145948714D01*
X217094095Y-145910619D01*
X217170285Y-145872523D01*
X217246476Y-145872523D01*
X217360761Y-145910619D01*
X217817904Y-146367761D01*
X217817904Y-145872523D01*
X211188504Y-158159590D02*
X211188504Y-158540542D01*
X210388504Y-158540542D01*
X210388504Y-158007209D02*
X211188504Y-157740542D01*
X210388504Y-157473876D01*
X210655171Y-156864352D02*
X211188504Y-156864352D01*
X210350409Y-157054828D02*
X210921838Y-157245304D01*
X210921838Y-156750066D01*
X211264704Y-144595990D02*
X211264704Y-144976942D01*
X210464704Y-144976942D01*
X210464704Y-144443609D02*
X211264704Y-144176942D01*
X210464704Y-143910276D01*
X211264704Y-143224561D02*
X211264704Y-143681704D01*
X211264704Y-143453133D02*
X210464704Y-143453133D01*
X210578990Y-143529323D01*
X210655180Y-143605514D01*
X210693276Y-143681704D01*
X211315504Y-147110590D02*
X211315504Y-147491542D01*
X210515504Y-147491542D01*
X210515504Y-146958209D02*
X211315504Y-146691542D01*
X210515504Y-146424876D01*
X210591695Y-146196304D02*
X210553600Y-146158209D01*
X210515504Y-146082019D01*
X210515504Y-145891542D01*
X210553600Y-145815352D01*
X210591695Y-145777257D01*
X210667885Y-145739161D01*
X210744076Y-145739161D01*
X210858361Y-145777257D01*
X211315504Y-146234400D01*
X211315504Y-145739161D01*
X211315504Y-149269638D02*
X211315504Y-149650590D01*
X210515504Y-149650590D01*
X210515504Y-149117257D02*
X211315504Y-148850590D01*
X210515504Y-148583923D01*
X217767104Y-156019580D02*
X216967104Y-156019580D01*
X217348057Y-156019580D02*
X217348057Y-155562438D01*
X217767104Y-155562438D02*
X216967104Y-155562438D01*
X216967104Y-155295771D02*
X217767104Y-155029104D01*
X216967104Y-154762438D01*
X216967104Y-154571961D02*
X216967104Y-154076723D01*
X217271866Y-154343390D01*
X217271866Y-154229104D01*
X217309961Y-154152914D01*
X217348057Y-154114819D01*
X217424247Y-154076723D01*
X217614723Y-154076723D01*
X217690914Y-154114819D01*
X217729009Y-154152914D01*
X217767104Y-154229104D01*
X217767104Y-154457676D01*
X217729009Y-154533866D01*
X217690914Y-154571961D01*
X210502800Y-152349323D02*
X210464704Y-152425514D01*
X210464704Y-152539800D01*
X210502800Y-152654085D01*
X210578990Y-152730276D01*
X210655180Y-152768371D01*
X210807561Y-152806466D01*
X210921847Y-152806466D01*
X211074228Y-152768371D01*
X211150419Y-152730276D01*
X211226609Y-152654085D01*
X211264704Y-152539800D01*
X211264704Y-152463609D01*
X211226609Y-152349323D01*
X211188514Y-152311228D01*
X210921847Y-152311228D01*
X210921847Y-152463609D01*
X211264704Y-151968371D02*
X210464704Y-151968371D01*
X211264704Y-151511228D01*
X210464704Y-151511228D01*
X211264704Y-151130276D02*
X210464704Y-151130276D01*
X210464704Y-150939800D01*
X210502800Y-150825514D01*
X210578990Y-150749323D01*
X210655180Y-150711228D01*
X210807561Y-150673133D01*
X210921847Y-150673133D01*
X211074228Y-150711228D01*
X211150419Y-150749323D01*
X211226609Y-150825514D01*
X211264704Y-150939800D01*
X211264704Y-151130276D01*
X217005200Y-152577923D02*
X216967104Y-152654114D01*
X216967104Y-152768400D01*
X217005200Y-152882685D01*
X217081390Y-152958876D01*
X217157580Y-152996971D01*
X217309961Y-153035066D01*
X217424247Y-153035066D01*
X217576628Y-152996971D01*
X217652819Y-152958876D01*
X217729009Y-152882685D01*
X217767104Y-152768400D01*
X217767104Y-152692209D01*
X217729009Y-152577923D01*
X217690914Y-152539828D01*
X217424247Y-152539828D01*
X217424247Y-152692209D01*
X217767104Y-152196971D02*
X216967104Y-152196971D01*
X217767104Y-151739828D01*
X216967104Y-151739828D01*
X217767104Y-151358876D02*
X216967104Y-151358876D01*
X216967104Y-151168400D01*
X217005200Y-151054114D01*
X217081390Y-150977923D01*
X217157580Y-150939828D01*
X217309961Y-150901733D01*
X217424247Y-150901733D01*
X217576628Y-150939828D01*
X217652819Y-150977923D01*
X217729009Y-151054114D01*
X217767104Y-151168400D01*
X217767104Y-151358876D01*
X217817904Y-149974428D02*
X217017904Y-149974428D01*
X217398857Y-149974428D02*
X217398857Y-149517285D01*
X217817904Y-149517285D02*
X217017904Y-149517285D01*
X217017904Y-149250619D02*
X217817904Y-148983952D01*
X217017904Y-148717285D01*
X211264704Y-155314790D02*
X211264704Y-155695742D01*
X210464704Y-155695742D01*
X210464704Y-155162409D02*
X211264704Y-154895742D01*
X210464704Y-154629076D01*
X210464704Y-154438600D02*
X210464704Y-153943361D01*
X210769466Y-154210028D01*
X210769466Y-154095742D01*
X210807561Y-154019552D01*
X210845657Y-153981457D01*
X210921847Y-153943361D01*
X211112323Y-153943361D01*
X211188514Y-153981457D01*
X211226609Y-154019552D01*
X211264704Y-154095742D01*
X211264704Y-154324314D01*
X211226609Y-154400504D01*
X211188514Y-154438600D01*
%TO.C,U4*%
X219334414Y-86102180D02*
X219667747Y-87102180D01*
X220001080Y-86102180D01*
X220334414Y-87102180D02*
X220334414Y-86102180D01*
X220810604Y-87102180D02*
X220810604Y-86102180D01*
X221382033Y-87102180D01*
X221382033Y-86102180D01*
X221858223Y-86721228D02*
X222620128Y-86721228D01*
X207390147Y-86076780D02*
X207723480Y-87076780D01*
X208056814Y-86076780D01*
X208580623Y-86076780D02*
X208771100Y-86076780D01*
X208866338Y-86124400D01*
X208961576Y-86219638D01*
X209009195Y-86410114D01*
X209009195Y-86743447D01*
X208961576Y-86933923D01*
X208866338Y-87029161D01*
X208771100Y-87076780D01*
X208580623Y-87076780D01*
X208485385Y-87029161D01*
X208390147Y-86933923D01*
X208342528Y-86743447D01*
X208342528Y-86410114D01*
X208390147Y-86219638D01*
X208485385Y-86124400D01*
X208580623Y-86076780D01*
X209437766Y-86076780D02*
X209437766Y-86886304D01*
X209485385Y-86981542D01*
X209533004Y-87029161D01*
X209628242Y-87076780D01*
X209818719Y-87076780D01*
X209913957Y-87029161D01*
X209961576Y-86981542D01*
X210009195Y-86886304D01*
X210009195Y-86076780D01*
X210342528Y-86076780D02*
X210913957Y-86076780D01*
X210628242Y-87076780D02*
X210628242Y-86076780D01*
X211247290Y-86695828D02*
X212009195Y-86695828D01*
X207517147Y-88591380D02*
X207850480Y-89591380D01*
X208183814Y-88591380D01*
X208707623Y-88591380D02*
X208898100Y-88591380D01*
X208993338Y-88639000D01*
X209088576Y-88734238D01*
X209136195Y-88924714D01*
X209136195Y-89258047D01*
X209088576Y-89448523D01*
X208993338Y-89543761D01*
X208898100Y-89591380D01*
X208707623Y-89591380D01*
X208612385Y-89543761D01*
X208517147Y-89448523D01*
X208469528Y-89258047D01*
X208469528Y-88924714D01*
X208517147Y-88734238D01*
X208612385Y-88639000D01*
X208707623Y-88591380D01*
X209564766Y-88591380D02*
X209564766Y-89400904D01*
X209612385Y-89496142D01*
X209660004Y-89543761D01*
X209755242Y-89591380D01*
X209945719Y-89591380D01*
X210040957Y-89543761D01*
X210088576Y-89496142D01*
X210136195Y-89400904D01*
X210136195Y-88591380D01*
X210469528Y-88591380D02*
X211040957Y-88591380D01*
X210755242Y-89591380D02*
X210755242Y-88591380D01*
X211374290Y-89210428D02*
X212136195Y-89210428D01*
X219461414Y-88616780D02*
X219794747Y-89616780D01*
X220128080Y-88616780D01*
X220461414Y-89616780D02*
X220461414Y-88616780D01*
X220937604Y-89616780D02*
X220937604Y-88616780D01*
X221509033Y-89616780D01*
X221509033Y-88616780D01*
X221985223Y-89235828D02*
X222747128Y-89235828D01*
X207339347Y-75764380D02*
X207672680Y-76764380D01*
X208006014Y-75764380D01*
X208529823Y-75764380D02*
X208720300Y-75764380D01*
X208815538Y-75812000D01*
X208910776Y-75907238D01*
X208958395Y-76097714D01*
X208958395Y-76431047D01*
X208910776Y-76621523D01*
X208815538Y-76716761D01*
X208720300Y-76764380D01*
X208529823Y-76764380D01*
X208434585Y-76716761D01*
X208339347Y-76621523D01*
X208291728Y-76431047D01*
X208291728Y-76097714D01*
X208339347Y-75907238D01*
X208434585Y-75812000D01*
X208529823Y-75764380D01*
X209386966Y-75764380D02*
X209386966Y-76573904D01*
X209434585Y-76669142D01*
X209482204Y-76716761D01*
X209577442Y-76764380D01*
X209767919Y-76764380D01*
X209863157Y-76716761D01*
X209910776Y-76669142D01*
X209958395Y-76573904D01*
X209958395Y-75764380D01*
X210291728Y-75764380D02*
X210863157Y-75764380D01*
X210577442Y-76764380D02*
X210577442Y-75764380D01*
X211196490Y-76383428D02*
X211958395Y-76383428D01*
X211577442Y-76764380D02*
X211577442Y-76002476D01*
X219309014Y-78202780D02*
X219642347Y-79202780D01*
X219975680Y-78202780D01*
X220309014Y-79202780D02*
X220309014Y-78202780D01*
X220785204Y-79202780D02*
X220785204Y-78202780D01*
X221356633Y-79202780D01*
X221356633Y-78202780D01*
X221832823Y-78821828D02*
X222594728Y-78821828D01*
X222213776Y-79202780D02*
X222213776Y-78440876D01*
X219283614Y-75789780D02*
X219616947Y-76789780D01*
X219950280Y-75789780D01*
X220283614Y-76789780D02*
X220283614Y-75789780D01*
X220759804Y-76789780D02*
X220759804Y-75789780D01*
X221331233Y-76789780D01*
X221331233Y-75789780D01*
X221807423Y-76408828D02*
X222569328Y-76408828D01*
X222188376Y-76789780D02*
X222188376Y-76027876D01*
X207364747Y-78177380D02*
X207698080Y-79177380D01*
X208031414Y-78177380D01*
X208555223Y-78177380D02*
X208745700Y-78177380D01*
X208840938Y-78225000D01*
X208936176Y-78320238D01*
X208983795Y-78510714D01*
X208983795Y-78844047D01*
X208936176Y-79034523D01*
X208840938Y-79129761D01*
X208745700Y-79177380D01*
X208555223Y-79177380D01*
X208459985Y-79129761D01*
X208364747Y-79034523D01*
X208317128Y-78844047D01*
X208317128Y-78510714D01*
X208364747Y-78320238D01*
X208459985Y-78225000D01*
X208555223Y-78177380D01*
X209412366Y-78177380D02*
X209412366Y-78986904D01*
X209459985Y-79082142D01*
X209507604Y-79129761D01*
X209602842Y-79177380D01*
X209793319Y-79177380D01*
X209888557Y-79129761D01*
X209936176Y-79082142D01*
X209983795Y-78986904D01*
X209983795Y-78177380D01*
X210317128Y-78177380D02*
X210888557Y-78177380D01*
X210602842Y-79177380D02*
X210602842Y-78177380D01*
X211221890Y-78796428D02*
X211983795Y-78796428D01*
X211602842Y-79177380D02*
X211602842Y-78415476D01*
%TO.C,U3*%
X119367995Y-106902400D02*
X119272757Y-106854780D01*
X119129900Y-106854780D01*
X118987042Y-106902400D01*
X118891804Y-106997638D01*
X118844185Y-107092876D01*
X118796566Y-107283352D01*
X118796566Y-107426209D01*
X118844185Y-107616685D01*
X118891804Y-107711923D01*
X118987042Y-107807161D01*
X119129900Y-107854780D01*
X119225138Y-107854780D01*
X119367995Y-107807161D01*
X119415614Y-107759542D01*
X119415614Y-107426209D01*
X119225138Y-107426209D01*
X119844185Y-107854780D02*
X119844185Y-106854780D01*
X120415614Y-107854780D01*
X120415614Y-106854780D01*
X120891804Y-107854780D02*
X120891804Y-106854780D01*
X121129900Y-106854780D01*
X121272757Y-106902400D01*
X121367995Y-106997638D01*
X121415614Y-107092876D01*
X121463233Y-107283352D01*
X121463233Y-107426209D01*
X121415614Y-107616685D01*
X121367995Y-107711923D01*
X121272757Y-107807161D01*
X121129900Y-107854780D01*
X120891804Y-107854780D01*
X119590233Y-102679542D02*
X119542614Y-102727161D01*
X119399757Y-102774780D01*
X119304519Y-102774780D01*
X119161661Y-102727161D01*
X119066423Y-102631923D01*
X119018804Y-102536685D01*
X118971185Y-102346209D01*
X118971185Y-102203352D01*
X119018804Y-102012876D01*
X119066423Y-101917638D01*
X119161661Y-101822400D01*
X119304519Y-101774780D01*
X119399757Y-101774780D01*
X119542614Y-101822400D01*
X119590233Y-101870019D01*
X120590233Y-102774780D02*
X120256900Y-102298590D01*
X120018804Y-102774780D02*
X120018804Y-101774780D01*
X120399757Y-101774780D01*
X120494995Y-101822400D01*
X120542614Y-101870019D01*
X120590233Y-101965257D01*
X120590233Y-102108114D01*
X120542614Y-102203352D01*
X120494995Y-102250971D01*
X120399757Y-102298590D01*
X120018804Y-102298590D01*
X120923566Y-101774780D02*
X121590233Y-102774780D01*
X121590233Y-101774780D02*
X120923566Y-102774780D01*
X119582280Y-105041742D02*
X119534661Y-105089361D01*
X119391804Y-105136980D01*
X119296566Y-105136980D01*
X119153709Y-105089361D01*
X119058471Y-104994123D01*
X119010852Y-104898885D01*
X118963233Y-104708409D01*
X118963233Y-104565552D01*
X119010852Y-104375076D01*
X119058471Y-104279838D01*
X119153709Y-104184600D01*
X119296566Y-104136980D01*
X119391804Y-104136980D01*
X119534661Y-104184600D01*
X119582280Y-104232219D01*
X119867995Y-104136980D02*
X120439423Y-104136980D01*
X120153709Y-105136980D02*
X120153709Y-104136980D01*
X120677519Y-104136980D02*
X121344185Y-105136980D01*
X121344185Y-104136980D02*
X120677519Y-105136980D01*
X118790204Y-109496380D02*
X119409252Y-109496380D01*
X119075919Y-109877333D01*
X119218776Y-109877333D01*
X119314014Y-109924952D01*
X119361633Y-109972571D01*
X119409252Y-110067809D01*
X119409252Y-110305904D01*
X119361633Y-110401142D01*
X119314014Y-110448761D01*
X119218776Y-110496380D01*
X118933061Y-110496380D01*
X118837823Y-110448761D01*
X118790204Y-110401142D01*
X119694966Y-109496380D02*
X120028300Y-110496380D01*
X120361633Y-109496380D01*
X120599728Y-109496380D02*
X121218776Y-109496380D01*
X120885442Y-109877333D01*
X121028300Y-109877333D01*
X121123538Y-109924952D01*
X121171157Y-109972571D01*
X121218776Y-110067809D01*
X121218776Y-110305904D01*
X121171157Y-110401142D01*
X121123538Y-110448761D01*
X121028300Y-110496380D01*
X120742585Y-110496380D01*
X120647347Y-110448761D01*
X120599728Y-110401142D01*
X119539528Y-97497942D02*
X119491909Y-97545561D01*
X119349052Y-97593180D01*
X119253814Y-97593180D01*
X119110957Y-97545561D01*
X119015719Y-97450323D01*
X118968100Y-97355085D01*
X118920480Y-97164609D01*
X118920480Y-97021752D01*
X118968100Y-96831276D01*
X119015719Y-96736038D01*
X119110957Y-96640800D01*
X119253814Y-96593180D01*
X119349052Y-96593180D01*
X119491909Y-96640800D01*
X119539528Y-96688419D01*
X119920480Y-97307466D02*
X120396671Y-97307466D01*
X119825242Y-97593180D02*
X120158576Y-96593180D01*
X120491909Y-97593180D01*
X120825242Y-97593180D02*
X120825242Y-96593180D01*
X121396671Y-97593180D01*
X121396671Y-96593180D01*
X121634766Y-97688419D02*
X122396671Y-97688419D01*
X123110957Y-97593180D02*
X122634766Y-97593180D01*
X122634766Y-96593180D01*
X119369680Y-100164942D02*
X119322061Y-100212561D01*
X119179204Y-100260180D01*
X119083966Y-100260180D01*
X118941109Y-100212561D01*
X118845871Y-100117323D01*
X118798252Y-100022085D01*
X118750633Y-99831609D01*
X118750633Y-99688752D01*
X118798252Y-99498276D01*
X118845871Y-99403038D01*
X118941109Y-99307800D01*
X119083966Y-99260180D01*
X119179204Y-99260180D01*
X119322061Y-99307800D01*
X119369680Y-99355419D01*
X119750633Y-99974466D02*
X120226823Y-99974466D01*
X119655395Y-100260180D02*
X119988728Y-99260180D01*
X120322061Y-100260180D01*
X120655395Y-100260180D02*
X120655395Y-99260180D01*
X121226823Y-100260180D01*
X121226823Y-99260180D01*
X121464919Y-100355419D02*
X122226823Y-100355419D01*
X122464919Y-100260180D02*
X122464919Y-99260180D01*
X122464919Y-99736371D02*
X123036347Y-99736371D01*
X123036347Y-100260180D02*
X123036347Y-99260180D01*
%TO.C,U8*%
X113471819Y-142867195D02*
X113471819Y-143438623D01*
X112471819Y-143152909D02*
X113471819Y-143152909D01*
X113471819Y-143676719D02*
X112471819Y-144343385D01*
X113471819Y-144343385D02*
X112471819Y-143676719D01*
X115989600Y-142892595D02*
X116037219Y-142797357D01*
X116037219Y-142654500D01*
X115989600Y-142511642D01*
X115894361Y-142416404D01*
X115799123Y-142368785D01*
X115608647Y-142321166D01*
X115465790Y-142321166D01*
X115275314Y-142368785D01*
X115180076Y-142416404D01*
X115084838Y-142511642D01*
X115037219Y-142654500D01*
X115037219Y-142749738D01*
X115084838Y-142892595D01*
X115132457Y-142940214D01*
X115465790Y-142940214D01*
X115465790Y-142749738D01*
X115037219Y-143368785D02*
X116037219Y-143368785D01*
X115037219Y-143940214D01*
X116037219Y-143940214D01*
X115037219Y-144416404D02*
X116037219Y-144416404D01*
X116037219Y-144654500D01*
X115989600Y-144797357D01*
X115894361Y-144892595D01*
X115799123Y-144940214D01*
X115608647Y-144987833D01*
X115465790Y-144987833D01*
X115275314Y-144940214D01*
X115180076Y-144892595D01*
X115084838Y-144797357D01*
X115037219Y-144654500D01*
X115037219Y-144416404D01*
X108366419Y-142365604D02*
X108366419Y-142984652D01*
X107985466Y-142651319D01*
X107985466Y-142794176D01*
X107937847Y-142889414D01*
X107890228Y-142937033D01*
X107794990Y-142984652D01*
X107556895Y-142984652D01*
X107461657Y-142937033D01*
X107414038Y-142889414D01*
X107366419Y-142794176D01*
X107366419Y-142508461D01*
X107414038Y-142413223D01*
X107461657Y-142365604D01*
X108366419Y-143270366D02*
X107366419Y-143603700D01*
X108366419Y-143937033D01*
X108366419Y-144175128D02*
X108366419Y-144794176D01*
X107985466Y-144460842D01*
X107985466Y-144603700D01*
X107937847Y-144698938D01*
X107890228Y-144746557D01*
X107794990Y-144794176D01*
X107556895Y-144794176D01*
X107461657Y-144746557D01*
X107414038Y-144698938D01*
X107366419Y-144603700D01*
X107366419Y-144317985D01*
X107414038Y-144222747D01*
X107461657Y-144175128D01*
X109906419Y-143411633D02*
X110382609Y-143078300D01*
X109906419Y-142840204D02*
X110906419Y-142840204D01*
X110906419Y-143221157D01*
X110858800Y-143316395D01*
X110811180Y-143364014D01*
X110715942Y-143411633D01*
X110573085Y-143411633D01*
X110477847Y-143364014D01*
X110430228Y-143316395D01*
X110382609Y-143221157D01*
X110382609Y-142840204D01*
X110906419Y-143744966D02*
X109906419Y-144411633D01*
X110906419Y-144411633D02*
X109906419Y-143744966D01*
%TO.C,U5*%
X219334414Y-107946180D02*
X219667747Y-108946180D01*
X220001080Y-107946180D01*
X220334414Y-108946180D02*
X220334414Y-107946180D01*
X220810604Y-108946180D02*
X220810604Y-107946180D01*
X221382033Y-108946180D01*
X221382033Y-107946180D01*
X221858223Y-108565228D02*
X222620128Y-108565228D01*
X207364747Y-100021380D02*
X207698080Y-101021380D01*
X208031414Y-100021380D01*
X208555223Y-100021380D02*
X208745700Y-100021380D01*
X208840938Y-100069000D01*
X208936176Y-100164238D01*
X208983795Y-100354714D01*
X208983795Y-100688047D01*
X208936176Y-100878523D01*
X208840938Y-100973761D01*
X208745700Y-101021380D01*
X208555223Y-101021380D01*
X208459985Y-100973761D01*
X208364747Y-100878523D01*
X208317128Y-100688047D01*
X208317128Y-100354714D01*
X208364747Y-100164238D01*
X208459985Y-100069000D01*
X208555223Y-100021380D01*
X209412366Y-100021380D02*
X209412366Y-100830904D01*
X209459985Y-100926142D01*
X209507604Y-100973761D01*
X209602842Y-101021380D01*
X209793319Y-101021380D01*
X209888557Y-100973761D01*
X209936176Y-100926142D01*
X209983795Y-100830904D01*
X209983795Y-100021380D01*
X210317128Y-100021380D02*
X210888557Y-100021380D01*
X210602842Y-101021380D02*
X210602842Y-100021380D01*
X211221890Y-100640428D02*
X211983795Y-100640428D01*
X211602842Y-101021380D02*
X211602842Y-100259476D01*
X207390147Y-107920780D02*
X207723480Y-108920780D01*
X208056814Y-107920780D01*
X208580623Y-107920780D02*
X208771100Y-107920780D01*
X208866338Y-107968400D01*
X208961576Y-108063638D01*
X209009195Y-108254114D01*
X209009195Y-108587447D01*
X208961576Y-108777923D01*
X208866338Y-108873161D01*
X208771100Y-108920780D01*
X208580623Y-108920780D01*
X208485385Y-108873161D01*
X208390147Y-108777923D01*
X208342528Y-108587447D01*
X208342528Y-108254114D01*
X208390147Y-108063638D01*
X208485385Y-107968400D01*
X208580623Y-107920780D01*
X209437766Y-107920780D02*
X209437766Y-108730304D01*
X209485385Y-108825542D01*
X209533004Y-108873161D01*
X209628242Y-108920780D01*
X209818719Y-108920780D01*
X209913957Y-108873161D01*
X209961576Y-108825542D01*
X210009195Y-108730304D01*
X210009195Y-107920780D01*
X210342528Y-107920780D02*
X210913957Y-107920780D01*
X210628242Y-108920780D02*
X210628242Y-107920780D01*
X211247290Y-108539828D02*
X212009195Y-108539828D01*
X219283614Y-97633780D02*
X219616947Y-98633780D01*
X219950280Y-97633780D01*
X220283614Y-98633780D02*
X220283614Y-97633780D01*
X220759804Y-98633780D02*
X220759804Y-97633780D01*
X221331233Y-98633780D01*
X221331233Y-97633780D01*
X221807423Y-98252828D02*
X222569328Y-98252828D01*
X222188376Y-98633780D02*
X222188376Y-97871876D01*
X219309014Y-100046780D02*
X219642347Y-101046780D01*
X219975680Y-100046780D01*
X220309014Y-101046780D02*
X220309014Y-100046780D01*
X220785204Y-101046780D02*
X220785204Y-100046780D01*
X221356633Y-101046780D01*
X221356633Y-100046780D01*
X221832823Y-100665828D02*
X222594728Y-100665828D01*
X222213776Y-101046780D02*
X222213776Y-100284876D01*
X207517147Y-110435380D02*
X207850480Y-111435380D01*
X208183814Y-110435380D01*
X208707623Y-110435380D02*
X208898100Y-110435380D01*
X208993338Y-110483000D01*
X209088576Y-110578238D01*
X209136195Y-110768714D01*
X209136195Y-111102047D01*
X209088576Y-111292523D01*
X208993338Y-111387761D01*
X208898100Y-111435380D01*
X208707623Y-111435380D01*
X208612385Y-111387761D01*
X208517147Y-111292523D01*
X208469528Y-111102047D01*
X208469528Y-110768714D01*
X208517147Y-110578238D01*
X208612385Y-110483000D01*
X208707623Y-110435380D01*
X209564766Y-110435380D02*
X209564766Y-111244904D01*
X209612385Y-111340142D01*
X209660004Y-111387761D01*
X209755242Y-111435380D01*
X209945719Y-111435380D01*
X210040957Y-111387761D01*
X210088576Y-111340142D01*
X210136195Y-111244904D01*
X210136195Y-110435380D01*
X210469528Y-110435380D02*
X211040957Y-110435380D01*
X210755242Y-111435380D02*
X210755242Y-110435380D01*
X211374290Y-111054428D02*
X212136195Y-111054428D01*
X207339347Y-97608380D02*
X207672680Y-98608380D01*
X208006014Y-97608380D01*
X208529823Y-97608380D02*
X208720300Y-97608380D01*
X208815538Y-97656000D01*
X208910776Y-97751238D01*
X208958395Y-97941714D01*
X208958395Y-98275047D01*
X208910776Y-98465523D01*
X208815538Y-98560761D01*
X208720300Y-98608380D01*
X208529823Y-98608380D01*
X208434585Y-98560761D01*
X208339347Y-98465523D01*
X208291728Y-98275047D01*
X208291728Y-97941714D01*
X208339347Y-97751238D01*
X208434585Y-97656000D01*
X208529823Y-97608380D01*
X209386966Y-97608380D02*
X209386966Y-98417904D01*
X209434585Y-98513142D01*
X209482204Y-98560761D01*
X209577442Y-98608380D01*
X209767919Y-98608380D01*
X209863157Y-98560761D01*
X209910776Y-98513142D01*
X209958395Y-98417904D01*
X209958395Y-97608380D01*
X210291728Y-97608380D02*
X210863157Y-97608380D01*
X210577442Y-98608380D02*
X210577442Y-97608380D01*
X211196490Y-98227428D02*
X211958395Y-98227428D01*
X211577442Y-98608380D02*
X211577442Y-97846476D01*
X219461414Y-110460780D02*
X219794747Y-111460780D01*
X220128080Y-110460780D01*
X220461414Y-111460780D02*
X220461414Y-110460780D01*
X220937604Y-111460780D02*
X220937604Y-110460780D01*
X221509033Y-111460780D01*
X221509033Y-110460780D01*
X221985223Y-111079828D02*
X222747128Y-111079828D01*
%TO.C,U1*%
X188277523Y-87037880D02*
X187801333Y-87037880D01*
X187753714Y-87514071D01*
X187801333Y-87466452D01*
X187896571Y-87418833D01*
X188134666Y-87418833D01*
X188229904Y-87466452D01*
X188277523Y-87514071D01*
X188325142Y-87609309D01*
X188325142Y-87847404D01*
X188277523Y-87942642D01*
X188229904Y-87990261D01*
X188134666Y-88037880D01*
X187896571Y-88037880D01*
X187801333Y-87990261D01*
X187753714Y-87942642D01*
X188610857Y-87037880D02*
X188944190Y-88037880D01*
X189277523Y-87037880D01*
%TO.C,U7*%
X247339004Y-90082319D02*
X246767576Y-90082319D01*
X247053290Y-89082319D02*
X247053290Y-90082319D01*
X246529480Y-90082319D02*
X245862814Y-89082319D01*
X245862814Y-90082319D02*
X246529480Y-89082319D01*
X246692966Y-91622319D02*
X247026300Y-92098509D01*
X247264395Y-91622319D02*
X247264395Y-92622319D01*
X246883442Y-92622319D01*
X246788204Y-92574700D01*
X246740585Y-92527080D01*
X246692966Y-92431842D01*
X246692966Y-92288985D01*
X246740585Y-92193747D01*
X246788204Y-92146128D01*
X246883442Y-92098509D01*
X247264395Y-92098509D01*
X246359633Y-92622319D02*
X245692966Y-91622319D01*
X245692966Y-92622319D02*
X246359633Y-91622319D01*
X236697852Y-90209319D02*
X236697852Y-89399795D01*
X236650233Y-89304557D01*
X236602614Y-89256938D01*
X236507376Y-89209319D01*
X236316900Y-89209319D01*
X236221661Y-89256938D01*
X236174042Y-89304557D01*
X236126423Y-89399795D01*
X236126423Y-90209319D01*
X235697852Y-89256938D02*
X235554995Y-89209319D01*
X235316900Y-89209319D01*
X235221661Y-89256938D01*
X235174042Y-89304557D01*
X235126423Y-89399795D01*
X235126423Y-89495033D01*
X235174042Y-89590271D01*
X235221661Y-89637890D01*
X235316900Y-89685509D01*
X235507376Y-89733128D01*
X235602614Y-89780747D01*
X235650233Y-89828366D01*
X235697852Y-89923604D01*
X235697852Y-90018842D01*
X235650233Y-90114080D01*
X235602614Y-90161700D01*
X235507376Y-90209319D01*
X235269280Y-90209319D01*
X235126423Y-90161700D01*
X234364519Y-89733128D02*
X234221661Y-89685509D01*
X234174042Y-89637890D01*
X234126423Y-89542652D01*
X234126423Y-89399795D01*
X234174042Y-89304557D01*
X234221661Y-89256938D01*
X234316900Y-89209319D01*
X234697852Y-89209319D01*
X234697852Y-90209319D01*
X234364519Y-90209319D01*
X234269280Y-90161700D01*
X234221661Y-90114080D01*
X234174042Y-90018842D01*
X234174042Y-89923604D01*
X234221661Y-89828366D01*
X234269280Y-89780747D01*
X234364519Y-89733128D01*
X234697852Y-89733128D01*
X233697852Y-89590271D02*
X232935947Y-89590271D01*
X233316900Y-89209319D02*
X233316900Y-89971223D01*
X238809090Y-84186433D02*
X238332900Y-84186433D01*
X238904328Y-83900719D02*
X238570995Y-84900719D01*
X238237661Y-83900719D01*
X237904328Y-83900719D02*
X237904328Y-84900719D01*
X237666233Y-84900719D01*
X237523376Y-84853100D01*
X237428138Y-84757861D01*
X237380519Y-84662623D01*
X237332900Y-84472147D01*
X237332900Y-84329290D01*
X237380519Y-84138814D01*
X237428138Y-84043576D01*
X237523376Y-83948338D01*
X237666233Y-83900719D01*
X237904328Y-83900719D01*
X236904328Y-83900719D02*
X236904328Y-84900719D01*
X236332900Y-83900719D02*
X236761471Y-84472147D01*
X236332900Y-84900719D02*
X236904328Y-84329290D01*
X235904328Y-84424528D02*
X235570995Y-84424528D01*
X235428138Y-83900719D02*
X235904328Y-83900719D01*
X235904328Y-84900719D01*
X235428138Y-84900719D01*
X234809090Y-84376909D02*
X234809090Y-83900719D01*
X235142423Y-84900719D02*
X234809090Y-84376909D01*
X234475757Y-84900719D01*
X234380519Y-83805480D02*
X233618614Y-83805480D01*
X232856709Y-83900719D02*
X233428138Y-83900719D01*
X233142423Y-83900719D02*
X233142423Y-84900719D01*
X233237661Y-84757861D01*
X233332900Y-84662623D01*
X233428138Y-84615004D01*
X247738947Y-79823900D02*
X247834185Y-79871519D01*
X247977042Y-79871519D01*
X248119900Y-79823900D01*
X248215138Y-79728661D01*
X248262757Y-79633423D01*
X248310376Y-79442947D01*
X248310376Y-79300090D01*
X248262757Y-79109614D01*
X248215138Y-79014376D01*
X248119900Y-78919138D01*
X247977042Y-78871519D01*
X247881804Y-78871519D01*
X247738947Y-78919138D01*
X247691328Y-78966757D01*
X247691328Y-79300090D01*
X247881804Y-79300090D01*
X247262757Y-78871519D02*
X247262757Y-79871519D01*
X246691328Y-78871519D01*
X246691328Y-79871519D01*
X246215138Y-78871519D02*
X246215138Y-79871519D01*
X245977042Y-79871519D01*
X245834185Y-79823900D01*
X245738947Y-79728661D01*
X245691328Y-79633423D01*
X245643709Y-79442947D01*
X245643709Y-79300090D01*
X245691328Y-79109614D01*
X245738947Y-79014376D01*
X245834185Y-78919138D01*
X245977042Y-78871519D01*
X246215138Y-78871519D01*
X245453233Y-78776280D02*
X244691328Y-78776280D01*
X243929423Y-78871519D02*
X244500852Y-78871519D01*
X244215138Y-78871519D02*
X244215138Y-79871519D01*
X244310376Y-79728661D01*
X244405614Y-79633423D01*
X244500852Y-79585804D01*
X247780157Y-76353738D02*
X247637300Y-76306119D01*
X247399204Y-76306119D01*
X247303966Y-76353738D01*
X247256347Y-76401357D01*
X247208728Y-76496595D01*
X247208728Y-76591833D01*
X247256347Y-76687071D01*
X247303966Y-76734690D01*
X247399204Y-76782309D01*
X247589680Y-76829928D01*
X247684919Y-76877547D01*
X247732538Y-76925166D01*
X247780157Y-77020404D01*
X247780157Y-77115642D01*
X247732538Y-77210880D01*
X247684919Y-77258500D01*
X247589680Y-77306119D01*
X247351585Y-77306119D01*
X247208728Y-77258500D01*
X246780157Y-76306119D02*
X246780157Y-77306119D01*
X246399204Y-77306119D01*
X246303966Y-77258500D01*
X246256347Y-77210880D01*
X246208728Y-77115642D01*
X246208728Y-76972785D01*
X246256347Y-76877547D01*
X246303966Y-76829928D01*
X246399204Y-76782309D01*
X246780157Y-76782309D01*
X245780157Y-76306119D02*
X245780157Y-77306119D01*
X245208728Y-76306119D02*
X245637300Y-76877547D01*
X245208728Y-77306119D02*
X245780157Y-76734690D01*
X245018252Y-76210880D02*
X244256347Y-76210880D01*
X244065871Y-77210880D02*
X244018252Y-77258500D01*
X243923014Y-77306119D01*
X243684919Y-77306119D01*
X243589680Y-77258500D01*
X243542061Y-77210880D01*
X243494442Y-77115642D01*
X243494442Y-77020404D01*
X243542061Y-76877547D01*
X244113490Y-76306119D01*
X243494442Y-76306119D01*
X236672452Y-92723919D02*
X236672452Y-91914395D01*
X236624833Y-91819157D01*
X236577214Y-91771538D01*
X236481976Y-91723919D01*
X236291500Y-91723919D01*
X236196261Y-91771538D01*
X236148642Y-91819157D01*
X236101023Y-91914395D01*
X236101023Y-92723919D01*
X235672452Y-91771538D02*
X235529595Y-91723919D01*
X235291500Y-91723919D01*
X235196261Y-91771538D01*
X235148642Y-91819157D01*
X235101023Y-91914395D01*
X235101023Y-92009633D01*
X235148642Y-92104871D01*
X235196261Y-92152490D01*
X235291500Y-92200109D01*
X235481976Y-92247728D01*
X235577214Y-92295347D01*
X235624833Y-92342966D01*
X235672452Y-92438204D01*
X235672452Y-92533442D01*
X235624833Y-92628680D01*
X235577214Y-92676300D01*
X235481976Y-92723919D01*
X235243880Y-92723919D01*
X235101023Y-92676300D01*
X234339119Y-92247728D02*
X234196261Y-92200109D01*
X234148642Y-92152490D01*
X234101023Y-92057252D01*
X234101023Y-91914395D01*
X234148642Y-91819157D01*
X234196261Y-91771538D01*
X234291500Y-91723919D01*
X234672452Y-91723919D01*
X234672452Y-92723919D01*
X234339119Y-92723919D01*
X234243880Y-92676300D01*
X234196261Y-92628680D01*
X234148642Y-92533442D01*
X234148642Y-92438204D01*
X234196261Y-92342966D01*
X234243880Y-92295347D01*
X234339119Y-92247728D01*
X234672452Y-92247728D01*
X233672452Y-92104871D02*
X232910547Y-92104871D01*
X247497623Y-84078519D02*
X247497623Y-85078519D01*
X247259528Y-85078519D01*
X247116671Y-85030900D01*
X247021433Y-84935661D01*
X246973814Y-84840423D01*
X246926195Y-84649947D01*
X246926195Y-84507090D01*
X246973814Y-84316614D01*
X247021433Y-84221376D01*
X247116671Y-84126138D01*
X247259528Y-84078519D01*
X247497623Y-84078519D01*
X246545242Y-84364233D02*
X246069052Y-84364233D01*
X246640480Y-84078519D02*
X246307147Y-85078519D01*
X245973814Y-84078519D01*
X245069052Y-84173757D02*
X245116671Y-84126138D01*
X245259528Y-84078519D01*
X245354766Y-84078519D01*
X245497623Y-84126138D01*
X245592861Y-84221376D01*
X245640480Y-84316614D01*
X245688100Y-84507090D01*
X245688100Y-84649947D01*
X245640480Y-84840423D01*
X245592861Y-84935661D01*
X245497623Y-85030900D01*
X245354766Y-85078519D01*
X245259528Y-85078519D01*
X245116671Y-85030900D01*
X245069052Y-84983280D01*
X244878576Y-83983280D02*
X244116671Y-83983280D01*
X243878576Y-84078519D02*
X243878576Y-85078519D01*
X247424557Y-81586138D02*
X247281700Y-81538519D01*
X247043604Y-81538519D01*
X246948366Y-81586138D01*
X246900747Y-81633757D01*
X246853128Y-81728995D01*
X246853128Y-81824233D01*
X246900747Y-81919471D01*
X246948366Y-81967090D01*
X247043604Y-82014709D01*
X247234080Y-82062328D01*
X247329319Y-82109947D01*
X247376938Y-82157566D01*
X247424557Y-82252804D01*
X247424557Y-82348042D01*
X247376938Y-82443280D01*
X247329319Y-82490900D01*
X247234080Y-82538519D01*
X246995985Y-82538519D01*
X246853128Y-82490900D01*
X246424557Y-81538519D02*
X246424557Y-82538519D01*
X246043604Y-82538519D01*
X245948366Y-82490900D01*
X245900747Y-82443280D01*
X245853128Y-82348042D01*
X245853128Y-82205185D01*
X245900747Y-82109947D01*
X245948366Y-82062328D01*
X246043604Y-82014709D01*
X246424557Y-82014709D01*
X245424557Y-81538519D02*
X245424557Y-82538519D01*
X244853128Y-81538519D02*
X245281700Y-82109947D01*
X244853128Y-82538519D02*
X245424557Y-81967090D01*
X244662652Y-81443280D02*
X243900747Y-81443280D01*
X243138842Y-81538519D02*
X243710271Y-81538519D01*
X243424557Y-81538519D02*
X243424557Y-82538519D01*
X243519795Y-82395661D01*
X243615033Y-82300423D01*
X243710271Y-82252804D01*
X235791452Y-81640119D02*
X235791452Y-82640119D01*
X235124785Y-82640119D02*
X234934309Y-82640119D01*
X234839071Y-82592500D01*
X234743833Y-82497261D01*
X234696214Y-82306785D01*
X234696214Y-81973452D01*
X234743833Y-81782976D01*
X234839071Y-81687738D01*
X234934309Y-81640119D01*
X235124785Y-81640119D01*
X235220023Y-81687738D01*
X235315261Y-81782976D01*
X235362880Y-81973452D01*
X235362880Y-82306785D01*
X235315261Y-82497261D01*
X235220023Y-82592500D01*
X235124785Y-82640119D01*
X234505738Y-81544880D02*
X233743833Y-81544880D01*
X233553357Y-82544880D02*
X233505738Y-82592500D01*
X233410500Y-82640119D01*
X233172404Y-82640119D01*
X233077166Y-82592500D01*
X233029547Y-82544880D01*
X232981928Y-82449642D01*
X232981928Y-82354404D01*
X233029547Y-82211547D01*
X233600976Y-81640119D01*
X232981928Y-81640119D01*
X247708728Y-86593119D02*
X247708728Y-87593119D01*
X247470633Y-87593119D01*
X247327776Y-87545500D01*
X247232538Y-87450261D01*
X247184919Y-87355023D01*
X247137300Y-87164547D01*
X247137300Y-87021690D01*
X247184919Y-86831214D01*
X247232538Y-86735976D01*
X247327776Y-86640738D01*
X247470633Y-86593119D01*
X247708728Y-86593119D01*
X246756347Y-86878833D02*
X246280157Y-86878833D01*
X246851585Y-86593119D02*
X246518252Y-87593119D01*
X246184919Y-86593119D01*
X245280157Y-86688357D02*
X245327776Y-86640738D01*
X245470633Y-86593119D01*
X245565871Y-86593119D01*
X245708728Y-86640738D01*
X245803966Y-86735976D01*
X245851585Y-86831214D01*
X245899204Y-87021690D01*
X245899204Y-87164547D01*
X245851585Y-87355023D01*
X245803966Y-87450261D01*
X245708728Y-87545500D01*
X245565871Y-87593119D01*
X245470633Y-87593119D01*
X245327776Y-87545500D01*
X245280157Y-87497880D01*
X245089680Y-86497880D02*
X244327776Y-86497880D01*
X243518252Y-86593119D02*
X243851585Y-87069309D01*
X244089680Y-86593119D02*
X244089680Y-87593119D01*
X243708728Y-87593119D01*
X243613490Y-87545500D01*
X243565871Y-87497880D01*
X243518252Y-87402642D01*
X243518252Y-87259785D01*
X243565871Y-87164547D01*
X243613490Y-87116928D01*
X243708728Y-87069309D01*
X244089680Y-87069309D01*
X238859890Y-86828033D02*
X238383700Y-86828033D01*
X238955128Y-86542319D02*
X238621795Y-87542319D01*
X238288461Y-86542319D01*
X237955128Y-86542319D02*
X237955128Y-87542319D01*
X237717033Y-87542319D01*
X237574176Y-87494700D01*
X237478938Y-87399461D01*
X237431319Y-87304223D01*
X237383700Y-87113747D01*
X237383700Y-86970890D01*
X237431319Y-86780414D01*
X237478938Y-86685176D01*
X237574176Y-86589938D01*
X237717033Y-86542319D01*
X237955128Y-86542319D01*
X236955128Y-86542319D02*
X236955128Y-87542319D01*
X236383700Y-86542319D02*
X236812271Y-87113747D01*
X236383700Y-87542319D02*
X236955128Y-86970890D01*
X235955128Y-87066128D02*
X235621795Y-87066128D01*
X235478938Y-86542319D02*
X235955128Y-86542319D01*
X235955128Y-87542319D01*
X235478938Y-87542319D01*
X234859890Y-87018509D02*
X234859890Y-86542319D01*
X235193223Y-87542319D02*
X234859890Y-87018509D01*
X234526557Y-87542319D01*
X234431319Y-86447080D02*
X233669414Y-86447080D01*
X233478938Y-87447080D02*
X233431319Y-87494700D01*
X233336080Y-87542319D01*
X233097985Y-87542319D01*
X233002747Y-87494700D01*
X232955128Y-87447080D01*
X232907509Y-87351842D01*
X232907509Y-87256604D01*
X232955128Y-87113747D01*
X233526557Y-86542319D01*
X232907509Y-86542319D01*
X247580233Y-95060719D02*
X247246900Y-94060719D01*
X246913566Y-95060719D01*
X246008804Y-94155957D02*
X246056423Y-94108338D01*
X246199280Y-94060719D01*
X246294519Y-94060719D01*
X246437376Y-94108338D01*
X246532614Y-94203576D01*
X246580233Y-94298814D01*
X246627852Y-94489290D01*
X246627852Y-94632147D01*
X246580233Y-94822623D01*
X246532614Y-94917861D01*
X246437376Y-95013100D01*
X246294519Y-95060719D01*
X246199280Y-95060719D01*
X246056423Y-95013100D01*
X246008804Y-94965480D01*
X245008804Y-94155957D02*
X245056423Y-94108338D01*
X245199280Y-94060719D01*
X245294519Y-94060719D01*
X245437376Y-94108338D01*
X245532614Y-94203576D01*
X245580233Y-94298814D01*
X245627852Y-94489290D01*
X245627852Y-94632147D01*
X245580233Y-94822623D01*
X245532614Y-94917861D01*
X245437376Y-95013100D01*
X245294519Y-95060719D01*
X245199280Y-95060719D01*
X245056423Y-95013100D01*
X245008804Y-94965480D01*
X236020052Y-76560119D02*
X236020052Y-77560119D01*
X235353385Y-77560119D02*
X235162909Y-77560119D01*
X235067671Y-77512500D01*
X234972433Y-77417261D01*
X234924814Y-77226785D01*
X234924814Y-76893452D01*
X234972433Y-76702976D01*
X235067671Y-76607738D01*
X235162909Y-76560119D01*
X235353385Y-76560119D01*
X235448623Y-76607738D01*
X235543861Y-76702976D01*
X235591480Y-76893452D01*
X235591480Y-77226785D01*
X235543861Y-77417261D01*
X235448623Y-77512500D01*
X235353385Y-77560119D01*
X234734338Y-76464880D02*
X233972433Y-76464880D01*
X233210528Y-76560119D02*
X233781957Y-76560119D01*
X233496242Y-76560119D02*
X233496242Y-77560119D01*
X233591480Y-77417261D01*
X233686719Y-77322023D01*
X233781957Y-77274404D01*
X236656642Y-94736928D02*
X236513785Y-94689309D01*
X236466166Y-94641690D01*
X236418547Y-94546452D01*
X236418547Y-94403595D01*
X236466166Y-94308357D01*
X236513785Y-94260738D01*
X236609023Y-94213119D01*
X236989976Y-94213119D01*
X236989976Y-95213119D01*
X236656642Y-95213119D01*
X236561404Y-95165500D01*
X236513785Y-95117880D01*
X236466166Y-95022642D01*
X236466166Y-94927404D01*
X236513785Y-94832166D01*
X236561404Y-94784547D01*
X236656642Y-94736928D01*
X236989976Y-94736928D01*
X235989976Y-95213119D02*
X235989976Y-94403595D01*
X235942357Y-94308357D01*
X235894738Y-94260738D01*
X235799500Y-94213119D01*
X235609023Y-94213119D01*
X235513785Y-94260738D01*
X235466166Y-94308357D01*
X235418547Y-94403595D01*
X235418547Y-95213119D01*
X234989976Y-94260738D02*
X234847119Y-94213119D01*
X234609023Y-94213119D01*
X234513785Y-94260738D01*
X234466166Y-94308357D01*
X234418547Y-94403595D01*
X234418547Y-94498833D01*
X234466166Y-94594071D01*
X234513785Y-94641690D01*
X234609023Y-94689309D01*
X234799500Y-94736928D01*
X234894738Y-94784547D01*
X234942357Y-94832166D01*
X234989976Y-94927404D01*
X234989976Y-95022642D01*
X234942357Y-95117880D01*
X234894738Y-95165500D01*
X234799500Y-95213119D01*
X234561404Y-95213119D01*
X234418547Y-95165500D01*
X233799500Y-94689309D02*
X233799500Y-94213119D01*
X234132833Y-95213119D02*
X233799500Y-94689309D01*
X233466166Y-95213119D01*
X236537547Y-80052500D02*
X236632785Y-80100119D01*
X236775642Y-80100119D01*
X236918500Y-80052500D01*
X237013738Y-79957261D01*
X237061357Y-79862023D01*
X237108976Y-79671547D01*
X237108976Y-79528690D01*
X237061357Y-79338214D01*
X237013738Y-79242976D01*
X236918500Y-79147738D01*
X236775642Y-79100119D01*
X236680404Y-79100119D01*
X236537547Y-79147738D01*
X236489928Y-79195357D01*
X236489928Y-79528690D01*
X236680404Y-79528690D01*
X236061357Y-79100119D02*
X236061357Y-80100119D01*
X235489928Y-79100119D01*
X235489928Y-80100119D01*
X235013738Y-79100119D02*
X235013738Y-80100119D01*
X234775642Y-80100119D01*
X234632785Y-80052500D01*
X234537547Y-79957261D01*
X234489928Y-79862023D01*
X234442309Y-79671547D01*
X234442309Y-79528690D01*
X234489928Y-79338214D01*
X234537547Y-79242976D01*
X234632785Y-79147738D01*
X234775642Y-79100119D01*
X235013738Y-79100119D01*
X234251833Y-79004880D02*
X233489928Y-79004880D01*
X233299452Y-80004880D02*
X233251833Y-80052500D01*
X233156595Y-80100119D01*
X232918500Y-80100119D01*
X232823261Y-80052500D01*
X232775642Y-80004880D01*
X232728023Y-79909642D01*
X232728023Y-79814404D01*
X232775642Y-79671547D01*
X233347071Y-79100119D01*
X232728023Y-79100119D01*
%TO.C,U9*%
X250052200Y-137058504D02*
X250004580Y-137153742D01*
X250004580Y-137296600D01*
X250052200Y-137439457D01*
X250147438Y-137534695D01*
X250242676Y-137582314D01*
X250433152Y-137629933D01*
X250576009Y-137629933D01*
X250766485Y-137582314D01*
X250861723Y-137534695D01*
X250956961Y-137439457D01*
X251004580Y-137296600D01*
X251004580Y-137201361D01*
X250956961Y-137058504D01*
X250909342Y-137010885D01*
X250576009Y-137010885D01*
X250576009Y-137201361D01*
X251004580Y-136582314D02*
X250004580Y-136582314D01*
X251004580Y-136010885D01*
X250004580Y-136010885D01*
X251004580Y-135534695D02*
X250004580Y-135534695D01*
X250004580Y-135296600D01*
X250052200Y-135153742D01*
X250147438Y-135058504D01*
X250242676Y-135010885D01*
X250433152Y-134963266D01*
X250576009Y-134963266D01*
X250766485Y-135010885D01*
X250861723Y-135058504D01*
X250956961Y-135153742D01*
X251004580Y-135296600D01*
X251004580Y-135534695D01*
X251055380Y-141473380D02*
X251055380Y-141949571D01*
X250055380Y-141949571D01*
X251055380Y-141140047D02*
X250055380Y-141140047D01*
X251055380Y-140663857D02*
X250055380Y-140663857D01*
X251055380Y-140092428D01*
X250055380Y-140092428D01*
X232564180Y-137271152D02*
X231564180Y-137271152D01*
X231564180Y-137033057D01*
X231611800Y-136890200D01*
X231707038Y-136794961D01*
X231802276Y-136747342D01*
X231992752Y-136699723D01*
X232135609Y-136699723D01*
X232326085Y-136747342D01*
X232421323Y-136794961D01*
X232516561Y-136890200D01*
X232564180Y-137033057D01*
X232564180Y-137271152D01*
X232468942Y-135699723D02*
X232516561Y-135747342D01*
X232564180Y-135890200D01*
X232564180Y-135985438D01*
X232516561Y-136128295D01*
X232421323Y-136223533D01*
X232326085Y-136271152D01*
X232135609Y-136318771D01*
X231992752Y-136318771D01*
X231802276Y-136271152D01*
X231707038Y-136223533D01*
X231611800Y-136128295D01*
X231564180Y-135985438D01*
X231564180Y-135890200D01*
X231611800Y-135747342D01*
X231659419Y-135699723D01*
X232183228Y-135271152D02*
X232183228Y-134509247D01*
X232868980Y-104481295D02*
X232868980Y-104957485D01*
X231868980Y-104957485D01*
X231868980Y-103957485D02*
X231868980Y-103767009D01*
X231916600Y-103671771D01*
X232011838Y-103576533D01*
X232202314Y-103528914D01*
X232535647Y-103528914D01*
X232726123Y-103576533D01*
X232821361Y-103671771D01*
X232868980Y-103767009D01*
X232868980Y-103957485D01*
X232821361Y-104052723D01*
X232726123Y-104147961D01*
X232535647Y-104195580D01*
X232202314Y-104195580D01*
X232011838Y-104147961D01*
X231916600Y-104052723D01*
X231868980Y-103957485D01*
X231868980Y-103100342D02*
X232678504Y-103100342D01*
X232773742Y-103052723D01*
X232821361Y-103005104D01*
X232868980Y-102909866D01*
X232868980Y-102719390D01*
X232821361Y-102624152D01*
X232773742Y-102576533D01*
X232678504Y-102528914D01*
X231868980Y-102528914D01*
X231868980Y-102195580D02*
X231868980Y-101624152D01*
X232868980Y-101909866D02*
X231868980Y-101909866D01*
X232488028Y-101290819D02*
X232488028Y-100528914D01*
X251156980Y-131465780D02*
X250680790Y-131799114D01*
X251156980Y-132037209D02*
X250156980Y-132037209D01*
X250156980Y-131656257D01*
X250204600Y-131561019D01*
X250252219Y-131513400D01*
X250347457Y-131465780D01*
X250490314Y-131465780D01*
X250585552Y-131513400D01*
X250633171Y-131561019D01*
X250680790Y-131656257D01*
X250680790Y-132037209D01*
X251156980Y-131037209D02*
X250156980Y-131037209D01*
X251156980Y-130561019D02*
X250156980Y-130561019D01*
X251156980Y-129989590D01*
X250156980Y-129989590D01*
X232945180Y-110551895D02*
X232945180Y-111028085D01*
X231945180Y-111028085D01*
X231945180Y-110028085D02*
X231945180Y-109837609D01*
X231992800Y-109742371D01*
X232088038Y-109647133D01*
X232278514Y-109599514D01*
X232611847Y-109599514D01*
X232802323Y-109647133D01*
X232897561Y-109742371D01*
X232945180Y-109837609D01*
X232945180Y-110028085D01*
X232897561Y-110123323D01*
X232802323Y-110218561D01*
X232611847Y-110266180D01*
X232278514Y-110266180D01*
X232088038Y-110218561D01*
X231992800Y-110123323D01*
X231945180Y-110028085D01*
X231945180Y-109170942D02*
X232754704Y-109170942D01*
X232849942Y-109123323D01*
X232897561Y-109075704D01*
X232945180Y-108980466D01*
X232945180Y-108789990D01*
X232897561Y-108694752D01*
X232849942Y-108647133D01*
X232754704Y-108599514D01*
X231945180Y-108599514D01*
X231945180Y-108266180D02*
X231945180Y-107694752D01*
X232945180Y-107980466D02*
X231945180Y-107980466D01*
X232564228Y-107361419D02*
X232564228Y-106599514D01*
X232945180Y-106980466D02*
X232183276Y-106980466D01*
X251004580Y-104049495D02*
X250528390Y-104382828D01*
X251004580Y-104620923D02*
X250004580Y-104620923D01*
X250004580Y-104239971D01*
X250052200Y-104144733D01*
X250099819Y-104097114D01*
X250195057Y-104049495D01*
X250337914Y-104049495D01*
X250433152Y-104097114D01*
X250480771Y-104144733D01*
X250528390Y-104239971D01*
X250528390Y-104620923D01*
X250004580Y-103430447D02*
X250004580Y-103239971D01*
X250052200Y-103144733D01*
X250147438Y-103049495D01*
X250337914Y-103001876D01*
X250671247Y-103001876D01*
X250861723Y-103049495D01*
X250956961Y-103144733D01*
X251004580Y-103239971D01*
X251004580Y-103430447D01*
X250956961Y-103525685D01*
X250861723Y-103620923D01*
X250671247Y-103668542D01*
X250337914Y-103668542D01*
X250147438Y-103620923D01*
X250052200Y-103525685D01*
X250004580Y-103430447D01*
X250004580Y-102573304D02*
X250814104Y-102573304D01*
X250909342Y-102525685D01*
X250956961Y-102478066D01*
X251004580Y-102382828D01*
X251004580Y-102192352D01*
X250956961Y-102097114D01*
X250909342Y-102049495D01*
X250814104Y-102001876D01*
X250004580Y-102001876D01*
X250004580Y-101668542D02*
X250004580Y-101097114D01*
X251004580Y-101382828D02*
X250004580Y-101382828D01*
X250623628Y-100763780D02*
X250623628Y-100001876D01*
X232614980Y-142351152D02*
X231614980Y-142351152D01*
X231614980Y-142113057D01*
X231662600Y-141970200D01*
X231757838Y-141874961D01*
X231853076Y-141827342D01*
X232043552Y-141779723D01*
X232186409Y-141779723D01*
X232376885Y-141827342D01*
X232472123Y-141874961D01*
X232567361Y-141970200D01*
X232614980Y-142113057D01*
X232614980Y-142351152D01*
X232519742Y-140779723D02*
X232567361Y-140827342D01*
X232614980Y-140970200D01*
X232614980Y-141065438D01*
X232567361Y-141208295D01*
X232472123Y-141303533D01*
X232376885Y-141351152D01*
X232186409Y-141398771D01*
X232043552Y-141398771D01*
X231853076Y-141351152D01*
X231757838Y-141303533D01*
X231662600Y-141208295D01*
X231614980Y-141065438D01*
X231614980Y-140970200D01*
X231662600Y-140827342D01*
X231710219Y-140779723D01*
X232234028Y-140351152D02*
X232234028Y-139589247D01*
X232614980Y-139970200D02*
X231853076Y-139970200D01*
X251055380Y-110145495D02*
X250579190Y-110478828D01*
X251055380Y-110716923D02*
X250055380Y-110716923D01*
X250055380Y-110335971D01*
X250103000Y-110240733D01*
X250150619Y-110193114D01*
X250245857Y-110145495D01*
X250388714Y-110145495D01*
X250483952Y-110193114D01*
X250531571Y-110240733D01*
X250579190Y-110335971D01*
X250579190Y-110716923D01*
X250055380Y-109526447D02*
X250055380Y-109335971D01*
X250103000Y-109240733D01*
X250198238Y-109145495D01*
X250388714Y-109097876D01*
X250722047Y-109097876D01*
X250912523Y-109145495D01*
X251007761Y-109240733D01*
X251055380Y-109335971D01*
X251055380Y-109526447D01*
X251007761Y-109621685D01*
X250912523Y-109716923D01*
X250722047Y-109764542D01*
X250388714Y-109764542D01*
X250198238Y-109716923D01*
X250103000Y-109621685D01*
X250055380Y-109526447D01*
X250055380Y-108669304D02*
X250864904Y-108669304D01*
X250960142Y-108621685D01*
X251007761Y-108574066D01*
X251055380Y-108478828D01*
X251055380Y-108288352D01*
X251007761Y-108193114D01*
X250960142Y-108145495D01*
X250864904Y-108097876D01*
X250055380Y-108097876D01*
X250055380Y-107764542D02*
X250055380Y-107193114D01*
X251055380Y-107478828D02*
X250055380Y-107478828D01*
X250674428Y-106859780D02*
X250674428Y-106097876D01*
X251055380Y-106478828D02*
X250293476Y-106478828D01*
%TO.C,U2*%
X136965495Y-165655680D02*
X137536923Y-165655680D01*
X137251209Y-166655680D02*
X137251209Y-165655680D01*
X137775019Y-165655680D02*
X138441685Y-166655680D01*
X138441685Y-165655680D02*
X137775019Y-166655680D01*
X138822638Y-166655680D02*
X138822638Y-165655680D01*
X139060733Y-165655680D01*
X139203590Y-165703300D01*
X139298828Y-165798538D01*
X139346447Y-165893776D01*
X139394066Y-166084252D01*
X139394066Y-166227109D01*
X139346447Y-166417585D01*
X139298828Y-166512823D01*
X139203590Y-166608061D01*
X139060733Y-166655680D01*
X138822638Y-166655680D01*
X137730580Y-171786480D02*
X137397247Y-171310290D01*
X137159152Y-171786480D02*
X137159152Y-170786480D01*
X137540104Y-170786480D01*
X137635342Y-170834100D01*
X137682961Y-170881719D01*
X137730580Y-170976957D01*
X137730580Y-171119814D01*
X137682961Y-171215052D01*
X137635342Y-171262671D01*
X137540104Y-171310290D01*
X137159152Y-171310290D01*
X138111533Y-171738861D02*
X138254390Y-171786480D01*
X138492485Y-171786480D01*
X138587723Y-171738861D01*
X138635342Y-171691242D01*
X138682961Y-171596004D01*
X138682961Y-171500766D01*
X138635342Y-171405528D01*
X138587723Y-171357909D01*
X138492485Y-171310290D01*
X138302009Y-171262671D01*
X138206771Y-171215052D01*
X138159152Y-171167433D01*
X138111533Y-171072195D01*
X138111533Y-170976957D01*
X138159152Y-170881719D01*
X138206771Y-170834100D01*
X138302009Y-170786480D01*
X138540104Y-170786480D01*
X138682961Y-170834100D01*
X138968676Y-170786480D02*
X139540104Y-170786480D01*
X139254390Y-171786480D02*
X139254390Y-170786480D01*
X141631095Y-165754100D02*
X141535857Y-165706480D01*
X141393000Y-165706480D01*
X141250142Y-165754100D01*
X141154904Y-165849338D01*
X141107285Y-165944576D01*
X141059666Y-166135052D01*
X141059666Y-166277909D01*
X141107285Y-166468385D01*
X141154904Y-166563623D01*
X141250142Y-166658861D01*
X141393000Y-166706480D01*
X141488238Y-166706480D01*
X141631095Y-166658861D01*
X141678714Y-166611242D01*
X141678714Y-166277909D01*
X141488238Y-166277909D01*
X142107285Y-166706480D02*
X142107285Y-165706480D01*
X142678714Y-166706480D01*
X142678714Y-165706480D01*
X143154904Y-166706480D02*
X143154904Y-165706480D01*
X143393000Y-165706480D01*
X143535857Y-165754100D01*
X143631095Y-165849338D01*
X143678714Y-165944576D01*
X143726333Y-166135052D01*
X143726333Y-166277909D01*
X143678714Y-166468385D01*
X143631095Y-166563623D01*
X143535857Y-166658861D01*
X143393000Y-166706480D01*
X143154904Y-166706480D01*
X137184504Y-168570271D02*
X137517838Y-168570271D01*
X137660695Y-169094080D02*
X137184504Y-169094080D01*
X137184504Y-168094080D01*
X137660695Y-168094080D01*
X138089266Y-169094080D02*
X138089266Y-168094080D01*
X138660695Y-169094080D01*
X138660695Y-168094080D01*
X137198866Y-173275680D02*
X137532200Y-174275680D01*
X137865533Y-173275680D01*
X138770295Y-174180442D02*
X138722676Y-174228061D01*
X138579819Y-174275680D01*
X138484580Y-174275680D01*
X138341723Y-174228061D01*
X138246485Y-174132823D01*
X138198866Y-174037585D01*
X138151247Y-173847109D01*
X138151247Y-173704252D01*
X138198866Y-173513776D01*
X138246485Y-173418538D01*
X138341723Y-173323300D01*
X138484580Y-173275680D01*
X138579819Y-173275680D01*
X138722676Y-173323300D01*
X138770295Y-173370919D01*
X139770295Y-174180442D02*
X139722676Y-174228061D01*
X139579819Y-174275680D01*
X139484580Y-174275680D01*
X139341723Y-174228061D01*
X139246485Y-174132823D01*
X139198866Y-174037585D01*
X139151247Y-173847109D01*
X139151247Y-173704252D01*
X139198866Y-173513776D01*
X139246485Y-173418538D01*
X139341723Y-173323300D01*
X139484580Y-173275680D01*
X139579819Y-173275680D01*
X139722676Y-173323300D01*
X139770295Y-173370919D01*
X141729609Y-168141700D02*
X141634371Y-168094080D01*
X141491514Y-168094080D01*
X141348657Y-168141700D01*
X141253419Y-168236938D01*
X141205800Y-168332176D01*
X141158180Y-168522652D01*
X141158180Y-168665509D01*
X141205800Y-168855985D01*
X141253419Y-168951223D01*
X141348657Y-169046461D01*
X141491514Y-169094080D01*
X141586752Y-169094080D01*
X141729609Y-169046461D01*
X141777228Y-168998842D01*
X141777228Y-168665509D01*
X141586752Y-168665509D01*
X142205800Y-169094080D02*
X142205800Y-168094080D01*
X142586752Y-168094080D01*
X142681990Y-168141700D01*
X142729609Y-168189319D01*
X142777228Y-168284557D01*
X142777228Y-168427414D01*
X142729609Y-168522652D01*
X142681990Y-168570271D01*
X142586752Y-168617890D01*
X142205800Y-168617890D01*
X143205800Y-169094080D02*
X143205800Y-168094080D01*
X143872466Y-168094080D02*
X144062942Y-168094080D01*
X144158180Y-168141700D01*
X144253419Y-168236938D01*
X144301038Y-168427414D01*
X144301038Y-168760747D01*
X144253419Y-168951223D01*
X144158180Y-169046461D01*
X144062942Y-169094080D01*
X143872466Y-169094080D01*
X143777228Y-169046461D01*
X143681990Y-168951223D01*
X143634371Y-168760747D01*
X143634371Y-168427414D01*
X143681990Y-168236938D01*
X143777228Y-168141700D01*
X143872466Y-168094080D01*
X144681990Y-168189319D02*
X144729609Y-168141700D01*
X144824847Y-168094080D01*
X145062942Y-168094080D01*
X145158180Y-168141700D01*
X145205800Y-168189319D01*
X145253419Y-168284557D01*
X145253419Y-168379795D01*
X145205800Y-168522652D01*
X144634371Y-169094080D01*
X145253419Y-169094080D01*
X141827933Y-174224880D02*
X141494600Y-173748690D01*
X141256504Y-174224880D02*
X141256504Y-173224880D01*
X141637457Y-173224880D01*
X141732695Y-173272500D01*
X141780314Y-173320119D01*
X141827933Y-173415357D01*
X141827933Y-173558214D01*
X141780314Y-173653452D01*
X141732695Y-173701071D01*
X141637457Y-173748690D01*
X141256504Y-173748690D01*
X142161266Y-173224880D02*
X142827933Y-174224880D01*
X142827933Y-173224880D02*
X142161266Y-174224880D01*
X143208885Y-174224880D02*
X143208885Y-173224880D01*
X143446980Y-173224880D01*
X143589838Y-173272500D01*
X143685076Y-173367738D01*
X143732695Y-173462976D01*
X143780314Y-173653452D01*
X143780314Y-173796309D01*
X143732695Y-173986785D01*
X143685076Y-174082023D01*
X143589838Y-174177261D01*
X143446980Y-174224880D01*
X143208885Y-174224880D01*
X141628009Y-170834100D02*
X141532771Y-170786480D01*
X141389914Y-170786480D01*
X141247057Y-170834100D01*
X141151819Y-170929338D01*
X141104200Y-171024576D01*
X141056580Y-171215052D01*
X141056580Y-171357909D01*
X141104200Y-171548385D01*
X141151819Y-171643623D01*
X141247057Y-171738861D01*
X141389914Y-171786480D01*
X141485152Y-171786480D01*
X141628009Y-171738861D01*
X141675628Y-171691242D01*
X141675628Y-171357909D01*
X141485152Y-171357909D01*
X142104200Y-171786480D02*
X142104200Y-170786480D01*
X142485152Y-170786480D01*
X142580390Y-170834100D01*
X142628009Y-170881719D01*
X142675628Y-170976957D01*
X142675628Y-171119814D01*
X142628009Y-171215052D01*
X142580390Y-171262671D01*
X142485152Y-171310290D01*
X142104200Y-171310290D01*
X143104200Y-171786480D02*
X143104200Y-170786480D01*
X143770866Y-170786480D02*
X143961342Y-170786480D01*
X144056580Y-170834100D01*
X144151819Y-170929338D01*
X144199438Y-171119814D01*
X144199438Y-171453147D01*
X144151819Y-171643623D01*
X144056580Y-171738861D01*
X143961342Y-171786480D01*
X143770866Y-171786480D01*
X143675628Y-171738861D01*
X143580390Y-171643623D01*
X143532771Y-171453147D01*
X143532771Y-171119814D01*
X143580390Y-170929338D01*
X143675628Y-170834100D01*
X143770866Y-170786480D01*
X144818485Y-170786480D02*
X144913723Y-170786480D01*
X145008961Y-170834100D01*
X145056580Y-170881719D01*
X145104200Y-170976957D01*
X145151819Y-171167433D01*
X145151819Y-171405528D01*
X145104200Y-171596004D01*
X145056580Y-171691242D01*
X145008961Y-171738861D01*
X144913723Y-171786480D01*
X144818485Y-171786480D01*
X144723247Y-171738861D01*
X144675628Y-171691242D01*
X144628009Y-171596004D01*
X144580390Y-171405528D01*
X144580390Y-171167433D01*
X144628009Y-170976957D01*
X144675628Y-170881719D01*
X144723247Y-170834100D01*
X144818485Y-170786480D01*
%TD*%
M02*
