%TF.GenerationSoftware,KiCad,Pcbnew,(6.0.5)*%
%TF.CreationDate,2022-10-04T16:53:02+09:00*%
%TF.ProjectId,DASHBOARD,44415348-424f-4415-9244-2e6b69636164,rev?*%
%TF.SameCoordinates,Original*%
%TF.FileFunction,Legend,Top*%
%TF.FilePolarity,Positive*%
%FSLAX46Y46*%
G04 Gerber Fmt 4.6, Leading zero omitted, Abs format (unit mm)*
G04 Created by KiCad (PCBNEW (6.0.5)) date 2022-10-04 16:53:02*
%MOMM*%
%LPD*%
G01*
G04 APERTURE LIST*
%ADD10C,0.150000*%
%ADD11C,0.120000*%
G04 APERTURE END LIST*
D10*
%TO.C,R16*%
X192148142Y-179477880D02*
X191814809Y-179001690D01*
X191576714Y-179477880D02*
X191576714Y-178477880D01*
X191957666Y-178477880D01*
X192052904Y-178525500D01*
X192100523Y-178573119D01*
X192148142Y-178668357D01*
X192148142Y-178811214D01*
X192100523Y-178906452D01*
X192052904Y-178954071D01*
X191957666Y-179001690D01*
X191576714Y-179001690D01*
X193100523Y-179477880D02*
X192529095Y-179477880D01*
X192814809Y-179477880D02*
X192814809Y-178477880D01*
X192719571Y-178620738D01*
X192624333Y-178715976D01*
X192529095Y-178763595D01*
X193957666Y-178477880D02*
X193767190Y-178477880D01*
X193671952Y-178525500D01*
X193624333Y-178573119D01*
X193529095Y-178715976D01*
X193481476Y-178906452D01*
X193481476Y-179287404D01*
X193529095Y-179382642D01*
X193576714Y-179430261D01*
X193671952Y-179477880D01*
X193862428Y-179477880D01*
X193957666Y-179430261D01*
X194005285Y-179382642D01*
X194052904Y-179287404D01*
X194052904Y-179049309D01*
X194005285Y-178954071D01*
X193957666Y-178906452D01*
X193862428Y-178858833D01*
X193671952Y-178858833D01*
X193576714Y-178906452D01*
X193529095Y-178954071D01*
X193481476Y-179049309D01*
%TO.C,Q7*%
X194976761Y-177693119D02*
X194881523Y-177645500D01*
X194786285Y-177550261D01*
X194643428Y-177407404D01*
X194548190Y-177359785D01*
X194452952Y-177359785D01*
X194500571Y-177597880D02*
X194405333Y-177550261D01*
X194310095Y-177455023D01*
X194262476Y-177264547D01*
X194262476Y-176931214D01*
X194310095Y-176740738D01*
X194405333Y-176645500D01*
X194500571Y-176597880D01*
X194691047Y-176597880D01*
X194786285Y-176645500D01*
X194881523Y-176740738D01*
X194929142Y-176931214D01*
X194929142Y-177264547D01*
X194881523Y-177455023D01*
X194786285Y-177550261D01*
X194691047Y-177597880D01*
X194500571Y-177597880D01*
X195262476Y-176597880D02*
X195929142Y-176597880D01*
X195500571Y-177597880D01*
%TO.C,D1*%
X178839904Y-188217880D02*
X178839904Y-187217880D01*
X179078000Y-187217880D01*
X179220857Y-187265500D01*
X179316095Y-187360738D01*
X179363714Y-187455976D01*
X179411333Y-187646452D01*
X179411333Y-187789309D01*
X179363714Y-187979785D01*
X179316095Y-188075023D01*
X179220857Y-188170261D01*
X179078000Y-188217880D01*
X178839904Y-188217880D01*
X180363714Y-188217880D02*
X179792285Y-188217880D01*
X180078000Y-188217880D02*
X180078000Y-187217880D01*
X179982761Y-187360738D01*
X179887523Y-187455976D01*
X179792285Y-187503595D01*
%TO.C,J5*%
X241474666Y-179972880D02*
X241474666Y-180687166D01*
X241427047Y-180830023D01*
X241331809Y-180925261D01*
X241188952Y-180972880D01*
X241093714Y-180972880D01*
X242427047Y-179972880D02*
X241950857Y-179972880D01*
X241903238Y-180449071D01*
X241950857Y-180401452D01*
X242046095Y-180353833D01*
X242284190Y-180353833D01*
X242379428Y-180401452D01*
X242427047Y-180449071D01*
X242474666Y-180544309D01*
X242474666Y-180782404D01*
X242427047Y-180877642D01*
X242379428Y-180925261D01*
X242284190Y-180972880D01*
X242046095Y-180972880D01*
X241950857Y-180925261D01*
X241903238Y-180877642D01*
%TO.C,U6*%
X227152580Y-161213904D02*
X227962104Y-161213904D01*
X228057342Y-161166285D01*
X228104961Y-161118666D01*
X228152580Y-161023428D01*
X228152580Y-160832952D01*
X228104961Y-160737714D01*
X228057342Y-160690095D01*
X227962104Y-160642476D01*
X227152580Y-160642476D01*
X227152580Y-159737714D02*
X227152580Y-159928190D01*
X227200200Y-160023428D01*
X227247819Y-160071047D01*
X227390676Y-160166285D01*
X227581152Y-160213904D01*
X227962104Y-160213904D01*
X228057342Y-160166285D01*
X228104961Y-160118666D01*
X228152580Y-160023428D01*
X228152580Y-159832952D01*
X228104961Y-159737714D01*
X228057342Y-159690095D01*
X227962104Y-159642476D01*
X227724009Y-159642476D01*
X227628771Y-159690095D01*
X227581152Y-159737714D01*
X227533533Y-159832952D01*
X227533533Y-160023428D01*
X227581152Y-160118666D01*
X227628771Y-160166285D01*
X227724009Y-160213904D01*
%TO.C,R3*%
X199758380Y-168524166D02*
X199282190Y-168857500D01*
X199758380Y-169095595D02*
X198758380Y-169095595D01*
X198758380Y-168714642D01*
X198806000Y-168619404D01*
X198853619Y-168571785D01*
X198948857Y-168524166D01*
X199091714Y-168524166D01*
X199186952Y-168571785D01*
X199234571Y-168619404D01*
X199282190Y-168714642D01*
X199282190Y-169095595D01*
X198758380Y-168190833D02*
X198758380Y-167571785D01*
X199139333Y-167905119D01*
X199139333Y-167762261D01*
X199186952Y-167667023D01*
X199234571Y-167619404D01*
X199329809Y-167571785D01*
X199567904Y-167571785D01*
X199663142Y-167619404D01*
X199710761Y-167667023D01*
X199758380Y-167762261D01*
X199758380Y-168047976D01*
X199710761Y-168143214D01*
X199663142Y-168190833D01*
%TO.C,R15*%
X208313380Y-191352357D02*
X207837190Y-191685690D01*
X208313380Y-191923785D02*
X207313380Y-191923785D01*
X207313380Y-191542833D01*
X207361000Y-191447595D01*
X207408619Y-191399976D01*
X207503857Y-191352357D01*
X207646714Y-191352357D01*
X207741952Y-191399976D01*
X207789571Y-191447595D01*
X207837190Y-191542833D01*
X207837190Y-191923785D01*
X208313380Y-190399976D02*
X208313380Y-190971404D01*
X208313380Y-190685690D02*
X207313380Y-190685690D01*
X207456238Y-190780928D01*
X207551476Y-190876166D01*
X207599095Y-190971404D01*
X207313380Y-189495214D02*
X207313380Y-189971404D01*
X207789571Y-190019023D01*
X207741952Y-189971404D01*
X207694333Y-189876166D01*
X207694333Y-189638071D01*
X207741952Y-189542833D01*
X207789571Y-189495214D01*
X207884809Y-189447595D01*
X208122904Y-189447595D01*
X208218142Y-189495214D01*
X208265761Y-189542833D01*
X208313380Y-189638071D01*
X208313380Y-189876166D01*
X208265761Y-189971404D01*
X208218142Y-190019023D01*
%TO.C,Q9*%
X184550619Y-191820738D02*
X184503000Y-191915976D01*
X184407761Y-192011214D01*
X184264904Y-192154071D01*
X184217285Y-192249309D01*
X184217285Y-192344547D01*
X184455380Y-192296928D02*
X184407761Y-192392166D01*
X184312523Y-192487404D01*
X184122047Y-192535023D01*
X183788714Y-192535023D01*
X183598238Y-192487404D01*
X183503000Y-192392166D01*
X183455380Y-192296928D01*
X183455380Y-192106452D01*
X183503000Y-192011214D01*
X183598238Y-191915976D01*
X183788714Y-191868357D01*
X184122047Y-191868357D01*
X184312523Y-191915976D01*
X184407761Y-192011214D01*
X184455380Y-192106452D01*
X184455380Y-192296928D01*
X184455380Y-191392166D02*
X184455380Y-191201690D01*
X184407761Y-191106452D01*
X184360142Y-191058833D01*
X184217285Y-190963595D01*
X184026809Y-190915976D01*
X183645857Y-190915976D01*
X183550619Y-190963595D01*
X183503000Y-191011214D01*
X183455380Y-191106452D01*
X183455380Y-191296928D01*
X183503000Y-191392166D01*
X183550619Y-191439785D01*
X183645857Y-191487404D01*
X183883952Y-191487404D01*
X183979190Y-191439785D01*
X184026809Y-191392166D01*
X184074428Y-191296928D01*
X184074428Y-191106452D01*
X184026809Y-191011214D01*
X183979190Y-190963595D01*
X183883952Y-190915976D01*
%TO.C,SW7*%
X101424266Y-86846761D02*
X101567123Y-86894380D01*
X101805219Y-86894380D01*
X101900457Y-86846761D01*
X101948076Y-86799142D01*
X101995695Y-86703904D01*
X101995695Y-86608666D01*
X101948076Y-86513428D01*
X101900457Y-86465809D01*
X101805219Y-86418190D01*
X101614742Y-86370571D01*
X101519504Y-86322952D01*
X101471885Y-86275333D01*
X101424266Y-86180095D01*
X101424266Y-86084857D01*
X101471885Y-85989619D01*
X101519504Y-85942000D01*
X101614742Y-85894380D01*
X101852838Y-85894380D01*
X101995695Y-85942000D01*
X102329028Y-85894380D02*
X102567123Y-86894380D01*
X102757600Y-86180095D01*
X102948076Y-86894380D01*
X103186171Y-85894380D01*
X103471885Y-85894380D02*
X104138552Y-85894380D01*
X103709980Y-86894380D01*
%TO.C,Q8*%
X184550619Y-199440738D02*
X184503000Y-199535976D01*
X184407761Y-199631214D01*
X184264904Y-199774071D01*
X184217285Y-199869309D01*
X184217285Y-199964547D01*
X184455380Y-199916928D02*
X184407761Y-200012166D01*
X184312523Y-200107404D01*
X184122047Y-200155023D01*
X183788714Y-200155023D01*
X183598238Y-200107404D01*
X183503000Y-200012166D01*
X183455380Y-199916928D01*
X183455380Y-199726452D01*
X183503000Y-199631214D01*
X183598238Y-199535976D01*
X183788714Y-199488357D01*
X184122047Y-199488357D01*
X184312523Y-199535976D01*
X184407761Y-199631214D01*
X184455380Y-199726452D01*
X184455380Y-199916928D01*
X183883952Y-198916928D02*
X183836333Y-199012166D01*
X183788714Y-199059785D01*
X183693476Y-199107404D01*
X183645857Y-199107404D01*
X183550619Y-199059785D01*
X183503000Y-199012166D01*
X183455380Y-198916928D01*
X183455380Y-198726452D01*
X183503000Y-198631214D01*
X183550619Y-198583595D01*
X183645857Y-198535976D01*
X183693476Y-198535976D01*
X183788714Y-198583595D01*
X183836333Y-198631214D01*
X183883952Y-198726452D01*
X183883952Y-198916928D01*
X183931571Y-199012166D01*
X183979190Y-199059785D01*
X184074428Y-199107404D01*
X184264904Y-199107404D01*
X184360142Y-199059785D01*
X184407761Y-199012166D01*
X184455380Y-198916928D01*
X184455380Y-198726452D01*
X184407761Y-198631214D01*
X184360142Y-198583595D01*
X184264904Y-198535976D01*
X184074428Y-198535976D01*
X183979190Y-198583595D01*
X183931571Y-198631214D01*
X183883952Y-198726452D01*
%TO.C,Q6*%
X186848761Y-168401119D02*
X186753523Y-168353500D01*
X186658285Y-168258261D01*
X186515428Y-168115404D01*
X186420190Y-168067785D01*
X186324952Y-168067785D01*
X186372571Y-168305880D02*
X186277333Y-168258261D01*
X186182095Y-168163023D01*
X186134476Y-167972547D01*
X186134476Y-167639214D01*
X186182095Y-167448738D01*
X186277333Y-167353500D01*
X186372571Y-167305880D01*
X186563047Y-167305880D01*
X186658285Y-167353500D01*
X186753523Y-167448738D01*
X186801142Y-167639214D01*
X186801142Y-167972547D01*
X186753523Y-168163023D01*
X186658285Y-168258261D01*
X186563047Y-168305880D01*
X186372571Y-168305880D01*
X187658285Y-167305880D02*
X187467809Y-167305880D01*
X187372571Y-167353500D01*
X187324952Y-167401119D01*
X187229714Y-167543976D01*
X187182095Y-167734452D01*
X187182095Y-168115404D01*
X187229714Y-168210642D01*
X187277333Y-168258261D01*
X187372571Y-168305880D01*
X187563047Y-168305880D01*
X187658285Y-168258261D01*
X187705904Y-168210642D01*
X187753523Y-168115404D01*
X187753523Y-167877309D01*
X187705904Y-167782071D01*
X187658285Y-167734452D01*
X187563047Y-167686833D01*
X187372571Y-167686833D01*
X187277333Y-167734452D01*
X187229714Y-167782071D01*
X187182095Y-167877309D01*
%TO.C,R7*%
X161636333Y-198781880D02*
X161303000Y-198305690D01*
X161064904Y-198781880D02*
X161064904Y-197781880D01*
X161445857Y-197781880D01*
X161541095Y-197829500D01*
X161588714Y-197877119D01*
X161636333Y-197972357D01*
X161636333Y-198115214D01*
X161588714Y-198210452D01*
X161541095Y-198258071D01*
X161445857Y-198305690D01*
X161064904Y-198305690D01*
X161969666Y-197781880D02*
X162636333Y-197781880D01*
X162207761Y-198781880D01*
%TO.C,Q5*%
X194976761Y-168549119D02*
X194881523Y-168501500D01*
X194786285Y-168406261D01*
X194643428Y-168263404D01*
X194548190Y-168215785D01*
X194452952Y-168215785D01*
X194500571Y-168453880D02*
X194405333Y-168406261D01*
X194310095Y-168311023D01*
X194262476Y-168120547D01*
X194262476Y-167787214D01*
X194310095Y-167596738D01*
X194405333Y-167501500D01*
X194500571Y-167453880D01*
X194691047Y-167453880D01*
X194786285Y-167501500D01*
X194881523Y-167596738D01*
X194929142Y-167787214D01*
X194929142Y-168120547D01*
X194881523Y-168311023D01*
X194786285Y-168406261D01*
X194691047Y-168453880D01*
X194500571Y-168453880D01*
X195833904Y-167453880D02*
X195357714Y-167453880D01*
X195310095Y-167930071D01*
X195357714Y-167882452D01*
X195452952Y-167834833D01*
X195691047Y-167834833D01*
X195786285Y-167882452D01*
X195833904Y-167930071D01*
X195881523Y-168025309D01*
X195881523Y-168263404D01*
X195833904Y-168358642D01*
X195786285Y-168406261D01*
X195691047Y-168453880D01*
X195452952Y-168453880D01*
X195357714Y-168406261D01*
X195310095Y-168358642D01*
%TO.C,R14*%
X188084142Y-210803880D02*
X187750809Y-210327690D01*
X187512714Y-210803880D02*
X187512714Y-209803880D01*
X187893666Y-209803880D01*
X187988904Y-209851500D01*
X188036523Y-209899119D01*
X188084142Y-209994357D01*
X188084142Y-210137214D01*
X188036523Y-210232452D01*
X187988904Y-210280071D01*
X187893666Y-210327690D01*
X187512714Y-210327690D01*
X189036523Y-210803880D02*
X188465095Y-210803880D01*
X188750809Y-210803880D02*
X188750809Y-209803880D01*
X188655571Y-209946738D01*
X188560333Y-210041976D01*
X188465095Y-210089595D01*
X189893666Y-210137214D02*
X189893666Y-210803880D01*
X189655571Y-209756261D02*
X189417476Y-210470547D01*
X190036523Y-210470547D01*
%TO.C,Q1*%
X170084761Y-168401119D02*
X169989523Y-168353500D01*
X169894285Y-168258261D01*
X169751428Y-168115404D01*
X169656190Y-168067785D01*
X169560952Y-168067785D01*
X169608571Y-168305880D02*
X169513333Y-168258261D01*
X169418095Y-168163023D01*
X169370476Y-167972547D01*
X169370476Y-167639214D01*
X169418095Y-167448738D01*
X169513333Y-167353500D01*
X169608571Y-167305880D01*
X169799047Y-167305880D01*
X169894285Y-167353500D01*
X169989523Y-167448738D01*
X170037142Y-167639214D01*
X170037142Y-167972547D01*
X169989523Y-168163023D01*
X169894285Y-168258261D01*
X169799047Y-168305880D01*
X169608571Y-168305880D01*
X170989523Y-168305880D02*
X170418095Y-168305880D01*
X170703809Y-168305880D02*
X170703809Y-167305880D01*
X170608571Y-167448738D01*
X170513333Y-167543976D01*
X170418095Y-167591595D01*
%TO.C,D2*%
X171219904Y-188217880D02*
X171219904Y-187217880D01*
X171458000Y-187217880D01*
X171600857Y-187265500D01*
X171696095Y-187360738D01*
X171743714Y-187455976D01*
X171791333Y-187646452D01*
X171791333Y-187789309D01*
X171743714Y-187979785D01*
X171696095Y-188075023D01*
X171600857Y-188170261D01*
X171458000Y-188217880D01*
X171219904Y-188217880D01*
X172172285Y-187313119D02*
X172219904Y-187265500D01*
X172315142Y-187217880D01*
X172553238Y-187217880D01*
X172648476Y-187265500D01*
X172696095Y-187313119D01*
X172743714Y-187408357D01*
X172743714Y-187503595D01*
X172696095Y-187646452D01*
X172124666Y-188217880D01*
X172743714Y-188217880D01*
%TO.C,AE1*%
X124342166Y-179132033D02*
X123865976Y-179132033D01*
X124437404Y-178846319D02*
X124104071Y-179846319D01*
X123770738Y-178846319D01*
X123437404Y-179370128D02*
X123104071Y-179370128D01*
X122961214Y-178846319D02*
X123437404Y-178846319D01*
X123437404Y-179846319D01*
X122961214Y-179846319D01*
X122008833Y-178846319D02*
X122580261Y-178846319D01*
X122294547Y-178846319D02*
X122294547Y-179846319D01*
X122389785Y-179703461D01*
X122485023Y-179608223D01*
X122580261Y-179560604D01*
%TO.C,U4*%
X214122095Y-82465880D02*
X214122095Y-83275404D01*
X214169714Y-83370642D01*
X214217333Y-83418261D01*
X214312571Y-83465880D01*
X214503047Y-83465880D01*
X214598285Y-83418261D01*
X214645904Y-83370642D01*
X214693523Y-83275404D01*
X214693523Y-82465880D01*
X215598285Y-82799214D02*
X215598285Y-83465880D01*
X215360190Y-82418261D02*
X215122095Y-83132547D01*
X215741142Y-83132547D01*
%TO.C,U3*%
X113576795Y-113009580D02*
X113576795Y-113819104D01*
X113624414Y-113914342D01*
X113672033Y-113961961D01*
X113767271Y-114009580D01*
X113957747Y-114009580D01*
X114052985Y-113961961D01*
X114100604Y-113914342D01*
X114148223Y-113819104D01*
X114148223Y-113009580D01*
X114529176Y-113009580D02*
X115148223Y-113009580D01*
X114814890Y-113390533D01*
X114957747Y-113390533D01*
X115052985Y-113438152D01*
X115100604Y-113485771D01*
X115148223Y-113581009D01*
X115148223Y-113819104D01*
X115100604Y-113914342D01*
X115052985Y-113961961D01*
X114957747Y-114009580D01*
X114672033Y-114009580D01*
X114576795Y-113961961D01*
X114529176Y-113914342D01*
%TO.C,R10*%
X157594380Y-175604357D02*
X157118190Y-175937690D01*
X157594380Y-176175785D02*
X156594380Y-176175785D01*
X156594380Y-175794833D01*
X156642000Y-175699595D01*
X156689619Y-175651976D01*
X156784857Y-175604357D01*
X156927714Y-175604357D01*
X157022952Y-175651976D01*
X157070571Y-175699595D01*
X157118190Y-175794833D01*
X157118190Y-176175785D01*
X157594380Y-174651976D02*
X157594380Y-175223404D01*
X157594380Y-174937690D02*
X156594380Y-174937690D01*
X156737238Y-175032928D01*
X156832476Y-175128166D01*
X156880095Y-175223404D01*
X156594380Y-174032928D02*
X156594380Y-173937690D01*
X156642000Y-173842452D01*
X156689619Y-173794833D01*
X156784857Y-173747214D01*
X156975333Y-173699595D01*
X157213428Y-173699595D01*
X157403904Y-173747214D01*
X157499142Y-173794833D01*
X157546761Y-173842452D01*
X157594380Y-173937690D01*
X157594380Y-174032928D01*
X157546761Y-174128166D01*
X157499142Y-174175785D01*
X157403904Y-174223404D01*
X157213428Y-174271023D01*
X156975333Y-174271023D01*
X156784857Y-174223404D01*
X156689619Y-174175785D01*
X156642000Y-174128166D01*
X156594380Y-174032928D01*
%TO.C,K1*%
X223162285Y-163697880D02*
X223162285Y-162697880D01*
X223733714Y-163697880D01*
X223733714Y-162697880D01*
X224781333Y-163602642D02*
X224733714Y-163650261D01*
X224590857Y-163697880D01*
X224495619Y-163697880D01*
X224352761Y-163650261D01*
X224257523Y-163555023D01*
X224209904Y-163459785D01*
X224162285Y-163269309D01*
X224162285Y-163126452D01*
X224209904Y-162935976D01*
X224257523Y-162840738D01*
X224352761Y-162745500D01*
X224495619Y-162697880D01*
X224590857Y-162697880D01*
X224733714Y-162745500D01*
X224781333Y-162793119D01*
X223138476Y-175697880D02*
X223138476Y-174697880D01*
X223709904Y-175697880D01*
X223709904Y-174697880D01*
X224376571Y-174697880D02*
X224567047Y-174697880D01*
X224662285Y-174745500D01*
X224757523Y-174840738D01*
X224805142Y-175031214D01*
X224805142Y-175364547D01*
X224757523Y-175555023D01*
X224662285Y-175650261D01*
X224567047Y-175697880D01*
X224376571Y-175697880D01*
X224281333Y-175650261D01*
X224186095Y-175555023D01*
X224138476Y-175364547D01*
X224138476Y-175031214D01*
X224186095Y-174840738D01*
X224281333Y-174745500D01*
X224376571Y-174697880D01*
%TO.C,R4*%
X182464333Y-184219880D02*
X182131000Y-183743690D01*
X181892904Y-184219880D02*
X181892904Y-183219880D01*
X182273857Y-183219880D01*
X182369095Y-183267500D01*
X182416714Y-183315119D01*
X182464333Y-183410357D01*
X182464333Y-183553214D01*
X182416714Y-183648452D01*
X182369095Y-183696071D01*
X182273857Y-183743690D01*
X181892904Y-183743690D01*
X183321476Y-183553214D02*
X183321476Y-184219880D01*
X183083380Y-183172261D02*
X182845285Y-183886547D01*
X183464333Y-183886547D01*
%TO.C,R12*%
X176898380Y-175604357D02*
X176422190Y-175937690D01*
X176898380Y-176175785D02*
X175898380Y-176175785D01*
X175898380Y-175794833D01*
X175946000Y-175699595D01*
X175993619Y-175651976D01*
X176088857Y-175604357D01*
X176231714Y-175604357D01*
X176326952Y-175651976D01*
X176374571Y-175699595D01*
X176422190Y-175794833D01*
X176422190Y-176175785D01*
X176898380Y-174651976D02*
X176898380Y-175223404D01*
X176898380Y-174937690D02*
X175898380Y-174937690D01*
X176041238Y-175032928D01*
X176136476Y-175128166D01*
X176184095Y-175223404D01*
X175993619Y-174271023D02*
X175946000Y-174223404D01*
X175898380Y-174128166D01*
X175898380Y-173890071D01*
X175946000Y-173794833D01*
X175993619Y-173747214D01*
X176088857Y-173699595D01*
X176184095Y-173699595D01*
X176326952Y-173747214D01*
X176898380Y-174318642D01*
X176898380Y-173699595D01*
%TO.C,R11*%
X184010380Y-175604357D02*
X183534190Y-175937690D01*
X184010380Y-176175785D02*
X183010380Y-176175785D01*
X183010380Y-175794833D01*
X183058000Y-175699595D01*
X183105619Y-175651976D01*
X183200857Y-175604357D01*
X183343714Y-175604357D01*
X183438952Y-175651976D01*
X183486571Y-175699595D01*
X183534190Y-175794833D01*
X183534190Y-176175785D01*
X184010380Y-174651976D02*
X184010380Y-175223404D01*
X184010380Y-174937690D02*
X183010380Y-174937690D01*
X183153238Y-175032928D01*
X183248476Y-175128166D01*
X183296095Y-175223404D01*
X184010380Y-173699595D02*
X184010380Y-174271023D01*
X184010380Y-173985309D02*
X183010380Y-173985309D01*
X183153238Y-174080547D01*
X183248476Y-174175785D01*
X183296095Y-174271023D01*
%TO.C,SW3*%
X119691066Y-87839761D02*
X119833923Y-87887380D01*
X120072019Y-87887380D01*
X120167257Y-87839761D01*
X120214876Y-87792142D01*
X120262495Y-87696904D01*
X120262495Y-87601666D01*
X120214876Y-87506428D01*
X120167257Y-87458809D01*
X120072019Y-87411190D01*
X119881542Y-87363571D01*
X119786304Y-87315952D01*
X119738685Y-87268333D01*
X119691066Y-87173095D01*
X119691066Y-87077857D01*
X119738685Y-86982619D01*
X119786304Y-86935000D01*
X119881542Y-86887380D01*
X120119638Y-86887380D01*
X120262495Y-86935000D01*
X120595828Y-86887380D02*
X120833923Y-87887380D01*
X121024400Y-87173095D01*
X121214876Y-87887380D01*
X121452971Y-86887380D01*
X121738685Y-86887380D02*
X122357733Y-86887380D01*
X122024400Y-87268333D01*
X122167257Y-87268333D01*
X122262495Y-87315952D01*
X122310114Y-87363571D01*
X122357733Y-87458809D01*
X122357733Y-87696904D01*
X122310114Y-87792142D01*
X122262495Y-87839761D01*
X122167257Y-87887380D01*
X121881542Y-87887380D01*
X121786304Y-87839761D01*
X121738685Y-87792142D01*
%TO.C,SW6*%
X101496761Y-113347333D02*
X101544380Y-113204476D01*
X101544380Y-112966380D01*
X101496761Y-112871142D01*
X101449142Y-112823523D01*
X101353904Y-112775904D01*
X101258666Y-112775904D01*
X101163428Y-112823523D01*
X101115809Y-112871142D01*
X101068190Y-112966380D01*
X101020571Y-113156857D01*
X100972952Y-113252095D01*
X100925333Y-113299714D01*
X100830095Y-113347333D01*
X100734857Y-113347333D01*
X100639619Y-113299714D01*
X100592000Y-113252095D01*
X100544380Y-113156857D01*
X100544380Y-112918761D01*
X100592000Y-112775904D01*
X100544380Y-112442571D02*
X101544380Y-112204476D01*
X100830095Y-112014000D01*
X101544380Y-111823523D01*
X100544380Y-111585428D01*
X100544380Y-110775904D02*
X100544380Y-110966380D01*
X100592000Y-111061619D01*
X100639619Y-111109238D01*
X100782476Y-111204476D01*
X100972952Y-111252095D01*
X101353904Y-111252095D01*
X101449142Y-111204476D01*
X101496761Y-111156857D01*
X101544380Y-111061619D01*
X101544380Y-110871142D01*
X101496761Y-110775904D01*
X101449142Y-110728285D01*
X101353904Y-110680666D01*
X101115809Y-110680666D01*
X101020571Y-110728285D01*
X100972952Y-110775904D01*
X100925333Y-110871142D01*
X100925333Y-111061619D01*
X100972952Y-111156857D01*
X101020571Y-111204476D01*
X101115809Y-111252095D01*
%TO.C,D4*%
X155979904Y-188217880D02*
X155979904Y-187217880D01*
X156218000Y-187217880D01*
X156360857Y-187265500D01*
X156456095Y-187360738D01*
X156503714Y-187455976D01*
X156551333Y-187646452D01*
X156551333Y-187789309D01*
X156503714Y-187979785D01*
X156456095Y-188075023D01*
X156360857Y-188170261D01*
X156218000Y-188217880D01*
X155979904Y-188217880D01*
X157408476Y-187551214D02*
X157408476Y-188217880D01*
X157170380Y-187170261D02*
X156932285Y-187884547D01*
X157551333Y-187884547D01*
%TO.C,Q3*%
X178720761Y-168549119D02*
X178625523Y-168501500D01*
X178530285Y-168406261D01*
X178387428Y-168263404D01*
X178292190Y-168215785D01*
X178196952Y-168215785D01*
X178244571Y-168453880D02*
X178149333Y-168406261D01*
X178054095Y-168311023D01*
X178006476Y-168120547D01*
X178006476Y-167787214D01*
X178054095Y-167596738D01*
X178149333Y-167501500D01*
X178244571Y-167453880D01*
X178435047Y-167453880D01*
X178530285Y-167501500D01*
X178625523Y-167596738D01*
X178673142Y-167787214D01*
X178673142Y-168120547D01*
X178625523Y-168311023D01*
X178530285Y-168406261D01*
X178435047Y-168453880D01*
X178244571Y-168453880D01*
X179006476Y-167453880D02*
X179625523Y-167453880D01*
X179292190Y-167834833D01*
X179435047Y-167834833D01*
X179530285Y-167882452D01*
X179577904Y-167930071D01*
X179625523Y-168025309D01*
X179625523Y-168263404D01*
X179577904Y-168358642D01*
X179530285Y-168406261D01*
X179435047Y-168453880D01*
X179149333Y-168453880D01*
X179054095Y-168406261D01*
X179006476Y-168358642D01*
%TO.C,J4*%
X214370380Y-71154833D02*
X215084666Y-71154833D01*
X215227523Y-71202452D01*
X215322761Y-71297690D01*
X215370380Y-71440547D01*
X215370380Y-71535785D01*
X214703714Y-70250071D02*
X215370380Y-70250071D01*
X214322761Y-70488166D02*
X215037047Y-70726261D01*
X215037047Y-70107214D01*
%TO.C,SW1*%
X133966366Y-186542261D02*
X134109223Y-186589880D01*
X134347319Y-186589880D01*
X134442557Y-186542261D01*
X134490176Y-186494642D01*
X134537795Y-186399404D01*
X134537795Y-186304166D01*
X134490176Y-186208928D01*
X134442557Y-186161309D01*
X134347319Y-186113690D01*
X134156842Y-186066071D01*
X134061604Y-186018452D01*
X134013985Y-185970833D01*
X133966366Y-185875595D01*
X133966366Y-185780357D01*
X134013985Y-185685119D01*
X134061604Y-185637500D01*
X134156842Y-185589880D01*
X134394938Y-185589880D01*
X134537795Y-185637500D01*
X134871128Y-185589880D02*
X135109223Y-186589880D01*
X135299700Y-185875595D01*
X135490176Y-186589880D01*
X135728271Y-185589880D01*
X136633033Y-186589880D02*
X136061604Y-186589880D01*
X136347319Y-186589880D02*
X136347319Y-185589880D01*
X136252080Y-185732738D01*
X136156842Y-185827976D01*
X136061604Y-185875595D01*
%TO.C,SW2*%
X146494666Y-184510261D02*
X146637523Y-184557880D01*
X146875619Y-184557880D01*
X146970857Y-184510261D01*
X147018476Y-184462642D01*
X147066095Y-184367404D01*
X147066095Y-184272166D01*
X147018476Y-184176928D01*
X146970857Y-184129309D01*
X146875619Y-184081690D01*
X146685142Y-184034071D01*
X146589904Y-183986452D01*
X146542285Y-183938833D01*
X146494666Y-183843595D01*
X146494666Y-183748357D01*
X146542285Y-183653119D01*
X146589904Y-183605500D01*
X146685142Y-183557880D01*
X146923238Y-183557880D01*
X147066095Y-183605500D01*
X147399428Y-183557880D02*
X147637523Y-184557880D01*
X147828000Y-183843595D01*
X148018476Y-184557880D01*
X148256571Y-183557880D01*
X148589904Y-183653119D02*
X148637523Y-183605500D01*
X148732761Y-183557880D01*
X148970857Y-183557880D01*
X149066095Y-183605500D01*
X149113714Y-183653119D01*
X149161333Y-183748357D01*
X149161333Y-183843595D01*
X149113714Y-183986452D01*
X148542285Y-184557880D01*
X149161333Y-184557880D01*
%TO.C,R6*%
X167224333Y-184219880D02*
X166891000Y-183743690D01*
X166652904Y-184219880D02*
X166652904Y-183219880D01*
X167033857Y-183219880D01*
X167129095Y-183267500D01*
X167176714Y-183315119D01*
X167224333Y-183410357D01*
X167224333Y-183553214D01*
X167176714Y-183648452D01*
X167129095Y-183696071D01*
X167033857Y-183743690D01*
X166652904Y-183743690D01*
X168081476Y-183219880D02*
X167891000Y-183219880D01*
X167795761Y-183267500D01*
X167748142Y-183315119D01*
X167652904Y-183457976D01*
X167605285Y-183648452D01*
X167605285Y-184029404D01*
X167652904Y-184124642D01*
X167700523Y-184172261D01*
X167795761Y-184219880D01*
X167986238Y-184219880D01*
X168081476Y-184172261D01*
X168129095Y-184124642D01*
X168176714Y-184029404D01*
X168176714Y-183791309D01*
X168129095Y-183696071D01*
X168081476Y-183648452D01*
X167986238Y-183600833D01*
X167795761Y-183600833D01*
X167700523Y-183648452D01*
X167652904Y-183696071D01*
X167605285Y-183791309D01*
%TO.C,R8*%
X163690380Y-175128166D02*
X163214190Y-175461500D01*
X163690380Y-175699595D02*
X162690380Y-175699595D01*
X162690380Y-175318642D01*
X162738000Y-175223404D01*
X162785619Y-175175785D01*
X162880857Y-175128166D01*
X163023714Y-175128166D01*
X163118952Y-175175785D01*
X163166571Y-175223404D01*
X163214190Y-175318642D01*
X163214190Y-175699595D01*
X163118952Y-174556738D02*
X163071333Y-174651976D01*
X163023714Y-174699595D01*
X162928476Y-174747214D01*
X162880857Y-174747214D01*
X162785619Y-174699595D01*
X162738000Y-174651976D01*
X162690380Y-174556738D01*
X162690380Y-174366261D01*
X162738000Y-174271023D01*
X162785619Y-174223404D01*
X162880857Y-174175785D01*
X162928476Y-174175785D01*
X163023714Y-174223404D01*
X163071333Y-174271023D01*
X163118952Y-174366261D01*
X163118952Y-174556738D01*
X163166571Y-174651976D01*
X163214190Y-174699595D01*
X163309428Y-174747214D01*
X163499904Y-174747214D01*
X163595142Y-174699595D01*
X163642761Y-174651976D01*
X163690380Y-174556738D01*
X163690380Y-174366261D01*
X163642761Y-174271023D01*
X163595142Y-174223404D01*
X163499904Y-174175785D01*
X163309428Y-174175785D01*
X163214190Y-174223404D01*
X163166571Y-174271023D01*
X163118952Y-174366261D01*
%TO.C,R5*%
X176876333Y-198781880D02*
X176543000Y-198305690D01*
X176304904Y-198781880D02*
X176304904Y-197781880D01*
X176685857Y-197781880D01*
X176781095Y-197829500D01*
X176828714Y-197877119D01*
X176876333Y-197972357D01*
X176876333Y-198115214D01*
X176828714Y-198210452D01*
X176781095Y-198258071D01*
X176685857Y-198305690D01*
X176304904Y-198305690D01*
X177781095Y-197781880D02*
X177304904Y-197781880D01*
X177257285Y-198258071D01*
X177304904Y-198210452D01*
X177400142Y-198162833D01*
X177638238Y-198162833D01*
X177733476Y-198210452D01*
X177781095Y-198258071D01*
X177828714Y-198353309D01*
X177828714Y-198591404D01*
X177781095Y-198686642D01*
X177733476Y-198734261D01*
X177638238Y-198781880D01*
X177400142Y-198781880D01*
X177304904Y-198734261D01*
X177257285Y-198686642D01*
%TO.C,SW4*%
X101496761Y-107251333D02*
X101544380Y-107108476D01*
X101544380Y-106870380D01*
X101496761Y-106775142D01*
X101449142Y-106727523D01*
X101353904Y-106679904D01*
X101258666Y-106679904D01*
X101163428Y-106727523D01*
X101115809Y-106775142D01*
X101068190Y-106870380D01*
X101020571Y-107060857D01*
X100972952Y-107156095D01*
X100925333Y-107203714D01*
X100830095Y-107251333D01*
X100734857Y-107251333D01*
X100639619Y-107203714D01*
X100592000Y-107156095D01*
X100544380Y-107060857D01*
X100544380Y-106822761D01*
X100592000Y-106679904D01*
X100544380Y-106346571D02*
X101544380Y-106108476D01*
X100830095Y-105918000D01*
X101544380Y-105727523D01*
X100544380Y-105489428D01*
X100877714Y-104679904D02*
X101544380Y-104679904D01*
X100496761Y-104918000D02*
X101211047Y-105156095D01*
X101211047Y-104537047D01*
%TO.C,U8*%
X99314095Y-137329880D02*
X99314095Y-138139404D01*
X99361714Y-138234642D01*
X99409333Y-138282261D01*
X99504571Y-138329880D01*
X99695047Y-138329880D01*
X99790285Y-138282261D01*
X99837904Y-138234642D01*
X99885523Y-138139404D01*
X99885523Y-137329880D01*
X100504571Y-137758452D02*
X100409333Y-137710833D01*
X100361714Y-137663214D01*
X100314095Y-137567976D01*
X100314095Y-137520357D01*
X100361714Y-137425119D01*
X100409333Y-137377500D01*
X100504571Y-137329880D01*
X100695047Y-137329880D01*
X100790285Y-137377500D01*
X100837904Y-137425119D01*
X100885523Y-137520357D01*
X100885523Y-137567976D01*
X100837904Y-137663214D01*
X100790285Y-137710833D01*
X100695047Y-137758452D01*
X100504571Y-137758452D01*
X100409333Y-137806071D01*
X100361714Y-137853690D01*
X100314095Y-137948928D01*
X100314095Y-138139404D01*
X100361714Y-138234642D01*
X100409333Y-138282261D01*
X100504571Y-138329880D01*
X100695047Y-138329880D01*
X100790285Y-138282261D01*
X100837904Y-138234642D01*
X100885523Y-138139404D01*
X100885523Y-137948928D01*
X100837904Y-137853690D01*
X100790285Y-137806071D01*
X100695047Y-137758452D01*
%TO.C,D3*%
X163599904Y-188217880D02*
X163599904Y-187217880D01*
X163838000Y-187217880D01*
X163980857Y-187265500D01*
X164076095Y-187360738D01*
X164123714Y-187455976D01*
X164171333Y-187646452D01*
X164171333Y-187789309D01*
X164123714Y-187979785D01*
X164076095Y-188075023D01*
X163980857Y-188170261D01*
X163838000Y-188217880D01*
X163599904Y-188217880D01*
X164504666Y-187217880D02*
X165123714Y-187217880D01*
X164790380Y-187598833D01*
X164933238Y-187598833D01*
X165028476Y-187646452D01*
X165076095Y-187694071D01*
X165123714Y-187789309D01*
X165123714Y-188027404D01*
X165076095Y-188122642D01*
X165028476Y-188170261D01*
X164933238Y-188217880D01*
X164647523Y-188217880D01*
X164552285Y-188170261D01*
X164504666Y-188122642D01*
%TO.C,U5*%
X214122095Y-104309880D02*
X214122095Y-105119404D01*
X214169714Y-105214642D01*
X214217333Y-105262261D01*
X214312571Y-105309880D01*
X214503047Y-105309880D01*
X214598285Y-105262261D01*
X214645904Y-105214642D01*
X214693523Y-105119404D01*
X214693523Y-104309880D01*
X215645904Y-104309880D02*
X215169714Y-104309880D01*
X215122095Y-104786071D01*
X215169714Y-104738452D01*
X215264952Y-104690833D01*
X215503047Y-104690833D01*
X215598285Y-104738452D01*
X215645904Y-104786071D01*
X215693523Y-104881309D01*
X215693523Y-105119404D01*
X215645904Y-105214642D01*
X215598285Y-105262261D01*
X215503047Y-105309880D01*
X215264952Y-105309880D01*
X215169714Y-105262261D01*
X215122095Y-105214642D01*
%TO.C,U1*%
X167894095Y-155109880D02*
X167894095Y-155919404D01*
X167941714Y-156014642D01*
X167989333Y-156062261D01*
X168084571Y-156109880D01*
X168275047Y-156109880D01*
X168370285Y-156062261D01*
X168417904Y-156014642D01*
X168465523Y-155919404D01*
X168465523Y-155109880D01*
X169465523Y-156109880D02*
X168894095Y-156109880D01*
X169179809Y-156109880D02*
X169179809Y-155109880D01*
X169084571Y-155252738D01*
X168989333Y-155347976D01*
X168894095Y-155395595D01*
X187429904Y-94877880D02*
X188048952Y-94877880D01*
X187715619Y-95258833D01*
X187858476Y-95258833D01*
X187953714Y-95306452D01*
X188001333Y-95354071D01*
X188048952Y-95449309D01*
X188048952Y-95687404D01*
X188001333Y-95782642D01*
X187953714Y-95830261D01*
X187858476Y-95877880D01*
X187572761Y-95877880D01*
X187477523Y-95830261D01*
X187429904Y-95782642D01*
X188334666Y-94877880D02*
X188668000Y-95877880D01*
X189001333Y-94877880D01*
X189239428Y-94877880D02*
X189858476Y-94877880D01*
X189525142Y-95258833D01*
X189668000Y-95258833D01*
X189763238Y-95306452D01*
X189810857Y-95354071D01*
X189858476Y-95449309D01*
X189858476Y-95687404D01*
X189810857Y-95782642D01*
X189763238Y-95830261D01*
X189668000Y-95877880D01*
X189382285Y-95877880D01*
X189287047Y-95830261D01*
X189239428Y-95782642D01*
X138969904Y-87710880D02*
X139588952Y-87710880D01*
X139255619Y-88091833D01*
X139398476Y-88091833D01*
X139493714Y-88139452D01*
X139541333Y-88187071D01*
X139588952Y-88282309D01*
X139588952Y-88520404D01*
X139541333Y-88615642D01*
X139493714Y-88663261D01*
X139398476Y-88710880D01*
X139112761Y-88710880D01*
X139017523Y-88663261D01*
X138969904Y-88615642D01*
X139874666Y-87710880D02*
X140208000Y-88710880D01*
X140541333Y-87710880D01*
X140779428Y-87710880D02*
X141398476Y-87710880D01*
X141065142Y-88091833D01*
X141208000Y-88091833D01*
X141303238Y-88139452D01*
X141350857Y-88187071D01*
X141398476Y-88282309D01*
X141398476Y-88520404D01*
X141350857Y-88615642D01*
X141303238Y-88663261D01*
X141208000Y-88710880D01*
X140922285Y-88710880D01*
X140827047Y-88663261D01*
X140779428Y-88615642D01*
X187149904Y-108507880D02*
X187149904Y-107507880D01*
X187530857Y-107507880D01*
X187626095Y-107555500D01*
X187673714Y-107603119D01*
X187721333Y-107698357D01*
X187721333Y-107841214D01*
X187673714Y-107936452D01*
X187626095Y-107984071D01*
X187530857Y-108031690D01*
X187149904Y-108031690D01*
X188721333Y-108412642D02*
X188673714Y-108460261D01*
X188530857Y-108507880D01*
X188435619Y-108507880D01*
X188292761Y-108460261D01*
X188197523Y-108365023D01*
X188149904Y-108269785D01*
X188102285Y-108079309D01*
X188102285Y-107936452D01*
X188149904Y-107745976D01*
X188197523Y-107650738D01*
X188292761Y-107555500D01*
X188435619Y-107507880D01*
X188530857Y-107507880D01*
X188673714Y-107555500D01*
X188721333Y-107603119D01*
X189673714Y-108507880D02*
X189102285Y-108507880D01*
X189388000Y-108507880D02*
X189388000Y-107507880D01*
X189292761Y-107650738D01*
X189197523Y-107745976D01*
X189102285Y-107793595D01*
X143506095Y-97988500D02*
X143410857Y-97940880D01*
X143268000Y-97940880D01*
X143125142Y-97988500D01*
X143029904Y-98083738D01*
X142982285Y-98178976D01*
X142934666Y-98369452D01*
X142934666Y-98512309D01*
X142982285Y-98702785D01*
X143029904Y-98798023D01*
X143125142Y-98893261D01*
X143268000Y-98940880D01*
X143363238Y-98940880D01*
X143506095Y-98893261D01*
X143553714Y-98845642D01*
X143553714Y-98512309D01*
X143363238Y-98512309D01*
X143982285Y-98940880D02*
X143982285Y-97940880D01*
X144553714Y-98940880D01*
X144553714Y-97940880D01*
X145029904Y-98940880D02*
X145029904Y-97940880D01*
X145268000Y-97940880D01*
X145410857Y-97988500D01*
X145506095Y-98083738D01*
X145553714Y-98178976D01*
X145601333Y-98369452D01*
X145601333Y-98512309D01*
X145553714Y-98702785D01*
X145506095Y-98798023D01*
X145410857Y-98893261D01*
X145268000Y-98940880D01*
X145029904Y-98940880D01*
X187471333Y-121457880D02*
X187471333Y-120457880D01*
X187852285Y-120457880D01*
X187947523Y-120505500D01*
X187995142Y-120553119D01*
X188042761Y-120648357D01*
X188042761Y-120791214D01*
X187995142Y-120886452D01*
X187947523Y-120934071D01*
X187852285Y-120981690D01*
X187471333Y-120981690D01*
X188423714Y-121172166D02*
X188899904Y-121172166D01*
X188328476Y-121457880D02*
X188661809Y-120457880D01*
X188995142Y-121457880D01*
X189804666Y-120457880D02*
X189328476Y-120457880D01*
X189280857Y-120934071D01*
X189328476Y-120886452D01*
X189423714Y-120838833D01*
X189661809Y-120838833D01*
X189757047Y-120886452D01*
X189804666Y-120934071D01*
X189852285Y-121029309D01*
X189852285Y-121267404D01*
X189804666Y-121362642D01*
X189757047Y-121410261D01*
X189661809Y-121457880D01*
X189423714Y-121457880D01*
X189328476Y-121410261D01*
X189280857Y-121362642D01*
X191407523Y-106147880D02*
X191407523Y-105147880D01*
X191788476Y-105147880D01*
X191883714Y-105195500D01*
X191931333Y-105243119D01*
X191978952Y-105338357D01*
X191978952Y-105481214D01*
X191931333Y-105576452D01*
X191883714Y-105624071D01*
X191788476Y-105671690D01*
X191407523Y-105671690D01*
X192407523Y-105624071D02*
X192740857Y-105624071D01*
X192883714Y-106147880D02*
X192407523Y-106147880D01*
X192407523Y-105147880D01*
X192883714Y-105147880D01*
X193740857Y-105147880D02*
X193550380Y-105147880D01*
X193455142Y-105195500D01*
X193407523Y-105243119D01*
X193312285Y-105385976D01*
X193264666Y-105576452D01*
X193264666Y-105957404D01*
X193312285Y-106052642D01*
X193359904Y-106100261D01*
X193455142Y-106147880D01*
X193645619Y-106147880D01*
X193740857Y-106100261D01*
X193788476Y-106052642D01*
X193836095Y-105957404D01*
X193836095Y-105719309D01*
X193788476Y-105624071D01*
X193740857Y-105576452D01*
X193645619Y-105528833D01*
X193455142Y-105528833D01*
X193359904Y-105576452D01*
X193312285Y-105624071D01*
X193264666Y-105719309D01*
X187646095Y-97635500D02*
X187550857Y-97587880D01*
X187408000Y-97587880D01*
X187265142Y-97635500D01*
X187169904Y-97730738D01*
X187122285Y-97825976D01*
X187074666Y-98016452D01*
X187074666Y-98159309D01*
X187122285Y-98349785D01*
X187169904Y-98445023D01*
X187265142Y-98540261D01*
X187408000Y-98587880D01*
X187503238Y-98587880D01*
X187646095Y-98540261D01*
X187693714Y-98492642D01*
X187693714Y-98159309D01*
X187503238Y-98159309D01*
X188122285Y-98587880D02*
X188122285Y-97587880D01*
X188693714Y-98587880D01*
X188693714Y-97587880D01*
X189169904Y-98587880D02*
X189169904Y-97587880D01*
X189408000Y-97587880D01*
X189550857Y-97635500D01*
X189646095Y-97730738D01*
X189693714Y-97825976D01*
X189741333Y-98016452D01*
X189741333Y-98159309D01*
X189693714Y-98349785D01*
X189646095Y-98445023D01*
X189550857Y-98540261D01*
X189408000Y-98587880D01*
X189169904Y-98587880D01*
X138743714Y-147240880D02*
X138743714Y-146240880D01*
X139124666Y-146240880D01*
X139219904Y-146288500D01*
X139267523Y-146336119D01*
X139315142Y-146431357D01*
X139315142Y-146574214D01*
X139267523Y-146669452D01*
X139219904Y-146717071D01*
X139124666Y-146764690D01*
X138743714Y-146764690D01*
X140077047Y-146717071D02*
X140219904Y-146764690D01*
X140267523Y-146812309D01*
X140315142Y-146907547D01*
X140315142Y-147050404D01*
X140267523Y-147145642D01*
X140219904Y-147193261D01*
X140124666Y-147240880D01*
X139743714Y-147240880D01*
X139743714Y-146240880D01*
X140077047Y-146240880D01*
X140172285Y-146288500D01*
X140219904Y-146336119D01*
X140267523Y-146431357D01*
X140267523Y-146526595D01*
X140219904Y-146621833D01*
X140172285Y-146669452D01*
X140077047Y-146717071D01*
X139743714Y-146717071D01*
X141267523Y-147240880D02*
X140696095Y-147240880D01*
X140981809Y-147240880D02*
X140981809Y-146240880D01*
X140886571Y-146383738D01*
X140791333Y-146478976D01*
X140696095Y-146526595D01*
X142172285Y-146240880D02*
X141696095Y-146240880D01*
X141648476Y-146717071D01*
X141696095Y-146669452D01*
X141791333Y-146621833D01*
X142029428Y-146621833D01*
X142124666Y-146669452D01*
X142172285Y-146717071D01*
X142219904Y-146812309D01*
X142219904Y-147050404D01*
X142172285Y-147145642D01*
X142124666Y-147193261D01*
X142029428Y-147240880D01*
X141791333Y-147240880D01*
X141696095Y-147193261D01*
X141648476Y-147145642D01*
X142765142Y-129500880D02*
X142765142Y-128500880D01*
X143146095Y-128500880D01*
X143241333Y-128548500D01*
X143288952Y-128596119D01*
X143336571Y-128691357D01*
X143336571Y-128834214D01*
X143288952Y-128929452D01*
X143241333Y-128977071D01*
X143146095Y-129024690D01*
X142765142Y-129024690D01*
X143717523Y-129215166D02*
X144193714Y-129215166D01*
X143622285Y-129500880D02*
X143955619Y-128500880D01*
X144288952Y-129500880D01*
X145146095Y-129500880D02*
X144574666Y-129500880D01*
X144860380Y-129500880D02*
X144860380Y-128500880D01*
X144765142Y-128643738D01*
X144669904Y-128738976D01*
X144574666Y-128786595D01*
X145765142Y-128500880D02*
X145860380Y-128500880D01*
X145955619Y-128548500D01*
X146003238Y-128596119D01*
X146050857Y-128691357D01*
X146098476Y-128881833D01*
X146098476Y-129119928D01*
X146050857Y-129310404D01*
X146003238Y-129405642D01*
X145955619Y-129453261D01*
X145860380Y-129500880D01*
X145765142Y-129500880D01*
X145669904Y-129453261D01*
X145622285Y-129405642D01*
X145574666Y-129310404D01*
X145527047Y-129119928D01*
X145527047Y-128881833D01*
X145574666Y-128691357D01*
X145622285Y-128596119D01*
X145669904Y-128548500D01*
X145765142Y-128500880D01*
X139566095Y-97968500D02*
X139470857Y-97920880D01*
X139328000Y-97920880D01*
X139185142Y-97968500D01*
X139089904Y-98063738D01*
X139042285Y-98158976D01*
X138994666Y-98349452D01*
X138994666Y-98492309D01*
X139042285Y-98682785D01*
X139089904Y-98778023D01*
X139185142Y-98873261D01*
X139328000Y-98920880D01*
X139423238Y-98920880D01*
X139566095Y-98873261D01*
X139613714Y-98825642D01*
X139613714Y-98492309D01*
X139423238Y-98492309D01*
X140042285Y-98920880D02*
X140042285Y-97920880D01*
X140613714Y-98920880D01*
X140613714Y-97920880D01*
X141089904Y-98920880D02*
X141089904Y-97920880D01*
X141328000Y-97920880D01*
X141470857Y-97968500D01*
X141566095Y-98063738D01*
X141613714Y-98158976D01*
X141661333Y-98349452D01*
X141661333Y-98492309D01*
X141613714Y-98682785D01*
X141566095Y-98778023D01*
X141470857Y-98873261D01*
X141328000Y-98920880D01*
X141089904Y-98920880D01*
X139009904Y-144680880D02*
X139009904Y-143680880D01*
X139390857Y-143680880D01*
X139486095Y-143728500D01*
X139533714Y-143776119D01*
X139581333Y-143871357D01*
X139581333Y-144014214D01*
X139533714Y-144109452D01*
X139486095Y-144157071D01*
X139390857Y-144204690D01*
X139009904Y-144204690D01*
X140009904Y-144680880D02*
X140009904Y-143680880D01*
X140248000Y-143680880D01*
X140390857Y-143728500D01*
X140486095Y-143823738D01*
X140533714Y-143918976D01*
X140581333Y-144109452D01*
X140581333Y-144252309D01*
X140533714Y-144442785D01*
X140486095Y-144538023D01*
X140390857Y-144633261D01*
X140248000Y-144680880D01*
X140009904Y-144680880D01*
X141057523Y-144680880D02*
X141248000Y-144680880D01*
X141343238Y-144633261D01*
X141390857Y-144585642D01*
X141486095Y-144442785D01*
X141533714Y-144252309D01*
X141533714Y-143871357D01*
X141486095Y-143776119D01*
X141438476Y-143728500D01*
X141343238Y-143680880D01*
X141152761Y-143680880D01*
X141057523Y-143728500D01*
X141009904Y-143776119D01*
X140962285Y-143871357D01*
X140962285Y-144109452D01*
X141009904Y-144204690D01*
X141057523Y-144252309D01*
X141152761Y-144299928D01*
X141343238Y-144299928D01*
X141438476Y-144252309D01*
X141486095Y-144204690D01*
X141533714Y-144109452D01*
X143299904Y-119440880D02*
X143299904Y-118440880D01*
X143680857Y-118440880D01*
X143776095Y-118488500D01*
X143823714Y-118536119D01*
X143871333Y-118631357D01*
X143871333Y-118774214D01*
X143823714Y-118869452D01*
X143776095Y-118917071D01*
X143680857Y-118964690D01*
X143299904Y-118964690D01*
X144299904Y-119440880D02*
X144299904Y-118440880D01*
X144538000Y-118440880D01*
X144680857Y-118488500D01*
X144776095Y-118583738D01*
X144823714Y-118678976D01*
X144871333Y-118869452D01*
X144871333Y-119012309D01*
X144823714Y-119202785D01*
X144776095Y-119298023D01*
X144680857Y-119393261D01*
X144538000Y-119440880D01*
X144299904Y-119440880D01*
X145823714Y-119440880D02*
X145252285Y-119440880D01*
X145538000Y-119440880D02*
X145538000Y-118440880D01*
X145442761Y-118583738D01*
X145347523Y-118678976D01*
X145252285Y-118726595D01*
X192367523Y-89637880D02*
X191891333Y-89637880D01*
X191843714Y-90114071D01*
X191891333Y-90066452D01*
X191986571Y-90018833D01*
X192224666Y-90018833D01*
X192319904Y-90066452D01*
X192367523Y-90114071D01*
X192415142Y-90209309D01*
X192415142Y-90447404D01*
X192367523Y-90542642D01*
X192319904Y-90590261D01*
X192224666Y-90637880D01*
X191986571Y-90637880D01*
X191891333Y-90590261D01*
X191843714Y-90542642D01*
X192700857Y-89637880D02*
X193034190Y-90637880D01*
X193367523Y-89637880D01*
X139139904Y-134360880D02*
X139139904Y-133360880D01*
X139520857Y-133360880D01*
X139616095Y-133408500D01*
X139663714Y-133456119D01*
X139711333Y-133551357D01*
X139711333Y-133694214D01*
X139663714Y-133789452D01*
X139616095Y-133837071D01*
X139520857Y-133884690D01*
X139139904Y-133884690D01*
X140711333Y-134265642D02*
X140663714Y-134313261D01*
X140520857Y-134360880D01*
X140425619Y-134360880D01*
X140282761Y-134313261D01*
X140187523Y-134218023D01*
X140139904Y-134122785D01*
X140092285Y-133932309D01*
X140092285Y-133789452D01*
X140139904Y-133598976D01*
X140187523Y-133503738D01*
X140282761Y-133408500D01*
X140425619Y-133360880D01*
X140520857Y-133360880D01*
X140663714Y-133408500D01*
X140711333Y-133456119D01*
X141044666Y-133360880D02*
X141711333Y-133360880D01*
X141282761Y-134360880D01*
X191341333Y-118797880D02*
X191341333Y-117797880D01*
X191722285Y-117797880D01*
X191817523Y-117845500D01*
X191865142Y-117893119D01*
X191912761Y-117988357D01*
X191912761Y-118131214D01*
X191865142Y-118226452D01*
X191817523Y-118274071D01*
X191722285Y-118321690D01*
X191341333Y-118321690D01*
X192293714Y-118512166D02*
X192769904Y-118512166D01*
X192198476Y-118797880D02*
X192531809Y-117797880D01*
X192865142Y-118797880D01*
X193150857Y-117893119D02*
X193198476Y-117845500D01*
X193293714Y-117797880D01*
X193531809Y-117797880D01*
X193627047Y-117845500D01*
X193674666Y-117893119D01*
X193722285Y-117988357D01*
X193722285Y-118083595D01*
X193674666Y-118226452D01*
X193103238Y-118797880D01*
X193722285Y-118797880D01*
X191199904Y-108527880D02*
X191199904Y-107527880D01*
X191580857Y-107527880D01*
X191676095Y-107575500D01*
X191723714Y-107623119D01*
X191771333Y-107718357D01*
X191771333Y-107861214D01*
X191723714Y-107956452D01*
X191676095Y-108004071D01*
X191580857Y-108051690D01*
X191199904Y-108051690D01*
X192771333Y-108432642D02*
X192723714Y-108480261D01*
X192580857Y-108527880D01*
X192485619Y-108527880D01*
X192342761Y-108480261D01*
X192247523Y-108385023D01*
X192199904Y-108289785D01*
X192152285Y-108099309D01*
X192152285Y-107956452D01*
X192199904Y-107765976D01*
X192247523Y-107670738D01*
X192342761Y-107575500D01*
X192485619Y-107527880D01*
X192580857Y-107527880D01*
X192723714Y-107575500D01*
X192771333Y-107623119D01*
X193390380Y-107527880D02*
X193485619Y-107527880D01*
X193580857Y-107575500D01*
X193628476Y-107623119D01*
X193676095Y-107718357D01*
X193723714Y-107908833D01*
X193723714Y-108146928D01*
X193676095Y-108337404D01*
X193628476Y-108432642D01*
X193580857Y-108480261D01*
X193485619Y-108527880D01*
X193390380Y-108527880D01*
X193295142Y-108480261D01*
X193247523Y-108432642D01*
X193199904Y-108337404D01*
X193152285Y-108146928D01*
X193152285Y-107908833D01*
X193199904Y-107718357D01*
X193247523Y-107623119D01*
X193295142Y-107575500D01*
X193390380Y-107527880D01*
X139109904Y-106560880D02*
X139109904Y-105560880D01*
X139490857Y-105560880D01*
X139586095Y-105608500D01*
X139633714Y-105656119D01*
X139681333Y-105751357D01*
X139681333Y-105894214D01*
X139633714Y-105989452D01*
X139586095Y-106037071D01*
X139490857Y-106084690D01*
X139109904Y-106084690D01*
X140443238Y-106037071D02*
X140586095Y-106084690D01*
X140633714Y-106132309D01*
X140681333Y-106227547D01*
X140681333Y-106370404D01*
X140633714Y-106465642D01*
X140586095Y-106513261D01*
X140490857Y-106560880D01*
X140109904Y-106560880D01*
X140109904Y-105560880D01*
X140443238Y-105560880D01*
X140538476Y-105608500D01*
X140586095Y-105656119D01*
X140633714Y-105751357D01*
X140633714Y-105846595D01*
X140586095Y-105941833D01*
X140538476Y-105989452D01*
X140443238Y-106037071D01*
X140109904Y-106037071D01*
X141538476Y-105560880D02*
X141348000Y-105560880D01*
X141252761Y-105608500D01*
X141205142Y-105656119D01*
X141109904Y-105798976D01*
X141062285Y-105989452D01*
X141062285Y-106370404D01*
X141109904Y-106465642D01*
X141157523Y-106513261D01*
X141252761Y-106560880D01*
X141443238Y-106560880D01*
X141538476Y-106513261D01*
X141586095Y-106465642D01*
X141633714Y-106370404D01*
X141633714Y-106132309D01*
X141586095Y-106037071D01*
X141538476Y-105989452D01*
X141443238Y-105941833D01*
X141252761Y-105941833D01*
X141157523Y-105989452D01*
X141109904Y-106037071D01*
X141062285Y-106132309D01*
X139033714Y-141970880D02*
X139033714Y-140970880D01*
X139414666Y-140970880D01*
X139509904Y-141018500D01*
X139557523Y-141066119D01*
X139605142Y-141161357D01*
X139605142Y-141304214D01*
X139557523Y-141399452D01*
X139509904Y-141447071D01*
X139414666Y-141494690D01*
X139033714Y-141494690D01*
X140033714Y-141970880D02*
X140033714Y-140970880D01*
X140271809Y-140970880D01*
X140414666Y-141018500D01*
X140509904Y-141113738D01*
X140557523Y-141208976D01*
X140605142Y-141399452D01*
X140605142Y-141542309D01*
X140557523Y-141732785D01*
X140509904Y-141828023D01*
X140414666Y-141923261D01*
X140271809Y-141970880D01*
X140033714Y-141970880D01*
X141557523Y-141970880D02*
X140986095Y-141970880D01*
X141271809Y-141970880D02*
X141271809Y-140970880D01*
X141176571Y-141113738D01*
X141081333Y-141208976D01*
X140986095Y-141256595D01*
X142509904Y-141970880D02*
X141938476Y-141970880D01*
X142224190Y-141970880D02*
X142224190Y-140970880D01*
X142128952Y-141113738D01*
X142033714Y-141208976D01*
X141938476Y-141256595D01*
X191313714Y-144067880D02*
X191313714Y-143067880D01*
X191694666Y-143067880D01*
X191789904Y-143115500D01*
X191837523Y-143163119D01*
X191885142Y-143258357D01*
X191885142Y-143401214D01*
X191837523Y-143496452D01*
X191789904Y-143544071D01*
X191694666Y-143591690D01*
X191313714Y-143591690D01*
X192647047Y-143544071D02*
X192789904Y-143591690D01*
X192837523Y-143639309D01*
X192885142Y-143734547D01*
X192885142Y-143877404D01*
X192837523Y-143972642D01*
X192789904Y-144020261D01*
X192694666Y-144067880D01*
X192313714Y-144067880D01*
X192313714Y-143067880D01*
X192647047Y-143067880D01*
X192742285Y-143115500D01*
X192789904Y-143163119D01*
X192837523Y-143258357D01*
X192837523Y-143353595D01*
X192789904Y-143448833D01*
X192742285Y-143496452D01*
X192647047Y-143544071D01*
X192313714Y-143544071D01*
X193837523Y-144067880D02*
X193266095Y-144067880D01*
X193551809Y-144067880D02*
X193551809Y-143067880D01*
X193456571Y-143210738D01*
X193361333Y-143305976D01*
X193266095Y-143353595D01*
X194789904Y-144067880D02*
X194218476Y-144067880D01*
X194504190Y-144067880D02*
X194504190Y-143067880D01*
X194408952Y-143210738D01*
X194313714Y-143305976D01*
X194218476Y-143353595D01*
X143449904Y-147240880D02*
X143449904Y-146240880D01*
X143830857Y-146240880D01*
X143926095Y-146288500D01*
X143973714Y-146336119D01*
X144021333Y-146431357D01*
X144021333Y-146574214D01*
X143973714Y-146669452D01*
X143926095Y-146717071D01*
X143830857Y-146764690D01*
X143449904Y-146764690D01*
X144449904Y-147240880D02*
X144449904Y-146240880D01*
X144688000Y-146240880D01*
X144830857Y-146288500D01*
X144926095Y-146383738D01*
X144973714Y-146478976D01*
X145021333Y-146669452D01*
X145021333Y-146812309D01*
X144973714Y-147002785D01*
X144926095Y-147098023D01*
X144830857Y-147193261D01*
X144688000Y-147240880D01*
X144449904Y-147240880D01*
X145592761Y-146669452D02*
X145497523Y-146621833D01*
X145449904Y-146574214D01*
X145402285Y-146478976D01*
X145402285Y-146431357D01*
X145449904Y-146336119D01*
X145497523Y-146288500D01*
X145592761Y-146240880D01*
X145783238Y-146240880D01*
X145878476Y-146288500D01*
X145926095Y-146336119D01*
X145973714Y-146431357D01*
X145973714Y-146478976D01*
X145926095Y-146574214D01*
X145878476Y-146621833D01*
X145783238Y-146669452D01*
X145592761Y-146669452D01*
X145497523Y-146717071D01*
X145449904Y-146764690D01*
X145402285Y-146859928D01*
X145402285Y-147050404D01*
X145449904Y-147145642D01*
X145497523Y-147193261D01*
X145592761Y-147240880D01*
X145783238Y-147240880D01*
X145878476Y-147193261D01*
X145926095Y-147145642D01*
X145973714Y-147050404D01*
X145973714Y-146859928D01*
X145926095Y-146764690D01*
X145878476Y-146717071D01*
X145783238Y-146669452D01*
X157178523Y-93700880D02*
X156702333Y-93700880D01*
X156654714Y-94177071D01*
X156702333Y-94129452D01*
X156797571Y-94081833D01*
X157035666Y-94081833D01*
X157130904Y-94129452D01*
X157178523Y-94177071D01*
X157226142Y-94272309D01*
X157226142Y-94510404D01*
X157178523Y-94605642D01*
X157130904Y-94653261D01*
X157035666Y-94700880D01*
X156797571Y-94700880D01*
X156702333Y-94653261D01*
X156654714Y-94605642D01*
X157511857Y-93700880D02*
X157845190Y-94700880D01*
X158178523Y-93700880D01*
X191411333Y-121487880D02*
X191411333Y-120487880D01*
X191792285Y-120487880D01*
X191887523Y-120535500D01*
X191935142Y-120583119D01*
X191982761Y-120678357D01*
X191982761Y-120821214D01*
X191935142Y-120916452D01*
X191887523Y-120964071D01*
X191792285Y-121011690D01*
X191411333Y-121011690D01*
X192363714Y-121202166D02*
X192839904Y-121202166D01*
X192268476Y-121487880D02*
X192601809Y-120487880D01*
X192935142Y-121487880D01*
X193697047Y-120821214D02*
X193697047Y-121487880D01*
X193458952Y-120440261D02*
X193220857Y-121154547D01*
X193839904Y-121154547D01*
X187227523Y-101157880D02*
X187227523Y-100157880D01*
X187608476Y-100157880D01*
X187703714Y-100205500D01*
X187751333Y-100253119D01*
X187798952Y-100348357D01*
X187798952Y-100491214D01*
X187751333Y-100586452D01*
X187703714Y-100634071D01*
X187608476Y-100681690D01*
X187227523Y-100681690D01*
X188227523Y-100634071D02*
X188560857Y-100634071D01*
X188703714Y-101157880D02*
X188227523Y-101157880D01*
X188227523Y-100157880D01*
X188703714Y-100157880D01*
X189037047Y-100157880D02*
X189656095Y-100157880D01*
X189322761Y-100538833D01*
X189465619Y-100538833D01*
X189560857Y-100586452D01*
X189608476Y-100634071D01*
X189656095Y-100729309D01*
X189656095Y-100967404D01*
X189608476Y-101062642D01*
X189560857Y-101110261D01*
X189465619Y-101157880D01*
X189179904Y-101157880D01*
X189084666Y-101110261D01*
X189037047Y-101062642D01*
X191279904Y-111087880D02*
X191279904Y-110087880D01*
X191660857Y-110087880D01*
X191756095Y-110135500D01*
X191803714Y-110183119D01*
X191851333Y-110278357D01*
X191851333Y-110421214D01*
X191803714Y-110516452D01*
X191756095Y-110564071D01*
X191660857Y-110611690D01*
X191279904Y-110611690D01*
X192851333Y-110992642D02*
X192803714Y-111040261D01*
X192660857Y-111087880D01*
X192565619Y-111087880D01*
X192422761Y-111040261D01*
X192327523Y-110945023D01*
X192279904Y-110849785D01*
X192232285Y-110659309D01*
X192232285Y-110516452D01*
X192279904Y-110325976D01*
X192327523Y-110230738D01*
X192422761Y-110135500D01*
X192565619Y-110087880D01*
X192660857Y-110087880D01*
X192803714Y-110135500D01*
X192851333Y-110183119D01*
X193232285Y-110183119D02*
X193279904Y-110135500D01*
X193375142Y-110087880D01*
X193613238Y-110087880D01*
X193708476Y-110135500D01*
X193756095Y-110183119D01*
X193803714Y-110278357D01*
X193803714Y-110373595D01*
X193756095Y-110516452D01*
X193184666Y-111087880D01*
X193803714Y-111087880D01*
X139219904Y-119420880D02*
X139219904Y-118420880D01*
X139600857Y-118420880D01*
X139696095Y-118468500D01*
X139743714Y-118516119D01*
X139791333Y-118611357D01*
X139791333Y-118754214D01*
X139743714Y-118849452D01*
X139696095Y-118897071D01*
X139600857Y-118944690D01*
X139219904Y-118944690D01*
X140219904Y-119420880D02*
X140219904Y-118420880D01*
X140458000Y-118420880D01*
X140600857Y-118468500D01*
X140696095Y-118563738D01*
X140743714Y-118658976D01*
X140791333Y-118849452D01*
X140791333Y-118992309D01*
X140743714Y-119182785D01*
X140696095Y-119278023D01*
X140600857Y-119373261D01*
X140458000Y-119420880D01*
X140219904Y-119420880D01*
X141410380Y-118420880D02*
X141505619Y-118420880D01*
X141600857Y-118468500D01*
X141648476Y-118516119D01*
X141696095Y-118611357D01*
X141743714Y-118801833D01*
X141743714Y-119039928D01*
X141696095Y-119230404D01*
X141648476Y-119325642D01*
X141600857Y-119373261D01*
X141505619Y-119420880D01*
X141410380Y-119420880D01*
X141315142Y-119373261D01*
X141267523Y-119325642D01*
X141219904Y-119230404D01*
X141172285Y-119039928D01*
X141172285Y-118801833D01*
X141219904Y-118611357D01*
X141267523Y-118516119D01*
X141315142Y-118468500D01*
X141410380Y-118420880D01*
X139059904Y-131880880D02*
X139059904Y-130880880D01*
X139440857Y-130880880D01*
X139536095Y-130928500D01*
X139583714Y-130976119D01*
X139631333Y-131071357D01*
X139631333Y-131214214D01*
X139583714Y-131309452D01*
X139536095Y-131357071D01*
X139440857Y-131404690D01*
X139059904Y-131404690D01*
X140631333Y-131785642D02*
X140583714Y-131833261D01*
X140440857Y-131880880D01*
X140345619Y-131880880D01*
X140202761Y-131833261D01*
X140107523Y-131738023D01*
X140059904Y-131642785D01*
X140012285Y-131452309D01*
X140012285Y-131309452D01*
X140059904Y-131118976D01*
X140107523Y-131023738D01*
X140202761Y-130928500D01*
X140345619Y-130880880D01*
X140440857Y-130880880D01*
X140583714Y-130928500D01*
X140631333Y-130976119D01*
X141107523Y-131880880D02*
X141298000Y-131880880D01*
X141393238Y-131833261D01*
X141440857Y-131785642D01*
X141536095Y-131642785D01*
X141583714Y-131452309D01*
X141583714Y-131071357D01*
X141536095Y-130976119D01*
X141488476Y-130928500D01*
X141393238Y-130880880D01*
X141202761Y-130880880D01*
X141107523Y-130928500D01*
X141059904Y-130976119D01*
X141012285Y-131071357D01*
X141012285Y-131309452D01*
X141059904Y-131404690D01*
X141107523Y-131452309D01*
X141202761Y-131499928D01*
X141393238Y-131499928D01*
X141488476Y-131452309D01*
X141536095Y-131404690D01*
X141583714Y-131309452D01*
X139486095Y-95418500D02*
X139390857Y-95370880D01*
X139248000Y-95370880D01*
X139105142Y-95418500D01*
X139009904Y-95513738D01*
X138962285Y-95608976D01*
X138914666Y-95799452D01*
X138914666Y-95942309D01*
X138962285Y-96132785D01*
X139009904Y-96228023D01*
X139105142Y-96323261D01*
X139248000Y-96370880D01*
X139343238Y-96370880D01*
X139486095Y-96323261D01*
X139533714Y-96275642D01*
X139533714Y-95942309D01*
X139343238Y-95942309D01*
X139962285Y-96370880D02*
X139962285Y-95370880D01*
X140533714Y-96370880D01*
X140533714Y-95370880D01*
X141009904Y-96370880D02*
X141009904Y-95370880D01*
X141248000Y-95370880D01*
X141390857Y-95418500D01*
X141486095Y-95513738D01*
X141533714Y-95608976D01*
X141581333Y-95799452D01*
X141581333Y-95942309D01*
X141533714Y-96132785D01*
X141486095Y-96228023D01*
X141390857Y-96323261D01*
X141248000Y-96370880D01*
X141009904Y-96370880D01*
X143189904Y-134540880D02*
X143189904Y-133540880D01*
X143570857Y-133540880D01*
X143666095Y-133588500D01*
X143713714Y-133636119D01*
X143761333Y-133731357D01*
X143761333Y-133874214D01*
X143713714Y-133969452D01*
X143666095Y-134017071D01*
X143570857Y-134064690D01*
X143189904Y-134064690D01*
X144761333Y-134445642D02*
X144713714Y-134493261D01*
X144570857Y-134540880D01*
X144475619Y-134540880D01*
X144332761Y-134493261D01*
X144237523Y-134398023D01*
X144189904Y-134302785D01*
X144142285Y-134112309D01*
X144142285Y-133969452D01*
X144189904Y-133778976D01*
X144237523Y-133683738D01*
X144332761Y-133588500D01*
X144475619Y-133540880D01*
X144570857Y-133540880D01*
X144713714Y-133588500D01*
X144761333Y-133636119D01*
X145332761Y-133969452D02*
X145237523Y-133921833D01*
X145189904Y-133874214D01*
X145142285Y-133778976D01*
X145142285Y-133731357D01*
X145189904Y-133636119D01*
X145237523Y-133588500D01*
X145332761Y-133540880D01*
X145523238Y-133540880D01*
X145618476Y-133588500D01*
X145666095Y-133636119D01*
X145713714Y-133731357D01*
X145713714Y-133778976D01*
X145666095Y-133874214D01*
X145618476Y-133921833D01*
X145523238Y-133969452D01*
X145332761Y-133969452D01*
X145237523Y-134017071D01*
X145189904Y-134064690D01*
X145142285Y-134159928D01*
X145142285Y-134350404D01*
X145189904Y-134445642D01*
X145237523Y-134493261D01*
X145332761Y-134540880D01*
X145523238Y-134540880D01*
X145618476Y-134493261D01*
X145666095Y-134445642D01*
X145713714Y-134350404D01*
X145713714Y-134159928D01*
X145666095Y-134064690D01*
X145618476Y-134017071D01*
X145523238Y-133969452D01*
X187379904Y-92577880D02*
X187998952Y-92577880D01*
X187665619Y-92958833D01*
X187808476Y-92958833D01*
X187903714Y-93006452D01*
X187951333Y-93054071D01*
X187998952Y-93149309D01*
X187998952Y-93387404D01*
X187951333Y-93482642D01*
X187903714Y-93530261D01*
X187808476Y-93577880D01*
X187522761Y-93577880D01*
X187427523Y-93530261D01*
X187379904Y-93482642D01*
X188284666Y-92577880D02*
X188618000Y-93577880D01*
X188951333Y-92577880D01*
X189189428Y-92577880D02*
X189808476Y-92577880D01*
X189475142Y-92958833D01*
X189618000Y-92958833D01*
X189713238Y-93006452D01*
X189760857Y-93054071D01*
X189808476Y-93149309D01*
X189808476Y-93387404D01*
X189760857Y-93482642D01*
X189713238Y-93530261D01*
X189618000Y-93577880D01*
X189332285Y-93577880D01*
X189237047Y-93530261D01*
X189189428Y-93482642D01*
X143219904Y-116870880D02*
X143219904Y-115870880D01*
X143600857Y-115870880D01*
X143696095Y-115918500D01*
X143743714Y-115966119D01*
X143791333Y-116061357D01*
X143791333Y-116204214D01*
X143743714Y-116299452D01*
X143696095Y-116347071D01*
X143600857Y-116394690D01*
X143219904Y-116394690D01*
X144219904Y-116870880D02*
X144219904Y-115870880D01*
X144458000Y-115870880D01*
X144600857Y-115918500D01*
X144696095Y-116013738D01*
X144743714Y-116108976D01*
X144791333Y-116299452D01*
X144791333Y-116442309D01*
X144743714Y-116632785D01*
X144696095Y-116728023D01*
X144600857Y-116823261D01*
X144458000Y-116870880D01*
X144219904Y-116870880D01*
X145124666Y-115870880D02*
X145743714Y-115870880D01*
X145410380Y-116251833D01*
X145553238Y-116251833D01*
X145648476Y-116299452D01*
X145696095Y-116347071D01*
X145743714Y-116442309D01*
X145743714Y-116680404D01*
X145696095Y-116775642D01*
X145648476Y-116823261D01*
X145553238Y-116870880D01*
X145267523Y-116870880D01*
X145172285Y-116823261D01*
X145124666Y-116775642D01*
X187509904Y-126357880D02*
X187509904Y-125357880D01*
X187890857Y-125357880D01*
X187986095Y-125405500D01*
X188033714Y-125453119D01*
X188081333Y-125548357D01*
X188081333Y-125691214D01*
X188033714Y-125786452D01*
X187986095Y-125834071D01*
X187890857Y-125881690D01*
X187509904Y-125881690D01*
X189081333Y-126262642D02*
X189033714Y-126310261D01*
X188890857Y-126357880D01*
X188795619Y-126357880D01*
X188652761Y-126310261D01*
X188557523Y-126215023D01*
X188509904Y-126119785D01*
X188462285Y-125929309D01*
X188462285Y-125786452D01*
X188509904Y-125595976D01*
X188557523Y-125500738D01*
X188652761Y-125405500D01*
X188795619Y-125357880D01*
X188890857Y-125357880D01*
X189033714Y-125405500D01*
X189081333Y-125453119D01*
X189986095Y-125357880D02*
X189509904Y-125357880D01*
X189462285Y-125834071D01*
X189509904Y-125786452D01*
X189605142Y-125738833D01*
X189843238Y-125738833D01*
X189938476Y-125786452D01*
X189986095Y-125834071D01*
X190033714Y-125929309D01*
X190033714Y-126167404D01*
X189986095Y-126262642D01*
X189938476Y-126310261D01*
X189843238Y-126357880D01*
X189605142Y-126357880D01*
X189509904Y-126310261D01*
X189462285Y-126262642D01*
X139179904Y-116820880D02*
X139179904Y-115820880D01*
X139560857Y-115820880D01*
X139656095Y-115868500D01*
X139703714Y-115916119D01*
X139751333Y-116011357D01*
X139751333Y-116154214D01*
X139703714Y-116249452D01*
X139656095Y-116297071D01*
X139560857Y-116344690D01*
X139179904Y-116344690D01*
X140179904Y-116820880D02*
X140179904Y-115820880D01*
X140418000Y-115820880D01*
X140560857Y-115868500D01*
X140656095Y-115963738D01*
X140703714Y-116058976D01*
X140751333Y-116249452D01*
X140751333Y-116392309D01*
X140703714Y-116582785D01*
X140656095Y-116678023D01*
X140560857Y-116773261D01*
X140418000Y-116820880D01*
X140179904Y-116820880D01*
X141132285Y-115916119D02*
X141179904Y-115868500D01*
X141275142Y-115820880D01*
X141513238Y-115820880D01*
X141608476Y-115868500D01*
X141656095Y-115916119D01*
X141703714Y-116011357D01*
X141703714Y-116106595D01*
X141656095Y-116249452D01*
X141084666Y-116820880D01*
X141703714Y-116820880D01*
X139097523Y-101520880D02*
X139097523Y-100520880D01*
X139478476Y-100520880D01*
X139573714Y-100568500D01*
X139621333Y-100616119D01*
X139668952Y-100711357D01*
X139668952Y-100854214D01*
X139621333Y-100949452D01*
X139573714Y-100997071D01*
X139478476Y-101044690D01*
X139097523Y-101044690D01*
X140097523Y-100997071D02*
X140430857Y-100997071D01*
X140573714Y-101520880D02*
X140097523Y-101520880D01*
X140097523Y-100520880D01*
X140573714Y-100520880D01*
X141192761Y-100520880D02*
X141288000Y-100520880D01*
X141383238Y-100568500D01*
X141430857Y-100616119D01*
X141478476Y-100711357D01*
X141526095Y-100901833D01*
X141526095Y-101139928D01*
X141478476Y-101330404D01*
X141430857Y-101425642D01*
X141383238Y-101473261D01*
X141288000Y-101520880D01*
X141192761Y-101520880D01*
X141097523Y-101473261D01*
X141049904Y-101425642D01*
X141002285Y-101330404D01*
X140954666Y-101139928D01*
X140954666Y-100901833D01*
X141002285Y-100711357D01*
X141049904Y-100616119D01*
X141097523Y-100568500D01*
X141192761Y-100520880D01*
X142899904Y-90040880D02*
X143518952Y-90040880D01*
X143185619Y-90421833D01*
X143328476Y-90421833D01*
X143423714Y-90469452D01*
X143471333Y-90517071D01*
X143518952Y-90612309D01*
X143518952Y-90850404D01*
X143471333Y-90945642D01*
X143423714Y-90993261D01*
X143328476Y-91040880D01*
X143042761Y-91040880D01*
X142947523Y-90993261D01*
X142899904Y-90945642D01*
X143804666Y-90040880D02*
X144138000Y-91040880D01*
X144471333Y-90040880D01*
X144709428Y-90040880D02*
X145328476Y-90040880D01*
X144995142Y-90421833D01*
X145138000Y-90421833D01*
X145233238Y-90469452D01*
X145280857Y-90517071D01*
X145328476Y-90612309D01*
X145328476Y-90850404D01*
X145280857Y-90945642D01*
X145233238Y-90993261D01*
X145138000Y-91040880D01*
X144852285Y-91040880D01*
X144757047Y-90993261D01*
X144709428Y-90945642D01*
X143496095Y-95478500D02*
X143400857Y-95430880D01*
X143258000Y-95430880D01*
X143115142Y-95478500D01*
X143019904Y-95573738D01*
X142972285Y-95668976D01*
X142924666Y-95859452D01*
X142924666Y-96002309D01*
X142972285Y-96192785D01*
X143019904Y-96288023D01*
X143115142Y-96383261D01*
X143258000Y-96430880D01*
X143353238Y-96430880D01*
X143496095Y-96383261D01*
X143543714Y-96335642D01*
X143543714Y-96002309D01*
X143353238Y-96002309D01*
X143972285Y-96430880D02*
X143972285Y-95430880D01*
X144543714Y-96430880D01*
X144543714Y-95430880D01*
X145019904Y-96430880D02*
X145019904Y-95430880D01*
X145258000Y-95430880D01*
X145400857Y-95478500D01*
X145496095Y-95573738D01*
X145543714Y-95668976D01*
X145591333Y-95859452D01*
X145591333Y-96002309D01*
X145543714Y-96192785D01*
X145496095Y-96288023D01*
X145400857Y-96383261D01*
X145258000Y-96430880D01*
X145019904Y-96430880D01*
X187229904Y-111067880D02*
X187229904Y-110067880D01*
X187610857Y-110067880D01*
X187706095Y-110115500D01*
X187753714Y-110163119D01*
X187801333Y-110258357D01*
X187801333Y-110401214D01*
X187753714Y-110496452D01*
X187706095Y-110544071D01*
X187610857Y-110591690D01*
X187229904Y-110591690D01*
X188801333Y-110972642D02*
X188753714Y-111020261D01*
X188610857Y-111067880D01*
X188515619Y-111067880D01*
X188372761Y-111020261D01*
X188277523Y-110925023D01*
X188229904Y-110829785D01*
X188182285Y-110639309D01*
X188182285Y-110496452D01*
X188229904Y-110305976D01*
X188277523Y-110210738D01*
X188372761Y-110115500D01*
X188515619Y-110067880D01*
X188610857Y-110067880D01*
X188753714Y-110115500D01*
X188801333Y-110163119D01*
X189134666Y-110067880D02*
X189753714Y-110067880D01*
X189420380Y-110448833D01*
X189563238Y-110448833D01*
X189658476Y-110496452D01*
X189706095Y-110544071D01*
X189753714Y-110639309D01*
X189753714Y-110877404D01*
X189706095Y-110972642D01*
X189658476Y-111020261D01*
X189563238Y-111067880D01*
X189277523Y-111067880D01*
X189182285Y-111020261D01*
X189134666Y-110972642D01*
X143169904Y-109210880D02*
X143169904Y-108210880D01*
X143550857Y-108210880D01*
X143646095Y-108258500D01*
X143693714Y-108306119D01*
X143741333Y-108401357D01*
X143741333Y-108544214D01*
X143693714Y-108639452D01*
X143646095Y-108687071D01*
X143550857Y-108734690D01*
X143169904Y-108734690D01*
X144503238Y-108687071D02*
X144646095Y-108734690D01*
X144693714Y-108782309D01*
X144741333Y-108877547D01*
X144741333Y-109020404D01*
X144693714Y-109115642D01*
X144646095Y-109163261D01*
X144550857Y-109210880D01*
X144169904Y-109210880D01*
X144169904Y-108210880D01*
X144503238Y-108210880D01*
X144598476Y-108258500D01*
X144646095Y-108306119D01*
X144693714Y-108401357D01*
X144693714Y-108496595D01*
X144646095Y-108591833D01*
X144598476Y-108639452D01*
X144503238Y-108687071D01*
X144169904Y-108687071D01*
X145646095Y-108210880D02*
X145169904Y-108210880D01*
X145122285Y-108687071D01*
X145169904Y-108639452D01*
X145265142Y-108591833D01*
X145503238Y-108591833D01*
X145598476Y-108639452D01*
X145646095Y-108687071D01*
X145693714Y-108782309D01*
X145693714Y-109020404D01*
X145646095Y-109115642D01*
X145598476Y-109163261D01*
X145503238Y-109210880D01*
X145265142Y-109210880D01*
X145169904Y-109163261D01*
X145122285Y-109115642D01*
X187093714Y-146617880D02*
X187093714Y-145617880D01*
X187474666Y-145617880D01*
X187569904Y-145665500D01*
X187617523Y-145713119D01*
X187665142Y-145808357D01*
X187665142Y-145951214D01*
X187617523Y-146046452D01*
X187569904Y-146094071D01*
X187474666Y-146141690D01*
X187093714Y-146141690D01*
X188427047Y-146094071D02*
X188569904Y-146141690D01*
X188617523Y-146189309D01*
X188665142Y-146284547D01*
X188665142Y-146427404D01*
X188617523Y-146522642D01*
X188569904Y-146570261D01*
X188474666Y-146617880D01*
X188093714Y-146617880D01*
X188093714Y-145617880D01*
X188427047Y-145617880D01*
X188522285Y-145665500D01*
X188569904Y-145713119D01*
X188617523Y-145808357D01*
X188617523Y-145903595D01*
X188569904Y-145998833D01*
X188522285Y-146046452D01*
X188427047Y-146094071D01*
X188093714Y-146094071D01*
X189617523Y-146617880D02*
X189046095Y-146617880D01*
X189331809Y-146617880D02*
X189331809Y-145617880D01*
X189236571Y-145760738D01*
X189141333Y-145855976D01*
X189046095Y-145903595D01*
X190474666Y-145951214D02*
X190474666Y-146617880D01*
X190236571Y-145570261D02*
X189998476Y-146284547D01*
X190617523Y-146284547D01*
X187437523Y-103607880D02*
X187437523Y-102607880D01*
X187818476Y-102607880D01*
X187913714Y-102655500D01*
X187961333Y-102703119D01*
X188008952Y-102798357D01*
X188008952Y-102941214D01*
X187961333Y-103036452D01*
X187913714Y-103084071D01*
X187818476Y-103131690D01*
X187437523Y-103131690D01*
X188437523Y-103084071D02*
X188770857Y-103084071D01*
X188913714Y-103607880D02*
X188437523Y-103607880D01*
X188437523Y-102607880D01*
X188913714Y-102607880D01*
X189818476Y-102607880D02*
X189342285Y-102607880D01*
X189294666Y-103084071D01*
X189342285Y-103036452D01*
X189437523Y-102988833D01*
X189675619Y-102988833D01*
X189770857Y-103036452D01*
X189818476Y-103084071D01*
X189866095Y-103179309D01*
X189866095Y-103417404D01*
X189818476Y-103512642D01*
X189770857Y-103560261D01*
X189675619Y-103607880D01*
X189437523Y-103607880D01*
X189342285Y-103560261D01*
X189294666Y-103512642D01*
X191351333Y-141637880D02*
X191351333Y-140637880D01*
X191732285Y-140637880D01*
X191827523Y-140685500D01*
X191875142Y-140733119D01*
X191922761Y-140828357D01*
X191922761Y-140971214D01*
X191875142Y-141066452D01*
X191827523Y-141114071D01*
X191732285Y-141161690D01*
X191351333Y-141161690D01*
X192351333Y-141114071D02*
X192684666Y-141114071D01*
X192827523Y-141637880D02*
X192351333Y-141637880D01*
X192351333Y-140637880D01*
X192827523Y-140637880D01*
X193779904Y-141637880D02*
X193208476Y-141637880D01*
X193494190Y-141637880D02*
X193494190Y-140637880D01*
X193398952Y-140780738D01*
X193303714Y-140875976D01*
X193208476Y-140923595D01*
X194684666Y-140637880D02*
X194208476Y-140637880D01*
X194160857Y-141114071D01*
X194208476Y-141066452D01*
X194303714Y-141018833D01*
X194541809Y-141018833D01*
X194637047Y-141066452D01*
X194684666Y-141114071D01*
X194732285Y-141209309D01*
X194732285Y-141447404D01*
X194684666Y-141542642D01*
X194637047Y-141590261D01*
X194541809Y-141637880D01*
X194303714Y-141637880D01*
X194208476Y-141590261D01*
X194160857Y-141542642D01*
X191309904Y-94907880D02*
X191928952Y-94907880D01*
X191595619Y-95288833D01*
X191738476Y-95288833D01*
X191833714Y-95336452D01*
X191881333Y-95384071D01*
X191928952Y-95479309D01*
X191928952Y-95717404D01*
X191881333Y-95812642D01*
X191833714Y-95860261D01*
X191738476Y-95907880D01*
X191452761Y-95907880D01*
X191357523Y-95860261D01*
X191309904Y-95812642D01*
X192214666Y-94907880D02*
X192548000Y-95907880D01*
X192881333Y-94907880D01*
X193119428Y-94907880D02*
X193738476Y-94907880D01*
X193405142Y-95288833D01*
X193548000Y-95288833D01*
X193643238Y-95336452D01*
X193690857Y-95384071D01*
X193738476Y-95479309D01*
X193738476Y-95717404D01*
X193690857Y-95812642D01*
X193643238Y-95860261D01*
X193548000Y-95907880D01*
X193262285Y-95907880D01*
X193167047Y-95860261D01*
X193119428Y-95812642D01*
X143253714Y-144780880D02*
X143253714Y-143780880D01*
X143634666Y-143780880D01*
X143729904Y-143828500D01*
X143777523Y-143876119D01*
X143825142Y-143971357D01*
X143825142Y-144114214D01*
X143777523Y-144209452D01*
X143729904Y-144257071D01*
X143634666Y-144304690D01*
X143253714Y-144304690D01*
X144253714Y-144780880D02*
X144253714Y-143780880D01*
X144491809Y-143780880D01*
X144634666Y-143828500D01*
X144729904Y-143923738D01*
X144777523Y-144018976D01*
X144825142Y-144209452D01*
X144825142Y-144352309D01*
X144777523Y-144542785D01*
X144729904Y-144638023D01*
X144634666Y-144733261D01*
X144491809Y-144780880D01*
X144253714Y-144780880D01*
X145777523Y-144780880D02*
X145206095Y-144780880D01*
X145491809Y-144780880D02*
X145491809Y-143780880D01*
X145396571Y-143923738D01*
X145301333Y-144018976D01*
X145206095Y-144066595D01*
X146396571Y-143780880D02*
X146491809Y-143780880D01*
X146587047Y-143828500D01*
X146634666Y-143876119D01*
X146682285Y-143971357D01*
X146729904Y-144161833D01*
X146729904Y-144399928D01*
X146682285Y-144590404D01*
X146634666Y-144685642D01*
X146587047Y-144733261D01*
X146491809Y-144780880D01*
X146396571Y-144780880D01*
X146301333Y-144733261D01*
X146253714Y-144685642D01*
X146206095Y-144590404D01*
X146158476Y-144399928D01*
X146158476Y-144161833D01*
X146206095Y-143971357D01*
X146253714Y-143876119D01*
X146301333Y-143828500D01*
X146396571Y-143780880D01*
X188177523Y-89507880D02*
X187701333Y-89507880D01*
X187653714Y-89984071D01*
X187701333Y-89936452D01*
X187796571Y-89888833D01*
X188034666Y-89888833D01*
X188129904Y-89936452D01*
X188177523Y-89984071D01*
X188225142Y-90079309D01*
X188225142Y-90317404D01*
X188177523Y-90412642D01*
X188129904Y-90460261D01*
X188034666Y-90507880D01*
X187796571Y-90507880D01*
X187701333Y-90460261D01*
X187653714Y-90412642D01*
X188510857Y-89507880D02*
X188844190Y-90507880D01*
X189177523Y-89507880D01*
X143009904Y-103980880D02*
X143009904Y-102980880D01*
X143390857Y-102980880D01*
X143486095Y-103028500D01*
X143533714Y-103076119D01*
X143581333Y-103171357D01*
X143581333Y-103314214D01*
X143533714Y-103409452D01*
X143486095Y-103457071D01*
X143390857Y-103504690D01*
X143009904Y-103504690D01*
X144343238Y-103457071D02*
X144486095Y-103504690D01*
X144533714Y-103552309D01*
X144581333Y-103647547D01*
X144581333Y-103790404D01*
X144533714Y-103885642D01*
X144486095Y-103933261D01*
X144390857Y-103980880D01*
X144009904Y-103980880D01*
X144009904Y-102980880D01*
X144343238Y-102980880D01*
X144438476Y-103028500D01*
X144486095Y-103076119D01*
X144533714Y-103171357D01*
X144533714Y-103266595D01*
X144486095Y-103361833D01*
X144438476Y-103409452D01*
X144343238Y-103457071D01*
X144009904Y-103457071D01*
X145057523Y-103980880D02*
X145248000Y-103980880D01*
X145343238Y-103933261D01*
X145390857Y-103885642D01*
X145486095Y-103742785D01*
X145533714Y-103552309D01*
X145533714Y-103171357D01*
X145486095Y-103076119D01*
X145438476Y-103028500D01*
X145343238Y-102980880D01*
X145152761Y-102980880D01*
X145057523Y-103028500D01*
X145009904Y-103076119D01*
X144962285Y-103171357D01*
X144962285Y-103409452D01*
X145009904Y-103504690D01*
X145057523Y-103552309D01*
X145152761Y-103599928D01*
X145343238Y-103599928D01*
X145438476Y-103552309D01*
X145486095Y-103504690D01*
X145533714Y-103409452D01*
X143049904Y-106640880D02*
X143049904Y-105640880D01*
X143430857Y-105640880D01*
X143526095Y-105688500D01*
X143573714Y-105736119D01*
X143621333Y-105831357D01*
X143621333Y-105974214D01*
X143573714Y-106069452D01*
X143526095Y-106117071D01*
X143430857Y-106164690D01*
X143049904Y-106164690D01*
X144383238Y-106117071D02*
X144526095Y-106164690D01*
X144573714Y-106212309D01*
X144621333Y-106307547D01*
X144621333Y-106450404D01*
X144573714Y-106545642D01*
X144526095Y-106593261D01*
X144430857Y-106640880D01*
X144049904Y-106640880D01*
X144049904Y-105640880D01*
X144383238Y-105640880D01*
X144478476Y-105688500D01*
X144526095Y-105736119D01*
X144573714Y-105831357D01*
X144573714Y-105926595D01*
X144526095Y-106021833D01*
X144478476Y-106069452D01*
X144383238Y-106117071D01*
X144049904Y-106117071D01*
X144954666Y-105640880D02*
X145621333Y-105640880D01*
X145192761Y-106640880D01*
X187529904Y-128867880D02*
X187529904Y-127867880D01*
X187910857Y-127867880D01*
X188006095Y-127915500D01*
X188053714Y-127963119D01*
X188101333Y-128058357D01*
X188101333Y-128201214D01*
X188053714Y-128296452D01*
X188006095Y-128344071D01*
X187910857Y-128391690D01*
X187529904Y-128391690D01*
X188863238Y-128344071D02*
X189006095Y-128391690D01*
X189053714Y-128439309D01*
X189101333Y-128534547D01*
X189101333Y-128677404D01*
X189053714Y-128772642D01*
X189006095Y-128820261D01*
X188910857Y-128867880D01*
X188529904Y-128867880D01*
X188529904Y-127867880D01*
X188863238Y-127867880D01*
X188958476Y-127915500D01*
X189006095Y-127963119D01*
X189053714Y-128058357D01*
X189053714Y-128153595D01*
X189006095Y-128248833D01*
X188958476Y-128296452D01*
X188863238Y-128344071D01*
X188529904Y-128344071D01*
X190053714Y-128867880D02*
X189482285Y-128867880D01*
X189768000Y-128867880D02*
X189768000Y-127867880D01*
X189672761Y-128010738D01*
X189577523Y-128105976D01*
X189482285Y-128153595D01*
X191203714Y-146617880D02*
X191203714Y-145617880D01*
X191584666Y-145617880D01*
X191679904Y-145665500D01*
X191727523Y-145713119D01*
X191775142Y-145808357D01*
X191775142Y-145951214D01*
X191727523Y-146046452D01*
X191679904Y-146094071D01*
X191584666Y-146141690D01*
X191203714Y-146141690D01*
X192537047Y-146094071D02*
X192679904Y-146141690D01*
X192727523Y-146189309D01*
X192775142Y-146284547D01*
X192775142Y-146427404D01*
X192727523Y-146522642D01*
X192679904Y-146570261D01*
X192584666Y-146617880D01*
X192203714Y-146617880D01*
X192203714Y-145617880D01*
X192537047Y-145617880D01*
X192632285Y-145665500D01*
X192679904Y-145713119D01*
X192727523Y-145808357D01*
X192727523Y-145903595D01*
X192679904Y-145998833D01*
X192632285Y-146046452D01*
X192537047Y-146094071D01*
X192203714Y-146094071D01*
X193727523Y-146617880D02*
X193156095Y-146617880D01*
X193441809Y-146617880D02*
X193441809Y-145617880D01*
X193346571Y-145760738D01*
X193251333Y-145855976D01*
X193156095Y-145903595D01*
X194060857Y-145617880D02*
X194679904Y-145617880D01*
X194346571Y-145998833D01*
X194489428Y-145998833D01*
X194584666Y-146046452D01*
X194632285Y-146094071D01*
X194679904Y-146189309D01*
X194679904Y-146427404D01*
X194632285Y-146522642D01*
X194584666Y-146570261D01*
X194489428Y-146617880D01*
X194203714Y-146617880D01*
X194108476Y-146570261D01*
X194060857Y-146522642D01*
X191347523Y-101187880D02*
X191347523Y-100187880D01*
X191728476Y-100187880D01*
X191823714Y-100235500D01*
X191871333Y-100283119D01*
X191918952Y-100378357D01*
X191918952Y-100521214D01*
X191871333Y-100616452D01*
X191823714Y-100664071D01*
X191728476Y-100711690D01*
X191347523Y-100711690D01*
X192347523Y-100664071D02*
X192680857Y-100664071D01*
X192823714Y-101187880D02*
X192347523Y-101187880D01*
X192347523Y-100187880D01*
X192823714Y-100187880D01*
X193204666Y-100283119D02*
X193252285Y-100235500D01*
X193347523Y-100187880D01*
X193585619Y-100187880D01*
X193680857Y-100235500D01*
X193728476Y-100283119D01*
X193776095Y-100378357D01*
X193776095Y-100473595D01*
X193728476Y-100616452D01*
X193157047Y-101187880D01*
X193776095Y-101187880D01*
X191599904Y-128897880D02*
X191599904Y-127897880D01*
X191980857Y-127897880D01*
X192076095Y-127945500D01*
X192123714Y-127993119D01*
X192171333Y-128088357D01*
X192171333Y-128231214D01*
X192123714Y-128326452D01*
X192076095Y-128374071D01*
X191980857Y-128421690D01*
X191599904Y-128421690D01*
X192933238Y-128374071D02*
X193076095Y-128421690D01*
X193123714Y-128469309D01*
X193171333Y-128564547D01*
X193171333Y-128707404D01*
X193123714Y-128802642D01*
X193076095Y-128850261D01*
X192980857Y-128897880D01*
X192599904Y-128897880D01*
X192599904Y-127897880D01*
X192933238Y-127897880D01*
X193028476Y-127945500D01*
X193076095Y-127993119D01*
X193123714Y-128088357D01*
X193123714Y-128183595D01*
X193076095Y-128278833D01*
X193028476Y-128326452D01*
X192933238Y-128374071D01*
X192599904Y-128374071D01*
X193790380Y-127897880D02*
X193885619Y-127897880D01*
X193980857Y-127945500D01*
X194028476Y-127993119D01*
X194076095Y-128088357D01*
X194123714Y-128278833D01*
X194123714Y-128516928D01*
X194076095Y-128707404D01*
X194028476Y-128802642D01*
X193980857Y-128850261D01*
X193885619Y-128897880D01*
X193790380Y-128897880D01*
X193695142Y-128850261D01*
X193647523Y-128802642D01*
X193599904Y-128707404D01*
X193552285Y-128516928D01*
X193552285Y-128278833D01*
X193599904Y-128088357D01*
X193647523Y-127993119D01*
X193695142Y-127945500D01*
X193790380Y-127897880D01*
X191281333Y-136527880D02*
X191281333Y-135527880D01*
X191662285Y-135527880D01*
X191757523Y-135575500D01*
X191805142Y-135623119D01*
X191852761Y-135718357D01*
X191852761Y-135861214D01*
X191805142Y-135956452D01*
X191757523Y-136004071D01*
X191662285Y-136051690D01*
X191281333Y-136051690D01*
X192281333Y-136004071D02*
X192614666Y-136004071D01*
X192757523Y-136527880D02*
X192281333Y-136527880D01*
X192281333Y-135527880D01*
X192757523Y-135527880D01*
X193709904Y-136527880D02*
X193138476Y-136527880D01*
X193424190Y-136527880D02*
X193424190Y-135527880D01*
X193328952Y-135670738D01*
X193233714Y-135765976D01*
X193138476Y-135813595D01*
X194662285Y-136527880D02*
X194090857Y-136527880D01*
X194376571Y-136527880D02*
X194376571Y-135527880D01*
X194281333Y-135670738D01*
X194186095Y-135765976D01*
X194090857Y-135813595D01*
X191449904Y-126387880D02*
X191449904Y-125387880D01*
X191830857Y-125387880D01*
X191926095Y-125435500D01*
X191973714Y-125483119D01*
X192021333Y-125578357D01*
X192021333Y-125721214D01*
X191973714Y-125816452D01*
X191926095Y-125864071D01*
X191830857Y-125911690D01*
X191449904Y-125911690D01*
X193021333Y-126292642D02*
X192973714Y-126340261D01*
X192830857Y-126387880D01*
X192735619Y-126387880D01*
X192592761Y-126340261D01*
X192497523Y-126245023D01*
X192449904Y-126149785D01*
X192402285Y-125959309D01*
X192402285Y-125816452D01*
X192449904Y-125625976D01*
X192497523Y-125530738D01*
X192592761Y-125435500D01*
X192735619Y-125387880D01*
X192830857Y-125387880D01*
X192973714Y-125435500D01*
X193021333Y-125483119D01*
X193878476Y-125721214D02*
X193878476Y-126387880D01*
X193640380Y-125340261D02*
X193402285Y-126054547D01*
X194021333Y-126054547D01*
X192367523Y-87187880D02*
X191891333Y-87187880D01*
X191843714Y-87664071D01*
X191891333Y-87616452D01*
X191986571Y-87568833D01*
X192224666Y-87568833D01*
X192319904Y-87616452D01*
X192367523Y-87664071D01*
X192415142Y-87759309D01*
X192415142Y-87997404D01*
X192367523Y-88092642D01*
X192319904Y-88140261D01*
X192224666Y-88187880D01*
X191986571Y-88187880D01*
X191891333Y-88140261D01*
X191843714Y-88092642D01*
X192700857Y-87187880D02*
X193034190Y-88187880D01*
X193367523Y-87187880D01*
X162706142Y-94750880D02*
X162372809Y-94274690D01*
X162134714Y-94750880D02*
X162134714Y-93750880D01*
X162515666Y-93750880D01*
X162610904Y-93798500D01*
X162658523Y-93846119D01*
X162706142Y-93941357D01*
X162706142Y-94084214D01*
X162658523Y-94179452D01*
X162610904Y-94227071D01*
X162515666Y-94274690D01*
X162134714Y-94274690D01*
X163039476Y-93750880D02*
X163706142Y-94750880D01*
X163706142Y-93750880D02*
X163039476Y-94750880D01*
X164610904Y-94750880D02*
X164039476Y-94750880D01*
X164325190Y-94750880D02*
X164325190Y-93750880D01*
X164229952Y-93893738D01*
X164134714Y-93988976D01*
X164039476Y-94036595D01*
X143449904Y-137170880D02*
X143449904Y-136170880D01*
X143830857Y-136170880D01*
X143926095Y-136218500D01*
X143973714Y-136266119D01*
X144021333Y-136361357D01*
X144021333Y-136504214D01*
X143973714Y-136599452D01*
X143926095Y-136647071D01*
X143830857Y-136694690D01*
X143449904Y-136694690D01*
X145021333Y-137075642D02*
X144973714Y-137123261D01*
X144830857Y-137170880D01*
X144735619Y-137170880D01*
X144592761Y-137123261D01*
X144497523Y-137028023D01*
X144449904Y-136932785D01*
X144402285Y-136742309D01*
X144402285Y-136599452D01*
X144449904Y-136408976D01*
X144497523Y-136313738D01*
X144592761Y-136218500D01*
X144735619Y-136170880D01*
X144830857Y-136170880D01*
X144973714Y-136218500D01*
X145021333Y-136266119D01*
X145878476Y-136170880D02*
X145688000Y-136170880D01*
X145592761Y-136218500D01*
X145545142Y-136266119D01*
X145449904Y-136408976D01*
X145402285Y-136599452D01*
X145402285Y-136980404D01*
X145449904Y-137075642D01*
X145497523Y-137123261D01*
X145592761Y-137170880D01*
X145783238Y-137170880D01*
X145878476Y-137123261D01*
X145926095Y-137075642D01*
X145973714Y-136980404D01*
X145973714Y-136742309D01*
X145926095Y-136647071D01*
X145878476Y-136599452D01*
X145783238Y-136551833D01*
X145592761Y-136551833D01*
X145497523Y-136599452D01*
X145449904Y-136647071D01*
X145402285Y-136742309D01*
X139069904Y-104000880D02*
X139069904Y-103000880D01*
X139450857Y-103000880D01*
X139546095Y-103048500D01*
X139593714Y-103096119D01*
X139641333Y-103191357D01*
X139641333Y-103334214D01*
X139593714Y-103429452D01*
X139546095Y-103477071D01*
X139450857Y-103524690D01*
X139069904Y-103524690D01*
X140403238Y-103477071D02*
X140546095Y-103524690D01*
X140593714Y-103572309D01*
X140641333Y-103667547D01*
X140641333Y-103810404D01*
X140593714Y-103905642D01*
X140546095Y-103953261D01*
X140450857Y-104000880D01*
X140069904Y-104000880D01*
X140069904Y-103000880D01*
X140403238Y-103000880D01*
X140498476Y-103048500D01*
X140546095Y-103096119D01*
X140593714Y-103191357D01*
X140593714Y-103286595D01*
X140546095Y-103381833D01*
X140498476Y-103429452D01*
X140403238Y-103477071D01*
X140069904Y-103477071D01*
X141212761Y-103429452D02*
X141117523Y-103381833D01*
X141069904Y-103334214D01*
X141022285Y-103238976D01*
X141022285Y-103191357D01*
X141069904Y-103096119D01*
X141117523Y-103048500D01*
X141212761Y-103000880D01*
X141403238Y-103000880D01*
X141498476Y-103048500D01*
X141546095Y-103096119D01*
X141593714Y-103191357D01*
X141593714Y-103238976D01*
X141546095Y-103334214D01*
X141498476Y-103381833D01*
X141403238Y-103429452D01*
X141212761Y-103429452D01*
X141117523Y-103477071D01*
X141069904Y-103524690D01*
X141022285Y-103619928D01*
X141022285Y-103810404D01*
X141069904Y-103905642D01*
X141117523Y-103953261D01*
X141212761Y-104000880D01*
X141403238Y-104000880D01*
X141498476Y-103953261D01*
X141546095Y-103905642D01*
X141593714Y-103810404D01*
X141593714Y-103619928D01*
X141546095Y-103524690D01*
X141498476Y-103477071D01*
X141403238Y-103429452D01*
X143333714Y-139670880D02*
X143333714Y-138670880D01*
X143714666Y-138670880D01*
X143809904Y-138718500D01*
X143857523Y-138766119D01*
X143905142Y-138861357D01*
X143905142Y-139004214D01*
X143857523Y-139099452D01*
X143809904Y-139147071D01*
X143714666Y-139194690D01*
X143333714Y-139194690D01*
X144333714Y-139670880D02*
X144333714Y-138670880D01*
X144571809Y-138670880D01*
X144714666Y-138718500D01*
X144809904Y-138813738D01*
X144857523Y-138908976D01*
X144905142Y-139099452D01*
X144905142Y-139242309D01*
X144857523Y-139432785D01*
X144809904Y-139528023D01*
X144714666Y-139623261D01*
X144571809Y-139670880D01*
X144333714Y-139670880D01*
X145857523Y-139670880D02*
X145286095Y-139670880D01*
X145571809Y-139670880D02*
X145571809Y-138670880D01*
X145476571Y-138813738D01*
X145381333Y-138908976D01*
X145286095Y-138956595D01*
X146714666Y-139004214D02*
X146714666Y-139670880D01*
X146476571Y-138623261D02*
X146238476Y-139337547D01*
X146857523Y-139337547D01*
X143213714Y-122020880D02*
X143213714Y-121020880D01*
X143594666Y-121020880D01*
X143689904Y-121068500D01*
X143737523Y-121116119D01*
X143785142Y-121211357D01*
X143785142Y-121354214D01*
X143737523Y-121449452D01*
X143689904Y-121497071D01*
X143594666Y-121544690D01*
X143213714Y-121544690D01*
X144785142Y-121925642D02*
X144737523Y-121973261D01*
X144594666Y-122020880D01*
X144499428Y-122020880D01*
X144356571Y-121973261D01*
X144261333Y-121878023D01*
X144213714Y-121782785D01*
X144166095Y-121592309D01*
X144166095Y-121449452D01*
X144213714Y-121258976D01*
X144261333Y-121163738D01*
X144356571Y-121068500D01*
X144499428Y-121020880D01*
X144594666Y-121020880D01*
X144737523Y-121068500D01*
X144785142Y-121116119D01*
X145737523Y-122020880D02*
X145166095Y-122020880D01*
X145451809Y-122020880D02*
X145451809Y-121020880D01*
X145356571Y-121163738D01*
X145261333Y-121258976D01*
X145166095Y-121306595D01*
X146118476Y-121116119D02*
X146166095Y-121068500D01*
X146261333Y-121020880D01*
X146499428Y-121020880D01*
X146594666Y-121068500D01*
X146642285Y-121116119D01*
X146689904Y-121211357D01*
X146689904Y-121306595D01*
X146642285Y-121449452D01*
X146070857Y-122020880D01*
X146689904Y-122020880D01*
X191537523Y-131417880D02*
X191537523Y-130417880D01*
X191918476Y-130417880D01*
X192013714Y-130465500D01*
X192061333Y-130513119D01*
X192108952Y-130608357D01*
X192108952Y-130751214D01*
X192061333Y-130846452D01*
X192013714Y-130894071D01*
X191918476Y-130941690D01*
X191537523Y-130941690D01*
X192537523Y-130894071D02*
X192870857Y-130894071D01*
X193013714Y-131417880D02*
X192537523Y-131417880D01*
X192537523Y-130417880D01*
X193013714Y-130417880D01*
X193347047Y-130417880D02*
X194013714Y-130417880D01*
X193585142Y-131417880D01*
X187221333Y-136497880D02*
X187221333Y-135497880D01*
X187602285Y-135497880D01*
X187697523Y-135545500D01*
X187745142Y-135593119D01*
X187792761Y-135688357D01*
X187792761Y-135831214D01*
X187745142Y-135926452D01*
X187697523Y-135974071D01*
X187602285Y-136021690D01*
X187221333Y-136021690D01*
X188221333Y-135974071D02*
X188554666Y-135974071D01*
X188697523Y-136497880D02*
X188221333Y-136497880D01*
X188221333Y-135497880D01*
X188697523Y-135497880D01*
X189649904Y-136497880D02*
X189078476Y-136497880D01*
X189364190Y-136497880D02*
X189364190Y-135497880D01*
X189268952Y-135640738D01*
X189173714Y-135735976D01*
X189078476Y-135783595D01*
X190030857Y-135593119D02*
X190078476Y-135545500D01*
X190173714Y-135497880D01*
X190411809Y-135497880D01*
X190507047Y-135545500D01*
X190554666Y-135593119D01*
X190602285Y-135688357D01*
X190602285Y-135783595D01*
X190554666Y-135926452D01*
X189983238Y-136497880D01*
X190602285Y-136497880D01*
X191656095Y-97695500D02*
X191560857Y-97647880D01*
X191418000Y-97647880D01*
X191275142Y-97695500D01*
X191179904Y-97790738D01*
X191132285Y-97885976D01*
X191084666Y-98076452D01*
X191084666Y-98219309D01*
X191132285Y-98409785D01*
X191179904Y-98505023D01*
X191275142Y-98600261D01*
X191418000Y-98647880D01*
X191513238Y-98647880D01*
X191656095Y-98600261D01*
X191703714Y-98552642D01*
X191703714Y-98219309D01*
X191513238Y-98219309D01*
X192132285Y-98647880D02*
X192132285Y-97647880D01*
X192703714Y-98647880D01*
X192703714Y-97647880D01*
X193179904Y-98647880D02*
X193179904Y-97647880D01*
X193418000Y-97647880D01*
X193560857Y-97695500D01*
X193656095Y-97790738D01*
X193703714Y-97885976D01*
X193751333Y-98076452D01*
X193751333Y-98219309D01*
X193703714Y-98409785D01*
X193656095Y-98505023D01*
X193560857Y-98600261D01*
X193418000Y-98647880D01*
X193179904Y-98647880D01*
X143231333Y-131990880D02*
X143231333Y-130990880D01*
X143612285Y-130990880D01*
X143707523Y-131038500D01*
X143755142Y-131086119D01*
X143802761Y-131181357D01*
X143802761Y-131324214D01*
X143755142Y-131419452D01*
X143707523Y-131467071D01*
X143612285Y-131514690D01*
X143231333Y-131514690D01*
X144183714Y-131705166D02*
X144659904Y-131705166D01*
X144088476Y-131990880D02*
X144421809Y-130990880D01*
X144755142Y-131990880D01*
X145231333Y-131419452D02*
X145136095Y-131371833D01*
X145088476Y-131324214D01*
X145040857Y-131228976D01*
X145040857Y-131181357D01*
X145088476Y-131086119D01*
X145136095Y-131038500D01*
X145231333Y-130990880D01*
X145421809Y-130990880D01*
X145517047Y-131038500D01*
X145564666Y-131086119D01*
X145612285Y-131181357D01*
X145612285Y-131228976D01*
X145564666Y-131324214D01*
X145517047Y-131371833D01*
X145421809Y-131419452D01*
X145231333Y-131419452D01*
X145136095Y-131467071D01*
X145088476Y-131514690D01*
X145040857Y-131609928D01*
X145040857Y-131800404D01*
X145088476Y-131895642D01*
X145136095Y-131943261D01*
X145231333Y-131990880D01*
X145421809Y-131990880D01*
X145517047Y-131943261D01*
X145564666Y-131895642D01*
X145612285Y-131800404D01*
X145612285Y-131609928D01*
X145564666Y-131514690D01*
X145517047Y-131467071D01*
X145421809Y-131419452D01*
X143159904Y-111880880D02*
X143159904Y-110880880D01*
X143540857Y-110880880D01*
X143636095Y-110928500D01*
X143683714Y-110976119D01*
X143731333Y-111071357D01*
X143731333Y-111214214D01*
X143683714Y-111309452D01*
X143636095Y-111357071D01*
X143540857Y-111404690D01*
X143159904Y-111404690D01*
X144159904Y-111880880D02*
X144159904Y-110880880D01*
X144398000Y-110880880D01*
X144540857Y-110928500D01*
X144636095Y-111023738D01*
X144683714Y-111118976D01*
X144731333Y-111309452D01*
X144731333Y-111452309D01*
X144683714Y-111642785D01*
X144636095Y-111738023D01*
X144540857Y-111833261D01*
X144398000Y-111880880D01*
X144159904Y-111880880D01*
X145064666Y-110880880D02*
X145731333Y-110880880D01*
X145302761Y-111880880D01*
X187501333Y-123927880D02*
X187501333Y-122927880D01*
X187882285Y-122927880D01*
X187977523Y-122975500D01*
X188025142Y-123023119D01*
X188072761Y-123118357D01*
X188072761Y-123261214D01*
X188025142Y-123356452D01*
X187977523Y-123404071D01*
X187882285Y-123451690D01*
X187501333Y-123451690D01*
X188453714Y-123642166D02*
X188929904Y-123642166D01*
X188358476Y-123927880D02*
X188691809Y-122927880D01*
X189025142Y-123927880D01*
X189263238Y-122927880D02*
X189929904Y-122927880D01*
X189501333Y-123927880D01*
X143432285Y-93247071D02*
X143575142Y-93294690D01*
X143622761Y-93342309D01*
X143670380Y-93437547D01*
X143670380Y-93580404D01*
X143622761Y-93675642D01*
X143575142Y-93723261D01*
X143479904Y-93770880D01*
X143098952Y-93770880D01*
X143098952Y-92770880D01*
X143432285Y-92770880D01*
X143527523Y-92818500D01*
X143575142Y-92866119D01*
X143622761Y-92961357D01*
X143622761Y-93056595D01*
X143575142Y-93151833D01*
X143527523Y-93199452D01*
X143432285Y-93247071D01*
X143098952Y-93247071D01*
X143956095Y-92770880D02*
X144527523Y-92770880D01*
X144241809Y-93770880D02*
X144241809Y-92770880D01*
X145051333Y-92770880D02*
X145146571Y-92770880D01*
X145241809Y-92818500D01*
X145289428Y-92866119D01*
X145337047Y-92961357D01*
X145384666Y-93151833D01*
X145384666Y-93389928D01*
X145337047Y-93580404D01*
X145289428Y-93675642D01*
X145241809Y-93723261D01*
X145146571Y-93770880D01*
X145051333Y-93770880D01*
X144956095Y-93723261D01*
X144908476Y-93675642D01*
X144860857Y-93580404D01*
X144813238Y-93389928D01*
X144813238Y-93151833D01*
X144860857Y-92961357D01*
X144908476Y-92866119D01*
X144956095Y-92818500D01*
X145051333Y-92770880D01*
X143073714Y-124420880D02*
X143073714Y-123420880D01*
X143454666Y-123420880D01*
X143549904Y-123468500D01*
X143597523Y-123516119D01*
X143645142Y-123611357D01*
X143645142Y-123754214D01*
X143597523Y-123849452D01*
X143549904Y-123897071D01*
X143454666Y-123944690D01*
X143073714Y-123944690D01*
X144645142Y-124325642D02*
X144597523Y-124373261D01*
X144454666Y-124420880D01*
X144359428Y-124420880D01*
X144216571Y-124373261D01*
X144121333Y-124278023D01*
X144073714Y-124182785D01*
X144026095Y-123992309D01*
X144026095Y-123849452D01*
X144073714Y-123658976D01*
X144121333Y-123563738D01*
X144216571Y-123468500D01*
X144359428Y-123420880D01*
X144454666Y-123420880D01*
X144597523Y-123468500D01*
X144645142Y-123516119D01*
X145597523Y-124420880D02*
X145026095Y-124420880D01*
X145311809Y-124420880D02*
X145311809Y-123420880D01*
X145216571Y-123563738D01*
X145121333Y-123658976D01*
X145026095Y-123706595D01*
X146216571Y-123420880D02*
X146311809Y-123420880D01*
X146407047Y-123468500D01*
X146454666Y-123516119D01*
X146502285Y-123611357D01*
X146549904Y-123801833D01*
X146549904Y-124039928D01*
X146502285Y-124230404D01*
X146454666Y-124325642D01*
X146407047Y-124373261D01*
X146311809Y-124420880D01*
X146216571Y-124420880D01*
X146121333Y-124373261D01*
X146073714Y-124325642D01*
X146026095Y-124230404D01*
X145978476Y-124039928D01*
X145978476Y-123801833D01*
X146026095Y-123611357D01*
X146073714Y-123516119D01*
X146121333Y-123468500D01*
X146216571Y-123420880D01*
X159357095Y-93818500D02*
X159261857Y-93770880D01*
X159119000Y-93770880D01*
X158976142Y-93818500D01*
X158880904Y-93913738D01*
X158833285Y-94008976D01*
X158785666Y-94199452D01*
X158785666Y-94342309D01*
X158833285Y-94532785D01*
X158880904Y-94628023D01*
X158976142Y-94723261D01*
X159119000Y-94770880D01*
X159214238Y-94770880D01*
X159357095Y-94723261D01*
X159404714Y-94675642D01*
X159404714Y-94342309D01*
X159214238Y-94342309D01*
X159833285Y-94770880D02*
X159833285Y-93770880D01*
X160404714Y-94770880D01*
X160404714Y-93770880D01*
X160880904Y-94770880D02*
X160880904Y-93770880D01*
X161119000Y-93770880D01*
X161261857Y-93818500D01*
X161357095Y-93913738D01*
X161404714Y-94008976D01*
X161452333Y-94199452D01*
X161452333Y-94342309D01*
X161404714Y-94532785D01*
X161357095Y-94628023D01*
X161261857Y-94723261D01*
X161119000Y-94770880D01*
X160880904Y-94770880D01*
X186443714Y-106147880D02*
X186443714Y-105147880D01*
X186824666Y-105147880D01*
X186919904Y-105195500D01*
X186967523Y-105243119D01*
X187015142Y-105338357D01*
X187015142Y-105481214D01*
X186967523Y-105576452D01*
X186919904Y-105624071D01*
X186824666Y-105671690D01*
X186443714Y-105671690D01*
X188015142Y-106052642D02*
X187967523Y-106100261D01*
X187824666Y-106147880D01*
X187729428Y-106147880D01*
X187586571Y-106100261D01*
X187491333Y-106005023D01*
X187443714Y-105909785D01*
X187396095Y-105719309D01*
X187396095Y-105576452D01*
X187443714Y-105385976D01*
X187491333Y-105290738D01*
X187586571Y-105195500D01*
X187729428Y-105147880D01*
X187824666Y-105147880D01*
X187967523Y-105195500D01*
X188015142Y-105243119D01*
X188967523Y-106147880D02*
X188396095Y-106147880D01*
X188681809Y-106147880D02*
X188681809Y-105147880D01*
X188586571Y-105290738D01*
X188491333Y-105385976D01*
X188396095Y-105433595D01*
X189300857Y-105147880D02*
X189919904Y-105147880D01*
X189586571Y-105528833D01*
X189729428Y-105528833D01*
X189824666Y-105576452D01*
X189872285Y-105624071D01*
X189919904Y-105719309D01*
X189919904Y-105957404D01*
X189872285Y-106052642D01*
X189824666Y-106100261D01*
X189729428Y-106147880D01*
X189443714Y-106147880D01*
X189348476Y-106100261D01*
X189300857Y-106052642D01*
X191377523Y-103627880D02*
X191377523Y-102627880D01*
X191758476Y-102627880D01*
X191853714Y-102675500D01*
X191901333Y-102723119D01*
X191948952Y-102818357D01*
X191948952Y-102961214D01*
X191901333Y-103056452D01*
X191853714Y-103104071D01*
X191758476Y-103151690D01*
X191377523Y-103151690D01*
X192377523Y-103104071D02*
X192710857Y-103104071D01*
X192853714Y-103627880D02*
X192377523Y-103627880D01*
X192377523Y-102627880D01*
X192853714Y-102627880D01*
X193710857Y-102961214D02*
X193710857Y-103627880D01*
X193472761Y-102580261D02*
X193234666Y-103294547D01*
X193853714Y-103294547D01*
X191877523Y-134077880D02*
X191877523Y-133077880D01*
X192258476Y-133077880D01*
X192353714Y-133125500D01*
X192401333Y-133173119D01*
X192448952Y-133268357D01*
X192448952Y-133411214D01*
X192401333Y-133506452D01*
X192353714Y-133554071D01*
X192258476Y-133601690D01*
X191877523Y-133601690D01*
X192877523Y-133554071D02*
X193210857Y-133554071D01*
X193353714Y-134077880D02*
X192877523Y-134077880D01*
X192877523Y-133077880D01*
X193353714Y-133077880D01*
X193829904Y-134077880D02*
X194020380Y-134077880D01*
X194115619Y-134030261D01*
X194163238Y-133982642D01*
X194258476Y-133839785D01*
X194306095Y-133649309D01*
X194306095Y-133268357D01*
X194258476Y-133173119D01*
X194210857Y-133125500D01*
X194115619Y-133077880D01*
X193925142Y-133077880D01*
X193829904Y-133125500D01*
X193782285Y-133173119D01*
X193734666Y-133268357D01*
X193734666Y-133506452D01*
X193782285Y-133601690D01*
X193829904Y-133649309D01*
X193925142Y-133696928D01*
X194115619Y-133696928D01*
X194210857Y-133649309D01*
X194258476Y-133601690D01*
X194306095Y-133506452D01*
X138953714Y-139570880D02*
X138953714Y-138570880D01*
X139334666Y-138570880D01*
X139429904Y-138618500D01*
X139477523Y-138666119D01*
X139525142Y-138761357D01*
X139525142Y-138904214D01*
X139477523Y-138999452D01*
X139429904Y-139047071D01*
X139334666Y-139094690D01*
X138953714Y-139094690D01*
X139953714Y-139570880D02*
X139953714Y-138570880D01*
X140191809Y-138570880D01*
X140334666Y-138618500D01*
X140429904Y-138713738D01*
X140477523Y-138808976D01*
X140525142Y-138999452D01*
X140525142Y-139142309D01*
X140477523Y-139332785D01*
X140429904Y-139428023D01*
X140334666Y-139523261D01*
X140191809Y-139570880D01*
X139953714Y-139570880D01*
X141477523Y-139570880D02*
X140906095Y-139570880D01*
X141191809Y-139570880D02*
X141191809Y-138570880D01*
X141096571Y-138713738D01*
X141001333Y-138808976D01*
X140906095Y-138856595D01*
X141810857Y-138570880D02*
X142429904Y-138570880D01*
X142096571Y-138951833D01*
X142239428Y-138951833D01*
X142334666Y-138999452D01*
X142382285Y-139047071D01*
X142429904Y-139142309D01*
X142429904Y-139380404D01*
X142382285Y-139475642D01*
X142334666Y-139523261D01*
X142239428Y-139570880D01*
X141953714Y-139570880D01*
X141858476Y-139523261D01*
X141810857Y-139475642D01*
X142869904Y-87640880D02*
X143488952Y-87640880D01*
X143155619Y-88021833D01*
X143298476Y-88021833D01*
X143393714Y-88069452D01*
X143441333Y-88117071D01*
X143488952Y-88212309D01*
X143488952Y-88450404D01*
X143441333Y-88545642D01*
X143393714Y-88593261D01*
X143298476Y-88640880D01*
X143012761Y-88640880D01*
X142917523Y-88593261D01*
X142869904Y-88545642D01*
X143774666Y-87640880D02*
X144108000Y-88640880D01*
X144441333Y-87640880D01*
X144679428Y-87640880D02*
X145298476Y-87640880D01*
X144965142Y-88021833D01*
X145108000Y-88021833D01*
X145203238Y-88069452D01*
X145250857Y-88117071D01*
X145298476Y-88212309D01*
X145298476Y-88450404D01*
X145250857Y-88545642D01*
X145203238Y-88593261D01*
X145108000Y-88640880D01*
X144822285Y-88640880D01*
X144727047Y-88593261D01*
X144679428Y-88545642D01*
X187451333Y-116207880D02*
X187451333Y-115207880D01*
X187832285Y-115207880D01*
X187927523Y-115255500D01*
X187975142Y-115303119D01*
X188022761Y-115398357D01*
X188022761Y-115541214D01*
X187975142Y-115636452D01*
X187927523Y-115684071D01*
X187832285Y-115731690D01*
X187451333Y-115731690D01*
X188403714Y-115922166D02*
X188879904Y-115922166D01*
X188308476Y-116207880D02*
X188641809Y-115207880D01*
X188975142Y-116207880D01*
X189832285Y-116207880D02*
X189260857Y-116207880D01*
X189546571Y-116207880D02*
X189546571Y-115207880D01*
X189451333Y-115350738D01*
X189356095Y-115445976D01*
X189260857Y-115493595D01*
X138565142Y-126830880D02*
X138565142Y-125830880D01*
X138946095Y-125830880D01*
X139041333Y-125878500D01*
X139088952Y-125926119D01*
X139136571Y-126021357D01*
X139136571Y-126164214D01*
X139088952Y-126259452D01*
X139041333Y-126307071D01*
X138946095Y-126354690D01*
X138565142Y-126354690D01*
X139517523Y-126545166D02*
X139993714Y-126545166D01*
X139422285Y-126830880D02*
X139755619Y-125830880D01*
X140088952Y-126830880D01*
X140946095Y-126830880D02*
X140374666Y-126830880D01*
X140660380Y-126830880D02*
X140660380Y-125830880D01*
X140565142Y-125973738D01*
X140469904Y-126068976D01*
X140374666Y-126116595D01*
X141898476Y-126830880D02*
X141327047Y-126830880D01*
X141612761Y-126830880D02*
X141612761Y-125830880D01*
X141517523Y-125973738D01*
X141422285Y-126068976D01*
X141327047Y-126116595D01*
X187427523Y-131417880D02*
X187427523Y-130417880D01*
X187808476Y-130417880D01*
X187903714Y-130465500D01*
X187951333Y-130513119D01*
X187998952Y-130608357D01*
X187998952Y-130751214D01*
X187951333Y-130846452D01*
X187903714Y-130894071D01*
X187808476Y-130941690D01*
X187427523Y-130941690D01*
X188427523Y-130894071D02*
X188760857Y-130894071D01*
X188903714Y-131417880D02*
X188427523Y-131417880D01*
X188427523Y-130417880D01*
X188903714Y-130417880D01*
X189475142Y-130846452D02*
X189379904Y-130798833D01*
X189332285Y-130751214D01*
X189284666Y-130655976D01*
X189284666Y-130608357D01*
X189332285Y-130513119D01*
X189379904Y-130465500D01*
X189475142Y-130417880D01*
X189665619Y-130417880D01*
X189760857Y-130465500D01*
X189808476Y-130513119D01*
X189856095Y-130608357D01*
X189856095Y-130655976D01*
X189808476Y-130751214D01*
X189760857Y-130798833D01*
X189665619Y-130846452D01*
X189475142Y-130846452D01*
X189379904Y-130894071D01*
X189332285Y-130941690D01*
X189284666Y-131036928D01*
X189284666Y-131227404D01*
X189332285Y-131322642D01*
X189379904Y-131370261D01*
X189475142Y-131417880D01*
X189665619Y-131417880D01*
X189760857Y-131370261D01*
X189808476Y-131322642D01*
X189856095Y-131227404D01*
X189856095Y-131036928D01*
X189808476Y-130941690D01*
X189760857Y-130894071D01*
X189665619Y-130846452D01*
X187013714Y-144067880D02*
X187013714Y-143067880D01*
X187394666Y-143067880D01*
X187489904Y-143115500D01*
X187537523Y-143163119D01*
X187585142Y-143258357D01*
X187585142Y-143401214D01*
X187537523Y-143496452D01*
X187489904Y-143544071D01*
X187394666Y-143591690D01*
X187013714Y-143591690D01*
X188347047Y-143544071D02*
X188489904Y-143591690D01*
X188537523Y-143639309D01*
X188585142Y-143734547D01*
X188585142Y-143877404D01*
X188537523Y-143972642D01*
X188489904Y-144020261D01*
X188394666Y-144067880D01*
X188013714Y-144067880D01*
X188013714Y-143067880D01*
X188347047Y-143067880D01*
X188442285Y-143115500D01*
X188489904Y-143163119D01*
X188537523Y-143258357D01*
X188537523Y-143353595D01*
X188489904Y-143448833D01*
X188442285Y-143496452D01*
X188347047Y-143544071D01*
X188013714Y-143544071D01*
X189537523Y-144067880D02*
X188966095Y-144067880D01*
X189251809Y-144067880D02*
X189251809Y-143067880D01*
X189156571Y-143210738D01*
X189061333Y-143305976D01*
X188966095Y-143353595D01*
X189918476Y-143163119D02*
X189966095Y-143115500D01*
X190061333Y-143067880D01*
X190299428Y-143067880D01*
X190394666Y-143115500D01*
X190442285Y-143163119D01*
X190489904Y-143258357D01*
X190489904Y-143353595D01*
X190442285Y-143496452D01*
X189870857Y-144067880D01*
X190489904Y-144067880D01*
X139159904Y-114230880D02*
X139159904Y-113230880D01*
X139540857Y-113230880D01*
X139636095Y-113278500D01*
X139683714Y-113326119D01*
X139731333Y-113421357D01*
X139731333Y-113564214D01*
X139683714Y-113659452D01*
X139636095Y-113707071D01*
X139540857Y-113754690D01*
X139159904Y-113754690D01*
X140159904Y-114230880D02*
X140159904Y-113230880D01*
X140398000Y-113230880D01*
X140540857Y-113278500D01*
X140636095Y-113373738D01*
X140683714Y-113468976D01*
X140731333Y-113659452D01*
X140731333Y-113802309D01*
X140683714Y-113992785D01*
X140636095Y-114088023D01*
X140540857Y-114183261D01*
X140398000Y-114230880D01*
X140159904Y-114230880D01*
X141588476Y-113564214D02*
X141588476Y-114230880D01*
X141350380Y-113183261D02*
X141112285Y-113897547D01*
X141731333Y-113897547D01*
X143207523Y-101520880D02*
X143207523Y-100520880D01*
X143588476Y-100520880D01*
X143683714Y-100568500D01*
X143731333Y-100616119D01*
X143778952Y-100711357D01*
X143778952Y-100854214D01*
X143731333Y-100949452D01*
X143683714Y-100997071D01*
X143588476Y-101044690D01*
X143207523Y-101044690D01*
X144207523Y-100997071D02*
X144540857Y-100997071D01*
X144683714Y-101520880D02*
X144207523Y-101520880D01*
X144207523Y-100520880D01*
X144683714Y-100520880D01*
X145636095Y-101520880D02*
X145064666Y-101520880D01*
X145350380Y-101520880D02*
X145350380Y-100520880D01*
X145255142Y-100663738D01*
X145159904Y-100758976D01*
X145064666Y-100806595D01*
X139061333Y-129370880D02*
X139061333Y-128370880D01*
X139442285Y-128370880D01*
X139537523Y-128418500D01*
X139585142Y-128466119D01*
X139632761Y-128561357D01*
X139632761Y-128704214D01*
X139585142Y-128799452D01*
X139537523Y-128847071D01*
X139442285Y-128894690D01*
X139061333Y-128894690D01*
X140013714Y-129085166D02*
X140489904Y-129085166D01*
X139918476Y-129370880D02*
X140251809Y-128370880D01*
X140585142Y-129370880D01*
X140966095Y-129370880D02*
X141156571Y-129370880D01*
X141251809Y-129323261D01*
X141299428Y-129275642D01*
X141394666Y-129132785D01*
X141442285Y-128942309D01*
X141442285Y-128561357D01*
X141394666Y-128466119D01*
X141347047Y-128418500D01*
X141251809Y-128370880D01*
X141061333Y-128370880D01*
X140966095Y-128418500D01*
X140918476Y-128466119D01*
X140870857Y-128561357D01*
X140870857Y-128799452D01*
X140918476Y-128894690D01*
X140966095Y-128942309D01*
X141061333Y-128989928D01*
X141251809Y-128989928D01*
X141347047Y-128942309D01*
X141394666Y-128894690D01*
X141442285Y-128799452D01*
X139119904Y-109030880D02*
X139119904Y-108030880D01*
X139500857Y-108030880D01*
X139596095Y-108078500D01*
X139643714Y-108126119D01*
X139691333Y-108221357D01*
X139691333Y-108364214D01*
X139643714Y-108459452D01*
X139596095Y-108507071D01*
X139500857Y-108554690D01*
X139119904Y-108554690D01*
X140453238Y-108507071D02*
X140596095Y-108554690D01*
X140643714Y-108602309D01*
X140691333Y-108697547D01*
X140691333Y-108840404D01*
X140643714Y-108935642D01*
X140596095Y-108983261D01*
X140500857Y-109030880D01*
X140119904Y-109030880D01*
X140119904Y-108030880D01*
X140453238Y-108030880D01*
X140548476Y-108078500D01*
X140596095Y-108126119D01*
X140643714Y-108221357D01*
X140643714Y-108316595D01*
X140596095Y-108411833D01*
X140548476Y-108459452D01*
X140453238Y-108507071D01*
X140119904Y-108507071D01*
X141024666Y-108030880D02*
X141643714Y-108030880D01*
X141310380Y-108411833D01*
X141453238Y-108411833D01*
X141548476Y-108459452D01*
X141596095Y-108507071D01*
X141643714Y-108602309D01*
X141643714Y-108840404D01*
X141596095Y-108935642D01*
X141548476Y-108983261D01*
X141453238Y-109030880D01*
X141167523Y-109030880D01*
X141072285Y-108983261D01*
X141024666Y-108935642D01*
X191301333Y-139057880D02*
X191301333Y-138057880D01*
X191682285Y-138057880D01*
X191777523Y-138105500D01*
X191825142Y-138153119D01*
X191872761Y-138248357D01*
X191872761Y-138391214D01*
X191825142Y-138486452D01*
X191777523Y-138534071D01*
X191682285Y-138581690D01*
X191301333Y-138581690D01*
X192301333Y-138534071D02*
X192634666Y-138534071D01*
X192777523Y-139057880D02*
X192301333Y-139057880D01*
X192301333Y-138057880D01*
X192777523Y-138057880D01*
X193729904Y-139057880D02*
X193158476Y-139057880D01*
X193444190Y-139057880D02*
X193444190Y-138057880D01*
X193348952Y-138200738D01*
X193253714Y-138295976D01*
X193158476Y-138343595D01*
X194063238Y-138057880D02*
X194682285Y-138057880D01*
X194348952Y-138438833D01*
X194491809Y-138438833D01*
X194587047Y-138486452D01*
X194634666Y-138534071D01*
X194682285Y-138629309D01*
X194682285Y-138867404D01*
X194634666Y-138962642D01*
X194587047Y-139010261D01*
X194491809Y-139057880D01*
X194206095Y-139057880D01*
X194110857Y-139010261D01*
X194063238Y-138962642D01*
X165100904Y-93780880D02*
X165672333Y-93780880D01*
X165386619Y-94780880D02*
X165386619Y-93780880D01*
X165910428Y-93780880D02*
X166577095Y-94780880D01*
X166577095Y-93780880D02*
X165910428Y-94780880D01*
X167481857Y-94780880D02*
X166910428Y-94780880D01*
X167196142Y-94780880D02*
X167196142Y-93780880D01*
X167100904Y-93923738D01*
X167005666Y-94018976D01*
X166910428Y-94066595D01*
X143209904Y-114410880D02*
X143209904Y-113410880D01*
X143590857Y-113410880D01*
X143686095Y-113458500D01*
X143733714Y-113506119D01*
X143781333Y-113601357D01*
X143781333Y-113744214D01*
X143733714Y-113839452D01*
X143686095Y-113887071D01*
X143590857Y-113934690D01*
X143209904Y-113934690D01*
X144209904Y-114410880D02*
X144209904Y-113410880D01*
X144448000Y-113410880D01*
X144590857Y-113458500D01*
X144686095Y-113553738D01*
X144733714Y-113648976D01*
X144781333Y-113839452D01*
X144781333Y-113982309D01*
X144733714Y-114172785D01*
X144686095Y-114268023D01*
X144590857Y-114363261D01*
X144448000Y-114410880D01*
X144209904Y-114410880D01*
X145686095Y-113410880D02*
X145209904Y-113410880D01*
X145162285Y-113887071D01*
X145209904Y-113839452D01*
X145305142Y-113791833D01*
X145543238Y-113791833D01*
X145638476Y-113839452D01*
X145686095Y-113887071D01*
X145733714Y-113982309D01*
X145733714Y-114220404D01*
X145686095Y-114315642D01*
X145638476Y-114363261D01*
X145543238Y-114410880D01*
X145305142Y-114410880D01*
X145209904Y-114363261D01*
X145162285Y-114315642D01*
X139109904Y-111700880D02*
X139109904Y-110700880D01*
X139490857Y-110700880D01*
X139586095Y-110748500D01*
X139633714Y-110796119D01*
X139681333Y-110891357D01*
X139681333Y-111034214D01*
X139633714Y-111129452D01*
X139586095Y-111177071D01*
X139490857Y-111224690D01*
X139109904Y-111224690D01*
X140109904Y-111700880D02*
X140109904Y-110700880D01*
X140348000Y-110700880D01*
X140490857Y-110748500D01*
X140586095Y-110843738D01*
X140633714Y-110938976D01*
X140681333Y-111129452D01*
X140681333Y-111272309D01*
X140633714Y-111462785D01*
X140586095Y-111558023D01*
X140490857Y-111653261D01*
X140348000Y-111700880D01*
X140109904Y-111700880D01*
X141538476Y-110700880D02*
X141348000Y-110700880D01*
X141252761Y-110748500D01*
X141205142Y-110796119D01*
X141109904Y-110938976D01*
X141062285Y-111129452D01*
X141062285Y-111510404D01*
X141109904Y-111605642D01*
X141157523Y-111653261D01*
X141252761Y-111700880D01*
X141443238Y-111700880D01*
X141538476Y-111653261D01*
X141586095Y-111605642D01*
X141633714Y-111510404D01*
X141633714Y-111272309D01*
X141586095Y-111177071D01*
X141538476Y-111129452D01*
X141443238Y-111081833D01*
X141252761Y-111081833D01*
X141157523Y-111129452D01*
X141109904Y-111177071D01*
X141062285Y-111272309D01*
X187193714Y-141637880D02*
X187193714Y-140637880D01*
X187574666Y-140637880D01*
X187669904Y-140685500D01*
X187717523Y-140733119D01*
X187765142Y-140828357D01*
X187765142Y-140971214D01*
X187717523Y-141066452D01*
X187669904Y-141114071D01*
X187574666Y-141161690D01*
X187193714Y-141161690D01*
X188527047Y-141114071D02*
X188669904Y-141161690D01*
X188717523Y-141209309D01*
X188765142Y-141304547D01*
X188765142Y-141447404D01*
X188717523Y-141542642D01*
X188669904Y-141590261D01*
X188574666Y-141637880D01*
X188193714Y-141637880D01*
X188193714Y-140637880D01*
X188527047Y-140637880D01*
X188622285Y-140685500D01*
X188669904Y-140733119D01*
X188717523Y-140828357D01*
X188717523Y-140923595D01*
X188669904Y-141018833D01*
X188622285Y-141066452D01*
X188527047Y-141114071D01*
X188193714Y-141114071D01*
X189717523Y-141637880D02*
X189146095Y-141637880D01*
X189431809Y-141637880D02*
X189431809Y-140637880D01*
X189336571Y-140780738D01*
X189241333Y-140875976D01*
X189146095Y-140923595D01*
X190336571Y-140637880D02*
X190431809Y-140637880D01*
X190527047Y-140685500D01*
X190574666Y-140733119D01*
X190622285Y-140828357D01*
X190669904Y-141018833D01*
X190669904Y-141256928D01*
X190622285Y-141447404D01*
X190574666Y-141542642D01*
X190527047Y-141590261D01*
X190431809Y-141637880D01*
X190336571Y-141637880D01*
X190241333Y-141590261D01*
X190193714Y-141542642D01*
X190146095Y-141447404D01*
X190098476Y-141256928D01*
X190098476Y-141018833D01*
X190146095Y-140828357D01*
X190193714Y-140733119D01*
X190241333Y-140685500D01*
X190336571Y-140637880D01*
X191279904Y-92507880D02*
X191898952Y-92507880D01*
X191565619Y-92888833D01*
X191708476Y-92888833D01*
X191803714Y-92936452D01*
X191851333Y-92984071D01*
X191898952Y-93079309D01*
X191898952Y-93317404D01*
X191851333Y-93412642D01*
X191803714Y-93460261D01*
X191708476Y-93507880D01*
X191422761Y-93507880D01*
X191327523Y-93460261D01*
X191279904Y-93412642D01*
X192184666Y-92507880D02*
X192518000Y-93507880D01*
X192851333Y-92507880D01*
X193089428Y-92507880D02*
X193708476Y-92507880D01*
X193375142Y-92888833D01*
X193518000Y-92888833D01*
X193613238Y-92936452D01*
X193660857Y-92984071D01*
X193708476Y-93079309D01*
X193708476Y-93317404D01*
X193660857Y-93412642D01*
X193613238Y-93460261D01*
X193518000Y-93507880D01*
X193232285Y-93507880D01*
X193137047Y-93460261D01*
X193089428Y-93412642D01*
X139073714Y-121970880D02*
X139073714Y-120970880D01*
X139454666Y-120970880D01*
X139549904Y-121018500D01*
X139597523Y-121066119D01*
X139645142Y-121161357D01*
X139645142Y-121304214D01*
X139597523Y-121399452D01*
X139549904Y-121447071D01*
X139454666Y-121494690D01*
X139073714Y-121494690D01*
X140645142Y-121875642D02*
X140597523Y-121923261D01*
X140454666Y-121970880D01*
X140359428Y-121970880D01*
X140216571Y-121923261D01*
X140121333Y-121828023D01*
X140073714Y-121732785D01*
X140026095Y-121542309D01*
X140026095Y-121399452D01*
X140073714Y-121208976D01*
X140121333Y-121113738D01*
X140216571Y-121018500D01*
X140359428Y-120970880D01*
X140454666Y-120970880D01*
X140597523Y-121018500D01*
X140645142Y-121066119D01*
X141597523Y-121970880D02*
X141026095Y-121970880D01*
X141311809Y-121970880D02*
X141311809Y-120970880D01*
X141216571Y-121113738D01*
X141121333Y-121208976D01*
X141026095Y-121256595D01*
X142549904Y-121970880D02*
X141978476Y-121970880D01*
X142264190Y-121970880D02*
X142264190Y-120970880D01*
X142168952Y-121113738D01*
X142073714Y-121208976D01*
X141978476Y-121256595D01*
X187155619Y-112587880D02*
X187488952Y-113587880D01*
X187822285Y-112587880D01*
X188727047Y-113587880D02*
X188393714Y-113111690D01*
X188155619Y-113587880D02*
X188155619Y-112587880D01*
X188536571Y-112587880D01*
X188631809Y-112635500D01*
X188679428Y-112683119D01*
X188727047Y-112778357D01*
X188727047Y-112921214D01*
X188679428Y-113016452D01*
X188631809Y-113064071D01*
X188536571Y-113111690D01*
X188155619Y-113111690D01*
X189155619Y-113206928D02*
X189917523Y-113206928D01*
X189536571Y-113587880D02*
X189536571Y-112825976D01*
X142615142Y-127010880D02*
X142615142Y-126010880D01*
X142996095Y-126010880D01*
X143091333Y-126058500D01*
X143138952Y-126106119D01*
X143186571Y-126201357D01*
X143186571Y-126344214D01*
X143138952Y-126439452D01*
X143091333Y-126487071D01*
X142996095Y-126534690D01*
X142615142Y-126534690D01*
X143567523Y-126725166D02*
X144043714Y-126725166D01*
X143472285Y-127010880D02*
X143805619Y-126010880D01*
X144138952Y-127010880D01*
X144996095Y-127010880D02*
X144424666Y-127010880D01*
X144710380Y-127010880D02*
X144710380Y-126010880D01*
X144615142Y-126153738D01*
X144519904Y-126248976D01*
X144424666Y-126296595D01*
X145377047Y-126106119D02*
X145424666Y-126058500D01*
X145519904Y-126010880D01*
X145758000Y-126010880D01*
X145853238Y-126058500D01*
X145900857Y-126106119D01*
X145948476Y-126201357D01*
X145948476Y-126296595D01*
X145900857Y-126439452D01*
X145329428Y-127010880D01*
X145948476Y-127010880D01*
X187291333Y-134077880D02*
X187291333Y-133077880D01*
X187672285Y-133077880D01*
X187767523Y-133125500D01*
X187815142Y-133173119D01*
X187862761Y-133268357D01*
X187862761Y-133411214D01*
X187815142Y-133506452D01*
X187767523Y-133554071D01*
X187672285Y-133601690D01*
X187291333Y-133601690D01*
X188291333Y-133554071D02*
X188624666Y-133554071D01*
X188767523Y-134077880D02*
X188291333Y-134077880D01*
X188291333Y-133077880D01*
X188767523Y-133077880D01*
X189719904Y-134077880D02*
X189148476Y-134077880D01*
X189434190Y-134077880D02*
X189434190Y-133077880D01*
X189338952Y-133220738D01*
X189243714Y-133315976D01*
X189148476Y-133363595D01*
X190338952Y-133077880D02*
X190434190Y-133077880D01*
X190529428Y-133125500D01*
X190577047Y-133173119D01*
X190624666Y-133268357D01*
X190672285Y-133458833D01*
X190672285Y-133696928D01*
X190624666Y-133887404D01*
X190577047Y-133982642D01*
X190529428Y-134030261D01*
X190434190Y-134077880D01*
X190338952Y-134077880D01*
X190243714Y-134030261D01*
X190196095Y-133982642D01*
X190148476Y-133887404D01*
X190100857Y-133696928D01*
X190100857Y-133458833D01*
X190148476Y-133268357D01*
X190196095Y-133173119D01*
X190243714Y-133125500D01*
X190338952Y-133077880D01*
X191391333Y-116237880D02*
X191391333Y-115237880D01*
X191772285Y-115237880D01*
X191867523Y-115285500D01*
X191915142Y-115333119D01*
X191962761Y-115428357D01*
X191962761Y-115571214D01*
X191915142Y-115666452D01*
X191867523Y-115714071D01*
X191772285Y-115761690D01*
X191391333Y-115761690D01*
X192343714Y-115952166D02*
X192819904Y-115952166D01*
X192248476Y-116237880D02*
X192581809Y-115237880D01*
X192915142Y-116237880D01*
X193438952Y-115237880D02*
X193534190Y-115237880D01*
X193629428Y-115285500D01*
X193677047Y-115333119D01*
X193724666Y-115428357D01*
X193772285Y-115618833D01*
X193772285Y-115856928D01*
X193724666Y-116047404D01*
X193677047Y-116142642D01*
X193629428Y-116190261D01*
X193534190Y-116237880D01*
X193438952Y-116237880D01*
X193343714Y-116190261D01*
X193296095Y-116142642D01*
X193248476Y-116047404D01*
X193200857Y-115856928D01*
X193200857Y-115618833D01*
X193248476Y-115428357D01*
X193296095Y-115333119D01*
X193343714Y-115285500D01*
X193438952Y-115237880D01*
X191441333Y-123957880D02*
X191441333Y-122957880D01*
X191822285Y-122957880D01*
X191917523Y-123005500D01*
X191965142Y-123053119D01*
X192012761Y-123148357D01*
X192012761Y-123291214D01*
X191965142Y-123386452D01*
X191917523Y-123434071D01*
X191822285Y-123481690D01*
X191441333Y-123481690D01*
X192393714Y-123672166D02*
X192869904Y-123672166D01*
X192298476Y-123957880D02*
X192631809Y-122957880D01*
X192965142Y-123957880D01*
X193727047Y-122957880D02*
X193536571Y-122957880D01*
X193441333Y-123005500D01*
X193393714Y-123053119D01*
X193298476Y-123195976D01*
X193250857Y-123386452D01*
X193250857Y-123767404D01*
X193298476Y-123862642D01*
X193346095Y-123910261D01*
X193441333Y-123957880D01*
X193631809Y-123957880D01*
X193727047Y-123910261D01*
X193774666Y-123862642D01*
X193822285Y-123767404D01*
X193822285Y-123529309D01*
X193774666Y-123434071D01*
X193727047Y-123386452D01*
X193631809Y-123338833D01*
X193441333Y-123338833D01*
X193346095Y-123386452D01*
X193298476Y-123434071D01*
X193250857Y-123529309D01*
X187191333Y-139057880D02*
X187191333Y-138057880D01*
X187572285Y-138057880D01*
X187667523Y-138105500D01*
X187715142Y-138153119D01*
X187762761Y-138248357D01*
X187762761Y-138391214D01*
X187715142Y-138486452D01*
X187667523Y-138534071D01*
X187572285Y-138581690D01*
X187191333Y-138581690D01*
X188191333Y-138534071D02*
X188524666Y-138534071D01*
X188667523Y-139057880D02*
X188191333Y-139057880D01*
X188191333Y-138057880D01*
X188667523Y-138057880D01*
X189619904Y-139057880D02*
X189048476Y-139057880D01*
X189334190Y-139057880D02*
X189334190Y-138057880D01*
X189238952Y-138200738D01*
X189143714Y-138295976D01*
X189048476Y-138343595D01*
X190477047Y-138391214D02*
X190477047Y-139057880D01*
X190238952Y-138010261D02*
X190000857Y-138724547D01*
X190619904Y-138724547D01*
X139019904Y-90010880D02*
X139638952Y-90010880D01*
X139305619Y-90391833D01*
X139448476Y-90391833D01*
X139543714Y-90439452D01*
X139591333Y-90487071D01*
X139638952Y-90582309D01*
X139638952Y-90820404D01*
X139591333Y-90915642D01*
X139543714Y-90963261D01*
X139448476Y-91010880D01*
X139162761Y-91010880D01*
X139067523Y-90963261D01*
X139019904Y-90915642D01*
X139924666Y-90010880D02*
X140258000Y-91010880D01*
X140591333Y-90010880D01*
X140829428Y-90010880D02*
X141448476Y-90010880D01*
X141115142Y-90391833D01*
X141258000Y-90391833D01*
X141353238Y-90439452D01*
X141400857Y-90487071D01*
X141448476Y-90582309D01*
X141448476Y-90820404D01*
X141400857Y-90915642D01*
X141353238Y-90963261D01*
X141258000Y-91010880D01*
X140972285Y-91010880D01*
X140877047Y-90963261D01*
X140829428Y-90915642D01*
X143083714Y-142150880D02*
X143083714Y-141150880D01*
X143464666Y-141150880D01*
X143559904Y-141198500D01*
X143607523Y-141246119D01*
X143655142Y-141341357D01*
X143655142Y-141484214D01*
X143607523Y-141579452D01*
X143559904Y-141627071D01*
X143464666Y-141674690D01*
X143083714Y-141674690D01*
X144083714Y-142150880D02*
X144083714Y-141150880D01*
X144321809Y-141150880D01*
X144464666Y-141198500D01*
X144559904Y-141293738D01*
X144607523Y-141388976D01*
X144655142Y-141579452D01*
X144655142Y-141722309D01*
X144607523Y-141912785D01*
X144559904Y-142008023D01*
X144464666Y-142103261D01*
X144321809Y-142150880D01*
X144083714Y-142150880D01*
X145607523Y-142150880D02*
X145036095Y-142150880D01*
X145321809Y-142150880D02*
X145321809Y-141150880D01*
X145226571Y-141293738D01*
X145131333Y-141388976D01*
X145036095Y-141436595D01*
X145988476Y-141246119D02*
X146036095Y-141198500D01*
X146131333Y-141150880D01*
X146369428Y-141150880D01*
X146464666Y-141198500D01*
X146512285Y-141246119D01*
X146559904Y-141341357D01*
X146559904Y-141436595D01*
X146512285Y-141579452D01*
X145940857Y-142150880D01*
X146559904Y-142150880D01*
X138815142Y-124390880D02*
X138815142Y-123390880D01*
X139196095Y-123390880D01*
X139291333Y-123438500D01*
X139338952Y-123486119D01*
X139386571Y-123581357D01*
X139386571Y-123724214D01*
X139338952Y-123819452D01*
X139291333Y-123867071D01*
X139196095Y-123914690D01*
X138815142Y-123914690D01*
X139767523Y-124105166D02*
X140243714Y-124105166D01*
X139672285Y-124390880D02*
X140005619Y-123390880D01*
X140338952Y-124390880D01*
X141196095Y-124390880D02*
X140624666Y-124390880D01*
X140910380Y-124390880D02*
X140910380Y-123390880D01*
X140815142Y-123533738D01*
X140719904Y-123628976D01*
X140624666Y-123676595D01*
X142100857Y-123390880D02*
X141624666Y-123390880D01*
X141577047Y-123867071D01*
X141624666Y-123819452D01*
X141719904Y-123771833D01*
X141958000Y-123771833D01*
X142053238Y-123819452D01*
X142100857Y-123867071D01*
X142148476Y-123962309D01*
X142148476Y-124200404D01*
X142100857Y-124295642D01*
X142053238Y-124343261D01*
X141958000Y-124390880D01*
X141719904Y-124390880D01*
X141624666Y-124343261D01*
X141577047Y-124295642D01*
X187401333Y-118767880D02*
X187401333Y-117767880D01*
X187782285Y-117767880D01*
X187877523Y-117815500D01*
X187925142Y-117863119D01*
X187972761Y-117958357D01*
X187972761Y-118101214D01*
X187925142Y-118196452D01*
X187877523Y-118244071D01*
X187782285Y-118291690D01*
X187401333Y-118291690D01*
X188353714Y-118482166D02*
X188829904Y-118482166D01*
X188258476Y-118767880D02*
X188591809Y-117767880D01*
X188925142Y-118767880D01*
X189163238Y-117767880D02*
X189782285Y-117767880D01*
X189448952Y-118148833D01*
X189591809Y-118148833D01*
X189687047Y-118196452D01*
X189734666Y-118244071D01*
X189782285Y-118339309D01*
X189782285Y-118577404D01*
X189734666Y-118672642D01*
X189687047Y-118720261D01*
X189591809Y-118767880D01*
X189306095Y-118767880D01*
X189210857Y-118720261D01*
X189163238Y-118672642D01*
X138923714Y-136990880D02*
X138923714Y-135990880D01*
X139304666Y-135990880D01*
X139399904Y-136038500D01*
X139447523Y-136086119D01*
X139495142Y-136181357D01*
X139495142Y-136324214D01*
X139447523Y-136419452D01*
X139399904Y-136467071D01*
X139304666Y-136514690D01*
X138923714Y-136514690D01*
X139923714Y-136990880D02*
X139923714Y-135990880D01*
X140161809Y-135990880D01*
X140304666Y-136038500D01*
X140399904Y-136133738D01*
X140447523Y-136228976D01*
X140495142Y-136419452D01*
X140495142Y-136562309D01*
X140447523Y-136752785D01*
X140399904Y-136848023D01*
X140304666Y-136943261D01*
X140161809Y-136990880D01*
X139923714Y-136990880D01*
X141447523Y-136990880D02*
X140876095Y-136990880D01*
X141161809Y-136990880D02*
X141161809Y-135990880D01*
X141066571Y-136133738D01*
X140971333Y-136228976D01*
X140876095Y-136276595D01*
X142352285Y-135990880D02*
X141876095Y-135990880D01*
X141828476Y-136467071D01*
X141876095Y-136419452D01*
X141971333Y-136371833D01*
X142209428Y-136371833D01*
X142304666Y-136419452D01*
X142352285Y-136467071D01*
X142399904Y-136562309D01*
X142399904Y-136800404D01*
X142352285Y-136895642D01*
X142304666Y-136943261D01*
X142209428Y-136990880D01*
X141971333Y-136990880D01*
X141876095Y-136943261D01*
X141828476Y-136895642D01*
X139422285Y-93277071D02*
X139565142Y-93324690D01*
X139612761Y-93372309D01*
X139660380Y-93467547D01*
X139660380Y-93610404D01*
X139612761Y-93705642D01*
X139565142Y-93753261D01*
X139469904Y-93800880D01*
X139088952Y-93800880D01*
X139088952Y-92800880D01*
X139422285Y-92800880D01*
X139517523Y-92848500D01*
X139565142Y-92896119D01*
X139612761Y-92991357D01*
X139612761Y-93086595D01*
X139565142Y-93181833D01*
X139517523Y-93229452D01*
X139422285Y-93277071D01*
X139088952Y-93277071D01*
X139946095Y-92800880D02*
X140517523Y-92800880D01*
X140231809Y-93800880D02*
X140231809Y-92800880D01*
X141374666Y-93800880D02*
X140803238Y-93800880D01*
X141088952Y-93800880D02*
X141088952Y-92800880D01*
X140993714Y-92943738D01*
X140898476Y-93038976D01*
X140803238Y-93086595D01*
X191255619Y-112657880D02*
X191588952Y-113657880D01*
X191922285Y-112657880D01*
X192827047Y-113657880D02*
X192493714Y-113181690D01*
X192255619Y-113657880D02*
X192255619Y-112657880D01*
X192636571Y-112657880D01*
X192731809Y-112705500D01*
X192779428Y-112753119D01*
X192827047Y-112848357D01*
X192827047Y-112991214D01*
X192779428Y-113086452D01*
X192731809Y-113134071D01*
X192636571Y-113181690D01*
X192255619Y-113181690D01*
X193255619Y-113276928D02*
X194017523Y-113276928D01*
%TO.C,U7*%
X250336204Y-73902519D02*
X250336204Y-73092995D01*
X250288585Y-72997757D01*
X250240966Y-72950138D01*
X250145728Y-72902519D01*
X249955252Y-72902519D01*
X249860014Y-72950138D01*
X249812395Y-72997757D01*
X249764776Y-73092995D01*
X249764776Y-73902519D01*
X249383823Y-73902519D02*
X248717157Y-73902519D01*
X249145728Y-72902519D01*
%TO.C,U9*%
X256500380Y-143719404D02*
X257309904Y-143719404D01*
X257405142Y-143671785D01*
X257452761Y-143624166D01*
X257500380Y-143528928D01*
X257500380Y-143338452D01*
X257452761Y-143243214D01*
X257405142Y-143195595D01*
X257309904Y-143147976D01*
X256500380Y-143147976D01*
X257500380Y-142624166D02*
X257500380Y-142433690D01*
X257452761Y-142338452D01*
X257405142Y-142290833D01*
X257262285Y-142195595D01*
X257071809Y-142147976D01*
X256690857Y-142147976D01*
X256595619Y-142195595D01*
X256548000Y-142243214D01*
X256500380Y-142338452D01*
X256500380Y-142528928D01*
X256548000Y-142624166D01*
X256595619Y-142671785D01*
X256690857Y-142719404D01*
X256928952Y-142719404D01*
X257024190Y-142671785D01*
X257071809Y-142624166D01*
X257119428Y-142528928D01*
X257119428Y-142338452D01*
X257071809Y-142243214D01*
X257024190Y-142195595D01*
X256928952Y-142147976D01*
%TO.C,R17*%
X193672142Y-188959880D02*
X193338809Y-188483690D01*
X193100714Y-188959880D02*
X193100714Y-187959880D01*
X193481666Y-187959880D01*
X193576904Y-188007500D01*
X193624523Y-188055119D01*
X193672142Y-188150357D01*
X193672142Y-188293214D01*
X193624523Y-188388452D01*
X193576904Y-188436071D01*
X193481666Y-188483690D01*
X193100714Y-188483690D01*
X194624523Y-188959880D02*
X194053095Y-188959880D01*
X194338809Y-188959880D02*
X194338809Y-187959880D01*
X194243571Y-188102738D01*
X194148333Y-188197976D01*
X194053095Y-188245595D01*
X194957857Y-187959880D02*
X195624523Y-187959880D01*
X195195952Y-188959880D01*
%TO.C,J7*%
X248586666Y-146683880D02*
X248586666Y-147398166D01*
X248539047Y-147541023D01*
X248443809Y-147636261D01*
X248300952Y-147683880D01*
X248205714Y-147683880D01*
X248967619Y-146683880D02*
X249634285Y-146683880D01*
X249205714Y-147683880D01*
%TO.C,R9*%
X170294380Y-175128166D02*
X169818190Y-175461500D01*
X170294380Y-175699595D02*
X169294380Y-175699595D01*
X169294380Y-175318642D01*
X169342000Y-175223404D01*
X169389619Y-175175785D01*
X169484857Y-175128166D01*
X169627714Y-175128166D01*
X169722952Y-175175785D01*
X169770571Y-175223404D01*
X169818190Y-175318642D01*
X169818190Y-175699595D01*
X170294380Y-174651976D02*
X170294380Y-174461500D01*
X170246761Y-174366261D01*
X170199142Y-174318642D01*
X170056285Y-174223404D01*
X169865809Y-174175785D01*
X169484857Y-174175785D01*
X169389619Y-174223404D01*
X169342000Y-174271023D01*
X169294380Y-174366261D01*
X169294380Y-174556738D01*
X169342000Y-174651976D01*
X169389619Y-174699595D01*
X169484857Y-174747214D01*
X169722952Y-174747214D01*
X169818190Y-174699595D01*
X169865809Y-174651976D01*
X169913428Y-174556738D01*
X169913428Y-174366261D01*
X169865809Y-174271023D01*
X169818190Y-174223404D01*
X169722952Y-174175785D01*
%TO.C,R1*%
X203822380Y-168524166D02*
X203346190Y-168857500D01*
X203822380Y-169095595D02*
X202822380Y-169095595D01*
X202822380Y-168714642D01*
X202870000Y-168619404D01*
X202917619Y-168571785D01*
X203012857Y-168524166D01*
X203155714Y-168524166D01*
X203250952Y-168571785D01*
X203298571Y-168619404D01*
X203346190Y-168714642D01*
X203346190Y-169095595D01*
X203822380Y-167571785D02*
X203822380Y-168143214D01*
X203822380Y-167857500D02*
X202822380Y-167857500D01*
X202965238Y-167952738D01*
X203060476Y-168047976D01*
X203108095Y-168143214D01*
%TO.C,U2*%
X129794095Y-178985880D02*
X129794095Y-179795404D01*
X129841714Y-179890642D01*
X129889333Y-179938261D01*
X129984571Y-179985880D01*
X130175047Y-179985880D01*
X130270285Y-179938261D01*
X130317904Y-179890642D01*
X130365523Y-179795404D01*
X130365523Y-178985880D01*
X130794095Y-179081119D02*
X130841714Y-179033500D01*
X130936952Y-178985880D01*
X131175047Y-178985880D01*
X131270285Y-179033500D01*
X131317904Y-179081119D01*
X131365523Y-179176357D01*
X131365523Y-179271595D01*
X131317904Y-179414452D01*
X130746476Y-179985880D01*
X131365523Y-179985880D01*
%TO.C,Q2*%
X236263619Y-173532738D02*
X236216000Y-173627976D01*
X236120761Y-173723214D01*
X235977904Y-173866071D01*
X235930285Y-173961309D01*
X235930285Y-174056547D01*
X236168380Y-174008928D02*
X236120761Y-174104166D01*
X236025523Y-174199404D01*
X235835047Y-174247023D01*
X235501714Y-174247023D01*
X235311238Y-174199404D01*
X235216000Y-174104166D01*
X235168380Y-174008928D01*
X235168380Y-173818452D01*
X235216000Y-173723214D01*
X235311238Y-173627976D01*
X235501714Y-173580357D01*
X235835047Y-173580357D01*
X236025523Y-173627976D01*
X236120761Y-173723214D01*
X236168380Y-173818452D01*
X236168380Y-174008928D01*
X235263619Y-173199404D02*
X235216000Y-173151785D01*
X235168380Y-173056547D01*
X235168380Y-172818452D01*
X235216000Y-172723214D01*
X235263619Y-172675595D01*
X235358857Y-172627976D01*
X235454095Y-172627976D01*
X235596952Y-172675595D01*
X236168380Y-173247023D01*
X236168380Y-172627976D01*
%TO.C,R2*%
X247002380Y-188336166D02*
X246526190Y-188669500D01*
X247002380Y-188907595D02*
X246002380Y-188907595D01*
X246002380Y-188526642D01*
X246050000Y-188431404D01*
X246097619Y-188383785D01*
X246192857Y-188336166D01*
X246335714Y-188336166D01*
X246430952Y-188383785D01*
X246478571Y-188431404D01*
X246526190Y-188526642D01*
X246526190Y-188907595D01*
X246097619Y-187955214D02*
X246050000Y-187907595D01*
X246002380Y-187812357D01*
X246002380Y-187574261D01*
X246050000Y-187479023D01*
X246097619Y-187431404D01*
X246192857Y-187383785D01*
X246288095Y-187383785D01*
X246430952Y-187431404D01*
X247002380Y-188002833D01*
X247002380Y-187383785D01*
%TO.C,SW8*%
X101424266Y-133627261D02*
X101567123Y-133674880D01*
X101805219Y-133674880D01*
X101900457Y-133627261D01*
X101948076Y-133579642D01*
X101995695Y-133484404D01*
X101995695Y-133389166D01*
X101948076Y-133293928D01*
X101900457Y-133246309D01*
X101805219Y-133198690D01*
X101614742Y-133151071D01*
X101519504Y-133103452D01*
X101471885Y-133055833D01*
X101424266Y-132960595D01*
X101424266Y-132865357D01*
X101471885Y-132770119D01*
X101519504Y-132722500D01*
X101614742Y-132674880D01*
X101852838Y-132674880D01*
X101995695Y-132722500D01*
X102329028Y-132674880D02*
X102567123Y-133674880D01*
X102757600Y-132960595D01*
X102948076Y-133674880D01*
X103186171Y-132674880D01*
X103709980Y-133103452D02*
X103614742Y-133055833D01*
X103567123Y-133008214D01*
X103519504Y-132912976D01*
X103519504Y-132865357D01*
X103567123Y-132770119D01*
X103614742Y-132722500D01*
X103709980Y-132674880D01*
X103900457Y-132674880D01*
X103995695Y-132722500D01*
X104043314Y-132770119D01*
X104090933Y-132865357D01*
X104090933Y-132912976D01*
X104043314Y-133008214D01*
X103995695Y-133055833D01*
X103900457Y-133103452D01*
X103709980Y-133103452D01*
X103614742Y-133151071D01*
X103567123Y-133198690D01*
X103519504Y-133293928D01*
X103519504Y-133484404D01*
X103567123Y-133579642D01*
X103614742Y-133627261D01*
X103709980Y-133674880D01*
X103900457Y-133674880D01*
X103995695Y-133627261D01*
X104043314Y-133579642D01*
X104090933Y-133484404D01*
X104090933Y-133293928D01*
X104043314Y-133198690D01*
X103995695Y-133151071D01*
X103900457Y-133103452D01*
%TO.C,J3*%
X95170666Y-101051880D02*
X95170666Y-101766166D01*
X95123047Y-101909023D01*
X95027809Y-102004261D01*
X94884952Y-102051880D01*
X94789714Y-102051880D01*
X95551619Y-101051880D02*
X96170666Y-101051880D01*
X95837333Y-101432833D01*
X95980190Y-101432833D01*
X96075428Y-101480452D01*
X96123047Y-101528071D01*
X96170666Y-101623309D01*
X96170666Y-101861404D01*
X96123047Y-101956642D01*
X96075428Y-102004261D01*
X95980190Y-102051880D01*
X95694476Y-102051880D01*
X95599238Y-102004261D01*
X95551619Y-101956642D01*
%TO.C,J2*%
X95170666Y-68959880D02*
X95170666Y-69674166D01*
X95123047Y-69817023D01*
X95027809Y-69912261D01*
X94884952Y-69959880D01*
X94789714Y-69959880D01*
X95599238Y-69055119D02*
X95646857Y-69007500D01*
X95742095Y-68959880D01*
X95980190Y-68959880D01*
X96075428Y-69007500D01*
X96123047Y-69055119D01*
X96170666Y-69150357D01*
X96170666Y-69245595D01*
X96123047Y-69388452D01*
X95551619Y-69959880D01*
X96170666Y-69959880D01*
%TO.C,J6*%
X95170666Y-102741880D02*
X95170666Y-103456166D01*
X95123047Y-103599023D01*
X95027809Y-103694261D01*
X94884952Y-103741880D01*
X94789714Y-103741880D01*
X96075428Y-102741880D02*
X95884952Y-102741880D01*
X95789714Y-102789500D01*
X95742095Y-102837119D01*
X95646857Y-102979976D01*
X95599238Y-103170452D01*
X95599238Y-103551404D01*
X95646857Y-103646642D01*
X95694476Y-103694261D01*
X95789714Y-103741880D01*
X95980190Y-103741880D01*
X96075428Y-103694261D01*
X96123047Y-103646642D01*
X96170666Y-103551404D01*
X96170666Y-103313309D01*
X96123047Y-103218071D01*
X96075428Y-103170452D01*
X95980190Y-103122833D01*
X95789714Y-103122833D01*
X95694476Y-103170452D01*
X95646857Y-103218071D01*
X95599238Y-103313309D01*
%TO.C,SW5*%
X101496761Y-94043333D02*
X101544380Y-93900476D01*
X101544380Y-93662380D01*
X101496761Y-93567142D01*
X101449142Y-93519523D01*
X101353904Y-93471904D01*
X101258666Y-93471904D01*
X101163428Y-93519523D01*
X101115809Y-93567142D01*
X101068190Y-93662380D01*
X101020571Y-93852857D01*
X100972952Y-93948095D01*
X100925333Y-93995714D01*
X100830095Y-94043333D01*
X100734857Y-94043333D01*
X100639619Y-93995714D01*
X100592000Y-93948095D01*
X100544380Y-93852857D01*
X100544380Y-93614761D01*
X100592000Y-93471904D01*
X100544380Y-93138571D02*
X101544380Y-92900476D01*
X100830095Y-92710000D01*
X101544380Y-92519523D01*
X100544380Y-92281428D01*
X100544380Y-91424285D02*
X100544380Y-91900476D01*
X101020571Y-91948095D01*
X100972952Y-91900476D01*
X100925333Y-91805238D01*
X100925333Y-91567142D01*
X100972952Y-91471904D01*
X101020571Y-91424285D01*
X101115809Y-91376666D01*
X101353904Y-91376666D01*
X101449142Y-91424285D01*
X101496761Y-91471904D01*
X101544380Y-91567142D01*
X101544380Y-91805238D01*
X101496761Y-91900476D01*
X101449142Y-91948095D01*
%TO.C,Q4*%
X161448761Y-168401119D02*
X161353523Y-168353500D01*
X161258285Y-168258261D01*
X161115428Y-168115404D01*
X161020190Y-168067785D01*
X160924952Y-168067785D01*
X160972571Y-168305880D02*
X160877333Y-168258261D01*
X160782095Y-168163023D01*
X160734476Y-167972547D01*
X160734476Y-167639214D01*
X160782095Y-167448738D01*
X160877333Y-167353500D01*
X160972571Y-167305880D01*
X161163047Y-167305880D01*
X161258285Y-167353500D01*
X161353523Y-167448738D01*
X161401142Y-167639214D01*
X161401142Y-167972547D01*
X161353523Y-168163023D01*
X161258285Y-168258261D01*
X161163047Y-168305880D01*
X160972571Y-168305880D01*
X162258285Y-167639214D02*
X162258285Y-168305880D01*
X162020190Y-167258261D02*
X161782095Y-167972547D01*
X162401142Y-167972547D01*
%TO.C,R13*%
X203573380Y-204560357D02*
X203097190Y-204893690D01*
X203573380Y-205131785D02*
X202573380Y-205131785D01*
X202573380Y-204750833D01*
X202621000Y-204655595D01*
X202668619Y-204607976D01*
X202763857Y-204560357D01*
X202906714Y-204560357D01*
X203001952Y-204607976D01*
X203049571Y-204655595D01*
X203097190Y-204750833D01*
X203097190Y-205131785D01*
X203573380Y-203607976D02*
X203573380Y-204179404D01*
X203573380Y-203893690D02*
X202573380Y-203893690D01*
X202716238Y-203988928D01*
X202811476Y-204084166D01*
X202859095Y-204179404D01*
X202573380Y-203274642D02*
X202573380Y-202655595D01*
X202954333Y-202988928D01*
X202954333Y-202846071D01*
X203001952Y-202750833D01*
X203049571Y-202703214D01*
X203144809Y-202655595D01*
X203382904Y-202655595D01*
X203478142Y-202703214D01*
X203525761Y-202750833D01*
X203573380Y-202846071D01*
X203573380Y-203131785D01*
X203525761Y-203227023D01*
X203478142Y-203274642D01*
%TO.C,J1*%
X123956380Y-205266833D02*
X124670666Y-205266833D01*
X124813523Y-205314452D01*
X124908761Y-205409690D01*
X124956380Y-205552547D01*
X124956380Y-205647785D01*
X124956380Y-204266833D02*
X124956380Y-204838261D01*
X124956380Y-204552547D02*
X123956380Y-204552547D01*
X124099238Y-204647785D01*
X124194476Y-204743023D01*
X124242095Y-204838261D01*
D11*
%TO.C,R16*%
X191799000Y-181565500D02*
X192569000Y-181565500D01*
X199109000Y-180195500D02*
X192569000Y-180195500D01*
X192569000Y-182935500D02*
X199109000Y-182935500D01*
X199879000Y-181565500D02*
X199109000Y-181565500D01*
X199109000Y-182935500D02*
X199109000Y-180195500D01*
X192569000Y-180195500D02*
X192569000Y-182935500D01*
%TO.C,Q7*%
X196872000Y-171735500D02*
X193272000Y-171735500D01*
X192715600Y-174684307D02*
G75*
G03*
X195072000Y-176185500I2356400J1098807D01*
G01*
X197396184Y-172462705D02*
G75*
G03*
X196872000Y-171735500I-2324184J-1122795D01*
G01*
X193272000Y-171735500D02*
G75*
G03*
X192747816Y-172462705I1800000J-1850000D01*
G01*
X195072000Y-176185500D02*
G75*
G03*
X197428400Y-174684307I0J2600000D01*
G01*
%TO.C,D1*%
X177018000Y-190180500D02*
X177018000Y-193270500D01*
X182568000Y-191725962D02*
G75*
G03*
X177018000Y-190180670I-2990000J462D01*
G01*
X177018000Y-193270330D02*
G75*
G03*
X182568000Y-191725038I2560000J1544830D01*
G01*
X182078000Y-191725500D02*
G75*
G03*
X182078000Y-191725500I-2500000J0D01*
G01*
%TO.C,J5*%
X240478000Y-201960500D02*
X243138000Y-201960500D01*
X240478000Y-184120500D02*
X240478000Y-201960500D01*
X240478000Y-181520500D02*
X241808000Y-181520500D01*
X240478000Y-182850500D02*
X240478000Y-181520500D01*
X240478000Y-184120500D02*
X243138000Y-184120500D01*
X243138000Y-184120500D02*
X243138000Y-201960500D01*
%TO.C,U6*%
X220478600Y-159715400D02*
X207473800Y-159715400D01*
X207473800Y-159715400D02*
X207473800Y-142545000D01*
X207473800Y-142545000D02*
X220478600Y-142545000D01*
X220478600Y-142545000D02*
X220478600Y-159715400D01*
%TO.C,R3*%
X201676000Y-172397500D02*
X201676000Y-171627500D01*
X200306000Y-171627500D02*
X203046000Y-171627500D01*
X200306000Y-165087500D02*
X200306000Y-171627500D01*
X203046000Y-165087500D02*
X200306000Y-165087500D01*
X203046000Y-171627500D02*
X203046000Y-165087500D01*
X201676000Y-164317500D02*
X201676000Y-165087500D01*
%TO.C,R15*%
X205491000Y-186669500D02*
X205491000Y-187439500D01*
X206861000Y-193979500D02*
X206861000Y-187439500D01*
X205491000Y-194749500D02*
X205491000Y-193979500D01*
X204121000Y-193979500D02*
X206861000Y-193979500D01*
X206861000Y-187439500D02*
X204121000Y-187439500D01*
X204121000Y-187439500D02*
X204121000Y-193979500D01*
%TO.C,Q9*%
X189413000Y-193525500D02*
X189413000Y-189925500D01*
X186464193Y-189369100D02*
G75*
G03*
X184963000Y-191725500I1098807J-2356400D01*
G01*
X189413000Y-189925500D02*
G75*
G03*
X188685795Y-189401316I-1850000J-1800000D01*
G01*
X188685795Y-194049684D02*
G75*
G03*
X189413000Y-193525500I-1122795J2324184D01*
G01*
X184963000Y-191725500D02*
G75*
G03*
X186464193Y-194081900I2600000J0D01*
G01*
%TO.C,SW7*%
X102072000Y-84031000D02*
X110272000Y-84031000D01*
X110272000Y-84031000D02*
X110272000Y-74831000D01*
X110272000Y-74831000D02*
X102072000Y-74831000D01*
X102072000Y-74831000D02*
X102072000Y-84031000D01*
%TO.C,Q8*%
X189413000Y-201145500D02*
X189413000Y-197545500D01*
X184963000Y-199345500D02*
G75*
G03*
X186464193Y-201701900I2600000J0D01*
G01*
X189413000Y-197545500D02*
G75*
G03*
X188685795Y-197021316I-1850000J-1800000D01*
G01*
X186464193Y-196989100D02*
G75*
G03*
X184963000Y-199345500I1098807J-2356400D01*
G01*
X188685795Y-201669684D02*
G75*
G03*
X189413000Y-201145500I-1122795J2324184D01*
G01*
%TO.C,Q6*%
X188744000Y-162443500D02*
X185144000Y-162443500D01*
X185144000Y-162443500D02*
G75*
G03*
X184619816Y-163170705I1800000J-1850000D01*
G01*
X189268184Y-163170705D02*
G75*
G03*
X188744000Y-162443500I-2324184J-1122795D01*
G01*
X186944000Y-166893500D02*
G75*
G03*
X189300400Y-165392307I0J2600000D01*
G01*
X184587600Y-165392307D02*
G75*
G03*
X186944000Y-166893500I2356400J1098807D01*
G01*
%TO.C,R7*%
X163041000Y-196959500D02*
X156501000Y-196959500D01*
X156501000Y-196959500D02*
X156501000Y-199699500D01*
X163811000Y-198329500D02*
X163041000Y-198329500D01*
X156501000Y-199699500D02*
X163041000Y-199699500D01*
X163041000Y-199699500D02*
X163041000Y-196959500D01*
X155731000Y-198329500D02*
X156501000Y-198329500D01*
%TO.C,Q5*%
X196872000Y-162591500D02*
X193272000Y-162591500D01*
X195072000Y-167041500D02*
G75*
G03*
X197428400Y-165540307I0J2600000D01*
G01*
X192715600Y-165540307D02*
G75*
G03*
X195072000Y-167041500I2356400J1098807D01*
G01*
X197396184Y-163318705D02*
G75*
G03*
X196872000Y-162591500I-2324184J-1122795D01*
G01*
X193272000Y-162591500D02*
G75*
G03*
X192747816Y-163318705I1800000J-1850000D01*
G01*
%TO.C,R14*%
X192767000Y-207981500D02*
X191997000Y-207981500D01*
X185457000Y-209351500D02*
X191997000Y-209351500D01*
X191997000Y-209351500D02*
X191997000Y-206611500D01*
X191997000Y-206611500D02*
X185457000Y-206611500D01*
X184687000Y-207981500D02*
X185457000Y-207981500D01*
X185457000Y-206611500D02*
X185457000Y-209351500D01*
%TO.C,Q1*%
X171980000Y-162443500D02*
X168380000Y-162443500D01*
X168380000Y-162443500D02*
G75*
G03*
X167855816Y-163170705I1800000J-1850000D01*
G01*
X172504184Y-163170705D02*
G75*
G03*
X171980000Y-162443500I-2324184J-1122795D01*
G01*
X170180000Y-166893500D02*
G75*
G03*
X172536400Y-165392307I0J2600000D01*
G01*
X167823600Y-165392307D02*
G75*
G03*
X170180000Y-166893500I2356400J1098807D01*
G01*
%TO.C,D2*%
X169398000Y-190180500D02*
X169398000Y-193270500D01*
X174948000Y-191725962D02*
G75*
G03*
X169398000Y-190180670I-2990000J462D01*
G01*
X169398000Y-193270330D02*
G75*
G03*
X174948000Y-191725038I2560000J1544830D01*
G01*
X174458000Y-191725500D02*
G75*
G03*
X174458000Y-191725500I-2500000J0D01*
G01*
%TO.C,U4*%
X203927300Y-74513600D02*
X203927300Y-91013600D01*
X203927300Y-74513600D02*
X225927300Y-74513600D01*
X225927300Y-91013600D02*
X225927300Y-74584800D01*
X203927300Y-91013600D02*
X225927300Y-91013600D01*
%TO.C,U3*%
X115191300Y-95467800D02*
X129691300Y-95467800D01*
X129691300Y-95467800D02*
X129691300Y-111767800D01*
X129691300Y-111767800D02*
X115191300Y-111767800D01*
X115191300Y-111767800D02*
X115191300Y-95467800D01*
%TO.C,R10*%
X159512000Y-170921500D02*
X159512000Y-171691500D01*
X159512000Y-179001500D02*
X159512000Y-178231500D01*
X160882000Y-171691500D02*
X158142000Y-171691500D01*
X160882000Y-178231500D02*
X160882000Y-171691500D01*
X158142000Y-178231500D02*
X160882000Y-178231500D01*
X158142000Y-171691500D02*
X158142000Y-178231500D01*
%TO.C,K1*%
X209448000Y-161245500D02*
X228448000Y-161245500D01*
X228448000Y-161245500D02*
X228448000Y-176745500D01*
X228448000Y-176745500D02*
X209448000Y-176745500D01*
X209448000Y-176745500D02*
X209448000Y-161245500D01*
%TO.C,R4*%
X179361000Y-184767500D02*
X179361000Y-187507500D01*
X186671000Y-186137500D02*
X185901000Y-186137500D01*
X178591000Y-186137500D02*
X179361000Y-186137500D01*
X179361000Y-187507500D02*
X185901000Y-187507500D01*
X185901000Y-187507500D02*
X185901000Y-184767500D01*
X185901000Y-184767500D02*
X179361000Y-184767500D01*
%TO.C,R12*%
X180186000Y-171691500D02*
X177446000Y-171691500D01*
X178816000Y-170921500D02*
X178816000Y-171691500D01*
X180186000Y-178231500D02*
X180186000Y-171691500D01*
X178816000Y-179001500D02*
X178816000Y-178231500D01*
X177446000Y-178231500D02*
X180186000Y-178231500D01*
X177446000Y-171691500D02*
X177446000Y-178231500D01*
%TO.C,R11*%
X187298000Y-171691500D02*
X184558000Y-171691500D01*
X184558000Y-178231500D02*
X187298000Y-178231500D01*
X184558000Y-171691500D02*
X184558000Y-178231500D01*
X185928000Y-170921500D02*
X185928000Y-171691500D01*
X187298000Y-178231500D02*
X187298000Y-171691500D01*
X185928000Y-179001500D02*
X185928000Y-178231500D01*
%TO.C,SW3*%
X128085600Y-74854000D02*
X121024400Y-74854000D01*
X121024400Y-74854000D02*
X121024400Y-84404400D01*
X121024400Y-84404400D02*
X128085600Y-84404400D01*
X128085600Y-84404400D02*
X128085600Y-74854000D01*
%TO.C,SW6*%
X102072000Y-119127500D02*
X110272000Y-119127500D01*
X110272000Y-119127500D02*
X110272000Y-109927500D01*
X110272000Y-109927500D02*
X102072000Y-109927500D01*
X102072000Y-109927500D02*
X102072000Y-119127500D01*
%TO.C,D4*%
X154158000Y-190180500D02*
X154158000Y-193270500D01*
X159708000Y-191725962D02*
G75*
G03*
X154158000Y-190180670I-2990000J462D01*
G01*
X154158000Y-193270330D02*
G75*
G03*
X159708000Y-191725038I2560000J1544830D01*
G01*
X159218000Y-191725500D02*
G75*
G03*
X159218000Y-191725500I-2500000J0D01*
G01*
%TO.C,Q3*%
X180616000Y-162591500D02*
X177016000Y-162591500D01*
X177016000Y-162591500D02*
G75*
G03*
X176491816Y-163318705I1800000J-1850000D01*
G01*
X176459600Y-165540307D02*
G75*
G03*
X178816000Y-167041500I2356400J1098807D01*
G01*
X181140184Y-163318705D02*
G75*
G03*
X180616000Y-162591500I-2324184J-1122795D01*
G01*
X178816000Y-167041500D02*
G75*
G03*
X181172400Y-165540307I0J2600000D01*
G01*
%TO.C,J4*%
X211318000Y-69491500D02*
X203638000Y-69491500D01*
X213918000Y-69491500D02*
X213918000Y-70821500D01*
X212588000Y-69491500D02*
X213918000Y-69491500D01*
X211318000Y-69491500D02*
X211318000Y-72151500D01*
X203638000Y-69491500D02*
X203638000Y-72151500D01*
X211318000Y-72151500D02*
X203638000Y-72151500D01*
%TO.C,SW1*%
X130524500Y-180479900D02*
X140074900Y-180479900D01*
X140074900Y-180479900D02*
X140074900Y-187541100D01*
X140074900Y-187541100D02*
X130524500Y-187541100D01*
X130524500Y-187541100D02*
X130524500Y-180479900D01*
%TO.C,SW2*%
X152431500Y-187731100D02*
X142881100Y-187731100D01*
X142881100Y-187731100D02*
X142881100Y-180669900D01*
X142881100Y-180669900D02*
X152431500Y-180669900D01*
X152431500Y-180669900D02*
X152431500Y-187731100D01*
%TO.C,R6*%
X164121000Y-187507500D02*
X170661000Y-187507500D01*
X170661000Y-187507500D02*
X170661000Y-184767500D01*
X164121000Y-184767500D02*
X164121000Y-187507500D01*
X163351000Y-186137500D02*
X164121000Y-186137500D01*
X170661000Y-184767500D02*
X164121000Y-184767500D01*
X171431000Y-186137500D02*
X170661000Y-186137500D01*
%TO.C,R8*%
X165608000Y-179001500D02*
X165608000Y-178231500D01*
X166978000Y-178231500D02*
X166978000Y-171691500D01*
X166978000Y-171691500D02*
X164238000Y-171691500D01*
X164238000Y-178231500D02*
X166978000Y-178231500D01*
X164238000Y-171691500D02*
X164238000Y-178231500D01*
X165608000Y-170921500D02*
X165608000Y-171691500D01*
%TO.C,R5*%
X178281000Y-196959500D02*
X171741000Y-196959500D01*
X171741000Y-196959500D02*
X171741000Y-199699500D01*
X170971000Y-198329500D02*
X171741000Y-198329500D01*
X178281000Y-199699500D02*
X178281000Y-196959500D01*
X179051000Y-198329500D02*
X178281000Y-198329500D01*
X171741000Y-199699500D02*
X178281000Y-199699500D01*
%TO.C,SW4*%
X102072000Y-107951500D02*
X110272000Y-107951500D01*
X110272000Y-107951500D02*
X110272000Y-98751500D01*
X110272000Y-98751500D02*
X102072000Y-98751500D01*
X102072000Y-98751500D02*
X102072000Y-107951500D01*
%TO.C,U8*%
X98527200Y-138660900D02*
X124527200Y-138660900D01*
X124527200Y-138660900D02*
X124527200Y-174860900D01*
X124527200Y-174860900D02*
X98527200Y-174860900D01*
X98527200Y-174860900D02*
X98527200Y-138660900D01*
%TO.C,D3*%
X161778000Y-190180500D02*
X161778000Y-193270500D01*
X167328000Y-191725962D02*
G75*
G03*
X161778000Y-190180670I-2990000J462D01*
G01*
X161778000Y-193270330D02*
G75*
G03*
X167328000Y-191725038I2560000J1544830D01*
G01*
X166838000Y-191725500D02*
G75*
G03*
X166838000Y-191725500I-2500000J0D01*
G01*
%TO.C,U5*%
X203927300Y-96357600D02*
X225927300Y-96357600D01*
X225927300Y-112857600D02*
X225927300Y-96428800D01*
X203927300Y-112857600D02*
X225927300Y-112857600D01*
X203927300Y-96357600D02*
X203927300Y-112857600D01*
%TO.C,U1*%
X196269000Y-86708500D02*
X196269000Y-147788500D01*
X136979000Y-89508500D02*
X136979000Y-147988500D01*
X131779000Y-86908500D02*
X131779000Y-147988500D01*
X131779000Y-86908500D02*
X134379000Y-86908500D01*
X200139000Y-86708500D02*
X201469000Y-86708500D01*
X196269000Y-147788500D02*
X201469000Y-147788500D01*
X136979000Y-86908500D02*
X136979000Y-88238500D01*
X134379000Y-86908500D02*
X134379000Y-89508500D01*
X159219000Y-89998500D02*
X166899000Y-89998500D01*
X135649000Y-86908500D02*
X136979000Y-86908500D01*
X198869000Y-86708500D02*
X198869000Y-89308500D01*
X159219000Y-92658500D02*
X166899000Y-92658500D01*
X156619000Y-91328500D02*
X156619000Y-89998500D01*
X131779000Y-147988500D02*
X136979000Y-147988500D01*
X196269000Y-86708500D02*
X198869000Y-86708500D01*
X134379000Y-89508500D02*
X136979000Y-89508500D01*
X201469000Y-89308500D02*
X201469000Y-147788500D01*
X156619000Y-89998500D02*
X157949000Y-89998500D01*
X198869000Y-89308500D02*
X201469000Y-89308500D01*
X166899000Y-92658500D02*
X166899000Y-89998500D01*
X201469000Y-86708500D02*
X201469000Y-88038500D01*
X159219000Y-92658500D02*
X159219000Y-89998500D01*
X131145000Y-159658500D02*
X202103000Y-159658500D01*
X202103000Y-159658500D02*
X202103000Y-74558500D01*
X202103000Y-74558500D02*
X131145000Y-74558500D01*
X131145000Y-74558500D02*
X131145000Y-159658500D01*
%TO.C,U7*%
X251860300Y-96722900D02*
X228441500Y-96722900D01*
X228441500Y-96722900D02*
X228441500Y-74472500D01*
X228441500Y-74472500D02*
X251860300Y-74472500D01*
X251860300Y-74472500D02*
X251860300Y-96722900D01*
X247847100Y-74472500D02*
X230549700Y-74472500D01*
X230549700Y-74472500D02*
X230549700Y-75336100D01*
X230549700Y-75336100D02*
X247847100Y-75336100D01*
X247847100Y-75336100D02*
X247847100Y-74472500D01*
X243250289Y-96722900D02*
G75*
G03*
X238880901Y-96672100I-2184982J614D01*
G01*
%TO.C,U9*%
X227031800Y-144297600D02*
X255784600Y-144297600D01*
X255784600Y-144297600D02*
X255784600Y-99695200D01*
X255784600Y-99695200D02*
X227031800Y-99695200D01*
X227031800Y-99695200D02*
X227031800Y-144297600D01*
%TO.C,R17*%
X192569000Y-184767500D02*
X192569000Y-187507500D01*
X199109000Y-187507500D02*
X199109000Y-184767500D01*
X199109000Y-184767500D02*
X192569000Y-184767500D01*
X191799000Y-186137500D02*
X192569000Y-186137500D01*
X192569000Y-187507500D02*
X199109000Y-187507500D01*
X199879000Y-186137500D02*
X199109000Y-186137500D01*
%TO.C,J7*%
X247590000Y-150831500D02*
X247590000Y-178831500D01*
X247590000Y-178831500D02*
X250250000Y-178831500D01*
X247590000Y-150831500D02*
X250250000Y-150831500D01*
X247590000Y-149561500D02*
X247590000Y-148231500D01*
X250250000Y-150831500D02*
X250250000Y-178831500D01*
X247590000Y-148231500D02*
X248920000Y-148231500D01*
%TO.C,R9*%
X172212000Y-179001500D02*
X172212000Y-178231500D01*
X173582000Y-178231500D02*
X173582000Y-171691500D01*
X172212000Y-170921500D02*
X172212000Y-171691500D01*
X173582000Y-171691500D02*
X170842000Y-171691500D01*
X170842000Y-171691500D02*
X170842000Y-178231500D01*
X170842000Y-178231500D02*
X173582000Y-178231500D01*
%TO.C,R1*%
X204370000Y-165087500D02*
X204370000Y-171627500D01*
X204370000Y-171627500D02*
X207110000Y-171627500D01*
X207110000Y-171627500D02*
X207110000Y-165087500D01*
X205740000Y-164317500D02*
X205740000Y-165087500D01*
X207110000Y-165087500D02*
X204370000Y-165087500D01*
X205740000Y-172397500D02*
X205740000Y-171627500D01*
%TO.C,U2*%
X130866000Y-177117500D02*
X155866000Y-177117500D01*
X155866000Y-177117500D02*
X155866000Y-162117500D01*
X155866000Y-162117500D02*
X130866000Y-162117500D01*
X130866000Y-162117500D02*
X130866000Y-177117500D01*
%TO.C,Q2*%
X230306000Y-171637500D02*
X230306000Y-175237500D01*
X233254807Y-175793900D02*
G75*
G03*
X234756000Y-173437500I-1098807J2356400D01*
G01*
X230306000Y-175237500D02*
G75*
G03*
X231033205Y-175761684I1850000J1800000D01*
G01*
X231033205Y-171113316D02*
G75*
G03*
X230306000Y-171637500I1122795J-2324184D01*
G01*
X234756000Y-173437500D02*
G75*
G03*
X233254807Y-171081100I-2600000J0D01*
G01*
%TO.C,R2*%
X247550000Y-184899500D02*
X247550000Y-191439500D01*
X250290000Y-191439500D02*
X250290000Y-184899500D01*
X248920000Y-184129500D02*
X248920000Y-184899500D01*
X248920000Y-192209500D02*
X248920000Y-191439500D01*
X250290000Y-184899500D02*
X247550000Y-184899500D01*
X247550000Y-191439500D02*
X250290000Y-191439500D01*
%TO.C,SW8*%
X102072000Y-130811500D02*
X110272000Y-130811500D01*
X110272000Y-130811500D02*
X110272000Y-121611500D01*
X110272000Y-121611500D02*
X102072000Y-121611500D01*
X102072000Y-121611500D02*
X102072000Y-130811500D01*
%TO.C,J3*%
X96834000Y-97999500D02*
X96834000Y-85239500D01*
X96834000Y-100599500D02*
X95504000Y-100599500D01*
X96834000Y-97999500D02*
X94174000Y-97999500D01*
X94174000Y-97999500D02*
X94174000Y-85239500D01*
X96834000Y-85239500D02*
X94174000Y-85239500D01*
X96834000Y-99269500D02*
X96834000Y-100599500D01*
%TO.C,J2*%
X94174000Y-71837500D02*
X94174000Y-70507500D01*
X94174000Y-80787500D02*
X96834000Y-80787500D01*
X96834000Y-73107500D02*
X96834000Y-80787500D01*
X94174000Y-73107500D02*
X96834000Y-73107500D01*
X94174000Y-73107500D02*
X94174000Y-80787500D01*
X94174000Y-70507500D02*
X95504000Y-70507500D01*
%TO.C,J6*%
X96834000Y-106889500D02*
X96834000Y-114569500D01*
X94174000Y-114569500D02*
X96834000Y-114569500D01*
X94174000Y-104289500D02*
X95504000Y-104289500D01*
X94174000Y-106889500D02*
X94174000Y-114569500D01*
X94174000Y-105619500D02*
X94174000Y-104289500D01*
X94174000Y-106889500D02*
X96834000Y-106889500D01*
%TO.C,SW5*%
X102072000Y-96267500D02*
X110272000Y-96267500D01*
X110272000Y-96267500D02*
X110272000Y-87067500D01*
X110272000Y-87067500D02*
X102072000Y-87067500D01*
X102072000Y-87067500D02*
X102072000Y-96267500D01*
%TO.C,Q4*%
X163344000Y-162443500D02*
X159744000Y-162443500D01*
X163868184Y-163170705D02*
G75*
G03*
X163344000Y-162443500I-2324184J-1122795D01*
G01*
X159187600Y-165392307D02*
G75*
G03*
X161544000Y-166893500I2356400J1098807D01*
G01*
X159744000Y-162443500D02*
G75*
G03*
X159219816Y-163170705I1800000J-1850000D01*
G01*
X161544000Y-166893500D02*
G75*
G03*
X163900400Y-165392307I0J2600000D01*
G01*
%TO.C,R13*%
X204121000Y-200647500D02*
X204121000Y-207187500D01*
X204121000Y-207187500D02*
X206861000Y-207187500D01*
X206861000Y-200647500D02*
X204121000Y-200647500D01*
X206861000Y-207187500D02*
X206861000Y-200647500D01*
X205491000Y-199877500D02*
X205491000Y-200647500D01*
X205491000Y-207957500D02*
X205491000Y-207187500D01*
%TO.C,J1*%
X123504000Y-203603500D02*
X123504000Y-204933500D01*
X108144000Y-203603500D02*
X108144000Y-206263500D01*
X120904000Y-203603500D02*
X108144000Y-203603500D01*
X120904000Y-206263500D02*
X108144000Y-206263500D01*
X122174000Y-203603500D02*
X123504000Y-203603500D01*
X120904000Y-203603500D02*
X120904000Y-206263500D01*
%TD*%
M02*
