M48
; DRILL file {KiCad (6.0.5)} date Tue Oct  4 16:53:05 2022
; FORMAT={-:-/ absolute / metric / decimal}
; #@! TF.CreationDate,2022-10-04T16:53:05+09:00
; #@! TF.GenerationSoftware,Kicad,Pcbnew,(6.0.5)
; #@! TF.FileFunction,Plated,1,2,PTH
FMAT,2
METRIC
; #@! TA.AperFunction,Plated,PTH,ViaDrill
T1C0.400
; #@! TA.AperFunction,Plated,PTH,ComponentDrill
T2C0.800
; #@! TA.AperFunction,Plated,PTH,ComponentDrill
T3C0.900
; #@! TA.AperFunction,Plated,PTH,ComponentDrill
T4C1.000
; #@! TA.AperFunction,Plated,PTH,ComponentDrill
T5C1.050
; #@! TA.AperFunction,Plated,PTH,ComponentDrill
T6C1.100
; #@! TA.AperFunction,Plated,PTH,ComponentDrill
T7C1.200
; #@! TA.AperFunction,Plated,PTH,ComponentDrill
T8C1.300
%
G90
G05
T1
X99.568Y-98.761
X99.568Y-112.268
X102.616Y-74.885
X112.268Y-111.969
X114.808Y-79.457
X115.824Y-70.822
X115.824Y-72.853
X115.824Y-77.933
X121.92Y-88.093
X128.016Y-113.493
X128.016Y-117.049
X130.556Y-91.141
X130.556Y-93.173
X139.192Y-153.118
X141.732Y-150.577
X146.304Y-115.017
X168.656Y-196.297
X180.34Y-77.933
X180.34Y-80.474
X180.848Y-201.885
X184.404Y-197.821
X199.898Y-201.123
X201.168Y-81.489
X214.376Y-137.369
X235.204Y-188.677
T2
X154.691Y-198.329
X159.004Y-164.293
X159.512Y-169.881
X159.512Y-180.041
X161.544Y-164.293
X162.311Y-186.137
X164.084Y-164.293
X164.851Y-198.329
X165.608Y-169.881
X165.608Y-180.041
X167.64Y-164.293
X169.931Y-198.329
X170.18Y-164.293
X172.212Y-169.881
X172.212Y-180.041
X172.471Y-186.137
X172.72Y-164.293
X176.276Y-164.441
X177.551Y-186.137
X178.816Y-164.441
X178.816Y-169.881
X178.816Y-180.041
X180.091Y-198.329
X181.356Y-164.441
X183.647Y-207.981
X184.404Y-164.293
X185.928Y-169.881
X185.928Y-180.041
X186.944Y-164.293
X187.563Y-189.185
X187.563Y-191.725
X187.563Y-194.266
X187.563Y-196.805
X187.563Y-199.345
X187.563Y-201.885
X187.711Y-186.137
X189.484Y-164.293
X190.759Y-181.565
X190.759Y-186.137
X192.532Y-164.441
X192.532Y-173.585
X193.807Y-207.981
X195.072Y-164.441
X195.072Y-173.585
X197.612Y-164.441
X197.612Y-173.585
X200.919Y-181.565
X200.919Y-186.137
X201.676Y-163.278
X201.676Y-173.438
X205.491Y-185.629
X205.491Y-195.79
X205.491Y-198.837
X205.491Y-208.998
X205.74Y-163.278
X205.74Y-173.438
X232.156Y-170.897
X232.156Y-173.438
X232.156Y-175.977
X248.92Y-183.089
X248.92Y-193.249
T3
X155.448Y-191.725
X157.988Y-191.725
X163.068Y-191.725
X165.608Y-191.725
X170.688Y-191.725
X173.228Y-191.725
X178.308Y-191.725
X180.848Y-191.725
T4
X95.504Y-71.837
X95.504Y-74.377
X95.504Y-76.917
X95.504Y-79.457
X95.504Y-86.569
X95.504Y-89.109
X95.504Y-91.649
X95.504Y-94.189
X95.504Y-96.73
X95.504Y-99.269
X95.504Y-105.62
X95.504Y-108.159
X95.504Y-110.7
X95.504Y-113.239
X109.474Y-204.933
X112.014Y-204.933
X114.554Y-204.933
X117.094Y-204.933
X119.634Y-204.933
X122.174Y-204.933
X133.109Y-88.239
X133.109Y-90.778
X133.109Y-93.319
X133.109Y-95.858
X133.109Y-98.398
X133.109Y-100.938
X133.109Y-103.478
X133.109Y-106.018
X133.109Y-108.558
X133.109Y-111.099
X133.109Y-113.638
X133.109Y-116.178
X133.109Y-118.718
X133.109Y-121.258
X133.109Y-123.798
X133.109Y-126.338
X133.109Y-128.879
X133.109Y-131.418
X133.109Y-133.958
X133.109Y-136.499
X133.109Y-139.038
X133.109Y-141.578
X133.109Y-144.118
X133.109Y-146.659
X135.649Y-88.239
X135.649Y-90.778
X135.649Y-93.319
X135.649Y-95.858
X135.649Y-98.398
X135.649Y-100.938
X135.649Y-103.478
X135.649Y-106.018
X135.649Y-108.558
X135.649Y-111.099
X135.649Y-113.638
X135.649Y-116.178
X135.649Y-118.718
X135.649Y-121.258
X135.649Y-123.798
X135.649Y-126.338
X135.649Y-128.879
X135.649Y-131.418
X135.649Y-133.958
X135.649Y-136.499
X135.649Y-139.038
X135.649Y-141.578
X135.649Y-144.118
X135.649Y-146.659
X157.949Y-91.328
X160.489Y-91.328
X163.029Y-91.328
X165.569Y-91.328
X197.599Y-88.038
X197.599Y-90.578
X197.599Y-93.118
X197.599Y-95.658
X197.599Y-98.198
X197.599Y-100.739
X197.599Y-103.278
X197.599Y-105.819
X197.599Y-108.358
X197.599Y-110.898
X197.599Y-113.438
X197.599Y-115.978
X197.599Y-118.518
X197.599Y-121.058
X197.599Y-123.599
X197.599Y-126.138
X197.599Y-128.678
X197.599Y-131.219
X197.599Y-133.758
X197.599Y-136.298
X197.599Y-138.838
X197.599Y-141.379
X197.599Y-143.918
X197.599Y-146.458
X200.139Y-88.038
X200.139Y-90.578
X200.139Y-93.118
X200.139Y-95.658
X200.139Y-98.198
X200.139Y-100.739
X200.139Y-103.278
X200.139Y-105.819
X200.139Y-108.358
X200.139Y-110.898
X200.139Y-113.438
X200.139Y-115.978
X200.139Y-118.518
X200.139Y-121.058
X200.139Y-123.599
X200.139Y-126.138
X200.139Y-128.678
X200.139Y-131.219
X200.139Y-133.758
X200.139Y-136.298
X200.139Y-138.838
X200.139Y-141.379
X200.139Y-143.918
X200.139Y-146.458
X204.968Y-70.822
X207.508Y-70.822
X210.048Y-70.822
X212.588Y-70.822
X241.808Y-182.85
X241.808Y-185.391
X241.808Y-187.93
X241.808Y-190.47
X241.808Y-193.01
X241.808Y-195.55
X241.808Y-198.09
X241.808Y-200.63
X248.92Y-149.561
X248.92Y-152.101
X248.92Y-154.641
X248.92Y-157.181
X248.92Y-159.721
X248.92Y-162.261
X248.92Y-164.802
X248.92Y-167.341
X248.92Y-169.881
X248.92Y-172.421
X248.92Y-174.962
X248.92Y-177.501
T5
X231.388Y-76.817
X231.388Y-79.357
X231.388Y-81.897
X231.388Y-84.437
X231.388Y-86.977
X231.388Y-89.517
X231.388Y-92.057
X231.388Y-94.597
X249.168Y-76.817
X249.168Y-79.357
X249.168Y-81.897
X249.168Y-84.437
X249.168Y-86.977
X249.168Y-89.517
X249.168Y-92.057
X249.168Y-94.597
T6
X107.907Y-141.013
X110.447Y-141.013
X112.987Y-141.013
X115.527Y-141.013
X121.99Y-75.819
X121.99Y-83.439
X127.07Y-75.819
X127.07Y-83.439
X131.49Y-181.496
X131.49Y-186.576
X132.546Y-165.941
X132.546Y-168.481
X132.546Y-171.022
X132.546Y-173.561
X135.086Y-165.941
X135.086Y-168.481
X135.086Y-171.022
X135.086Y-173.561
X139.11Y-181.496
X139.11Y-186.576
X143.846Y-181.635
X143.846Y-186.715
X151.466Y-181.635
X151.466Y-186.715
X206.127Y-76.314
X206.127Y-78.854
X206.127Y-86.674
X206.127Y-89.214
X206.127Y-98.158
X206.127Y-100.698
X206.127Y-108.518
X206.127Y-111.058
X208.845Y-144.526
X208.845Y-147.066
X208.845Y-149.606
X208.845Y-152.146
X208.845Y-154.686
X208.845Y-157.226
X219.005Y-144.526
X219.005Y-147.066
X219.005Y-149.606
X219.005Y-152.146
X219.005Y-154.686
X219.005Y-157.226
X223.727Y-76.314
X223.727Y-78.854
X223.727Y-86.674
X223.727Y-89.214
X223.727Y-98.158
X223.727Y-100.698
X223.727Y-108.518
X223.727Y-111.058
X229.927Y-103.048
X229.927Y-108.128
X229.927Y-136.068
X229.927Y-141.148
X252.787Y-103.048
X252.787Y-108.128
X252.787Y-130.988
X252.787Y-136.068
X252.787Y-141.148
T7
X117.361Y-97.246
X117.361Y-99.786
X117.361Y-102.326
X117.361Y-104.866
X117.361Y-107.406
X117.361Y-109.946
T8
X211.848Y-168.995
X213.848Y-162.995
X213.848Y-174.995
X226.048Y-162.995
X226.048Y-174.995
T4
G00X103.672Y-76.881
M15
G01X103.672Y-77.881
M16
G05
G00X103.672Y-80.981
M15
G01X103.672Y-81.981
M16
G05
G00X103.672Y-89.117
M15
G01X103.672Y-90.117
M16
G05
G00X103.672Y-93.218
M15
G01X103.672Y-94.218
M16
G05
G00X103.672Y-100.801
M15
G01X103.672Y-101.801
M16
G05
G00X103.672Y-104.901
M15
G01X103.672Y-105.901
M16
G05
G00X103.672Y-111.977
M15
G01X103.672Y-112.977
M16
G05
G00X103.672Y-116.078
M15
G01X103.672Y-117.078
M16
G05
G00X103.672Y-123.661
M15
G01X103.672Y-124.661
M16
G05
G00X103.672Y-127.761
M15
G01X103.672Y-128.761
M16
G05
G00X106.172Y-76.881
M15
G01X106.172Y-77.881
M16
G05
G00X106.172Y-80.981
M15
G01X106.172Y-81.981
M16
G05
G00X106.172Y-89.117
M15
G01X106.172Y-90.117
M16
G05
G00X106.172Y-93.218
M15
G01X106.172Y-94.218
M16
G05
G00X106.172Y-100.801
M15
G01X106.172Y-101.801
M16
G05
G00X106.172Y-104.901
M15
G01X106.172Y-105.901
M16
G05
G00X106.172Y-111.977
M15
G01X106.172Y-112.977
M16
G05
G00X106.172Y-116.078
M15
G01X106.172Y-117.078
M16
G05
G00X106.172Y-123.661
M15
G01X106.172Y-124.661
M16
G05
G00X106.172Y-127.761
M15
G01X106.172Y-128.761
M16
G05
G00X108.672Y-76.881
M15
G01X108.672Y-77.881
M16
G05
G00X108.672Y-80.981
M15
G01X108.672Y-81.981
M16
G05
G00X108.672Y-89.117
M15
G01X108.672Y-90.117
M16
G05
G00X108.672Y-93.218
M15
G01X108.672Y-94.218
M16
G05
G00X108.672Y-100.801
M15
G01X108.672Y-101.801
M16
G05
G00X108.672Y-104.901
M15
G01X108.672Y-105.901
M16
G05
G00X108.672Y-111.977
M15
G01X108.672Y-112.977
M16
G05
G00X108.672Y-116.078
M15
G01X108.672Y-117.078
M16
G05
G00X108.672Y-123.661
M15
G01X108.672Y-124.661
M16
G05
G00X108.672Y-127.761
M15
G01X108.672Y-128.761
M16
G05
T0
M30
