%TF.GenerationSoftware,KiCad,Pcbnew,(6.0.2)*%
%TF.CreationDate,2022-07-14T16:33:34+09:00*%
%TF.ProjectId,Junction,4a756e63-7469-46f6-9e2e-6b696361645f,rev?*%
%TF.SameCoordinates,Original*%
%TF.FileFunction,Legend,Top*%
%TF.FilePolarity,Positive*%
%FSLAX46Y46*%
G04 Gerber Fmt 4.6, Leading zero omitted, Abs format (unit mm)*
G04 Created by KiCad (PCBNEW (6.0.2)) date 2022-07-14 16:33:34*
%MOMM*%
%LPD*%
G01*
G04 APERTURE LIST*
%ADD10C,0.150000*%
%ADD11C,0.100000*%
%ADD12C,0.080000*%
%ADD13C,0.254000*%
%ADD14C,0.120000*%
%ADD15C,0.200000*%
G04 APERTURE END LIST*
D10*
X167000000Y-60250000D02*
X167000000Y-99000000D01*
X136785000Y-116459000D02*
G75*
G03*
X136785000Y-116459000I-2800000J0D01*
G01*
X217811000Y-116840000D02*
G75*
G03*
X217811000Y-116840000I-2800000J0D01*
G01*
X135388000Y-61567000D02*
G75*
G03*
X135388000Y-61567000I-2800000J0D01*
G01*
X167000000Y-102250000D02*
X167000000Y-119750000D01*
X218192000Y-62617000D02*
G75*
G03*
X218192000Y-62617000I-2800000J0D01*
G01*
D11*
X169833333Y-61702380D02*
X169261904Y-61702380D01*
X169547619Y-61702380D02*
X169547619Y-60702380D01*
X169452380Y-60845238D01*
X169357142Y-60940476D01*
X169261904Y-60988095D01*
X170880952Y-60702380D02*
X171452380Y-60702380D01*
X171166666Y-61702380D02*
X171166666Y-60702380D01*
X171976190Y-60702380D02*
X172166666Y-60702380D01*
X172261904Y-60750000D01*
X172357142Y-60845238D01*
X172404761Y-61035714D01*
X172404761Y-61369047D01*
X172357142Y-61559523D01*
X172261904Y-61654761D01*
X172166666Y-61702380D01*
X171976190Y-61702380D01*
X171880952Y-61654761D01*
X171785714Y-61559523D01*
X171738095Y-61369047D01*
X171738095Y-61035714D01*
X171785714Y-60845238D01*
X171880952Y-60750000D01*
X171976190Y-60702380D01*
X173547619Y-60797619D02*
X173595238Y-60750000D01*
X173690476Y-60702380D01*
X173928571Y-60702380D01*
X174023809Y-60750000D01*
X174071428Y-60797619D01*
X174119047Y-60892857D01*
X174119047Y-60988095D01*
X174071428Y-61130952D01*
X173500000Y-61702380D01*
X174119047Y-61702380D01*
X175880952Y-61702380D02*
X175547619Y-61226190D01*
X175309523Y-61702380D02*
X175309523Y-60702380D01*
X175690476Y-60702380D01*
X175785714Y-60750000D01*
X175833333Y-60797619D01*
X175880952Y-60892857D01*
X175880952Y-61035714D01*
X175833333Y-61130952D01*
X175785714Y-61178571D01*
X175690476Y-61226190D01*
X175309523Y-61226190D01*
X176309523Y-61178571D02*
X176642857Y-61178571D01*
X176785714Y-61702380D02*
X176309523Y-61702380D01*
X176309523Y-60702380D01*
X176785714Y-60702380D01*
X177166666Y-61654761D02*
X177309523Y-61702380D01*
X177547619Y-61702380D01*
X177642857Y-61654761D01*
X177690476Y-61607142D01*
X177738095Y-61511904D01*
X177738095Y-61416666D01*
X177690476Y-61321428D01*
X177642857Y-61273809D01*
X177547619Y-61226190D01*
X177357142Y-61178571D01*
X177261904Y-61130952D01*
X177214285Y-61083333D01*
X177166666Y-60988095D01*
X177166666Y-60892857D01*
X177214285Y-60797619D01*
X177261904Y-60750000D01*
X177357142Y-60702380D01*
X177595238Y-60702380D01*
X177738095Y-60750000D01*
D12*
X149180952Y-116083333D02*
X148780952Y-116083333D01*
X148971428Y-116083333D02*
X148971428Y-115854761D01*
X149180952Y-115854761D02*
X148780952Y-115854761D01*
X149066666Y-115683333D02*
X149066666Y-115492857D01*
X149180952Y-115721428D02*
X148780952Y-115588095D01*
X149180952Y-115454761D01*
X149180952Y-115130952D02*
X149180952Y-115321428D01*
X148780952Y-115321428D01*
X149180952Y-114807142D02*
X149180952Y-114997619D01*
X148780952Y-114997619D01*
X149219047Y-114769047D02*
X149219047Y-114464285D01*
X148780952Y-114426190D02*
X149180952Y-114292857D01*
X148780952Y-114159523D01*
X149142857Y-113797619D02*
X149161904Y-113816666D01*
X149180952Y-113873809D01*
X149180952Y-113911904D01*
X149161904Y-113969047D01*
X149123809Y-114007142D01*
X149085714Y-114026190D01*
X149009523Y-114045238D01*
X148952380Y-114045238D01*
X148876190Y-114026190D01*
X148838095Y-114007142D01*
X148800000Y-113969047D01*
X148780952Y-113911904D01*
X148780952Y-113873809D01*
X148800000Y-113816666D01*
X148819047Y-113797619D01*
X149142857Y-113397619D02*
X149161904Y-113416666D01*
X149180952Y-113473809D01*
X149180952Y-113511904D01*
X149161904Y-113569047D01*
X149123809Y-113607142D01*
X149085714Y-113626190D01*
X149009523Y-113645238D01*
X148952380Y-113645238D01*
X148876190Y-113626190D01*
X148838095Y-113607142D01*
X148800000Y-113569047D01*
X148780952Y-113511904D01*
X148780952Y-113473809D01*
X148800000Y-113416666D01*
X148819047Y-113397619D01*
X145050000Y-115054761D02*
X145030952Y-115092857D01*
X145030952Y-115150000D01*
X145050000Y-115207142D01*
X145088095Y-115245238D01*
X145126190Y-115264285D01*
X145202380Y-115283333D01*
X145259523Y-115283333D01*
X145335714Y-115264285D01*
X145373809Y-115245238D01*
X145411904Y-115207142D01*
X145430952Y-115150000D01*
X145430952Y-115111904D01*
X145411904Y-115054761D01*
X145392857Y-115035714D01*
X145259523Y-115035714D01*
X145259523Y-115111904D01*
X145430952Y-114864285D02*
X145030952Y-114864285D01*
X145430952Y-114635714D01*
X145030952Y-114635714D01*
X145430952Y-114445238D02*
X145030952Y-114445238D01*
X145030952Y-114350000D01*
X145050000Y-114292857D01*
X145088095Y-114254761D01*
X145126190Y-114235714D01*
X145202380Y-114216666D01*
X145259523Y-114216666D01*
X145335714Y-114235714D01*
X145373809Y-114254761D01*
X145411904Y-114292857D01*
X145430952Y-114350000D01*
X145430952Y-114445238D01*
X139180952Y-115492857D02*
X138780952Y-115492857D01*
X138780952Y-115340476D01*
X138800000Y-115302380D01*
X138819047Y-115283333D01*
X138857142Y-115264285D01*
X138914285Y-115264285D01*
X138952380Y-115283333D01*
X138971428Y-115302380D01*
X138990476Y-115340476D01*
X138990476Y-115492857D01*
X138780952Y-115092857D02*
X139104761Y-115092857D01*
X139142857Y-115073809D01*
X139161904Y-115054761D01*
X139180952Y-115016666D01*
X139180952Y-114940476D01*
X139161904Y-114902380D01*
X139142857Y-114883333D01*
X139104761Y-114864285D01*
X138780952Y-114864285D01*
X139180952Y-114673809D02*
X138780952Y-114673809D01*
X139066666Y-114540476D01*
X138780952Y-114407142D01*
X139180952Y-114407142D01*
X139180952Y-114216666D02*
X138780952Y-114216666D01*
X138780952Y-114064285D01*
X138800000Y-114026190D01*
X138819047Y-114007142D01*
X138857142Y-113988095D01*
X138914285Y-113988095D01*
X138952380Y-114007142D01*
X138971428Y-114026190D01*
X138990476Y-114064285D01*
X138990476Y-114216666D01*
X137430952Y-115921428D02*
X137430952Y-116111904D01*
X137030952Y-116111904D01*
X137030952Y-115845238D02*
X137430952Y-115711904D01*
X137030952Y-115578571D01*
X137469047Y-115540476D02*
X137469047Y-115235714D01*
X137316666Y-115159523D02*
X137316666Y-114969047D01*
X137430952Y-115197619D02*
X137030952Y-115064285D01*
X137430952Y-114930952D01*
X137392857Y-114569047D02*
X137411904Y-114588095D01*
X137430952Y-114645238D01*
X137430952Y-114683333D01*
X137411904Y-114740476D01*
X137373809Y-114778571D01*
X137335714Y-114797619D01*
X137259523Y-114816666D01*
X137202380Y-114816666D01*
X137126190Y-114797619D01*
X137088095Y-114778571D01*
X137050000Y-114740476D01*
X137030952Y-114683333D01*
X137030952Y-114645238D01*
X137050000Y-114588095D01*
X137069047Y-114569047D01*
X137030952Y-114454761D02*
X137030952Y-114226190D01*
X137430952Y-114340476D02*
X137030952Y-114340476D01*
X137430952Y-114092857D02*
X137030952Y-114092857D01*
X137030952Y-113959523D02*
X137430952Y-113826190D01*
X137030952Y-113692857D01*
X137221428Y-113559523D02*
X137221428Y-113426190D01*
X137430952Y-113369047D02*
X137430952Y-113559523D01*
X137030952Y-113559523D01*
X137030952Y-113369047D01*
D11*
X148679333Y-67442333D02*
X148679333Y-67109000D01*
X149379333Y-67109000D01*
X149379333Y-67575666D02*
X148679333Y-67809000D01*
X149379333Y-68042333D01*
X148612666Y-68109000D02*
X148612666Y-68642333D01*
X149046000Y-69042333D02*
X149046000Y-68809000D01*
X148679333Y-68809000D02*
X149379333Y-68809000D01*
X149379333Y-69142333D01*
X148879333Y-69375666D02*
X148879333Y-69709000D01*
X148679333Y-69309000D02*
X149379333Y-69542333D01*
X148679333Y-69775666D01*
X148679333Y-70009000D02*
X149379333Y-70009000D01*
X148679333Y-70409000D01*
X149379333Y-70409000D01*
X181166666Y-73952380D02*
X181166666Y-72952380D01*
X181166666Y-73428571D02*
X181738095Y-73428571D01*
X181738095Y-73952380D02*
X181738095Y-72952380D01*
X182071428Y-72952380D02*
X182404761Y-73952380D01*
X182738095Y-72952380D01*
X183071428Y-73571428D02*
X183833333Y-73571428D01*
X177416666Y-87077380D02*
X177416666Y-86077380D01*
X177416666Y-86553571D02*
X177988095Y-86553571D01*
X177988095Y-87077380D02*
X177988095Y-86077380D01*
X178321428Y-86077380D02*
X178654761Y-87077380D01*
X178988095Y-86077380D01*
X179321428Y-86696428D02*
X180083333Y-86696428D01*
X179702380Y-87077380D02*
X179702380Y-86315476D01*
D12*
X143180952Y-116780952D02*
X142990476Y-116914285D01*
X143180952Y-117009523D02*
X142780952Y-117009523D01*
X142780952Y-116857142D01*
X142800000Y-116819047D01*
X142819047Y-116800000D01*
X142857142Y-116780952D01*
X142914285Y-116780952D01*
X142952380Y-116800000D01*
X142971428Y-116819047D01*
X142990476Y-116857142D01*
X142990476Y-117009523D01*
X143066666Y-116628571D02*
X143066666Y-116438095D01*
X143180952Y-116666666D02*
X142780952Y-116533333D01*
X143180952Y-116400000D01*
X143180952Y-116266666D02*
X142780952Y-116266666D01*
X142780952Y-116171428D01*
X142800000Y-116114285D01*
X142838095Y-116076190D01*
X142876190Y-116057142D01*
X142952380Y-116038095D01*
X143009523Y-116038095D01*
X143085714Y-116057142D01*
X143123809Y-116076190D01*
X143161904Y-116114285D01*
X143180952Y-116171428D01*
X143180952Y-116266666D01*
X143180952Y-115866666D02*
X142780952Y-115866666D01*
X143066666Y-115695238D02*
X143066666Y-115504761D01*
X143180952Y-115733333D02*
X142780952Y-115600000D01*
X143180952Y-115466666D01*
X142780952Y-115390476D02*
X142780952Y-115161904D01*
X143180952Y-115276190D02*
X142780952Y-115276190D01*
X142780952Y-114952380D02*
X142780952Y-114876190D01*
X142800000Y-114838095D01*
X142838095Y-114800000D01*
X142914285Y-114780952D01*
X143047619Y-114780952D01*
X143123809Y-114800000D01*
X143161904Y-114838095D01*
X143180952Y-114876190D01*
X143180952Y-114952380D01*
X143161904Y-114990476D01*
X143123809Y-115028571D01*
X143047619Y-115047619D01*
X142914285Y-115047619D01*
X142838095Y-115028571D01*
X142800000Y-114990476D01*
X142780952Y-114952380D01*
X143180952Y-114380952D02*
X142990476Y-114514285D01*
X143180952Y-114609523D02*
X142780952Y-114609523D01*
X142780952Y-114457142D01*
X142800000Y-114419047D01*
X142819047Y-114400000D01*
X142857142Y-114380952D01*
X142914285Y-114380952D01*
X142952380Y-114400000D01*
X142971428Y-114419047D01*
X142990476Y-114457142D01*
X142990476Y-114609523D01*
X143219047Y-114304761D02*
X143219047Y-114000000D01*
X142971428Y-113771428D02*
X142971428Y-113904761D01*
X143180952Y-113904761D02*
X142780952Y-113904761D01*
X142780952Y-113714285D01*
X143066666Y-113580952D02*
X143066666Y-113390476D01*
X143180952Y-113619047D02*
X142780952Y-113485714D01*
X143180952Y-113352380D01*
X143180952Y-113219047D02*
X142780952Y-113219047D01*
X143180952Y-112990476D01*
X142780952Y-112990476D01*
D11*
X144472190Y-64211380D02*
X144472190Y-63211380D01*
X144948380Y-64211380D02*
X144948380Y-63211380D01*
X145519809Y-64211380D01*
X145519809Y-63211380D01*
D12*
X141180952Y-116923809D02*
X140780952Y-116923809D01*
X140780952Y-116771428D01*
X140800000Y-116733333D01*
X140819047Y-116714285D01*
X140857142Y-116695238D01*
X140914285Y-116695238D01*
X140952380Y-116714285D01*
X140971428Y-116733333D01*
X140990476Y-116771428D01*
X140990476Y-116923809D01*
X140780952Y-116523809D02*
X141104761Y-116523809D01*
X141142857Y-116504761D01*
X141161904Y-116485714D01*
X141180952Y-116447619D01*
X141180952Y-116371428D01*
X141161904Y-116333333D01*
X141142857Y-116314285D01*
X141104761Y-116295238D01*
X140780952Y-116295238D01*
X141180952Y-116104761D02*
X140780952Y-116104761D01*
X141066666Y-115971428D01*
X140780952Y-115838095D01*
X141180952Y-115838095D01*
X141180952Y-115647619D02*
X140780952Y-115647619D01*
X140780952Y-115495238D01*
X140800000Y-115457142D01*
X140819047Y-115438095D01*
X140857142Y-115419047D01*
X140914285Y-115419047D01*
X140952380Y-115438095D01*
X140971428Y-115457142D01*
X140990476Y-115495238D01*
X140990476Y-115647619D01*
X141219047Y-115342857D02*
X141219047Y-115038095D01*
X141161904Y-114961904D02*
X141180952Y-114904761D01*
X141180952Y-114809523D01*
X141161904Y-114771428D01*
X141142857Y-114752380D01*
X141104761Y-114733333D01*
X141066666Y-114733333D01*
X141028571Y-114752380D01*
X141009523Y-114771428D01*
X140990476Y-114809523D01*
X140971428Y-114885714D01*
X140952380Y-114923809D01*
X140933333Y-114942857D01*
X140895238Y-114961904D01*
X140857142Y-114961904D01*
X140819047Y-114942857D01*
X140800000Y-114923809D01*
X140780952Y-114885714D01*
X140780952Y-114790476D01*
X140800000Y-114733333D01*
X141180952Y-114561904D02*
X140780952Y-114561904D01*
X140800000Y-114161904D02*
X140780952Y-114200000D01*
X140780952Y-114257142D01*
X140800000Y-114314285D01*
X140838095Y-114352380D01*
X140876190Y-114371428D01*
X140952380Y-114390476D01*
X141009523Y-114390476D01*
X141085714Y-114371428D01*
X141123809Y-114352380D01*
X141161904Y-114314285D01*
X141180952Y-114257142D01*
X141180952Y-114219047D01*
X141161904Y-114161904D01*
X141142857Y-114142857D01*
X141009523Y-114142857D01*
X141009523Y-114219047D01*
X141180952Y-113971428D02*
X140780952Y-113971428D01*
X141180952Y-113742857D01*
X140780952Y-113742857D01*
X141066666Y-113571428D02*
X141066666Y-113380952D01*
X141180952Y-113609523D02*
X140780952Y-113476190D01*
X141180952Y-113342857D01*
X141180952Y-113019047D02*
X141180952Y-113209523D01*
X140780952Y-113209523D01*
D11*
X132546000Y-70859000D02*
X132546000Y-70625666D01*
X132179333Y-70625666D02*
X132879333Y-70625666D01*
X132879333Y-70959000D01*
X132179333Y-71525666D02*
X132546000Y-71525666D01*
X132612666Y-71492333D01*
X132646000Y-71425666D01*
X132646000Y-71292333D01*
X132612666Y-71225666D01*
X132212666Y-71525666D02*
X132179333Y-71459000D01*
X132179333Y-71292333D01*
X132212666Y-71225666D01*
X132279333Y-71192333D01*
X132346000Y-71192333D01*
X132412666Y-71225666D01*
X132446000Y-71292333D01*
X132446000Y-71459000D01*
X132479333Y-71525666D01*
X132646000Y-71859000D02*
X132179333Y-71859000D01*
X132579333Y-71859000D02*
X132612666Y-71892333D01*
X132646000Y-71959000D01*
X132646000Y-72059000D01*
X132612666Y-72125666D01*
X132546000Y-72159000D01*
X132179333Y-72159000D01*
X132112666Y-72325666D02*
X132112666Y-72859000D01*
X132179333Y-73025666D02*
X132879333Y-73025666D01*
X132879333Y-73292333D01*
X132846000Y-73359000D01*
X132812666Y-73392333D01*
X132746000Y-73425666D01*
X132646000Y-73425666D01*
X132579333Y-73392333D01*
X132546000Y-73359000D01*
X132512666Y-73292333D01*
X132512666Y-73025666D01*
X132879333Y-73659000D02*
X132179333Y-73825666D01*
X132679333Y-73959000D01*
X132179333Y-74092333D01*
X132879333Y-74259000D01*
X132179333Y-74925666D02*
X132512666Y-74692333D01*
X132179333Y-74525666D02*
X132879333Y-74525666D01*
X132879333Y-74792333D01*
X132846000Y-74859000D01*
X132812666Y-74892333D01*
X132746000Y-74925666D01*
X132646000Y-74925666D01*
X132579333Y-74892333D01*
X132546000Y-74859000D01*
X132512666Y-74792333D01*
X132512666Y-74525666D01*
X197166666Y-118397380D02*
X197738095Y-118397380D01*
X197452380Y-119397380D02*
X197452380Y-118397380D01*
X198023809Y-119349761D02*
X198166666Y-119397380D01*
X198404761Y-119397380D01*
X198500000Y-119349761D01*
X198547619Y-119302142D01*
X198595238Y-119206904D01*
X198595238Y-119111666D01*
X198547619Y-119016428D01*
X198500000Y-118968809D01*
X198404761Y-118921190D01*
X198214285Y-118873571D01*
X198119047Y-118825952D01*
X198071428Y-118778333D01*
X198023809Y-118683095D01*
X198023809Y-118587857D01*
X198071428Y-118492619D01*
X198119047Y-118445000D01*
X198214285Y-118397380D01*
X198452380Y-118397380D01*
X198595238Y-118445000D01*
X199023809Y-119397380D02*
X199023809Y-118397380D01*
X199357142Y-119111666D01*
X199690476Y-118397380D01*
X199690476Y-119397380D01*
X200166666Y-119397380D02*
X200166666Y-118397380D01*
X200547619Y-118397380D01*
X200642857Y-118445000D01*
X200690476Y-118492619D01*
X200738095Y-118587857D01*
X200738095Y-118730714D01*
X200690476Y-118825952D01*
X200642857Y-118873571D01*
X200547619Y-118921190D01*
X200166666Y-118921190D01*
X197238095Y-120626428D02*
X198000000Y-120626428D01*
X197619047Y-121007380D02*
X197619047Y-120245476D01*
X200000000Y-120626428D02*
X200761904Y-120626428D01*
D12*
X147430952Y-115359523D02*
X147030952Y-115359523D01*
X147221428Y-115359523D02*
X147221428Y-115130952D01*
X147430952Y-115130952D02*
X147030952Y-115130952D01*
X147316666Y-114959523D02*
X147316666Y-114769047D01*
X147430952Y-114997619D02*
X147030952Y-114864285D01*
X147430952Y-114730952D01*
X147430952Y-114407142D02*
X147430952Y-114597619D01*
X147030952Y-114597619D01*
X147430952Y-114083333D02*
X147430952Y-114273809D01*
X147030952Y-114273809D01*
D10*
X161198380Y-93186379D02*
X160626952Y-93186379D01*
X160912666Y-93186379D02*
X160912666Y-92186379D01*
X160817428Y-92329237D01*
X160722190Y-92424475D01*
X160626952Y-92472094D01*
X161817428Y-92186379D02*
X161912666Y-92186379D01*
X162007904Y-92233999D01*
X162055523Y-92281618D01*
X162103142Y-92376856D01*
X162150761Y-92567332D01*
X162150761Y-92805427D01*
X162103142Y-92995903D01*
X162055523Y-93091141D01*
X162007904Y-93138760D01*
X161912666Y-93186379D01*
X161817428Y-93186379D01*
X161722190Y-93138760D01*
X161674571Y-93091141D01*
X161626952Y-92995903D01*
X161579333Y-92805427D01*
X161579333Y-92567332D01*
X161626952Y-92376856D01*
X161674571Y-92281618D01*
X161722190Y-92233999D01*
X161817428Y-92186379D01*
X162579333Y-93091141D02*
X162626952Y-93138760D01*
X162579333Y-93186379D01*
X162531714Y-93138760D01*
X162579333Y-93091141D01*
X162579333Y-93186379D01*
X163246000Y-92186379D02*
X163341238Y-92186379D01*
X163436476Y-92233999D01*
X163484095Y-92281618D01*
X163531714Y-92376856D01*
X163579333Y-92567332D01*
X163579333Y-92805427D01*
X163531714Y-92995903D01*
X163484095Y-93091141D01*
X163436476Y-93138760D01*
X163341238Y-93186379D01*
X163246000Y-93186379D01*
X163150761Y-93138760D01*
X163103142Y-93091141D01*
X163055523Y-92995903D01*
X163007904Y-92805427D01*
X163007904Y-92567332D01*
X163055523Y-92376856D01*
X163103142Y-92281618D01*
X163150761Y-92233999D01*
X163246000Y-92186379D01*
X164198380Y-92186379D02*
X164293619Y-92186379D01*
X164388857Y-92233999D01*
X164436476Y-92281618D01*
X164484095Y-92376856D01*
X164531714Y-92567332D01*
X164531714Y-92805427D01*
X164484095Y-92995903D01*
X164436476Y-93091141D01*
X164388857Y-93138760D01*
X164293619Y-93186379D01*
X164198380Y-93186379D01*
X164103142Y-93138760D01*
X164055523Y-93091141D01*
X164007904Y-92995903D01*
X163960285Y-92805427D01*
X163960285Y-92567332D01*
X164007904Y-92376856D01*
X164055523Y-92281618D01*
X164103142Y-92233999D01*
X164198380Y-92186379D01*
X165150761Y-92186379D02*
X165246000Y-92186379D01*
X165341238Y-92233999D01*
X165388857Y-92281618D01*
X165436476Y-92376856D01*
X165484095Y-92567332D01*
X165484095Y-92805427D01*
X165436476Y-92995903D01*
X165388857Y-93091141D01*
X165341238Y-93138760D01*
X165246000Y-93186379D01*
X165150761Y-93186379D01*
X165055523Y-93138760D01*
X165007904Y-93091141D01*
X164960285Y-92995903D01*
X164912666Y-92805427D01*
X164912666Y-92567332D01*
X164960285Y-92376856D01*
X165007904Y-92281618D01*
X165055523Y-92233999D01*
X165150761Y-92186379D01*
X166103142Y-92186379D02*
X166198380Y-92186379D01*
X166293619Y-92233999D01*
X166341238Y-92281618D01*
X166388857Y-92376856D01*
X166436476Y-92567332D01*
X166436476Y-92805427D01*
X166388857Y-92995903D01*
X166341238Y-93091141D01*
X166293619Y-93138760D01*
X166198380Y-93186379D01*
X166103142Y-93186379D01*
X166007904Y-93138760D01*
X165960285Y-93091141D01*
X165912666Y-92995903D01*
X165865047Y-92805427D01*
X165865047Y-92567332D01*
X165912666Y-92376856D01*
X165960285Y-92281618D01*
X166007904Y-92233999D01*
X166103142Y-92186379D01*
X167626952Y-93186379D02*
X167626952Y-92519713D01*
X167626952Y-92614951D02*
X167674571Y-92567332D01*
X167769809Y-92519713D01*
X167912666Y-92519713D01*
X168007904Y-92567332D01*
X168055523Y-92662570D01*
X168055523Y-93186379D01*
X168055523Y-92662570D02*
X168103142Y-92567332D01*
X168198380Y-92519713D01*
X168341238Y-92519713D01*
X168436476Y-92567332D01*
X168484095Y-92662570D01*
X168484095Y-93186379D01*
X168960285Y-93186379D02*
X168960285Y-92519713D01*
X168960285Y-92614951D02*
X169007904Y-92567332D01*
X169103142Y-92519713D01*
X169246000Y-92519713D01*
X169341238Y-92567332D01*
X169388857Y-92662570D01*
X169388857Y-93186379D01*
X169388857Y-92662570D02*
X169436476Y-92567332D01*
X169531714Y-92519713D01*
X169674571Y-92519713D01*
X169769809Y-92567332D01*
X169817428Y-92662570D01*
X169817428Y-93186379D01*
X160246000Y-91134000D02*
X160246000Y-94470419D01*
X170246000Y-91134000D02*
X170246000Y-94470419D01*
X160246000Y-93883999D02*
X170246000Y-93883999D01*
X160246000Y-93883999D02*
X170246000Y-93883999D01*
X160246000Y-93883999D02*
X161372504Y-94470420D01*
X160246000Y-93883999D02*
X161372504Y-93297578D01*
X170246000Y-93883999D02*
X169119496Y-93297578D01*
X170246000Y-93883999D02*
X169119496Y-94470420D01*
%TO.C,TSMP-*%
X204952380Y-93702380D02*
X204952380Y-93130952D01*
X205952380Y-93416666D02*
X204952380Y-93416666D01*
X205904761Y-92845238D02*
X205952380Y-92702380D01*
X205952380Y-92464285D01*
X205904761Y-92369047D01*
X205857142Y-92321428D01*
X205761904Y-92273809D01*
X205666666Y-92273809D01*
X205571428Y-92321428D01*
X205523809Y-92369047D01*
X205476190Y-92464285D01*
X205428571Y-92654761D01*
X205380952Y-92750000D01*
X205333333Y-92797619D01*
X205238095Y-92845238D01*
X205142857Y-92845238D01*
X205047619Y-92797619D01*
X205000000Y-92750000D01*
X204952380Y-92654761D01*
X204952380Y-92416666D01*
X205000000Y-92273809D01*
X205952380Y-91845238D02*
X204952380Y-91845238D01*
X205666666Y-91511904D01*
X204952380Y-91178571D01*
X205952380Y-91178571D01*
X205952380Y-90702380D02*
X204952380Y-90702380D01*
X204952380Y-90321428D01*
X205000000Y-90226190D01*
X205047619Y-90178571D01*
X205142857Y-90130952D01*
X205285714Y-90130952D01*
X205380952Y-90178571D01*
X205428571Y-90226190D01*
X205476190Y-90321428D01*
X205476190Y-90702380D01*
X205571428Y-89702380D02*
X205571428Y-88940476D01*
%TO.C,J5*%
X198666666Y-114097382D02*
X198666666Y-114811668D01*
X198619047Y-114954525D01*
X198523809Y-115049763D01*
X198380952Y-115097382D01*
X198285714Y-115097382D01*
X199619047Y-114097382D02*
X199142857Y-114097382D01*
X199095238Y-114573573D01*
X199142857Y-114525954D01*
X199238095Y-114478335D01*
X199476190Y-114478335D01*
X199571428Y-114525954D01*
X199619047Y-114573573D01*
X199666666Y-114668811D01*
X199666666Y-114906906D01*
X199619047Y-115002144D01*
X199571428Y-115049763D01*
X199476190Y-115097382D01*
X199238095Y-115097382D01*
X199142857Y-115049763D01*
X199095238Y-115002144D01*
%TO.C,J4*%
X184400167Y-64807379D02*
X184400167Y-65521665D01*
X184352548Y-65664522D01*
X184257310Y-65759760D01*
X184114453Y-65807379D01*
X184019215Y-65807379D01*
X185304929Y-65140713D02*
X185304929Y-65807379D01*
X185066834Y-64759760D02*
X184828739Y-65474046D01*
X185447786Y-65474046D01*
%TO.C,TSMP+*%
X193202380Y-93502380D02*
X193202380Y-92930952D01*
X194202380Y-93216666D02*
X193202380Y-93216666D01*
X194154761Y-92645238D02*
X194202380Y-92502380D01*
X194202380Y-92264285D01*
X194154761Y-92169047D01*
X194107142Y-92121428D01*
X194011904Y-92073809D01*
X193916666Y-92073809D01*
X193821428Y-92121428D01*
X193773809Y-92169047D01*
X193726190Y-92264285D01*
X193678571Y-92454761D01*
X193630952Y-92550000D01*
X193583333Y-92597619D01*
X193488095Y-92645238D01*
X193392857Y-92645238D01*
X193297619Y-92597619D01*
X193250000Y-92550000D01*
X193202380Y-92454761D01*
X193202380Y-92216666D01*
X193250000Y-92073809D01*
X194202380Y-91645238D02*
X193202380Y-91645238D01*
X193916666Y-91311904D01*
X193202380Y-90978571D01*
X194202380Y-90978571D01*
X194202380Y-90502380D02*
X193202380Y-90502380D01*
X193202380Y-90121428D01*
X193250000Y-90026190D01*
X193297619Y-89978571D01*
X193392857Y-89930952D01*
X193535714Y-89930952D01*
X193630952Y-89978571D01*
X193678571Y-90026190D01*
X193726190Y-90121428D01*
X193726190Y-90502380D01*
X193821428Y-89502380D02*
X193821428Y-88740476D01*
X194202380Y-89121428D02*
X193440476Y-89121428D01*
%TO.C,U6*%
X154001145Y-83925580D02*
X154001145Y-84735104D01*
X154048764Y-84830342D01*
X154096383Y-84877961D01*
X154191621Y-84925580D01*
X154382097Y-84925580D01*
X154477335Y-84877961D01*
X154524954Y-84830342D01*
X154572573Y-84735104D01*
X154572573Y-83925580D01*
X155477335Y-83925580D02*
X155286859Y-83925580D01*
X155191621Y-83973200D01*
X155144002Y-84020819D01*
X155048764Y-84163676D01*
X155001145Y-84354152D01*
X155001145Y-84735104D01*
X155048764Y-84830342D01*
X155096383Y-84877961D01*
X155191621Y-84925580D01*
X155382097Y-84925580D01*
X155477335Y-84877961D01*
X155524954Y-84830342D01*
X155572573Y-84735104D01*
X155572573Y-84497009D01*
X155524954Y-84401771D01*
X155477335Y-84354152D01*
X155382097Y-84306533D01*
X155191621Y-84306533D01*
X155096383Y-84354152D01*
X155048764Y-84401771D01*
X155001145Y-84497009D01*
X150807488Y-82452380D02*
X150807488Y-83166666D01*
X150759869Y-83309523D01*
X150664630Y-83404761D01*
X150521773Y-83452380D01*
X150426535Y-83452380D01*
X151950345Y-83547619D02*
X151855107Y-83500000D01*
X151759869Y-83404761D01*
X151617011Y-83261904D01*
X151521773Y-83214285D01*
X151426535Y-83214285D01*
X151474154Y-83452380D02*
X151378916Y-83404761D01*
X151283678Y-83309523D01*
X151236059Y-83119047D01*
X151236059Y-82785714D01*
X151283678Y-82595238D01*
X151378916Y-82500000D01*
X151474154Y-82452380D01*
X151664630Y-82452380D01*
X151759869Y-82500000D01*
X151855107Y-82595238D01*
X151902726Y-82785714D01*
X151902726Y-83119047D01*
X151855107Y-83309523D01*
X151759869Y-83404761D01*
X151664630Y-83452380D01*
X151474154Y-83452380D01*
X152855107Y-83452380D02*
X152283678Y-83452380D01*
X152569392Y-83452380D02*
X152569392Y-82452380D01*
X152474154Y-82595238D01*
X152378916Y-82690476D01*
X152283678Y-82738095D01*
X153283678Y-83071428D02*
X154045583Y-83071428D01*
X155045583Y-83452380D02*
X154474154Y-83452380D01*
X154759869Y-83452380D02*
X154759869Y-82452380D01*
X154664630Y-82595238D01*
X154569392Y-82690476D01*
X154474154Y-82738095D01*
X155426535Y-82547619D02*
X155474154Y-82500000D01*
X155569392Y-82452380D01*
X155807488Y-82452380D01*
X155902726Y-82500000D01*
X155950345Y-82547619D01*
X155997964Y-82642857D01*
X155997964Y-82738095D01*
X155950345Y-82880952D01*
X155378916Y-83452380D01*
X155997964Y-83452380D01*
X156283678Y-82452380D02*
X156617011Y-83452380D01*
X156950345Y-82452380D01*
X157283678Y-83071428D02*
X158045583Y-83071428D01*
X158855107Y-82928571D02*
X158521773Y-82928571D01*
X158521773Y-83452380D02*
X158521773Y-82452380D01*
X158997964Y-82452380D01*
%TO.C,J2*%
X173416666Y-65202380D02*
X173416666Y-65916666D01*
X173369047Y-66059523D01*
X173273809Y-66154761D01*
X173130952Y-66202380D01*
X173035714Y-66202380D01*
X173845238Y-65297619D02*
X173892857Y-65250000D01*
X173988095Y-65202380D01*
X174226190Y-65202380D01*
X174321428Y-65250000D01*
X174369047Y-65297619D01*
X174416666Y-65392857D01*
X174416666Y-65488095D01*
X174369047Y-65630952D01*
X173797619Y-66202380D01*
X174416666Y-66202380D01*
D13*
%TO.C,RELAY_DISCHARGE1*%
X178824523Y-112103809D02*
X178219761Y-112527142D01*
X178824523Y-112829523D02*
X177554523Y-112829523D01*
X177554523Y-112345714D01*
X177615000Y-112224761D01*
X177675476Y-112164285D01*
X177796428Y-112103809D01*
X177977857Y-112103809D01*
X178098809Y-112164285D01*
X178159285Y-112224761D01*
X178219761Y-112345714D01*
X178219761Y-112829523D01*
X178159285Y-111559523D02*
X178159285Y-111136190D01*
X178824523Y-110954761D02*
X178824523Y-111559523D01*
X177554523Y-111559523D01*
X177554523Y-110954761D01*
X178824523Y-109805714D02*
X178824523Y-110410476D01*
X177554523Y-110410476D01*
X178461666Y-109442857D02*
X178461666Y-108838095D01*
X178824523Y-109563809D02*
X177554523Y-109140476D01*
X178824523Y-108717142D01*
X178219761Y-108051904D02*
X178824523Y-108051904D01*
X177554523Y-108475238D02*
X178219761Y-108051904D01*
X177554523Y-107628571D01*
X178945476Y-107507619D02*
X178945476Y-106540000D01*
X178824523Y-106237619D02*
X177554523Y-106237619D01*
X177554523Y-105935238D01*
X177615000Y-105753809D01*
X177735952Y-105632857D01*
X177856904Y-105572380D01*
X178098809Y-105511904D01*
X178280238Y-105511904D01*
X178522142Y-105572380D01*
X178643095Y-105632857D01*
X178764047Y-105753809D01*
X178824523Y-105935238D01*
X178824523Y-106237619D01*
X178824523Y-104967619D02*
X177554523Y-104967619D01*
X178764047Y-104423333D02*
X178824523Y-104241904D01*
X178824523Y-103939523D01*
X178764047Y-103818571D01*
X178703571Y-103758095D01*
X178582619Y-103697619D01*
X178461666Y-103697619D01*
X178340714Y-103758095D01*
X178280238Y-103818571D01*
X178219761Y-103939523D01*
X178159285Y-104181428D01*
X178098809Y-104302380D01*
X178038333Y-104362857D01*
X177917380Y-104423333D01*
X177796428Y-104423333D01*
X177675476Y-104362857D01*
X177615000Y-104302380D01*
X177554523Y-104181428D01*
X177554523Y-103879047D01*
X177615000Y-103697619D01*
X178703571Y-102427619D02*
X178764047Y-102488095D01*
X178824523Y-102669523D01*
X178824523Y-102790476D01*
X178764047Y-102971904D01*
X178643095Y-103092857D01*
X178522142Y-103153333D01*
X178280238Y-103213809D01*
X178098809Y-103213809D01*
X177856904Y-103153333D01*
X177735952Y-103092857D01*
X177615000Y-102971904D01*
X177554523Y-102790476D01*
X177554523Y-102669523D01*
X177615000Y-102488095D01*
X177675476Y-102427619D01*
X178824523Y-101883333D02*
X177554523Y-101883333D01*
X178159285Y-101883333D02*
X178159285Y-101157619D01*
X178824523Y-101157619D02*
X177554523Y-101157619D01*
X178461666Y-100613333D02*
X178461666Y-100008571D01*
X178824523Y-100734285D02*
X177554523Y-100310952D01*
X178824523Y-99887619D01*
X178824523Y-98738571D02*
X178219761Y-99161904D01*
X178824523Y-99464285D02*
X177554523Y-99464285D01*
X177554523Y-98980476D01*
X177615000Y-98859523D01*
X177675476Y-98799047D01*
X177796428Y-98738571D01*
X177977857Y-98738571D01*
X178098809Y-98799047D01*
X178159285Y-98859523D01*
X178219761Y-98980476D01*
X178219761Y-99464285D01*
X177615000Y-97529047D02*
X177554523Y-97650000D01*
X177554523Y-97831428D01*
X177615000Y-98012857D01*
X177735952Y-98133809D01*
X177856904Y-98194285D01*
X178098809Y-98254761D01*
X178280238Y-98254761D01*
X178522142Y-98194285D01*
X178643095Y-98133809D01*
X178764047Y-98012857D01*
X178824523Y-97831428D01*
X178824523Y-97710476D01*
X178764047Y-97529047D01*
X178703571Y-97468571D01*
X178280238Y-97468571D01*
X178280238Y-97710476D01*
X178159285Y-96924285D02*
X178159285Y-96500952D01*
X178824523Y-96319523D02*
X178824523Y-96924285D01*
X177554523Y-96924285D01*
X177554523Y-96319523D01*
X178824523Y-95110000D02*
X178824523Y-95835714D01*
X178824523Y-95472857D02*
X177554523Y-95472857D01*
X177735952Y-95593809D01*
X177856904Y-95714761D01*
X177917380Y-95835714D01*
D10*
%TO.C,U1*%
X160611380Y-64134904D02*
X161420904Y-64134904D01*
X161516142Y-64087285D01*
X161563761Y-64039666D01*
X161611380Y-63944428D01*
X161611380Y-63753952D01*
X161563761Y-63658714D01*
X161516142Y-63611095D01*
X161420904Y-63563476D01*
X160611380Y-63563476D01*
X161611380Y-62563476D02*
X161611380Y-63134904D01*
X161611380Y-62849190D02*
X160611380Y-62849190D01*
X160754238Y-62944428D01*
X160849476Y-63039666D01*
X160897095Y-63134904D01*
%TO.C,J1*%
X147912666Y-106711380D02*
X147912666Y-107425666D01*
X147865047Y-107568523D01*
X147769809Y-107663761D01*
X147626952Y-107711380D01*
X147531714Y-107711380D01*
X148912666Y-107711380D02*
X148341238Y-107711380D01*
X148626952Y-107711380D02*
X148626952Y-106711380D01*
X148531714Y-106854238D01*
X148436476Y-106949476D01*
X148341238Y-106997095D01*
%TO.C,J3*%
X175166666Y-77827380D02*
X175166666Y-78541666D01*
X175119047Y-78684523D01*
X175023809Y-78779761D01*
X174880952Y-78827380D01*
X174785714Y-78827380D01*
X175547619Y-77827380D02*
X176166666Y-77827380D01*
X175833333Y-78208333D01*
X175976190Y-78208333D01*
X176071428Y-78255952D01*
X176119047Y-78303571D01*
X176166666Y-78398809D01*
X176166666Y-78636904D01*
X176119047Y-78732142D01*
X176071428Y-78779761D01*
X175976190Y-78827380D01*
X175690476Y-78827380D01*
X175595238Y-78779761D01*
X175547619Y-78732142D01*
D13*
%TO.C,Fan Relay*%
X140655285Y-84530666D02*
X140655285Y-84954000D01*
X141320523Y-84954000D02*
X140050523Y-84954000D01*
X140050523Y-84349238D01*
X141320523Y-83321142D02*
X140655285Y-83321142D01*
X140534333Y-83381619D01*
X140473857Y-83502571D01*
X140473857Y-83744476D01*
X140534333Y-83865428D01*
X141260047Y-83321142D02*
X141320523Y-83442095D01*
X141320523Y-83744476D01*
X141260047Y-83865428D01*
X141139095Y-83925904D01*
X141018142Y-83925904D01*
X140897190Y-83865428D01*
X140836714Y-83744476D01*
X140836714Y-83442095D01*
X140776238Y-83321142D01*
X140473857Y-82716380D02*
X141320523Y-82716380D01*
X140594809Y-82716380D02*
X140534333Y-82655904D01*
X140473857Y-82534952D01*
X140473857Y-82353523D01*
X140534333Y-82232571D01*
X140655285Y-82172095D01*
X141320523Y-82172095D01*
X141320523Y-79874000D02*
X140715761Y-80297333D01*
X141320523Y-80599714D02*
X140050523Y-80599714D01*
X140050523Y-80115904D01*
X140111000Y-79994952D01*
X140171476Y-79934476D01*
X140292428Y-79874000D01*
X140473857Y-79874000D01*
X140594809Y-79934476D01*
X140655285Y-79994952D01*
X140715761Y-80115904D01*
X140715761Y-80599714D01*
X141260047Y-78845904D02*
X141320523Y-78966857D01*
X141320523Y-79208761D01*
X141260047Y-79329714D01*
X141139095Y-79390190D01*
X140655285Y-79390190D01*
X140534333Y-79329714D01*
X140473857Y-79208761D01*
X140473857Y-78966857D01*
X140534333Y-78845904D01*
X140655285Y-78785428D01*
X140776238Y-78785428D01*
X140897190Y-79390190D01*
X141320523Y-78059714D02*
X141260047Y-78180666D01*
X141139095Y-78241142D01*
X140050523Y-78241142D01*
X141320523Y-77031619D02*
X140655285Y-77031619D01*
X140534333Y-77092095D01*
X140473857Y-77213047D01*
X140473857Y-77454952D01*
X140534333Y-77575904D01*
X141260047Y-77031619D02*
X141320523Y-77152571D01*
X141320523Y-77454952D01*
X141260047Y-77575904D01*
X141139095Y-77636380D01*
X141018142Y-77636380D01*
X140897190Y-77575904D01*
X140836714Y-77454952D01*
X140836714Y-77152571D01*
X140776238Y-77031619D01*
X140473857Y-76547809D02*
X141320523Y-76245428D01*
X140473857Y-75943047D02*
X141320523Y-76245428D01*
X141622904Y-76366380D01*
X141683380Y-76426857D01*
X141743857Y-76547809D01*
D14*
%TO.C,TSMP-*%
X208820000Y-101370000D02*
X208820000Y-81130000D01*
X208820000Y-81130000D02*
X202180000Y-81130000D01*
X205500000Y-102510000D02*
X205500000Y-101370000D01*
X202180000Y-101370000D02*
X208820000Y-101370000D01*
X205500000Y-79990000D02*
X205500000Y-81130000D01*
X202180000Y-81130000D02*
X202180000Y-101370000D01*
%TO.C,J5*%
X202645027Y-114165011D02*
X202645027Y-117225000D01*
X195354973Y-114165011D02*
X195000008Y-114165011D01*
X195354973Y-117225000D02*
X195354973Y-114165011D01*
X202999992Y-108815002D02*
X202999992Y-114165011D01*
X195000008Y-114165011D02*
X195000008Y-108815002D01*
X199874355Y-108815002D02*
X202999992Y-108815002D01*
X202999992Y-114176441D02*
X202645027Y-114165011D01*
X195000008Y-108815002D02*
X198125652Y-108815002D01*
X202645027Y-117225000D02*
X195354973Y-117225000D01*
%TO.C,J4*%
X188749992Y-66334990D02*
X188749992Y-71684999D01*
X188395027Y-66334990D02*
X188749992Y-66334990D01*
X181104973Y-63275001D02*
X188395027Y-63275001D01*
X183875645Y-71684999D02*
X180750008Y-71684999D01*
X181104973Y-66334990D02*
X181104973Y-63275001D01*
X188395027Y-63275001D02*
X188395027Y-66334990D01*
X188749992Y-71684999D02*
X185624348Y-71684999D01*
X180750008Y-66323560D02*
X181104973Y-66334990D01*
X180750008Y-71684999D02*
X180750008Y-66334990D01*
%TO.C,TSMP+*%
X190430000Y-80930000D02*
X190430000Y-101170000D01*
X190430000Y-101170000D02*
X197070000Y-101170000D01*
X193750000Y-102310000D02*
X193750000Y-101170000D01*
X193750000Y-79790000D02*
X193750000Y-80930000D01*
X197070000Y-101170000D02*
X197070000Y-80930000D01*
X197070000Y-80930000D02*
X190430000Y-80930000D01*
%TO.C,G\u002A\u002A\u002A*%
G36*
X205615583Y-68626344D02*
G01*
X205616355Y-68634001D01*
X205615583Y-68634946D01*
X205611747Y-68634061D01*
X205611281Y-68630645D01*
X205613642Y-68625335D01*
X205615583Y-68626344D01*
G37*
G36*
X208341006Y-67472581D02*
G01*
X208337780Y-67475807D01*
X208334553Y-67472581D01*
X208337780Y-67469355D01*
X208341006Y-67472581D01*
G37*
G36*
X210377697Y-68035359D02*
G01*
X210378881Y-68012771D01*
X210380908Y-67996379D01*
X210383994Y-67983949D01*
X210388352Y-67973245D01*
X210390288Y-67969355D01*
X210409952Y-67943779D01*
X210436676Y-67926254D01*
X210467754Y-67916789D01*
X210500475Y-67915397D01*
X210532134Y-67922088D01*
X210560022Y-67936874D01*
X210581430Y-67959765D01*
X210586350Y-67968554D01*
X210591312Y-67980060D01*
X210594874Y-67992435D01*
X210597263Y-68008000D01*
X210598703Y-68029077D01*
X210599421Y-68057985D01*
X210599641Y-68097048D01*
X210599645Y-68105509D01*
X210599520Y-68146249D01*
X210598982Y-68176428D01*
X210597785Y-68198389D01*
X210595682Y-68214471D01*
X210592429Y-68227018D01*
X210587779Y-68238371D01*
X210585125Y-68243794D01*
X210567490Y-68269203D01*
X210543853Y-68285498D01*
X210512263Y-68293691D01*
X210486054Y-68295151D01*
X210458599Y-68293605D01*
X210438520Y-68288114D01*
X210425097Y-68280623D01*
X210409055Y-68268740D01*
X210397003Y-68256309D01*
X210388383Y-68241319D01*
X210382633Y-68221763D01*
X210379195Y-68195633D01*
X210377508Y-68160919D01*
X210377014Y-68115612D01*
X210377007Y-68108065D01*
X210377023Y-68103327D01*
X210454447Y-68103327D01*
X210454723Y-68147041D01*
X210455853Y-68179504D01*
X210458290Y-68202361D01*
X210462486Y-68217257D01*
X210468892Y-68225840D01*
X210477962Y-68229753D01*
X210489439Y-68230645D01*
X210505326Y-68227911D01*
X210514462Y-68222903D01*
X210517720Y-68214329D01*
X210520053Y-68195546D01*
X210521516Y-68165754D01*
X210522163Y-68124151D01*
X210522206Y-68107235D01*
X210522018Y-68066096D01*
X210521346Y-68035969D01*
X210520029Y-68014968D01*
X210517903Y-68001206D01*
X210514808Y-67992796D01*
X210512065Y-67989171D01*
X210494979Y-67979857D01*
X210475685Y-67982966D01*
X210466973Y-67988190D01*
X210462310Y-67992528D01*
X210458967Y-67998983D01*
X210456728Y-68009551D01*
X210455375Y-68026228D01*
X210454692Y-68051008D01*
X210454461Y-68085887D01*
X210454447Y-68103327D01*
X210377023Y-68103327D01*
X210377144Y-68066379D01*
X210377697Y-68035359D01*
G37*
G36*
X218411200Y-67920879D02*
G01*
X218427254Y-67931479D01*
X218447418Y-67948442D01*
X218463762Y-67933092D01*
X218482626Y-67922540D01*
X218507906Y-67917303D01*
X218534667Y-67917526D01*
X218557974Y-67923354D01*
X218568697Y-67930000D01*
X218576603Y-67938822D01*
X218582804Y-67950350D01*
X218587498Y-67966120D01*
X218590878Y-67987671D01*
X218593140Y-68016538D01*
X218594478Y-68054260D01*
X218595089Y-68102373D01*
X218595188Y-68138710D01*
X218595224Y-68288710D01*
X218517785Y-68288710D01*
X218517785Y-68144009D01*
X218517669Y-68096015D01*
X218517249Y-68059305D01*
X218516420Y-68032265D01*
X218515077Y-68013278D01*
X218513112Y-68000729D01*
X218510421Y-67992999D01*
X218507644Y-67989171D01*
X218493356Y-67980019D01*
X218478210Y-67982456D01*
X218469006Y-67988182D01*
X218464938Y-67991939D01*
X218461813Y-67997610D01*
X218459471Y-68006859D01*
X218457757Y-68021349D01*
X218456511Y-68042743D01*
X218455576Y-68072703D01*
X218454795Y-68112892D01*
X218454329Y-68143021D01*
X218452179Y-68288710D01*
X218383154Y-68288710D01*
X218381097Y-68144525D01*
X218380207Y-68093846D01*
X218378980Y-68054626D01*
X218377147Y-68025421D01*
X218374438Y-68004784D01*
X218370583Y-67991272D01*
X218365313Y-67983439D01*
X218358359Y-67979843D01*
X218350210Y-67979032D01*
X218337411Y-67983537D01*
X218328414Y-67990831D01*
X218324879Y-67996178D01*
X218322205Y-68004488D01*
X218320279Y-68017433D01*
X218318985Y-68036689D01*
X218318206Y-68063929D01*
X218317828Y-68100828D01*
X218317734Y-68145669D01*
X218317734Y-68288710D01*
X218240295Y-68288710D01*
X218240295Y-67920968D01*
X218274802Y-67920968D01*
X218295785Y-67921786D01*
X218307788Y-67925142D01*
X218314681Y-67932390D01*
X218316311Y-67935484D01*
X218321545Y-67943552D01*
X218323751Y-67942101D01*
X218329971Y-67932799D01*
X218344928Y-67923868D01*
X218364536Y-67917157D01*
X218384678Y-67914516D01*
X218411200Y-67920879D01*
G37*
G36*
X212360788Y-67916914D02*
G01*
X212386113Y-67928205D01*
X212404428Y-67950300D01*
X212407231Y-67955960D01*
X212411078Y-67965704D01*
X212414015Y-67977021D01*
X212416163Y-67991716D01*
X212417644Y-68011592D01*
X212418580Y-68038452D01*
X212419091Y-68074101D01*
X212419299Y-68120341D01*
X212419320Y-68135484D01*
X212419462Y-68288710D01*
X212342023Y-68288710D01*
X212342023Y-68144009D01*
X212341906Y-68096015D01*
X212341487Y-68059305D01*
X212340658Y-68032265D01*
X212339315Y-68013278D01*
X212337350Y-68000729D01*
X212334659Y-67992999D01*
X212331882Y-67989171D01*
X212314937Y-67979926D01*
X212296449Y-67982819D01*
X212283943Y-67991936D01*
X212279719Y-67996872D01*
X212276530Y-68003261D01*
X212274232Y-68012840D01*
X212272681Y-68027344D01*
X212271731Y-68048512D01*
X212271237Y-68078081D01*
X212271056Y-68117787D01*
X212271037Y-68146774D01*
X212271037Y-68288710D01*
X212193598Y-68288710D01*
X212193598Y-67920968D01*
X212229695Y-67920968D01*
X212250844Y-67921632D01*
X212262476Y-67924371D01*
X212267943Y-67930308D01*
X212269255Y-67934206D01*
X212272718Y-67947445D01*
X212287376Y-67933678D01*
X212303484Y-67923777D01*
X212324380Y-67917039D01*
X212328360Y-67916380D01*
X212360788Y-67916914D01*
G37*
G36*
X217381118Y-68045290D02*
G01*
X217387460Y-68084827D01*
X217393056Y-68120866D01*
X217397567Y-68151134D01*
X217400655Y-68173359D01*
X217401981Y-68185268D01*
X217401998Y-68185613D01*
X217403236Y-68184318D01*
X217406361Y-68171862D01*
X217411050Y-68149795D01*
X217416981Y-68119671D01*
X217423832Y-68083040D01*
X217427478Y-68062903D01*
X217434746Y-68022350D01*
X217441206Y-67986325D01*
X217446527Y-67956677D01*
X217450376Y-67935254D01*
X217452423Y-67923902D01*
X217452665Y-67922581D01*
X217458712Y-67921720D01*
X217474051Y-67921135D01*
X217490768Y-67920968D01*
X217528538Y-67920968D01*
X217481813Y-68129690D01*
X217466925Y-68195443D01*
X217454200Y-68249715D01*
X217443264Y-68293677D01*
X217433746Y-68328502D01*
X217425276Y-68355361D01*
X217417481Y-68375424D01*
X217409991Y-68389864D01*
X217402433Y-68399853D01*
X217394437Y-68406561D01*
X217393909Y-68406901D01*
X217373996Y-68415009D01*
X217347929Y-68420051D01*
X217322301Y-68420981D01*
X217312640Y-68419775D01*
X217303856Y-68416360D01*
X217299534Y-68408368D01*
X217298175Y-68392209D01*
X217298120Y-68385035D01*
X217298505Y-68366115D01*
X217301177Y-68356743D01*
X217308412Y-68353564D01*
X217319706Y-68353226D01*
X217342594Y-68347941D01*
X217357387Y-68333048D01*
X217362653Y-68309993D01*
X217362653Y-68309935D01*
X217361298Y-68299992D01*
X217357522Y-68279469D01*
X217351756Y-68250367D01*
X217344431Y-68214691D01*
X217335979Y-68174443D01*
X217326832Y-68131627D01*
X217317420Y-68088245D01*
X217308176Y-68046302D01*
X217299531Y-68007799D01*
X217291917Y-67974741D01*
X217285764Y-67949129D01*
X217281505Y-67932968D01*
X217281294Y-67932258D01*
X217280917Y-67926132D01*
X217286148Y-67922714D01*
X217299539Y-67921247D01*
X217319377Y-67920968D01*
X217360864Y-67920968D01*
X217381118Y-68045290D01*
G37*
G36*
X205624187Y-68614516D02*
G01*
X205620961Y-68617742D01*
X205617734Y-68614516D01*
X205620961Y-68611291D01*
X205624187Y-68614516D01*
G37*
G36*
X216905704Y-72358099D02*
G01*
X216934682Y-72368456D01*
X216959392Y-72387229D01*
X216977674Y-72413486D01*
X216987371Y-72446295D01*
X216988364Y-72461742D01*
X216982498Y-72492455D01*
X216966518Y-72518700D01*
X216942847Y-72539061D01*
X216913910Y-72552125D01*
X216882133Y-72556476D01*
X216849940Y-72550700D01*
X216841686Y-72547311D01*
X216813263Y-72527764D01*
X216794211Y-72501511D01*
X216784967Y-72471162D01*
X216785969Y-72439327D01*
X216797656Y-72408612D01*
X216814752Y-72386835D01*
X216843580Y-72366357D01*
X216874617Y-72357088D01*
X216905704Y-72358099D01*
G37*
G36*
X208316119Y-67459862D02*
G01*
X208321647Y-67462903D01*
X208326812Y-67468015D01*
X208324873Y-67469157D01*
X208314268Y-67465945D01*
X208308740Y-67462903D01*
X208303575Y-67457791D01*
X208305514Y-67456649D01*
X208316119Y-67459862D01*
G37*
G36*
X217974330Y-68009947D02*
G01*
X217978678Y-67984470D01*
X217985399Y-67965361D01*
X217995120Y-67950448D01*
X218008473Y-67937554D01*
X218015564Y-67932032D01*
X218039739Y-67920738D01*
X218070579Y-67915784D01*
X218103316Y-67917522D01*
X218127223Y-67923797D01*
X218149253Y-67934580D01*
X218165273Y-67948947D01*
X218176238Y-67968964D01*
X218183101Y-67996700D01*
X218186818Y-68034220D01*
X218187717Y-68054839D01*
X218190062Y-68127420D01*
X218046698Y-68127420D01*
X218046698Y-68171581D01*
X218047539Y-68197560D01*
X218050540Y-68214041D01*
X218056417Y-68224346D01*
X218058499Y-68226420D01*
X218075926Y-68235632D01*
X218092403Y-68233626D01*
X218105073Y-68221947D01*
X218111077Y-68202138D01*
X218111230Y-68197926D01*
X218111752Y-68187550D01*
X218115324Y-68181902D01*
X218124957Y-68179544D01*
X218143661Y-68179038D01*
X218150774Y-68179032D01*
X218190319Y-68179032D01*
X218185938Y-68206419D01*
X218175247Y-68243134D01*
X218156379Y-68269908D01*
X218129116Y-68286924D01*
X218093234Y-68294363D01*
X218078964Y-68294742D01*
X218055683Y-68293344D01*
X218035352Y-68290214D01*
X218027341Y-68287913D01*
X218008377Y-68278038D01*
X217993738Y-68264366D01*
X217982992Y-68245389D01*
X217975706Y-68219599D01*
X217971449Y-68185489D01*
X217969788Y-68141551D01*
X217970235Y-68088710D01*
X217970880Y-68069355D01*
X218046698Y-68069355D01*
X218117683Y-68069355D01*
X218117683Y-68040626D01*
X218115126Y-68009996D01*
X218107061Y-67990299D01*
X218092902Y-67980536D01*
X218081382Y-67979032D01*
X218064198Y-67982081D01*
X218053426Y-67992439D01*
X218047971Y-68011924D01*
X218046698Y-68036673D01*
X218046698Y-68069355D01*
X217970880Y-68069355D01*
X217971726Y-68043969D01*
X217974330Y-68009947D01*
G37*
G36*
X208360366Y-67479032D02*
G01*
X208357140Y-67482258D01*
X208353913Y-67479032D01*
X208357140Y-67475807D01*
X208360366Y-67479032D01*
G37*
G36*
X217680234Y-67917729D02*
G01*
X217708303Y-67928523D01*
X217730419Y-67947081D01*
X217738545Y-67959678D01*
X217746016Y-67981537D01*
X217749743Y-68005969D01*
X217749838Y-68009678D01*
X217749848Y-68037097D01*
X217678862Y-68037097D01*
X217678862Y-68015306D01*
X217674639Y-67993813D01*
X217662531Y-67981904D01*
X217645338Y-67980150D01*
X217635562Y-67983510D01*
X217631304Y-67992422D01*
X217630463Y-68007736D01*
X217631670Y-68023535D01*
X217637080Y-68035159D01*
X217649378Y-68046946D01*
X217659502Y-68054665D01*
X217694444Y-68081223D01*
X217719923Y-68102960D01*
X217737388Y-68121950D01*
X217748285Y-68140267D01*
X217754062Y-68159986D01*
X217756164Y-68183181D01*
X217756301Y-68193442D01*
X217751563Y-68231513D01*
X217737416Y-68260763D01*
X217713965Y-68281093D01*
X217681313Y-68292406D01*
X217649923Y-68294909D01*
X217625067Y-68293321D01*
X217602418Y-68289505D01*
X217591436Y-68286092D01*
X217568276Y-68269562D01*
X217552916Y-68243301D01*
X217545142Y-68207490D01*
X217541538Y-68172581D01*
X217620783Y-68172581D01*
X217620783Y-68194701D01*
X217624417Y-68214336D01*
X217633601Y-68229792D01*
X217645762Y-68236982D01*
X217647481Y-68237097D01*
X217665472Y-68231547D01*
X217676410Y-68216343D01*
X217678862Y-68200962D01*
X217677130Y-68180720D01*
X217670472Y-68164789D01*
X217656700Y-68149961D01*
X217633623Y-68133031D01*
X217631508Y-68131621D01*
X217600613Y-68108307D01*
X217575488Y-68083812D01*
X217558358Y-68060533D01*
X217552321Y-68046272D01*
X217550031Y-68021701D01*
X217552950Y-67993539D01*
X217560106Y-67967765D01*
X217567293Y-67954102D01*
X217589741Y-67932884D01*
X217618009Y-67919813D01*
X217649155Y-67914793D01*
X217680234Y-67917729D01*
G37*
G36*
X213528827Y-67916914D02*
G01*
X213554151Y-67928205D01*
X213572467Y-67950300D01*
X213575270Y-67955960D01*
X213579117Y-67965704D01*
X213582053Y-67977021D01*
X213584202Y-67991716D01*
X213585683Y-68011592D01*
X213586618Y-68038452D01*
X213587129Y-68074101D01*
X213587338Y-68120341D01*
X213587359Y-68135484D01*
X213587500Y-68288710D01*
X213510061Y-68288710D01*
X213510061Y-68144009D01*
X213509945Y-68096015D01*
X213509525Y-68059305D01*
X213508697Y-68032265D01*
X213507353Y-68013278D01*
X213505389Y-68000729D01*
X213502698Y-67992999D01*
X213499921Y-67989171D01*
X213482833Y-67979857D01*
X213463533Y-67982965D01*
X213454829Y-67988180D01*
X213450763Y-67991928D01*
X213447643Y-67997576D01*
X213445312Y-68006787D01*
X213443616Y-68021225D01*
X213442398Y-68042552D01*
X213441504Y-68072432D01*
X213440777Y-68112528D01*
X213440346Y-68143019D01*
X213438389Y-68288710D01*
X213361637Y-68288710D01*
X213361637Y-67920968D01*
X213397734Y-67920968D01*
X213418883Y-67921632D01*
X213430514Y-67924371D01*
X213435981Y-67930308D01*
X213437293Y-67934206D01*
X213440756Y-67947445D01*
X213455415Y-67933678D01*
X213471523Y-67923777D01*
X213492419Y-67917039D01*
X213496399Y-67916380D01*
X213528827Y-67916914D01*
G37*
G36*
X205950292Y-69270019D02*
G01*
X205975397Y-69281954D01*
X205996685Y-69301587D01*
X206014901Y-69330425D01*
X206028769Y-69364896D01*
X206037013Y-69401427D01*
X206038359Y-69436445D01*
X206036112Y-69451971D01*
X206022123Y-69488804D01*
X205999227Y-69519048D01*
X205969609Y-69541430D01*
X205935453Y-69554677D01*
X205898943Y-69557517D01*
X205866989Y-69550540D01*
X205835764Y-69532620D01*
X205808726Y-69505082D01*
X205787916Y-69471030D01*
X205775377Y-69433569D01*
X205772612Y-69406958D01*
X205778105Y-69367056D01*
X205793339Y-69332017D01*
X205816447Y-69302989D01*
X205845563Y-69281125D01*
X205878820Y-69267575D01*
X205914352Y-69263490D01*
X205950292Y-69270019D01*
G37*
G36*
X211646201Y-68082258D02*
G01*
X211647520Y-68037948D01*
X211649767Y-68004427D01*
X211653547Y-67979585D01*
X211659465Y-67961313D01*
X211668126Y-67947501D01*
X211680135Y-67936038D01*
X211690244Y-67928698D01*
X211708693Y-67918680D01*
X211727620Y-67915463D01*
X211743549Y-67916226D01*
X211764812Y-67920336D01*
X211782328Y-67927332D01*
X211786974Y-67930583D01*
X211796565Y-67938107D01*
X211801385Y-67936617D01*
X211803732Y-67931524D01*
X211810473Y-67924628D01*
X211825576Y-67921435D01*
X211839759Y-67920968D01*
X211871735Y-67920968D01*
X211869722Y-68132258D01*
X211869121Y-68190519D01*
X211868485Y-68237344D01*
X211867723Y-68274200D01*
X211866740Y-68302556D01*
X211865446Y-68323878D01*
X211863747Y-68339633D01*
X211861552Y-68351290D01*
X211858767Y-68360316D01*
X211855301Y-68368177D01*
X211854802Y-68369175D01*
X211842025Y-68388143D01*
X211826324Y-68403409D01*
X211822317Y-68406052D01*
X211798670Y-68414930D01*
X211768261Y-68420108D01*
X211736847Y-68421029D01*
X211710182Y-68417135D01*
X211709604Y-68416965D01*
X211690659Y-68409319D01*
X211675479Y-68400003D01*
X211674834Y-68399451D01*
X211661546Y-68382383D01*
X211650637Y-68359436D01*
X211645222Y-68337456D01*
X211645072Y-68334078D01*
X211646431Y-68326763D01*
X211652483Y-68322810D01*
X211666189Y-68321217D01*
X211683791Y-68320968D01*
X211705601Y-68321517D01*
X211717385Y-68323736D01*
X211721997Y-68328480D01*
X211722511Y-68332581D01*
X211728007Y-68348953D01*
X211743288Y-68358181D01*
X211755702Y-68359678D01*
X211774293Y-68354524D01*
X211786540Y-68338809D01*
X211792661Y-68312150D01*
X211793496Y-68293258D01*
X211793496Y-68255515D01*
X211776493Y-68268887D01*
X211756664Y-68278919D01*
X211729460Y-68282248D01*
X211727448Y-68282258D01*
X211705938Y-68280917D01*
X211690811Y-68275191D01*
X211675678Y-68262522D01*
X211674045Y-68260902D01*
X211663912Y-68249385D01*
X211656322Y-68236567D01*
X211650978Y-68220540D01*
X211647583Y-68199397D01*
X211645840Y-68171230D01*
X211645451Y-68134134D01*
X211645943Y-68098811D01*
X211722511Y-68098811D01*
X211722959Y-68133949D01*
X211724195Y-68164765D01*
X211726056Y-68188673D01*
X211728381Y-68203089D01*
X211729191Y-68205263D01*
X211741001Y-68215508D01*
X211757762Y-68217661D01*
X211774511Y-68211891D01*
X211783450Y-68203403D01*
X211787683Y-68194582D01*
X211790602Y-68180867D01*
X211792408Y-68160154D01*
X211793302Y-68130341D01*
X211793496Y-68098387D01*
X211793188Y-68059744D01*
X211792130Y-68031889D01*
X211790121Y-68012720D01*
X211786960Y-68000134D01*
X211783450Y-67993371D01*
X211768774Y-67981156D01*
X211751655Y-67981148D01*
X211735417Y-67991936D01*
X211730339Y-67998073D01*
X211726791Y-68006112D01*
X211724504Y-68018284D01*
X211723208Y-68036820D01*
X211722634Y-68063953D01*
X211722511Y-68098811D01*
X211645943Y-68098811D01*
X211646119Y-68086201D01*
X211646201Y-68082258D01*
G37*
G36*
X208219283Y-67514307D02*
G01*
X208324518Y-67532681D01*
X208430546Y-67562655D01*
X208536522Y-67603699D01*
X208641598Y-67655283D01*
X208744928Y-67716876D01*
X208845668Y-67787947D01*
X208942969Y-67867966D01*
X209035987Y-67956402D01*
X209123875Y-68052725D01*
X209205786Y-68156404D01*
X209249956Y-68219301D01*
X209274026Y-68257308D01*
X209299489Y-68301266D01*
X209324897Y-68348319D01*
X209348796Y-68395608D01*
X209369736Y-68440278D01*
X209386267Y-68479470D01*
X209395799Y-68506452D01*
X209397343Y-68513012D01*
X209395713Y-68517221D01*
X209388726Y-68519600D01*
X209374196Y-68520672D01*
X209349941Y-68520957D01*
X209335040Y-68520968D01*
X209302214Y-68520409D01*
X209280947Y-68518627D01*
X209269933Y-68515467D01*
X209267719Y-68512903D01*
X209247924Y-68443561D01*
X209227726Y-68383623D01*
X209205727Y-68329628D01*
X209180531Y-68278117D01*
X209153978Y-68231040D01*
X209093061Y-68139781D01*
X209021599Y-68052027D01*
X208941904Y-67970183D01*
X208856292Y-67896657D01*
X208779828Y-67841995D01*
X208695564Y-67792074D01*
X208612186Y-67752044D01*
X208530463Y-67721978D01*
X208451168Y-67701950D01*
X208375072Y-67692033D01*
X208302946Y-67692301D01*
X208235562Y-67702827D01*
X208173691Y-67723685D01*
X208118105Y-67754949D01*
X208090834Y-67776306D01*
X208060878Y-67806659D01*
X208034835Y-67842677D01*
X208010930Y-67887074D01*
X207995530Y-67922123D01*
X207969356Y-67971798D01*
X207935817Y-68010982D01*
X207894603Y-68039894D01*
X207845404Y-68058752D01*
X207788741Y-68067717D01*
X207737507Y-68066611D01*
X207693029Y-68056075D01*
X207656243Y-68036669D01*
X207628083Y-68008951D01*
X207609484Y-67973483D01*
X207605038Y-67957732D01*
X207600993Y-67936171D01*
X207600118Y-67917806D01*
X207602606Y-67897356D01*
X207608209Y-67871410D01*
X207616614Y-67842929D01*
X207629121Y-67809011D01*
X207643516Y-67775471D01*
X207649112Y-67763856D01*
X207665677Y-67733026D01*
X207682750Y-67707029D01*
X207703425Y-67681701D01*
X207730796Y-67652879D01*
X207733870Y-67649795D01*
X207788035Y-67602427D01*
X207846196Y-67565245D01*
X207909686Y-67537755D01*
X207979837Y-67519461D01*
X208057983Y-67509869D01*
X208115687Y-67508065D01*
X208219283Y-67514307D01*
G37*
G36*
X216323679Y-67869355D02*
G01*
X216246240Y-67869355D01*
X216246240Y-67791936D01*
X216323679Y-67791936D01*
X216323679Y-67869355D01*
G37*
G36*
X206396964Y-71110494D02*
G01*
X206532299Y-71196402D01*
X206669508Y-71270327D01*
X206810540Y-71333187D01*
X206957341Y-71385902D01*
X207021011Y-71405188D01*
X207128310Y-71432250D01*
X207244682Y-71454718D01*
X207366992Y-71472180D01*
X207492102Y-71484224D01*
X207616877Y-71490439D01*
X207676322Y-71491231D01*
X207793987Y-71487905D01*
X207906069Y-71477372D01*
X208015448Y-71459063D01*
X208125006Y-71432407D01*
X208237622Y-71396836D01*
X208331327Y-71361786D01*
X208359200Y-71350515D01*
X208386176Y-71339255D01*
X208410692Y-71328715D01*
X208431184Y-71319607D01*
X208446090Y-71312639D01*
X208453848Y-71308524D01*
X208452895Y-71307971D01*
X208441669Y-71311689D01*
X208441032Y-71311920D01*
X208340543Y-71346186D01*
X208247512Y-71373103D01*
X208159136Y-71393146D01*
X208072614Y-71406791D01*
X207985142Y-71414516D01*
X207893916Y-71416797D01*
X207831200Y-71415582D01*
X207680121Y-71404035D01*
X207528090Y-71379965D01*
X207375765Y-71343652D01*
X207253591Y-71304839D01*
X208457165Y-71304839D01*
X208460392Y-71308065D01*
X208463618Y-71304839D01*
X208460392Y-71301613D01*
X208457165Y-71304839D01*
X207253591Y-71304839D01*
X207223807Y-71295377D01*
X207072873Y-71235419D01*
X206923623Y-71164058D01*
X206776716Y-71081575D01*
X206632810Y-70988248D01*
X206492564Y-70884358D01*
X206398900Y-70807200D01*
X206327592Y-70745932D01*
X206327592Y-70413673D01*
X206445364Y-70530458D01*
X206494508Y-70578184D01*
X206543450Y-70623828D01*
X206590834Y-70666242D01*
X206635304Y-70704276D01*
X206675505Y-70736782D01*
X206710080Y-70762611D01*
X206737675Y-70780614D01*
X206745881Y-70785081D01*
X206785502Y-70799044D01*
X206827560Y-70803611D01*
X206866017Y-70798505D01*
X206896432Y-70785058D01*
X206925297Y-70763787D01*
X206948115Y-70738366D01*
X206955947Y-70725045D01*
X206963952Y-70697172D01*
X206965989Y-70663755D01*
X206962035Y-70630703D01*
X206956442Y-70612696D01*
X206950732Y-70600485D01*
X206943490Y-70588730D01*
X206933405Y-70576116D01*
X206919163Y-70561322D01*
X206899453Y-70543033D01*
X206872963Y-70519929D01*
X206838380Y-70490693D01*
X206818039Y-70473694D01*
X206693198Y-70362125D01*
X206573866Y-70240611D01*
X206462289Y-70111621D01*
X206360710Y-69977626D01*
X206339224Y-69946690D01*
X206336385Y-69943098D01*
X206334080Y-69942234D01*
X206332251Y-69945229D01*
X206330840Y-69953216D01*
X206329790Y-69967328D01*
X206329043Y-69988698D01*
X206328541Y-70018459D01*
X206328227Y-70057744D01*
X206328042Y-70107685D01*
X206327930Y-70168269D01*
X206327592Y-70405892D01*
X206298189Y-70371495D01*
X206268077Y-70335258D01*
X206234195Y-70292830D01*
X206199379Y-70247891D01*
X206166466Y-70204119D01*
X206138292Y-70165191D01*
X206130654Y-70154232D01*
X206112650Y-70129729D01*
X206094775Y-70108187D01*
X206079690Y-70092699D01*
X206073460Y-70087826D01*
X206063855Y-70082481D01*
X206053871Y-70079138D01*
X206041498Y-70077931D01*
X206024724Y-70079000D01*
X206001541Y-70082479D01*
X205969937Y-70088506D01*
X205927903Y-70097219D01*
X205924264Y-70097987D01*
X205850431Y-70110241D01*
X205785764Y-70113755D01*
X205729818Y-70108404D01*
X205682151Y-70094061D01*
X205642319Y-70070603D01*
X205609879Y-70037905D01*
X205587935Y-70003042D01*
X205575509Y-69973688D01*
X205562423Y-69933692D01*
X205549198Y-69885262D01*
X205536351Y-69830605D01*
X205524404Y-69771928D01*
X205513875Y-69711439D01*
X205505430Y-69652501D01*
X205492398Y-69539304D01*
X205483462Y-69436464D01*
X205478655Y-69342090D01*
X205478011Y-69254291D01*
X205481565Y-69171176D01*
X205489352Y-69090855D01*
X205501404Y-69011435D01*
X205517758Y-68931027D01*
X205518581Y-68927420D01*
X205526263Y-68896176D01*
X205535878Y-68860568D01*
X205546818Y-68822489D01*
X205558472Y-68783837D01*
X205570233Y-68746507D01*
X205581492Y-68712396D01*
X205591639Y-68683398D01*
X205600066Y-68661411D01*
X205606164Y-68648330D01*
X205609078Y-68645647D01*
X205608566Y-68652501D01*
X205605230Y-68668983D01*
X205599677Y-68692285D01*
X205595445Y-68708707D01*
X205570430Y-68826169D01*
X205555506Y-68950118D01*
X205550579Y-69079119D01*
X205555554Y-69211738D01*
X205570336Y-69346538D01*
X205594830Y-69482083D01*
X205628942Y-69616939D01*
X205662299Y-69721107D01*
X205678563Y-69763297D01*
X205694481Y-69794647D01*
X205711564Y-69817086D01*
X205731323Y-69832543D01*
X205755268Y-69842947D01*
X205758503Y-69843951D01*
X205769273Y-69846577D01*
X205780639Y-69847508D01*
X205794879Y-69846413D01*
X205814269Y-69842964D01*
X205841085Y-69836830D01*
X205877604Y-69827680D01*
X205886516Y-69825397D01*
X205954350Y-69809043D01*
X206012002Y-69797680D01*
X206061166Y-69791254D01*
X206103538Y-69789709D01*
X206140813Y-69792988D01*
X206174687Y-69801035D01*
X206206854Y-69813796D01*
X206208913Y-69814781D01*
X206233464Y-69830193D01*
X206261180Y-69853147D01*
X206288400Y-69880235D01*
X206311463Y-69908048D01*
X206316017Y-69914516D01*
X206318435Y-69917526D01*
X206320469Y-69918144D01*
X206322154Y-69915396D01*
X206323524Y-69908309D01*
X206324614Y-69895906D01*
X206325457Y-69877213D01*
X206326088Y-69851256D01*
X206326542Y-69817059D01*
X206326853Y-69773648D01*
X206327055Y-69720048D01*
X206327183Y-69655285D01*
X206327253Y-69596010D01*
X206327592Y-69261374D01*
X206372728Y-69352699D01*
X206399331Y-69405767D01*
X206423480Y-69451991D01*
X206446996Y-69494514D01*
X206471703Y-69536479D01*
X206499422Y-69581031D01*
X206531977Y-69631312D01*
X206550700Y-69659678D01*
X206642177Y-69790305D01*
X206737500Y-69911552D01*
X206838205Y-70024962D01*
X206945833Y-70132075D01*
X207061922Y-70234435D01*
X207188011Y-70333583D01*
X207309385Y-70420032D01*
X207338006Y-70440018D01*
X207362750Y-70458163D01*
X207381650Y-70472959D01*
X207392742Y-70482894D01*
X207394745Y-70485570D01*
X207394449Y-70498611D01*
X207388019Y-70521184D01*
X207376123Y-70551851D01*
X207359424Y-70589178D01*
X207338591Y-70631729D01*
X207314289Y-70678066D01*
X207287184Y-70726754D01*
X207266325Y-70762428D01*
X207234311Y-70823078D01*
X207213929Y-70878550D01*
X207205183Y-70929261D01*
X207208074Y-70975626D01*
X207222604Y-71018060D01*
X207248776Y-71056980D01*
X207267961Y-71076877D01*
X207291450Y-71096761D01*
X207317056Y-71113955D01*
X207347580Y-71129976D01*
X207385825Y-71146345D01*
X207420073Y-71159328D01*
X207560220Y-71204583D01*
X207706808Y-71240469D01*
X207856648Y-71266209D01*
X207860239Y-71266693D01*
X207904927Y-71271369D01*
X207958225Y-71274847D01*
X208016936Y-71277097D01*
X208077864Y-71278090D01*
X208137811Y-71277800D01*
X208193582Y-71276196D01*
X208241980Y-71273252D01*
X208270021Y-71270343D01*
X208395395Y-71249616D01*
X208512091Y-71220861D01*
X208621243Y-71183444D01*
X208723984Y-71136728D01*
X208821448Y-71080079D01*
X208914768Y-71012863D01*
X209005077Y-70934445D01*
X209093510Y-70844190D01*
X209153096Y-70775797D01*
X209177209Y-70746562D01*
X209196736Y-70722230D01*
X209211125Y-70703596D01*
X209217504Y-70694690D01*
X209781506Y-70694690D01*
X209788425Y-70805433D01*
X209805871Y-70909755D01*
X209833741Y-71007332D01*
X209871929Y-71097840D01*
X209920333Y-71180954D01*
X209978849Y-71256350D01*
X210014057Y-71293197D01*
X210086830Y-71355526D01*
X210168058Y-71408796D01*
X210257986Y-71453112D01*
X210356859Y-71488576D01*
X210464920Y-71515294D01*
X210580285Y-71533126D01*
X210610307Y-71535569D01*
X210650339Y-71537404D01*
X210697501Y-71538629D01*
X210748910Y-71539238D01*
X210801685Y-71539228D01*
X210852945Y-71538595D01*
X210899808Y-71537334D01*
X210939392Y-71535441D01*
X210961956Y-71533666D01*
X211109090Y-71513222D01*
X211249535Y-71481885D01*
X211383187Y-71439695D01*
X211509943Y-71386694D01*
X211629701Y-71322920D01*
X211742358Y-71248416D01*
X211796723Y-71206560D01*
X211825459Y-71182684D01*
X211854360Y-71157596D01*
X211879832Y-71134474D01*
X211896528Y-71118306D01*
X211913747Y-71101279D01*
X211927646Y-71088589D01*
X211935723Y-71082491D01*
X211936482Y-71082258D01*
X211941682Y-71087508D01*
X211950708Y-71101234D01*
X211960996Y-71119355D01*
X212003086Y-71185995D01*
X212056225Y-71250300D01*
X212118574Y-71310602D01*
X212188292Y-71365235D01*
X212263539Y-71412532D01*
X212312201Y-71437459D01*
X212393892Y-71471343D01*
X212479780Y-71498122D01*
X212571427Y-71518088D01*
X212670397Y-71531535D01*
X212778255Y-71538755D01*
X212861510Y-71540262D01*
X213015646Y-71534358D01*
X213164909Y-71516545D01*
X213309232Y-71486848D01*
X213448548Y-71445288D01*
X213582790Y-71391890D01*
X213711891Y-71326675D01*
X213835785Y-71249668D01*
X213949469Y-71164905D01*
X214017815Y-71109519D01*
X214038869Y-71152340D01*
X214081411Y-71224380D01*
X214134644Y-71289432D01*
X214198323Y-71347361D01*
X214272206Y-71398033D01*
X214356047Y-71441314D01*
X214449604Y-71477071D01*
X214552632Y-71505168D01*
X214664886Y-71525473D01*
X214732460Y-71533465D01*
X214772374Y-71536359D01*
X214821995Y-71538424D01*
X214878151Y-71539659D01*
X214937668Y-71540062D01*
X214997375Y-71539633D01*
X215054098Y-71538370D01*
X215104664Y-71536272D01*
X215142734Y-71533629D01*
X215267276Y-71518494D01*
X215388441Y-71495938D01*
X215504711Y-71466442D01*
X215614564Y-71430484D01*
X215716483Y-71388543D01*
X215808947Y-71341099D01*
X215866434Y-71305409D01*
X215899876Y-71282893D01*
X215935045Y-71315027D01*
X216002259Y-71368796D01*
X216078389Y-71415255D01*
X216163943Y-71454618D01*
X216259429Y-71487100D01*
X216365354Y-71512914D01*
X216433385Y-71525172D01*
X216469438Y-71529499D01*
X216515989Y-71532930D01*
X216570661Y-71535464D01*
X216631076Y-71537099D01*
X216694855Y-71537834D01*
X216759623Y-71537667D01*
X216823001Y-71536598D01*
X216882612Y-71534625D01*
X216936078Y-71531746D01*
X216981022Y-71527961D01*
X217001271Y-71525488D01*
X217117127Y-71506466D01*
X217222995Y-71483369D01*
X217321329Y-71455550D01*
X217414585Y-71422365D01*
X217452342Y-71406879D01*
X217562959Y-71353561D01*
X217664170Y-71292011D01*
X217755703Y-71222535D01*
X217837283Y-71145436D01*
X217908636Y-71061018D01*
X217969490Y-70969584D01*
X218019569Y-70871438D01*
X218058601Y-70766884D01*
X218072114Y-70719281D01*
X218090469Y-70633702D01*
X218099752Y-70553578D01*
X218099689Y-70478606D01*
X218090005Y-70408487D01*
X218070425Y-70342920D01*
X218040675Y-70281603D01*
X218000482Y-70224236D01*
X217949570Y-70170519D01*
X217887665Y-70120150D01*
X217814493Y-70072829D01*
X217729780Y-70028254D01*
X217633250Y-69986126D01*
X217524631Y-69946142D01*
X217403647Y-69908003D01*
X217307800Y-69881270D01*
X217220065Y-69857183D01*
X217144443Y-69834556D01*
X217080286Y-69812904D01*
X217026948Y-69791744D01*
X216983782Y-69770591D01*
X216950141Y-69748959D01*
X216925379Y-69726365D01*
X216908849Y-69702323D01*
X216899903Y-69676349D01*
X216897896Y-69647958D01*
X216902181Y-69616666D01*
X216911357Y-69584203D01*
X216933350Y-69533716D01*
X216962736Y-69492907D01*
X217001181Y-69459901D01*
X217042938Y-69436244D01*
X217083040Y-69419694D01*
X217123861Y-69408355D01*
X217168496Y-69401731D01*
X217220040Y-69399323D01*
X217268121Y-69400092D01*
X217321748Y-69403233D01*
X217364983Y-69408829D01*
X217400220Y-69417586D01*
X217429856Y-69430212D01*
X217456285Y-69447411D01*
X217471419Y-69460059D01*
X217499618Y-69490466D01*
X217518551Y-69523856D01*
X217529351Y-69563037D01*
X217533156Y-69610820D01*
X217533178Y-69612864D01*
X217533664Y-69669276D01*
X217902990Y-69669315D01*
X218272315Y-69669355D01*
X218277278Y-69651613D01*
X218278927Y-69639279D01*
X218280275Y-69616669D01*
X218281230Y-69586406D01*
X218281696Y-69551117D01*
X218281698Y-69527420D01*
X218281183Y-69483788D01*
X218279956Y-69450015D01*
X218277736Y-69423063D01*
X218274240Y-69399894D01*
X218269186Y-69377470D01*
X218267030Y-69369355D01*
X218238656Y-69288557D01*
X218199792Y-69215225D01*
X218150429Y-69149351D01*
X218090557Y-69090927D01*
X218020166Y-69039948D01*
X217939246Y-68996406D01*
X217847789Y-68960293D01*
X217745783Y-68931603D01*
X217640143Y-68911376D01*
X217596318Y-68906061D01*
X217542777Y-68901817D01*
X217482671Y-68898719D01*
X217419152Y-68896842D01*
X217355372Y-68896262D01*
X217294481Y-68897054D01*
X217239631Y-68899295D01*
X217213575Y-68901139D01*
X217119887Y-68911576D01*
X217026140Y-68926808D01*
X216935434Y-68946162D01*
X216850870Y-68968966D01*
X216775548Y-68994547D01*
X216766539Y-68998065D01*
X216705491Y-69024556D01*
X216642292Y-69056018D01*
X216580124Y-69090624D01*
X216522169Y-69126546D01*
X216471609Y-69161957D01*
X216446621Y-69181798D01*
X216417912Y-69205963D01*
X216404885Y-69187659D01*
X216371933Y-69147772D01*
X216330040Y-69106866D01*
X216282588Y-69067762D01*
X216232959Y-69033280D01*
X216191376Y-69009603D01*
X216104326Y-68971898D01*
X216006660Y-68941098D01*
X215898730Y-68917307D01*
X215855134Y-68910132D01*
X215814348Y-68905459D01*
X215763437Y-68901910D01*
X215705132Y-68899483D01*
X215642165Y-68898178D01*
X215577267Y-68897994D01*
X215513171Y-68898930D01*
X215452608Y-68900986D01*
X215398309Y-68904160D01*
X215353008Y-68908454D01*
X215339558Y-68910254D01*
X215203592Y-68935280D01*
X215077120Y-68968852D01*
X214959837Y-69011120D01*
X214851436Y-69062235D01*
X214751610Y-69122348D01*
X214660054Y-69191609D01*
X214576459Y-69270169D01*
X214550435Y-69298309D01*
X214508040Y-69345764D01*
X214477517Y-69296269D01*
X214421126Y-69216989D01*
X214354912Y-69145932D01*
X214279158Y-69083294D01*
X214194144Y-69029268D01*
X214100153Y-68984050D01*
X213997464Y-68947835D01*
X213958116Y-68936960D01*
X213855066Y-68915541D01*
X213744094Y-68901859D01*
X213627590Y-68895893D01*
X213507946Y-68897624D01*
X213387555Y-68907031D01*
X213268808Y-68924096D01*
X213175856Y-68943426D01*
X213035554Y-68983402D01*
X212900464Y-69035036D01*
X212770346Y-69098453D01*
X212644961Y-69173777D01*
X212524069Y-69261133D01*
X212453480Y-69319470D01*
X212406833Y-69359908D01*
X212383232Y-69313018D01*
X212349216Y-69252044D01*
X212311682Y-69198773D01*
X212266896Y-69148010D01*
X212258621Y-69139585D01*
X212189910Y-69079631D01*
X212111465Y-69027978D01*
X212023485Y-68984693D01*
X211926172Y-68949840D01*
X211819725Y-68923484D01*
X211704345Y-68905690D01*
X211580232Y-68896524D01*
X211507256Y-68895184D01*
X211355573Y-68901159D01*
X211208733Y-68918962D01*
X211066934Y-68948512D01*
X210930375Y-68989731D01*
X210799254Y-69042537D01*
X210673770Y-69106850D01*
X210554120Y-69182592D01*
X210440503Y-69269681D01*
X210333117Y-69368038D01*
X210331819Y-69369335D01*
X210233749Y-69476290D01*
X210143797Y-69592509D01*
X210062496Y-69716817D01*
X209990375Y-69848038D01*
X209927968Y-69984997D01*
X209875805Y-70126521D01*
X209834417Y-70271434D01*
X209804336Y-70418560D01*
X209786093Y-70566726D01*
X209785217Y-70577852D01*
X209781506Y-70694690D01*
X209217504Y-70694690D01*
X209219820Y-70691456D01*
X209222270Y-70686606D01*
X209217919Y-70689840D01*
X209206215Y-70701955D01*
X209198915Y-70709947D01*
X209179480Y-70730019D01*
X209153786Y-70754576D01*
X209125649Y-70780040D01*
X209106396Y-70796615D01*
X209010375Y-70868879D01*
X208907833Y-70930152D01*
X208799070Y-70980396D01*
X208684385Y-71019575D01*
X208564075Y-71047653D01*
X208438438Y-71064593D01*
X208307774Y-71070360D01*
X208172381Y-71064917D01*
X208032557Y-71048227D01*
X207888600Y-71020255D01*
X207740809Y-70980963D01*
X207698908Y-70967969D01*
X207669708Y-70958459D01*
X207644417Y-70949899D01*
X207625954Y-70943296D01*
X207617668Y-70939903D01*
X207614717Y-70936491D01*
X207614713Y-70929659D01*
X207618245Y-70917863D01*
X207625902Y-70899561D01*
X207638274Y-70873210D01*
X207655949Y-70837268D01*
X207659889Y-70829361D01*
X207688030Y-70771159D01*
X207714789Y-70712388D01*
X207732979Y-70669914D01*
X208097070Y-70669914D01*
X208101430Y-70698620D01*
X208114762Y-70726362D01*
X208137916Y-70752601D01*
X208167883Y-70774469D01*
X208193696Y-70786521D01*
X208231959Y-70794786D01*
X208276197Y-70795524D01*
X208322055Y-70788939D01*
X208355914Y-70778937D01*
X208401805Y-70756024D01*
X208440779Y-70725008D01*
X208471100Y-70687744D01*
X208491037Y-70646087D01*
X208491878Y-70642982D01*
X208768997Y-70642982D01*
X208770808Y-70679869D01*
X208783024Y-70709220D01*
X208805770Y-70731297D01*
X208812592Y-70735423D01*
X208842129Y-70745015D01*
X208879563Y-70746246D01*
X208923128Y-70739305D01*
X208971057Y-70724383D01*
X208991166Y-70716174D01*
X209091378Y-70666160D01*
X209182811Y-70607158D01*
X209265663Y-70538943D01*
X209340131Y-70461285D01*
X209406410Y-70373957D01*
X209464698Y-70276731D01*
X209515192Y-70169381D01*
X209553841Y-70064814D01*
X209570916Y-70009759D01*
X209586835Y-69952780D01*
X209600811Y-69897075D01*
X209612059Y-69845844D01*
X209619794Y-69802286D01*
X209621614Y-69788710D01*
X209622210Y-69778629D01*
X209620209Y-69779821D01*
X209615455Y-69792651D01*
X209607794Y-69817489D01*
X209603945Y-69830645D01*
X209580333Y-69904486D01*
X209554273Y-69970055D01*
X209523860Y-70031974D01*
X209512140Y-70053101D01*
X209455951Y-70138835D01*
X209389931Y-70216434D01*
X209314525Y-70285574D01*
X209230175Y-70345931D01*
X209137324Y-70397183D01*
X209036415Y-70439005D01*
X208946408Y-70466441D01*
X208894877Y-70483778D01*
X208853186Y-70506968D01*
X208820449Y-70535782D01*
X208795491Y-70566103D01*
X208779768Y-70594244D01*
X208771280Y-70624372D01*
X208768997Y-70642982D01*
X208491878Y-70642982D01*
X208495517Y-70629548D01*
X208498901Y-70591369D01*
X208490891Y-70558103D01*
X208470843Y-70527665D01*
X208460837Y-70517269D01*
X208435518Y-70497384D01*
X208406354Y-70483864D01*
X208370756Y-70475935D01*
X208326134Y-70472820D01*
X208311967Y-70472705D01*
X208282010Y-70473278D01*
X208260520Y-70475420D01*
X208243075Y-70479993D01*
X208225254Y-70487858D01*
X208219776Y-70490673D01*
X208176820Y-70518523D01*
X208142126Y-70552032D01*
X208116641Y-70589539D01*
X208101307Y-70629387D01*
X208097070Y-70669914D01*
X207732979Y-70669914D01*
X207739207Y-70655372D01*
X207760327Y-70602429D01*
X207777191Y-70555882D01*
X207788841Y-70518052D01*
X207789714Y-70514717D01*
X207798257Y-70459830D01*
X207796691Y-70404517D01*
X207785299Y-70352435D01*
X207775248Y-70327127D01*
X207759405Y-70297424D01*
X207740743Y-70270750D01*
X207717451Y-70245319D01*
X207687716Y-70219344D01*
X207649728Y-70191040D01*
X207609467Y-70163734D01*
X207501520Y-70089992D01*
X207403363Y-70017112D01*
X207312256Y-69942852D01*
X207225462Y-69864974D01*
X207140241Y-69781238D01*
X207134248Y-69775083D01*
X207051328Y-69683757D01*
X207741429Y-69683757D01*
X207741957Y-69695292D01*
X207745681Y-69723969D01*
X207754131Y-69750254D01*
X207768347Y-69775205D01*
X207789372Y-69799882D01*
X207818245Y-69825342D01*
X207856008Y-69852646D01*
X207903703Y-69882850D01*
X207957038Y-69913991D01*
X208090833Y-69984388D01*
X208224180Y-70043381D01*
X208356393Y-70090735D01*
X208486788Y-70126217D01*
X208614679Y-70149592D01*
X208663669Y-70155371D01*
X208695274Y-70157409D01*
X208735669Y-70158423D01*
X208780780Y-70158455D01*
X208826536Y-70157550D01*
X208868863Y-70155752D01*
X208903690Y-70153105D01*
X208907200Y-70152729D01*
X209012511Y-70135068D01*
X209111769Y-70106516D01*
X209204412Y-70067546D01*
X209289880Y-70018636D01*
X209367613Y-69960259D01*
X209437051Y-69892892D01*
X209497632Y-69817009D01*
X209546352Y-69737097D01*
X209626462Y-69737097D01*
X209627159Y-69748115D01*
X209629179Y-69749085D01*
X209629437Y-69748510D01*
X209630713Y-69735702D01*
X209629676Y-69729155D01*
X209627621Y-69726524D01*
X209626504Y-69735093D01*
X209626462Y-69737097D01*
X209546352Y-69737097D01*
X209548797Y-69733086D01*
X209561514Y-69704839D01*
X209631657Y-69704839D01*
X209634883Y-69708065D01*
X209638110Y-69704839D01*
X209634883Y-69701613D01*
X209631657Y-69704839D01*
X209561514Y-69704839D01*
X209589985Y-69641598D01*
X209619118Y-69549065D01*
X209640037Y-69441791D01*
X209649774Y-69328977D01*
X209648395Y-69211405D01*
X209635970Y-69089860D01*
X209612566Y-68965123D01*
X209578250Y-68837978D01*
X209550202Y-68754622D01*
X209537826Y-68721475D01*
X209524085Y-68686299D01*
X209509817Y-68651055D01*
X209495858Y-68617704D01*
X209483047Y-68588205D01*
X209472221Y-68564518D01*
X209464218Y-68548604D01*
X209459876Y-68542424D01*
X209459553Y-68542490D01*
X209460741Y-68549113D01*
X209466050Y-68564456D01*
X209474394Y-68585433D01*
X209476049Y-68589367D01*
X209519346Y-68704822D01*
X209550560Y-68819034D01*
X209570121Y-68933915D01*
X209578211Y-69042325D01*
X209577779Y-69136192D01*
X209570025Y-69221043D01*
X209554476Y-69298795D01*
X209530659Y-69371370D01*
X209498103Y-69440685D01*
X209467504Y-69491936D01*
X209415710Y-69559923D01*
X209354782Y-69619358D01*
X209285555Y-69669885D01*
X209208864Y-69711148D01*
X209125542Y-69742791D01*
X209036425Y-69764459D01*
X208942347Y-69775796D01*
X208844141Y-69776446D01*
X208806261Y-69773847D01*
X208678583Y-69756343D01*
X208551392Y-69726519D01*
X208424336Y-69684250D01*
X208297065Y-69629414D01*
X208169225Y-69561887D01*
X208121596Y-69533591D01*
X208081351Y-69510540D01*
X208047188Y-69495092D01*
X208015601Y-69486212D01*
X207983082Y-69482869D01*
X207951937Y-69483617D01*
X207900468Y-69492954D01*
X207852571Y-69513178D01*
X207810390Y-69542850D01*
X207776072Y-69580531D01*
X207755842Y-69615204D01*
X207746476Y-69638448D01*
X207742042Y-69659162D01*
X207741429Y-69683757D01*
X207051328Y-69683757D01*
X207017717Y-69646738D01*
X206910048Y-69511127D01*
X206812186Y-69369633D01*
X206725074Y-69223640D01*
X206709275Y-69192405D01*
X207246982Y-69192405D01*
X207247956Y-69238859D01*
X207258666Y-69285217D01*
X207278730Y-69329883D01*
X207307764Y-69371261D01*
X207345384Y-69407754D01*
X207391208Y-69437767D01*
X207395568Y-69440018D01*
X207443790Y-69458926D01*
X207491579Y-69465937D01*
X207541375Y-69461223D01*
X207574170Y-69452538D01*
X207607931Y-69436044D01*
X207640180Y-69410181D01*
X207667197Y-69378289D01*
X207679007Y-69358339D01*
X207688847Y-69335208D01*
X207693978Y-69312401D01*
X207695651Y-69283897D01*
X207695681Y-69278008D01*
X207692568Y-69235458D01*
X207682333Y-69197206D01*
X207663633Y-69159844D01*
X207635123Y-69119959D01*
X207631773Y-69115814D01*
X207607905Y-69087377D01*
X207588457Y-69066857D01*
X207570335Y-69051680D01*
X207550445Y-69039272D01*
X207525692Y-69027059D01*
X207524318Y-69026429D01*
X207502975Y-69017569D01*
X207484549Y-69012941D01*
X207463603Y-69011672D01*
X207438474Y-69012658D01*
X207391613Y-69019414D01*
X207352042Y-69034533D01*
X207316092Y-69059564D01*
X207306315Y-69068426D01*
X207275779Y-69105592D01*
X207256129Y-69147451D01*
X207246982Y-69192405D01*
X206709275Y-69192405D01*
X206649656Y-69074533D01*
X206636257Y-69044907D01*
X206622953Y-69013622D01*
X206608242Y-68976874D01*
X206592864Y-68936749D01*
X206577558Y-68895335D01*
X206563065Y-68854721D01*
X206550125Y-68816994D01*
X206539479Y-68784241D01*
X206531865Y-68758551D01*
X206528025Y-68742011D01*
X206527709Y-68738710D01*
X206525385Y-68729201D01*
X206518059Y-68729691D01*
X206504949Y-68740490D01*
X206493818Y-68752229D01*
X206455002Y-68801489D01*
X206418485Y-68859706D01*
X206386327Y-68922936D01*
X206360588Y-68987236D01*
X206346715Y-69033871D01*
X206339412Y-69070127D01*
X206333264Y-69113327D01*
X206329080Y-69157519D01*
X206328364Y-69169355D01*
X206324365Y-69246774D01*
X206294331Y-69169355D01*
X206263633Y-69086141D01*
X206237288Y-69006305D01*
X206215678Y-68931328D01*
X206199184Y-68862690D01*
X206188190Y-68801872D01*
X206183076Y-68750353D01*
X206182747Y-68737097D01*
X206183123Y-68707240D01*
X206185082Y-68685926D01*
X206189438Y-68668818D01*
X206197007Y-68651578D01*
X206199843Y-68646080D01*
X206214410Y-68623644D01*
X206234296Y-68599462D01*
X206250423Y-68583241D01*
X206287963Y-68556329D01*
X206327654Y-68540098D01*
X206367618Y-68534667D01*
X206405975Y-68540154D01*
X206440847Y-68556678D01*
X206457508Y-68570175D01*
X206474493Y-68586439D01*
X206513930Y-68566536D01*
X206542145Y-68553247D01*
X206568715Y-68543270D01*
X206596238Y-68536159D01*
X206627314Y-68531469D01*
X206664545Y-68528757D01*
X206710528Y-68527577D01*
X206742646Y-68527420D01*
X206784031Y-68527311D01*
X206814150Y-68526887D01*
X206834638Y-68525999D01*
X206847136Y-68524498D01*
X206853282Y-68522235D01*
X206854712Y-68519062D01*
X206854254Y-68517296D01*
X206851358Y-68506852D01*
X206846752Y-68487058D01*
X206841188Y-68461227D01*
X206837803Y-68444715D01*
X206819466Y-68327677D01*
X206812004Y-68214174D01*
X206815156Y-68104796D01*
X206828660Y-68000130D01*
X206852255Y-67900766D01*
X206885679Y-67807291D01*
X206928669Y-67720295D01*
X206980966Y-67640367D01*
X207042307Y-67568094D01*
X207112430Y-67504066D01*
X207191074Y-67448872D01*
X207277978Y-67403099D01*
X207305988Y-67391143D01*
X207408425Y-67356615D01*
X207516197Y-67333770D01*
X207629168Y-67322601D01*
X207747202Y-67323105D01*
X207870164Y-67335277D01*
X207997918Y-67359111D01*
X208130328Y-67394603D01*
X208220306Y-67424447D01*
X208248917Y-67434848D01*
X208272275Y-67443748D01*
X208288156Y-67450269D01*
X208294336Y-67453533D01*
X208294321Y-67453663D01*
X208287626Y-67452905D01*
X208271511Y-67449091D01*
X208248895Y-67442940D01*
X208237556Y-67439655D01*
X208121239Y-67410438D01*
X208009088Y-67392536D01*
X207901476Y-67385936D01*
X207798776Y-67390622D01*
X207701359Y-67406581D01*
X207609599Y-67433798D01*
X207534350Y-67466782D01*
X207458556Y-67512564D01*
X207391406Y-67567737D01*
X207333248Y-67631809D01*
X207284431Y-67704285D01*
X207245305Y-67784672D01*
X207216217Y-67872476D01*
X207202248Y-67936753D01*
X207196905Y-67979325D01*
X207193735Y-68030756D01*
X207192740Y-68087183D01*
X207193923Y-68144747D01*
X207197285Y-68199586D01*
X207202065Y-68242635D01*
X207208544Y-68285221D01*
X207214566Y-68317223D01*
X207220753Y-68340915D01*
X207227729Y-68358571D01*
X207236115Y-68372465D01*
X207238454Y-68375553D01*
X207245407Y-68383109D01*
X207253463Y-68387996D01*
X207264203Y-68389957D01*
X207279207Y-68388739D01*
X207300055Y-68384084D01*
X207328329Y-68375739D01*
X207365607Y-68363447D01*
X207411738Y-68347557D01*
X207495319Y-68320450D01*
X207578350Y-68297252D01*
X207657666Y-68278752D01*
X207730104Y-68265736D01*
X207752745Y-68262682D01*
X207820114Y-68260136D01*
X207883712Y-68268984D01*
X207942398Y-68288838D01*
X207995030Y-68319311D01*
X208040466Y-68360015D01*
X208040871Y-68360461D01*
X208051053Y-68373030D01*
X208065334Y-68392340D01*
X208082109Y-68416017D01*
X208099770Y-68441689D01*
X208116713Y-68466982D01*
X208131332Y-68489525D01*
X208142021Y-68506943D01*
X208147174Y-68516863D01*
X208147409Y-68517899D01*
X208141109Y-68518356D01*
X208122826Y-68518794D01*
X208093480Y-68519208D01*
X208053995Y-68519591D01*
X208005292Y-68519941D01*
X207948295Y-68520250D01*
X207883925Y-68520515D01*
X207813104Y-68520730D01*
X207736756Y-68520889D01*
X207655801Y-68520989D01*
X207581136Y-68521023D01*
X207463513Y-68521119D01*
X207358252Y-68521393D01*
X207264811Y-68521857D01*
X207182646Y-68522527D01*
X207111215Y-68523416D01*
X207049973Y-68524537D01*
X206998379Y-68525905D01*
X206955889Y-68527534D01*
X206921960Y-68529438D01*
X206896049Y-68531630D01*
X206877613Y-68534125D01*
X206866110Y-68536935D01*
X206861513Y-68539441D01*
X206860952Y-68548003D01*
X206864997Y-68565517D01*
X206872651Y-68589312D01*
X206882916Y-68616716D01*
X206894793Y-68645057D01*
X206907285Y-68671666D01*
X206918869Y-68692997D01*
X206955339Y-68743800D01*
X206996846Y-68782791D01*
X207043566Y-68810038D01*
X207095673Y-68825613D01*
X207153345Y-68829585D01*
X207216756Y-68822023D01*
X207233548Y-68818334D01*
X207259475Y-68810967D01*
X207293642Y-68799550D01*
X207332529Y-68785347D01*
X207372615Y-68769624D01*
X207395269Y-68760204D01*
X207463130Y-68732473D01*
X207528377Y-68708075D01*
X207588882Y-68687722D01*
X207642514Y-68672127D01*
X207687146Y-68662004D01*
X207690221Y-68661459D01*
X207721387Y-68657255D01*
X207746076Y-68657696D01*
X207766876Y-68664075D01*
X207786372Y-68677687D01*
X207807152Y-68699825D01*
X207831802Y-68731782D01*
X207832382Y-68732571D01*
X207918854Y-68841659D01*
X208011767Y-68942755D01*
X208110217Y-69035226D01*
X208213303Y-69118438D01*
X208320122Y-69191758D01*
X208429771Y-69254552D01*
X208541349Y-69306188D01*
X208653952Y-69346031D01*
X208736928Y-69367446D01*
X208764271Y-69372884D01*
X208790288Y-69376769D01*
X208818055Y-69379334D01*
X208850648Y-69380814D01*
X208891143Y-69381441D01*
X208921799Y-69381505D01*
X208978765Y-69380734D01*
X209025878Y-69378153D01*
X209066138Y-69373144D01*
X209102544Y-69365087D01*
X209138095Y-69353364D01*
X209175790Y-69337357D01*
X209205742Y-69322931D01*
X209237320Y-69306185D01*
X209263345Y-69289498D01*
X209288092Y-69269730D01*
X209315835Y-69243744D01*
X209322317Y-69237327D01*
X209358516Y-69198589D01*
X209384789Y-69163649D01*
X209402488Y-69130026D01*
X209412965Y-69095244D01*
X209417166Y-69063398D01*
X209418166Y-69036313D01*
X209415865Y-69015759D01*
X209409269Y-68995572D01*
X209404458Y-68984576D01*
X209379655Y-68943750D01*
X209347446Y-68911615D01*
X209309587Y-68889303D01*
X209267837Y-68877942D01*
X209237351Y-68877103D01*
X209205181Y-68882255D01*
X209182885Y-68892671D01*
X209181456Y-68893756D01*
X209121628Y-68935046D01*
X209061706Y-68964385D01*
X208999693Y-68982585D01*
X208945416Y-68989799D01*
X208880065Y-68988919D01*
X208808835Y-68978216D01*
X208733446Y-68958297D01*
X208655617Y-68929769D01*
X208577068Y-68893241D01*
X208499517Y-68849319D01*
X208444258Y-68812749D01*
X208418212Y-68792781D01*
X208386546Y-68766019D01*
X208351281Y-68734421D01*
X208314441Y-68699941D01*
X208278050Y-68664537D01*
X208244130Y-68630165D01*
X208214704Y-68598781D01*
X208191795Y-68572341D01*
X208180887Y-68558065D01*
X208159513Y-68527420D01*
X208439018Y-68527489D01*
X208509429Y-68527578D01*
X208568122Y-68527830D01*
X208616283Y-68528283D01*
X208655100Y-68528974D01*
X208685759Y-68529938D01*
X208709449Y-68531214D01*
X208727355Y-68532839D01*
X208740666Y-68534848D01*
X208750200Y-68537167D01*
X208788860Y-68544772D01*
X208830244Y-68546127D01*
X208868610Y-68541236D01*
X208883080Y-68537097D01*
X208894173Y-68534080D01*
X208909341Y-68531725D01*
X208930088Y-68529962D01*
X208957922Y-68528720D01*
X208994346Y-68527930D01*
X209040866Y-68527521D01*
X209090395Y-68527420D01*
X209143370Y-68527468D01*
X209184838Y-68527673D01*
X209216199Y-68528122D01*
X209238852Y-68528901D01*
X209254197Y-68530100D01*
X209263634Y-68531806D01*
X209268562Y-68534107D01*
X209270380Y-68537089D01*
X209270558Y-68538710D01*
X209273121Y-68572848D01*
X209278617Y-68608998D01*
X209286133Y-68642413D01*
X209294758Y-68668348D01*
X209296025Y-68671162D01*
X209314410Y-68703299D01*
X209336338Y-68731060D01*
X209360235Y-68753605D01*
X209384525Y-68770096D01*
X209407634Y-68779691D01*
X209427985Y-68781551D01*
X209444004Y-68774837D01*
X209454115Y-68758709D01*
X209454918Y-68755857D01*
X209455570Y-68740317D01*
X209452917Y-68714918D01*
X209447415Y-68682146D01*
X209439518Y-68644486D01*
X209429681Y-68604424D01*
X209422305Y-68577727D01*
X209407730Y-68527420D01*
X218575994Y-68527420D01*
X218574316Y-70712903D01*
X218572638Y-72898387D01*
X218554630Y-72949299D01*
X218526157Y-73012088D01*
X218488479Y-73066356D01*
X218442298Y-73111446D01*
X218388313Y-73146700D01*
X218327227Y-73171462D01*
X218313576Y-73175263D01*
X218310590Y-73175837D01*
X218306011Y-73176390D01*
X218299595Y-73176921D01*
X218291101Y-73177431D01*
X218280285Y-73177921D01*
X218266905Y-73178391D01*
X218250718Y-73178841D01*
X218231483Y-73179272D01*
X218208956Y-73179684D01*
X218182895Y-73180077D01*
X218153057Y-73180453D01*
X218119200Y-73180811D01*
X218081081Y-73181152D01*
X218038458Y-73181476D01*
X217991088Y-73181784D01*
X217938729Y-73182076D01*
X217881137Y-73182353D01*
X217818072Y-73182614D01*
X217749289Y-73182861D01*
X217674546Y-73183093D01*
X217593602Y-73183312D01*
X217506212Y-73183517D01*
X217412136Y-73183709D01*
X217311130Y-73183889D01*
X217202951Y-73184056D01*
X217087358Y-73184212D01*
X216964107Y-73184356D01*
X216832956Y-73184489D01*
X216693663Y-73184612D01*
X216545985Y-73184724D01*
X216389679Y-73184827D01*
X216224503Y-73184920D01*
X216050214Y-73185005D01*
X215866570Y-73185081D01*
X215673329Y-73185149D01*
X215470247Y-73185209D01*
X215257082Y-73185262D01*
X215033592Y-73185308D01*
X214799534Y-73185348D01*
X214554665Y-73185382D01*
X214298743Y-73185410D01*
X214031526Y-73185433D01*
X213752771Y-73185451D01*
X213462235Y-73185464D01*
X213159675Y-73185474D01*
X212844850Y-73185480D01*
X212517517Y-73185484D01*
X206327592Y-73185484D01*
X206327592Y-72011620D01*
X214194106Y-72011620D01*
X214194166Y-72072308D01*
X214194384Y-72121375D01*
X214194816Y-72160100D01*
X214195515Y-72189763D01*
X214196538Y-72211646D01*
X214197940Y-72227028D01*
X214199776Y-72237191D01*
X214202102Y-72243415D01*
X214204247Y-72246314D01*
X214208841Y-72249400D01*
X214216693Y-72251803D01*
X214229272Y-72253605D01*
X214248047Y-72254888D01*
X214274487Y-72255731D01*
X214310060Y-72256216D01*
X214356238Y-72256425D01*
X214387704Y-72256452D01*
X214440548Y-72256364D01*
X214481957Y-72256045D01*
X214513397Y-72255415D01*
X214536340Y-72254391D01*
X214552253Y-72252894D01*
X214562606Y-72250842D01*
X214568868Y-72248153D01*
X214571160Y-72246314D01*
X214573919Y-72242209D01*
X214576138Y-72235128D01*
X214577872Y-72223778D01*
X214579180Y-72206870D01*
X214580117Y-72183110D01*
X214580741Y-72151206D01*
X214581107Y-72109869D01*
X214581153Y-72095549D01*
X214722634Y-72095549D01*
X214722715Y-72155922D01*
X214722999Y-72215020D01*
X214723484Y-72271424D01*
X214724173Y-72323716D01*
X214725064Y-72370480D01*
X214726157Y-72410297D01*
X214727453Y-72441749D01*
X214728951Y-72463420D01*
X214730652Y-72473890D01*
X214731017Y-72474516D01*
X214743335Y-72479841D01*
X214763537Y-72482267D01*
X214786965Y-72481935D01*
X214808958Y-72478987D01*
X214824858Y-72473565D01*
X214827630Y-72471581D01*
X214830173Y-72468722D01*
X214832323Y-72464437D01*
X214834112Y-72457700D01*
X214835574Y-72447484D01*
X214836742Y-72432760D01*
X214837648Y-72412504D01*
X214838326Y-72385687D01*
X214838807Y-72351282D01*
X214839125Y-72308263D01*
X214839314Y-72255603D01*
X214839404Y-72192275D01*
X214839431Y-72117252D01*
X214839431Y-72102734D01*
X214839453Y-72065782D01*
X214955441Y-72065782D01*
X214955578Y-72112443D01*
X214955590Y-72123269D01*
X214955849Y-72174195D01*
X214956659Y-72213156D01*
X214958070Y-72241081D01*
X214960132Y-72258900D01*
X214962895Y-72267541D01*
X214963334Y-72268065D01*
X214973380Y-72271527D01*
X214994077Y-72273941D01*
X215023212Y-72275294D01*
X215058570Y-72275573D01*
X215097937Y-72274765D01*
X215139100Y-72272855D01*
X215179845Y-72269832D01*
X215184680Y-72269386D01*
X215231484Y-72264808D01*
X215266982Y-72260652D01*
X215292735Y-72256295D01*
X215310301Y-72251112D01*
X215321239Y-72244480D01*
X215327108Y-72235776D01*
X215329467Y-72224375D01*
X215329878Y-72211291D01*
X215327452Y-72188939D01*
X215318959Y-72175049D01*
X215302581Y-72168414D01*
X215276497Y-72167827D01*
X215265684Y-72168732D01*
X215241731Y-72170793D01*
X215209459Y-72173112D01*
X215173440Y-72175378D01*
X215144347Y-72176978D01*
X215065295Y-72180993D01*
X215065295Y-72063833D01*
X215161125Y-72061755D01*
X215203253Y-72060434D01*
X215233830Y-72058475D01*
X215254200Y-72055740D01*
X215265709Y-72052091D01*
X215267603Y-72050823D01*
X215271270Y-72046344D01*
X215274001Y-72038703D01*
X215275928Y-72026176D01*
X215277183Y-72007034D01*
X215277899Y-71979552D01*
X215278051Y-71961007D01*
X215349203Y-71961007D01*
X215349210Y-72028077D01*
X215349238Y-72101613D01*
X215349211Y-72179845D01*
X215349216Y-72246156D01*
X215349385Y-72301528D01*
X215349851Y-72346941D01*
X215350744Y-72383379D01*
X215352195Y-72411821D01*
X215354338Y-72433251D01*
X215357302Y-72448650D01*
X215361220Y-72458999D01*
X215366223Y-72465280D01*
X215372443Y-72468475D01*
X215380012Y-72469566D01*
X215389060Y-72469533D01*
X215398523Y-72469355D01*
X215413334Y-72469490D01*
X215425162Y-72469028D01*
X215434342Y-72466670D01*
X215441207Y-72461115D01*
X215446091Y-72451064D01*
X215449329Y-72435216D01*
X215451256Y-72412273D01*
X215452204Y-72380935D01*
X215452509Y-72339900D01*
X215452504Y-72287871D01*
X215452490Y-72259451D01*
X215452490Y-72062903D01*
X215529929Y-72062903D01*
X215529929Y-72265668D01*
X215529907Y-72325204D01*
X215530061Y-72373101D01*
X215530719Y-72410620D01*
X215532212Y-72439026D01*
X215534868Y-72459580D01*
X215539017Y-72473546D01*
X215544989Y-72482186D01*
X215553112Y-72486763D01*
X215563716Y-72488541D01*
X215577131Y-72488781D01*
X215588104Y-72488710D01*
X215610761Y-72487905D01*
X215624518Y-72484703D01*
X215633320Y-72477923D01*
X215636042Y-72474371D01*
X215638240Y-72469997D01*
X215640098Y-72462981D01*
X215641644Y-72452310D01*
X215642905Y-72436966D01*
X215643910Y-72415934D01*
X215644685Y-72388198D01*
X215645258Y-72352742D01*
X215645658Y-72308551D01*
X215645911Y-72254609D01*
X215645957Y-72232397D01*
X215723527Y-72232397D01*
X215728665Y-72247464D01*
X215741467Y-72264317D01*
X215758008Y-72279056D01*
X215774368Y-72287778D01*
X215780136Y-72288710D01*
X215792731Y-72284895D01*
X215811261Y-72274870D01*
X215831812Y-72260767D01*
X215832702Y-72260086D01*
X215867154Y-72230694D01*
X215901967Y-72196027D01*
X215932873Y-72160541D01*
X215949391Y-72138343D01*
X215959771Y-72124079D01*
X215967172Y-72115735D01*
X215968750Y-72114820D01*
X215973870Y-72119721D01*
X215984461Y-72132483D01*
X215998404Y-72150532D01*
X216001017Y-72154023D01*
X216025059Y-72182114D01*
X216056697Y-72213087D01*
X216092233Y-72243574D01*
X216127971Y-72270204D01*
X216129904Y-72271514D01*
X216151663Y-72281080D01*
X216171861Y-72278474D01*
X216192211Y-72263423D01*
X216194257Y-72261291D01*
X216209418Y-72241481D01*
X216213963Y-72224051D01*
X216207486Y-72206931D01*
X216189584Y-72188048D01*
X216178130Y-72178762D01*
X216127222Y-72133360D01*
X216100460Y-72100550D01*
X216272053Y-72100550D01*
X216272122Y-72183727D01*
X216272340Y-72254745D01*
X216272722Y-72314346D01*
X216273283Y-72363274D01*
X216274038Y-72402272D01*
X216275004Y-72432082D01*
X216276196Y-72453449D01*
X216277628Y-72467115D01*
X216279316Y-72473822D01*
X216279797Y-72474516D01*
X216290219Y-72478734D01*
X216309223Y-72481526D01*
X216326906Y-72482258D01*
X216349572Y-72481038D01*
X216366955Y-72477850D01*
X216374015Y-72474516D01*
X216376384Y-72468267D01*
X216377514Y-72459825D01*
X216675381Y-72459825D01*
X216675700Y-72488322D01*
X216677292Y-72508015D01*
X216681113Y-72523000D01*
X216688118Y-72537373D01*
X216696709Y-72551266D01*
X216723664Y-72585607D01*
X216756713Y-72612502D01*
X216799123Y-72634589D01*
X216800707Y-72635261D01*
X216820934Y-72642881D01*
X216839672Y-72647179D01*
X216861539Y-72648789D01*
X216891152Y-72648349D01*
X216894792Y-72648214D01*
X216934314Y-72645182D01*
X216964611Y-72639154D01*
X216983045Y-72632437D01*
X217026251Y-72606829D01*
X217061145Y-72573341D01*
X217086511Y-72533740D01*
X217101130Y-72489791D01*
X217104318Y-72456452D01*
X217098072Y-72409348D01*
X217079998Y-72366344D01*
X217050818Y-72328521D01*
X217011252Y-72296965D01*
X216990239Y-72285091D01*
X216971469Y-72276231D01*
X216955058Y-72270661D01*
X216936956Y-72267630D01*
X216913116Y-72266387D01*
X216888339Y-72266174D01*
X216857044Y-72266541D01*
X216834589Y-72268171D01*
X216816920Y-72271782D01*
X216799982Y-72278092D01*
X216787257Y-72284073D01*
X216750002Y-72307070D01*
X216717226Y-72336205D01*
X216692559Y-72368086D01*
X216687388Y-72377465D01*
X216680779Y-72395106D01*
X216676975Y-72417455D01*
X216675464Y-72448009D01*
X216675381Y-72459825D01*
X216377514Y-72459825D01*
X216378274Y-72454150D01*
X216379718Y-72431252D01*
X216380751Y-72398661D01*
X216381407Y-72355463D01*
X216381720Y-72300744D01*
X216381758Y-72268065D01*
X216381758Y-72249479D01*
X217299767Y-72249479D01*
X217301944Y-72264873D01*
X217314895Y-72282709D01*
X217318746Y-72286790D01*
X217335222Y-72301116D01*
X217351115Y-72307792D01*
X217368539Y-72306432D01*
X217389611Y-72296650D01*
X217416446Y-72278060D01*
X217431603Y-72266209D01*
X217456614Y-72244858D01*
X217482591Y-72220443D01*
X217506867Y-72195694D01*
X217526776Y-72173345D01*
X217539650Y-72156125D01*
X217540523Y-72154659D01*
X217545127Y-72158242D01*
X217556819Y-72169327D01*
X217573743Y-72186114D01*
X217590763Y-72203423D01*
X217616365Y-72227801D01*
X217644278Y-72251213D01*
X217672119Y-72271973D01*
X217697500Y-72288391D01*
X217718037Y-72298779D01*
X217729487Y-72301613D01*
X217740346Y-72296932D01*
X217754750Y-72285181D01*
X217769511Y-72269801D01*
X217781438Y-72254230D01*
X217783624Y-72249666D01*
X217846565Y-72249666D01*
X217846683Y-72306477D01*
X217847104Y-72353273D01*
X217847974Y-72391019D01*
X217849441Y-72420676D01*
X217851652Y-72443208D01*
X217854754Y-72459578D01*
X217858893Y-72470748D01*
X217864218Y-72477682D01*
X217870875Y-72481341D01*
X217879011Y-72482690D01*
X217888774Y-72482690D01*
X217900311Y-72482306D01*
X217904726Y-72482258D01*
X217932956Y-72480320D01*
X217949960Y-72474349D01*
X217952664Y-72472120D01*
X217955671Y-72467649D01*
X217958032Y-72459992D01*
X217959820Y-72447726D01*
X217961112Y-72429424D01*
X217961982Y-72403661D01*
X217962504Y-72369014D01*
X217962752Y-72324055D01*
X217962805Y-72278572D01*
X217962805Y-72095161D01*
X218014065Y-72095161D01*
X218040325Y-72094777D01*
X218056892Y-72093124D01*
X218066971Y-72089454D01*
X218073766Y-72083016D01*
X218075371Y-72080823D01*
X218083994Y-72059478D01*
X218084185Y-72035934D01*
X218076167Y-72015627D01*
X218072511Y-72011291D01*
X218063196Y-72004350D01*
X218050283Y-72000381D01*
X218030303Y-71998654D01*
X218011205Y-71998387D01*
X217962805Y-71998387D01*
X217962805Y-71871476D01*
X217962698Y-71823697D01*
X217961986Y-71787280D01*
X217960087Y-71760680D01*
X217956416Y-71742357D01*
X217950390Y-71730768D01*
X217941425Y-71724370D01*
X217928937Y-71721622D01*
X217912344Y-71720980D01*
X217905847Y-71720968D01*
X217893446Y-71720674D01*
X217882900Y-71720435D01*
X217874059Y-71721211D01*
X217866774Y-71723964D01*
X217860895Y-71729656D01*
X217856273Y-71739248D01*
X217852759Y-71753702D01*
X217850204Y-71773979D01*
X217848458Y-71801041D01*
X217847372Y-71835849D01*
X217846796Y-71879365D01*
X217846582Y-71932551D01*
X217846579Y-71996367D01*
X217846639Y-72071776D01*
X217846647Y-72102152D01*
X217846602Y-72181879D01*
X217846565Y-72249666D01*
X217783624Y-72249666D01*
X217787340Y-72241909D01*
X217787423Y-72239149D01*
X217781550Y-72230554D01*
X217767564Y-72216772D01*
X217747890Y-72200074D01*
X217735187Y-72190217D01*
X217686851Y-72149074D01*
X217650312Y-72106569D01*
X217624463Y-72061033D01*
X217608199Y-72010796D01*
X217604853Y-71993549D01*
X217600289Y-71966129D01*
X217677004Y-71966129D01*
X217717273Y-71965411D01*
X217744818Y-71963258D01*
X217759592Y-71959675D01*
X217761464Y-71958387D01*
X217765881Y-71947862D01*
X217768685Y-71929438D01*
X217769208Y-71916679D01*
X217768141Y-71895089D01*
X217764202Y-71882667D01*
X217756725Y-71876034D01*
X217746340Y-71874018D01*
X217723810Y-71872333D01*
X217689895Y-71871002D01*
X217645352Y-71870047D01*
X217590941Y-71869494D01*
X217541002Y-71869355D01*
X217483460Y-71869425D01*
X217437474Y-71869677D01*
X217401693Y-71870175D01*
X217374767Y-71870983D01*
X217355346Y-71872167D01*
X217342080Y-71873789D01*
X217333619Y-71875914D01*
X217328611Y-71878606D01*
X217327621Y-71879493D01*
X217321213Y-71892598D01*
X217317924Y-71912547D01*
X217317916Y-71934022D01*
X217321350Y-71951709D01*
X217325224Y-71958387D01*
X217336336Y-71962384D01*
X217360194Y-71964948D01*
X217396719Y-71966073D01*
X217409116Y-71966129D01*
X217438742Y-71966533D01*
X217462985Y-71967632D01*
X217479330Y-71969258D01*
X217485265Y-71971225D01*
X217482961Y-71986151D01*
X217476934Y-72008833D01*
X217468511Y-72035153D01*
X217459016Y-72060992D01*
X217449776Y-72082231D01*
X217449076Y-72083632D01*
X217431204Y-72112014D01*
X217405344Y-72144088D01*
X217374408Y-72176637D01*
X217341308Y-72206443D01*
X217329212Y-72216044D01*
X217308734Y-72234034D01*
X217299767Y-72249479D01*
X216381758Y-72249479D01*
X216381758Y-72206604D01*
X216491241Y-72206604D01*
X216492396Y-72213950D01*
X216495668Y-72220017D01*
X216502013Y-72224926D01*
X216512385Y-72228799D01*
X216527741Y-72231759D01*
X216549034Y-72233926D01*
X216577221Y-72235422D01*
X216613256Y-72236369D01*
X216658095Y-72236889D01*
X216712692Y-72237103D01*
X216778003Y-72237133D01*
X216854983Y-72237101D01*
X216880083Y-72237097D01*
X216969967Y-72236976D01*
X217048086Y-72236617D01*
X217114264Y-72236021D01*
X217168329Y-72235193D01*
X217210107Y-72234134D01*
X217239423Y-72232849D01*
X217256104Y-72231340D01*
X217259825Y-72230418D01*
X217267549Y-72223383D01*
X217271340Y-72210635D01*
X217272307Y-72189773D01*
X217270914Y-72169005D01*
X217267353Y-72153146D01*
X217264563Y-72148065D01*
X217257608Y-72145395D01*
X217242096Y-72143338D01*
X217217087Y-72141850D01*
X217181639Y-72140886D01*
X217134810Y-72140401D01*
X217100005Y-72140323D01*
X216943191Y-72140323D01*
X216943191Y-72062903D01*
X217033537Y-72062903D01*
X217069876Y-72062745D01*
X217095600Y-72062081D01*
X217112998Y-72060624D01*
X217124358Y-72058088D01*
X217131969Y-72054187D01*
X217136789Y-72050000D01*
X217146639Y-72032315D01*
X217149526Y-72009730D01*
X217145267Y-71988150D01*
X217139015Y-71977928D01*
X217135201Y-71974575D01*
X217129562Y-71971922D01*
X217120678Y-71969888D01*
X217107127Y-71968391D01*
X217087488Y-71967351D01*
X217060338Y-71966686D01*
X217024256Y-71966315D01*
X216977822Y-71966157D01*
X216932511Y-71966129D01*
X216736687Y-71966129D01*
X216736687Y-71843549D01*
X216928994Y-71843549D01*
X216988972Y-71843390D01*
X217036966Y-71842892D01*
X217073897Y-71842018D01*
X217100685Y-71840732D01*
X217118249Y-71839000D01*
X217127509Y-71836785D01*
X217129045Y-71835807D01*
X217134668Y-71823067D01*
X217136750Y-71803282D01*
X217135613Y-71784429D01*
X217400608Y-71784429D01*
X217403915Y-71803673D01*
X217411197Y-71816203D01*
X217412666Y-71817225D01*
X217422933Y-71819510D01*
X217444022Y-71821441D01*
X217473851Y-71822904D01*
X217510336Y-71823788D01*
X217537068Y-71823998D01*
X217579897Y-71823871D01*
X217611713Y-71823226D01*
X217634403Y-71821916D01*
X217649854Y-71819795D01*
X217659953Y-71816717D01*
X217664520Y-71814150D01*
X217674309Y-71803721D01*
X217678405Y-71787839D01*
X217678862Y-71775807D01*
X217678165Y-71759948D01*
X217675016Y-71747984D01*
X217667831Y-71739369D01*
X217655023Y-71733558D01*
X217635007Y-71730005D01*
X217606199Y-71728165D01*
X217567012Y-71727491D01*
X217538257Y-71727420D01*
X217497938Y-71727803D01*
X217463215Y-71728881D01*
X217436130Y-71730543D01*
X217418721Y-71732680D01*
X217413855Y-71734098D01*
X217405646Y-71744872D01*
X217401207Y-71763239D01*
X217400608Y-71784429D01*
X217135613Y-71784429D01*
X217135452Y-71781767D01*
X217130936Y-71763838D01*
X217126648Y-71756913D01*
X217122655Y-71754233D01*
X217115747Y-71752061D01*
X217104673Y-71750348D01*
X217088183Y-71749040D01*
X217065026Y-71748086D01*
X217033953Y-71747434D01*
X216993712Y-71747032D01*
X216943054Y-71746830D01*
X216881425Y-71746774D01*
X216820076Y-71746800D01*
X216770331Y-71746921D01*
X216730885Y-71747206D01*
X216700434Y-71747722D01*
X216677675Y-71748538D01*
X216661305Y-71749721D01*
X216650019Y-71751339D01*
X216642514Y-71753460D01*
X216637486Y-71756151D01*
X216633632Y-71759481D01*
X216633435Y-71759678D01*
X216629075Y-71764797D01*
X216625823Y-71771432D01*
X216623516Y-71781393D01*
X216621995Y-71796491D01*
X216621098Y-71818537D01*
X216620665Y-71849343D01*
X216620533Y-71890719D01*
X216620529Y-71904839D01*
X216620421Y-71954044D01*
X216620829Y-71991854D01*
X216622852Y-72019761D01*
X216627586Y-72039259D01*
X216636130Y-72051843D01*
X216649582Y-72059007D01*
X216669039Y-72062244D01*
X216695600Y-72063047D01*
X216730361Y-72062912D01*
X216736687Y-72062903D01*
X216827033Y-72062903D01*
X216827033Y-72140323D01*
X216671050Y-72140323D01*
X216618299Y-72140406D01*
X216577043Y-72140904D01*
X216545869Y-72142187D01*
X216523365Y-72144628D01*
X216508118Y-72148599D01*
X216498717Y-72154471D01*
X216493749Y-72162615D01*
X216491802Y-72173404D01*
X216491464Y-72187209D01*
X216491464Y-72187589D01*
X216491249Y-72197858D01*
X216491241Y-72206604D01*
X216381758Y-72206604D01*
X216381758Y-72069355D01*
X216435320Y-72069355D01*
X216465235Y-72068381D01*
X216486446Y-72065638D01*
X216496626Y-72061613D01*
X216501044Y-72051088D01*
X216503848Y-72032664D01*
X216504370Y-72019905D01*
X216503188Y-71999443D01*
X216498213Y-71985857D01*
X216487303Y-71977773D01*
X216468315Y-71973816D01*
X216439107Y-71972613D01*
X216430582Y-71972581D01*
X216381758Y-71972581D01*
X216381758Y-71854516D01*
X216381430Y-71806923D01*
X216380409Y-71771346D01*
X216378643Y-71746914D01*
X216376076Y-71732756D01*
X216374015Y-71728710D01*
X216362752Y-71724084D01*
X216343470Y-71721601D01*
X216320884Y-71721318D01*
X216299713Y-71723290D01*
X216284672Y-71727574D01*
X216284535Y-71727647D01*
X216281878Y-71729434D01*
X216279627Y-71732396D01*
X216277749Y-71737537D01*
X216276210Y-71745864D01*
X216274976Y-71758383D01*
X216274014Y-71776100D01*
X216273289Y-71800022D01*
X216272769Y-71831155D01*
X216272420Y-71870505D01*
X216272207Y-71919078D01*
X216272098Y-71977881D01*
X216272058Y-72047919D01*
X216272053Y-72100550D01*
X216100460Y-72100550D01*
X216087345Y-72084471D01*
X216065199Y-72046041D01*
X216050178Y-72008650D01*
X216037911Y-71966852D01*
X216029725Y-71925942D01*
X216026942Y-71893549D01*
X216026830Y-71869355D01*
X216095694Y-71869355D01*
X216132095Y-71868722D01*
X216157541Y-71866101D01*
X216173950Y-71860406D01*
X216183241Y-71850554D01*
X216187335Y-71835460D01*
X216188161Y-71817108D01*
X216188012Y-71803454D01*
X216186715Y-71792486D01*
X216182998Y-71783909D01*
X216175586Y-71777429D01*
X216163206Y-71772752D01*
X216144584Y-71769585D01*
X216118447Y-71767633D01*
X216083521Y-71766602D01*
X216038533Y-71766199D01*
X215982209Y-71766129D01*
X215967314Y-71766129D01*
X215912363Y-71766166D01*
X215868859Y-71766337D01*
X215835342Y-71766735D01*
X215810354Y-71767451D01*
X215792434Y-71768577D01*
X215780125Y-71770205D01*
X215771966Y-71772426D01*
X215766497Y-71775333D01*
X215762261Y-71779018D01*
X215762246Y-71779032D01*
X215751461Y-71798939D01*
X215749340Y-71817742D01*
X215750941Y-71838061D01*
X215756964Y-71852351D01*
X215769234Y-71861613D01*
X215789581Y-71866850D01*
X215819831Y-71869063D01*
X215843518Y-71869355D01*
X215911882Y-71869355D01*
X215907692Y-71903226D01*
X215899542Y-71957961D01*
X215889102Y-72002944D01*
X215874878Y-72041303D01*
X215855373Y-72076164D01*
X215829094Y-72110654D01*
X215794545Y-72147901D01*
X215787187Y-72155285D01*
X215758126Y-72185262D01*
X215737533Y-72208845D01*
X215725963Y-72225365D01*
X215723527Y-72232397D01*
X215645957Y-72232397D01*
X215646045Y-72189899D01*
X215646087Y-72113406D01*
X215646088Y-72104839D01*
X215646120Y-72024766D01*
X215646123Y-71956636D01*
X215645956Y-71899487D01*
X215645477Y-71852360D01*
X215644546Y-71814294D01*
X215643022Y-71784327D01*
X215640764Y-71761501D01*
X215637631Y-71744854D01*
X215633482Y-71733426D01*
X215628177Y-71726256D01*
X215621573Y-71722384D01*
X215613531Y-71720849D01*
X215603910Y-71720692D01*
X215592568Y-71720950D01*
X215589764Y-71720968D01*
X215569541Y-71721334D01*
X215554479Y-71723536D01*
X215543820Y-71729232D01*
X215536801Y-71740078D01*
X215532663Y-71757731D01*
X215530646Y-71783848D01*
X215529988Y-71820085D01*
X215529929Y-71851322D01*
X215529929Y-71960322D01*
X215455717Y-71956452D01*
X215454007Y-71853226D01*
X215453150Y-71811323D01*
X215451652Y-71780590D01*
X215448730Y-71759298D01*
X215443602Y-71745713D01*
X215435486Y-71738105D01*
X215423600Y-71734743D01*
X215407162Y-71733895D01*
X215400092Y-71733871D01*
X215389271Y-71733650D01*
X215380099Y-71733639D01*
X215372440Y-71734821D01*
X215366159Y-71738176D01*
X215361119Y-71744686D01*
X215357184Y-71755332D01*
X215354220Y-71771095D01*
X215352090Y-71792956D01*
X215350659Y-71821897D01*
X215349792Y-71858898D01*
X215349351Y-71904941D01*
X215349203Y-71961007D01*
X215278051Y-71961007D01*
X215278207Y-71942003D01*
X215278252Y-71911791D01*
X215277972Y-71862061D01*
X215277095Y-71824307D01*
X215275572Y-71797614D01*
X215273350Y-71781066D01*
X215270508Y-71773871D01*
X215261523Y-71771212D01*
X215241925Y-71769070D01*
X215213998Y-71767444D01*
X215180025Y-71766335D01*
X215142290Y-71765742D01*
X215103076Y-71765666D01*
X215064667Y-71766107D01*
X215029346Y-71767063D01*
X214999397Y-71768537D01*
X214977103Y-71770526D01*
X214964747Y-71773033D01*
X214963334Y-71773871D01*
X214958223Y-71785780D01*
X214955938Y-71804824D01*
X214956480Y-71825550D01*
X214959847Y-71842505D01*
X214963334Y-71848710D01*
X214972670Y-71852204D01*
X214993006Y-71854628D01*
X215024979Y-71856027D01*
X215066586Y-71856452D01*
X215162094Y-71856452D01*
X215162094Y-71966129D01*
X215073184Y-71966129D01*
X215036466Y-71965941D01*
X215008272Y-71966375D01*
X214987483Y-71968925D01*
X214972980Y-71975089D01*
X214963644Y-71986360D01*
X214958355Y-72004236D01*
X214955994Y-72030211D01*
X214955441Y-72065782D01*
X214839453Y-72065782D01*
X214839478Y-72022823D01*
X214839516Y-71954853D01*
X214839391Y-71897865D01*
X214838950Y-71850896D01*
X214838040Y-71812986D01*
X214836506Y-71783174D01*
X214834195Y-71760500D01*
X214830954Y-71744002D01*
X214826630Y-71732720D01*
X214821067Y-71725692D01*
X214814114Y-71721959D01*
X214805616Y-71720559D01*
X214795420Y-71720531D01*
X214783372Y-71720914D01*
X214778416Y-71720968D01*
X214755592Y-71722182D01*
X214738131Y-71725361D01*
X214731017Y-71728710D01*
X214729275Y-71736766D01*
X214727737Y-71756307D01*
X214726400Y-71785913D01*
X214725266Y-71824168D01*
X214724335Y-71869654D01*
X214723606Y-71920953D01*
X214723080Y-71976647D01*
X214722756Y-72035318D01*
X214722634Y-72095549D01*
X214581153Y-72095549D01*
X214581274Y-72057804D01*
X214581301Y-72015289D01*
X214581215Y-71953907D01*
X214580924Y-71904194D01*
X214580380Y-71864917D01*
X214579535Y-71834844D01*
X214578340Y-71812741D01*
X214576747Y-71797374D01*
X214574707Y-71787512D01*
X214572172Y-71781920D01*
X214572142Y-71781878D01*
X214568780Y-71778135D01*
X214563824Y-71775220D01*
X214555760Y-71773032D01*
X214543079Y-71771467D01*
X214524268Y-71770421D01*
X214497818Y-71769790D01*
X214462216Y-71769472D01*
X214415952Y-71769363D01*
X214389216Y-71769355D01*
X214334705Y-71769484D01*
X214291768Y-71769915D01*
X214259074Y-71770711D01*
X214235293Y-71771936D01*
X214219095Y-71773654D01*
X214209149Y-71775928D01*
X214204778Y-71778209D01*
X214201913Y-71781654D01*
X214199606Y-71787598D01*
X214197797Y-71797333D01*
X214196428Y-71812150D01*
X214195439Y-71833338D01*
X214194771Y-71862189D01*
X214194366Y-71899993D01*
X214194164Y-71948041D01*
X214194106Y-72007623D01*
X214194106Y-72011620D01*
X206327592Y-72011620D01*
X206327592Y-71063128D01*
X206396964Y-71110494D01*
G37*
G36*
X213522665Y-69441243D02*
G01*
X213584387Y-69454488D01*
X213639141Y-69474955D01*
X213674767Y-69495310D01*
X213721115Y-69534808D01*
X213758539Y-69583590D01*
X213787042Y-69641663D01*
X213806622Y-69709030D01*
X213817281Y-69785698D01*
X213819021Y-69871673D01*
X213811840Y-69966960D01*
X213795742Y-70071564D01*
X213771751Y-70181349D01*
X213737294Y-70305758D01*
X213697551Y-70421399D01*
X213652838Y-70527655D01*
X213603468Y-70623912D01*
X213549758Y-70709552D01*
X213492022Y-70783960D01*
X213432445Y-70844843D01*
X213363726Y-70898516D01*
X213289163Y-70941619D01*
X213210149Y-70973716D01*
X213128075Y-70994369D01*
X213044333Y-71003142D01*
X212960315Y-70999599D01*
X212945402Y-70997639D01*
X212877950Y-70982303D01*
X212818843Y-70957182D01*
X212768155Y-70922399D01*
X212725958Y-70878075D01*
X212692328Y-70824333D01*
X212667337Y-70761295D01*
X212651061Y-70689081D01*
X212643573Y-70607814D01*
X212644947Y-70517616D01*
X212645862Y-70504139D01*
X212656954Y-70405989D01*
X212675607Y-70303476D01*
X212701005Y-70199085D01*
X212732331Y-70095301D01*
X212768772Y-69994611D01*
X212809511Y-69899500D01*
X212853733Y-69812454D01*
X212895231Y-69743974D01*
X212943482Y-69679010D01*
X212998022Y-69619038D01*
X213056753Y-69565932D01*
X213117579Y-69521569D01*
X213178404Y-69487826D01*
X213184735Y-69484961D01*
X213249070Y-69461408D01*
X213317178Y-69445305D01*
X213386912Y-69436607D01*
X213456124Y-69435268D01*
X213522665Y-69441243D01*
G37*
G36*
X215777712Y-68137063D02*
G01*
X215784980Y-68120968D01*
X215804198Y-68099019D01*
X215831781Y-68081717D01*
X215863410Y-68071329D01*
X215883294Y-68069355D01*
X215911261Y-68069355D01*
X215909353Y-68026480D01*
X215907256Y-68000794D01*
X215903297Y-67985191D01*
X215896743Y-67976902D01*
X215896151Y-67976513D01*
X215881380Y-67973364D01*
X215868536Y-67980895D01*
X215860832Y-67996948D01*
X215860230Y-68000651D01*
X215858306Y-68010092D01*
X215853288Y-68015206D01*
X215841993Y-68017315D01*
X215821235Y-68017741D01*
X215819053Y-68017742D01*
X215779917Y-68017742D01*
X215783820Y-67993700D01*
X215794723Y-67961034D01*
X215815063Y-67936867D01*
X215844190Y-67921648D01*
X215881453Y-67915828D01*
X215896082Y-67916082D01*
X215931668Y-67921608D01*
X215957293Y-67934131D01*
X215974335Y-67954486D01*
X215979679Y-67966733D01*
X215982689Y-67982684D01*
X215985014Y-68011242D01*
X215986639Y-68052129D01*
X215987553Y-68105066D01*
X215987746Y-68138710D01*
X215988110Y-68288710D01*
X215952617Y-68288710D01*
X215931458Y-68287911D01*
X215920509Y-68285012D01*
X215917145Y-68279265D01*
X215917124Y-68278564D01*
X215915469Y-68272970D01*
X215908770Y-68275397D01*
X215900121Y-68281790D01*
X215879445Y-68291462D01*
X215853242Y-68295176D01*
X215827253Y-68292724D01*
X215808818Y-68285092D01*
X215789433Y-68264788D01*
X215777466Y-68235691D01*
X215772512Y-68196729D01*
X215772335Y-68188710D01*
X215772600Y-68181120D01*
X215844551Y-68181120D01*
X215846006Y-68201280D01*
X215850195Y-68217002D01*
X215852364Y-68220694D01*
X215866094Y-68229024D01*
X215883441Y-68230129D01*
X215898626Y-68224289D01*
X215903991Y-68218166D01*
X215907449Y-68205431D01*
X215909863Y-68184551D01*
X215910671Y-68162521D01*
X215910671Y-68119355D01*
X215889720Y-68123544D01*
X215865284Y-68132817D01*
X215850649Y-68149661D01*
X215844763Y-68175416D01*
X215844551Y-68181120D01*
X215772600Y-68181120D01*
X215773378Y-68158812D01*
X215777712Y-68137063D01*
G37*
G36*
X205630641Y-68595161D02*
G01*
X205627414Y-68598387D01*
X205624187Y-68595161D01*
X205627414Y-68591936D01*
X205630641Y-68595161D01*
G37*
G36*
X216666678Y-68082258D02*
G01*
X216667767Y-68042776D01*
X216669183Y-68013840D01*
X216671221Y-67993092D01*
X216674177Y-67978174D01*
X216678346Y-67966729D01*
X216682054Y-67959678D01*
X216701963Y-67936248D01*
X216727786Y-67921123D01*
X216756348Y-67915025D01*
X216784475Y-67918677D01*
X216807178Y-67931219D01*
X216819817Y-67941402D01*
X216825492Y-67943572D01*
X216826985Y-67938180D01*
X216827033Y-67934445D01*
X216828559Y-67926417D01*
X216835268Y-67922393D01*
X216850360Y-67921051D01*
X216859622Y-67920968D01*
X216892211Y-67920968D01*
X216890275Y-68135484D01*
X216889708Y-68194045D01*
X216889116Y-68241135D01*
X216888407Y-68278187D01*
X216887490Y-68306632D01*
X216886275Y-68327905D01*
X216884669Y-68343436D01*
X216882583Y-68354659D01*
X216879924Y-68363005D01*
X216876602Y-68369907D01*
X216875204Y-68372353D01*
X216861408Y-68390249D01*
X216844972Y-68404565D01*
X216842938Y-68405825D01*
X216819819Y-68414696D01*
X216790208Y-68420075D01*
X216760225Y-68421208D01*
X216739914Y-68418508D01*
X216707896Y-68406488D01*
X216686228Y-68388546D01*
X216672961Y-68362677D01*
X216668687Y-68345161D01*
X216664265Y-68320968D01*
X216702288Y-68320968D01*
X216723739Y-68321394D01*
X216735985Y-68323725D01*
X216742724Y-68329538D01*
X216747619Y-68340323D01*
X216755614Y-68354426D01*
X216768018Y-68359400D01*
X216774385Y-68359678D01*
X216793404Y-68356753D01*
X216805605Y-68346787D01*
X216812132Y-68327992D01*
X216814125Y-68298582D01*
X216814126Y-68297458D01*
X216814126Y-68255515D01*
X216797123Y-68268887D01*
X216773284Y-68280178D01*
X216745014Y-68282716D01*
X216717225Y-68276651D01*
X216698875Y-68265902D01*
X216686860Y-68252883D01*
X216677882Y-68235647D01*
X216671649Y-68212526D01*
X216667868Y-68181853D01*
X216666246Y-68141960D01*
X216666464Y-68096952D01*
X216743141Y-68096952D01*
X216743439Y-68135869D01*
X216744466Y-68163981D01*
X216746419Y-68183374D01*
X216749493Y-68196138D01*
X216753186Y-68203403D01*
X216768255Y-68215472D01*
X216786435Y-68216118D01*
X216802325Y-68207065D01*
X216806930Y-68201592D01*
X216810169Y-68193468D01*
X216812275Y-68180574D01*
X216813481Y-68160788D01*
X216814020Y-68131992D01*
X216814126Y-68099508D01*
X216813915Y-68060808D01*
X216813145Y-68032924D01*
X216811612Y-68013774D01*
X216809111Y-68001278D01*
X216805438Y-67993352D01*
X216803446Y-67990831D01*
X216787057Y-67980301D01*
X216769285Y-67982337D01*
X216756047Y-67991936D01*
X216750924Y-67998141D01*
X216747360Y-68006276D01*
X216745077Y-68018600D01*
X216743799Y-68037373D01*
X216743247Y-68064857D01*
X216743141Y-68096952D01*
X216666464Y-68096952D01*
X216666492Y-68091180D01*
X216666678Y-68082258D01*
G37*
G36*
X216211387Y-67922583D02*
G01*
X216213701Y-67940130D01*
X216213974Y-67958853D01*
X216213974Y-68003190D01*
X216189400Y-68007118D01*
X216166111Y-68015280D01*
X216149068Y-68027801D01*
X216143572Y-68034079D01*
X216139492Y-68040848D01*
X216136578Y-68050065D01*
X216134579Y-68063684D01*
X216133245Y-68083662D01*
X216132326Y-68111953D01*
X216131572Y-68150512D01*
X216131304Y-68166632D01*
X216129299Y-68288710D01*
X216052643Y-68288710D01*
X216052643Y-67920968D01*
X216122886Y-67920968D01*
X216124871Y-67948387D01*
X216126855Y-67975807D01*
X216138577Y-67954331D01*
X216153848Y-67935792D01*
X216172249Y-67923685D01*
X216192641Y-67916029D01*
X216205027Y-67915105D01*
X216211387Y-67922583D01*
G37*
G36*
X215009040Y-67916224D02*
G01*
X215039394Y-67923708D01*
X215060976Y-67940253D01*
X215074939Y-67966861D01*
X215077569Y-67975968D01*
X215079828Y-67991588D01*
X215081753Y-68018018D01*
X215083256Y-68053169D01*
X215084251Y-68094950D01*
X215084651Y-68141270D01*
X215084655Y-68146405D01*
X215084655Y-68288710D01*
X215007216Y-68288710D01*
X215007216Y-68148210D01*
X215007077Y-68100412D01*
X215006586Y-68063841D01*
X215005637Y-68036823D01*
X215004119Y-68017682D01*
X215001924Y-68004744D01*
X214998943Y-67996336D01*
X214997170Y-67993371D01*
X214982145Y-67981491D01*
X214964092Y-67980395D01*
X214947396Y-67990304D01*
X214946910Y-67990831D01*
X214943375Y-67996178D01*
X214940701Y-68004488D01*
X214938775Y-68017433D01*
X214937480Y-68036689D01*
X214936702Y-68063929D01*
X214936324Y-68100828D01*
X214936230Y-68145669D01*
X214936230Y-68288710D01*
X214858791Y-68288710D01*
X214858791Y-67920968D01*
X214894284Y-67920968D01*
X214914817Y-67921539D01*
X214925514Y-67923981D01*
X214929419Y-67929384D01*
X214929777Y-67933677D01*
X214930591Y-67940878D01*
X214934899Y-67941657D01*
X214945501Y-67935573D01*
X214953976Y-67929860D01*
X214972822Y-67919182D01*
X214991004Y-67915482D01*
X215009040Y-67916224D01*
G37*
G36*
X214465143Y-72159678D02*
G01*
X214310265Y-72159678D01*
X214310265Y-71862903D01*
X214465143Y-71862903D01*
X214465143Y-72159678D01*
G37*
G36*
X207192328Y-67350000D02*
G01*
X207189101Y-67353226D01*
X207185874Y-67350000D01*
X207189101Y-67346774D01*
X207192328Y-67350000D01*
G37*
G36*
X210818910Y-67916522D02*
G01*
X210833572Y-67920245D01*
X210848917Y-67930417D01*
X210862899Y-67946192D01*
X210864201Y-67948226D01*
X210868220Y-67955614D01*
X210871307Y-67964076D01*
X210873586Y-67975320D01*
X210875178Y-67991052D01*
X210876204Y-68012979D01*
X210876787Y-68042808D01*
X210877049Y-68082247D01*
X210877110Y-68129032D01*
X210877135Y-68288710D01*
X210806149Y-68288710D01*
X210806149Y-68160484D01*
X210805947Y-68119716D01*
X210805384Y-68082163D01*
X210804527Y-68050196D01*
X210803439Y-68026183D01*
X210802185Y-68012496D01*
X210802070Y-68011868D01*
X210792851Y-67991874D01*
X210776445Y-67981536D01*
X210757438Y-67981760D01*
X210748594Y-67986025D01*
X210741698Y-67994773D01*
X210736530Y-68009374D01*
X210732871Y-68031200D01*
X210730501Y-68061625D01*
X210729201Y-68102018D01*
X210728753Y-68153753D01*
X210728746Y-68161291D01*
X210728710Y-68288710D01*
X210657724Y-68288710D01*
X210657724Y-68115044D01*
X210657583Y-68068565D01*
X210657185Y-68026020D01*
X210656569Y-67989208D01*
X210655773Y-67959925D01*
X210654836Y-67939971D01*
X210653807Y-67931173D01*
X210653502Y-67925497D01*
X210659735Y-67922381D01*
X210674953Y-67921123D01*
X210689300Y-67920968D01*
X210711071Y-67921371D01*
X210722915Y-67923284D01*
X210727803Y-67927766D01*
X210728710Y-67934996D01*
X210728710Y-67949024D01*
X210744441Y-67934249D01*
X210764758Y-67922435D01*
X210791457Y-67916232D01*
X210818910Y-67916522D01*
G37*
G36*
X215374927Y-67811035D02*
G01*
X215402077Y-67820304D01*
X215421374Y-67837446D01*
X215434300Y-67863909D01*
X215442339Y-67901138D01*
X215443586Y-67910815D01*
X215447814Y-67946774D01*
X215368598Y-67946774D01*
X215368598Y-67920544D01*
X215365964Y-67893354D01*
X215357549Y-67876844D01*
X215342580Y-67869806D01*
X215335945Y-67869355D01*
X215320058Y-67872485D01*
X215311136Y-67883963D01*
X215310359Y-67885904D01*
X215303670Y-67918365D01*
X215309376Y-67948538D01*
X215327639Y-67976842D01*
X215354525Y-68000757D01*
X215387806Y-68028122D01*
X215415545Y-68056719D01*
X215435662Y-68084147D01*
X215445511Y-68105776D01*
X215451688Y-68142572D01*
X215451329Y-68181122D01*
X215444983Y-68217659D01*
X215433199Y-68248416D01*
X215422466Y-68263991D01*
X215395954Y-68284072D01*
X215362227Y-68295302D01*
X215323988Y-68297090D01*
X215294606Y-68292046D01*
X215262559Y-68277683D01*
X215239417Y-68254035D01*
X215225273Y-68221248D01*
X215220221Y-68179465D01*
X215220209Y-68177420D01*
X215220173Y-68153226D01*
X215297612Y-68153226D01*
X215297612Y-68182258D01*
X215301648Y-68208209D01*
X215312374Y-68226507D01*
X215327714Y-68235841D01*
X215345595Y-68234899D01*
X215362851Y-68223487D01*
X215370314Y-68214116D01*
X215373978Y-68202584D01*
X215374629Y-68184893D01*
X215373792Y-68167907D01*
X215372976Y-68153335D01*
X215371832Y-68142039D01*
X215369114Y-68132344D01*
X215363573Y-68122580D01*
X215353962Y-68111074D01*
X215339035Y-68096153D01*
X215317543Y-68076146D01*
X215288240Y-68049380D01*
X215279264Y-68041177D01*
X215254725Y-68015741D01*
X215239760Y-67991266D01*
X215232348Y-67963172D01*
X215230462Y-67930645D01*
X215234686Y-67886112D01*
X215247706Y-67850877D01*
X215269612Y-67824715D01*
X215273909Y-67821384D01*
X215287402Y-67813813D01*
X215304341Y-67809708D01*
X215328785Y-67808241D01*
X215338441Y-67808191D01*
X215374927Y-67811035D01*
G37*
G36*
X215540431Y-69402093D02*
G01*
X215601608Y-69412739D01*
X215652385Y-69430706D01*
X215692993Y-69456171D01*
X215723661Y-69489309D01*
X215744621Y-69530296D01*
X215756101Y-69579305D01*
X215758625Y-69619355D01*
X215758850Y-69669355D01*
X215938013Y-69669355D01*
X215984591Y-69669522D01*
X216026660Y-69669993D01*
X216062581Y-69670724D01*
X216090714Y-69671671D01*
X216109420Y-69672789D01*
X216117060Y-69674035D01*
X216117156Y-69674194D01*
X216115985Y-69682183D01*
X216112838Y-69699954D01*
X216108236Y-69724629D01*
X216104249Y-69745390D01*
X216096669Y-69796138D01*
X216092480Y-69850412D01*
X216091726Y-69904297D01*
X216094456Y-69953879D01*
X216100714Y-69995244D01*
X216101267Y-69997652D01*
X216121008Y-70056151D01*
X216151889Y-70114094D01*
X216192328Y-70168744D01*
X216213563Y-70191880D01*
X216262903Y-70236958D01*
X216319809Y-70279127D01*
X216385064Y-70318753D01*
X216459452Y-70356203D01*
X216543758Y-70391846D01*
X216638765Y-70426048D01*
X216745258Y-70459177D01*
X216839702Y-70485275D01*
X216926075Y-70508642D01*
X217000584Y-70530312D01*
X217064094Y-70550734D01*
X217117468Y-70570358D01*
X217161570Y-70589634D01*
X217197262Y-70609013D01*
X217225409Y-70628945D01*
X217246873Y-70649879D01*
X217262519Y-70672267D01*
X217273210Y-70696558D01*
X217277948Y-70713752D01*
X217280852Y-70751363D01*
X217275253Y-70794090D01*
X217262251Y-70838424D01*
X217242943Y-70880858D01*
X217218430Y-70917886D01*
X217211382Y-70926149D01*
X217171340Y-70961480D01*
X217121119Y-70990809D01*
X217062326Y-71013398D01*
X216996563Y-71028510D01*
X216984467Y-71030330D01*
X216951056Y-71033612D01*
X216910438Y-71035547D01*
X216866687Y-71036137D01*
X216823882Y-71035386D01*
X216786098Y-71033294D01*
X216759350Y-71030202D01*
X216711992Y-71019460D01*
X216665820Y-71003872D01*
X216625351Y-70985116D01*
X216605905Y-70973193D01*
X216568809Y-70940808D01*
X216540603Y-70901056D01*
X216520808Y-70852963D01*
X216508946Y-70795554D01*
X216506408Y-70770968D01*
X216502457Y-70720968D01*
X216296467Y-70720968D01*
X216300095Y-70706452D01*
X216312814Y-70643527D01*
X216320552Y-70578393D01*
X216323192Y-70514391D01*
X216320617Y-70454863D01*
X216312710Y-70403150D01*
X216310953Y-70395868D01*
X216290542Y-70334777D01*
X216261277Y-70277342D01*
X216222760Y-70223299D01*
X216174594Y-70172387D01*
X216116380Y-70124345D01*
X216047719Y-70078912D01*
X215968214Y-70035826D01*
X215877465Y-69994825D01*
X215775076Y-69955648D01*
X215660647Y-69918033D01*
X215533780Y-69881720D01*
X215523730Y-69879035D01*
X215442473Y-69856799D01*
X215372985Y-69836311D01*
X215314313Y-69817148D01*
X215265505Y-69798885D01*
X215225606Y-69781100D01*
X215193664Y-69763368D01*
X215168725Y-69745266D01*
X215149836Y-69726372D01*
X215136427Y-69706945D01*
X215125340Y-69674804D01*
X215123780Y-69637128D01*
X215131125Y-69596360D01*
X215146759Y-69554942D01*
X215170061Y-69515316D01*
X215191720Y-69488750D01*
X215230224Y-69455512D01*
X215276549Y-69430134D01*
X215331481Y-69412358D01*
X215395802Y-69401931D01*
X215468623Y-69398595D01*
X215540431Y-69402093D01*
G37*
G36*
X208624187Y-68004961D02*
G01*
X208671464Y-68018811D01*
X208720653Y-68041584D01*
X208770807Y-68073562D01*
X208820980Y-68115027D01*
X208826276Y-68120005D01*
X208872233Y-68168890D01*
X208909748Y-68219476D01*
X208938498Y-68270574D01*
X208958162Y-68320993D01*
X208968417Y-68369544D01*
X208968943Y-68415036D01*
X208959416Y-68456279D01*
X208939516Y-68492083D01*
X208929929Y-68503226D01*
X208912931Y-68520968D01*
X208809273Y-68520851D01*
X208770448Y-68520740D01*
X208742035Y-68520274D01*
X208721538Y-68519107D01*
X208706463Y-68516890D01*
X208694315Y-68513275D01*
X208682599Y-68507913D01*
X208670752Y-68501522D01*
X208609240Y-68461522D01*
X208554015Y-68413438D01*
X208506701Y-68359154D01*
X208468923Y-68300551D01*
X208442305Y-68239513D01*
X208440887Y-68235151D01*
X208428369Y-68181426D01*
X208426280Y-68134078D01*
X208433674Y-68093390D01*
X208449605Y-68059646D01*
X208473126Y-68033126D01*
X208503292Y-68014115D01*
X208539155Y-68002896D01*
X208579769Y-67999750D01*
X208624187Y-68004961D01*
G37*
G36*
X213097331Y-68115644D02*
G01*
X213101203Y-68109137D01*
X213117270Y-68093694D01*
X213141723Y-68080655D01*
X213170049Y-68071980D01*
X213192534Y-68069497D01*
X213220255Y-68069355D01*
X213218347Y-68026480D01*
X213216250Y-68000794D01*
X213212291Y-67985191D01*
X213205737Y-67976902D01*
X213205145Y-67976513D01*
X213190374Y-67973364D01*
X213177530Y-67980895D01*
X213169826Y-67996948D01*
X213169224Y-68000651D01*
X213167294Y-68010104D01*
X213162262Y-68015218D01*
X213150936Y-68017321D01*
X213130128Y-68017741D01*
X213128173Y-68017742D01*
X213089164Y-68017742D01*
X213093444Y-67993549D01*
X213105037Y-67960870D01*
X213126234Y-67936299D01*
X213156018Y-67920610D01*
X213193372Y-67914579D01*
X213197079Y-67914536D01*
X213233418Y-67919283D01*
X213262636Y-67932951D01*
X213283046Y-67954684D01*
X213285801Y-67959678D01*
X213289444Y-67968414D01*
X213292223Y-67979328D01*
X213294251Y-67994165D01*
X213295640Y-68014671D01*
X213296501Y-68042594D01*
X213296948Y-68079677D01*
X213297092Y-68127668D01*
X213297094Y-68135484D01*
X213297104Y-68288710D01*
X213261611Y-68288710D01*
X213240452Y-68287911D01*
X213229503Y-68285012D01*
X213226139Y-68279265D01*
X213226118Y-68278564D01*
X213224463Y-68272970D01*
X213217764Y-68275397D01*
X213209115Y-68281790D01*
X213189121Y-68291869D01*
X213161681Y-68295156D01*
X213160219Y-68295161D01*
X213138208Y-68293670D01*
X213122932Y-68287750D01*
X213110171Y-68277010D01*
X213093420Y-68251985D01*
X213083562Y-68219633D01*
X213080797Y-68183656D01*
X213081010Y-68181968D01*
X213155132Y-68181968D01*
X213156558Y-68202523D01*
X213160193Y-68218153D01*
X213162876Y-68222903D01*
X213178062Y-68230294D01*
X213195997Y-68229313D01*
X213210767Y-68220741D01*
X213214067Y-68216145D01*
X213218404Y-68201841D01*
X213221449Y-68180156D01*
X213222360Y-68162919D01*
X213222892Y-68124194D01*
X213201494Y-68125191D01*
X213177832Y-68130275D01*
X213162973Y-68143651D01*
X213155977Y-68166469D01*
X213155132Y-68181968D01*
X213081010Y-68181968D01*
X213085320Y-68147759D01*
X213097331Y-68115644D01*
G37*
G36*
X214021784Y-67988178D02*
G01*
X214022575Y-67949416D01*
X214023591Y-67920132D01*
X214024975Y-67898614D01*
X214026868Y-67883151D01*
X214029411Y-67872030D01*
X214032747Y-67863539D01*
X214036001Y-67857619D01*
X214056466Y-67832498D01*
X214082931Y-67816615D01*
X214117346Y-67809035D01*
X214139253Y-67808065D01*
X214177686Y-67811210D01*
X214206780Y-67821357D01*
X214228660Y-67839574D01*
X214241876Y-67859678D01*
X214246203Y-67868790D01*
X214249541Y-67878753D01*
X214252048Y-67891373D01*
X214253880Y-67908461D01*
X214255193Y-67931825D01*
X214256145Y-67963273D01*
X214256891Y-68004614D01*
X214257349Y-68038430D01*
X214257836Y-68094062D01*
X214257592Y-68138467D01*
X214256407Y-68173310D01*
X214254072Y-68200257D01*
X214250377Y-68220973D01*
X214245113Y-68237123D01*
X214238071Y-68250374D01*
X214229218Y-68262179D01*
X214204938Y-68281668D01*
X214172824Y-68293847D01*
X214136145Y-68297987D01*
X214098171Y-68293355D01*
X214094301Y-68292347D01*
X214062591Y-68278487D01*
X214040385Y-68256326D01*
X214026436Y-68224603D01*
X214026138Y-68223513D01*
X214023683Y-68206798D01*
X214021941Y-68178028D01*
X214020935Y-68138032D01*
X214020686Y-68087639D01*
X214020991Y-68049033D01*
X214097307Y-68049033D01*
X214097441Y-68102178D01*
X214098058Y-68143819D01*
X214099481Y-68175354D01*
X214102033Y-68198180D01*
X214106037Y-68213697D01*
X214111816Y-68223302D01*
X214119692Y-68228393D01*
X214129989Y-68230368D01*
X214139253Y-68230645D01*
X214159816Y-68226499D01*
X214171154Y-68216307D01*
X214174458Y-68209721D01*
X214176973Y-68199536D01*
X214178799Y-68184133D01*
X214180034Y-68161892D01*
X214180779Y-68131196D01*
X214181132Y-68090425D01*
X214181200Y-68052505D01*
X214181111Y-68004147D01*
X214180768Y-67967023D01*
X214180054Y-67939466D01*
X214178854Y-67919809D01*
X214177052Y-67906384D01*
X214174532Y-67897522D01*
X214171178Y-67891558D01*
X214169906Y-67889985D01*
X214151308Y-67875330D01*
X214131997Y-67873557D01*
X214114454Y-67882613D01*
X214097307Y-67896098D01*
X214097307Y-68049033D01*
X214020991Y-68049033D01*
X214021077Y-68038132D01*
X214021784Y-67988178D01*
G37*
G36*
X214352211Y-67920968D02*
G01*
X214372513Y-67921341D01*
X214383082Y-67923508D01*
X214387088Y-67929037D01*
X214387704Y-67938532D01*
X214388164Y-67950560D01*
X214391123Y-67950719D01*
X214397126Y-67942647D01*
X214415843Y-67926320D01*
X214442124Y-67917076D01*
X214471945Y-67916326D01*
X214472219Y-67916362D01*
X214492511Y-67920688D01*
X214508367Y-67928533D01*
X214520303Y-67941321D01*
X214528836Y-67960477D01*
X214534482Y-67987426D01*
X214537757Y-68023592D01*
X214539177Y-68070401D01*
X214539355Y-68101613D01*
X214538699Y-68154624D01*
X214536496Y-68196324D01*
X214532394Y-68228248D01*
X214526039Y-68251932D01*
X214517081Y-68268913D01*
X214505166Y-68280727D01*
X214497143Y-68285621D01*
X214471410Y-68293691D01*
X214442962Y-68294667D01*
X214417090Y-68288770D01*
X214404707Y-68281790D01*
X214387704Y-68268418D01*
X214387704Y-68417742D01*
X214316718Y-68417742D01*
X214316718Y-68103413D01*
X214390930Y-68103413D01*
X214391311Y-68147680D01*
X214392758Y-68180601D01*
X214395729Y-68203718D01*
X214400682Y-68218573D01*
X214408074Y-68226708D01*
X214418364Y-68229666D01*
X214428318Y-68229409D01*
X214447468Y-68222847D01*
X214456834Y-68211291D01*
X214460041Y-68198262D01*
X214462494Y-68175426D01*
X214464164Y-68145856D01*
X214465019Y-68112627D01*
X214465030Y-68078815D01*
X214464164Y-68047493D01*
X214462392Y-68021736D01*
X214459682Y-68004620D01*
X214458918Y-68002213D01*
X214447240Y-67986531D01*
X214430353Y-67980667D01*
X214412296Y-67985439D01*
X214404863Y-67991276D01*
X214399511Y-67997420D01*
X214395735Y-68004854D01*
X214393263Y-68015773D01*
X214391821Y-68032377D01*
X214391137Y-68056861D01*
X214390937Y-68091426D01*
X214390930Y-68103413D01*
X214316718Y-68103413D01*
X214316718Y-67920968D01*
X214352211Y-67920968D01*
G37*
G36*
X212611483Y-67918626D02*
G01*
X212642563Y-67931061D01*
X212665282Y-67953018D01*
X212679043Y-67984020D01*
X212682541Y-68004358D01*
X212685687Y-68037097D01*
X212646147Y-68037097D01*
X212624430Y-68036846D01*
X212612610Y-68035137D01*
X212607676Y-68030538D01*
X212606618Y-68021614D01*
X212606606Y-68018270D01*
X212605294Y-68000822D01*
X212602689Y-67989238D01*
X212593645Y-67981016D01*
X212578951Y-67979084D01*
X212564077Y-67983178D01*
X212555207Y-67991512D01*
X212552805Y-68002370D01*
X212550817Y-68023838D01*
X212549376Y-68053624D01*
X212548613Y-68089438D01*
X212548527Y-68106926D01*
X212548679Y-68146332D01*
X212549281Y-68174979D01*
X212550555Y-68195006D01*
X212552721Y-68208554D01*
X212556000Y-68217766D01*
X212560611Y-68224781D01*
X212560675Y-68224860D01*
X212570982Y-68234941D01*
X212581247Y-68235522D01*
X212589328Y-68232341D01*
X212600473Y-68224636D01*
X212605996Y-68211935D01*
X212607833Y-68197089D01*
X212609833Y-68169355D01*
X212684045Y-68165485D01*
X212684009Y-68186775D01*
X212678832Y-68225561D01*
X212664003Y-68258001D01*
X212651511Y-68272838D01*
X212639452Y-68283001D01*
X212626963Y-68288999D01*
X212609816Y-68292167D01*
X212585324Y-68293775D01*
X212558255Y-68294195D01*
X212539551Y-68292065D01*
X212524798Y-68286648D01*
X212517486Y-68282453D01*
X212503428Y-68272234D01*
X212492741Y-68260268D01*
X212484980Y-68244727D01*
X212479701Y-68223787D01*
X212476460Y-68195620D01*
X212474813Y-68158401D01*
X212474318Y-68110305D01*
X212474314Y-68104839D01*
X212474439Y-68062663D01*
X212474945Y-68031274D01*
X212476030Y-68008554D01*
X212477892Y-67992389D01*
X212480728Y-67980662D01*
X212484737Y-67971258D01*
X212487221Y-67966804D01*
X212507500Y-67940427D01*
X212532469Y-67924348D01*
X212565081Y-67916818D01*
X212572640Y-67916193D01*
X212611483Y-67918626D01*
G37*
G36*
X212726767Y-68038407D02*
G01*
X212727961Y-68016883D01*
X212730129Y-68001003D01*
X212733530Y-67988349D01*
X212738423Y-67976500D01*
X212740899Y-67971356D01*
X212761614Y-67942438D01*
X212789962Y-67923804D01*
X212825471Y-67915694D01*
X212849265Y-67915916D01*
X212882759Y-67922314D01*
X212908301Y-67935948D01*
X212926583Y-67957856D01*
X212938296Y-67989074D01*
X212944132Y-68030641D01*
X212945095Y-68059678D01*
X212945402Y-68124194D01*
X212800204Y-68127842D01*
X212800204Y-68169566D01*
X212803272Y-68201979D01*
X212812228Y-68224254D01*
X212826697Y-68235677D01*
X212835697Y-68237097D01*
X212849789Y-68231577D01*
X212862688Y-68218144D01*
X212870427Y-68201483D01*
X212871189Y-68195161D01*
X212872111Y-68185924D01*
X212876980Y-68181114D01*
X212888956Y-68179297D01*
X212906682Y-68179032D01*
X212942175Y-68179032D01*
X212942175Y-68203327D01*
X212936574Y-68234679D01*
X212921264Y-68262324D01*
X212898489Y-68282324D01*
X212896604Y-68283373D01*
X212871324Y-68291703D01*
X212839687Y-68294944D01*
X212807212Y-68293063D01*
X212779417Y-68286026D01*
X212775088Y-68284088D01*
X212754299Y-68267632D01*
X212739870Y-68243912D01*
X212734800Y-68231330D01*
X212731174Y-68217873D01*
X212728749Y-68201124D01*
X212727283Y-68178667D01*
X212726535Y-68148085D01*
X212726266Y-68108065D01*
X212726287Y-68069355D01*
X212800204Y-68069355D01*
X212871189Y-68069355D01*
X212871189Y-68031936D01*
X212869511Y-68005071D01*
X212863608Y-67988698D01*
X212852177Y-67980738D01*
X212837998Y-67979032D01*
X212819183Y-67984693D01*
X212806553Y-68001148D01*
X212800611Y-68027603D01*
X212800204Y-68038532D01*
X212800204Y-68069355D01*
X212726287Y-68069355D01*
X212726288Y-68067995D01*
X212726767Y-68038407D01*
G37*
G36*
X205637094Y-68582258D02*
G01*
X205633867Y-68585484D01*
X205630641Y-68582258D01*
X205633867Y-68579032D01*
X205637094Y-68582258D01*
G37*
G36*
X215575102Y-67949024D02*
G01*
X215591025Y-67934069D01*
X215610811Y-67922680D01*
X215637014Y-67916587D01*
X215663988Y-67916493D01*
X215684807Y-67922398D01*
X215696037Y-67929292D01*
X215704880Y-67937909D01*
X215711616Y-67949767D01*
X215716525Y-67966384D01*
X215719887Y-67989278D01*
X215721982Y-68019966D01*
X215723091Y-68059966D01*
X215723492Y-68110796D01*
X215723517Y-68132258D01*
X215723527Y-68288710D01*
X215646088Y-68288710D01*
X215646088Y-68144009D01*
X215645971Y-68096015D01*
X215645552Y-68059305D01*
X215644723Y-68032265D01*
X215643380Y-68013278D01*
X215641415Y-68000729D01*
X215638724Y-67992999D01*
X215635947Y-67989171D01*
X215618860Y-67979857D01*
X215599560Y-67982965D01*
X215590855Y-67988180D01*
X215586789Y-67991928D01*
X215583669Y-67997576D01*
X215581339Y-68006787D01*
X215579642Y-68021225D01*
X215578425Y-68042552D01*
X215577531Y-68072432D01*
X215576804Y-68112528D01*
X215576372Y-68143019D01*
X215574416Y-68288710D01*
X215497663Y-68288710D01*
X215497663Y-67791936D01*
X215575102Y-67791936D01*
X215575102Y-67949024D01*
G37*
G36*
X211423377Y-69426704D02*
G01*
X211489000Y-69439534D01*
X211545099Y-69461069D01*
X211591681Y-69491317D01*
X211628755Y-69530284D01*
X211656329Y-69577978D01*
X211674410Y-69634406D01*
X211683006Y-69699575D01*
X211683791Y-69728604D01*
X211683791Y-69772581D01*
X211883842Y-69772581D01*
X211933173Y-69772658D01*
X211978085Y-69772877D01*
X212017025Y-69773219D01*
X212048442Y-69773663D01*
X212070784Y-69774191D01*
X212082499Y-69774784D01*
X212083893Y-69775078D01*
X212081060Y-69781481D01*
X212073453Y-69796626D01*
X212062405Y-69817889D01*
X212055191Y-69831530D01*
X211998185Y-69950497D01*
X211949005Y-70077471D01*
X211908430Y-70209650D01*
X211877243Y-70344228D01*
X211856222Y-70478403D01*
X211847579Y-70577420D01*
X211843186Y-70656452D01*
X211452658Y-70656452D01*
X211428797Y-70700000D01*
X211384993Y-70770052D01*
X211334522Y-70833351D01*
X211278891Y-70888447D01*
X211219606Y-70933893D01*
X211158175Y-70968238D01*
X211143155Y-70974719D01*
X211088983Y-70992706D01*
X211029010Y-71005809D01*
X210967661Y-71013426D01*
X210909358Y-71014953D01*
X210870681Y-71011797D01*
X210803806Y-70997003D01*
X210745570Y-70972757D01*
X210696109Y-70939159D01*
X210655557Y-70896306D01*
X210624051Y-70844296D01*
X210616214Y-70826508D01*
X210596215Y-70762378D01*
X210584320Y-70688726D01*
X210580495Y-70606045D01*
X210584706Y-70514826D01*
X210596921Y-70415563D01*
X210617104Y-70308748D01*
X210645221Y-70194874D01*
X210664309Y-70128574D01*
X210704641Y-70008316D01*
X210749810Y-69898528D01*
X210799625Y-69799487D01*
X210853894Y-69711468D01*
X210912427Y-69634749D01*
X210975035Y-69569604D01*
X211041526Y-69516312D01*
X211111709Y-69475148D01*
X211116419Y-69472887D01*
X211172124Y-69449600D01*
X211226094Y-69434110D01*
X211282872Y-69425430D01*
X211347000Y-69422575D01*
X211348222Y-69422571D01*
X211423377Y-69426704D01*
G37*
G36*
X206209046Y-67817866D02*
G01*
X206130777Y-67911846D01*
X206064346Y-68010674D01*
X206009368Y-68115055D01*
X205965458Y-68225696D01*
X205940352Y-68310124D01*
X205914314Y-68435480D01*
X205899812Y-68564894D01*
X205897007Y-68696329D01*
X205902398Y-68791936D01*
X205907052Y-68846498D01*
X205910088Y-68890018D01*
X205911421Y-68924267D01*
X205910967Y-68951014D01*
X205908642Y-68972030D01*
X205904363Y-68989085D01*
X205898046Y-69003947D01*
X205891827Y-69014872D01*
X205867679Y-69044857D01*
X205838171Y-69067467D01*
X205805877Y-69081597D01*
X205773375Y-69086140D01*
X205743240Y-69079991D01*
X205741683Y-69079312D01*
X205723328Y-69066101D01*
X205708432Y-69043371D01*
X205706313Y-69038905D01*
X205701342Y-69027125D01*
X205697701Y-69015224D01*
X205695193Y-69001013D01*
X205693619Y-68982304D01*
X205692784Y-68956905D01*
X205692491Y-68922629D01*
X205692520Y-68885484D01*
X205696696Y-68762286D01*
X205708844Y-68647093D01*
X205729416Y-68537419D01*
X205758867Y-68430781D01*
X205792641Y-68337097D01*
X205839939Y-68235573D01*
X205899940Y-68136243D01*
X205972623Y-68039135D01*
X206057965Y-67944275D01*
X206155948Y-67851691D01*
X206192074Y-67820789D01*
X206253379Y-67769602D01*
X206209046Y-67817866D01*
G37*
G36*
X211190494Y-68019044D02*
G01*
X211193029Y-67993471D01*
X211197217Y-67974637D01*
X211203628Y-67960487D01*
X211212831Y-67948965D01*
X211225395Y-67938016D01*
X211234549Y-67931044D01*
X211255370Y-67921761D01*
X211283294Y-67917265D01*
X211313438Y-67917553D01*
X211340920Y-67922626D01*
X211359042Y-67931062D01*
X211377969Y-67948996D01*
X211391009Y-67971927D01*
X211398911Y-68002061D01*
X211402426Y-68041605D01*
X211402768Y-68059678D01*
X211403075Y-68124194D01*
X211330475Y-68126018D01*
X211257876Y-68127842D01*
X211257876Y-68169566D01*
X211260945Y-68201979D01*
X211269901Y-68224254D01*
X211284369Y-68235677D01*
X211293369Y-68237097D01*
X211307462Y-68231577D01*
X211320361Y-68218144D01*
X211328100Y-68201483D01*
X211328862Y-68195161D01*
X211329783Y-68185924D01*
X211334653Y-68181114D01*
X211346629Y-68179297D01*
X211364355Y-68179032D01*
X211399848Y-68179032D01*
X211399848Y-68203327D01*
X211394247Y-68234679D01*
X211378937Y-68262324D01*
X211356162Y-68282324D01*
X211354277Y-68283373D01*
X211328996Y-68291703D01*
X211297359Y-68294944D01*
X211264885Y-68293063D01*
X211237090Y-68286026D01*
X211232761Y-68284088D01*
X211211387Y-68266931D01*
X211198485Y-68245311D01*
X211194046Y-68234004D01*
X211190876Y-68221782D01*
X211188819Y-68206452D01*
X211187719Y-68185818D01*
X211187422Y-68157686D01*
X211187772Y-68119860D01*
X211188107Y-68098624D01*
X211188714Y-68069355D01*
X211257876Y-68069355D01*
X211328862Y-68069355D01*
X211328862Y-68031936D01*
X211327184Y-68005071D01*
X211321281Y-67988698D01*
X211309850Y-67980738D01*
X211295671Y-67979032D01*
X211276856Y-67984693D01*
X211264226Y-68001148D01*
X211258284Y-68027603D01*
X211257876Y-68038532D01*
X211257876Y-68069355D01*
X211188714Y-68069355D01*
X211189044Y-68053410D01*
X211190494Y-68019044D01*
G37*
G36*
X207157910Y-67355377D02*
G01*
X207157024Y-67359212D01*
X207153608Y-67359678D01*
X207148296Y-67357317D01*
X207149306Y-67355377D01*
X207156964Y-67354604D01*
X207157910Y-67355377D01*
G37*
G36*
X211929156Y-67998879D02*
G01*
X211936139Y-67974003D01*
X211946304Y-67955034D01*
X211960020Y-67940253D01*
X211964162Y-67936923D01*
X211994560Y-67921375D01*
X212030026Y-67915496D01*
X212066717Y-67919620D01*
X212086209Y-67926352D01*
X212107779Y-67938704D01*
X212123281Y-67955101D01*
X212133549Y-67977563D01*
X212139416Y-68008111D01*
X212141714Y-68048767D01*
X212141830Y-68061291D01*
X212141972Y-68127420D01*
X212000000Y-68127420D01*
X212000000Y-68171581D01*
X212000842Y-68197560D01*
X212003843Y-68214041D01*
X212009720Y-68224346D01*
X212011802Y-68226420D01*
X212029229Y-68235632D01*
X212045706Y-68233626D01*
X212058376Y-68221947D01*
X212064380Y-68202138D01*
X212064533Y-68197926D01*
X212065054Y-68187552D01*
X212068624Y-68181904D01*
X212078252Y-68179545D01*
X212096946Y-68179038D01*
X212104102Y-68179032D01*
X212143671Y-68179032D01*
X212140311Y-68204080D01*
X212130607Y-68241401D01*
X212112702Y-68268776D01*
X212086357Y-68286413D01*
X212051332Y-68294523D01*
X212036152Y-68295151D01*
X212002901Y-68292437D01*
X211976591Y-68284906D01*
X211974407Y-68283861D01*
X211957848Y-68273938D01*
X211945406Y-68261869D01*
X211936459Y-68245721D01*
X211930384Y-68223562D01*
X211926560Y-68193460D01*
X211924363Y-68153483D01*
X211923614Y-68126160D01*
X211923262Y-68073237D01*
X211923422Y-68069355D01*
X212000000Y-68069355D01*
X212070986Y-68069355D01*
X212070986Y-68036673D01*
X212069197Y-68008222D01*
X212063055Y-67990391D01*
X212051404Y-67981299D01*
X212035493Y-67979032D01*
X212017974Y-67981939D01*
X212006995Y-67991912D01*
X212001396Y-68010834D01*
X212000000Y-68036673D01*
X212000000Y-68069355D01*
X211923422Y-68069355D01*
X211924986Y-68031384D01*
X211929156Y-67998879D01*
G37*
G36*
X205931157Y-70332100D02*
G01*
X205959893Y-70344676D01*
X205989407Y-70367187D01*
X206021113Y-70400417D01*
X206045498Y-70430643D01*
X206120710Y-70524668D01*
X206200113Y-70616556D01*
X206267908Y-70689441D01*
X206327830Y-70751462D01*
X206326097Y-70904380D01*
X206324365Y-71057298D01*
X206259833Y-71004418D01*
X206219414Y-70969611D01*
X206173534Y-70927281D01*
X206124750Y-70880016D01*
X206075623Y-70830402D01*
X206028711Y-70781025D01*
X205986574Y-70734472D01*
X205951770Y-70693328D01*
X205950650Y-70691936D01*
X205919326Y-70651736D01*
X205888910Y-70610549D01*
X205860610Y-70570200D01*
X205835636Y-70532514D01*
X205815196Y-70499315D01*
X205800498Y-70472426D01*
X205792751Y-70453674D01*
X205792700Y-70453486D01*
X205790056Y-70420862D01*
X205798920Y-70390177D01*
X205817897Y-70363586D01*
X205845591Y-70343242D01*
X205870354Y-70333617D01*
X205901782Y-70328675D01*
X205931157Y-70332100D01*
G37*
G36*
X208373273Y-67485484D02*
G01*
X208370046Y-67488710D01*
X208366819Y-67485484D01*
X208370046Y-67482258D01*
X208373273Y-67485484D01*
G37*
G36*
X217891819Y-67920968D02*
G01*
X217943445Y-67920968D01*
X217943445Y-67985484D01*
X217891819Y-67985484D01*
X217891819Y-68103549D01*
X217891972Y-68148270D01*
X217892702Y-68181720D01*
X217894419Y-68205529D01*
X217897533Y-68221329D01*
X217902455Y-68230750D01*
X217909593Y-68235423D01*
X217919357Y-68236978D01*
X217925376Y-68237097D01*
X217937090Y-68238294D01*
X217942217Y-68244367D01*
X217943435Y-68259036D01*
X217943445Y-68262213D01*
X217940805Y-68282430D01*
X217933238Y-68291245D01*
X217917469Y-68294062D01*
X217894832Y-68294651D01*
X217871141Y-68293190D01*
X217852208Y-68289856D01*
X217848682Y-68288665D01*
X217839093Y-68283726D01*
X217831677Y-68276519D01*
X217826117Y-68265428D01*
X217822096Y-68248841D01*
X217819298Y-68225142D01*
X217817407Y-68192716D01*
X217816106Y-68149951D01*
X217815489Y-68119355D01*
X217813076Y-67985484D01*
X217794369Y-67985484D01*
X217783291Y-67984724D01*
X217777767Y-67980227D01*
X217775868Y-67968667D01*
X217775661Y-67953226D01*
X217776084Y-67934130D01*
X217778685Y-67924608D01*
X217785460Y-67921330D01*
X217795021Y-67920968D01*
X217814380Y-67920968D01*
X217814380Y-67830645D01*
X217891819Y-67830645D01*
X217891819Y-67920968D01*
G37*
G36*
X207125217Y-67361854D02*
G01*
X207118270Y-67365963D01*
X207099231Y-67373714D01*
X207069553Y-67384613D01*
X206970069Y-67426749D01*
X206878176Y-67479086D01*
X206794357Y-67541057D01*
X206719093Y-67612096D01*
X206652865Y-67691636D01*
X206596154Y-67779110D01*
X206549443Y-67873951D01*
X206513212Y-67975592D01*
X206491266Y-68065622D01*
X206481467Y-68106064D01*
X206469415Y-68136863D01*
X206460271Y-68152582D01*
X206434199Y-68181239D01*
X206400539Y-68203299D01*
X206362319Y-68217901D01*
X206322564Y-68224184D01*
X206284303Y-68221288D01*
X206255110Y-68210911D01*
X206231257Y-68192828D01*
X206216748Y-68168292D01*
X206211510Y-68136664D01*
X206215471Y-68097304D01*
X206228557Y-68049574D01*
X206234829Y-68031977D01*
X206278834Y-67929556D01*
X206331215Y-67835846D01*
X206392304Y-67750576D01*
X206462432Y-67673476D01*
X206541930Y-67604276D01*
X206631130Y-67542705D01*
X206730362Y-67488492D01*
X206839958Y-67441367D01*
X206960249Y-67401058D01*
X207030892Y-67381746D01*
X207072908Y-67371333D01*
X207102594Y-67364543D01*
X207120011Y-67361382D01*
X207125217Y-67361854D01*
G37*
G36*
X217185489Y-67811522D02*
G01*
X217213800Y-67822591D01*
X217233590Y-67842315D01*
X217245929Y-67871738D01*
X217251728Y-67909678D01*
X217254499Y-67946774D01*
X217175508Y-67946774D01*
X217175508Y-67915807D01*
X217173051Y-67890267D01*
X217165076Y-67875329D01*
X217150676Y-67869544D01*
X217146469Y-67869355D01*
X217131213Y-67872838D01*
X217122038Y-67884425D01*
X217117982Y-67905823D01*
X217117573Y-67920645D01*
X217118498Y-67940888D01*
X217122270Y-67956794D01*
X217130663Y-67970989D01*
X217145449Y-67986101D01*
X217168403Y-68004756D01*
X217180670Y-68014102D01*
X217212020Y-68039728D01*
X217233573Y-68063198D01*
X217247185Y-68087904D01*
X217254713Y-68117240D01*
X217258012Y-68154598D01*
X217258053Y-68155579D01*
X217258857Y-68185034D01*
X217258001Y-68205569D01*
X217254905Y-68221124D01*
X217248987Y-68235636D01*
X217245156Y-68243049D01*
X217223981Y-68269582D01*
X217194630Y-68288218D01*
X217159894Y-68297864D01*
X217122563Y-68297427D01*
X217111756Y-68295284D01*
X217077668Y-68282288D01*
X217053665Y-68261843D01*
X217039177Y-68233175D01*
X217033632Y-68195507D01*
X217033537Y-68188967D01*
X217033537Y-68153226D01*
X217102844Y-68153226D01*
X217106147Y-68182520D01*
X217112792Y-68208704D01*
X217124748Y-68227148D01*
X217140070Y-68236575D01*
X217156813Y-68235708D01*
X217171282Y-68225299D01*
X217178142Y-68210379D01*
X217181563Y-68187613D01*
X217181498Y-68161602D01*
X217177902Y-68136948D01*
X217172331Y-68121062D01*
X217162350Y-68107704D01*
X217145477Y-68090640D01*
X217125544Y-68073712D01*
X217091278Y-68045254D01*
X217067127Y-68019741D01*
X217051562Y-67994562D01*
X217043050Y-67967105D01*
X217040060Y-67934756D01*
X217039990Y-67927757D01*
X217044155Y-67885967D01*
X217056240Y-67851783D01*
X217075632Y-67826781D01*
X217081057Y-67822498D01*
X217095169Y-67814379D01*
X217111602Y-67809927D01*
X217134690Y-67808202D01*
X217147586Y-67808065D01*
X217185489Y-67811522D01*
G37*
G36*
X216323679Y-68288710D02*
G01*
X216246240Y-68288710D01*
X216246240Y-67920968D01*
X216323679Y-67920968D01*
X216323679Y-68288710D01*
G37*
G36*
X210275640Y-67815677D02*
G01*
X210280798Y-67818027D01*
X210304052Y-67834135D01*
X210320096Y-67857384D01*
X210329946Y-67889654D01*
X210333416Y-67915322D01*
X210336854Y-67953226D01*
X210257622Y-67953226D01*
X210257622Y-67924194D01*
X210253647Y-67898641D01*
X210243074Y-67880863D01*
X210227929Y-67872210D01*
X210210241Y-67874037D01*
X210196316Y-67883294D01*
X210194208Y-67891563D01*
X210192290Y-67911401D01*
X210190631Y-67941473D01*
X210189299Y-67980444D01*
X210188363Y-68026981D01*
X210188170Y-68042246D01*
X210187732Y-68095825D01*
X210187914Y-68137922D01*
X210188970Y-68169956D01*
X210191157Y-68193342D01*
X210194730Y-68209499D01*
X210199945Y-68219843D01*
X210207056Y-68225792D01*
X210216321Y-68228761D01*
X210221961Y-68229586D01*
X210240054Y-68227412D01*
X210251552Y-68215414D01*
X210256997Y-68192800D01*
X210257622Y-68177799D01*
X210257622Y-68146774D01*
X210335061Y-68146774D01*
X210335061Y-68180891D01*
X210330844Y-68214538D01*
X210319347Y-68245612D01*
X210302302Y-68270462D01*
X210286662Y-68282959D01*
X210256706Y-68293780D01*
X210221457Y-68297855D01*
X210192032Y-68295425D01*
X210158441Y-68283583D01*
X210133942Y-68262585D01*
X210123178Y-68244660D01*
X210119822Y-68235617D01*
X210117227Y-68223994D01*
X210115300Y-68208148D01*
X210113949Y-68186440D01*
X210113083Y-68157227D01*
X210112607Y-68118870D01*
X210112432Y-68069728D01*
X210112424Y-68053226D01*
X210112489Y-68001812D01*
X210112758Y-67961600D01*
X210113347Y-67930888D01*
X210114367Y-67907974D01*
X210115932Y-67891157D01*
X210118156Y-67878735D01*
X210121153Y-67869007D01*
X210125035Y-67860270D01*
X210125331Y-67859678D01*
X210144801Y-67834295D01*
X210172414Y-67816441D01*
X210205323Y-67806879D01*
X210240681Y-67806370D01*
X210275640Y-67815677D01*
G37*
G36*
X216559235Y-67917634D02*
G01*
X216572310Y-67922224D01*
X216583354Y-67928096D01*
X216592085Y-67935509D01*
X216598799Y-67945964D01*
X216603790Y-67960963D01*
X216607352Y-67982007D01*
X216609780Y-68010598D01*
X216611368Y-68048237D01*
X216612410Y-68096425D01*
X216612871Y-68129032D01*
X216614894Y-68288710D01*
X216536637Y-68288710D01*
X216536637Y-68144548D01*
X216536558Y-68097438D01*
X216536238Y-68061545D01*
X216535546Y-68035184D01*
X216534356Y-68016670D01*
X216532538Y-68004316D01*
X216529964Y-67996438D01*
X216526505Y-67991350D01*
X216524835Y-67989710D01*
X216507276Y-67980007D01*
X216489876Y-67983148D01*
X216478557Y-67991936D01*
X216474333Y-67996872D01*
X216471144Y-68003261D01*
X216468846Y-68012840D01*
X216467294Y-68027344D01*
X216466345Y-68048512D01*
X216465851Y-68078081D01*
X216465670Y-68117787D01*
X216465651Y-68146774D01*
X216465651Y-68288710D01*
X216388212Y-68288710D01*
X216388212Y-67920968D01*
X216423270Y-67920968D01*
X216444283Y-67921736D01*
X216455871Y-67924795D01*
X216461462Y-67931275D01*
X216462430Y-67933891D01*
X216466550Y-67942741D01*
X216472612Y-67940541D01*
X216476773Y-67936576D01*
X216500181Y-67921550D01*
X216529223Y-67915003D01*
X216559235Y-67917634D01*
G37*
G36*
X214591523Y-68007353D02*
G01*
X214594105Y-67988564D01*
X214595086Y-67984834D01*
X214610644Y-67955571D01*
X214634174Y-67932393D01*
X214657330Y-67920368D01*
X214684006Y-67915737D01*
X214714016Y-67916751D01*
X214741964Y-67922804D01*
X214760860Y-67932032D01*
X214778687Y-67948016D01*
X214791216Y-67966729D01*
X214799390Y-67990789D01*
X214804148Y-68022812D01*
X214806206Y-68058065D01*
X214808593Y-68127420D01*
X214658740Y-68127420D01*
X214658740Y-68162600D01*
X214661780Y-68197692D01*
X214670891Y-68221449D01*
X214686060Y-68233840D01*
X214689146Y-68234790D01*
X214706899Y-68233441D01*
X214721340Y-68222234D01*
X214729161Y-68204219D01*
X214729726Y-68197387D01*
X214730305Y-68187255D01*
X214734064Y-68181769D01*
X214744031Y-68179505D01*
X214763237Y-68179036D01*
X214768738Y-68179032D01*
X214807750Y-68179032D01*
X214803567Y-68203226D01*
X214792806Y-68240785D01*
X214775491Y-68268509D01*
X214755539Y-68283861D01*
X214730189Y-68291688D01*
X214698639Y-68294798D01*
X214666531Y-68293154D01*
X214639503Y-68286719D01*
X214634783Y-68284649D01*
X214619088Y-68274854D01*
X214607182Y-68261812D01*
X214598590Y-68243796D01*
X214592837Y-68219076D01*
X214589447Y-68185924D01*
X214587946Y-68142612D01*
X214587754Y-68113442D01*
X214588217Y-68072092D01*
X214589100Y-68047561D01*
X214658727Y-68047561D01*
X214662493Y-68061428D01*
X214673889Y-68067562D01*
X214694929Y-68068292D01*
X214699001Y-68068082D01*
X214732953Y-68066129D01*
X214731476Y-68031472D01*
X214728512Y-68004459D01*
X214721572Y-67988082D01*
X214709369Y-67980357D01*
X214697460Y-67979032D01*
X214679525Y-67982981D01*
X214667882Y-67995907D01*
X214661192Y-68019429D01*
X214660578Y-68023633D01*
X214658727Y-68047561D01*
X214589100Y-68047561D01*
X214589517Y-68035963D01*
X214591523Y-68007353D01*
G37*
G36*
X213640336Y-68082258D02*
G01*
X213641821Y-68038437D01*
X213644163Y-68005299D01*
X213647899Y-67980631D01*
X213653566Y-67962215D01*
X213661703Y-67947837D01*
X213672848Y-67935282D01*
X213676923Y-67931480D01*
X213696432Y-67920981D01*
X213722316Y-67916045D01*
X213749069Y-67917189D01*
X213767592Y-67922928D01*
X213787551Y-67932882D01*
X213787551Y-67791936D01*
X213864990Y-67791936D01*
X213864990Y-68288710D01*
X213829497Y-68288710D01*
X213809041Y-68288181D01*
X213798384Y-68285813D01*
X213794437Y-68280431D01*
X213794004Y-68275233D01*
X213793343Y-68267211D01*
X213789505Y-68266587D01*
X213779713Y-68273812D01*
X213774150Y-68278459D01*
X213748482Y-68292385D01*
X213719409Y-68296175D01*
X213691038Y-68289870D01*
X213671423Y-68277420D01*
X213659733Y-68263434D01*
X213650963Y-68244489D01*
X213644869Y-68219049D01*
X213641205Y-68185578D01*
X213639727Y-68142539D01*
X213640062Y-68103403D01*
X213716565Y-68103403D01*
X213716827Y-68143547D01*
X213717733Y-68172816D01*
X213719461Y-68193228D01*
X213722193Y-68206803D01*
X213726107Y-68215560D01*
X213726611Y-68216307D01*
X213741680Y-68228375D01*
X213759860Y-68229021D01*
X213775750Y-68219968D01*
X213780223Y-68214684D01*
X213783411Y-68206855D01*
X213785527Y-68194438D01*
X213786781Y-68175393D01*
X213787385Y-68147679D01*
X213787551Y-68109255D01*
X213787551Y-68105960D01*
X213787363Y-68065956D01*
X213786676Y-68036843D01*
X213785301Y-68016614D01*
X213783055Y-68003259D01*
X213779750Y-67994771D01*
X213776871Y-67990831D01*
X213760482Y-67980301D01*
X213742710Y-67982337D01*
X213729472Y-67991936D01*
X213724501Y-67997916D01*
X213720993Y-68005733D01*
X213718696Y-68017553D01*
X213717360Y-68035541D01*
X213716734Y-68061865D01*
X213716567Y-68098689D01*
X213716565Y-68103403D01*
X213640062Y-68103403D01*
X213640191Y-68088396D01*
X213640336Y-68082258D01*
G37*
G36*
X211121475Y-68090323D02*
G01*
X211111377Y-68135979D01*
X211102044Y-68178063D01*
X211093882Y-68214758D01*
X211087296Y-68244245D01*
X211082690Y-68264705D01*
X211080503Y-68274194D01*
X211077445Y-68281952D01*
X211071004Y-68286316D01*
X211058083Y-68288243D01*
X211035585Y-68288685D01*
X211033503Y-68288686D01*
X210990066Y-68288661D01*
X210950807Y-68106427D01*
X210911548Y-67924194D01*
X210949942Y-67922254D01*
X210970766Y-67921606D01*
X210985691Y-67921901D01*
X210990829Y-67922805D01*
X210992512Y-67929641D01*
X210995793Y-67947321D01*
X211000347Y-67973927D01*
X211005848Y-68007544D01*
X211011970Y-68046256D01*
X211013867Y-68058492D01*
X211020048Y-68098039D01*
X211025631Y-68132770D01*
X211030309Y-68160845D01*
X211033772Y-68180424D01*
X211035711Y-68189667D01*
X211035957Y-68190143D01*
X211037491Y-68183588D01*
X211040721Y-68166496D01*
X211045252Y-68141063D01*
X211050690Y-68109484D01*
X211054198Y-68088654D01*
X211060541Y-68051139D01*
X211066744Y-68015257D01*
X211072239Y-67984246D01*
X211076454Y-67961346D01*
X211077724Y-67954839D01*
X211084554Y-67920968D01*
X211158884Y-67920968D01*
X211121475Y-68090323D01*
G37*
G36*
X211608203Y-67916934D02*
G01*
X211611294Y-67925828D01*
X211612625Y-67943658D01*
X211612805Y-67959678D01*
X211612471Y-67983384D01*
X211610926Y-67996964D01*
X211607361Y-68003185D01*
X211600963Y-68004818D01*
X211599578Y-68004839D01*
X211578640Y-68009569D01*
X211557346Y-68021373D01*
X211541909Y-68036675D01*
X211540632Y-68038777D01*
X211537064Y-68052128D01*
X211534111Y-68078020D01*
X211531802Y-68116107D01*
X211530164Y-68166040D01*
X211530054Y-68170968D01*
X211527498Y-68288710D01*
X211457927Y-68288710D01*
X211457927Y-67920968D01*
X211528913Y-67920968D01*
X211529117Y-67945161D01*
X211529322Y-67969355D01*
X211542694Y-67951432D01*
X211559588Y-67934429D01*
X211580281Y-67921142D01*
X211599670Y-67914706D01*
X211602805Y-67914516D01*
X211608203Y-67916934D01*
G37*
G36*
X214540035Y-70282375D02*
G01*
X214554823Y-70289198D01*
X214575832Y-70300400D01*
X214594601Y-70311181D01*
X214649506Y-70341151D01*
X214710804Y-70369785D01*
X214779735Y-70397539D01*
X214857536Y-70424872D01*
X214945446Y-70452243D01*
X215044704Y-70480109D01*
X215068522Y-70486439D01*
X215157288Y-70510650D01*
X215234006Y-70533517D01*
X215299413Y-70555475D01*
X215354242Y-70576959D01*
X215399231Y-70598402D01*
X215435114Y-70620239D01*
X215462628Y-70642906D01*
X215482507Y-70666835D01*
X215495487Y-70692462D01*
X215502304Y-70720222D01*
X215503817Y-70743549D01*
X215497876Y-70802576D01*
X215480420Y-70856256D01*
X215451908Y-70904056D01*
X215412800Y-70945445D01*
X215363553Y-70979889D01*
X215304627Y-71006859D01*
X215266272Y-71018846D01*
X215232301Y-71025554D01*
X215189219Y-71030601D01*
X215140731Y-71033873D01*
X215090538Y-71035255D01*
X215042345Y-71034632D01*
X214999855Y-71031891D01*
X214971723Y-71027954D01*
X214909440Y-71012039D01*
X214857639Y-70990265D01*
X214814957Y-70961889D01*
X214780027Y-70926172D01*
X214776864Y-70922110D01*
X214756052Y-70887181D01*
X214741654Y-70844630D01*
X214733111Y-70792631D01*
X214731556Y-70774194D01*
X214727907Y-70720968D01*
X214335817Y-70720968D01*
X214355627Y-70687097D01*
X214388390Y-70627731D01*
X214421708Y-70561312D01*
X214453806Y-70491766D01*
X214482907Y-70423017D01*
X214507238Y-70358990D01*
X214516843Y-70330645D01*
X214524251Y-70308083D01*
X214530258Y-70290540D01*
X214533682Y-70281459D01*
X214533857Y-70281114D01*
X214540035Y-70282375D01*
G37*
%TO.C,U6*%
X158155564Y-70512100D02*
X149621450Y-70512100D01*
X149621450Y-90755900D02*
X150621606Y-90755900D01*
X151262894Y-90755900D02*
X158241606Y-90755900D01*
X149621450Y-70512100D02*
X149621450Y-90755900D01*
X158882894Y-90755900D02*
X159883050Y-90755900D01*
X159883050Y-90755900D02*
X159883050Y-70512100D01*
X159883050Y-70512100D02*
X158968936Y-70512100D01*
X160962550Y-89511300D02*
G75*
G03*
X160962550Y-89511300I-76200J0D01*
G01*
%TO.C,J2*%
X177749992Y-71929999D02*
X174624348Y-71929999D01*
X170104973Y-66579990D02*
X170104973Y-63520001D01*
X177749992Y-66579990D02*
X177749992Y-71929999D01*
X170104973Y-63520001D02*
X177395027Y-63520001D01*
X177395027Y-66579990D02*
X177749992Y-66579990D01*
X169750008Y-66568560D02*
X170104973Y-66579990D01*
X169750008Y-71929999D02*
X169750008Y-66579990D01*
X177395027Y-63520001D02*
X177395027Y-66579990D01*
X172875645Y-71929999D02*
X169750008Y-71929999D01*
D11*
%TO.C,RELAY_DISCHARGE1*%
X171900000Y-89025000D02*
X184600000Y-89025000D01*
X184600000Y-118075000D02*
X171900000Y-118075000D01*
D15*
X181750000Y-118875000D02*
X181750000Y-118875000D01*
X181750000Y-118975000D02*
X181750000Y-118975000D01*
D11*
X184600000Y-89025000D02*
X184600000Y-118075000D01*
D15*
X181750000Y-118975000D02*
X181750000Y-118975000D01*
X181750000Y-118975000D02*
G75*
G03*
X181750000Y-118875000I0J50000D01*
G01*
X181750000Y-118975000D02*
G75*
G03*
X181750000Y-118875000I0J50000D01*
G01*
X181750000Y-118875000D02*
G75*
G03*
X181750000Y-118975000I0J-50000D01*
G01*
D14*
%TO.C,U1*%
X162890200Y-59893200D02*
X158927800Y-59893200D01*
X162890200Y-66852800D02*
X162890200Y-59893200D01*
X158927800Y-66852800D02*
X162890200Y-66852800D01*
X158927800Y-59893200D02*
X158927800Y-66852800D01*
%TO.C,J1*%
X162575600Y-112558200D02*
X162575600Y-108494200D01*
X162677200Y-101179000D02*
X159883200Y-101179000D01*
X133162400Y-108697400D02*
X133213200Y-112659800D01*
X133213200Y-112659800D02*
X162575600Y-112558200D01*
X136007200Y-101179000D02*
X133162400Y-101179000D01*
X133162400Y-101179000D02*
X133162400Y-104989000D01*
X162677200Y-105090600D02*
X162677200Y-101179000D01*
%TO.C,J3*%
X174625645Y-84205000D02*
X171500008Y-84205000D01*
X171500008Y-78843561D02*
X171854973Y-78854991D01*
X171854973Y-78854991D02*
X171854973Y-75795002D01*
X179145027Y-75795002D02*
X179145027Y-78854991D01*
X171854973Y-75795002D02*
X179145027Y-75795002D01*
X179499992Y-84205000D02*
X176374348Y-84205000D01*
X179499992Y-78854991D02*
X179499992Y-84205000D01*
X171500008Y-84205000D02*
X171500008Y-78854991D01*
X179145027Y-78854991D02*
X179499992Y-78854991D01*
%TO.C,G\u002A\u002A\u002A*%
G36*
X191622057Y-71103493D02*
G01*
X191517114Y-70918300D01*
X191406151Y-70722172D01*
X191381286Y-70678182D01*
X190742857Y-69548495D01*
X190743306Y-69403059D01*
X191131801Y-69403059D01*
X191135414Y-69440852D01*
X191146156Y-69475638D01*
X191162836Y-69510385D01*
X191184267Y-69548063D01*
X191200722Y-69576481D01*
X191270687Y-69698864D01*
X191350246Y-69837545D01*
X191437119Y-69988591D01*
X191529024Y-70148066D01*
X191623682Y-70312035D01*
X191718812Y-70476566D01*
X191812134Y-70637722D01*
X191901367Y-70791570D01*
X191984230Y-70934175D01*
X192058444Y-71061603D01*
X192121728Y-71169918D01*
X192171801Y-71255188D01*
X192206383Y-71313477D01*
X192223193Y-71340851D01*
X192224136Y-71342167D01*
X192253224Y-71361749D01*
X192265513Y-71361818D01*
X192280683Y-71343025D01*
X192313496Y-71293317D01*
X192361117Y-71217295D01*
X192420708Y-71119565D01*
X192489434Y-71004729D01*
X192564457Y-70877390D01*
X192572282Y-70864001D01*
X192664240Y-70706449D01*
X192750963Y-70557715D01*
X192784361Y-70500364D01*
X193252267Y-70500364D01*
X193267339Y-70505600D01*
X193290527Y-70495702D01*
X193345571Y-70467596D01*
X193428691Y-70423345D01*
X193536104Y-70365012D01*
X193664028Y-70294662D01*
X193808681Y-70214356D01*
X193966282Y-70126159D01*
X194074173Y-70065408D01*
X194267022Y-69956602D01*
X194473727Y-69840057D01*
X194686052Y-69720410D01*
X194895763Y-69602299D01*
X195094624Y-69490363D01*
X195274399Y-69389240D01*
X195426854Y-69303569D01*
X195429182Y-69302261D01*
X195746311Y-69124178D01*
X196318967Y-69124178D01*
X196325072Y-69133942D01*
X196346501Y-69141309D01*
X196387928Y-69146588D01*
X196454026Y-69150086D01*
X196549469Y-69152112D01*
X196678929Y-69152975D01*
X196756690Y-69153067D01*
X197194413Y-69153067D01*
X197648457Y-68353834D01*
X197742361Y-68188091D01*
X197829706Y-68033053D01*
X197908455Y-67892403D01*
X197976570Y-67769821D01*
X198032012Y-67668986D01*
X198072745Y-67593581D01*
X198096729Y-67547284D01*
X198102502Y-67533818D01*
X198082263Y-67526330D01*
X198022531Y-67520442D01*
X197924785Y-67516221D01*
X197790507Y-67513734D01*
X197644719Y-67513034D01*
X197186936Y-67513034D01*
X196752952Y-68304161D01*
X196662307Y-68470040D01*
X196578080Y-68625406D01*
X196502279Y-68766465D01*
X196436913Y-68889422D01*
X196383990Y-68990481D01*
X196345519Y-69065849D01*
X196323508Y-69111730D01*
X196318967Y-69124178D01*
X195746311Y-69124178D01*
X196005176Y-68978813D01*
X196700207Y-67738539D01*
X196816396Y-67530902D01*
X196926500Y-67333560D01*
X197028900Y-67149450D01*
X197121978Y-66981508D01*
X197204117Y-66832671D01*
X197273698Y-66705876D01*
X197329103Y-66604062D01*
X197368714Y-66530163D01*
X197390912Y-66487119D01*
X197395238Y-66477030D01*
X197385141Y-66453474D01*
X197356564Y-66399626D01*
X197312073Y-66319816D01*
X197254238Y-66218373D01*
X197185628Y-66099628D01*
X197108811Y-65967910D01*
X197026356Y-65827548D01*
X196940831Y-65682872D01*
X196854805Y-65538213D01*
X196770846Y-65397899D01*
X196691524Y-65266260D01*
X196619406Y-65147626D01*
X196557061Y-65046327D01*
X196507059Y-64966692D01*
X196471966Y-64913050D01*
X196454353Y-64889733D01*
X196453186Y-64889088D01*
X196441431Y-64906520D01*
X196410705Y-64957250D01*
X196362340Y-65038954D01*
X196297668Y-65149309D01*
X196218022Y-65285992D01*
X196124732Y-65446680D01*
X196019132Y-65629048D01*
X195902553Y-65830775D01*
X195776327Y-66049536D01*
X195641786Y-66283008D01*
X195500263Y-66528868D01*
X195353089Y-66784793D01*
X195201596Y-67048459D01*
X195047117Y-67317543D01*
X194890983Y-67589722D01*
X194734527Y-67862673D01*
X194579080Y-68134071D01*
X194425975Y-68401595D01*
X194276543Y-68662920D01*
X194132117Y-68915723D01*
X193994029Y-69157681D01*
X193863610Y-69386471D01*
X193742193Y-69599769D01*
X193631110Y-69795252D01*
X193531693Y-69970597D01*
X193445273Y-70123480D01*
X193373184Y-70251579D01*
X193316756Y-70352569D01*
X193277322Y-70424128D01*
X193256214Y-70463932D01*
X193253228Y-70470370D01*
X193252267Y-70500364D01*
X192784361Y-70500364D01*
X192836010Y-70411673D01*
X192922942Y-70262195D01*
X193015318Y-70103156D01*
X193116700Y-69928428D01*
X193230646Y-69731885D01*
X193360718Y-69507401D01*
X193393783Y-69450322D01*
X193520150Y-69231523D01*
X193657265Y-68992953D01*
X193802208Y-68739768D01*
X193952060Y-68477121D01*
X194103900Y-68210166D01*
X194254810Y-67944056D01*
X194401870Y-67683945D01*
X194542161Y-67434987D01*
X194672763Y-67202336D01*
X194790756Y-66991144D01*
X194893221Y-66806566D01*
X194955755Y-66693018D01*
X194997214Y-66617776D01*
X195052317Y-66518304D01*
X195114657Y-66406138D01*
X195177832Y-66292815D01*
X195194763Y-66262510D01*
X195241016Y-66179533D01*
X195303637Y-66066841D01*
X195379196Y-65930624D01*
X195464264Y-65777072D01*
X195555411Y-65612373D01*
X195649210Y-65442719D01*
X195734257Y-65288741D01*
X195825025Y-65124368D01*
X195914131Y-64963095D01*
X195998556Y-64810380D01*
X196075279Y-64671683D01*
X196141280Y-64552463D01*
X196193540Y-64458179D01*
X196229039Y-64394291D01*
X196229255Y-64393904D01*
X196281231Y-64300612D01*
X196667177Y-64300612D01*
X196722066Y-64394919D01*
X196742819Y-64429734D01*
X196778716Y-64488846D01*
X196830356Y-64573224D01*
X196898339Y-64683840D01*
X196983264Y-64821666D01*
X197085732Y-64987672D01*
X197206343Y-65182830D01*
X197345696Y-65408110D01*
X197504391Y-65664486D01*
X197683028Y-65952926D01*
X197882207Y-66274404D01*
X198065415Y-66570016D01*
X198138325Y-66687568D01*
X198207364Y-66798742D01*
X198268393Y-66896882D01*
X198317275Y-66975334D01*
X198349868Y-67027443D01*
X198355507Y-67036400D01*
X198410523Y-67123527D01*
X199907980Y-67123527D01*
X199883512Y-67077401D01*
X199866266Y-67046663D01*
X199830019Y-66983459D01*
X199776473Y-66890710D01*
X199707329Y-66771339D01*
X199624290Y-66628269D01*
X199529058Y-66464421D01*
X199423335Y-66282719D01*
X199308825Y-66086085D01*
X199187227Y-65877441D01*
X199060246Y-65659711D01*
X198929583Y-65435815D01*
X198796941Y-65208678D01*
X198664021Y-64981221D01*
X198532526Y-64756366D01*
X198404157Y-64537038D01*
X198352143Y-64448224D01*
X198243619Y-64262915D01*
X198139563Y-64085154D01*
X198042154Y-63918670D01*
X197953571Y-63767191D01*
X197875993Y-63634444D01*
X197811600Y-63524159D01*
X197762571Y-63440062D01*
X197731084Y-63385882D01*
X197723045Y-63371953D01*
X197692253Y-63318803D01*
X197643591Y-63235450D01*
X197580056Y-63126985D01*
X197504643Y-62998499D01*
X197420349Y-62855081D01*
X197330172Y-62701824D01*
X197237106Y-62543818D01*
X197144149Y-62386153D01*
X197054298Y-62233921D01*
X196970547Y-62092212D01*
X196895895Y-61966117D01*
X196854253Y-61895924D01*
X196677724Y-61598668D01*
X196672451Y-62949640D01*
X196667177Y-64300612D01*
X196281231Y-64300612D01*
X196339468Y-64196082D01*
X196339468Y-62293638D01*
X196339264Y-61961075D01*
X196338662Y-61656980D01*
X196337675Y-61382704D01*
X196336318Y-61139599D01*
X196334604Y-60929015D01*
X196332547Y-60752305D01*
X196330161Y-60610820D01*
X196327460Y-60505911D01*
X196324457Y-60438930D01*
X196321166Y-60411228D01*
X196320218Y-60410669D01*
X196313059Y-60419722D01*
X196300382Y-60438611D01*
X196280768Y-60469719D01*
X196252801Y-60515430D01*
X196215062Y-60578129D01*
X196166133Y-60660199D01*
X196104598Y-60764024D01*
X196029037Y-60891988D01*
X195938034Y-61046474D01*
X195830171Y-61229866D01*
X195704030Y-61444549D01*
X195601485Y-61619168D01*
X195478555Y-61828484D01*
X195346834Y-62052676D01*
X195208804Y-62287522D01*
X195066950Y-62528804D01*
X194923754Y-62772299D01*
X194781700Y-63013787D01*
X194643272Y-63249049D01*
X194510952Y-63473862D01*
X194387224Y-63684007D01*
X194274572Y-63875263D01*
X194175478Y-64043409D01*
X194092427Y-64184225D01*
X194033380Y-64284221D01*
X193734345Y-64791475D01*
X193419177Y-65328533D01*
X193091456Y-65889246D01*
X192754762Y-66467469D01*
X192412674Y-67057052D01*
X192068773Y-67651850D01*
X191749292Y-68206325D01*
X191616230Y-68437537D01*
X191502185Y-68636044D01*
X191405970Y-68804814D01*
X191326394Y-68946818D01*
X191262270Y-69065026D01*
X191212408Y-69162407D01*
X191175619Y-69241931D01*
X191150714Y-69306568D01*
X191136504Y-69359287D01*
X191131801Y-69403059D01*
X190743306Y-69403059D01*
X190744361Y-69060815D01*
X190873055Y-68814810D01*
X190927279Y-68714374D01*
X190996677Y-68590626D01*
X191074679Y-68455018D01*
X191154717Y-68318999D01*
X191214142Y-68220298D01*
X191284436Y-68104617D01*
X191351959Y-67992881D01*
X191412048Y-67892849D01*
X191460043Y-67812283D01*
X191491225Y-67759039D01*
X191513749Y-67720269D01*
X191554952Y-67649855D01*
X191612678Y-67551466D01*
X191684769Y-67428770D01*
X191769069Y-67285436D01*
X191863419Y-67125132D01*
X191965665Y-66951525D01*
X192073647Y-66768286D01*
X192136151Y-66662268D01*
X192233664Y-66496872D01*
X192349364Y-66300590D01*
X192480631Y-66077866D01*
X192624847Y-65833144D01*
X192779394Y-65570867D01*
X192941653Y-65295480D01*
X193109006Y-65011427D01*
X193278835Y-64723152D01*
X193448520Y-64435098D01*
X193615444Y-64151711D01*
X193766811Y-63894713D01*
X193926519Y-63623547D01*
X194089834Y-63346265D01*
X194254325Y-63066998D01*
X194417556Y-62789876D01*
X194577096Y-62519030D01*
X194730510Y-62258592D01*
X194875365Y-62012692D01*
X195009228Y-61785462D01*
X195129665Y-61581032D01*
X195234243Y-61403533D01*
X195320528Y-61257096D01*
X195323035Y-61252842D01*
X195426126Y-61077658D01*
X195524701Y-60909688D01*
X195616419Y-60752955D01*
X195698938Y-60611481D01*
X195769916Y-60489290D01*
X195827012Y-60390402D01*
X195867882Y-60318841D01*
X195889952Y-60279073D01*
X195943773Y-60181722D01*
X195948679Y-60173400D01*
X196432022Y-60173400D01*
X196437359Y-60197444D01*
X196460593Y-60249453D01*
X196498240Y-60322407D01*
X196546818Y-60409285D01*
X196561686Y-60434780D01*
X196592354Y-60487174D01*
X196641909Y-60572191D01*
X196708690Y-60686970D01*
X196791037Y-60828652D01*
X196887291Y-60994377D01*
X196995792Y-61181286D01*
X197114880Y-61386519D01*
X197242895Y-61607217D01*
X197378177Y-61840521D01*
X197519068Y-62083571D01*
X197663905Y-62333506D01*
X197713256Y-62418684D01*
X197866435Y-62683072D01*
X198021403Y-62950526D01*
X198175921Y-63217187D01*
X198327756Y-63479198D01*
X198474671Y-63732703D01*
X198614431Y-63973843D01*
X198744800Y-64198761D01*
X198863542Y-64403599D01*
X198968422Y-64584501D01*
X199057204Y-64737609D01*
X199127169Y-64858232D01*
X199231429Y-65037973D01*
X199350983Y-65244130D01*
X199480575Y-65467636D01*
X199614951Y-65699428D01*
X199748854Y-65930441D01*
X199877031Y-66151609D01*
X199994225Y-66353868D01*
X199997906Y-66360222D01*
X200094894Y-66527226D01*
X200186534Y-66684247D01*
X200270594Y-66827517D01*
X200344843Y-66953269D01*
X200407051Y-67057735D01*
X200454986Y-67137148D01*
X200486417Y-67187739D01*
X200498035Y-67204763D01*
X200521023Y-67222083D01*
X200576030Y-67258785D01*
X200660026Y-67312970D01*
X200769985Y-67382740D01*
X200902880Y-67466196D01*
X201055681Y-67561440D01*
X201225362Y-67666572D01*
X201408895Y-67779694D01*
X201603252Y-67898908D01*
X201669572Y-67939458D01*
X201877255Y-68066668D01*
X202083151Y-68193395D01*
X202283133Y-68317063D01*
X202473074Y-68435091D01*
X202648846Y-68544901D01*
X202806323Y-68643915D01*
X202941378Y-68729553D01*
X203049883Y-68799236D01*
X203127711Y-68850386D01*
X203131340Y-68852827D01*
X203234644Y-68921235D01*
X203328054Y-68980884D01*
X203405653Y-69028169D01*
X203461521Y-69059488D01*
X203489738Y-69071237D01*
X203490097Y-69071249D01*
X203519071Y-69081594D01*
X203575754Y-69109968D01*
X203653137Y-69152585D01*
X203744216Y-69205655D01*
X203791364Y-69234110D01*
X203907379Y-69302953D01*
X203992305Y-69348411D01*
X204048292Y-69371110D01*
X204077489Y-69371673D01*
X204082043Y-69350726D01*
X204066929Y-69314146D01*
X204053111Y-69289211D01*
X204020647Y-69231323D01*
X203971077Y-69143212D01*
X203905944Y-69027612D01*
X203826788Y-68887253D01*
X203735152Y-68724870D01*
X203632578Y-68543192D01*
X203520605Y-68344953D01*
X203400777Y-68132884D01*
X203274635Y-67909718D01*
X203201033Y-67779540D01*
X203094473Y-67591083D01*
X202969562Y-67370168D01*
X202828130Y-67120031D01*
X202672004Y-66843904D01*
X202503014Y-66545023D01*
X202322987Y-66226620D01*
X202133753Y-65891931D01*
X201937140Y-65544189D01*
X201734977Y-65186628D01*
X201529091Y-64822483D01*
X201321313Y-64454987D01*
X201113469Y-64087375D01*
X200907389Y-63722880D01*
X200704902Y-63364738D01*
X200639438Y-63248950D01*
X200454403Y-62921739D01*
X200274666Y-62604025D01*
X200101278Y-62297659D01*
X199935287Y-62004490D01*
X199777746Y-61726370D01*
X199629702Y-61465149D01*
X199492207Y-61222677D01*
X199366311Y-61000804D01*
X199253063Y-60801382D01*
X199153513Y-60626259D01*
X199068712Y-60477288D01*
X198999709Y-60356317D01*
X198947555Y-60265198D01*
X198913300Y-60205781D01*
X198897993Y-60179916D01*
X198897373Y-60179015D01*
X198873432Y-60174058D01*
X198812975Y-60169571D01*
X198720372Y-60165563D01*
X198599992Y-60162045D01*
X198456206Y-60159026D01*
X198293383Y-60156517D01*
X198115893Y-60154527D01*
X197928107Y-60153066D01*
X197734392Y-60152144D01*
X197539121Y-60151772D01*
X197346661Y-60151959D01*
X197161384Y-60152715D01*
X196987659Y-60154050D01*
X196829855Y-60155973D01*
X196692343Y-60158496D01*
X196579492Y-60161628D01*
X196495672Y-60165379D01*
X196445253Y-60169758D01*
X196432022Y-60173400D01*
X195948679Y-60173400D01*
X196005088Y-60077704D01*
X196068871Y-59974844D01*
X196130096Y-59880963D01*
X196183737Y-59803883D01*
X196224766Y-59751426D01*
X196237502Y-59738185D01*
X196288217Y-59692130D01*
X199088965Y-59704004D01*
X199149137Y-59831320D01*
X199178556Y-59892893D01*
X199206622Y-59949620D01*
X199236899Y-60008096D01*
X199272953Y-60074914D01*
X199318349Y-60156667D01*
X199376655Y-60259951D01*
X199451434Y-60391358D01*
X199461863Y-60409644D01*
X199487946Y-60455369D01*
X199512275Y-60498006D01*
X199536003Y-60539561D01*
X199560282Y-60582039D01*
X199586266Y-60627445D01*
X199615107Y-60677785D01*
X199647958Y-60735063D01*
X199685971Y-60801285D01*
X199730299Y-60878456D01*
X199782095Y-60968581D01*
X199842511Y-61073666D01*
X199912701Y-61195715D01*
X199993816Y-61336733D01*
X200087010Y-61498727D01*
X200193435Y-61683700D01*
X200314244Y-61893659D01*
X200450590Y-62130608D01*
X200603625Y-62396553D01*
X200774502Y-62693498D01*
X200964373Y-63023449D01*
X201017458Y-63115698D01*
X201190519Y-63416493D01*
X201379627Y-63745285D01*
X201580825Y-64095187D01*
X201790156Y-64459313D01*
X202003662Y-64830776D01*
X202217385Y-65202691D01*
X202427368Y-65568170D01*
X202629652Y-65920327D01*
X202820281Y-66252276D01*
X202995296Y-66557129D01*
X203032109Y-66621267D01*
X203175560Y-66871135D01*
X203314862Y-67113633D01*
X203448450Y-67346043D01*
X203574759Y-67565651D01*
X203692223Y-67769738D01*
X203799278Y-67955589D01*
X203894359Y-68120487D01*
X203975900Y-68261716D01*
X204042337Y-68376558D01*
X204092105Y-68462297D01*
X204123637Y-68516218D01*
X204130516Y-68527804D01*
X204188510Y-68628772D01*
X204251091Y-68744304D01*
X204305958Y-68851601D01*
X204312472Y-68864977D01*
X204348318Y-68940452D01*
X204372083Y-68998159D01*
X204386220Y-69050218D01*
X204393183Y-69108748D01*
X204395422Y-69185867D01*
X204395445Y-69274985D01*
X204394685Y-69377470D01*
X204391879Y-69448470D01*
X204385195Y-69497502D01*
X204372800Y-69534080D01*
X204352859Y-69567721D01*
X204334017Y-69593825D01*
X204296159Y-69651723D01*
X204250120Y-69731894D01*
X204204490Y-69819200D01*
X204194412Y-69839830D01*
X204167978Y-69892519D01*
X204126747Y-69971846D01*
X204073514Y-70072657D01*
X204011074Y-70189802D01*
X203942218Y-70318128D01*
X203869743Y-70452482D01*
X203796441Y-70587713D01*
X203725106Y-70718670D01*
X203658533Y-70840199D01*
X203599516Y-70947149D01*
X203550848Y-71034367D01*
X203515323Y-71096702D01*
X203495736Y-71129002D01*
X203494016Y-71131356D01*
X203474432Y-71162627D01*
X203442375Y-71221456D01*
X203401638Y-71300105D01*
X203356015Y-71390832D01*
X203309298Y-71485897D01*
X203265279Y-71577561D01*
X203227751Y-71658083D01*
X203200507Y-71719723D01*
X203187339Y-71754742D01*
X203186688Y-71758566D01*
X203172399Y-71797029D01*
X203149112Y-71825192D01*
X203143242Y-71828660D01*
X203132609Y-71831884D01*
X203115779Y-71834874D01*
X203091313Y-71837639D01*
X203057775Y-71840186D01*
X203013728Y-71842526D01*
X202957735Y-71844666D01*
X202888358Y-71846616D01*
X202804161Y-71848384D01*
X202703707Y-71849979D01*
X202585559Y-71851410D01*
X202448279Y-71852685D01*
X202290431Y-71853814D01*
X202110578Y-71854804D01*
X201907283Y-71855665D01*
X201679108Y-71856406D01*
X201424617Y-71857036D01*
X201142373Y-71857562D01*
X200830939Y-71857994D01*
X200488877Y-71858341D01*
X200114751Y-71858611D01*
X199707124Y-71858813D01*
X199264559Y-71858957D01*
X198785619Y-71859049D01*
X198268866Y-71859101D01*
X197712864Y-71859119D01*
X197585763Y-71859120D01*
X197002464Y-71859086D01*
X196458932Y-71858981D01*
X195953934Y-71858798D01*
X195486236Y-71858532D01*
X195054604Y-71858178D01*
X194657805Y-71857730D01*
X194294605Y-71857181D01*
X193963770Y-71856527D01*
X193664067Y-71855761D01*
X193394263Y-71854879D01*
X193153123Y-71853873D01*
X192939414Y-71852739D01*
X192751903Y-71851470D01*
X192589355Y-71850062D01*
X192450537Y-71848508D01*
X192334217Y-71846803D01*
X192239159Y-71844941D01*
X192164130Y-71842916D01*
X192107897Y-71840722D01*
X192069227Y-71838355D01*
X192046885Y-71835807D01*
X192039809Y-71833494D01*
X192026436Y-71811568D01*
X191994685Y-71757026D01*
X191946322Y-71672967D01*
X191883112Y-71562487D01*
X191806822Y-71428683D01*
X191777155Y-71376523D01*
X192530063Y-71376523D01*
X192531707Y-71381428D01*
X192539817Y-71385951D01*
X192555921Y-71390104D01*
X192581545Y-71393897D01*
X192618218Y-71397343D01*
X192667466Y-71400453D01*
X192730818Y-71403240D01*
X192809800Y-71405715D01*
X192905940Y-71407891D01*
X193020766Y-71409778D01*
X193155804Y-71411389D01*
X193312583Y-71412736D01*
X193492630Y-71413830D01*
X193697472Y-71414684D01*
X193928636Y-71415308D01*
X194187651Y-71415716D01*
X194476043Y-71415918D01*
X194795340Y-71415927D01*
X195147069Y-71415755D01*
X195532758Y-71415413D01*
X195953934Y-71414913D01*
X196412125Y-71414267D01*
X196908858Y-71413487D01*
X197231235Y-71412950D01*
X197615462Y-71412317D01*
X198004074Y-71411709D01*
X198393542Y-71411130D01*
X198780334Y-71410584D01*
X199160921Y-71410075D01*
X199531771Y-71409607D01*
X199889354Y-71409184D01*
X200230138Y-71408811D01*
X200550595Y-71408491D01*
X200847192Y-71408228D01*
X201116400Y-71408026D01*
X201354687Y-71407890D01*
X201558523Y-71407824D01*
X201702832Y-71407825D01*
X202976366Y-71408111D01*
X203486367Y-70490789D01*
X203585406Y-70312429D01*
X203678333Y-70144648D01*
X203763248Y-69990907D01*
X203838252Y-69854663D01*
X203901445Y-69739377D01*
X203950929Y-69648507D01*
X203984803Y-69585514D01*
X204001168Y-69553856D01*
X204002372Y-69551013D01*
X203983744Y-69545514D01*
X203926413Y-69540177D01*
X203832676Y-69535037D01*
X203704830Y-69530126D01*
X203545174Y-69525477D01*
X203356005Y-69521124D01*
X203139620Y-69517099D01*
X202898316Y-69513436D01*
X202634391Y-69510168D01*
X202350142Y-69507328D01*
X202047868Y-69504950D01*
X201729865Y-69503066D01*
X201398430Y-69501710D01*
X201055862Y-69500914D01*
X200704457Y-69500712D01*
X200526221Y-69500845D01*
X199188116Y-69502429D01*
X199216907Y-69435375D01*
X199231263Y-69403689D01*
X199261257Y-69338844D01*
X199305050Y-69244771D01*
X199360806Y-69125402D01*
X199368409Y-69109160D01*
X199799334Y-69109160D01*
X199822867Y-69111265D01*
X199884087Y-69113135D01*
X199979682Y-69114753D01*
X200106340Y-69116099D01*
X200260747Y-69117154D01*
X200439591Y-69117900D01*
X200639560Y-69118318D01*
X200857340Y-69118389D01*
X201089619Y-69118094D01*
X201283232Y-69117583D01*
X201573719Y-69116510D01*
X201825597Y-69115265D01*
X202041260Y-69113799D01*
X202223100Y-69112062D01*
X202373509Y-69110003D01*
X202494880Y-69107573D01*
X202589605Y-69104721D01*
X202660077Y-69101397D01*
X202708688Y-69097552D01*
X202737830Y-69093134D01*
X202749897Y-69088094D01*
X202750511Y-69086833D01*
X202734336Y-69071820D01*
X202686382Y-69038305D01*
X202610220Y-68988430D01*
X202509418Y-68924337D01*
X202387549Y-68848169D01*
X202248182Y-68762069D01*
X202094889Y-68668180D01*
X201931238Y-68568643D01*
X201760801Y-68465602D01*
X201587148Y-68361200D01*
X201413850Y-68257578D01*
X201244477Y-68156881D01*
X201082599Y-68061249D01*
X200931788Y-67972826D01*
X200795612Y-67893755D01*
X200677643Y-67826178D01*
X200581452Y-67772238D01*
X200510608Y-67734078D01*
X200468682Y-67713839D01*
X200458525Y-67711394D01*
X200441370Y-67737944D01*
X200410310Y-67795412D01*
X200367675Y-67878858D01*
X200315794Y-67983342D01*
X200256997Y-68103924D01*
X200193613Y-68235664D01*
X200127974Y-68373622D01*
X200062408Y-68512856D01*
X199999245Y-68648429D01*
X199940815Y-68775398D01*
X199889448Y-68888824D01*
X199847474Y-68983767D01*
X199817222Y-69055287D01*
X199801022Y-69098443D01*
X199799334Y-69109160D01*
X199368409Y-69109160D01*
X199426685Y-68984666D01*
X199500848Y-68826495D01*
X199581459Y-68654820D01*
X199666679Y-68473572D01*
X199668370Y-68469977D01*
X199752645Y-68290269D01*
X199831324Y-68121357D01*
X199902713Y-67966956D01*
X199965117Y-67830786D01*
X200016843Y-67716565D01*
X200056196Y-67628011D01*
X200081482Y-67568841D01*
X200091008Y-67542774D01*
X200091041Y-67542333D01*
X200086061Y-67534831D01*
X200068752Y-67528698D01*
X200035568Y-67523806D01*
X199982960Y-67520027D01*
X199907378Y-67517234D01*
X199805276Y-67515299D01*
X199673103Y-67514093D01*
X199507312Y-67513491D01*
X199304354Y-67513363D01*
X199286401Y-67513369D01*
X198481760Y-67513704D01*
X197950897Y-68494376D01*
X197420035Y-69475047D01*
X197161632Y-69488227D01*
X197062342Y-69492167D01*
X196932547Y-69495644D01*
X196782739Y-69498472D01*
X196623414Y-69500463D01*
X196465064Y-69501429D01*
X196420232Y-69501490D01*
X195937236Y-69501573D01*
X194236939Y-70423508D01*
X193988348Y-70558585D01*
X193751196Y-70688005D01*
X193527904Y-70810417D01*
X193320891Y-70924470D01*
X193132578Y-71028812D01*
X192965385Y-71122092D01*
X192821732Y-71202959D01*
X192704038Y-71270062D01*
X192614724Y-71322050D01*
X192556210Y-71357571D01*
X192530916Y-71375274D01*
X192530063Y-71376523D01*
X191777155Y-71376523D01*
X191719215Y-71274653D01*
X191622057Y-71103493D01*
G37*
D11*
%TO.C,Fan Relay*%
X134396000Y-65534000D02*
X147096000Y-65534000D01*
D15*
X144246000Y-95384000D02*
X144246000Y-95384000D01*
D11*
X147096000Y-94584000D02*
X134396000Y-94584000D01*
X134396000Y-94584000D02*
X134396000Y-65534000D01*
X147096000Y-65534000D02*
X147096000Y-94584000D01*
D15*
X144246000Y-95484000D02*
X144246000Y-95484000D01*
X144246000Y-95484000D02*
X144246000Y-95484000D01*
X144246000Y-95384000D02*
G75*
G03*
X144246000Y-95484000I0J-50000D01*
G01*
X144246000Y-95484000D02*
G75*
G03*
X144246000Y-95384000I0J50000D01*
G01*
X144246000Y-95484000D02*
G75*
G03*
X144246000Y-95384000I0J50000D01*
G01*
%TD*%
M02*
