%TF.GenerationSoftware,KiCad,Pcbnew,(6.0.2)*%
%TF.CreationDate,2022-07-14T16:33:34+09:00*%
%TF.ProjectId,Junction,4a756e63-7469-46f6-9e2e-6b696361645f,rev?*%
%TF.SameCoordinates,Original*%
%TF.FileFunction,Copper,L1,Top*%
%TF.FilePolarity,Positive*%
%FSLAX46Y46*%
G04 Gerber Fmt 4.6, Leading zero omitted, Abs format (unit mm)*
G04 Created by KiCad (PCBNEW (6.0.2)) date 2022-07-14 16:33:34*
%MOMM*%
%LPD*%
G01*
G04 APERTURE LIST*
%TA.AperFunction,ComponentPad*%
%ADD10C,2.400000*%
%TD*%
%TA.AperFunction,ComponentPad*%
%ADD11O,2.400000X2.400000*%
%TD*%
%TA.AperFunction,ComponentPad*%
%ADD12R,1.520000X1.520000*%
%TD*%
%TA.AperFunction,ComponentPad*%
%ADD13C,1.520000*%
%TD*%
%TA.AperFunction,ComponentPad*%
%ADD14C,1.905000*%
%TD*%
%TA.AperFunction,ComponentPad*%
%ADD15C,1.950000*%
%TD*%
%TA.AperFunction,SMDPad,CuDef*%
%ADD16R,1.473200X0.889000*%
%TD*%
%TA.AperFunction,SMDPad,CuDef*%
%ADD17R,4.241800X2.057400*%
%TD*%
%TA.AperFunction,SMDPad,CuDef*%
%ADD18R,1.244600X2.260600*%
%TD*%
%TA.AperFunction,ViaPad*%
%ADD19C,3.600000*%
%TD*%
%TA.AperFunction,ViaPad*%
%ADD20C,0.800000*%
%TD*%
%TA.AperFunction,Conductor*%
%ADD21C,0.250000*%
%TD*%
%TA.AperFunction,Conductor*%
%ADD22C,0.200000*%
%TD*%
G04 APERTURE END LIST*
D10*
%TO.P,TSMP-,1*%
%TO.N,--*%
X205500000Y-103950000D03*
D11*
%TO.P,TSMP-,2*%
%TO.N,HV_IN-*%
X205500000Y-78550000D03*
%TD*%
D12*
%TO.P,J5,1,Pin_1*%
%TO.N,--*%
X200750000Y-111745001D03*
D13*
%TO.P,J5,2,Pin_2*%
%TO.N,++*%
X197249999Y-111745001D03*
%TD*%
D12*
%TO.P,J4,1,Pin_1*%
%TO.N,HV_IN-*%
X183000000Y-68755000D03*
D13*
%TO.P,J4,2,Pin_2*%
%TO.N,unconnected-(J2-Pad2)*%
X186500001Y-68755000D03*
%TD*%
D10*
%TO.P,TSMP+,1*%
%TO.N,++*%
X193750000Y-103750000D03*
D11*
%TO.P,TSMP+,2*%
%TO.N,HV_IN+*%
X193750000Y-78350000D03*
%TD*%
D14*
%TO.P,U6,1,1*%
%TO.N,GND*%
X158562250Y-89511300D03*
%TO.P,U6,2,2*%
%TO.N,PUMP_SIGNAL*%
X158562250Y-79351300D03*
%TO.P,U6,3,3*%
%TO.N,unconnected-(U6-Pad3)*%
X158562250Y-71731300D03*
%TO.P,U6,4,4*%
%TO.N,GND*%
X150942250Y-74271300D03*
%TO.P,U6,5,5*%
%TO.N,PUMP*%
X150942250Y-89511300D03*
%TD*%
D12*
%TO.P,J2,1,Pin_1*%
%TO.N,Net-(RELAY_DISCHARGE1-Pad4)*%
X172000000Y-69000000D03*
D13*
%TO.P,J2,2,Pin_2*%
%TO.N,HV_IN-*%
X175500001Y-69000000D03*
%TD*%
D15*
%TO.P,RELAY_DISCHARGE1,1,COIL_1*%
%TO.N,LV_ACTIVE*%
X182000000Y-115775000D03*
%TO.P,RELAY_DISCHARGE1,2,NC*%
%TO.N,HV_IN+*%
X182000000Y-99275000D03*
%TO.P,RELAY_DISCHARGE1,3,NO*%
%TO.N,unconnected-(RELAY_DISCHARGE1-Pad3)*%
X182000000Y-92275000D03*
%TO.P,RELAY_DISCHARGE1,4,COM*%
%TO.N,Net-(RELAY_DISCHARGE1-Pad4)*%
X174500000Y-95775000D03*
%TO.P,RELAY_DISCHARGE1,5,COIL_2*%
%TO.N,GND*%
X174500000Y-115775000D03*
%TD*%
D16*
%TO.P,U1,1,GND*%
%TO.N,GND*%
X157645100Y-61083000D03*
%TO.P,U1,2,VO*%
%TO.N,chul*%
X157645100Y-63373000D03*
%TO.P,U1,3,VI*%
%TO.N,LV_ACTIVE*%
X157645100Y-65663000D03*
%TD*%
D17*
%TO.P,J1,*%
%TO.N,*%
X133396000Y-106809800D03*
X162596000Y-106809800D03*
D18*
%TO.P,J1,1,Pin_1*%
%TO.N,LV_ACTIVE*%
X136996000Y-101229800D03*
%TO.P,J1,2,Pin_2*%
%TO.N,PUMP*%
X138996000Y-101229800D03*
%TO.P,J1,3,Pin_3*%
%TO.N,PUMP_SIGNAL*%
X140996000Y-101229800D03*
%TO.P,J1,4,Pin_4*%
%TO.N,RADIATOR_FAN*%
X142996000Y-101229800D03*
%TO.P,J1,5,Pin_5*%
%TO.N,GND*%
X144996000Y-101229800D03*
%TO.P,J1,6,Pin_6*%
%TO.N,HALL*%
X146996000Y-101229800D03*
%TO.P,J1,7,Pin_7*%
%TO.N,chul*%
X148996000Y-101229800D03*
%TO.P,J1,8,Pin_8*%
%TO.N,unconnected-(J1-Pad8)*%
X150996000Y-101229800D03*
%TO.P,J1,9,Pin_9*%
%TO.N,unconnected-(J1-Pad9)*%
X152996000Y-101229800D03*
%TO.P,J1,10,Pin_10*%
%TO.N,unconnected-(J1-Pad10)*%
X154996000Y-101229800D03*
%TO.P,J1,11,Pin_11*%
%TO.N,unconnected-(J1-Pad11)*%
X156996000Y-101229800D03*
%TO.P,J1,12,Pin_12*%
%TO.N,unconnected-(J1-Pad12)*%
X158996000Y-101229800D03*
%TD*%
D12*
%TO.P,J3,1,Pin_1*%
%TO.N,HV_IN+*%
X173750000Y-81275001D03*
D13*
%TO.P,J3,2,Pin_2*%
%TO.N,unconnected-(J3-Pad2)*%
X177250001Y-81275001D03*
%TD*%
D15*
%TO.P,Fan Relay,1,COIL_1*%
%TO.N,RADIATOR_FAN*%
X144496000Y-92284000D03*
%TO.P,Fan Relay,2,NC*%
%TO.N,unconnected-(RELAY_DISCHARGE2-Pad2)*%
X144496000Y-75784000D03*
%TO.P,Fan Relay,3,NO*%
%TO.N,LV_FAN*%
X144496000Y-68784000D03*
%TO.P,Fan Relay,4,COM*%
%TO.N,FAN_PWR_LEFT*%
X136996000Y-72284000D03*
%TO.P,Fan Relay,5,COIL_2*%
%TO.N,GND*%
X136996000Y-92284000D03*
%TD*%
D19*
%TO.N,*%
X215011000Y-116840000D03*
X133985000Y-116459000D03*
X132588000Y-61567000D03*
X215392000Y-62617000D03*
D20*
%TO.N,GND*%
X170150000Y-115775000D03*
X169896000Y-108409000D03*
%TO.N,LV_ACTIVE*%
X146431000Y-63119000D03*
X150431500Y-65595500D03*
%TO.N,PUMP*%
X138996000Y-98509000D03*
%TO.N,RADIATOR_FAN*%
X142996000Y-98509000D03*
%TO.N,PUMP_SIGNAL*%
X140996000Y-98509000D03*
X150996000Y-85259000D03*
%TO.N,chul*%
X146996000Y-90259000D03*
X148746000Y-98509000D03*
%TD*%
D21*
%TO.N,GND*%
X160401000Y-68834000D02*
X154051000Y-68834000D01*
X142049189Y-95562189D02*
X138771000Y-92284000D01*
X157645100Y-61083000D02*
X159254000Y-61083000D01*
X144996000Y-98509000D02*
X153993700Y-89511300D01*
X159254000Y-61083000D02*
X161163000Y-62992000D01*
X174500000Y-115775000D02*
X170150000Y-115775000D01*
X154051000Y-68834000D02*
X150942250Y-71942750D01*
X150942250Y-71942750D02*
X150942250Y-74271300D01*
X147123578Y-103759000D02*
X144996000Y-101631422D01*
X144996000Y-101631422D02*
X144996000Y-101229800D01*
X161163000Y-62992000D02*
X161163000Y-68072000D01*
X169896000Y-108409000D02*
X165246000Y-103759000D01*
X142049189Y-95562189D02*
X144996000Y-98509000D01*
X161163000Y-68072000D02*
X160401000Y-68834000D01*
X144996000Y-101229800D02*
X144996000Y-98509000D01*
X138771000Y-92284000D02*
X136996000Y-92284000D01*
X153993700Y-89511300D02*
X158562250Y-89511300D01*
X165246000Y-103759000D02*
X147123578Y-103759000D01*
%TO.N,LV_ACTIVE*%
X150431500Y-65595500D02*
X150499000Y-65663000D01*
X134556189Y-96069189D02*
X136996000Y-98509000D01*
X136996000Y-101229800D02*
X136996000Y-101737800D01*
X134556189Y-65021500D02*
X134556189Y-96069189D01*
X182000000Y-115775000D02*
X180771000Y-114546000D01*
X146267200Y-111009000D02*
X180771000Y-111009000D01*
X136996000Y-101737800D02*
X146267200Y-111009000D01*
X180771000Y-114546000D02*
X180771000Y-111009000D01*
X134556189Y-65021500D02*
X136458689Y-63119000D01*
X136458689Y-63119000D02*
X146431000Y-63119000D01*
X150499000Y-65663000D02*
X157645100Y-65663000D01*
X136996000Y-98509000D02*
X136996000Y-101229800D01*
%TO.N,PUMP*%
X138996000Y-101229800D02*
X138996000Y-98509000D01*
%TO.N,RADIATOR_FAN*%
X142996000Y-101229800D02*
X142996000Y-98509000D01*
D22*
%TO.N,HV_IN+*%
X176675001Y-78350000D02*
X173750000Y-81275001D01*
X193750000Y-78350000D02*
X176675001Y-78350000D01*
X182000000Y-99275000D02*
X173750000Y-91025000D01*
X173750000Y-91025000D02*
X173750000Y-81275001D01*
D21*
%TO.N,PUMP_SIGNAL*%
X152654550Y-85259000D02*
X150996000Y-85259000D01*
X158562250Y-79351300D02*
X152654550Y-85259000D01*
X140996000Y-101229800D02*
X140996000Y-98509000D01*
D22*
%TO.N,HV_IN-*%
X182755000Y-69000000D02*
X183000000Y-68755000D01*
X175500001Y-69000000D02*
X182755000Y-69000000D01*
D21*
%TO.N,Net-(RELAY_DISCHARGE1-Pad4)*%
X172000000Y-93275000D02*
X174500000Y-95775000D01*
X172000000Y-69000000D02*
X172000000Y-93275000D01*
%TO.N,chul*%
X147066000Y-90189000D02*
X146996000Y-90259000D01*
X148996000Y-98759000D02*
X148746000Y-98509000D01*
X150495000Y-63373000D02*
X147066000Y-66802000D01*
X157645100Y-63373000D02*
X150495000Y-63373000D01*
X147066000Y-66802000D02*
X147066000Y-90189000D01*
X148996000Y-101229800D02*
X148996000Y-98759000D01*
%TO.N,++*%
X193750000Y-108245002D02*
X197249999Y-111745001D01*
X193750000Y-103750000D02*
X193750000Y-108245002D01*
%TO.N,--*%
X205500000Y-103950000D02*
X205500000Y-106995001D01*
X205500000Y-106995001D02*
X200750000Y-111745001D01*
%TD*%
%TA.AperFunction,Conductor*%
%TO.N,GND*%
G36*
X160215388Y-58403002D02*
G01*
X160261881Y-58456658D01*
X160273266Y-58509427D01*
X160248624Y-65778865D01*
X160230146Y-71230082D01*
X160229726Y-71353908D01*
X160209493Y-71421961D01*
X160155680Y-71468271D01*
X160085373Y-71478137D01*
X160020892Y-71448425D01*
X159981523Y-71384177D01*
X159951303Y-71263868D01*
X159951303Y-71263867D01*
X159950044Y-71258856D01*
X159854247Y-71038537D01*
X159769365Y-70907330D01*
X159726560Y-70841163D01*
X159726558Y-70841160D01*
X159723752Y-70836823D01*
X159562064Y-70659130D01*
X159453322Y-70573251D01*
X159377580Y-70513433D01*
X159377575Y-70513430D01*
X159373526Y-70510232D01*
X159369010Y-70507739D01*
X159369007Y-70507737D01*
X159167724Y-70396623D01*
X159167720Y-70396621D01*
X159163200Y-70394126D01*
X159158331Y-70392402D01*
X159158327Y-70392400D01*
X158941610Y-70315656D01*
X158941606Y-70315655D01*
X158936735Y-70313930D01*
X158931642Y-70313023D01*
X158931639Y-70313022D01*
X158705302Y-70272705D01*
X158705296Y-70272704D01*
X158700213Y-70271799D01*
X158612850Y-70270732D01*
X158465157Y-70268927D01*
X158465155Y-70268927D01*
X158459987Y-70268864D01*
X158222506Y-70305204D01*
X158110253Y-70341894D01*
X157999067Y-70378234D01*
X157999061Y-70378237D01*
X157994149Y-70379842D01*
X157989563Y-70382229D01*
X157989559Y-70382231D01*
X157785643Y-70488384D01*
X157781050Y-70490775D01*
X157588930Y-70635023D01*
X157422949Y-70808712D01*
X157420035Y-70812984D01*
X157291156Y-71001913D01*
X157287564Y-71007178D01*
X157285390Y-71011861D01*
X157285388Y-71011865D01*
X157201719Y-71192116D01*
X157186413Y-71225090D01*
X157122210Y-71456598D01*
X157096681Y-71695482D01*
X157096978Y-71700635D01*
X157096978Y-71700638D01*
X157102681Y-71799541D01*
X157110510Y-71935329D01*
X157111647Y-71940375D01*
X157111648Y-71940381D01*
X157145072Y-72088693D01*
X157163327Y-72169696D01*
X157165269Y-72174478D01*
X157165270Y-72174482D01*
X157204451Y-72270973D01*
X157253713Y-72392290D01*
X157379241Y-72597132D01*
X157536539Y-72778722D01*
X157540514Y-72782022D01*
X157540517Y-72782025D01*
X157578074Y-72813205D01*
X157721383Y-72932183D01*
X157928809Y-73053393D01*
X157933629Y-73055233D01*
X157933634Y-73055236D01*
X158040999Y-73096234D01*
X158153247Y-73139097D01*
X158158313Y-73140128D01*
X158158314Y-73140128D01*
X158214641Y-73151588D01*
X158388669Y-73186994D01*
X158523677Y-73191945D01*
X158623588Y-73195609D01*
X158623592Y-73195609D01*
X158628752Y-73195798D01*
X158633872Y-73195142D01*
X158633874Y-73195142D01*
X158709439Y-73185462D01*
X158867050Y-73165271D01*
X158872001Y-73163786D01*
X158872004Y-73163785D01*
X159092212Y-73097719D01*
X159092211Y-73097719D01*
X159097162Y-73096234D01*
X159312908Y-72990541D01*
X159356324Y-72959573D01*
X159504292Y-72854028D01*
X159508495Y-72851030D01*
X159514637Y-72844910D01*
X159675010Y-72685095D01*
X159678670Y-72681448D01*
X159818863Y-72486349D01*
X159925309Y-72270973D01*
X159980551Y-72089152D01*
X160019492Y-72029788D01*
X160084346Y-72000901D01*
X160154522Y-72011663D01*
X160207740Y-72058656D01*
X160227108Y-72126207D01*
X160217293Y-75021452D01*
X160204239Y-78872443D01*
X160184006Y-78940496D01*
X160130193Y-78986806D01*
X160059886Y-78996672D01*
X159995405Y-78966960D01*
X159956036Y-78902710D01*
X159951305Y-78883873D01*
X159951302Y-78883864D01*
X159950044Y-78878856D01*
X159854247Y-78658537D01*
X159723752Y-78456823D01*
X159562064Y-78279130D01*
X159450662Y-78191150D01*
X159377580Y-78133433D01*
X159377575Y-78133430D01*
X159373526Y-78130232D01*
X159369010Y-78127739D01*
X159369007Y-78127737D01*
X159167724Y-78016623D01*
X159167720Y-78016621D01*
X159163200Y-78014126D01*
X159158331Y-78012402D01*
X159158327Y-78012400D01*
X158941610Y-77935656D01*
X158941606Y-77935655D01*
X158936735Y-77933930D01*
X158931642Y-77933023D01*
X158931639Y-77933022D01*
X158705302Y-77892705D01*
X158705296Y-77892704D01*
X158700213Y-77891799D01*
X158612850Y-77890732D01*
X158465157Y-77888927D01*
X158465155Y-77888927D01*
X158459987Y-77888864D01*
X158222506Y-77925204D01*
X158110253Y-77961894D01*
X157999067Y-77998234D01*
X157999061Y-77998237D01*
X157994149Y-77999842D01*
X157989563Y-78002229D01*
X157989559Y-78002231D01*
X157785643Y-78108384D01*
X157781050Y-78110775D01*
X157588930Y-78255023D01*
X157422949Y-78428712D01*
X157287564Y-78627178D01*
X157285390Y-78631861D01*
X157285388Y-78631865D01*
X157214776Y-78783987D01*
X157186413Y-78845090D01*
X157122210Y-79076598D01*
X157096681Y-79315482D01*
X157110510Y-79555329D01*
X157111647Y-79560375D01*
X157111648Y-79560381D01*
X157159952Y-79774719D01*
X157155416Y-79845571D01*
X157126130Y-79891515D01*
X152429050Y-84588595D01*
X152366738Y-84622621D01*
X152339955Y-84625500D01*
X151704200Y-84625500D01*
X151636079Y-84605498D01*
X151616853Y-84589157D01*
X151616580Y-84589460D01*
X151611668Y-84585037D01*
X151607253Y-84580134D01*
X151585671Y-84564454D01*
X151458094Y-84471763D01*
X151458093Y-84471762D01*
X151452752Y-84467882D01*
X151446724Y-84465198D01*
X151446722Y-84465197D01*
X151284319Y-84392891D01*
X151284318Y-84392891D01*
X151278288Y-84390206D01*
X151184888Y-84370353D01*
X151097944Y-84351872D01*
X151097939Y-84351872D01*
X151091487Y-84350500D01*
X150900513Y-84350500D01*
X150894061Y-84351872D01*
X150894056Y-84351872D01*
X150807112Y-84370353D01*
X150713712Y-84390206D01*
X150707682Y-84392891D01*
X150707681Y-84392891D01*
X150545278Y-84465197D01*
X150545276Y-84465198D01*
X150539248Y-84467882D01*
X150384747Y-84580134D01*
X150380326Y-84585044D01*
X150380325Y-84585045D01*
X150346492Y-84622621D01*
X150256960Y-84722056D01*
X150161473Y-84887444D01*
X150102458Y-85069072D01*
X150082496Y-85259000D01*
X150102458Y-85448928D01*
X150161473Y-85630556D01*
X150256960Y-85795944D01*
X150261378Y-85800851D01*
X150261379Y-85800852D01*
X150343452Y-85892003D01*
X150384747Y-85937866D01*
X150539248Y-86050118D01*
X150545276Y-86052802D01*
X150545278Y-86052803D01*
X150707681Y-86125109D01*
X150713712Y-86127794D01*
X150807112Y-86147647D01*
X150894056Y-86166128D01*
X150894061Y-86166128D01*
X150900513Y-86167500D01*
X151091487Y-86167500D01*
X151097939Y-86166128D01*
X151097944Y-86166128D01*
X151184888Y-86147647D01*
X151278288Y-86127794D01*
X151284319Y-86125109D01*
X151446722Y-86052803D01*
X151446724Y-86052802D01*
X151452752Y-86050118D01*
X151607253Y-85937866D01*
X151611668Y-85932963D01*
X151616580Y-85928540D01*
X151617705Y-85929789D01*
X151671014Y-85896949D01*
X151704200Y-85892500D01*
X152575783Y-85892500D01*
X152586966Y-85893027D01*
X152594459Y-85894702D01*
X152602385Y-85894453D01*
X152602386Y-85894453D01*
X152662536Y-85892562D01*
X152666495Y-85892500D01*
X152694406Y-85892500D01*
X152698341Y-85892003D01*
X152698406Y-85891995D01*
X152710243Y-85891062D01*
X152742501Y-85890048D01*
X152746520Y-85889922D01*
X152754439Y-85889673D01*
X152773893Y-85884021D01*
X152793250Y-85880013D01*
X152805480Y-85878468D01*
X152805481Y-85878468D01*
X152813347Y-85877474D01*
X152820718Y-85874555D01*
X152820720Y-85874555D01*
X152854462Y-85861196D01*
X152865692Y-85857351D01*
X152900533Y-85847229D01*
X152900534Y-85847229D01*
X152908143Y-85845018D01*
X152914962Y-85840985D01*
X152914967Y-85840983D01*
X152925578Y-85834707D01*
X152943326Y-85826012D01*
X152962167Y-85818552D01*
X152997937Y-85792564D01*
X153007857Y-85786048D01*
X153039085Y-85767580D01*
X153039088Y-85767578D01*
X153045912Y-85763542D01*
X153060233Y-85749221D01*
X153075267Y-85736380D01*
X153085244Y-85729131D01*
X153091657Y-85724472D01*
X153119848Y-85690395D01*
X153127838Y-85681616D01*
X158021171Y-80788283D01*
X158083483Y-80754257D01*
X158145425Y-80756383D01*
X158148414Y-80757252D01*
X158153247Y-80759097D01*
X158388669Y-80806994D01*
X158523677Y-80811945D01*
X158623588Y-80815609D01*
X158623592Y-80815609D01*
X158628752Y-80815798D01*
X158633872Y-80815142D01*
X158633874Y-80815142D01*
X158709439Y-80805462D01*
X158867050Y-80785271D01*
X158872001Y-80783786D01*
X158872004Y-80783785D01*
X159092212Y-80717719D01*
X159092211Y-80717719D01*
X159097162Y-80716234D01*
X159312908Y-80610541D01*
X159508495Y-80471030D01*
X159678670Y-80301448D01*
X159818863Y-80106349D01*
X159925309Y-79890973D01*
X159954429Y-79795129D01*
X159993370Y-79735765D01*
X160058224Y-79706878D01*
X160128400Y-79717640D01*
X160181618Y-79764633D01*
X160200986Y-79832184D01*
X160170644Y-88783147D01*
X160170109Y-88940885D01*
X160149876Y-89008938D01*
X160096063Y-89055248D01*
X160025756Y-89065114D01*
X159961275Y-89035402D01*
X159928560Y-88990700D01*
X159855866Y-88823513D01*
X159850999Y-88814436D01*
X159769441Y-88688369D01*
X159758755Y-88679167D01*
X159749190Y-88683570D01*
X158934272Y-89498488D01*
X158926658Y-89512432D01*
X158926789Y-89514265D01*
X158931040Y-89520880D01*
X159746172Y-90336012D01*
X159758182Y-90342571D01*
X159769921Y-90333603D01*
X159815415Y-90270291D01*
X159820726Y-90261452D01*
X159922549Y-90055428D01*
X159923023Y-90054230D01*
X159923345Y-90053818D01*
X159924842Y-90050788D01*
X159925467Y-90051097D01*
X159966695Y-89998254D01*
X160033696Y-89974775D01*
X160102756Y-89991247D01*
X160151947Y-90042440D01*
X160166176Y-90101035D01*
X160153738Y-93770396D01*
X160147000Y-95758000D01*
X160162746Y-95765627D01*
X171174926Y-101099574D01*
X171227515Y-101147271D01*
X171246000Y-101212972D01*
X171246000Y-106384000D01*
X171254723Y-106395592D01*
X174097773Y-110173739D01*
X174122750Y-110240197D01*
X174107832Y-110309609D01*
X174057756Y-110359936D01*
X173997094Y-110375500D01*
X146581794Y-110375500D01*
X146513673Y-110355498D01*
X146492699Y-110338595D01*
X144040738Y-107886634D01*
X159966600Y-107886634D01*
X159973355Y-107948816D01*
X160024485Y-108085205D01*
X160111839Y-108201761D01*
X160228395Y-108289115D01*
X160364784Y-108340245D01*
X160426966Y-108347000D01*
X164765034Y-108347000D01*
X164827216Y-108340245D01*
X164963605Y-108289115D01*
X165080161Y-108201761D01*
X165167515Y-108085205D01*
X165218645Y-107948816D01*
X165225400Y-107886634D01*
X165225400Y-105732966D01*
X165218645Y-105670784D01*
X165167515Y-105534395D01*
X165080161Y-105417839D01*
X164963605Y-105330485D01*
X164827216Y-105279355D01*
X164765034Y-105272600D01*
X160426966Y-105272600D01*
X160364784Y-105279355D01*
X160228395Y-105330485D01*
X160111839Y-105417839D01*
X160024485Y-105534395D01*
X159973355Y-105670784D01*
X159966600Y-105732966D01*
X159966600Y-107886634D01*
X144040738Y-107886634D01*
X139237800Y-103083695D01*
X139203774Y-103021383D01*
X139208839Y-102950568D01*
X139251386Y-102893732D01*
X139317906Y-102868921D01*
X139326895Y-102868600D01*
X139666434Y-102868600D01*
X139728616Y-102861845D01*
X139865005Y-102810715D01*
X139920437Y-102769171D01*
X139986941Y-102744324D01*
X140056323Y-102759377D01*
X140071555Y-102769165D01*
X140126995Y-102810715D01*
X140263384Y-102861845D01*
X140325566Y-102868600D01*
X141666434Y-102868600D01*
X141728616Y-102861845D01*
X141865005Y-102810715D01*
X141920437Y-102769171D01*
X141986941Y-102744324D01*
X142056323Y-102759377D01*
X142071555Y-102769165D01*
X142126995Y-102810715D01*
X142263384Y-102861845D01*
X142325566Y-102868600D01*
X143666434Y-102868600D01*
X143728616Y-102861845D01*
X143865005Y-102810715D01*
X143920852Y-102768860D01*
X143987358Y-102744012D01*
X144056741Y-102759065D01*
X144071982Y-102768860D01*
X144120051Y-102804886D01*
X144135646Y-102813424D01*
X144256094Y-102858578D01*
X144271349Y-102862205D01*
X144322214Y-102867731D01*
X144329028Y-102868100D01*
X144723885Y-102868100D01*
X144739124Y-102863625D01*
X144740329Y-102862235D01*
X144742000Y-102854552D01*
X144742000Y-102849984D01*
X145250000Y-102849984D01*
X145254475Y-102865223D01*
X145255865Y-102866428D01*
X145263548Y-102868099D01*
X145662969Y-102868099D01*
X145669790Y-102867729D01*
X145720652Y-102862205D01*
X145735904Y-102858579D01*
X145856354Y-102813424D01*
X145871949Y-102804886D01*
X145920018Y-102768860D01*
X145986525Y-102744012D01*
X146055907Y-102759065D01*
X146071149Y-102768860D01*
X146126995Y-102810715D01*
X146263384Y-102861845D01*
X146325566Y-102868600D01*
X147666434Y-102868600D01*
X147728616Y-102861845D01*
X147865005Y-102810715D01*
X147920437Y-102769171D01*
X147986941Y-102744324D01*
X148056323Y-102759377D01*
X148071555Y-102769165D01*
X148126995Y-102810715D01*
X148263384Y-102861845D01*
X148325566Y-102868600D01*
X149666434Y-102868600D01*
X149728616Y-102861845D01*
X149865005Y-102810715D01*
X149920437Y-102769171D01*
X149986941Y-102744324D01*
X150056323Y-102759377D01*
X150071555Y-102769165D01*
X150126995Y-102810715D01*
X150263384Y-102861845D01*
X150325566Y-102868600D01*
X151666434Y-102868600D01*
X151728616Y-102861845D01*
X151865005Y-102810715D01*
X151920437Y-102769171D01*
X151986941Y-102744324D01*
X152056323Y-102759377D01*
X152071555Y-102769165D01*
X152126995Y-102810715D01*
X152263384Y-102861845D01*
X152325566Y-102868600D01*
X153666434Y-102868600D01*
X153728616Y-102861845D01*
X153865005Y-102810715D01*
X153920437Y-102769171D01*
X153986941Y-102744324D01*
X154056323Y-102759377D01*
X154071555Y-102769165D01*
X154126995Y-102810715D01*
X154263384Y-102861845D01*
X154325566Y-102868600D01*
X155666434Y-102868600D01*
X155728616Y-102861845D01*
X155865005Y-102810715D01*
X155920437Y-102769171D01*
X155986941Y-102744324D01*
X156056323Y-102759377D01*
X156071555Y-102769165D01*
X156126995Y-102810715D01*
X156263384Y-102861845D01*
X156325566Y-102868600D01*
X157666434Y-102868600D01*
X157728616Y-102861845D01*
X157865005Y-102810715D01*
X157920437Y-102769171D01*
X157986941Y-102744324D01*
X158056323Y-102759377D01*
X158071555Y-102769165D01*
X158126995Y-102810715D01*
X158263384Y-102861845D01*
X158325566Y-102868600D01*
X159666434Y-102868600D01*
X159728616Y-102861845D01*
X159865005Y-102810715D01*
X159981561Y-102723361D01*
X160068915Y-102606805D01*
X160120045Y-102470416D01*
X160126800Y-102408234D01*
X160126800Y-100051366D01*
X160120045Y-99989184D01*
X160068915Y-99852795D01*
X159981561Y-99736239D01*
X159865005Y-99648885D01*
X159728616Y-99597755D01*
X159666434Y-99591000D01*
X158325566Y-99591000D01*
X158263384Y-99597755D01*
X158126995Y-99648885D01*
X158071563Y-99690429D01*
X158005059Y-99715276D01*
X157935677Y-99700223D01*
X157920445Y-99690435D01*
X157865005Y-99648885D01*
X157728616Y-99597755D01*
X157666434Y-99591000D01*
X156325566Y-99591000D01*
X156263384Y-99597755D01*
X156126995Y-99648885D01*
X156071563Y-99690429D01*
X156005059Y-99715276D01*
X155935677Y-99700223D01*
X155920445Y-99690435D01*
X155865005Y-99648885D01*
X155728616Y-99597755D01*
X155666434Y-99591000D01*
X154325566Y-99591000D01*
X154263384Y-99597755D01*
X154126995Y-99648885D01*
X154071563Y-99690429D01*
X154005059Y-99715276D01*
X153935677Y-99700223D01*
X153920445Y-99690435D01*
X153865005Y-99648885D01*
X153728616Y-99597755D01*
X153666434Y-99591000D01*
X152325566Y-99591000D01*
X152263384Y-99597755D01*
X152126995Y-99648885D01*
X152071563Y-99690429D01*
X152005059Y-99715276D01*
X151935677Y-99700223D01*
X151920445Y-99690435D01*
X151865005Y-99648885D01*
X151728616Y-99597755D01*
X151666434Y-99591000D01*
X150325566Y-99591000D01*
X150263384Y-99597755D01*
X150126995Y-99648885D01*
X150071563Y-99690429D01*
X150005059Y-99715276D01*
X149935677Y-99700223D01*
X149920445Y-99690435D01*
X149865005Y-99648885D01*
X149728616Y-99597755D01*
X149724794Y-99597340D01*
X149664709Y-99563016D01*
X149631888Y-99500062D01*
X149629500Y-99475649D01*
X149629500Y-98837763D01*
X149630027Y-98826579D01*
X149631701Y-98819091D01*
X149629640Y-98753509D01*
X149635744Y-98710618D01*
X149637502Y-98705207D01*
X149637502Y-98705205D01*
X149639542Y-98698928D01*
X149643008Y-98665956D01*
X149658814Y-98515565D01*
X149659504Y-98509000D01*
X149643640Y-98358064D01*
X149640232Y-98325635D01*
X149640232Y-98325633D01*
X149639542Y-98319072D01*
X149580527Y-98137444D01*
X149565853Y-98112027D01*
X149488341Y-97977774D01*
X149485040Y-97972056D01*
X149357253Y-97830134D01*
X149202752Y-97717882D01*
X149196724Y-97715198D01*
X149196722Y-97715197D01*
X149034319Y-97642891D01*
X149034318Y-97642891D01*
X149028288Y-97640206D01*
X148934887Y-97620353D01*
X148847944Y-97601872D01*
X148847939Y-97601872D01*
X148841487Y-97600500D01*
X148650513Y-97600500D01*
X148644061Y-97601872D01*
X148644056Y-97601872D01*
X148557112Y-97620353D01*
X148463712Y-97640206D01*
X148457682Y-97642891D01*
X148457681Y-97642891D01*
X148295278Y-97715197D01*
X148295276Y-97715198D01*
X148289248Y-97717882D01*
X148134747Y-97830134D01*
X148006960Y-97972056D01*
X148003659Y-97977774D01*
X147926148Y-98112027D01*
X147911473Y-98137444D01*
X147852458Y-98319072D01*
X147851768Y-98325633D01*
X147851768Y-98325635D01*
X147848360Y-98358064D01*
X147832496Y-98509000D01*
X147833186Y-98515565D01*
X147848993Y-98665956D01*
X147852458Y-98698928D01*
X147911473Y-98880556D01*
X148006960Y-99045944D01*
X148134747Y-99187866D01*
X148289248Y-99300118D01*
X148295276Y-99302802D01*
X148299504Y-99305243D01*
X148348495Y-99356627D01*
X148362500Y-99414360D01*
X148362500Y-99475649D01*
X148342498Y-99543770D01*
X148288842Y-99590263D01*
X148268720Y-99597175D01*
X148263384Y-99597755D01*
X148126995Y-99648885D01*
X148071563Y-99690429D01*
X148005059Y-99715276D01*
X147935677Y-99700223D01*
X147920445Y-99690435D01*
X147865005Y-99648885D01*
X147728616Y-99597755D01*
X147666434Y-99591000D01*
X146325566Y-99591000D01*
X146263384Y-99597755D01*
X146126995Y-99648885D01*
X146078096Y-99685533D01*
X146071148Y-99690740D01*
X146004642Y-99715588D01*
X145935259Y-99700535D01*
X145920018Y-99690740D01*
X145871949Y-99654714D01*
X145856354Y-99646176D01*
X145735906Y-99601022D01*
X145720651Y-99597395D01*
X145669786Y-99591869D01*
X145662972Y-99591500D01*
X145268115Y-99591500D01*
X145252876Y-99595975D01*
X145251671Y-99597365D01*
X145250000Y-99605048D01*
X145250000Y-102849984D01*
X144742000Y-102849984D01*
X144742000Y-99609616D01*
X144737525Y-99594377D01*
X144736135Y-99593172D01*
X144728452Y-99591501D01*
X144329031Y-99591501D01*
X144322210Y-99591871D01*
X144271348Y-99597395D01*
X144256096Y-99601021D01*
X144135646Y-99646176D01*
X144120051Y-99654714D01*
X144071982Y-99690740D01*
X144005475Y-99715588D01*
X143936093Y-99700535D01*
X143920852Y-99690740D01*
X143913904Y-99685533D01*
X143865005Y-99648885D01*
X143728616Y-99597755D01*
X143724794Y-99597340D01*
X143664709Y-99563016D01*
X143631888Y-99500062D01*
X143629500Y-99475649D01*
X143629500Y-99211524D01*
X143649502Y-99143403D01*
X143661858Y-99127221D01*
X143735040Y-99045944D01*
X143830527Y-98880556D01*
X143889542Y-98698928D01*
X143893008Y-98665956D01*
X143908814Y-98515565D01*
X143909504Y-98509000D01*
X143893640Y-98358064D01*
X143890232Y-98325635D01*
X143890232Y-98325633D01*
X143889542Y-98319072D01*
X143830527Y-98137444D01*
X143815853Y-98112027D01*
X143738341Y-97977774D01*
X143735040Y-97972056D01*
X143607253Y-97830134D01*
X143452752Y-97717882D01*
X143446724Y-97715198D01*
X143446722Y-97715197D01*
X143284319Y-97642891D01*
X143284318Y-97642891D01*
X143278288Y-97640206D01*
X143184887Y-97620353D01*
X143097944Y-97601872D01*
X143097939Y-97601872D01*
X143091487Y-97600500D01*
X142900513Y-97600500D01*
X142894061Y-97601872D01*
X142894056Y-97601872D01*
X142807112Y-97620353D01*
X142713712Y-97640206D01*
X142707682Y-97642891D01*
X142707681Y-97642891D01*
X142545278Y-97715197D01*
X142545276Y-97715198D01*
X142539248Y-97717882D01*
X142384747Y-97830134D01*
X142256960Y-97972056D01*
X142253659Y-97977774D01*
X142176148Y-98112027D01*
X142161473Y-98137444D01*
X142131583Y-98229437D01*
X142115833Y-98277909D01*
X142075759Y-98336514D01*
X142010363Y-98364151D01*
X141940406Y-98352044D01*
X141888100Y-98304038D01*
X141876167Y-98277909D01*
X141860418Y-98229437D01*
X141830527Y-98137444D01*
X141815853Y-98112027D01*
X141738341Y-97977774D01*
X141735040Y-97972056D01*
X141607253Y-97830134D01*
X141452752Y-97717882D01*
X141446724Y-97715198D01*
X141446722Y-97715197D01*
X141284319Y-97642891D01*
X141284318Y-97642891D01*
X141278288Y-97640206D01*
X141184887Y-97620353D01*
X141097944Y-97601872D01*
X141097939Y-97601872D01*
X141091487Y-97600500D01*
X140900513Y-97600500D01*
X140894061Y-97601872D01*
X140894056Y-97601872D01*
X140807112Y-97620353D01*
X140713712Y-97640206D01*
X140707682Y-97642891D01*
X140707681Y-97642891D01*
X140545278Y-97715197D01*
X140545276Y-97715198D01*
X140539248Y-97717882D01*
X140384747Y-97830134D01*
X140256960Y-97972056D01*
X140253659Y-97977774D01*
X140176148Y-98112027D01*
X140161473Y-98137444D01*
X140131583Y-98229437D01*
X140115833Y-98277909D01*
X140075759Y-98336514D01*
X140010363Y-98364151D01*
X139940406Y-98352044D01*
X139888100Y-98304038D01*
X139876167Y-98277909D01*
X139860418Y-98229437D01*
X139830527Y-98137444D01*
X139815853Y-98112027D01*
X139738341Y-97977774D01*
X139735040Y-97972056D01*
X139607253Y-97830134D01*
X139452752Y-97717882D01*
X139446724Y-97715198D01*
X139446722Y-97715197D01*
X139284319Y-97642891D01*
X139284318Y-97642891D01*
X139278288Y-97640206D01*
X139184887Y-97620353D01*
X139097944Y-97601872D01*
X139097939Y-97601872D01*
X139091487Y-97600500D01*
X138900513Y-97600500D01*
X138894061Y-97601872D01*
X138894056Y-97601872D01*
X138807112Y-97620353D01*
X138713712Y-97640206D01*
X138707682Y-97642891D01*
X138707681Y-97642891D01*
X138545278Y-97715197D01*
X138545276Y-97715198D01*
X138539248Y-97717882D01*
X138384747Y-97830134D01*
X138256960Y-97972056D01*
X138253659Y-97977774D01*
X138176148Y-98112027D01*
X138161473Y-98137444D01*
X138102458Y-98319072D01*
X138101768Y-98325633D01*
X138101768Y-98325635D01*
X138098360Y-98358064D01*
X138082496Y-98509000D01*
X138083186Y-98515565D01*
X138098993Y-98665956D01*
X138102458Y-98698928D01*
X138161473Y-98880556D01*
X138256960Y-99045944D01*
X138330137Y-99127215D01*
X138360853Y-99191221D01*
X138362500Y-99211524D01*
X138362500Y-99475649D01*
X138342498Y-99543770D01*
X138288842Y-99590263D01*
X138268720Y-99597175D01*
X138263384Y-99597755D01*
X138126995Y-99648885D01*
X138071563Y-99690429D01*
X138005059Y-99715276D01*
X137935677Y-99700223D01*
X137920445Y-99690435D01*
X137865005Y-99648885D01*
X137728616Y-99597755D01*
X137724794Y-99597340D01*
X137664709Y-99563016D01*
X137631888Y-99500062D01*
X137629500Y-99475649D01*
X137629500Y-98587767D01*
X137630027Y-98576584D01*
X137631702Y-98569091D01*
X137629562Y-98501000D01*
X137629500Y-98497043D01*
X137629500Y-98469144D01*
X137628996Y-98465153D01*
X137628063Y-98453311D01*
X137626923Y-98417036D01*
X137626674Y-98409111D01*
X137624462Y-98401497D01*
X137624461Y-98401492D01*
X137621023Y-98389659D01*
X137617012Y-98370295D01*
X137615467Y-98358064D01*
X137614474Y-98350203D01*
X137611557Y-98342836D01*
X137611556Y-98342831D01*
X137598198Y-98309092D01*
X137594354Y-98297865D01*
X137584230Y-98263022D01*
X137582018Y-98255407D01*
X137571707Y-98237972D01*
X137563012Y-98220224D01*
X137555552Y-98201383D01*
X137529564Y-98165613D01*
X137523048Y-98155693D01*
X137504580Y-98124465D01*
X137504578Y-98124462D01*
X137500542Y-98117638D01*
X137486221Y-98103317D01*
X137473380Y-98088283D01*
X137466131Y-98078306D01*
X137461472Y-98071893D01*
X137427395Y-98043702D01*
X137418616Y-98035712D01*
X135226594Y-95843689D01*
X135192568Y-95781377D01*
X135189689Y-95754594D01*
X135189689Y-93500624D01*
X136144621Y-93500624D01*
X136148988Y-93506774D01*
X136348563Y-93623397D01*
X136357846Y-93627844D01*
X136576007Y-93711152D01*
X136585905Y-93714028D01*
X136814744Y-93760585D01*
X136824972Y-93761804D01*
X137058340Y-93770362D01*
X137068626Y-93769895D01*
X137300262Y-93740222D01*
X137310340Y-93738080D01*
X137534014Y-93670974D01*
X137543612Y-93667212D01*
X137753324Y-93564476D01*
X137762169Y-93559203D01*
X137834869Y-93507347D01*
X137843270Y-93496646D01*
X137836283Y-93483493D01*
X137008812Y-92656022D01*
X136994868Y-92648408D01*
X136993035Y-92648539D01*
X136986420Y-92652790D01*
X136151881Y-93487329D01*
X136144621Y-93500624D01*
X135189689Y-93500624D01*
X135189689Y-92252799D01*
X135508658Y-92252799D01*
X135522102Y-92485942D01*
X135523535Y-92496144D01*
X135574873Y-92723949D01*
X135577956Y-92733789D01*
X135665814Y-92950156D01*
X135670457Y-92959347D01*
X135771555Y-93124325D01*
X135782011Y-93133785D01*
X135790789Y-93130001D01*
X136623978Y-92296812D01*
X136630356Y-92285132D01*
X137360408Y-92285132D01*
X137360539Y-92286965D01*
X137364790Y-92293580D01*
X138196045Y-93124835D01*
X138208055Y-93131394D01*
X138219794Y-93122426D01*
X138268518Y-93054619D01*
X138273829Y-93045780D01*
X138377291Y-92836442D01*
X138381089Y-92826849D01*
X138448974Y-92603413D01*
X138451151Y-92593343D01*
X138481869Y-92360015D01*
X138482388Y-92353340D01*
X138484001Y-92287364D01*
X138483807Y-92280647D01*
X138481093Y-92247631D01*
X143007860Y-92247631D01*
X143008157Y-92252783D01*
X143008157Y-92252787D01*
X143019558Y-92450499D01*
X143021903Y-92491171D01*
X143023040Y-92496217D01*
X143023041Y-92496223D01*
X143046107Y-92598575D01*
X143075533Y-92729147D01*
X143077475Y-92733929D01*
X143077476Y-92733933D01*
X143165275Y-92950156D01*
X143167311Y-92955169D01*
X143294772Y-93163166D01*
X143454492Y-93347553D01*
X143642183Y-93503377D01*
X143852804Y-93626453D01*
X144080698Y-93713478D01*
X144085764Y-93714509D01*
X144085765Y-93714509D01*
X144314667Y-93761080D01*
X144314671Y-93761080D01*
X144319746Y-93762113D01*
X144324922Y-93762303D01*
X144324924Y-93762303D01*
X144558363Y-93770863D01*
X144558367Y-93770863D01*
X144563527Y-93771052D01*
X144568647Y-93770396D01*
X144568649Y-93770396D01*
X144645377Y-93760567D01*
X144805494Y-93740055D01*
X144810443Y-93738570D01*
X144810449Y-93738569D01*
X145034200Y-93671440D01*
X145034199Y-93671440D01*
X145039150Y-93669955D01*
X145258219Y-93562634D01*
X145262424Y-93559634D01*
X145262430Y-93559631D01*
X145452614Y-93423974D01*
X145452616Y-93423972D01*
X145456818Y-93420975D01*
X145629614Y-93248781D01*
X145771966Y-93050677D01*
X145774387Y-93045780D01*
X145877756Y-92836626D01*
X145877757Y-92836624D01*
X145880050Y-92831984D01*
X145935786Y-92648539D01*
X145949462Y-92603527D01*
X145949463Y-92603521D01*
X145950966Y-92598575D01*
X145982807Y-92356717D01*
X145984584Y-92284000D01*
X145964596Y-92040876D01*
X145905167Y-91804280D01*
X145807894Y-91580568D01*
X145714888Y-91436802D01*
X145678200Y-91380091D01*
X145678198Y-91380088D01*
X145675390Y-91375748D01*
X145635470Y-91331876D01*
X145514690Y-91199141D01*
X145514688Y-91199140D01*
X145511212Y-91195319D01*
X145507161Y-91192120D01*
X145507157Y-91192116D01*
X145323825Y-91047329D01*
X145323821Y-91047327D01*
X145319770Y-91044127D01*
X145290370Y-91027897D01*
X145263759Y-91013207D01*
X145106205Y-90926233D01*
X145101336Y-90924509D01*
X145101332Y-90924507D01*
X144881127Y-90846528D01*
X144881123Y-90846527D01*
X144876252Y-90844802D01*
X144871159Y-90843895D01*
X144871156Y-90843894D01*
X144641177Y-90802928D01*
X144641171Y-90802927D01*
X144636088Y-90802022D01*
X144556380Y-90801048D01*
X144397332Y-90799105D01*
X144397330Y-90799105D01*
X144392162Y-90799042D01*
X144151024Y-90835941D01*
X143919150Y-90911729D01*
X143702769Y-91024370D01*
X143698636Y-91027473D01*
X143698633Y-91027475D01*
X143512138Y-91167500D01*
X143507690Y-91170840D01*
X143339153Y-91347204D01*
X143336239Y-91351476D01*
X143336238Y-91351477D01*
X143316719Y-91380091D01*
X143201684Y-91548726D01*
X143098974Y-91769995D01*
X143033783Y-92005067D01*
X143007860Y-92247631D01*
X138481093Y-92247631D01*
X138464525Y-92046108D01*
X138462842Y-92035946D01*
X138405952Y-91809453D01*
X138402634Y-91799706D01*
X138309513Y-91585542D01*
X138304646Y-91576467D01*
X138219465Y-91444796D01*
X138208779Y-91435593D01*
X138199214Y-91439996D01*
X137368022Y-92271188D01*
X137360408Y-92285132D01*
X136630356Y-92285132D01*
X136631592Y-92282868D01*
X136631461Y-92281035D01*
X136627210Y-92274420D01*
X135795892Y-91443102D01*
X135784356Y-91436802D01*
X135772073Y-91446426D01*
X135705036Y-91544698D01*
X135699943Y-91553662D01*
X135601619Y-91765483D01*
X135598062Y-91775151D01*
X135535657Y-92000178D01*
X135533726Y-92010298D01*
X135508910Y-92242510D01*
X135508658Y-92252799D01*
X135189689Y-92252799D01*
X135189689Y-91071142D01*
X136147938Y-91071142D01*
X136154684Y-91083474D01*
X136983188Y-91911978D01*
X136997132Y-91919592D01*
X136998965Y-91919461D01*
X137005580Y-91915210D01*
X137838391Y-91082399D01*
X137845412Y-91069543D01*
X137837639Y-91058875D01*
X137823548Y-91047746D01*
X137814970Y-91042047D01*
X137610526Y-90929189D01*
X137601126Y-90924964D01*
X137380993Y-90847011D01*
X137371036Y-90844381D01*
X137141129Y-90803427D01*
X137130878Y-90802458D01*
X136897367Y-90799605D01*
X136887083Y-90800325D01*
X136656253Y-90835647D01*
X136646225Y-90838036D01*
X136424263Y-90910584D01*
X136414753Y-90914581D01*
X136207624Y-91022405D01*
X136198904Y-91027897D01*
X136156391Y-91059817D01*
X136147938Y-91071142D01*
X135189689Y-91071142D01*
X135189689Y-90259000D01*
X146082496Y-90259000D01*
X146083186Y-90265565D01*
X146091506Y-90344721D01*
X146102458Y-90448928D01*
X146161473Y-90630556D01*
X146256960Y-90795944D01*
X146261378Y-90800851D01*
X146261379Y-90800852D01*
X146376523Y-90928732D01*
X146384747Y-90937866D01*
X146435362Y-90974640D01*
X146508664Y-91027897D01*
X146539248Y-91050118D01*
X146545276Y-91052802D01*
X146545278Y-91052803D01*
X146614167Y-91083474D01*
X146713712Y-91127794D01*
X146807112Y-91147647D01*
X146894056Y-91166128D01*
X146894061Y-91166128D01*
X146900513Y-91167500D01*
X147091487Y-91167500D01*
X147097939Y-91166128D01*
X147097944Y-91166128D01*
X147184888Y-91147647D01*
X147278288Y-91127794D01*
X147377833Y-91083474D01*
X147446722Y-91052803D01*
X147446724Y-91052802D01*
X147452752Y-91050118D01*
X147483337Y-91027897D01*
X147556638Y-90974640D01*
X147607253Y-90937866D01*
X147615477Y-90928732D01*
X147730621Y-90800852D01*
X147730622Y-90800851D01*
X147735040Y-90795944D01*
X147830527Y-90630556D01*
X147889542Y-90448928D01*
X147900495Y-90344721D01*
X147908814Y-90265565D01*
X147909504Y-90259000D01*
X147899864Y-90167276D01*
X147890232Y-90075635D01*
X147890232Y-90075633D01*
X147889542Y-90069072D01*
X147830527Y-89887444D01*
X147735040Y-89722056D01*
X147730621Y-89717148D01*
X147726739Y-89711805D01*
X147728147Y-89710782D01*
X147701147Y-89654526D01*
X147699500Y-89634218D01*
X147699500Y-89475482D01*
X149476681Y-89475482D01*
X149476978Y-89480635D01*
X149476978Y-89480638D01*
X149482682Y-89579562D01*
X149490510Y-89715329D01*
X149491647Y-89720375D01*
X149491648Y-89720381D01*
X149514347Y-89821104D01*
X149543327Y-89949696D01*
X149545269Y-89954478D01*
X149545270Y-89954482D01*
X149594465Y-90075635D01*
X149633713Y-90172290D01*
X149759241Y-90377132D01*
X149916539Y-90558722D01*
X150101383Y-90712183D01*
X150308809Y-90833393D01*
X150313629Y-90835233D01*
X150313634Y-90835236D01*
X150420999Y-90876234D01*
X150533247Y-90919097D01*
X150538313Y-90920128D01*
X150538314Y-90920128D01*
X150580605Y-90928732D01*
X150768669Y-90966994D01*
X150903677Y-90971945D01*
X151003588Y-90975609D01*
X151003592Y-90975609D01*
X151008752Y-90975798D01*
X151013872Y-90975142D01*
X151013874Y-90975142D01*
X151089439Y-90965462D01*
X151247050Y-90945271D01*
X151252001Y-90943786D01*
X151252004Y-90943785D01*
X151472212Y-90877719D01*
X151472211Y-90877719D01*
X151477162Y-90876234D01*
X151692908Y-90770541D01*
X151697727Y-90767104D01*
X151775086Y-90711924D01*
X157726862Y-90711924D01*
X157730364Y-90716851D01*
X157924568Y-90830335D01*
X157933851Y-90834782D01*
X158148556Y-90916770D01*
X158158458Y-90919647D01*
X158383652Y-90965463D01*
X158393904Y-90966686D01*
X158623566Y-90975107D01*
X158633852Y-90974640D01*
X158861815Y-90945437D01*
X158871901Y-90943294D01*
X159092029Y-90877252D01*
X159101624Y-90873491D01*
X159308000Y-90772389D01*
X159316866Y-90767104D01*
X159384987Y-90718513D01*
X159393388Y-90707813D01*
X159386400Y-90694660D01*
X158575062Y-89883322D01*
X158561118Y-89875708D01*
X158559285Y-89875839D01*
X158552670Y-89880090D01*
X157734110Y-90698650D01*
X157726862Y-90711924D01*
X151775086Y-90711924D01*
X151884292Y-90634028D01*
X151888495Y-90631030D01*
X152058670Y-90461448D01*
X152198863Y-90266349D01*
X152305309Y-90050973D01*
X152328460Y-89974775D01*
X152373645Y-89826056D01*
X152373646Y-89826050D01*
X152375149Y-89821104D01*
X152406507Y-89582914D01*
X152408257Y-89511300D01*
X152405737Y-89480651D01*
X157097479Y-89480651D01*
X157110709Y-89710090D01*
X157112145Y-89720311D01*
X157162670Y-89944504D01*
X157165749Y-89954332D01*
X157252217Y-90167276D01*
X157256860Y-90176467D01*
X157354169Y-90335261D01*
X157364626Y-90344721D01*
X157373402Y-90340938D01*
X158190228Y-89524112D01*
X158197842Y-89510168D01*
X158197711Y-89508335D01*
X158193460Y-89501720D01*
X157378335Y-88686595D01*
X157366799Y-88680295D01*
X157354516Y-88689919D01*
X157290920Y-88783147D01*
X157285821Y-88792121D01*
X157189063Y-89000569D01*
X157185500Y-89010256D01*
X157124085Y-89231709D01*
X157122154Y-89241829D01*
X157097731Y-89470363D01*
X157097479Y-89480651D01*
X152405737Y-89480651D01*
X152388572Y-89271863D01*
X152330044Y-89038856D01*
X152234247Y-88818537D01*
X152103752Y-88616823D01*
X151942064Y-88439130D01*
X151798462Y-88325720D01*
X151784272Y-88314513D01*
X157730259Y-88314513D01*
X157737003Y-88326843D01*
X158549438Y-89139278D01*
X158563382Y-89146892D01*
X158565215Y-89146761D01*
X158571830Y-89142510D01*
X159388620Y-88325720D01*
X159395640Y-88312864D01*
X159387865Y-88302194D01*
X159377311Y-88293858D01*
X159368718Y-88288149D01*
X159167528Y-88177086D01*
X159158116Y-88172856D01*
X158941482Y-88096141D01*
X158931511Y-88093507D01*
X158705255Y-88053205D01*
X158695002Y-88052236D01*
X158465192Y-88049428D01*
X158454908Y-88050148D01*
X158227734Y-88084910D01*
X158217707Y-88087299D01*
X157999262Y-88158698D01*
X157989753Y-88162695D01*
X157785903Y-88268813D01*
X157777185Y-88274302D01*
X157738712Y-88303188D01*
X157730259Y-88314513D01*
X151784272Y-88314513D01*
X151757580Y-88293433D01*
X151757575Y-88293430D01*
X151753526Y-88290232D01*
X151749010Y-88287739D01*
X151749007Y-88287737D01*
X151547724Y-88176623D01*
X151547720Y-88176621D01*
X151543200Y-88174126D01*
X151538331Y-88172402D01*
X151538327Y-88172400D01*
X151321610Y-88095656D01*
X151321606Y-88095655D01*
X151316735Y-88093930D01*
X151311642Y-88093023D01*
X151311639Y-88093022D01*
X151085302Y-88052705D01*
X151085296Y-88052704D01*
X151080213Y-88051799D01*
X150992850Y-88050732D01*
X150845157Y-88048927D01*
X150845155Y-88048927D01*
X150839987Y-88048864D01*
X150602506Y-88085204D01*
X150490253Y-88121894D01*
X150379067Y-88158234D01*
X150379061Y-88158237D01*
X150374149Y-88159842D01*
X150369563Y-88162229D01*
X150369559Y-88162231D01*
X150165643Y-88268384D01*
X150161050Y-88270775D01*
X150138459Y-88287737D01*
X150086375Y-88326843D01*
X149968930Y-88415023D01*
X149802949Y-88588712D01*
X149667564Y-88787178D01*
X149665390Y-88791861D01*
X149665388Y-88791865D01*
X149568592Y-89000395D01*
X149566413Y-89005090D01*
X149502210Y-89236598D01*
X149476681Y-89475482D01*
X147699500Y-89475482D01*
X147699500Y-75471924D01*
X150106862Y-75471924D01*
X150110364Y-75476851D01*
X150304568Y-75590335D01*
X150313851Y-75594782D01*
X150528556Y-75676770D01*
X150538458Y-75679647D01*
X150763652Y-75725463D01*
X150773904Y-75726686D01*
X151003566Y-75735107D01*
X151013852Y-75734640D01*
X151241815Y-75705437D01*
X151251901Y-75703294D01*
X151472029Y-75637252D01*
X151481624Y-75633491D01*
X151688000Y-75532389D01*
X151696866Y-75527104D01*
X151764987Y-75478513D01*
X151773388Y-75467813D01*
X151766400Y-75454660D01*
X150955062Y-74643322D01*
X150941118Y-74635708D01*
X150939285Y-74635839D01*
X150932670Y-74640090D01*
X150114110Y-75458650D01*
X150106862Y-75471924D01*
X147699500Y-75471924D01*
X147699500Y-74240651D01*
X149477479Y-74240651D01*
X149490709Y-74470090D01*
X149492145Y-74480311D01*
X149542670Y-74704504D01*
X149545749Y-74714332D01*
X149632217Y-74927276D01*
X149636860Y-74936467D01*
X149734169Y-75095261D01*
X149744626Y-75104721D01*
X149753402Y-75100938D01*
X150570228Y-74284112D01*
X150576606Y-74272432D01*
X151306658Y-74272432D01*
X151306789Y-74274265D01*
X151311040Y-74280880D01*
X152126172Y-75096012D01*
X152138182Y-75102571D01*
X152149921Y-75093603D01*
X152195415Y-75030291D01*
X152200726Y-75021452D01*
X152302548Y-74815429D01*
X152306347Y-74805834D01*
X152373154Y-74585950D01*
X152375333Y-74575869D01*
X152405568Y-74346212D01*
X152406087Y-74339537D01*
X152407673Y-74274664D01*
X152407479Y-74267947D01*
X152388500Y-74037096D01*
X152386817Y-74026934D01*
X152330828Y-73804029D01*
X152327509Y-73794281D01*
X152235866Y-73583513D01*
X152230999Y-73574436D01*
X152149441Y-73448369D01*
X152138755Y-73439167D01*
X152129190Y-73443570D01*
X151314272Y-74258488D01*
X151306658Y-74272432D01*
X150576606Y-74272432D01*
X150577842Y-74270168D01*
X150577711Y-74268335D01*
X150573460Y-74261720D01*
X149758335Y-73446595D01*
X149746799Y-73440295D01*
X149734516Y-73449919D01*
X149670920Y-73543147D01*
X149665821Y-73552121D01*
X149569063Y-73760569D01*
X149565500Y-73770256D01*
X149504085Y-73991709D01*
X149502154Y-74001829D01*
X149477731Y-74230363D01*
X149477479Y-74240651D01*
X147699500Y-74240651D01*
X147699500Y-73074513D01*
X150110259Y-73074513D01*
X150117003Y-73086843D01*
X150929438Y-73899278D01*
X150943382Y-73906892D01*
X150945215Y-73906761D01*
X150951830Y-73902510D01*
X151768620Y-73085720D01*
X151775640Y-73072864D01*
X151767865Y-73062194D01*
X151757311Y-73053858D01*
X151748718Y-73048149D01*
X151547528Y-72937086D01*
X151538116Y-72932856D01*
X151321482Y-72856141D01*
X151311511Y-72853507D01*
X151085255Y-72813205D01*
X151075002Y-72812236D01*
X150845192Y-72809428D01*
X150834908Y-72810148D01*
X150607734Y-72844910D01*
X150597707Y-72847299D01*
X150379262Y-72918698D01*
X150369753Y-72922695D01*
X150165903Y-73028813D01*
X150157185Y-73034302D01*
X150118712Y-73063188D01*
X150110259Y-73074513D01*
X147699500Y-73074513D01*
X147699500Y-67116594D01*
X147719502Y-67048473D01*
X147736405Y-67027499D01*
X149307458Y-65456446D01*
X149369770Y-65422420D01*
X149440585Y-65427485D01*
X149497421Y-65470032D01*
X149522232Y-65536552D01*
X149521863Y-65558706D01*
X149517996Y-65595500D01*
X149537958Y-65785428D01*
X149596973Y-65967056D01*
X149692460Y-66132444D01*
X149696878Y-66137351D01*
X149696879Y-66137352D01*
X149769329Y-66217816D01*
X149820247Y-66274366D01*
X149861851Y-66304593D01*
X149930136Y-66354205D01*
X149974748Y-66386618D01*
X149980776Y-66389302D01*
X149980778Y-66389303D01*
X150104605Y-66444434D01*
X150149212Y-66464294D01*
X150242612Y-66484147D01*
X150329556Y-66502628D01*
X150329561Y-66502628D01*
X150336013Y-66504000D01*
X150526987Y-66504000D01*
X150533439Y-66502628D01*
X150533444Y-66502628D01*
X150620388Y-66484147D01*
X150713788Y-66464294D01*
X150758395Y-66444434D01*
X150882222Y-66389303D01*
X150882224Y-66389302D01*
X150888252Y-66386618D01*
X150932865Y-66354205D01*
X150979167Y-66320564D01*
X151046034Y-66296706D01*
X151053228Y-66296500D01*
X156353079Y-66296500D01*
X156421200Y-66316502D01*
X156456976Y-66354886D01*
X156457885Y-66354205D01*
X156545239Y-66470761D01*
X156661795Y-66558115D01*
X156798184Y-66609245D01*
X156860366Y-66616000D01*
X158429834Y-66616000D01*
X158492016Y-66609245D01*
X158628405Y-66558115D01*
X158744961Y-66470761D01*
X158832315Y-66354205D01*
X158883445Y-66217816D01*
X158890200Y-66155634D01*
X158890200Y-65170366D01*
X158883445Y-65108184D01*
X158832315Y-64971795D01*
X158744961Y-64855239D01*
X158628405Y-64767885D01*
X158492016Y-64716755D01*
X158429834Y-64710000D01*
X156860366Y-64710000D01*
X156798184Y-64716755D01*
X156661795Y-64767885D01*
X156545239Y-64855239D01*
X156457885Y-64971795D01*
X156456691Y-64970900D01*
X156413344Y-65014153D01*
X156353079Y-65029500D01*
X151200476Y-65029500D01*
X151132355Y-65009498D01*
X151106840Y-64987810D01*
X151047175Y-64921545D01*
X151047174Y-64921544D01*
X151042753Y-64916634D01*
X150888252Y-64804382D01*
X150882224Y-64801698D01*
X150882222Y-64801697D01*
X150719819Y-64729391D01*
X150719818Y-64729391D01*
X150713788Y-64726706D01*
X150620387Y-64706853D01*
X150533444Y-64688372D01*
X150533439Y-64688372D01*
X150526987Y-64687000D01*
X150381094Y-64687000D01*
X150312973Y-64666998D01*
X150266480Y-64613342D01*
X150256376Y-64543068D01*
X150285870Y-64478488D01*
X150291999Y-64471905D01*
X150720499Y-64043405D01*
X150782811Y-64009379D01*
X150809594Y-64006500D01*
X156353079Y-64006500D01*
X156421200Y-64026502D01*
X156456976Y-64064886D01*
X156457885Y-64064205D01*
X156545239Y-64180761D01*
X156661795Y-64268115D01*
X156798184Y-64319245D01*
X156860366Y-64326000D01*
X158429834Y-64326000D01*
X158492016Y-64319245D01*
X158628405Y-64268115D01*
X158744961Y-64180761D01*
X158832315Y-64064205D01*
X158883445Y-63927816D01*
X158890200Y-63865634D01*
X158890200Y-62880366D01*
X158883445Y-62818184D01*
X158832315Y-62681795D01*
X158744961Y-62565239D01*
X158628405Y-62477885D01*
X158492016Y-62426755D01*
X158429834Y-62420000D01*
X156860366Y-62420000D01*
X156798184Y-62426755D01*
X156661795Y-62477885D01*
X156545239Y-62565239D01*
X156457885Y-62681795D01*
X156456691Y-62680900D01*
X156413344Y-62724153D01*
X156353079Y-62739500D01*
X150573767Y-62739500D01*
X150562584Y-62738973D01*
X150555091Y-62737298D01*
X150547165Y-62737547D01*
X150547164Y-62737547D01*
X150487014Y-62739438D01*
X150483055Y-62739500D01*
X150455144Y-62739500D01*
X150451210Y-62739997D01*
X150451209Y-62739997D01*
X150451144Y-62740005D01*
X150439307Y-62740938D01*
X150407490Y-62741938D01*
X150403029Y-62742078D01*
X150395110Y-62742327D01*
X150377496Y-62747444D01*
X150375658Y-62747978D01*
X150356306Y-62751986D01*
X150349235Y-62752880D01*
X150336203Y-62754526D01*
X150328834Y-62757443D01*
X150328832Y-62757444D01*
X150295097Y-62770800D01*
X150283869Y-62774645D01*
X150241407Y-62786982D01*
X150234585Y-62791016D01*
X150234579Y-62791019D01*
X150223968Y-62797294D01*
X150206218Y-62805990D01*
X150194756Y-62810528D01*
X150194751Y-62810531D01*
X150187383Y-62813448D01*
X150170051Y-62826040D01*
X150151625Y-62839427D01*
X150141707Y-62845943D01*
X150123019Y-62856995D01*
X150103637Y-62868458D01*
X150089313Y-62882782D01*
X150074281Y-62895621D01*
X150057893Y-62907528D01*
X150034641Y-62935635D01*
X150029712Y-62941593D01*
X150021722Y-62950373D01*
X146673747Y-66298348D01*
X146665461Y-66305888D01*
X146658982Y-66310000D01*
X146653557Y-66315777D01*
X146612357Y-66359651D01*
X146609602Y-66362493D01*
X146589865Y-66382230D01*
X146587385Y-66385427D01*
X146579682Y-66394447D01*
X146549414Y-66426679D01*
X146545595Y-66433625D01*
X146545593Y-66433628D01*
X146539652Y-66444434D01*
X146528801Y-66460953D01*
X146516386Y-66476959D01*
X146513241Y-66484228D01*
X146513238Y-66484232D01*
X146498826Y-66517537D01*
X146493609Y-66528187D01*
X146472305Y-66566940D01*
X146470334Y-66574615D01*
X146470334Y-66574616D01*
X146467267Y-66586562D01*
X146460863Y-66605266D01*
X146452819Y-66623855D01*
X146451580Y-66631678D01*
X146451577Y-66631688D01*
X146445901Y-66667524D01*
X146443495Y-66679144D01*
X146432500Y-66721970D01*
X146432500Y-66742224D01*
X146430949Y-66761934D01*
X146427780Y-66781943D01*
X146428526Y-66789835D01*
X146431941Y-66825961D01*
X146432500Y-66837819D01*
X146432500Y-89481967D01*
X146412498Y-89550088D01*
X146390813Y-89575601D01*
X146390090Y-89576252D01*
X146384747Y-89580134D01*
X146256960Y-89722056D01*
X146161473Y-89887444D01*
X146102458Y-90069072D01*
X146101768Y-90075633D01*
X146101768Y-90075635D01*
X146092136Y-90167276D01*
X146082496Y-90259000D01*
X135189689Y-90259000D01*
X135189689Y-75747631D01*
X143007860Y-75747631D01*
X143008157Y-75752783D01*
X143008157Y-75752787D01*
X143019558Y-75950499D01*
X143021903Y-75991171D01*
X143023040Y-75996217D01*
X143023041Y-75996223D01*
X143046107Y-76098575D01*
X143075533Y-76229147D01*
X143077475Y-76233929D01*
X143077476Y-76233933D01*
X143165367Y-76450382D01*
X143167311Y-76455169D01*
X143294772Y-76663166D01*
X143454492Y-76847553D01*
X143642183Y-77003377D01*
X143852804Y-77126453D01*
X144080698Y-77213478D01*
X144085764Y-77214509D01*
X144085765Y-77214509D01*
X144314667Y-77261080D01*
X144314671Y-77261080D01*
X144319746Y-77262113D01*
X144324922Y-77262303D01*
X144324924Y-77262303D01*
X144558363Y-77270863D01*
X144558367Y-77270863D01*
X144563527Y-77271052D01*
X144568647Y-77270396D01*
X144568649Y-77270396D01*
X144645377Y-77260567D01*
X144805494Y-77240055D01*
X144810443Y-77238570D01*
X144810449Y-77238569D01*
X145034200Y-77171440D01*
X145034199Y-77171440D01*
X145039150Y-77169955D01*
X145258219Y-77062634D01*
X145262424Y-77059634D01*
X145262430Y-77059631D01*
X145452614Y-76923974D01*
X145452616Y-76923972D01*
X145456818Y-76920975D01*
X145629614Y-76748781D01*
X145771966Y-76550677D01*
X145880050Y-76331984D01*
X145912827Y-76224105D01*
X145949462Y-76103527D01*
X145949463Y-76103521D01*
X145950966Y-76098575D01*
X145982807Y-75856717D01*
X145984584Y-75784000D01*
X145964596Y-75540876D01*
X145905167Y-75304280D01*
X145816751Y-75100938D01*
X145809954Y-75085305D01*
X145809952Y-75085302D01*
X145807894Y-75080568D01*
X145675390Y-74875748D01*
X145511212Y-74695319D01*
X145507161Y-74692120D01*
X145507157Y-74692116D01*
X145323825Y-74547329D01*
X145323821Y-74547327D01*
X145319770Y-74544127D01*
X145106205Y-74426233D01*
X145101336Y-74424509D01*
X145101332Y-74424507D01*
X144881127Y-74346528D01*
X144881123Y-74346527D01*
X144876252Y-74344802D01*
X144871159Y-74343895D01*
X144871156Y-74343894D01*
X144641177Y-74302928D01*
X144641171Y-74302927D01*
X144636088Y-74302022D01*
X144556380Y-74301048D01*
X144397332Y-74299105D01*
X144397330Y-74299105D01*
X144392162Y-74299042D01*
X144151024Y-74335941D01*
X143919150Y-74411729D01*
X143702769Y-74524370D01*
X143698636Y-74527473D01*
X143698633Y-74527475D01*
X143548645Y-74640090D01*
X143507690Y-74670840D01*
X143339153Y-74847204D01*
X143336239Y-74851476D01*
X143336238Y-74851477D01*
X143316719Y-74880091D01*
X143201684Y-75048726D01*
X143098974Y-75269995D01*
X143033783Y-75505067D01*
X143007860Y-75747631D01*
X135189689Y-75747631D01*
X135189689Y-72247631D01*
X135507860Y-72247631D01*
X135508157Y-72252783D01*
X135508157Y-72252787D01*
X135514773Y-72367523D01*
X135521903Y-72491171D01*
X135523040Y-72496217D01*
X135523041Y-72496223D01*
X135545782Y-72597132D01*
X135575533Y-72729147D01*
X135577475Y-72733929D01*
X135577476Y-72733933D01*
X135659037Y-72934793D01*
X135667311Y-72955169D01*
X135794772Y-73163166D01*
X135954492Y-73347553D01*
X136142183Y-73503377D01*
X136352804Y-73626453D01*
X136580698Y-73713478D01*
X136585764Y-73714509D01*
X136585765Y-73714509D01*
X136814667Y-73761080D01*
X136814671Y-73761080D01*
X136819746Y-73762113D01*
X136824922Y-73762303D01*
X136824924Y-73762303D01*
X137058363Y-73770863D01*
X137058367Y-73770863D01*
X137063527Y-73771052D01*
X137068647Y-73770396D01*
X137068649Y-73770396D01*
X137145377Y-73760567D01*
X137305494Y-73740055D01*
X137310443Y-73738570D01*
X137310449Y-73738569D01*
X137534200Y-73671440D01*
X137534199Y-73671440D01*
X137539150Y-73669955D01*
X137758219Y-73562634D01*
X137762424Y-73559634D01*
X137762430Y-73559631D01*
X137952614Y-73423974D01*
X137952616Y-73423972D01*
X137956818Y-73420975D01*
X138129614Y-73248781D01*
X138271966Y-73050677D01*
X138300562Y-72992818D01*
X138377756Y-72836626D01*
X138377757Y-72836624D01*
X138380050Y-72831984D01*
X138396802Y-72776849D01*
X138449462Y-72603527D01*
X138449463Y-72603521D01*
X138450966Y-72598575D01*
X138478754Y-72387503D01*
X138482370Y-72360038D01*
X138482370Y-72360034D01*
X138482807Y-72356717D01*
X138484584Y-72284000D01*
X138464596Y-72040876D01*
X138405167Y-71804280D01*
X138307894Y-71580568D01*
X138175390Y-71375748D01*
X138069027Y-71258856D01*
X138014690Y-71199141D01*
X138014688Y-71199140D01*
X138011212Y-71195319D01*
X138007161Y-71192120D01*
X138007157Y-71192116D01*
X137823825Y-71047329D01*
X137823821Y-71047327D01*
X137819770Y-71044127D01*
X137801786Y-71034199D01*
X137752837Y-71007178D01*
X137606205Y-70926233D01*
X137601336Y-70924509D01*
X137601332Y-70924507D01*
X137381127Y-70846528D01*
X137381123Y-70846527D01*
X137376252Y-70844802D01*
X137371159Y-70843895D01*
X137371156Y-70843894D01*
X137141177Y-70802928D01*
X137141171Y-70802927D01*
X137136088Y-70802022D01*
X137056380Y-70801048D01*
X136897332Y-70799105D01*
X136897330Y-70799105D01*
X136892162Y-70799042D01*
X136651024Y-70835941D01*
X136419150Y-70911729D01*
X136202769Y-71024370D01*
X136198636Y-71027473D01*
X136198633Y-71027475D01*
X136011825Y-71167735D01*
X136007690Y-71170840D01*
X135839153Y-71347204D01*
X135836239Y-71351476D01*
X135836238Y-71351477D01*
X135816719Y-71380091D01*
X135701684Y-71548726D01*
X135684705Y-71585305D01*
X135616936Y-71731300D01*
X135598974Y-71769995D01*
X135533783Y-72005067D01*
X135507860Y-72247631D01*
X135189689Y-72247631D01*
X135189689Y-68747631D01*
X143007860Y-68747631D01*
X143008157Y-68752783D01*
X143008157Y-68752787D01*
X143019558Y-68950499D01*
X143021903Y-68991171D01*
X143023040Y-68996217D01*
X143023041Y-68996223D01*
X143046107Y-69098575D01*
X143075533Y-69229147D01*
X143077475Y-69233929D01*
X143077476Y-69233933D01*
X143158710Y-69433987D01*
X143167311Y-69455169D01*
X143294772Y-69663166D01*
X143454492Y-69847553D01*
X143642183Y-70003377D01*
X143852804Y-70126453D01*
X144080698Y-70213478D01*
X144085764Y-70214509D01*
X144085765Y-70214509D01*
X144314667Y-70261080D01*
X144314671Y-70261080D01*
X144319746Y-70262113D01*
X144324922Y-70262303D01*
X144324924Y-70262303D01*
X144558363Y-70270863D01*
X144558367Y-70270863D01*
X144563527Y-70271052D01*
X144568647Y-70270396D01*
X144568649Y-70270396D01*
X144696637Y-70254000D01*
X144805494Y-70240055D01*
X144810443Y-70238570D01*
X144810449Y-70238569D01*
X145034200Y-70171440D01*
X145034199Y-70171440D01*
X145039150Y-70169955D01*
X145258219Y-70062634D01*
X145262424Y-70059634D01*
X145262430Y-70059631D01*
X145452614Y-69923974D01*
X145452616Y-69923972D01*
X145456818Y-69920975D01*
X145629614Y-69748781D01*
X145771966Y-69550677D01*
X145829638Y-69433987D01*
X145877756Y-69336626D01*
X145877757Y-69336624D01*
X145880050Y-69331984D01*
X145932653Y-69158850D01*
X145949462Y-69103527D01*
X145949463Y-69103521D01*
X145950966Y-69098575D01*
X145982807Y-68856717D01*
X145982889Y-68853365D01*
X145984502Y-68787365D01*
X145984502Y-68787361D01*
X145984584Y-68784000D01*
X145964596Y-68540876D01*
X145905167Y-68304280D01*
X145807894Y-68080568D01*
X145675390Y-67875748D01*
X145557329Y-67746000D01*
X145514690Y-67699141D01*
X145514688Y-67699140D01*
X145511212Y-67695319D01*
X145507161Y-67692120D01*
X145507157Y-67692116D01*
X145323825Y-67547329D01*
X145323821Y-67547327D01*
X145319770Y-67544127D01*
X145106205Y-67426233D01*
X145101336Y-67424509D01*
X145101332Y-67424507D01*
X144881127Y-67346528D01*
X144881123Y-67346527D01*
X144876252Y-67344802D01*
X144871159Y-67343895D01*
X144871156Y-67343894D01*
X144641177Y-67302928D01*
X144641171Y-67302927D01*
X144636088Y-67302022D01*
X144556380Y-67301048D01*
X144397332Y-67299105D01*
X144397330Y-67299105D01*
X144392162Y-67299042D01*
X144151024Y-67335941D01*
X143919150Y-67411729D01*
X143702769Y-67524370D01*
X143698636Y-67527473D01*
X143698633Y-67527475D01*
X143511825Y-67667735D01*
X143507690Y-67670840D01*
X143339153Y-67847204D01*
X143336239Y-67851476D01*
X143336238Y-67851477D01*
X143316719Y-67880091D01*
X143201684Y-68048726D01*
X143184705Y-68085305D01*
X143140048Y-68181510D01*
X143098974Y-68269995D01*
X143033783Y-68505067D01*
X143007860Y-68747631D01*
X135189689Y-68747631D01*
X135189689Y-65336094D01*
X135209691Y-65267973D01*
X135226594Y-65246999D01*
X136684188Y-63789405D01*
X136746500Y-63755379D01*
X136773283Y-63752500D01*
X145722800Y-63752500D01*
X145790921Y-63772502D01*
X145810147Y-63788843D01*
X145810420Y-63788540D01*
X145815332Y-63792963D01*
X145819747Y-63797866D01*
X145826027Y-63802429D01*
X145906177Y-63860661D01*
X145974248Y-63910118D01*
X145980276Y-63912802D01*
X145980278Y-63912803D01*
X146030617Y-63935215D01*
X146148712Y-63987794D01*
X146236716Y-64006500D01*
X146329056Y-64026128D01*
X146329061Y-64026128D01*
X146335513Y-64027500D01*
X146526487Y-64027500D01*
X146532939Y-64026128D01*
X146532944Y-64026128D01*
X146625284Y-64006500D01*
X146713288Y-63987794D01*
X146831383Y-63935215D01*
X146881722Y-63912803D01*
X146881724Y-63912802D01*
X146887752Y-63910118D01*
X147042253Y-63797866D01*
X147065091Y-63772502D01*
X147165621Y-63660852D01*
X147165622Y-63660851D01*
X147170040Y-63655944D01*
X147265527Y-63490556D01*
X147324542Y-63308928D01*
X147344504Y-63119000D01*
X147329405Y-62975341D01*
X147325232Y-62935635D01*
X147325232Y-62935633D01*
X147324542Y-62929072D01*
X147265527Y-62747444D01*
X147261228Y-62739997D01*
X147223476Y-62674609D01*
X147170040Y-62582056D01*
X147153881Y-62564109D01*
X147046675Y-62445045D01*
X147046674Y-62445044D01*
X147042253Y-62440134D01*
X146887752Y-62327882D01*
X146881724Y-62325198D01*
X146881722Y-62325197D01*
X146719319Y-62252891D01*
X146719318Y-62252891D01*
X146713288Y-62250206D01*
X146619887Y-62230353D01*
X146532944Y-62211872D01*
X146532939Y-62211872D01*
X146526487Y-62210500D01*
X146335513Y-62210500D01*
X146329061Y-62211872D01*
X146329056Y-62211872D01*
X146242113Y-62230353D01*
X146148712Y-62250206D01*
X146142682Y-62252891D01*
X146142681Y-62252891D01*
X145980278Y-62325197D01*
X145980276Y-62325198D01*
X145974248Y-62327882D01*
X145819747Y-62440134D01*
X145815332Y-62445037D01*
X145810420Y-62449460D01*
X145809295Y-62448211D01*
X145755986Y-62481051D01*
X145722800Y-62485500D01*
X136537456Y-62485500D01*
X136526273Y-62484973D01*
X136518780Y-62483298D01*
X136510854Y-62483547D01*
X136510853Y-62483547D01*
X136450703Y-62485438D01*
X136446744Y-62485500D01*
X136418833Y-62485500D01*
X136414899Y-62485997D01*
X136414898Y-62485997D01*
X136414833Y-62486005D01*
X136402996Y-62486938D01*
X136371179Y-62487938D01*
X136366718Y-62488078D01*
X136358799Y-62488327D01*
X136341143Y-62493456D01*
X136339347Y-62493978D01*
X136319995Y-62497986D01*
X136312924Y-62498880D01*
X136299892Y-62500526D01*
X136292523Y-62503443D01*
X136292521Y-62503444D01*
X136258786Y-62516800D01*
X136247558Y-62520645D01*
X136205096Y-62532982D01*
X136198274Y-62537016D01*
X136198268Y-62537019D01*
X136187657Y-62543294D01*
X136169907Y-62551990D01*
X136158445Y-62556528D01*
X136158440Y-62556531D01*
X136151072Y-62559448D01*
X136133659Y-62572099D01*
X136115314Y-62585427D01*
X136105396Y-62591943D01*
X136086708Y-62602995D01*
X136067326Y-62614458D01*
X136053002Y-62628782D01*
X136037970Y-62641621D01*
X136021582Y-62653528D01*
X135993401Y-62687593D01*
X135985411Y-62696373D01*
X134163936Y-64517848D01*
X134155650Y-64525388D01*
X134149171Y-64529500D01*
X134143746Y-64535277D01*
X134102546Y-64579151D01*
X134099791Y-64581993D01*
X134080054Y-64601730D01*
X134077574Y-64604927D01*
X134069871Y-64613947D01*
X134039603Y-64646179D01*
X134035784Y-64653125D01*
X134035782Y-64653128D01*
X134029841Y-64663934D01*
X134018990Y-64680453D01*
X134006575Y-64696459D01*
X134003430Y-64703728D01*
X134003427Y-64703732D01*
X133989015Y-64737037D01*
X133983798Y-64747687D01*
X133962494Y-64786440D01*
X133960523Y-64794115D01*
X133960523Y-64794116D01*
X133957456Y-64806062D01*
X133951052Y-64824766D01*
X133943008Y-64843355D01*
X133941769Y-64851178D01*
X133941766Y-64851188D01*
X133936090Y-64887024D01*
X133933684Y-64898644D01*
X133924661Y-64933789D01*
X133922689Y-64941470D01*
X133922689Y-64961724D01*
X133921138Y-64981434D01*
X133917969Y-65001443D01*
X133918715Y-65009335D01*
X133922130Y-65045461D01*
X133922689Y-65057319D01*
X133922689Y-95990422D01*
X133922162Y-96001605D01*
X133920487Y-96009098D01*
X133920736Y-96017024D01*
X133920736Y-96017025D01*
X133922627Y-96077175D01*
X133922689Y-96081134D01*
X133922689Y-96109045D01*
X133923186Y-96112979D01*
X133923186Y-96112980D01*
X133923194Y-96113045D01*
X133924127Y-96124882D01*
X133925516Y-96169078D01*
X133931167Y-96188528D01*
X133935176Y-96207889D01*
X133937715Y-96227986D01*
X133940634Y-96235357D01*
X133940634Y-96235359D01*
X133953993Y-96269101D01*
X133957838Y-96280331D01*
X133970171Y-96322782D01*
X133974204Y-96329601D01*
X133974206Y-96329606D01*
X133980482Y-96340217D01*
X133989177Y-96357965D01*
X133996637Y-96376806D01*
X134001299Y-96383222D01*
X134001299Y-96383223D01*
X134022625Y-96412576D01*
X134029141Y-96422496D01*
X134051647Y-96460551D01*
X134065968Y-96474872D01*
X134078808Y-96489905D01*
X134090717Y-96506296D01*
X134096823Y-96511347D01*
X134124794Y-96534487D01*
X134133573Y-96542477D01*
X136325595Y-98734500D01*
X136359621Y-98796812D01*
X136362500Y-98823595D01*
X136362500Y-99475649D01*
X136342498Y-99543770D01*
X136288842Y-99590263D01*
X136268720Y-99597175D01*
X136263384Y-99597755D01*
X136126995Y-99648885D01*
X136010439Y-99736239D01*
X135923085Y-99852795D01*
X135871955Y-99989184D01*
X135865200Y-100051366D01*
X135865200Y-102408234D01*
X135871955Y-102470416D01*
X135923085Y-102606805D01*
X136010439Y-102723361D01*
X136126995Y-102810715D01*
X136263384Y-102861845D01*
X136325566Y-102868600D01*
X137178706Y-102868600D01*
X137246827Y-102888602D01*
X137267801Y-102905505D01*
X145763548Y-111401253D01*
X145771088Y-111409539D01*
X145775200Y-111416018D01*
X145780977Y-111421443D01*
X145824851Y-111462643D01*
X145827693Y-111465398D01*
X145847430Y-111485135D01*
X145850627Y-111487615D01*
X145859647Y-111495318D01*
X145891879Y-111525586D01*
X145898825Y-111529405D01*
X145898828Y-111529407D01*
X145909634Y-111535348D01*
X145926153Y-111546199D01*
X145942159Y-111558614D01*
X145949428Y-111561759D01*
X145949432Y-111561762D01*
X145982737Y-111576174D01*
X145993387Y-111581391D01*
X146032140Y-111602695D01*
X146039815Y-111604666D01*
X146039816Y-111604666D01*
X146051762Y-111607733D01*
X146070467Y-111614137D01*
X146089055Y-111622181D01*
X146096878Y-111623420D01*
X146096888Y-111623423D01*
X146132724Y-111629099D01*
X146144344Y-111631505D01*
X146179489Y-111640528D01*
X146187170Y-111642500D01*
X146207424Y-111642500D01*
X146227134Y-111644051D01*
X146247143Y-111647220D01*
X146255035Y-111646474D01*
X146291161Y-111643059D01*
X146303019Y-111642500D01*
X175140140Y-111642500D01*
X175208261Y-111662502D01*
X175240819Y-111692739D01*
X175373279Y-111868766D01*
X175393454Y-111908890D01*
X177138399Y-117827205D01*
X177698738Y-119727702D01*
X177698818Y-119798698D01*
X177660501Y-119858467D01*
X177595953Y-119888032D01*
X177578886Y-119889331D01*
X130047223Y-120267994D01*
X129978945Y-120248535D01*
X129932026Y-120195252D01*
X129920221Y-120142776D01*
X129897482Y-116459000D01*
X131671547Y-116459000D01*
X131671817Y-116463119D01*
X131681827Y-116615835D01*
X131691339Y-116760966D01*
X131692143Y-116765006D01*
X131692143Y-116765009D01*
X131748872Y-117050203D01*
X131750376Y-117057766D01*
X131751701Y-117061670D01*
X131751702Y-117061673D01*
X131846322Y-117340414D01*
X131847648Y-117344320D01*
X131981491Y-117615726D01*
X132149614Y-117867341D01*
X132152328Y-117870435D01*
X132152332Y-117870441D01*
X132346433Y-118091769D01*
X132349142Y-118094858D01*
X132352231Y-118097567D01*
X132573559Y-118291668D01*
X132573565Y-118291672D01*
X132576659Y-118294386D01*
X132580085Y-118296675D01*
X132580090Y-118296679D01*
X132768371Y-118422484D01*
X132828273Y-118462509D01*
X132831972Y-118464333D01*
X132831977Y-118464336D01*
X132971308Y-118533046D01*
X133099680Y-118596352D01*
X133103585Y-118597677D01*
X133103586Y-118597678D01*
X133382327Y-118692298D01*
X133382330Y-118692299D01*
X133386234Y-118693624D01*
X133390273Y-118694427D01*
X133390279Y-118694429D01*
X133678991Y-118751857D01*
X133678994Y-118751857D01*
X133683034Y-118752661D01*
X133687145Y-118752930D01*
X133687149Y-118752931D01*
X133980881Y-118772183D01*
X133985000Y-118772453D01*
X133989119Y-118772183D01*
X134282851Y-118752931D01*
X134282855Y-118752930D01*
X134286966Y-118752661D01*
X134291006Y-118751857D01*
X134291009Y-118751857D01*
X134579721Y-118694429D01*
X134579727Y-118694427D01*
X134583766Y-118693624D01*
X134587670Y-118692299D01*
X134587673Y-118692298D01*
X134866414Y-118597678D01*
X134866415Y-118597677D01*
X134870320Y-118596352D01*
X134998692Y-118533046D01*
X135138023Y-118464336D01*
X135138028Y-118464333D01*
X135141727Y-118462509D01*
X135201629Y-118422484D01*
X135389910Y-118296679D01*
X135389915Y-118296675D01*
X135393341Y-118294386D01*
X135396435Y-118291672D01*
X135396441Y-118291668D01*
X135617769Y-118097567D01*
X135620858Y-118094858D01*
X135623567Y-118091769D01*
X135817668Y-117870441D01*
X135817672Y-117870435D01*
X135820386Y-117867341D01*
X135988509Y-117615726D01*
X136122352Y-117344320D01*
X136123678Y-117340414D01*
X136218298Y-117061673D01*
X136218299Y-117061670D01*
X136219624Y-117057766D01*
X136221129Y-117050203D01*
X136232781Y-116991624D01*
X173648621Y-116991624D01*
X173652988Y-116997774D01*
X173852563Y-117114397D01*
X173861846Y-117118844D01*
X174080007Y-117202152D01*
X174089905Y-117205028D01*
X174318744Y-117251585D01*
X174328972Y-117252804D01*
X174562340Y-117261362D01*
X174572626Y-117260895D01*
X174804262Y-117231222D01*
X174814340Y-117229080D01*
X175038014Y-117161974D01*
X175047612Y-117158212D01*
X175257324Y-117055476D01*
X175266169Y-117050203D01*
X175338869Y-116998347D01*
X175347270Y-116987646D01*
X175340283Y-116974493D01*
X174512812Y-116147022D01*
X174498868Y-116139408D01*
X174497035Y-116139539D01*
X174490420Y-116143790D01*
X173655881Y-116978329D01*
X173648621Y-116991624D01*
X136232781Y-116991624D01*
X136277857Y-116765009D01*
X136277857Y-116765006D01*
X136278661Y-116760966D01*
X136288174Y-116615835D01*
X136298183Y-116463119D01*
X136298453Y-116459000D01*
X136289830Y-116327442D01*
X136278931Y-116161149D01*
X136278930Y-116161145D01*
X136278661Y-116157034D01*
X136277857Y-116152991D01*
X136220429Y-115864279D01*
X136220427Y-115864273D01*
X136219624Y-115860234D01*
X136191698Y-115777965D01*
X136180100Y-115743799D01*
X173012658Y-115743799D01*
X173026102Y-115976942D01*
X173027535Y-115987144D01*
X173078873Y-116214949D01*
X173081956Y-116224789D01*
X173169814Y-116441156D01*
X173174457Y-116450347D01*
X173275555Y-116615325D01*
X173286011Y-116624785D01*
X173294789Y-116621001D01*
X174127978Y-115787812D01*
X174134356Y-115776132D01*
X174864408Y-115776132D01*
X174864539Y-115777965D01*
X174868790Y-115784580D01*
X175700045Y-116615835D01*
X175712055Y-116622394D01*
X175723794Y-116613426D01*
X175772518Y-116545619D01*
X175777829Y-116536780D01*
X175881291Y-116327442D01*
X175885089Y-116317849D01*
X175952974Y-116094413D01*
X175955151Y-116084343D01*
X175985869Y-115851015D01*
X175986388Y-115844340D01*
X175988001Y-115778364D01*
X175987807Y-115771647D01*
X175968525Y-115537108D01*
X175966842Y-115526946D01*
X175909952Y-115300453D01*
X175906634Y-115290706D01*
X175813513Y-115076542D01*
X175808646Y-115067467D01*
X175723465Y-114935796D01*
X175712779Y-114926593D01*
X175703214Y-114930996D01*
X174872022Y-115762188D01*
X174864408Y-115776132D01*
X174134356Y-115776132D01*
X174135592Y-115773868D01*
X174135461Y-115772035D01*
X174131210Y-115765420D01*
X173299892Y-114934102D01*
X173288356Y-114927802D01*
X173276073Y-114937426D01*
X173209036Y-115035698D01*
X173203943Y-115044662D01*
X173105619Y-115256483D01*
X173102062Y-115266151D01*
X173039657Y-115491178D01*
X173037726Y-115501298D01*
X173012910Y-115733510D01*
X173012658Y-115743799D01*
X136180100Y-115743799D01*
X136123678Y-115577586D01*
X136123677Y-115577585D01*
X136122352Y-115573680D01*
X135988509Y-115302274D01*
X135820386Y-115050659D01*
X135817672Y-115047565D01*
X135817668Y-115047559D01*
X135623567Y-114826231D01*
X135620858Y-114823142D01*
X135617769Y-114820433D01*
X135396441Y-114626332D01*
X135396435Y-114626328D01*
X135393341Y-114623614D01*
X135389911Y-114621322D01*
X135389910Y-114621321D01*
X135301342Y-114562142D01*
X173651938Y-114562142D01*
X173658684Y-114574474D01*
X174487188Y-115402978D01*
X174501132Y-115410592D01*
X174502965Y-115410461D01*
X174509580Y-115406210D01*
X175342391Y-114573399D01*
X175349412Y-114560543D01*
X175341639Y-114549875D01*
X175327548Y-114538746D01*
X175318970Y-114533047D01*
X175114526Y-114420189D01*
X175105126Y-114415964D01*
X174884993Y-114338011D01*
X174875036Y-114335381D01*
X174645129Y-114294427D01*
X174634878Y-114293458D01*
X174401367Y-114290605D01*
X174391083Y-114291325D01*
X174160253Y-114326647D01*
X174150225Y-114329036D01*
X173928263Y-114401584D01*
X173918753Y-114405581D01*
X173711624Y-114513405D01*
X173702904Y-114518897D01*
X173660391Y-114550817D01*
X173651938Y-114562142D01*
X135301342Y-114562142D01*
X135145160Y-114457785D01*
X135141727Y-114455491D01*
X135138028Y-114453667D01*
X135138023Y-114453664D01*
X134998692Y-114384954D01*
X134870320Y-114321648D01*
X134787275Y-114293458D01*
X134587673Y-114225702D01*
X134587670Y-114225701D01*
X134583766Y-114224376D01*
X134579727Y-114223573D01*
X134579721Y-114223571D01*
X134291009Y-114166143D01*
X134291006Y-114166143D01*
X134286966Y-114165339D01*
X134282855Y-114165070D01*
X134282851Y-114165069D01*
X133989119Y-114145817D01*
X133985000Y-114145547D01*
X133980881Y-114145817D01*
X133687149Y-114165069D01*
X133687145Y-114165070D01*
X133683034Y-114165339D01*
X133678994Y-114166143D01*
X133678991Y-114166143D01*
X133390279Y-114223571D01*
X133390273Y-114223573D01*
X133386234Y-114224376D01*
X133382330Y-114225701D01*
X133382327Y-114225702D01*
X133182725Y-114293458D01*
X133099680Y-114321648D01*
X132971442Y-114384888D01*
X132831978Y-114453664D01*
X132831973Y-114453667D01*
X132828274Y-114455491D01*
X132576659Y-114623614D01*
X132573565Y-114626328D01*
X132573559Y-114626332D01*
X132352231Y-114820433D01*
X132349142Y-114823142D01*
X132346433Y-114826231D01*
X132152332Y-115047559D01*
X132152328Y-115047565D01*
X132149614Y-115050659D01*
X131981491Y-115302274D01*
X131847648Y-115573680D01*
X131846323Y-115577585D01*
X131846322Y-115577586D01*
X131778303Y-115777965D01*
X131750376Y-115860234D01*
X131749573Y-115864273D01*
X131749571Y-115864279D01*
X131692143Y-116152991D01*
X131691339Y-116157034D01*
X131691070Y-116161145D01*
X131691069Y-116161149D01*
X131680170Y-116327442D01*
X131671547Y-116459000D01*
X129897482Y-116459000D01*
X129844566Y-107886634D01*
X130766600Y-107886634D01*
X130773355Y-107948816D01*
X130824485Y-108085205D01*
X130911839Y-108201761D01*
X131028395Y-108289115D01*
X131164784Y-108340245D01*
X131226966Y-108347000D01*
X135565034Y-108347000D01*
X135627216Y-108340245D01*
X135763605Y-108289115D01*
X135880161Y-108201761D01*
X135967515Y-108085205D01*
X136018645Y-107948816D01*
X136025400Y-107886634D01*
X136025400Y-105732966D01*
X136018645Y-105670784D01*
X135967515Y-105534395D01*
X135880161Y-105417839D01*
X135763605Y-105330485D01*
X135627216Y-105279355D01*
X135565034Y-105272600D01*
X131226966Y-105272600D01*
X131164784Y-105279355D01*
X131028395Y-105330485D01*
X130911839Y-105417839D01*
X130824485Y-105534395D01*
X130773355Y-105670784D01*
X130766600Y-105732966D01*
X130766600Y-107886634D01*
X129844566Y-107886634D01*
X129558642Y-61567000D01*
X130274547Y-61567000D01*
X130294339Y-61868966D01*
X130295143Y-61873006D01*
X130295143Y-61873009D01*
X130327465Y-62035500D01*
X130353376Y-62165766D01*
X130354701Y-62169670D01*
X130354702Y-62169673D01*
X130408407Y-62327882D01*
X130450648Y-62452320D01*
X130499800Y-62551990D01*
X130568928Y-62692167D01*
X130584491Y-62723726D01*
X130752614Y-62975341D01*
X130755328Y-62978435D01*
X130755332Y-62978441D01*
X130949433Y-63199769D01*
X130952142Y-63202858D01*
X130955231Y-63205567D01*
X131176559Y-63399668D01*
X131176565Y-63399672D01*
X131179659Y-63402386D01*
X131183085Y-63404675D01*
X131183090Y-63404679D01*
X131311615Y-63490556D01*
X131431273Y-63570509D01*
X131434972Y-63572333D01*
X131434977Y-63572336D01*
X131574308Y-63641046D01*
X131702680Y-63704352D01*
X131706585Y-63705677D01*
X131706586Y-63705678D01*
X131985327Y-63800298D01*
X131985330Y-63800299D01*
X131989234Y-63801624D01*
X131993273Y-63802427D01*
X131993279Y-63802429D01*
X132281991Y-63859857D01*
X132281994Y-63859857D01*
X132286034Y-63860661D01*
X132290145Y-63860930D01*
X132290149Y-63860931D01*
X132583881Y-63880183D01*
X132588000Y-63880453D01*
X132592119Y-63880183D01*
X132885851Y-63860931D01*
X132885855Y-63860930D01*
X132889966Y-63860661D01*
X132894006Y-63859857D01*
X132894009Y-63859857D01*
X133182721Y-63802429D01*
X133182727Y-63802427D01*
X133186766Y-63801624D01*
X133190670Y-63800299D01*
X133190673Y-63800298D01*
X133469414Y-63705678D01*
X133469415Y-63705677D01*
X133473320Y-63704352D01*
X133601692Y-63641046D01*
X133741023Y-63572336D01*
X133741028Y-63572333D01*
X133744727Y-63570509D01*
X133864385Y-63490556D01*
X133992910Y-63404679D01*
X133992915Y-63404675D01*
X133996341Y-63402386D01*
X133999435Y-63399672D01*
X133999441Y-63399668D01*
X134220769Y-63205567D01*
X134223858Y-63202858D01*
X134226567Y-63199769D01*
X134420668Y-62978441D01*
X134420672Y-62978435D01*
X134423386Y-62975341D01*
X134591509Y-62723726D01*
X134607073Y-62692167D01*
X134676200Y-62551990D01*
X134725352Y-62452320D01*
X134767593Y-62327882D01*
X134821298Y-62169673D01*
X134821299Y-62169670D01*
X134822624Y-62165766D01*
X134848536Y-62035500D01*
X134880857Y-61873009D01*
X134880857Y-61873006D01*
X134881661Y-61868966D01*
X134901114Y-61572169D01*
X156400501Y-61572169D01*
X156400871Y-61578990D01*
X156406395Y-61629852D01*
X156410021Y-61645104D01*
X156455176Y-61765554D01*
X156463714Y-61781149D01*
X156540215Y-61883224D01*
X156552776Y-61895785D01*
X156654851Y-61972286D01*
X156670446Y-61980824D01*
X156790894Y-62025978D01*
X156806149Y-62029605D01*
X156857014Y-62035131D01*
X156863828Y-62035500D01*
X157372985Y-62035500D01*
X157388224Y-62031025D01*
X157389429Y-62029635D01*
X157391100Y-62021952D01*
X157391100Y-62017384D01*
X157899100Y-62017384D01*
X157903575Y-62032623D01*
X157904965Y-62033828D01*
X157912648Y-62035499D01*
X158426369Y-62035499D01*
X158433190Y-62035129D01*
X158484052Y-62029605D01*
X158499304Y-62025979D01*
X158619754Y-61980824D01*
X158635349Y-61972286D01*
X158737424Y-61895785D01*
X158749985Y-61883224D01*
X158826486Y-61781149D01*
X158835024Y-61765554D01*
X158880178Y-61645106D01*
X158883805Y-61629851D01*
X158889331Y-61578986D01*
X158889700Y-61572172D01*
X158889700Y-61355115D01*
X158885225Y-61339876D01*
X158883835Y-61338671D01*
X158876152Y-61337000D01*
X157917215Y-61337000D01*
X157901976Y-61341475D01*
X157900771Y-61342865D01*
X157899100Y-61350548D01*
X157899100Y-62017384D01*
X157391100Y-62017384D01*
X157391100Y-61355115D01*
X157386625Y-61339876D01*
X157385235Y-61338671D01*
X157377552Y-61337000D01*
X156418616Y-61337000D01*
X156403377Y-61341475D01*
X156402172Y-61342865D01*
X156400501Y-61350548D01*
X156400501Y-61572169D01*
X134901114Y-61572169D01*
X134901453Y-61567000D01*
X134887266Y-61350548D01*
X134881931Y-61269149D01*
X134881930Y-61269145D01*
X134881661Y-61265034D01*
X134822624Y-60968234D01*
X134775361Y-60829000D01*
X134769212Y-60810885D01*
X156400500Y-60810885D01*
X156404975Y-60826124D01*
X156406365Y-60827329D01*
X156414048Y-60829000D01*
X157372985Y-60829000D01*
X157388224Y-60824525D01*
X157389429Y-60823135D01*
X157391100Y-60815452D01*
X157391100Y-60810885D01*
X157899100Y-60810885D01*
X157903575Y-60826124D01*
X157904965Y-60827329D01*
X157912648Y-60829000D01*
X158871584Y-60829000D01*
X158886823Y-60824525D01*
X158888028Y-60823135D01*
X158889699Y-60815452D01*
X158889699Y-60593831D01*
X158889329Y-60587010D01*
X158883805Y-60536148D01*
X158880179Y-60520896D01*
X158835024Y-60400446D01*
X158826486Y-60384851D01*
X158749985Y-60282776D01*
X158737424Y-60270215D01*
X158635349Y-60193714D01*
X158619754Y-60185176D01*
X158499306Y-60140022D01*
X158484051Y-60136395D01*
X158433186Y-60130869D01*
X158426372Y-60130500D01*
X157917215Y-60130500D01*
X157901976Y-60134975D01*
X157900771Y-60136365D01*
X157899100Y-60144048D01*
X157899100Y-60810885D01*
X157391100Y-60810885D01*
X157391100Y-60148616D01*
X157386625Y-60133377D01*
X157385235Y-60132172D01*
X157377552Y-60130501D01*
X156863831Y-60130501D01*
X156857010Y-60130871D01*
X156806148Y-60136395D01*
X156790896Y-60140021D01*
X156670446Y-60185176D01*
X156654851Y-60193714D01*
X156552776Y-60270215D01*
X156540215Y-60282776D01*
X156463714Y-60384851D01*
X156455176Y-60400446D01*
X156410022Y-60520894D01*
X156406395Y-60536149D01*
X156400869Y-60587014D01*
X156400500Y-60593828D01*
X156400500Y-60810885D01*
X134769212Y-60810885D01*
X134726678Y-60685586D01*
X134726677Y-60685585D01*
X134725352Y-60681680D01*
X134591509Y-60410274D01*
X134423386Y-60158659D01*
X134420672Y-60155565D01*
X134420668Y-60155559D01*
X134226567Y-59934231D01*
X134223858Y-59931142D01*
X134220769Y-59928433D01*
X133999441Y-59734332D01*
X133999435Y-59734328D01*
X133996341Y-59731614D01*
X133992911Y-59729322D01*
X133992910Y-59729321D01*
X133748160Y-59565785D01*
X133744727Y-59563491D01*
X133741028Y-59561667D01*
X133741023Y-59561664D01*
X133601692Y-59492954D01*
X133473320Y-59429648D01*
X133469414Y-59428322D01*
X133190673Y-59333702D01*
X133190670Y-59333701D01*
X133186766Y-59332376D01*
X133182727Y-59331573D01*
X133182721Y-59331571D01*
X132894009Y-59274143D01*
X132894006Y-59274143D01*
X132889966Y-59273339D01*
X132885855Y-59273070D01*
X132885851Y-59273069D01*
X132592119Y-59253817D01*
X132588000Y-59253547D01*
X132583881Y-59253817D01*
X132290149Y-59273069D01*
X132290145Y-59273070D01*
X132286034Y-59273339D01*
X132281994Y-59274143D01*
X132281991Y-59274143D01*
X131993279Y-59331571D01*
X131993273Y-59331573D01*
X131989234Y-59332376D01*
X131985330Y-59333701D01*
X131985327Y-59333702D01*
X131706586Y-59428322D01*
X131702680Y-59429648D01*
X131574442Y-59492888D01*
X131434978Y-59561664D01*
X131434973Y-59561667D01*
X131431274Y-59563491D01*
X131179659Y-59731614D01*
X131176565Y-59734328D01*
X131176559Y-59734332D01*
X130955231Y-59928433D01*
X130952142Y-59931142D01*
X130949433Y-59934231D01*
X130755332Y-60155559D01*
X130755328Y-60155565D01*
X130752614Y-60158659D01*
X130584491Y-60410274D01*
X130450648Y-60681680D01*
X130449323Y-60685585D01*
X130449322Y-60685586D01*
X130400640Y-60829000D01*
X130353376Y-60968234D01*
X130294339Y-61265034D01*
X130294070Y-61269145D01*
X130294069Y-61269149D01*
X130288734Y-61350548D01*
X130274547Y-61567000D01*
X129558642Y-61567000D01*
X129540783Y-58673778D01*
X129560365Y-58605535D01*
X129613732Y-58558712D01*
X129666781Y-58547000D01*
X139573000Y-58547000D01*
X139573303Y-58546996D01*
X139573338Y-58546996D01*
X149732943Y-58420001D01*
X149733000Y-58420000D01*
X152803253Y-58383009D01*
X152804771Y-58383000D01*
X160147267Y-58383000D01*
X160215388Y-58403002D01*
G37*
%TD.AperFunction*%
%TD*%
%TA.AperFunction,Conductor*%
%TO.N,GND*%
G36*
X218846556Y-59428577D02*
G01*
X218913034Y-59453497D01*
X218955488Y-59510402D01*
X218962137Y-59536728D01*
X219740777Y-65084536D01*
X219742000Y-65102049D01*
X219742000Y-118159194D01*
X219721998Y-118227315D01*
X219677191Y-118269338D01*
X217220800Y-119634000D01*
X213561289Y-121667062D01*
X213134955Y-121903914D01*
X213072878Y-121919767D01*
X177188732Y-121667061D01*
X177120756Y-121646581D01*
X177074642Y-121592599D01*
X177065779Y-121517845D01*
X177109438Y-121285000D01*
X177361972Y-119938150D01*
X177377514Y-119907624D01*
X177369570Y-119897626D01*
X177419000Y-119634000D01*
X177621767Y-119938150D01*
X177655587Y-119988880D01*
X177676123Y-120046234D01*
X177800000Y-121285000D01*
X211201000Y-121285000D01*
X211277638Y-116840000D01*
X212697547Y-116840000D01*
X212697817Y-116844119D01*
X212702265Y-116911975D01*
X212717339Y-117141966D01*
X212718143Y-117146006D01*
X212718143Y-117146009D01*
X212741226Y-117262052D01*
X212776376Y-117438766D01*
X212873648Y-117725320D01*
X213007491Y-117996726D01*
X213175614Y-118248341D01*
X213178328Y-118251435D01*
X213178332Y-118251441D01*
X213372433Y-118472769D01*
X213375142Y-118475858D01*
X213378231Y-118478567D01*
X213599559Y-118672668D01*
X213599565Y-118672672D01*
X213602659Y-118675386D01*
X213606085Y-118677675D01*
X213606090Y-118677679D01*
X213794371Y-118803484D01*
X213854273Y-118843509D01*
X213857972Y-118845333D01*
X213857977Y-118845336D01*
X213997308Y-118914046D01*
X214125680Y-118977352D01*
X214129585Y-118978677D01*
X214129586Y-118978678D01*
X214408327Y-119073298D01*
X214408330Y-119073299D01*
X214412234Y-119074624D01*
X214416273Y-119075427D01*
X214416279Y-119075429D01*
X214704991Y-119132857D01*
X214704994Y-119132857D01*
X214709034Y-119133661D01*
X214713145Y-119133930D01*
X214713149Y-119133931D01*
X215006881Y-119153183D01*
X215011000Y-119153453D01*
X215015119Y-119153183D01*
X215308851Y-119133931D01*
X215308855Y-119133930D01*
X215312966Y-119133661D01*
X215317006Y-119132857D01*
X215317009Y-119132857D01*
X215605721Y-119075429D01*
X215605727Y-119075427D01*
X215609766Y-119074624D01*
X215613670Y-119073299D01*
X215613673Y-119073298D01*
X215892414Y-118978678D01*
X215892415Y-118978677D01*
X215896320Y-118977352D01*
X216024692Y-118914046D01*
X216164023Y-118845336D01*
X216164028Y-118845333D01*
X216167727Y-118843509D01*
X216227629Y-118803484D01*
X216415910Y-118677679D01*
X216415915Y-118677675D01*
X216419341Y-118675386D01*
X216422435Y-118672672D01*
X216422441Y-118672668D01*
X216643769Y-118478567D01*
X216646858Y-118475858D01*
X216649567Y-118472769D01*
X216843668Y-118251441D01*
X216843672Y-118251435D01*
X216846386Y-118248341D01*
X217014509Y-117996726D01*
X217148352Y-117725320D01*
X217245624Y-117438766D01*
X217280775Y-117262052D01*
X217303857Y-117146009D01*
X217303857Y-117146006D01*
X217304661Y-117141966D01*
X217319736Y-116911975D01*
X217324183Y-116844119D01*
X217324453Y-116840000D01*
X217304661Y-116538034D01*
X217245624Y-116241234D01*
X217148352Y-115954680D01*
X217085112Y-115826442D01*
X217016336Y-115686978D01*
X217016333Y-115686973D01*
X217014509Y-115683274D01*
X216846386Y-115431659D01*
X216843672Y-115428565D01*
X216843668Y-115428559D01*
X216649567Y-115207231D01*
X216646858Y-115204142D01*
X216643769Y-115201433D01*
X216422441Y-115007332D01*
X216422435Y-115007328D01*
X216419341Y-115004614D01*
X216415911Y-115002322D01*
X216415910Y-115002321D01*
X216171160Y-114838785D01*
X216167727Y-114836491D01*
X216164028Y-114834667D01*
X216164023Y-114834664D01*
X215995242Y-114751431D01*
X215896320Y-114702648D01*
X215892414Y-114701322D01*
X215613673Y-114606702D01*
X215613670Y-114606701D01*
X215609766Y-114605376D01*
X215605727Y-114604573D01*
X215605721Y-114604571D01*
X215317009Y-114547143D01*
X215317006Y-114547143D01*
X215312966Y-114546339D01*
X215308855Y-114546070D01*
X215308851Y-114546069D01*
X215015119Y-114526817D01*
X215011000Y-114526547D01*
X215006881Y-114526817D01*
X214713149Y-114546069D01*
X214713145Y-114546070D01*
X214709034Y-114546339D01*
X214704994Y-114547143D01*
X214704991Y-114547143D01*
X214416279Y-114604571D01*
X214416273Y-114604573D01*
X214412234Y-114605376D01*
X214408330Y-114606701D01*
X214408327Y-114606702D01*
X214129586Y-114701322D01*
X214125680Y-114702648D01*
X214026758Y-114751431D01*
X213857978Y-114834664D01*
X213857973Y-114834667D01*
X213854274Y-114836491D01*
X213602659Y-115004614D01*
X213599565Y-115007328D01*
X213599559Y-115007332D01*
X213378231Y-115201433D01*
X213375142Y-115204142D01*
X213372433Y-115207231D01*
X213178332Y-115428559D01*
X213178328Y-115428565D01*
X213175614Y-115431659D01*
X213007491Y-115683274D01*
X213005667Y-115686973D01*
X213005664Y-115686978D01*
X212936888Y-115826442D01*
X212873648Y-115954680D01*
X212776376Y-116241234D01*
X212717339Y-116538034D01*
X212697547Y-116840000D01*
X211277638Y-116840000D01*
X211326280Y-114018757D01*
X211347453Y-113950991D01*
X211401902Y-113905430D01*
X211425491Y-113897806D01*
X217170000Y-112649000D01*
X219202000Y-111633000D01*
X219075000Y-67564000D01*
X219057471Y-67556638D01*
X219057470Y-67556637D01*
X212782520Y-64921158D01*
X212727459Y-64876338D01*
X212709343Y-64836609D01*
X212576217Y-64323124D01*
X212133889Y-62617000D01*
X213078547Y-62617000D01*
X213098339Y-62918966D01*
X213157376Y-63215766D01*
X213254648Y-63502320D01*
X213388491Y-63773726D01*
X213556614Y-64025341D01*
X213559328Y-64028435D01*
X213559332Y-64028441D01*
X213753433Y-64249769D01*
X213756142Y-64252858D01*
X213759231Y-64255567D01*
X213980559Y-64449668D01*
X213980565Y-64449672D01*
X213983659Y-64452386D01*
X213987085Y-64454675D01*
X213987090Y-64454679D01*
X214175371Y-64580484D01*
X214235273Y-64620509D01*
X214238972Y-64622333D01*
X214238977Y-64622336D01*
X214378308Y-64691046D01*
X214506680Y-64754352D01*
X214510585Y-64755677D01*
X214510586Y-64755678D01*
X214789327Y-64850298D01*
X214789330Y-64850299D01*
X214793234Y-64851624D01*
X214797273Y-64852427D01*
X214797279Y-64852429D01*
X215085991Y-64909857D01*
X215085994Y-64909857D01*
X215090034Y-64910661D01*
X215094145Y-64910930D01*
X215094149Y-64910931D01*
X215387881Y-64930183D01*
X215392000Y-64930453D01*
X215396119Y-64930183D01*
X215689851Y-64910931D01*
X215689855Y-64910930D01*
X215693966Y-64910661D01*
X215698006Y-64909857D01*
X215698009Y-64909857D01*
X215986721Y-64852429D01*
X215986727Y-64852427D01*
X215990766Y-64851624D01*
X215994670Y-64850299D01*
X215994673Y-64850298D01*
X216273414Y-64755678D01*
X216273415Y-64755677D01*
X216277320Y-64754352D01*
X216405692Y-64691046D01*
X216545023Y-64622336D01*
X216545028Y-64622333D01*
X216548727Y-64620509D01*
X216608629Y-64580484D01*
X216796910Y-64454679D01*
X216796915Y-64454675D01*
X216800341Y-64452386D01*
X216803435Y-64449672D01*
X216803441Y-64449668D01*
X217024769Y-64255567D01*
X217027858Y-64252858D01*
X217030567Y-64249769D01*
X217224668Y-64028441D01*
X217224672Y-64028435D01*
X217227386Y-64025341D01*
X217395509Y-63773726D01*
X217529352Y-63502320D01*
X217626624Y-63215766D01*
X217685661Y-62918966D01*
X217705453Y-62617000D01*
X217685661Y-62315034D01*
X217626624Y-62018234D01*
X217529352Y-61731680D01*
X217395509Y-61460274D01*
X217227386Y-61208659D01*
X217224672Y-61205565D01*
X217224668Y-61205559D01*
X217030567Y-60984231D01*
X217027858Y-60981142D01*
X217024769Y-60978433D01*
X216803441Y-60784332D01*
X216803435Y-60784328D01*
X216800341Y-60781614D01*
X216796911Y-60779322D01*
X216796910Y-60779321D01*
X216552160Y-60615785D01*
X216548727Y-60613491D01*
X216545028Y-60611667D01*
X216545023Y-60611664D01*
X216405692Y-60542954D01*
X216277320Y-60479648D01*
X216273414Y-60478322D01*
X215994673Y-60383702D01*
X215994670Y-60383701D01*
X215990766Y-60382376D01*
X215986727Y-60381573D01*
X215986721Y-60381571D01*
X215698009Y-60324143D01*
X215698006Y-60324143D01*
X215693966Y-60323339D01*
X215689855Y-60323070D01*
X215689851Y-60323069D01*
X215396119Y-60303817D01*
X215392000Y-60303547D01*
X215387881Y-60303817D01*
X215094149Y-60323069D01*
X215094145Y-60323070D01*
X215090034Y-60323339D01*
X215085994Y-60324143D01*
X215085991Y-60324143D01*
X214797279Y-60381571D01*
X214797273Y-60381573D01*
X214793234Y-60382376D01*
X214789330Y-60383701D01*
X214789327Y-60383702D01*
X214510586Y-60478322D01*
X214506680Y-60479648D01*
X214378442Y-60542888D01*
X214238978Y-60611664D01*
X214238973Y-60611667D01*
X214235274Y-60613491D01*
X213983659Y-60781614D01*
X213980565Y-60784328D01*
X213980559Y-60784332D01*
X213759231Y-60978433D01*
X213756142Y-60981142D01*
X213753433Y-60984231D01*
X213559332Y-61205559D01*
X213559328Y-61205565D01*
X213556614Y-61208659D01*
X213388491Y-61460274D01*
X213254648Y-61731680D01*
X213157376Y-62018234D01*
X213098339Y-62315034D01*
X213078547Y-62617000D01*
X212133889Y-62617000D01*
X211851705Y-61528576D01*
X211853972Y-61457617D01*
X211874778Y-61418881D01*
X212009057Y-61248795D01*
X212755092Y-60303817D01*
X213699579Y-59107467D01*
X213757489Y-59066394D01*
X213807668Y-59059878D01*
X218846556Y-59428577D01*
G37*
%TD.AperFunction*%
%TD*%
M02*
