M48
; DRILL file {KiCad (6.0.2)} date Thu Jul 14 16:33:31 2022
; FORMAT={-:-/ absolute / metric / decimal}
; #@! TF.CreationDate,2022-07-14T16:33:31+09:00
; #@! TF.GenerationSoftware,Kicad,Pcbnew,(6.0.2)
; #@! TF.FileFunction,Plated,1,2,PTH
FMAT,2
METRIC
; #@! TA.AperFunction,Plated,PTH,ViaDrill
T1C0.400
; #@! TA.AperFunction,Plated,PTH,ComponentDrill
T2C1.016
; #@! TA.AperFunction,Plated,PTH,ComponentDrill
T3C1.020
; #@! TA.AperFunction,Plated,PTH,ComponentDrill
T4C1.200
; #@! TA.AperFunction,Plated,PTH,ComponentDrill
T5C1.300
; #@! TA.AperFunction,Plated,PTH,ComponentDrill
T6C1.397
; #@! TA.AperFunction,Plated,PTH,ViaDrill
T7C3.500
%
G90
G05
T1
X138.996Y-98.509
X140.996Y-98.509
X142.996Y-98.509
X146.431Y-63.119
X146.996Y-90.259
X148.746Y-98.509
X150.431Y-65.596
X150.996Y-85.259
X169.896Y-108.409
X170.15Y-115.775
T2
X175.5Y-69.0
X177.25Y-81.275
X186.5Y-68.755
X197.25Y-111.745
T3
X172.0Y-69.0
X173.75Y-81.275
X183.0Y-68.755
X200.75Y-111.745
T4
X193.75Y-78.35
X193.75Y-103.75
X205.5Y-78.55
X205.5Y-103.95
T5
X136.996Y-72.284
X136.996Y-92.284
X144.496Y-68.784
X144.496Y-75.784
X144.496Y-92.284
X174.5Y-95.775
X174.5Y-115.775
X182.0Y-92.275
X182.0Y-99.275
X182.0Y-115.775
T6
X150.942Y-74.271
X150.942Y-89.511
X158.562Y-71.731
X158.562Y-79.351
X158.562Y-89.511
T7
X132.588Y-61.567
X133.985Y-116.459
X215.011Y-116.84
X215.392Y-62.617
T0
M30
