%TF.GenerationSoftware,KiCad,Pcbnew,(6.0.2)*%
%TF.CreationDate,2022-07-20T21:02:28+09:00*%
%TF.ProjectId,______,a90428e8-8c5c-42e6-9b69-6361645f7063,rev?*%
%TF.SameCoordinates,Original*%
%TF.FileFunction,Soldermask,Bot*%
%TF.FilePolarity,Negative*%
%FSLAX46Y46*%
G04 Gerber Fmt 4.6, Leading zero omitted, Abs format (unit mm)*
G04 Created by KiCad (PCBNEW (6.0.2)) date 2022-07-20 21:02:28*
%MOMM*%
%LPD*%
G01*
G04 APERTURE LIST*
%ADD10R,2.000000X1.905000*%
%ADD11O,2.000000X1.905000*%
%ADD12R,2.400000X2.400000*%
%ADD13O,2.400000X2.400000*%
%ADD14R,1.700000X1.700000*%
%ADD15O,1.700000X1.700000*%
%ADD16C,2.032000*%
%ADD17C,1.600000*%
%ADD18O,1.600000X1.600000*%
%ADD19R,1.800000X1.800000*%
%ADD20C,1.800000*%
G04 APERTURE END LIST*
D10*
%TO.C,Q2*%
X129215000Y-83820000D03*
D11*
X129215000Y-81280000D03*
X129215000Y-78740000D03*
%TD*%
D12*
%TO.C,D4*%
X128270000Y-66040000D03*
D13*
X128270000Y-55880000D03*
%TD*%
D14*
%TO.C,J4*%
X88900000Y-48260000D03*
D15*
X86360000Y-48260000D03*
%TD*%
D14*
%TO.C,J5*%
X100345000Y-48260000D03*
D15*
X102885000Y-48260000D03*
X105425000Y-48260000D03*
X107965000Y-48260000D03*
X110505000Y-48260000D03*
X113045000Y-48260000D03*
X115585000Y-48260000D03*
X118125000Y-48260000D03*
%TD*%
D16*
%TO.C,U1*%
X74731800Y-59448500D03*
X74731800Y-74688500D03*
X74731800Y-84848500D03*
X84891800Y-79768500D03*
X84891800Y-59448500D03*
X79811800Y-59448500D03*
%TD*%
D17*
%TO.C,R2*%
X97790000Y-74930000D03*
D18*
X97790000Y-85090000D03*
%TD*%
D12*
%TO.C,D2*%
X69215000Y-59690000D03*
D13*
X69215000Y-69850000D03*
%TD*%
D12*
%TO.C,D5*%
X106680000Y-59690000D03*
D13*
X106680000Y-69850000D03*
%TD*%
D14*
%TO.C,J2*%
X62230000Y-48260000D03*
D15*
X64770000Y-48260000D03*
%TD*%
D19*
%TO.C,D6*%
X116840000Y-96520000D03*
D20*
X119380000Y-96520000D03*
%TD*%
D10*
%TO.C,Q1*%
X91115000Y-82550000D03*
D11*
X91115000Y-80010000D03*
X91115000Y-77470000D03*
%TD*%
D17*
%TO.C,R1*%
X77470000Y-90805000D03*
D18*
X67310000Y-90805000D03*
%TD*%
D16*
%TO.C,U2*%
X112831800Y-59448500D03*
X112831800Y-74688500D03*
X112831800Y-84848500D03*
X122991800Y-79768500D03*
X122991800Y-59448500D03*
X117911800Y-59448500D03*
%TD*%
D17*
%TO.C,R4*%
X119380000Y-90170000D03*
D18*
X109220000Y-90170000D03*
%TD*%
D17*
%TO.C,R3*%
X91440000Y-90805000D03*
D18*
X81280000Y-90805000D03*
%TD*%
D17*
%TO.C,R6*%
X133350000Y-90170000D03*
D18*
X123190000Y-90170000D03*
%TD*%
D14*
%TO.C,J1*%
X73660000Y-48260000D03*
D15*
X76200000Y-48260000D03*
%TD*%
D19*
%TO.C,D3*%
X77470000Y-97155000D03*
D20*
X80010000Y-97155000D03*
%TD*%
D12*
%TO.C,D1*%
X90170000Y-59690000D03*
D13*
X90170000Y-69850000D03*
%TD*%
D17*
%TO.C,R5*%
X138430000Y-81915000D03*
D18*
X138430000Y-92075000D03*
%TD*%
D14*
%TO.C,J3*%
X134620000Y-48260000D03*
D15*
X137160000Y-48260000D03*
%TD*%
M02*
