M48
; DRILL file {KiCad (6.0.2)} date Wed Jul 20 21:02:27 2022
; FORMAT={-:-/ absolute / metric / decimal}
; #@! TF.CreationDate,2022-07-20T21:02:27+09:00
; #@! TF.GenerationSoftware,Kicad,Pcbnew,(6.0.2)
; #@! TF.FileFunction,Plated,1,2,PTH
FMAT,2
METRIC
; #@! TA.AperFunction,Plated,PTH,ViaDrill
T1C0.400
; #@! TA.AperFunction,Plated,PTH,ComponentDrill
T2C0.800
; #@! TA.AperFunction,Plated,PTH,ComponentDrill
T3C0.900
; #@! TA.AperFunction,Plated,PTH,ComponentDrill
T4C1.000
; #@! TA.AperFunction,Plated,PTH,ComponentDrill
T5C1.100
; #@! TA.AperFunction,Plated,PTH,ComponentDrill
T6C1.200
; #@! TA.AperFunction,Plated,PTH,ComponentDrill
T7C1.524
; #@! TA.AperFunction,Plated,PTH,ViaDrill
T8C3.600
%
G90
G05
T1
X106.68Y-55.88
T2
X67.31Y-90.805
X77.47Y-90.805
X81.28Y-90.805
X91.44Y-90.805
X97.79Y-74.93
X97.79Y-85.09
X109.22Y-90.17
X119.38Y-90.17
X123.19Y-90.17
X133.35Y-90.17
X138.43Y-81.915
X138.43Y-92.075
T3
X77.47Y-97.155
X80.01Y-97.155
X116.84Y-96.52
X119.38Y-96.52
T4
X62.23Y-48.26
X64.77Y-48.26
X73.66Y-48.26
X76.2Y-48.26
X86.36Y-48.26
X88.9Y-48.26
X100.345Y-48.26
X102.885Y-48.26
X105.425Y-48.26
X107.965Y-48.26
X110.505Y-48.26
X113.045Y-48.26
X115.585Y-48.26
X118.125Y-48.26
X134.62Y-48.26
X137.16Y-48.26
T5
X91.115Y-77.47
X91.115Y-80.01
X91.115Y-82.55
X129.215Y-78.74
X129.215Y-81.28
X129.215Y-83.82
T6
X69.215Y-59.69
X69.215Y-69.85
X90.17Y-59.69
X90.17Y-69.85
X106.68Y-59.69
X106.68Y-69.85
X128.27Y-55.88
X128.27Y-66.04
T7
X74.732Y-59.448
X74.732Y-74.688
X74.732Y-84.849
X79.812Y-59.448
X84.892Y-59.448
X84.892Y-79.769
X112.832Y-59.448
X112.832Y-74.688
X112.832Y-84.849
X117.912Y-59.448
X122.992Y-59.448
X122.992Y-79.769
T8
X57.259Y-71.755
X137.269Y-71.755
T0
M30
