M48
; DRILL file {KiCad (6.0.5)} date Mon Feb 13 18:15:36 2023
; FORMAT={-:-/ absolute / metric / decimal}
; #@! TF.CreationDate,2023-02-13T18:15:36+09:00
; #@! TF.GenerationSoftware,Kicad,Pcbnew,(6.0.5)
; #@! TF.FileFunction,Plated,1,2,PTH
FMAT,2
METRIC
; #@! TA.AperFunction,Plated,PTH,ViaDrill
T1C0.400
; #@! TA.AperFunction,Plated,PTH,ComponentDrill
T2C0.762
; #@! TA.AperFunction,Plated,PTH,ViaDrill
T3C0.800
; #@! TA.AperFunction,Plated,PTH,ComponentDrill
T4C0.800
; #@! TA.AperFunction,Plated,PTH,ComponentDrill
T5C0.813
; #@! TA.AperFunction,Plated,PTH,ComponentDrill
T6C0.864
; #@! TA.AperFunction,Plated,PTH,ComponentDrill
T7C1.000
; #@! TA.AperFunction,Plated,PTH,ComponentDrill
T8C1.020
; #@! TA.AperFunction,Plated,PTH,ComponentDrill
T9C1.118
; #@! TA.AperFunction,Plated,PTH,ComponentDrill
T10C1.200
; #@! TA.AperFunction,Plated,PTH,ComponentDrill
T11C1.220
; #@! TA.AperFunction,Plated,PTH,ComponentDrill
T12C1.300
; #@! TA.AperFunction,Plated,PTH,ComponentDrill
T13C2.000
; #@! TA.AperFunction,Plated,PTH,ComponentDrill
T14C3.200
%
G90
G05
T1
X79.756Y-93.472
X84.84Y-112.264
X87.376Y-59.436
X88.9Y-69.088
X90.424Y-45.72
X90.424Y-48.768
X90.424Y-60.452
X90.932Y-117.639
X96.012Y-77.724
X97.536Y-44.704
X103.124Y-48.768
X104.14Y-69.088
X105.156Y-47.752
X112.776Y-129.032
X117.348Y-49.276
X121.92Y-73.66
X132.08Y-103.632
X136.656Y-112.78
X145.288Y-112.268
X169.164Y-71.12
X202.184Y-43.18
T2
X147.186Y-120.736
X149.726Y-120.736
X159.886Y-120.736
X162.426Y-120.736
T3
X105.664Y-51.816
X129.54Y-51.816
T4
X93.98Y-102.108
X93.98Y-112.268
X117.485Y-110.236
X122.485Y-110.236
X124.968Y-96.012
X124.968Y-99.06
X135.128Y-96.012
X135.128Y-99.06
X138.684Y-108.712
X138.684Y-112.268
X148.844Y-108.712
X148.844Y-112.268
X161.544Y-113.792
X166.664Y-110.744
X171.664Y-110.744
X171.704Y-113.792
X172.72Y-119.888
X173.736Y-99.568
X182.88Y-119.888
X183.896Y-99.568
X185.928Y-108.752
X185.928Y-113.752
X189.992Y-106.172
X189.992Y-109.22
X189.992Y-113.284
X189.992Y-116.332
X192.475Y-78.232
X192.475Y-86.868
X197.475Y-78.232
X197.475Y-86.868
X200.152Y-106.172
X200.152Y-109.22
X200.152Y-113.284
X200.152Y-116.332
X201.676Y-53.34
X201.676Y-57.016
X201.676Y-72.016
X202.692Y-106.172
X202.692Y-109.22
X202.692Y-113.284
X202.692Y-116.332
X206.756Y-56.388
X206.756Y-66.548
X211.836Y-53.34
X211.836Y-56.388
X211.836Y-66.548
X211.836Y-70.612
X211.836Y-80.772
X211.836Y-83.312
X211.836Y-93.472
X212.852Y-106.172
X212.852Y-109.22
X212.852Y-113.284
X212.852Y-116.332
T5
X205.232Y-70.104
X205.232Y-73.66
X205.232Y-77.216
X205.232Y-86.36
X205.232Y-89.916
X205.232Y-93.472
X206.502Y-68.834
X206.502Y-72.39
X206.502Y-75.946
X206.502Y-85.09
X206.502Y-88.646
X206.502Y-92.202
X207.772Y-70.104
X207.772Y-73.66
X207.772Y-77.216
X207.772Y-86.36
X207.772Y-89.916
X207.772Y-93.472
T6
X126.238Y-102.362
X126.238Y-104.902
X126.238Y-107.442
X126.238Y-109.982
X133.858Y-102.362
X133.858Y-104.902
X133.858Y-107.442
X133.858Y-109.982
X151.13Y-108.712
X151.13Y-111.252
X151.13Y-113.792
X158.75Y-108.712
X158.75Y-111.252
X158.75Y-113.792
X174.244Y-108.712
X174.244Y-111.252
X174.244Y-113.792
X174.244Y-116.332
X181.864Y-108.712
X181.864Y-111.252
X181.864Y-113.792
X181.864Y-116.332
T7
X83.312Y-34.808
X83.312Y-37.348
X83.312Y-39.888
X83.312Y-42.428
X83.312Y-44.968
X83.312Y-47.508
X83.312Y-50.048
X83.312Y-52.588
X83.312Y-55.128
X83.312Y-57.668
X83.312Y-60.208
X83.312Y-62.748
X83.312Y-65.288
X83.312Y-67.828
X83.312Y-73.416
X83.312Y-75.956
X83.312Y-78.496
X83.312Y-81.036
X83.312Y-87.122
X83.312Y-89.662
X83.312Y-92.202
X83.312Y-94.742
X83.312Y-97.282
X83.312Y-99.822
X85.613Y-120.396
X88.153Y-120.396
X90.693Y-120.396
X93.233Y-120.396
X95.773Y-120.396
X96.769Y-112.268
X98.313Y-120.396
X99.309Y-112.268
X100.853Y-120.396
X103.393Y-120.396
X211.836Y-46.487
X211.836Y-49.027
T8
X94.704Y-35.145
X97.704Y-35.145
X100.704Y-35.145
X103.704Y-35.145
X106.704Y-35.145
X109.704Y-35.145
X112.704Y-35.145
X115.704Y-35.145
X118.704Y-35.145
X121.704Y-35.145
X190.524Y-36.161
X193.524Y-36.161
X204.24Y-36.161
X207.24Y-36.161
X216.985Y-37.616
X216.985Y-40.616
T9
X122.542Y-118.943
X122.542Y-121.483
X122.542Y-124.023
X128.638Y-118.943
X128.638Y-121.483
X128.638Y-124.023
X134.62Y-118.872
X134.62Y-121.412
X134.62Y-123.952
T10
X173.736Y-104.14
X183.896Y-104.14
X189.992Y-93.472
X189.992Y-97.536
X189.992Y-101.6
X200.152Y-93.472
X200.152Y-97.536
X200.152Y-101.6
X203.2Y-97.536
X203.2Y-101.6
X213.36Y-97.536
X213.36Y-101.6
T11
X132.314Y-54.376
X132.314Y-61.976
X132.314Y-69.576
T12
X93.167Y-44.285
X93.167Y-56.485
X93.167Y-66.637
X93.167Y-78.837
X96.954Y-88.392
X96.954Y-99.06
X99.167Y-42.285
X99.167Y-64.637
X105.167Y-44.285
X105.167Y-56.485
X105.167Y-66.637
X105.167Y-78.837
X111.455Y-44.285
X111.455Y-56.485
X111.455Y-66.637
X111.455Y-78.837
X117.455Y-42.285
X117.455Y-64.637
X119.454Y-88.392
X119.454Y-99.06
X123.455Y-44.285
X123.455Y-56.485
X123.455Y-66.637
X123.455Y-78.837
X144.181Y-96.326
X144.181Y-103.826
X160.681Y-103.826
X164.181Y-96.326
X167.681Y-103.826
X192.024Y-41.582
X192.024Y-64.082
T13
X132.314Y-44.226
X132.314Y-79.726
X180.614Y-44.226
X180.614Y-69.576
X180.614Y-79.726
T14
X132.314Y-36.576
X132.314Y-87.376
X180.614Y-36.576
X180.614Y-87.376
T0
M30
