%TF.GenerationSoftware,KiCad,Pcbnew,(6.0.5)*%
%TF.CreationDate,2023-07-08T16:29:13+09:00*%
%TF.ProjectId,wheel speed,77686565-6c20-4737-9065-65642e6b6963,rev?*%
%TF.SameCoordinates,Original*%
%TF.FileFunction,Copper,L2,Bot*%
%TF.FilePolarity,Positive*%
%FSLAX46Y46*%
G04 Gerber Fmt 4.6, Leading zero omitted, Abs format (unit mm)*
G04 Created by KiCad (PCBNEW (6.0.5)) date 2023-07-08 16:29:13*
%MOMM*%
%LPD*%
G01*
G04 APERTURE LIST*
%TA.AperFunction,ComponentPad*%
%ADD10C,1.600000*%
%TD*%
%TA.AperFunction,ComponentPad*%
%ADD11O,1.600000X1.600000*%
%TD*%
%TA.AperFunction,ComponentPad*%
%ADD12R,1.700000X1.700000*%
%TD*%
%TA.AperFunction,ComponentPad*%
%ADD13O,1.700000X1.700000*%
%TD*%
%TA.AperFunction,ComponentPad*%
%ADD14R,1.371600X1.371600*%
%TD*%
%TA.AperFunction,ComponentPad*%
%ADD15C,1.371600*%
%TD*%
%TA.AperFunction,ViaPad*%
%ADD16C,0.800000*%
%TD*%
%TA.AperFunction,Conductor*%
%ADD17C,0.250000*%
%TD*%
G04 APERTURE END LIST*
D10*
%TO.P,C2,1*%
%TO.N,12V*%
X125730000Y-97790000D03*
%TO.P,C2,2*%
%TO.N,Net-(C2-Pad2)*%
X125730000Y-95290000D03*
%TD*%
%TO.P,R7,1*%
%TO.N,FL1*%
X114300000Y-72390000D03*
D11*
%TO.P,R7,2*%
%TO.N,Net-(R12-Pad2)*%
X124460000Y-72390000D03*
%TD*%
D10*
%TO.P,R5,1*%
%TO.N,GND*%
X124460000Y-87630000D03*
D11*
%TO.P,R5,2*%
%TO.N,FL-*%
X114300000Y-87630000D03*
%TD*%
D12*
%TO.P,J2,1,Pin_1*%
%TO.N,FL1*%
X143510000Y-60970000D03*
D13*
%TO.P,J2,2,Pin_2*%
%TO.N,FR2*%
X143510000Y-63510000D03*
%TO.P,J2,3,Pin_3*%
%TO.N,BL3*%
X143510000Y-66050000D03*
%TO.P,J2,4,Pin_4*%
%TO.N,BR4*%
X143510000Y-68590000D03*
%TD*%
D10*
%TO.P,R12,1*%
%TO.N,FR2*%
X137160000Y-72390000D03*
D11*
%TO.P,R12,2*%
%TO.N,Net-(R12-Pad2)*%
X127000000Y-72390000D03*
%TD*%
D10*
%TO.P,R6,1*%
%TO.N,GND*%
X114300000Y-91440000D03*
D11*
%TO.P,R6,2*%
%TO.N,BL-*%
X124460000Y-91440000D03*
%TD*%
D10*
%TO.P,C3,1*%
%TO.N,12V*%
X125730000Y-62230000D03*
%TO.P,C3,2*%
%TO.N,Net-(C3-Pad2)*%
X125730000Y-59730000D03*
%TD*%
%TO.P,R9,1*%
%TO.N,GND*%
X127000000Y-91440000D03*
D11*
%TO.P,R9,2*%
%TO.N,FR-*%
X137160000Y-91440000D03*
%TD*%
D12*
%TO.P,J3,1,Pin_1*%
%TO.N,12V*%
X149860000Y-60975000D03*
D13*
%TO.P,J3,2,Pin_2*%
X149860000Y-63515000D03*
%TO.P,J3,3,Pin_3*%
X149860000Y-66055000D03*
%TO.P,J3,4,Pin_4*%
X149860000Y-68595000D03*
%TO.P,J3,5,Pin_5*%
%TO.N,FL-*%
X149860000Y-71135000D03*
%TO.P,J3,6,Pin_6*%
%TO.N,FR-*%
X149860000Y-73675000D03*
%TO.P,J3,7,Pin_7*%
%TO.N,BL-*%
X149860000Y-76215000D03*
%TO.P,J3,8,Pin_8*%
%TO.N,BR-*%
X149860000Y-78755000D03*
%TD*%
D10*
%TO.P,R1,1*%
%TO.N,Net-(R1-Pad1)*%
X114300000Y-80010000D03*
D11*
%TO.P,R1,2*%
%TO.N,Net-(R1-Pad2)*%
X124460000Y-80010000D03*
%TD*%
D10*
%TO.P,C4,1*%
%TO.N,12V*%
X125730000Y-104140000D03*
%TO.P,C4,2*%
%TO.N,Net-(C4-Pad2)*%
X125730000Y-101640000D03*
%TD*%
D12*
%TO.P,J1,1,Pin_1*%
%TO.N,12V*%
X143510000Y-82550000D03*
D13*
%TO.P,J1,2,Pin_2*%
%TO.N,GND*%
X143510000Y-85090000D03*
%TD*%
D14*
%TO.P,U4,1,GND*%
%TO.N,GND*%
X114300000Y-96520000D03*
D15*
%TO.P,U4,2,+*%
%TO.N,BL-*%
X114300000Y-99060000D03*
%TO.P,U4,3,-*%
%TO.N,Net-(R1-Pad2)*%
X114300000Y-101600000D03*
%TO.P,U4,4,V-*%
%TO.N,GND*%
X114300000Y-104140000D03*
%TO.P,U4,5,BAL*%
%TO.N,Net-(C2-Pad2)*%
X121920000Y-104140000D03*
%TO.P,U4,6,STRB*%
X121920000Y-101600000D03*
%TO.P,U4,7*%
%TO.N,BL3*%
X121920000Y-99060000D03*
%TO.P,U4,8,V+*%
%TO.N,12V*%
X121920000Y-96520000D03*
%TD*%
D11*
%TO.P,R8,2*%
%TO.N,Net-(R1-Pad1)*%
X137160000Y-76200000D03*
D10*
%TO.P,R8,1*%
%TO.N,BL3*%
X127000000Y-76200000D03*
%TD*%
%TO.P,R4,1*%
%TO.N,GND*%
X127000000Y-83820000D03*
D11*
%TO.P,R4,2*%
%TO.N,Net-(R3-Pad2)*%
X137160000Y-83820000D03*
%TD*%
D14*
%TO.P,U3,1,GND*%
%TO.N,GND*%
X114300000Y-59690000D03*
D15*
%TO.P,U3,2,+*%
%TO.N,FL-*%
X114300000Y-62230000D03*
%TO.P,U3,3,-*%
%TO.N,Net-(R3-Pad2)*%
X114300000Y-64770000D03*
%TO.P,U3,4,V-*%
%TO.N,GND*%
X114300000Y-67310000D03*
%TO.P,U3,5,BAL*%
%TO.N,Net-(C1-Pad2)*%
X121920000Y-67310000D03*
%TO.P,U3,6,STRB*%
X121920000Y-64770000D03*
%TO.P,U3,7*%
%TO.N,FL1*%
X121920000Y-62230000D03*
%TO.P,U3,8,V+*%
%TO.N,12V*%
X121920000Y-59690000D03*
%TD*%
D14*
%TO.P,U6,1,GND*%
%TO.N,GND*%
X129540000Y-96520000D03*
D15*
%TO.P,U6,2,+*%
%TO.N,BR-*%
X129540000Y-99060000D03*
%TO.P,U6,3,-*%
%TO.N,Net-(R1-Pad2)*%
X129540000Y-101600000D03*
%TO.P,U6,4,V-*%
%TO.N,GND*%
X129540000Y-104140000D03*
%TO.P,U6,5,BAL*%
%TO.N,Net-(C4-Pad2)*%
X137160000Y-104140000D03*
%TO.P,U6,6,STRB*%
X137160000Y-101600000D03*
%TO.P,U6,7*%
%TO.N,BR4*%
X137160000Y-99060000D03*
%TO.P,U6,8,V+*%
%TO.N,12V*%
X137160000Y-96520000D03*
%TD*%
D10*
%TO.P,R10,1*%
%TO.N,GND*%
X127000000Y-87630000D03*
D11*
%TO.P,R10,2*%
%TO.N,BR-*%
X137160000Y-87630000D03*
%TD*%
D10*
%TO.P,C1,1*%
%TO.N,12V*%
X125730000Y-66040000D03*
%TO.P,C1,2*%
%TO.N,Net-(C1-Pad2)*%
X125730000Y-68540000D03*
%TD*%
%TO.P,R2,1*%
%TO.N,GND*%
X114300000Y-83820000D03*
D11*
%TO.P,R2,2*%
%TO.N,Net-(R1-Pad2)*%
X124460000Y-83820000D03*
%TD*%
D14*
%TO.P,U5,1,GND*%
%TO.N,GND*%
X129540000Y-59690000D03*
D15*
%TO.P,U5,2,+*%
%TO.N,FR-*%
X129540000Y-62230000D03*
%TO.P,U5,3,-*%
%TO.N,Net-(R3-Pad2)*%
X129540000Y-64770000D03*
%TO.P,U5,4,V-*%
%TO.N,GND*%
X129540000Y-67310000D03*
%TO.P,U5,5,BAL*%
%TO.N,Net-(C3-Pad2)*%
X137160000Y-67310000D03*
%TO.P,U5,6,STRB*%
X137160000Y-64770000D03*
%TO.P,U5,7*%
%TO.N,FR2*%
X137160000Y-62230000D03*
%TO.P,U5,8,V+*%
%TO.N,12V*%
X137160000Y-59690000D03*
%TD*%
D10*
%TO.P,R11,1*%
%TO.N,BR4*%
X114300000Y-76200000D03*
D11*
%TO.P,R11,2*%
%TO.N,Net-(R1-Pad1)*%
X124460000Y-76200000D03*
%TD*%
D10*
%TO.P,R3,1*%
%TO.N,Net-(R12-Pad2)*%
X127000000Y-80010000D03*
D11*
%TO.P,R3,2*%
%TO.N,Net-(R3-Pad2)*%
X137160000Y-80010000D03*
%TD*%
D16*
%TO.N,Net-(R3-Pad2)*%
X132715000Y-69850000D03*
%TO.N,FL1*%
X118110000Y-67310000D03*
%TO.N,12V*%
X126365000Y-57874500D03*
X144055500Y-102870000D03*
X144145000Y-99060000D03*
%TO.N,BL-*%
X144780000Y-76200000D03*
%TO.N,BL3*%
X118110000Y-93345000D03*
X125730000Y-85725000D03*
%TO.N,FR-*%
X133350000Y-62630011D03*
%TO.N,Net-(C3-Pad2)*%
X135255000Y-62230000D03*
%TO.N,FR2*%
X146050000Y-68580000D03*
%TO.N,BR-*%
X138430000Y-81915000D03*
%TO.N,BR4*%
X137795000Y-70485000D03*
%TO.N,Net-(R1-Pad1)*%
X131215552Y-83980150D03*
%TO.N,Net-(R12-Pad2)*%
X139065000Y-101600000D03*
X130140351Y-85055351D03*
X139065000Y-97065500D03*
%TD*%
D17*
%TO.N,FL-*%
X111760000Y-64770000D02*
X111760000Y-83820000D01*
X114300000Y-62230000D02*
X115424511Y-63354511D01*
X141502523Y-63354511D02*
X142918012Y-64770000D01*
X114300000Y-62230000D02*
X111760000Y-64770000D01*
X111760000Y-83820000D02*
X114300000Y-86360000D01*
X149860000Y-70256010D02*
X149860000Y-71135000D01*
X142918012Y-64770000D02*
X144373990Y-64770000D01*
X115424511Y-63354511D02*
X141502523Y-63354511D01*
X114300000Y-86360000D02*
X114300000Y-87630000D01*
X144373990Y-64770000D02*
X149860000Y-70256010D01*
%TO.N,Net-(R3-Pad2)*%
X124460000Y-64770000D02*
X129540000Y-64770000D01*
X132715000Y-69850000D02*
X132715000Y-67945000D01*
X132715000Y-67945000D02*
X129540000Y-64770000D01*
X123449689Y-65780311D02*
X124460000Y-64770000D01*
X114300000Y-64770000D02*
X115310311Y-65780311D01*
X115310311Y-65780311D02*
X123449689Y-65780311D01*
%TO.N,FL1*%
X123190000Y-60960000D02*
X121920000Y-62230000D01*
X123348797Y-59690000D02*
X123190000Y-59690000D01*
X125730000Y-57150000D02*
X125730000Y-57308797D01*
X114300000Y-72390000D02*
X114300000Y-71120000D01*
X138430000Y-57150000D02*
X125730000Y-57150000D01*
X142250000Y-60970000D02*
X138430000Y-57150000D01*
X114300000Y-71120000D02*
X118110000Y-67310000D01*
X125730000Y-57308797D02*
X123348797Y-59690000D01*
X143510000Y-60970000D02*
X142250000Y-60970000D01*
X123190000Y-59690000D02*
X123190000Y-60960000D01*
%TO.N,12V*%
X126365000Y-57874500D02*
X133439500Y-57874500D01*
X139700000Y-93980000D02*
X139700000Y-83820000D01*
X139700000Y-83820000D02*
X140970000Y-82550000D01*
X140970000Y-82550000D02*
X143510000Y-82550000D01*
X144145000Y-102780500D02*
X144055500Y-102870000D01*
X144145000Y-102235000D02*
X144145000Y-102780500D01*
X135255000Y-59690000D02*
X137160000Y-59690000D01*
X144145000Y-99060000D02*
X144145000Y-102235000D01*
X137160000Y-96520000D02*
X139700000Y-93980000D01*
X133439500Y-57874500D02*
X135255000Y-59690000D01*
%TO.N,BL-*%
X135085789Y-81134511D02*
X139845489Y-81134511D01*
X124460000Y-91440000D02*
X124780300Y-91440000D01*
X124460000Y-91440000D02*
X121920000Y-91440000D01*
X139845489Y-81134511D02*
X144780000Y-76200000D01*
X121920000Y-91440000D02*
X114300000Y-99060000D01*
X124780300Y-91440000D02*
X135085789Y-81134511D01*
%TO.N,Net-(R1-Pad2)*%
X127635000Y-103505000D02*
X127635000Y-105410000D01*
X129540000Y-101600000D02*
X127635000Y-103505000D01*
X112395000Y-90193722D02*
X113053722Y-89535000D01*
X118110000Y-106045000D02*
X115570000Y-103505000D01*
X124460000Y-80010000D02*
X124460000Y-83820000D01*
X118745000Y-89535000D02*
X124460000Y-83820000D01*
X127000000Y-106045000D02*
X118110000Y-106045000D01*
X127635000Y-105410000D02*
X127000000Y-106045000D01*
X114300000Y-101600000D02*
X112395000Y-99695000D01*
X112395000Y-99695000D02*
X112395000Y-90193722D01*
X113053722Y-89535000D02*
X118745000Y-89535000D01*
X115570000Y-102235000D02*
X114935000Y-101600000D01*
X114935000Y-101600000D02*
X114300000Y-101600000D01*
X115570000Y-103505000D02*
X115570000Y-102235000D01*
%TO.N,BL3*%
X120015000Y-90170000D02*
X118110000Y-92075000D01*
X140960000Y-66050000D02*
X130810000Y-76200000D01*
X125730000Y-85725000D02*
X125730000Y-88900000D01*
X118110000Y-92075000D02*
X118110000Y-93345000D01*
X124460000Y-90170000D02*
X120015000Y-90170000D01*
X130810000Y-76200000D02*
X127000000Y-76200000D01*
X143510000Y-66050000D02*
X140960000Y-66050000D01*
X125730000Y-88900000D02*
X124460000Y-90170000D01*
%TO.N,FR-*%
X141604282Y-81280000D02*
X151130000Y-81280000D01*
X152385000Y-76200000D02*
X149860000Y-73675000D01*
X132080000Y-62230000D02*
X132949989Y-62230000D01*
X151130000Y-81280000D02*
X152400000Y-80010000D01*
X129540000Y-62230000D02*
X132080000Y-62230000D01*
X132949989Y-62230000D02*
X133350000Y-62630011D01*
X139250480Y-83633802D02*
X141604282Y-81280000D01*
X137160000Y-91440000D02*
X139250480Y-89349520D01*
X139250480Y-89349520D02*
X139250480Y-83633802D01*
X152400000Y-80010000D02*
X152400000Y-76200000D01*
X152400000Y-76200000D02*
X152385000Y-76200000D01*
%TO.N,Net-(C3-Pad2)*%
X134619641Y-59690359D02*
X135255000Y-60325718D01*
X127000000Y-58420000D02*
X133349282Y-58420000D01*
X127000000Y-58460000D02*
X127000000Y-58420000D01*
X135255000Y-60325718D02*
X135255000Y-62230000D01*
X133349282Y-58420000D02*
X134619641Y-59690359D01*
X125730000Y-59730000D02*
X127000000Y-58460000D01*
%TO.N,FR2*%
X142240000Y-72390000D02*
X146050000Y-68580000D01*
X137160000Y-72390000D02*
X142240000Y-72390000D01*
%TO.N,BR-*%
X138430000Y-81915000D02*
X135255000Y-81915000D01*
X133985000Y-83185000D02*
X133985000Y-85725000D01*
X135255000Y-81915000D02*
X133985000Y-83185000D01*
X137160000Y-88900000D02*
X132080000Y-93980000D01*
X132080000Y-93980000D02*
X132080000Y-97790000D01*
X135890000Y-87630000D02*
X137160000Y-87630000D01*
X132080000Y-97790000D02*
X130810000Y-99060000D01*
X133985000Y-85725000D02*
X135890000Y-87630000D01*
X137160000Y-87630000D02*
X137160000Y-88900000D01*
X130810000Y-99060000D02*
X129540000Y-99060000D01*
%TO.N,BR4*%
X143510000Y-68590000D02*
X144790000Y-67310000D01*
X133350000Y-93659700D02*
X133350000Y-95250000D01*
X137160000Y-90170000D02*
X136839700Y-90170000D01*
X147320000Y-74928564D02*
X138430000Y-83818564D01*
X138430000Y-88900000D02*
X137160000Y-90170000D01*
X144790000Y-67310000D02*
X146050000Y-67310000D01*
X136839700Y-90170000D02*
X133350000Y-93659700D01*
X146050000Y-67310000D02*
X147320000Y-68580000D01*
X143510000Y-68590000D02*
X141615000Y-70485000D01*
X141615000Y-70485000D02*
X137795000Y-70485000D01*
X138430000Y-83818564D02*
X138430000Y-88900000D01*
X147320000Y-68580000D02*
X147320000Y-74928564D01*
X133350000Y-95250000D02*
X137160000Y-99060000D01*
%TO.N,Net-(R1-Pad1)*%
X137795000Y-78105000D02*
X138430000Y-77470000D01*
X137795000Y-76200000D02*
X137160000Y-76200000D01*
X138430000Y-76835000D02*
X137795000Y-76200000D01*
X135890000Y-78105000D02*
X137795000Y-78105000D01*
X131215552Y-82779448D02*
X135890000Y-78105000D01*
X138430000Y-77470000D02*
X138430000Y-76835000D01*
X131215552Y-83980150D02*
X131215552Y-82779448D01*
%TO.N,Net-(R12-Pad2)*%
X127000000Y-72390000D02*
X124460000Y-72390000D01*
X130175000Y-83185000D02*
X130175000Y-83820000D01*
X127000000Y-80010000D02*
X126679700Y-80010000D01*
X123190000Y-72390000D02*
X124460000Y-72390000D01*
X120650000Y-74930000D02*
X123190000Y-72390000D01*
X126679700Y-80010000D02*
X124139700Y-77470000D01*
X130175000Y-85020702D02*
X130140351Y-85055351D01*
X127000000Y-80010000D02*
X130175000Y-83185000D01*
X121920000Y-77470000D02*
X120650000Y-76200000D01*
X120650000Y-76200000D02*
X120650000Y-74930000D01*
X130175000Y-83820000D02*
X130175000Y-85020702D01*
X124139700Y-77470000D02*
X121920000Y-77470000D01*
X139065000Y-97065500D02*
X139065000Y-101600000D01*
%TD*%
%TA.AperFunction,Conductor*%
%TO.N,GND*%
G36*
X153323660Y-55900002D02*
G01*
X153370153Y-55953658D01*
X153380257Y-56023932D01*
X153352690Y-56086165D01*
X153350192Y-56088797D01*
X153186408Y-56316727D01*
X153184404Y-56320512D01*
X153060312Y-56554882D01*
X153055073Y-56564776D01*
X153053601Y-56568799D01*
X153053599Y-56568803D01*
X153045678Y-56590448D01*
X152958616Y-56828355D01*
X152957703Y-56832541D01*
X152957703Y-56832542D01*
X152899830Y-57097977D01*
X152898825Y-57102585D01*
X152876803Y-57382393D01*
X152877210Y-57389458D01*
X152892960Y-57662601D01*
X152893785Y-57666806D01*
X152893786Y-57666814D01*
X152916742Y-57783821D01*
X152946996Y-57938024D01*
X152948383Y-57942074D01*
X152948384Y-57942079D01*
X153029009Y-58177565D01*
X153037911Y-58203565D01*
X153054685Y-58236916D01*
X153115781Y-58358392D01*
X153164022Y-58454310D01*
X153166448Y-58457839D01*
X153166451Y-58457845D01*
X153224371Y-58542118D01*
X153322997Y-58685620D01*
X153511894Y-58893215D01*
X153515189Y-58895970D01*
X153515190Y-58895971D01*
X153609023Y-58974428D01*
X153648453Y-59033469D01*
X153654199Y-59071715D01*
X153430797Y-104199065D01*
X153430289Y-104301662D01*
X153409950Y-104369683D01*
X153368997Y-104409154D01*
X153258125Y-104475510D01*
X153254441Y-104477715D01*
X153035395Y-104653204D01*
X153032451Y-104656306D01*
X153032447Y-104656310D01*
X152845142Y-104853688D01*
X152842192Y-104856797D01*
X152678408Y-105084727D01*
X152547073Y-105332776D01*
X152545601Y-105336799D01*
X152545599Y-105336803D01*
X152519907Y-105407010D01*
X152450616Y-105596355D01*
X152449703Y-105600541D01*
X152449703Y-105600542D01*
X152394805Y-105852333D01*
X152390825Y-105870585D01*
X152368803Y-106150393D01*
X152369210Y-106157458D01*
X152384960Y-106430601D01*
X152385785Y-106434806D01*
X152385786Y-106434814D01*
X152409445Y-106555402D01*
X152438996Y-106706024D01*
X152440383Y-106710074D01*
X152440384Y-106710079D01*
X152528522Y-106967509D01*
X152529911Y-106971565D01*
X152531838Y-106975396D01*
X152555598Y-107022638D01*
X152568336Y-107092482D01*
X152541292Y-107158126D01*
X152483051Y-107198728D01*
X152445269Y-107205232D01*
X110659539Y-107946990D01*
X110591074Y-107928200D01*
X110543636Y-107875378D01*
X110532287Y-107805295D01*
X110560629Y-107740201D01*
X110579553Y-107721860D01*
X110600624Y-107705338D01*
X110795948Y-107503779D01*
X110798481Y-107500331D01*
X110798485Y-107500326D01*
X110959572Y-107281032D01*
X110962110Y-107277577D01*
X111044197Y-107126392D01*
X111093986Y-107034692D01*
X111093987Y-107034690D01*
X111096036Y-107030916D01*
X111195247Y-106768362D01*
X111225819Y-106634876D01*
X111256949Y-106498957D01*
X111256950Y-106498953D01*
X111257907Y-106494773D01*
X111259548Y-106476395D01*
X111282637Y-106217677D01*
X111282637Y-106217675D01*
X111282857Y-106215211D01*
X111283310Y-106172000D01*
X111265272Y-105907409D01*
X111264512Y-105896254D01*
X111264511Y-105896248D01*
X111264220Y-105891977D01*
X111258923Y-105866396D01*
X111208172Y-105621332D01*
X111207303Y-105617135D01*
X111113612Y-105352561D01*
X111105604Y-105337044D01*
X111005531Y-105143156D01*
X113661204Y-105143156D01*
X113671086Y-105155645D01*
X113723124Y-105190416D01*
X113733234Y-105195906D01*
X113924208Y-105277955D01*
X113935151Y-105281510D01*
X114137873Y-105327382D01*
X114149283Y-105328884D01*
X114356978Y-105337044D01*
X114368460Y-105336442D01*
X114574159Y-105306618D01*
X114585355Y-105303930D01*
X114782174Y-105237118D01*
X114792681Y-105232440D01*
X114931069Y-105154938D01*
X114940934Y-105144860D01*
X114937978Y-105137188D01*
X114312812Y-104512022D01*
X114298868Y-104504408D01*
X114297035Y-104504539D01*
X114290420Y-104508790D01*
X113667400Y-105131810D01*
X113661204Y-105143156D01*
X111005531Y-105143156D01*
X110986847Y-105106957D01*
X110986847Y-105106956D01*
X110984882Y-105103150D01*
X110974595Y-105088512D01*
X110858261Y-104922987D01*
X110823493Y-104873517D01*
X110728521Y-104771315D01*
X110635354Y-104671055D01*
X110635351Y-104671052D01*
X110632433Y-104667912D01*
X110629118Y-104665198D01*
X110629114Y-104665195D01*
X110536194Y-104589141D01*
X110496148Y-104530516D01*
X110490000Y-104491637D01*
X110490000Y-104114382D01*
X113101875Y-104114382D01*
X113115469Y-104321783D01*
X113117270Y-104333153D01*
X113168432Y-104534606D01*
X113172273Y-104545453D01*
X113259293Y-104734215D01*
X113265042Y-104744172D01*
X113284225Y-104771315D01*
X113294814Y-104779703D01*
X113308115Y-104772675D01*
X113927978Y-104152812D01*
X113935592Y-104138868D01*
X113935461Y-104137035D01*
X113931210Y-104130420D01*
X113305011Y-103504221D01*
X113292631Y-103497461D01*
X113286665Y-103501927D01*
X113195037Y-103676085D01*
X113190636Y-103686709D01*
X113128998Y-103885215D01*
X113126606Y-103896469D01*
X113102176Y-104102881D01*
X113101875Y-104114382D01*
X110490000Y-104114382D01*
X110490000Y-64749943D01*
X111121780Y-64749943D01*
X111122526Y-64757835D01*
X111125941Y-64793961D01*
X111126500Y-64805819D01*
X111126500Y-83741233D01*
X111125973Y-83752416D01*
X111124298Y-83759909D01*
X111124547Y-83767835D01*
X111124547Y-83767836D01*
X111126438Y-83827986D01*
X111126500Y-83831945D01*
X111126500Y-83859856D01*
X111126997Y-83863790D01*
X111126997Y-83863791D01*
X111127005Y-83863856D01*
X111127938Y-83875693D01*
X111129327Y-83919889D01*
X111134405Y-83937367D01*
X111134978Y-83939339D01*
X111138987Y-83958700D01*
X111141526Y-83978797D01*
X111144445Y-83986168D01*
X111144445Y-83986170D01*
X111157804Y-84019912D01*
X111161649Y-84031142D01*
X111165820Y-84045499D01*
X111173982Y-84073593D01*
X111178015Y-84080412D01*
X111178017Y-84080417D01*
X111184293Y-84091028D01*
X111192988Y-84108776D01*
X111200448Y-84127617D01*
X111205110Y-84134033D01*
X111205110Y-84134034D01*
X111226436Y-84163387D01*
X111232952Y-84173307D01*
X111237980Y-84181808D01*
X111255458Y-84211362D01*
X111269779Y-84225683D01*
X111282619Y-84240716D01*
X111294528Y-84257107D01*
X111309198Y-84269243D01*
X111328605Y-84285298D01*
X111337384Y-84293288D01*
X113474327Y-86430231D01*
X113508353Y-86492543D01*
X113503288Y-86563358D01*
X113463013Y-86615427D01*
X113464424Y-86617108D01*
X113460211Y-86620643D01*
X113455700Y-86623802D01*
X113293802Y-86785700D01*
X113290645Y-86790208D01*
X113290643Y-86790211D01*
X113235902Y-86868389D01*
X113162477Y-86973251D01*
X113160154Y-86978233D01*
X113160151Y-86978238D01*
X113068039Y-87175775D01*
X113065716Y-87180757D01*
X113006457Y-87401913D01*
X112986502Y-87630000D01*
X113006457Y-87858087D01*
X113007881Y-87863400D01*
X113007881Y-87863402D01*
X113025479Y-87929076D01*
X113065716Y-88079243D01*
X113068039Y-88084224D01*
X113068039Y-88084225D01*
X113160151Y-88281762D01*
X113160154Y-88281767D01*
X113162477Y-88286749D01*
X113293802Y-88474300D01*
X113455700Y-88636198D01*
X113460208Y-88639355D01*
X113460211Y-88639357D01*
X113507240Y-88672287D01*
X113551568Y-88727744D01*
X113558877Y-88798364D01*
X113526846Y-88861724D01*
X113465645Y-88897709D01*
X113434969Y-88901500D01*
X113132490Y-88901500D01*
X113121307Y-88900973D01*
X113113814Y-88899298D01*
X113105888Y-88899547D01*
X113105887Y-88899547D01*
X113045724Y-88901438D01*
X113041766Y-88901500D01*
X113013866Y-88901500D01*
X113009876Y-88902004D01*
X112998042Y-88902936D01*
X112953833Y-88904326D01*
X112946217Y-88906539D01*
X112946215Y-88906539D01*
X112934374Y-88909979D01*
X112915015Y-88913988D01*
X112913705Y-88914154D01*
X112894925Y-88916526D01*
X112887559Y-88919442D01*
X112887553Y-88919444D01*
X112853820Y-88932800D01*
X112842590Y-88936645D01*
X112807739Y-88946770D01*
X112800129Y-88948981D01*
X112793306Y-88953016D01*
X112782688Y-88959295D01*
X112764935Y-88967992D01*
X112757290Y-88971019D01*
X112746105Y-88975448D01*
X112739690Y-88980109D01*
X112710334Y-89001437D01*
X112700417Y-89007951D01*
X112662360Y-89030458D01*
X112648039Y-89044779D01*
X112633006Y-89057619D01*
X112616615Y-89069528D01*
X112590238Y-89101413D01*
X112588434Y-89103593D01*
X112580444Y-89112374D01*
X112002742Y-89690075D01*
X111994463Y-89697609D01*
X111987982Y-89701722D01*
X111949057Y-89743173D01*
X111941357Y-89751373D01*
X111938602Y-89754215D01*
X111918865Y-89773952D01*
X111916385Y-89777149D01*
X111908682Y-89786169D01*
X111878414Y-89818401D01*
X111874595Y-89825347D01*
X111874593Y-89825350D01*
X111868652Y-89836156D01*
X111857801Y-89852675D01*
X111845386Y-89868681D01*
X111842241Y-89875950D01*
X111842238Y-89875954D01*
X111827826Y-89909259D01*
X111822609Y-89919909D01*
X111801305Y-89958662D01*
X111799334Y-89966337D01*
X111799334Y-89966338D01*
X111796267Y-89978284D01*
X111789863Y-89996988D01*
X111781819Y-90015577D01*
X111780580Y-90023400D01*
X111780577Y-90023410D01*
X111774901Y-90059246D01*
X111772495Y-90070866D01*
X111761500Y-90113692D01*
X111761500Y-90133946D01*
X111759949Y-90153656D01*
X111756780Y-90173665D01*
X111757526Y-90181557D01*
X111760941Y-90217683D01*
X111761500Y-90229541D01*
X111761500Y-99616233D01*
X111760973Y-99627416D01*
X111759298Y-99634909D01*
X111759547Y-99642835D01*
X111759547Y-99642836D01*
X111761438Y-99702986D01*
X111761500Y-99706945D01*
X111761500Y-99734856D01*
X111761997Y-99738790D01*
X111761997Y-99738791D01*
X111762005Y-99738856D01*
X111762938Y-99750693D01*
X111764327Y-99794889D01*
X111769978Y-99814339D01*
X111773987Y-99833700D01*
X111776526Y-99853797D01*
X111779445Y-99861168D01*
X111779445Y-99861170D01*
X111792804Y-99894912D01*
X111796649Y-99906142D01*
X111808982Y-99948593D01*
X111813015Y-99955412D01*
X111813017Y-99955417D01*
X111819293Y-99966028D01*
X111827988Y-99983776D01*
X111835448Y-100002617D01*
X111840110Y-100009033D01*
X111840110Y-100009034D01*
X111861436Y-100038387D01*
X111867952Y-100048307D01*
X111890458Y-100086362D01*
X111904779Y-100100683D01*
X111917619Y-100115716D01*
X111929528Y-100132107D01*
X111935634Y-100137158D01*
X111963605Y-100160298D01*
X111972384Y-100168288D01*
X113086535Y-101282440D01*
X113120561Y-101344752D01*
X113122567Y-101386342D01*
X113100995Y-101568603D01*
X113115351Y-101787630D01*
X113169381Y-102000373D01*
X113261275Y-102199708D01*
X113264606Y-102204421D01*
X113264607Y-102204423D01*
X113359558Y-102338774D01*
X113387957Y-102378958D01*
X113392093Y-102382987D01*
X113481585Y-102470166D01*
X113545183Y-102532121D01*
X113549979Y-102535326D01*
X113549982Y-102535328D01*
X113623991Y-102584779D01*
X113727688Y-102654067D01*
X113732991Y-102656345D01*
X113732994Y-102656347D01*
X113915334Y-102734686D01*
X113929360Y-102740712D01*
X113957167Y-102747004D01*
X114019193Y-102781547D01*
X114052698Y-102844140D01*
X114047044Y-102914911D01*
X114004025Y-102971390D01*
X113972970Y-102988109D01*
X113789270Y-103055880D01*
X113778892Y-103060830D01*
X113669785Y-103125742D01*
X113660187Y-103136075D01*
X113663673Y-103144463D01*
X115293274Y-104774064D01*
X115305654Y-104780824D01*
X115312234Y-104775898D01*
X115392440Y-104632681D01*
X115397120Y-104622171D01*
X115431876Y-104519782D01*
X115472713Y-104461705D01*
X115538466Y-104434927D01*
X115608258Y-104447948D01*
X115640284Y-104471188D01*
X117606343Y-106437247D01*
X117613887Y-106445537D01*
X117618000Y-106452018D01*
X117623777Y-106457443D01*
X117667667Y-106498658D01*
X117670509Y-106501413D01*
X117690230Y-106521134D01*
X117693425Y-106523612D01*
X117702447Y-106531318D01*
X117734679Y-106561586D01*
X117741628Y-106565406D01*
X117752432Y-106571346D01*
X117768956Y-106582199D01*
X117784959Y-106594613D01*
X117825543Y-106612176D01*
X117836173Y-106617383D01*
X117874940Y-106638695D01*
X117882617Y-106640666D01*
X117882622Y-106640668D01*
X117894558Y-106643732D01*
X117913266Y-106650137D01*
X117931855Y-106658181D01*
X117939680Y-106659420D01*
X117939682Y-106659421D01*
X117975519Y-106665097D01*
X117987140Y-106667504D01*
X118018959Y-106675673D01*
X118029970Y-106678500D01*
X118050231Y-106678500D01*
X118069940Y-106680051D01*
X118089943Y-106683219D01*
X118097835Y-106682473D01*
X118103062Y-106681979D01*
X118133954Y-106679059D01*
X118145811Y-106678500D01*
X126921233Y-106678500D01*
X126932416Y-106679027D01*
X126939909Y-106680702D01*
X126947835Y-106680453D01*
X126947836Y-106680453D01*
X127007986Y-106678562D01*
X127011945Y-106678500D01*
X127039856Y-106678500D01*
X127043791Y-106678003D01*
X127043856Y-106677995D01*
X127055693Y-106677062D01*
X127087951Y-106676048D01*
X127091970Y-106675922D01*
X127099889Y-106675673D01*
X127119343Y-106670021D01*
X127138700Y-106666013D01*
X127150930Y-106664468D01*
X127150931Y-106664468D01*
X127158797Y-106663474D01*
X127166168Y-106660555D01*
X127166170Y-106660555D01*
X127199912Y-106647196D01*
X127211142Y-106643351D01*
X127245983Y-106633229D01*
X127245984Y-106633229D01*
X127253593Y-106631018D01*
X127260412Y-106626985D01*
X127260417Y-106626983D01*
X127271028Y-106620707D01*
X127288776Y-106612012D01*
X127307617Y-106604552D01*
X127327987Y-106589753D01*
X127343387Y-106578564D01*
X127353307Y-106572048D01*
X127384535Y-106553580D01*
X127384538Y-106553578D01*
X127391362Y-106549542D01*
X127405683Y-106535221D01*
X127420717Y-106522380D01*
X127422432Y-106521134D01*
X127437107Y-106510472D01*
X127465298Y-106476395D01*
X127473288Y-106467616D01*
X128027247Y-105913657D01*
X128035537Y-105906113D01*
X128042018Y-105902000D01*
X128088659Y-105852332D01*
X128091413Y-105849491D01*
X128111135Y-105829769D01*
X128113612Y-105826576D01*
X128121317Y-105817555D01*
X128146159Y-105791100D01*
X128151586Y-105785321D01*
X128157197Y-105775115D01*
X128161346Y-105767568D01*
X128172202Y-105751041D01*
X128179757Y-105741302D01*
X128179758Y-105741300D01*
X128184614Y-105735040D01*
X128202174Y-105694460D01*
X128207391Y-105683812D01*
X128224875Y-105652009D01*
X128224876Y-105652007D01*
X128228695Y-105645060D01*
X128233733Y-105625437D01*
X128240137Y-105606734D01*
X128245033Y-105595420D01*
X128245033Y-105595419D01*
X128248181Y-105588145D01*
X128249420Y-105580322D01*
X128249423Y-105580312D01*
X128255099Y-105544476D01*
X128257505Y-105532856D01*
X128266528Y-105497711D01*
X128266528Y-105497710D01*
X128268500Y-105490030D01*
X128268500Y-105469776D01*
X128270051Y-105450065D01*
X128271980Y-105437886D01*
X128273220Y-105430057D01*
X128269059Y-105386038D01*
X128268500Y-105374181D01*
X128268500Y-105143156D01*
X128901204Y-105143156D01*
X128911086Y-105155645D01*
X128963124Y-105190416D01*
X128973234Y-105195906D01*
X129164208Y-105277955D01*
X129175151Y-105281510D01*
X129377873Y-105327382D01*
X129389283Y-105328884D01*
X129596978Y-105337044D01*
X129608460Y-105336442D01*
X129814159Y-105306618D01*
X129825355Y-105303930D01*
X130022174Y-105237118D01*
X130032681Y-105232440D01*
X130171069Y-105154938D01*
X130180934Y-105144860D01*
X130177978Y-105137188D01*
X129552812Y-104512022D01*
X129538868Y-104504408D01*
X129537035Y-104504539D01*
X129530420Y-104508790D01*
X128907400Y-105131810D01*
X128901204Y-105143156D01*
X128268500Y-105143156D01*
X128268500Y-104804706D01*
X128288502Y-104736585D01*
X128342158Y-104690092D01*
X128412432Y-104679988D01*
X128477012Y-104709482D01*
X128503619Y-104741706D01*
X128505045Y-104744176D01*
X128524225Y-104771315D01*
X128534814Y-104779703D01*
X128548115Y-104772675D01*
X129179658Y-104141132D01*
X129904408Y-104141132D01*
X129904539Y-104142965D01*
X129908790Y-104149580D01*
X130533274Y-104774064D01*
X130545654Y-104780824D01*
X130552234Y-104775898D01*
X130632440Y-104632681D01*
X130637118Y-104622174D01*
X130703930Y-104425355D01*
X130706618Y-104414159D01*
X130736738Y-104206420D01*
X130737368Y-104199037D01*
X130738817Y-104143704D01*
X130738574Y-104136305D01*
X130719367Y-103927272D01*
X130717269Y-103915951D01*
X130660852Y-103715913D01*
X130656727Y-103705166D01*
X130564796Y-103518748D01*
X130558786Y-103508941D01*
X130557434Y-103507130D01*
X130546176Y-103498681D01*
X130533757Y-103505453D01*
X129912022Y-104127188D01*
X129904408Y-104141132D01*
X129179658Y-104141132D01*
X130172489Y-103148301D01*
X130179249Y-103135921D01*
X130173219Y-103127866D01*
X130089180Y-103074841D01*
X130078932Y-103069620D01*
X129885874Y-102992598D01*
X129874926Y-102989355D01*
X129815291Y-102950829D01*
X129785952Y-102886179D01*
X129796223Y-102815929D01*
X129842844Y-102762384D01*
X129870211Y-102749231D01*
X129913059Y-102734686D01*
X130027846Y-102695721D01*
X130219357Y-102588470D01*
X130388115Y-102448115D01*
X130507190Y-102304943D01*
X130524779Y-102283795D01*
X130528470Y-102279357D01*
X130635721Y-102087846D01*
X130671852Y-101981407D01*
X130704420Y-101885467D01*
X130704421Y-101885462D01*
X130706276Y-101879998D01*
X130707104Y-101874289D01*
X130707105Y-101874284D01*
X130737239Y-101666447D01*
X130737772Y-101662773D01*
X130739416Y-101600000D01*
X130722637Y-101417393D01*
X130719861Y-101387178D01*
X130719860Y-101387175D01*
X130719332Y-101381424D01*
X130674573Y-101222721D01*
X130661319Y-101175727D01*
X130661318Y-101175725D01*
X130659751Y-101170168D01*
X130657196Y-101164985D01*
X130565225Y-100978488D01*
X130562670Y-100973307D01*
X130521206Y-100917779D01*
X130434793Y-100802058D01*
X130434792Y-100802057D01*
X130431340Y-100797434D01*
X130270158Y-100648439D01*
X130084523Y-100531313D01*
X129880653Y-100449976D01*
X129875586Y-100448968D01*
X129816118Y-100410551D01*
X129786777Y-100345901D01*
X129797048Y-100275651D01*
X129843667Y-100222105D01*
X129871036Y-100208951D01*
X130003230Y-100164077D01*
X130027846Y-100155721D01*
X130219357Y-100048470D01*
X130231481Y-100038387D01*
X130383677Y-99911806D01*
X130388115Y-99908115D01*
X130528470Y-99739357D01*
X130530497Y-99741043D01*
X130576906Y-99703305D01*
X130625637Y-99693500D01*
X130731233Y-99693500D01*
X130742416Y-99694027D01*
X130749909Y-99695702D01*
X130757835Y-99695453D01*
X130757836Y-99695453D01*
X130817986Y-99693562D01*
X130821945Y-99693500D01*
X130849856Y-99693500D01*
X130853791Y-99693003D01*
X130853856Y-99692995D01*
X130865693Y-99692062D01*
X130897951Y-99691048D01*
X130901970Y-99690922D01*
X130909889Y-99690673D01*
X130929343Y-99685021D01*
X130948700Y-99681013D01*
X130960930Y-99679468D01*
X130960931Y-99679468D01*
X130968797Y-99678474D01*
X130976168Y-99675555D01*
X130976170Y-99675555D01*
X131009912Y-99662196D01*
X131021142Y-99658351D01*
X131055983Y-99648229D01*
X131055984Y-99648229D01*
X131063593Y-99646018D01*
X131070412Y-99641985D01*
X131070417Y-99641983D01*
X131081028Y-99635707D01*
X131098776Y-99627012D01*
X131117617Y-99619552D01*
X131153387Y-99593564D01*
X131163307Y-99587048D01*
X131194535Y-99568580D01*
X131194538Y-99568578D01*
X131201362Y-99564542D01*
X131215683Y-99550221D01*
X131230717Y-99537380D01*
X131240694Y-99530131D01*
X131247107Y-99525472D01*
X131275298Y-99491395D01*
X131283288Y-99482616D01*
X132472247Y-98293657D01*
X132480537Y-98286113D01*
X132487018Y-98282000D01*
X132533659Y-98232332D01*
X132536413Y-98229491D01*
X132556134Y-98209770D01*
X132558612Y-98206575D01*
X132566318Y-98197553D01*
X132591158Y-98171101D01*
X132596586Y-98165321D01*
X132606346Y-98147568D01*
X132617199Y-98131045D01*
X132624753Y-98121306D01*
X132629613Y-98115041D01*
X132647176Y-98074457D01*
X132652383Y-98063827D01*
X132673695Y-98025060D01*
X132675666Y-98017383D01*
X132675668Y-98017378D01*
X132678732Y-98005442D01*
X132685138Y-97986730D01*
X132687888Y-97980377D01*
X132693181Y-97968145D01*
X132694421Y-97960317D01*
X132694423Y-97960310D01*
X132700099Y-97924476D01*
X132702505Y-97912856D01*
X132711528Y-97877711D01*
X132711528Y-97877710D01*
X132713500Y-97870030D01*
X132713500Y-97849776D01*
X132715051Y-97830065D01*
X132716980Y-97817886D01*
X132718220Y-97810057D01*
X132714059Y-97766038D01*
X132713500Y-97754181D01*
X132713500Y-95813594D01*
X132733502Y-95745473D01*
X132787158Y-95698980D01*
X132857432Y-95688876D01*
X132922012Y-95718370D01*
X132928595Y-95724499D01*
X135946535Y-98742439D01*
X135980561Y-98804751D01*
X135982567Y-98846342D01*
X135960995Y-99028603D01*
X135975351Y-99247630D01*
X136029381Y-99460373D01*
X136121275Y-99659708D01*
X136124606Y-99664421D01*
X136124607Y-99664423D01*
X136230558Y-99814339D01*
X136247957Y-99838958D01*
X136405183Y-99992121D01*
X136409979Y-99995326D01*
X136409982Y-99995328D01*
X136420891Y-100002617D01*
X136587688Y-100114067D01*
X136592991Y-100116345D01*
X136592994Y-100116347D01*
X136713891Y-100168288D01*
X136789360Y-100200712D01*
X136816274Y-100206802D01*
X136878300Y-100241346D01*
X136911804Y-100303940D01*
X136906148Y-100374711D01*
X136863129Y-100431190D01*
X136832078Y-100447906D01*
X136643638Y-100517425D01*
X136638677Y-100520377D01*
X136638676Y-100520377D01*
X136459969Y-100626696D01*
X136459966Y-100626698D01*
X136455001Y-100629652D01*
X136289974Y-100774377D01*
X136154085Y-100946751D01*
X136151394Y-100951867D01*
X136151392Y-100951869D01*
X136054576Y-101135886D01*
X136051884Y-101141003D01*
X135986794Y-101350627D01*
X135960995Y-101568603D01*
X135975351Y-101787630D01*
X136029381Y-102000373D01*
X136121275Y-102199708D01*
X136124606Y-102204421D01*
X136124607Y-102204423D01*
X136219558Y-102338774D01*
X136247957Y-102378958D01*
X136252093Y-102382987D01*
X136341585Y-102470166D01*
X136405183Y-102532121D01*
X136409979Y-102535326D01*
X136409982Y-102535328D01*
X136483991Y-102584779D01*
X136587688Y-102654067D01*
X136592991Y-102656345D01*
X136592994Y-102656347D01*
X136775334Y-102734686D01*
X136789360Y-102740712D01*
X136816274Y-102746802D01*
X136878300Y-102781346D01*
X136911804Y-102843940D01*
X136906148Y-102914711D01*
X136863129Y-102971190D01*
X136832078Y-102987906D01*
X136643638Y-103057425D01*
X136638677Y-103060377D01*
X136638676Y-103060377D01*
X136459969Y-103166696D01*
X136459966Y-103166698D01*
X136455001Y-103169652D01*
X136348559Y-103262999D01*
X136306122Y-103300216D01*
X136289974Y-103314377D01*
X136154085Y-103486751D01*
X136151394Y-103491867D01*
X136151392Y-103491869D01*
X136060933Y-103663803D01*
X136051884Y-103681003D01*
X135986794Y-103890627D01*
X135960995Y-104108603D01*
X135975351Y-104327630D01*
X136029381Y-104540373D01*
X136121275Y-104739708D01*
X136124606Y-104744421D01*
X136124607Y-104744423D01*
X136221218Y-104881123D01*
X136247957Y-104918958D01*
X136405183Y-105072121D01*
X136409979Y-105075326D01*
X136409982Y-105075328D01*
X136516047Y-105146198D01*
X136587688Y-105194067D01*
X136592991Y-105196345D01*
X136592994Y-105196347D01*
X136684640Y-105235721D01*
X136789360Y-105280712D01*
X136903847Y-105306618D01*
X136995610Y-105327382D01*
X137003445Y-105329155D01*
X137009216Y-105329382D01*
X137009218Y-105329382D01*
X137082634Y-105332266D01*
X137222773Y-105337772D01*
X137314442Y-105324481D01*
X137434284Y-105307105D01*
X137434289Y-105307104D01*
X137439998Y-105306276D01*
X137445462Y-105304421D01*
X137445467Y-105304420D01*
X137642378Y-105237577D01*
X137647846Y-105235721D01*
X137839357Y-105128470D01*
X137865224Y-105106957D01*
X138003677Y-104991806D01*
X138008115Y-104988115D01*
X138148470Y-104819357D01*
X138255721Y-104627846D01*
X138301958Y-104491637D01*
X138324420Y-104425467D01*
X138324421Y-104425462D01*
X138326276Y-104419998D01*
X138327104Y-104414289D01*
X138327105Y-104414284D01*
X138353727Y-104230671D01*
X138357772Y-104202773D01*
X138359416Y-104140000D01*
X138344170Y-103974077D01*
X138339861Y-103927178D01*
X138339860Y-103927175D01*
X138339332Y-103921424D01*
X138329090Y-103885110D01*
X138281319Y-103715727D01*
X138281318Y-103715725D01*
X138279751Y-103710168D01*
X138272798Y-103696067D01*
X138185225Y-103518488D01*
X138182670Y-103513307D01*
X138178058Y-103507130D01*
X138054793Y-103342058D01*
X138054792Y-103342057D01*
X138051340Y-103337434D01*
X137940821Y-103235271D01*
X137894398Y-103192358D01*
X137894395Y-103192356D01*
X137890158Y-103188439D01*
X137704523Y-103071313D01*
X137691723Y-103066206D01*
X137658256Y-103052854D01*
X137500653Y-102989976D01*
X137495586Y-102988968D01*
X137436118Y-102950551D01*
X137406777Y-102885901D01*
X137409102Y-102870000D01*
X143141996Y-102870000D01*
X143142686Y-102876565D01*
X143160635Y-103047337D01*
X143161958Y-103059928D01*
X143220973Y-103241556D01*
X143224276Y-103247278D01*
X143224277Y-103247279D01*
X143241792Y-103277616D01*
X143316460Y-103406944D01*
X143320878Y-103411851D01*
X143320879Y-103411852D01*
X143417129Y-103518748D01*
X143444247Y-103548866D01*
X143598748Y-103661118D01*
X143604776Y-103663802D01*
X143604778Y-103663803D01*
X143709507Y-103710431D01*
X143773212Y-103738794D01*
X143866358Y-103758593D01*
X143953556Y-103777128D01*
X143953561Y-103777128D01*
X143960013Y-103778500D01*
X144150987Y-103778500D01*
X144157439Y-103777128D01*
X144157444Y-103777128D01*
X144244642Y-103758593D01*
X144337788Y-103738794D01*
X144401493Y-103710431D01*
X144506222Y-103663803D01*
X144506224Y-103663802D01*
X144512252Y-103661118D01*
X144666753Y-103548866D01*
X144693871Y-103518748D01*
X144790121Y-103411852D01*
X144790122Y-103411851D01*
X144794540Y-103406944D01*
X144869208Y-103277616D01*
X144886723Y-103247279D01*
X144886724Y-103247278D01*
X144890027Y-103241556D01*
X144949042Y-103059928D01*
X144950366Y-103047337D01*
X144968314Y-102876565D01*
X144969004Y-102870000D01*
X144959686Y-102781346D01*
X144949732Y-102686635D01*
X144949732Y-102686633D01*
X144949042Y-102680072D01*
X144890027Y-102498444D01*
X144863101Y-102451806D01*
X144823368Y-102382987D01*
X144795381Y-102334512D01*
X144778500Y-102271513D01*
X144778500Y-99762524D01*
X144798502Y-99694403D01*
X144810858Y-99678221D01*
X144884040Y-99596944D01*
X144959860Y-99465620D01*
X144976223Y-99437279D01*
X144976224Y-99437278D01*
X144979527Y-99431556D01*
X145038542Y-99249928D01*
X145058504Y-99060000D01*
X145044580Y-98927523D01*
X145039232Y-98876635D01*
X145039232Y-98876633D01*
X145038542Y-98870072D01*
X144979527Y-98688444D01*
X144884040Y-98523056D01*
X144832326Y-98465621D01*
X144760675Y-98386045D01*
X144760674Y-98386044D01*
X144756253Y-98381134D01*
X144624856Y-98285668D01*
X144607094Y-98272763D01*
X144607093Y-98272762D01*
X144601752Y-98268882D01*
X144595724Y-98266198D01*
X144595722Y-98266197D01*
X144433319Y-98193891D01*
X144433318Y-98193891D01*
X144427288Y-98191206D01*
X144332702Y-98171101D01*
X144246944Y-98152872D01*
X144246939Y-98152872D01*
X144240487Y-98151500D01*
X144049513Y-98151500D01*
X144043061Y-98152872D01*
X144043056Y-98152872D01*
X143957298Y-98171101D01*
X143862712Y-98191206D01*
X143856682Y-98193891D01*
X143856681Y-98193891D01*
X143694278Y-98266197D01*
X143694276Y-98266198D01*
X143688248Y-98268882D01*
X143682907Y-98272762D01*
X143682906Y-98272763D01*
X143665144Y-98285668D01*
X143533747Y-98381134D01*
X143529326Y-98386044D01*
X143529325Y-98386045D01*
X143457675Y-98465621D01*
X143405960Y-98523056D01*
X143310473Y-98688444D01*
X143251458Y-98870072D01*
X143250768Y-98876633D01*
X143250768Y-98876635D01*
X143245420Y-98927523D01*
X143231496Y-99060000D01*
X143251458Y-99249928D01*
X143310473Y-99431556D01*
X143313776Y-99437278D01*
X143313777Y-99437279D01*
X143330140Y-99465620D01*
X143405960Y-99596944D01*
X143479137Y-99678215D01*
X143509853Y-99742221D01*
X143511500Y-99762524D01*
X143511500Y-102078072D01*
X143491498Y-102146193D01*
X143459562Y-102180007D01*
X143444247Y-102191134D01*
X143439826Y-102196044D01*
X143439825Y-102196045D01*
X143361757Y-102282749D01*
X143316460Y-102333056D01*
X143287632Y-102382987D01*
X143247900Y-102451806D01*
X143220973Y-102498444D01*
X143161958Y-102680072D01*
X143161268Y-102686633D01*
X143161268Y-102686635D01*
X143151314Y-102781346D01*
X143141996Y-102870000D01*
X137409102Y-102870000D01*
X137417048Y-102815651D01*
X137463667Y-102762105D01*
X137491036Y-102748951D01*
X137552052Y-102728239D01*
X137647846Y-102695721D01*
X137839357Y-102588470D01*
X138008115Y-102448115D01*
X138127190Y-102304943D01*
X138144779Y-102283795D01*
X138148470Y-102279357D01*
X138179787Y-102223436D01*
X138230524Y-102173774D01*
X138300056Y-102159426D01*
X138366307Y-102184948D01*
X138383358Y-102200691D01*
X138453747Y-102278866D01*
X138503814Y-102315242D01*
X138597057Y-102382987D01*
X138608248Y-102391118D01*
X138614276Y-102393802D01*
X138614278Y-102393803D01*
X138726298Y-102443677D01*
X138782712Y-102468794D01*
X138855662Y-102484300D01*
X138963056Y-102507128D01*
X138963061Y-102507128D01*
X138969513Y-102508500D01*
X139160487Y-102508500D01*
X139166939Y-102507128D01*
X139166944Y-102507128D01*
X139274338Y-102484300D01*
X139347288Y-102468794D01*
X139403702Y-102443677D01*
X139515722Y-102393803D01*
X139515724Y-102393802D01*
X139521752Y-102391118D01*
X139532944Y-102382987D01*
X139626186Y-102315242D01*
X139676253Y-102278866D01*
X139804040Y-102136944D01*
X139879860Y-102005620D01*
X139896223Y-101977279D01*
X139896224Y-101977278D01*
X139899527Y-101971556D01*
X139958542Y-101789928D01*
X139978504Y-101600000D01*
X139974601Y-101562868D01*
X139959232Y-101416635D01*
X139959232Y-101416633D01*
X139958542Y-101410072D01*
X139899527Y-101228444D01*
X139893787Y-101218501D01*
X139849043Y-101141003D01*
X139804040Y-101063056D01*
X139730863Y-100981785D01*
X139700147Y-100917779D01*
X139698500Y-100897476D01*
X139698500Y-97768024D01*
X139718502Y-97699903D01*
X139730858Y-97683721D01*
X139804040Y-97602444D01*
X139899527Y-97437056D01*
X139958542Y-97255428D01*
X139967137Y-97173656D01*
X139977814Y-97072065D01*
X139978504Y-97065500D01*
X139958542Y-96875572D01*
X139899527Y-96693944D01*
X139804040Y-96528556D01*
X139762903Y-96482868D01*
X139680675Y-96391545D01*
X139680674Y-96391544D01*
X139676253Y-96386634D01*
X139521752Y-96274382D01*
X139515724Y-96271698D01*
X139515722Y-96271697D01*
X139353319Y-96199391D01*
X139353318Y-96199391D01*
X139347288Y-96196706D01*
X139253888Y-96176853D01*
X139166944Y-96158372D01*
X139166939Y-96158372D01*
X139160487Y-96157000D01*
X138969513Y-96157000D01*
X138963061Y-96158372D01*
X138963056Y-96158372D01*
X138876112Y-96176853D01*
X138782712Y-96196706D01*
X138776682Y-96199391D01*
X138776681Y-96199391D01*
X138676420Y-96244030D01*
X138606053Y-96253464D01*
X138541756Y-96223357D01*
X138503942Y-96163269D01*
X138504618Y-96092275D01*
X138536076Y-96039828D01*
X140092247Y-94483657D01*
X140100537Y-94476113D01*
X140107018Y-94472000D01*
X140153659Y-94422332D01*
X140156413Y-94419491D01*
X140176134Y-94399770D01*
X140178612Y-94396575D01*
X140186318Y-94387553D01*
X140211158Y-94361101D01*
X140216586Y-94355321D01*
X140226346Y-94337568D01*
X140237199Y-94321045D01*
X140244753Y-94311306D01*
X140249613Y-94305041D01*
X140267176Y-94264457D01*
X140272383Y-94253827D01*
X140293695Y-94215060D01*
X140295666Y-94207383D01*
X140295668Y-94207378D01*
X140298732Y-94195442D01*
X140305138Y-94176730D01*
X140310034Y-94165417D01*
X140313181Y-94158145D01*
X140316245Y-94138803D01*
X140320097Y-94114481D01*
X140322504Y-94102860D01*
X140331528Y-94067711D01*
X140331528Y-94067710D01*
X140333500Y-94060030D01*
X140333500Y-94039769D01*
X140335051Y-94020058D01*
X140335723Y-94015819D01*
X140338219Y-94000057D01*
X140334059Y-93956046D01*
X140333500Y-93944189D01*
X140333500Y-85357966D01*
X142178257Y-85357966D01*
X142208565Y-85492446D01*
X142211645Y-85502275D01*
X142291770Y-85699603D01*
X142296413Y-85708794D01*
X142407694Y-85890388D01*
X142413777Y-85898699D01*
X142553213Y-86059667D01*
X142560580Y-86066883D01*
X142724434Y-86202916D01*
X142732881Y-86208831D01*
X142916756Y-86316279D01*
X142926042Y-86320729D01*
X143125001Y-86396703D01*
X143134899Y-86399579D01*
X143238250Y-86420606D01*
X143252299Y-86419410D01*
X143256000Y-86409065D01*
X143256000Y-86408517D01*
X143764000Y-86408517D01*
X143768064Y-86422359D01*
X143781478Y-86424393D01*
X143788184Y-86423534D01*
X143798262Y-86421392D01*
X144002255Y-86360191D01*
X144011842Y-86356433D01*
X144203095Y-86262739D01*
X144211945Y-86257464D01*
X144385328Y-86133792D01*
X144393200Y-86127139D01*
X144544052Y-85976812D01*
X144550730Y-85968965D01*
X144675003Y-85796020D01*
X144680313Y-85787183D01*
X144774670Y-85596267D01*
X144778469Y-85586672D01*
X144840377Y-85382910D01*
X144842555Y-85372837D01*
X144843986Y-85361962D01*
X144841775Y-85347778D01*
X144828617Y-85344000D01*
X143782115Y-85344000D01*
X143766876Y-85348475D01*
X143765671Y-85349865D01*
X143764000Y-85357548D01*
X143764000Y-86408517D01*
X143256000Y-86408517D01*
X143256000Y-85362115D01*
X143251525Y-85346876D01*
X143250135Y-85345671D01*
X143242452Y-85344000D01*
X142193225Y-85344000D01*
X142179694Y-85347973D01*
X142178257Y-85357966D01*
X140333500Y-85357966D01*
X140333500Y-84134594D01*
X140353502Y-84066473D01*
X140370405Y-84045499D01*
X141195499Y-83220405D01*
X141257811Y-83186379D01*
X141284594Y-83183500D01*
X142025500Y-83183500D01*
X142093621Y-83203502D01*
X142140114Y-83257158D01*
X142151500Y-83309500D01*
X142151500Y-83448134D01*
X142158255Y-83510316D01*
X142209385Y-83646705D01*
X142296739Y-83763261D01*
X142413295Y-83850615D01*
X142421704Y-83853767D01*
X142421705Y-83853768D01*
X142530960Y-83894726D01*
X142587725Y-83937367D01*
X142612425Y-84003929D01*
X142597218Y-84073278D01*
X142577825Y-84099759D01*
X142454590Y-84228717D01*
X142448104Y-84236727D01*
X142328098Y-84412649D01*
X142323000Y-84421623D01*
X142233338Y-84614783D01*
X142229775Y-84624470D01*
X142174389Y-84824183D01*
X142175912Y-84832607D01*
X142188292Y-84836000D01*
X144828344Y-84836000D01*
X144841875Y-84832027D01*
X144843180Y-84822947D01*
X144801214Y-84655875D01*
X144797894Y-84646124D01*
X144712972Y-84450814D01*
X144708105Y-84441739D01*
X144592426Y-84262926D01*
X144586136Y-84254757D01*
X144442293Y-84096677D01*
X144411241Y-84032831D01*
X144419635Y-83962333D01*
X144464812Y-83907564D01*
X144491256Y-83893895D01*
X144598297Y-83853767D01*
X144606705Y-83850615D01*
X144723261Y-83763261D01*
X144810615Y-83646705D01*
X144861745Y-83510316D01*
X144868500Y-83448134D01*
X144868500Y-82039500D01*
X144888502Y-81971379D01*
X144942158Y-81924886D01*
X144994500Y-81913500D01*
X151051233Y-81913500D01*
X151062416Y-81914027D01*
X151069909Y-81915702D01*
X151077835Y-81915453D01*
X151077836Y-81915453D01*
X151137986Y-81913562D01*
X151141945Y-81913500D01*
X151169856Y-81913500D01*
X151173791Y-81913003D01*
X151173856Y-81912995D01*
X151185693Y-81912062D01*
X151217951Y-81911048D01*
X151221970Y-81910922D01*
X151229889Y-81910673D01*
X151249343Y-81905021D01*
X151268700Y-81901013D01*
X151280930Y-81899468D01*
X151280931Y-81899468D01*
X151288797Y-81898474D01*
X151296168Y-81895555D01*
X151296170Y-81895555D01*
X151329912Y-81882196D01*
X151341142Y-81878351D01*
X151375983Y-81868229D01*
X151375984Y-81868229D01*
X151383593Y-81866018D01*
X151390412Y-81861985D01*
X151390417Y-81861983D01*
X151401028Y-81855707D01*
X151418776Y-81847012D01*
X151437617Y-81839552D01*
X151473387Y-81813564D01*
X151483307Y-81807048D01*
X151514535Y-81788580D01*
X151514538Y-81788578D01*
X151521362Y-81784542D01*
X151535683Y-81770221D01*
X151550717Y-81757380D01*
X151560694Y-81750131D01*
X151567107Y-81745472D01*
X151595298Y-81711395D01*
X151603288Y-81702616D01*
X152792247Y-80513657D01*
X152800537Y-80506113D01*
X152807018Y-80502000D01*
X152853659Y-80452332D01*
X152856413Y-80449491D01*
X152876134Y-80429770D01*
X152878612Y-80426575D01*
X152886318Y-80417553D01*
X152911158Y-80391101D01*
X152916586Y-80385321D01*
X152926346Y-80367568D01*
X152937199Y-80351045D01*
X152938356Y-80349553D01*
X152949613Y-80335041D01*
X152967176Y-80294457D01*
X152972383Y-80283827D01*
X152993695Y-80245060D01*
X152995666Y-80237383D01*
X152995668Y-80237378D01*
X152998732Y-80225442D01*
X153005138Y-80206730D01*
X153010033Y-80195419D01*
X153013181Y-80188145D01*
X153014421Y-80180317D01*
X153014423Y-80180310D01*
X153020099Y-80144476D01*
X153022505Y-80132856D01*
X153031528Y-80097711D01*
X153031528Y-80097710D01*
X153033500Y-80090030D01*
X153033500Y-80069776D01*
X153035051Y-80050065D01*
X153036980Y-80037886D01*
X153038220Y-80030057D01*
X153034059Y-79986038D01*
X153033500Y-79974181D01*
X153033500Y-76271793D01*
X153035732Y-76248184D01*
X153035790Y-76247881D01*
X153035790Y-76247877D01*
X153037275Y-76240094D01*
X153033749Y-76184049D01*
X153033500Y-76176138D01*
X153033500Y-76160144D01*
X153031494Y-76144270D01*
X153030751Y-76136402D01*
X153027723Y-76088263D01*
X153027723Y-76088262D01*
X153027225Y-76080350D01*
X153024679Y-76072513D01*
X153019506Y-76049369D01*
X153019468Y-76049065D01*
X153019467Y-76049060D01*
X153018474Y-76041203D01*
X153015558Y-76033838D01*
X153015557Y-76033834D01*
X152997801Y-75988989D01*
X152995129Y-75981570D01*
X152977764Y-75928125D01*
X152973514Y-75921428D01*
X152973350Y-75921169D01*
X152962585Y-75900042D01*
X152962471Y-75899754D01*
X152962468Y-75899749D01*
X152959552Y-75892383D01*
X152954896Y-75885975D01*
X152954893Y-75885969D01*
X152926542Y-75846948D01*
X152922092Y-75840401D01*
X152892000Y-75792982D01*
X152885993Y-75787341D01*
X152870312Y-75769554D01*
X152870134Y-75769309D01*
X152870132Y-75769307D01*
X152865472Y-75762893D01*
X152857221Y-75756067D01*
X152822204Y-75727097D01*
X152816270Y-75721866D01*
X152781102Y-75688842D01*
X152781099Y-75688840D01*
X152775321Y-75683414D01*
X152768097Y-75679442D01*
X152748493Y-75666119D01*
X152744563Y-75662868D01*
X152735781Y-75654876D01*
X151211218Y-74130313D01*
X151177192Y-74068001D01*
X151179755Y-74004589D01*
X151190865Y-73968022D01*
X151192370Y-73963069D01*
X151221529Y-73741590D01*
X151222460Y-73703498D01*
X151223074Y-73678365D01*
X151223074Y-73678361D01*
X151223156Y-73675000D01*
X151204852Y-73452361D01*
X151150431Y-73235702D01*
X151061354Y-73030840D01*
X150955607Y-72867380D01*
X150942822Y-72847617D01*
X150942820Y-72847614D01*
X150940014Y-72843277D01*
X150789670Y-72678051D01*
X150785619Y-72674852D01*
X150785615Y-72674848D01*
X150618414Y-72542800D01*
X150618410Y-72542798D01*
X150614359Y-72539598D01*
X150573053Y-72516796D01*
X150523084Y-72466364D01*
X150508312Y-72396921D01*
X150533428Y-72330516D01*
X150560780Y-72303909D01*
X150604824Y-72272493D01*
X150739860Y-72176173D01*
X150898096Y-72018489D01*
X150941136Y-71958593D01*
X151025435Y-71841277D01*
X151028453Y-71837077D01*
X151031730Y-71830448D01*
X151125136Y-71641453D01*
X151125137Y-71641451D01*
X151127430Y-71636811D01*
X151192370Y-71423069D01*
X151221529Y-71201590D01*
X151222593Y-71158039D01*
X151223074Y-71138365D01*
X151223074Y-71138361D01*
X151223156Y-71135000D01*
X151204852Y-70912361D01*
X151150431Y-70695702D01*
X151061354Y-70490840D01*
X150994141Y-70386944D01*
X150942822Y-70307617D01*
X150942820Y-70307614D01*
X150940014Y-70303277D01*
X150789670Y-70138051D01*
X150785619Y-70134852D01*
X150785615Y-70134848D01*
X150618414Y-70002800D01*
X150618410Y-70002798D01*
X150614359Y-69999598D01*
X150573053Y-69976796D01*
X150523084Y-69926364D01*
X150508312Y-69856921D01*
X150533428Y-69790516D01*
X150560780Y-69763909D01*
X150604603Y-69732650D01*
X150739860Y-69636173D01*
X150898096Y-69478489D01*
X150975250Y-69371118D01*
X151025435Y-69301277D01*
X151028453Y-69297077D01*
X151127430Y-69096811D01*
X151192370Y-68883069D01*
X151221529Y-68661590D01*
X151223156Y-68595000D01*
X151204852Y-68372361D01*
X151150431Y-68155702D01*
X151061354Y-67950840D01*
X150992955Y-67845111D01*
X150942822Y-67767617D01*
X150942820Y-67767614D01*
X150940014Y-67763277D01*
X150789670Y-67598051D01*
X150785619Y-67594852D01*
X150785615Y-67594848D01*
X150618414Y-67462800D01*
X150618410Y-67462798D01*
X150614359Y-67459598D01*
X150573053Y-67436796D01*
X150523084Y-67386364D01*
X150508312Y-67316921D01*
X150533428Y-67250516D01*
X150560780Y-67223909D01*
X150625811Y-67177523D01*
X150739860Y-67096173D01*
X150769774Y-67066364D01*
X150894435Y-66942137D01*
X150898096Y-66938489D01*
X150935876Y-66885913D01*
X151025435Y-66761277D01*
X151028453Y-66757077D01*
X151046578Y-66720405D01*
X151125136Y-66561453D01*
X151125137Y-66561451D01*
X151127430Y-66556811D01*
X151170208Y-66416013D01*
X151190865Y-66348023D01*
X151190865Y-66348021D01*
X151192370Y-66343069D01*
X151221529Y-66121590D01*
X151221611Y-66118240D01*
X151223074Y-66058365D01*
X151223074Y-66058361D01*
X151223156Y-66055000D01*
X151204852Y-65832361D01*
X151150431Y-65615702D01*
X151061354Y-65410840D01*
X150962378Y-65257846D01*
X150942822Y-65227617D01*
X150942820Y-65227614D01*
X150940014Y-65223277D01*
X150789670Y-65058051D01*
X150785619Y-65054852D01*
X150785615Y-65054848D01*
X150618414Y-64922800D01*
X150618410Y-64922798D01*
X150614359Y-64919598D01*
X150573053Y-64896796D01*
X150523084Y-64846364D01*
X150508312Y-64776921D01*
X150533428Y-64710516D01*
X150560780Y-64683909D01*
X150628613Y-64635524D01*
X150739860Y-64556173D01*
X150753465Y-64542616D01*
X150894435Y-64402137D01*
X150898096Y-64398489D01*
X150904987Y-64388900D01*
X151025435Y-64221277D01*
X151028453Y-64217077D01*
X151031730Y-64210448D01*
X151125136Y-64021453D01*
X151125137Y-64021451D01*
X151127430Y-64016811D01*
X151192370Y-63803069D01*
X151221529Y-63581590D01*
X151221611Y-63578240D01*
X151223074Y-63518365D01*
X151223074Y-63518361D01*
X151223156Y-63515000D01*
X151204852Y-63292361D01*
X151150431Y-63075702D01*
X151061354Y-62870840D01*
X151016657Y-62801749D01*
X150942822Y-62687617D01*
X150942820Y-62687614D01*
X150940014Y-62683277D01*
X150936532Y-62679450D01*
X150792798Y-62521488D01*
X150761746Y-62457642D01*
X150770141Y-62387143D01*
X150815317Y-62332375D01*
X150841761Y-62318706D01*
X150948297Y-62278767D01*
X150956705Y-62275615D01*
X151073261Y-62188261D01*
X151160615Y-62071705D01*
X151211745Y-61935316D01*
X151218500Y-61873134D01*
X151218500Y-60076866D01*
X151211745Y-60014684D01*
X151160615Y-59878295D01*
X151073261Y-59761739D01*
X150956705Y-59674385D01*
X150820316Y-59623255D01*
X150758134Y-59616500D01*
X148961866Y-59616500D01*
X148899684Y-59623255D01*
X148763295Y-59674385D01*
X148646739Y-59761739D01*
X148559385Y-59878295D01*
X148508255Y-60014684D01*
X148501500Y-60076866D01*
X148501500Y-61873134D01*
X148508255Y-61935316D01*
X148559385Y-62071705D01*
X148646739Y-62188261D01*
X148763295Y-62275615D01*
X148771704Y-62278767D01*
X148771705Y-62278768D01*
X148880451Y-62319535D01*
X148937216Y-62362176D01*
X148961916Y-62428738D01*
X148946709Y-62498087D01*
X148927316Y-62524568D01*
X148823337Y-62633376D01*
X148800629Y-62657138D01*
X148797715Y-62661410D01*
X148797714Y-62661411D01*
X148748549Y-62733484D01*
X148674743Y-62841680D01*
X148647269Y-62900868D01*
X148587783Y-63029021D01*
X148580688Y-63044305D01*
X148520989Y-63259570D01*
X148497251Y-63481695D01*
X148497548Y-63486848D01*
X148497548Y-63486851D01*
X148502914Y-63579908D01*
X148510110Y-63704715D01*
X148511247Y-63709761D01*
X148511248Y-63709767D01*
X148532265Y-63803023D01*
X148559222Y-63922639D01*
X148643266Y-64129616D01*
X148667853Y-64169739D01*
X148754420Y-64311003D01*
X148759987Y-64320088D01*
X148906250Y-64488938D01*
X149078126Y-64631632D01*
X149104672Y-64647144D01*
X149151445Y-64674476D01*
X149200169Y-64726114D01*
X149213240Y-64795897D01*
X149186509Y-64861669D01*
X149146055Y-64895027D01*
X149133607Y-64901507D01*
X149129474Y-64904610D01*
X149129471Y-64904612D01*
X148959268Y-65032404D01*
X148954965Y-65035635D01*
X148800629Y-65197138D01*
X148674743Y-65381680D01*
X148639883Y-65456779D01*
X148588817Y-65566793D01*
X148580688Y-65584305D01*
X148520989Y-65799570D01*
X148497251Y-66021695D01*
X148497548Y-66026848D01*
X148497548Y-66026851D01*
X148509812Y-66239547D01*
X148510110Y-66244715D01*
X148511247Y-66249761D01*
X148511248Y-66249767D01*
X148531505Y-66339652D01*
X148559222Y-66462639D01*
X148643266Y-66669616D01*
X148688643Y-66743665D01*
X148754420Y-66851003D01*
X148759987Y-66860088D01*
X148906250Y-67028938D01*
X148974818Y-67085864D01*
X149068123Y-67163327D01*
X149078126Y-67171632D01*
X149093956Y-67180882D01*
X149151445Y-67214476D01*
X149200169Y-67266114D01*
X149213240Y-67335897D01*
X149186509Y-67401669D01*
X149146055Y-67435027D01*
X149133607Y-67441507D01*
X149129474Y-67444610D01*
X149129471Y-67444612D01*
X148961624Y-67570635D01*
X148954965Y-67575635D01*
X148951393Y-67579373D01*
X148859751Y-67675271D01*
X148800629Y-67737138D01*
X148674743Y-67921680D01*
X148672566Y-67926370D01*
X148672562Y-67926377D01*
X148670388Y-67931062D01*
X148623566Y-67984430D01*
X148555323Y-68004013D01*
X148487327Y-67983592D01*
X148467004Y-67967110D01*
X146730725Y-66230830D01*
X144877642Y-64377747D01*
X144870102Y-64369461D01*
X144865990Y-64362982D01*
X144840024Y-64338598D01*
X144816339Y-64316357D01*
X144813497Y-64313602D01*
X144793760Y-64293865D01*
X144790563Y-64291385D01*
X144781541Y-64283680D01*
X144775493Y-64278000D01*
X144755051Y-64258804D01*
X144719085Y-64197591D01*
X144721924Y-64126651D01*
X144728346Y-64111128D01*
X144775140Y-64016446D01*
X144775143Y-64016439D01*
X144777430Y-64011811D01*
X144842370Y-63798069D01*
X144871529Y-63576590D01*
X144873156Y-63510000D01*
X144854852Y-63287361D01*
X144800431Y-63070702D01*
X144711354Y-62865840D01*
X144636009Y-62749374D01*
X144592822Y-62682617D01*
X144592820Y-62682614D01*
X144590014Y-62678277D01*
X144570779Y-62657138D01*
X144442798Y-62516488D01*
X144411746Y-62452642D01*
X144420141Y-62382143D01*
X144465317Y-62327375D01*
X144491761Y-62313706D01*
X144598297Y-62273767D01*
X144606705Y-62270615D01*
X144723261Y-62183261D01*
X144810615Y-62066705D01*
X144861745Y-61930316D01*
X144868500Y-61868134D01*
X144868500Y-60071866D01*
X144861745Y-60009684D01*
X144810615Y-59873295D01*
X144723261Y-59756739D01*
X144606705Y-59669385D01*
X144470316Y-59618255D01*
X144408134Y-59611500D01*
X142611866Y-59611500D01*
X142549684Y-59618255D01*
X142413295Y-59669385D01*
X142296739Y-59756739D01*
X142291358Y-59763919D01*
X142227920Y-59848564D01*
X142171061Y-59891079D01*
X142100242Y-59896105D01*
X142037999Y-59862094D01*
X138933652Y-56757747D01*
X138926112Y-56749461D01*
X138922000Y-56742982D01*
X138872348Y-56696356D01*
X138869507Y-56693602D01*
X138849770Y-56673865D01*
X138846573Y-56671385D01*
X138837551Y-56663680D01*
X138833501Y-56659877D01*
X138805321Y-56633414D01*
X138798375Y-56629595D01*
X138798372Y-56629593D01*
X138787566Y-56623652D01*
X138771047Y-56612801D01*
X138770583Y-56612441D01*
X138755041Y-56600386D01*
X138747772Y-56597241D01*
X138747768Y-56597238D01*
X138714463Y-56582826D01*
X138703813Y-56577609D01*
X138665060Y-56556305D01*
X138645437Y-56551267D01*
X138626734Y-56544863D01*
X138615420Y-56539967D01*
X138615419Y-56539967D01*
X138608145Y-56536819D01*
X138600322Y-56535580D01*
X138600312Y-56535577D01*
X138564476Y-56529901D01*
X138552856Y-56527495D01*
X138517711Y-56518472D01*
X138517710Y-56518472D01*
X138510030Y-56516500D01*
X138489776Y-56516500D01*
X138470065Y-56514949D01*
X138465766Y-56514268D01*
X138450057Y-56511780D01*
X138424351Y-56514210D01*
X138406039Y-56515941D01*
X138394181Y-56516500D01*
X125801793Y-56516500D01*
X125778184Y-56514268D01*
X125777881Y-56514210D01*
X125777877Y-56514210D01*
X125770094Y-56512725D01*
X125714049Y-56516251D01*
X125706138Y-56516500D01*
X125690144Y-56516500D01*
X125674270Y-56518506D01*
X125666410Y-56519248D01*
X125638951Y-56520976D01*
X125618263Y-56522277D01*
X125618262Y-56522277D01*
X125610350Y-56522775D01*
X125602809Y-56525225D01*
X125602513Y-56525321D01*
X125579369Y-56530494D01*
X125579065Y-56530532D01*
X125579060Y-56530533D01*
X125571203Y-56531526D01*
X125563838Y-56534442D01*
X125563834Y-56534443D01*
X125518989Y-56552199D01*
X125511570Y-56554871D01*
X125458125Y-56572236D01*
X125451429Y-56576486D01*
X125451428Y-56576486D01*
X125451169Y-56576650D01*
X125430042Y-56587415D01*
X125429754Y-56587529D01*
X125429749Y-56587532D01*
X125422383Y-56590448D01*
X125415975Y-56595104D01*
X125415969Y-56595107D01*
X125376948Y-56623458D01*
X125370411Y-56627901D01*
X125322982Y-56658000D01*
X125317556Y-56663778D01*
X125317555Y-56663779D01*
X125317341Y-56664007D01*
X125299554Y-56679688D01*
X125299309Y-56679866D01*
X125299307Y-56679868D01*
X125292893Y-56684528D01*
X125287839Y-56690637D01*
X125287838Y-56690638D01*
X125257097Y-56727796D01*
X125251866Y-56733730D01*
X125218842Y-56768898D01*
X125218840Y-56768901D01*
X125213414Y-56774679D01*
X125209445Y-56781899D01*
X125196119Y-56801506D01*
X125195920Y-56801746D01*
X125195916Y-56801753D01*
X125190867Y-56807856D01*
X125181556Y-56827643D01*
X125166953Y-56858676D01*
X125163371Y-56865708D01*
X125136305Y-56914940D01*
X125134335Y-56922615D01*
X125134332Y-56922621D01*
X125134256Y-56922919D01*
X125126224Y-56945228D01*
X125126094Y-56945503D01*
X125126091Y-56945511D01*
X125122717Y-56952682D01*
X125114891Y-56993710D01*
X125114071Y-56998008D01*
X125079398Y-57063495D01*
X123107678Y-59035214D01*
X123046713Y-59068504D01*
X123046729Y-59068565D01*
X123046490Y-59068626D01*
X123045366Y-59069240D01*
X123034377Y-59071125D01*
X123031203Y-59071526D01*
X123031196Y-59071527D01*
X123030836Y-59068676D01*
X122973515Y-59066704D01*
X122912190Y-59022489D01*
X122814793Y-58892058D01*
X122814792Y-58892057D01*
X122811340Y-58887434D01*
X122714295Y-58797727D01*
X122654398Y-58742358D01*
X122654395Y-58742356D01*
X122650158Y-58738439D01*
X122464523Y-58621313D01*
X122260653Y-58539976D01*
X122254985Y-58538849D01*
X122254983Y-58538848D01*
X122051041Y-58498282D01*
X122051037Y-58498282D01*
X122045373Y-58497155D01*
X122039598Y-58497079D01*
X122039594Y-58497079D01*
X121928963Y-58495631D01*
X121825895Y-58494281D01*
X121820198Y-58495260D01*
X121820197Y-58495260D01*
X121615265Y-58530474D01*
X121609568Y-58531453D01*
X121403638Y-58607425D01*
X121398677Y-58610377D01*
X121398676Y-58610377D01*
X121219969Y-58716696D01*
X121219966Y-58716698D01*
X121215001Y-58719652D01*
X121049974Y-58864377D01*
X120914085Y-59036751D01*
X120911394Y-59041867D01*
X120911392Y-59041869D01*
X120838981Y-59179500D01*
X120811884Y-59231003D01*
X120746794Y-59440627D01*
X120720995Y-59658603D01*
X120735351Y-59877630D01*
X120789381Y-60090373D01*
X120881275Y-60289708D01*
X120884606Y-60294421D01*
X120884607Y-60294423D01*
X120978509Y-60427290D01*
X121007957Y-60468958D01*
X121165183Y-60622121D01*
X121169979Y-60625326D01*
X121169982Y-60625328D01*
X121243991Y-60674779D01*
X121347688Y-60744067D01*
X121352991Y-60746345D01*
X121352994Y-60746347D01*
X121444640Y-60785721D01*
X121549360Y-60830712D01*
X121576274Y-60836802D01*
X121638300Y-60871346D01*
X121671804Y-60933940D01*
X121666148Y-61004711D01*
X121623129Y-61061190D01*
X121592078Y-61077906D01*
X121403638Y-61147425D01*
X121398677Y-61150377D01*
X121398676Y-61150377D01*
X121219969Y-61256696D01*
X121219966Y-61256698D01*
X121215001Y-61259652D01*
X121049974Y-61404377D01*
X120914085Y-61576751D01*
X120911394Y-61581867D01*
X120911392Y-61581869D01*
X120815620Y-61763902D01*
X120811884Y-61771003D01*
X120779117Y-61876531D01*
X120754424Y-61956056D01*
X120746794Y-61980627D01*
X120720995Y-62198603D01*
X120735351Y-62417630D01*
X120744234Y-62452607D01*
X120772523Y-62563996D01*
X120769905Y-62634944D01*
X120729344Y-62693214D01*
X120663720Y-62720305D01*
X120650400Y-62721011D01*
X115739105Y-62721011D01*
X115670984Y-62701009D01*
X115650010Y-62684106D01*
X115512160Y-62546256D01*
X115478134Y-62483944D01*
X115476559Y-62439081D01*
X115494012Y-62318706D01*
X115497772Y-62292773D01*
X115499416Y-62230000D01*
X115484412Y-62066705D01*
X115479861Y-62017178D01*
X115479860Y-62017175D01*
X115479332Y-62011424D01*
X115469090Y-61975110D01*
X115421319Y-61805727D01*
X115421318Y-61805725D01*
X115419751Y-61800168D01*
X115412798Y-61786067D01*
X115325225Y-61608488D01*
X115322670Y-61603307D01*
X115314620Y-61592526D01*
X115194793Y-61432058D01*
X115194792Y-61432057D01*
X115191340Y-61427434D01*
X115054613Y-61301045D01*
X115034398Y-61282358D01*
X115034395Y-61282356D01*
X115030158Y-61278439D01*
X114844523Y-61161313D01*
X114833036Y-61156730D01*
X114758090Y-61126829D01*
X114702231Y-61083008D01*
X114678931Y-61015943D01*
X114695587Y-60946928D01*
X114746912Y-60897874D01*
X114804781Y-60883799D01*
X115030469Y-60883799D01*
X115037290Y-60883429D01*
X115088152Y-60877905D01*
X115103404Y-60874279D01*
X115223854Y-60829124D01*
X115239449Y-60820586D01*
X115341524Y-60744085D01*
X115354085Y-60731524D01*
X115430586Y-60629449D01*
X115439124Y-60613854D01*
X115484278Y-60493406D01*
X115487905Y-60478151D01*
X115493431Y-60427286D01*
X115493800Y-60420472D01*
X115493800Y-59962115D01*
X115489325Y-59946876D01*
X115487935Y-59945671D01*
X115480252Y-59944000D01*
X113124316Y-59944000D01*
X113109077Y-59948475D01*
X113107872Y-59949865D01*
X113106201Y-59957548D01*
X113106201Y-60420469D01*
X113106571Y-60427290D01*
X113112095Y-60478152D01*
X113115721Y-60493404D01*
X113160876Y-60613854D01*
X113169414Y-60629449D01*
X113245915Y-60731524D01*
X113258476Y-60744085D01*
X113360551Y-60820586D01*
X113376146Y-60829124D01*
X113496594Y-60874278D01*
X113511849Y-60877905D01*
X113562714Y-60883431D01*
X113569528Y-60883800D01*
X113792648Y-60883800D01*
X113860769Y-60903802D01*
X113907262Y-60957458D01*
X113917366Y-61027732D01*
X113887872Y-61092312D01*
X113836259Y-61128012D01*
X113783638Y-61147425D01*
X113778677Y-61150377D01*
X113778676Y-61150377D01*
X113599969Y-61256696D01*
X113599966Y-61256698D01*
X113595001Y-61259652D01*
X113429974Y-61404377D01*
X113294085Y-61576751D01*
X113291394Y-61581867D01*
X113291392Y-61581869D01*
X113195620Y-61763902D01*
X113191884Y-61771003D01*
X113159117Y-61876531D01*
X113134424Y-61956056D01*
X113126794Y-61980627D01*
X113100995Y-62198603D01*
X113115351Y-62417630D01*
X113116774Y-62423232D01*
X113118192Y-62428816D01*
X113115576Y-62499764D01*
X113085165Y-62548930D01*
X111367747Y-64266348D01*
X111359461Y-64273888D01*
X111352982Y-64278000D01*
X111347557Y-64283777D01*
X111306357Y-64327651D01*
X111303602Y-64330493D01*
X111283865Y-64350230D01*
X111281385Y-64353427D01*
X111273682Y-64362447D01*
X111243414Y-64394679D01*
X111239595Y-64401625D01*
X111239593Y-64401628D01*
X111233652Y-64412434D01*
X111222801Y-64428953D01*
X111210386Y-64444959D01*
X111207241Y-64452228D01*
X111207238Y-64452232D01*
X111192826Y-64485537D01*
X111187609Y-64496187D01*
X111166305Y-64534940D01*
X111164334Y-64542615D01*
X111164334Y-64542616D01*
X111161267Y-64554562D01*
X111154863Y-64573266D01*
X111146819Y-64591855D01*
X111145580Y-64599678D01*
X111145577Y-64599688D01*
X111139901Y-64635524D01*
X111137495Y-64647144D01*
X111126500Y-64689970D01*
X111126500Y-64710224D01*
X111124949Y-64729934D01*
X111121780Y-64749943D01*
X110490000Y-64749943D01*
X110490000Y-59417885D01*
X113106200Y-59417885D01*
X113110675Y-59433124D01*
X113112065Y-59434329D01*
X113119748Y-59436000D01*
X114027885Y-59436000D01*
X114043124Y-59431525D01*
X114044329Y-59430135D01*
X114046000Y-59422452D01*
X114046000Y-59417885D01*
X114554000Y-59417885D01*
X114558475Y-59433124D01*
X114559865Y-59434329D01*
X114567548Y-59436000D01*
X115475684Y-59436000D01*
X115490923Y-59431525D01*
X115492128Y-59430135D01*
X115493799Y-59422452D01*
X115493799Y-58959531D01*
X115493429Y-58952710D01*
X115487905Y-58901848D01*
X115484279Y-58886596D01*
X115439124Y-58766146D01*
X115430586Y-58750551D01*
X115354085Y-58648476D01*
X115341524Y-58635915D01*
X115239449Y-58559414D01*
X115223854Y-58550876D01*
X115103406Y-58505722D01*
X115088151Y-58502095D01*
X115037286Y-58496569D01*
X115030472Y-58496200D01*
X114572115Y-58496200D01*
X114556876Y-58500675D01*
X114555671Y-58502065D01*
X114554000Y-58509748D01*
X114554000Y-59417885D01*
X114046000Y-59417885D01*
X114046000Y-58514316D01*
X114041525Y-58499077D01*
X114040135Y-58497872D01*
X114032452Y-58496201D01*
X113569531Y-58496201D01*
X113562710Y-58496571D01*
X113511848Y-58502095D01*
X113496596Y-58505721D01*
X113376146Y-58550876D01*
X113360551Y-58559414D01*
X113258476Y-58635915D01*
X113245915Y-58648476D01*
X113169414Y-58750551D01*
X113160876Y-58766146D01*
X113115722Y-58886594D01*
X113112095Y-58901849D01*
X113106569Y-58952714D01*
X113106200Y-58959528D01*
X113106200Y-59417885D01*
X110490000Y-59417885D01*
X110490000Y-59374699D01*
X110510002Y-59306578D01*
X110567782Y-59258290D01*
X110620336Y-59236521D01*
X110645420Y-59226131D01*
X110651802Y-59222402D01*
X110884054Y-59086685D01*
X110884055Y-59086685D01*
X110887752Y-59084524D01*
X110902127Y-59073253D01*
X111105252Y-58913982D01*
X111108624Y-58911338D01*
X111117820Y-58901849D01*
X111272377Y-58742358D01*
X111303948Y-58709779D01*
X111306481Y-58706331D01*
X111306485Y-58706326D01*
X111467572Y-58487032D01*
X111470110Y-58483577D01*
X111518093Y-58395204D01*
X111601986Y-58240692D01*
X111601987Y-58240690D01*
X111604036Y-58236916D01*
X111691914Y-58004354D01*
X111701729Y-57978380D01*
X111701730Y-57978376D01*
X111703247Y-57974362D01*
X111742811Y-57801616D01*
X111764949Y-57704957D01*
X111764950Y-57704953D01*
X111765907Y-57700773D01*
X111769697Y-57658313D01*
X111790637Y-57423677D01*
X111790637Y-57423675D01*
X111790857Y-57421211D01*
X111791310Y-57378000D01*
X111789837Y-57356393D01*
X111772512Y-57102254D01*
X111772511Y-57102248D01*
X111772220Y-57097977D01*
X111715303Y-56823135D01*
X111621612Y-56558561D01*
X111619431Y-56554334D01*
X111494847Y-56312957D01*
X111494847Y-56312956D01*
X111492882Y-56309150D01*
X111331493Y-56079517D01*
X111332955Y-56078490D01*
X111308470Y-56019751D01*
X111320918Y-55949854D01*
X111369179Y-55897783D01*
X111433717Y-55880000D01*
X153255539Y-55880000D01*
X153323660Y-55900002D01*
G37*
%TD.AperFunction*%
%TA.AperFunction,Conductor*%
G36*
X133269532Y-83950838D02*
G01*
X133326368Y-83993385D01*
X133351179Y-84059905D01*
X133351500Y-84068894D01*
X133351500Y-85646233D01*
X133350973Y-85657416D01*
X133349298Y-85664909D01*
X133349547Y-85672835D01*
X133349547Y-85672836D01*
X133351438Y-85732986D01*
X133351500Y-85736945D01*
X133351500Y-85764856D01*
X133351997Y-85768790D01*
X133351997Y-85768791D01*
X133352005Y-85768856D01*
X133352938Y-85780693D01*
X133354327Y-85824889D01*
X133359978Y-85844339D01*
X133363987Y-85863700D01*
X133366526Y-85883797D01*
X133369445Y-85891168D01*
X133369445Y-85891170D01*
X133382804Y-85924912D01*
X133386649Y-85936142D01*
X133396185Y-85968965D01*
X133398982Y-85978593D01*
X133403015Y-85985412D01*
X133403017Y-85985417D01*
X133409293Y-85996028D01*
X133417988Y-86013776D01*
X133425448Y-86032617D01*
X133430110Y-86039033D01*
X133430110Y-86039034D01*
X133451436Y-86068387D01*
X133457952Y-86078307D01*
X133468745Y-86096556D01*
X133480458Y-86116362D01*
X133494779Y-86130683D01*
X133507619Y-86145716D01*
X133519528Y-86162107D01*
X133525634Y-86167158D01*
X133553605Y-86190298D01*
X133562384Y-86198288D01*
X135386348Y-88022253D01*
X135393888Y-88030539D01*
X135398000Y-88037018D01*
X135403777Y-88042443D01*
X135447651Y-88083643D01*
X135450493Y-88086398D01*
X135470230Y-88106135D01*
X135473427Y-88108615D01*
X135482447Y-88116318D01*
X135514679Y-88146586D01*
X135521625Y-88150405D01*
X135521628Y-88150407D01*
X135532434Y-88156348D01*
X135548953Y-88167199D01*
X135564959Y-88179614D01*
X135572228Y-88182759D01*
X135572232Y-88182762D01*
X135605537Y-88197174D01*
X135616187Y-88202391D01*
X135654940Y-88223695D01*
X135662615Y-88225666D01*
X135662616Y-88225666D01*
X135674562Y-88228733D01*
X135693267Y-88235137D01*
X135711855Y-88243181D01*
X135719678Y-88244420D01*
X135719688Y-88244423D01*
X135755524Y-88250099D01*
X135767144Y-88252505D01*
X135802289Y-88261528D01*
X135809970Y-88263500D01*
X135830224Y-88263500D01*
X135849934Y-88265051D01*
X135869943Y-88268220D01*
X135877835Y-88267474D01*
X135913961Y-88264059D01*
X135925819Y-88263500D01*
X135940606Y-88263500D01*
X136008727Y-88283502D01*
X136043819Y-88317229D01*
X136153802Y-88474300D01*
X136315700Y-88636198D01*
X136320211Y-88639357D01*
X136324424Y-88642892D01*
X136323106Y-88644463D01*
X136361841Y-88692941D01*
X136369136Y-88763562D01*
X136334327Y-88829769D01*
X133957504Y-91206591D01*
X131687747Y-93476348D01*
X131679461Y-93483888D01*
X131672982Y-93488000D01*
X131667557Y-93493777D01*
X131626357Y-93537651D01*
X131623602Y-93540493D01*
X131603865Y-93560230D01*
X131601385Y-93563427D01*
X131593682Y-93572447D01*
X131563414Y-93604679D01*
X131559595Y-93611625D01*
X131559593Y-93611628D01*
X131553652Y-93622434D01*
X131542801Y-93638953D01*
X131530386Y-93654959D01*
X131527241Y-93662228D01*
X131527238Y-93662232D01*
X131512826Y-93695537D01*
X131507609Y-93706187D01*
X131486305Y-93744940D01*
X131484334Y-93752615D01*
X131484334Y-93752616D01*
X131481267Y-93764562D01*
X131474863Y-93783266D01*
X131466819Y-93801855D01*
X131465580Y-93809678D01*
X131465577Y-93809688D01*
X131459901Y-93845524D01*
X131457495Y-93857144D01*
X131446500Y-93899970D01*
X131446500Y-93920224D01*
X131444949Y-93939934D01*
X131441780Y-93959943D01*
X131442526Y-93967835D01*
X131445941Y-94003961D01*
X131446500Y-94015819D01*
X131446500Y-97475405D01*
X131426498Y-97543526D01*
X131409595Y-97564500D01*
X130656260Y-98317835D01*
X130593948Y-98351861D01*
X130523133Y-98346796D01*
X130466208Y-98304129D01*
X130431340Y-98257434D01*
X130376399Y-98206647D01*
X130274398Y-98112358D01*
X130274395Y-98112356D01*
X130270158Y-98108439D01*
X130084523Y-97991313D01*
X130073036Y-97986730D01*
X129998090Y-97956829D01*
X129942231Y-97913008D01*
X129918931Y-97845943D01*
X129935587Y-97776928D01*
X129986912Y-97727874D01*
X130044781Y-97713799D01*
X130270469Y-97713799D01*
X130277290Y-97713429D01*
X130328152Y-97707905D01*
X130343404Y-97704279D01*
X130463854Y-97659124D01*
X130479449Y-97650586D01*
X130581524Y-97574085D01*
X130594085Y-97561524D01*
X130670586Y-97459449D01*
X130679124Y-97443854D01*
X130724278Y-97323406D01*
X130727905Y-97308151D01*
X130733431Y-97257286D01*
X130733800Y-97250472D01*
X130733800Y-96792115D01*
X130729325Y-96776876D01*
X130727935Y-96775671D01*
X130720252Y-96774000D01*
X128364316Y-96774000D01*
X128349077Y-96778475D01*
X128347872Y-96779865D01*
X128346201Y-96787548D01*
X128346201Y-97250469D01*
X128346571Y-97257290D01*
X128352095Y-97308152D01*
X128355721Y-97323404D01*
X128400876Y-97443854D01*
X128409414Y-97459449D01*
X128485915Y-97561524D01*
X128498476Y-97574085D01*
X128600551Y-97650586D01*
X128616146Y-97659124D01*
X128736594Y-97704278D01*
X128751849Y-97707905D01*
X128802714Y-97713431D01*
X128809528Y-97713800D01*
X129032648Y-97713800D01*
X129100769Y-97733802D01*
X129147262Y-97787458D01*
X129157366Y-97857732D01*
X129127872Y-97922312D01*
X129076259Y-97958012D01*
X129023638Y-97977425D01*
X129018677Y-97980377D01*
X129018676Y-97980377D01*
X128839969Y-98086696D01*
X128839966Y-98086698D01*
X128835001Y-98089652D01*
X128669974Y-98234377D01*
X128534085Y-98406751D01*
X128531394Y-98411867D01*
X128531392Y-98411869D01*
X128434576Y-98595886D01*
X128431884Y-98601003D01*
X128422946Y-98629789D01*
X128368619Y-98804751D01*
X128366794Y-98810627D01*
X128340995Y-99028603D01*
X128355351Y-99247630D01*
X128409381Y-99460373D01*
X128501275Y-99659708D01*
X128504606Y-99664421D01*
X128504607Y-99664423D01*
X128610558Y-99814339D01*
X128627957Y-99838958D01*
X128785183Y-99992121D01*
X128789979Y-99995326D01*
X128789982Y-99995328D01*
X128800891Y-100002617D01*
X128967688Y-100114067D01*
X128972991Y-100116345D01*
X128972994Y-100116347D01*
X129093891Y-100168288D01*
X129169360Y-100200712D01*
X129196274Y-100206802D01*
X129258300Y-100241346D01*
X129291804Y-100303940D01*
X129286148Y-100374711D01*
X129243129Y-100431190D01*
X129212078Y-100447906D01*
X129023638Y-100517425D01*
X129018677Y-100520377D01*
X129018676Y-100520377D01*
X128839969Y-100626696D01*
X128839966Y-100626698D01*
X128835001Y-100629652D01*
X128669974Y-100774377D01*
X128534085Y-100946751D01*
X128531394Y-100951867D01*
X128531392Y-100951869D01*
X128434576Y-101135886D01*
X128431884Y-101141003D01*
X128366794Y-101350627D01*
X128340995Y-101568603D01*
X128355351Y-101787630D01*
X128356773Y-101793228D01*
X128356774Y-101793236D01*
X128358193Y-101798822D01*
X128355574Y-101869771D01*
X128325165Y-101918931D01*
X127777986Y-102466109D01*
X127242747Y-103001348D01*
X127234461Y-103008888D01*
X127227982Y-103013000D01*
X127222557Y-103018777D01*
X127181357Y-103062651D01*
X127178602Y-103065493D01*
X127158865Y-103085230D01*
X127156385Y-103088427D01*
X127148682Y-103097447D01*
X127118414Y-103129679D01*
X127114595Y-103136625D01*
X127114593Y-103136628D01*
X127108652Y-103147434D01*
X127097801Y-103163953D01*
X127085386Y-103179959D01*
X127082241Y-103187228D01*
X127082238Y-103187232D01*
X127067826Y-103220537D01*
X127062609Y-103231187D01*
X127041305Y-103269940D01*
X127039334Y-103277615D01*
X127039334Y-103277616D01*
X127036267Y-103289562D01*
X127029863Y-103308266D01*
X127021819Y-103326855D01*
X127020579Y-103334682D01*
X127018559Y-103341635D01*
X126980345Y-103401469D01*
X126915848Y-103431145D01*
X126845545Y-103421240D01*
X126794350Y-103378749D01*
X126739361Y-103300216D01*
X126739356Y-103300210D01*
X126736198Y-103295700D01*
X126574300Y-103133802D01*
X126569792Y-103130645D01*
X126569789Y-103130643D01*
X126459424Y-103053365D01*
X126386749Y-103002477D01*
X126381767Y-103000154D01*
X126379973Y-102999118D01*
X126330981Y-102947734D01*
X126317546Y-102878021D01*
X126343934Y-102812110D01*
X126379973Y-102780882D01*
X126381767Y-102779846D01*
X126386749Y-102777523D01*
X126499144Y-102698823D01*
X126569789Y-102649357D01*
X126569792Y-102649355D01*
X126574300Y-102646198D01*
X126736198Y-102484300D01*
X126747056Y-102468794D01*
X126813260Y-102374244D01*
X126867523Y-102296749D01*
X126869846Y-102291767D01*
X126869849Y-102291762D01*
X126961961Y-102094225D01*
X126961961Y-102094224D01*
X126964284Y-102089243D01*
X126966124Y-102082378D01*
X127022119Y-101873402D01*
X127022119Y-101873400D01*
X127023543Y-101868087D01*
X127043498Y-101640000D01*
X127023543Y-101411913D01*
X127016692Y-101386345D01*
X126965707Y-101196067D01*
X126965706Y-101196065D01*
X126964284Y-101190757D01*
X126961961Y-101185775D01*
X126869849Y-100988238D01*
X126869846Y-100988233D01*
X126867523Y-100983251D01*
X126736198Y-100795700D01*
X126574300Y-100633802D01*
X126569792Y-100630645D01*
X126569789Y-100630643D01*
X126424876Y-100529174D01*
X126386749Y-100502477D01*
X126381767Y-100500154D01*
X126381762Y-100500151D01*
X126184225Y-100408039D01*
X126184224Y-100408039D01*
X126179243Y-100405716D01*
X126173935Y-100404294D01*
X126173933Y-100404293D01*
X125963402Y-100347881D01*
X125963400Y-100347881D01*
X125958087Y-100346457D01*
X125730000Y-100326502D01*
X125501913Y-100346457D01*
X125496600Y-100347881D01*
X125496598Y-100347881D01*
X125286067Y-100404293D01*
X125286065Y-100404294D01*
X125280757Y-100405716D01*
X125275776Y-100408039D01*
X125275775Y-100408039D01*
X125078238Y-100500151D01*
X125078233Y-100500154D01*
X125073251Y-100502477D01*
X125035124Y-100529174D01*
X124890211Y-100630643D01*
X124890208Y-100630645D01*
X124885700Y-100633802D01*
X124723802Y-100795700D01*
X124592477Y-100983251D01*
X124590154Y-100988233D01*
X124590151Y-100988238D01*
X124498039Y-101185775D01*
X124495716Y-101190757D01*
X124494294Y-101196065D01*
X124494293Y-101196067D01*
X124443308Y-101386345D01*
X124436457Y-101411913D01*
X124416502Y-101640000D01*
X124436457Y-101868087D01*
X124437881Y-101873400D01*
X124437881Y-101873402D01*
X124493877Y-102082378D01*
X124495716Y-102089243D01*
X124498039Y-102094224D01*
X124498039Y-102094225D01*
X124590151Y-102291762D01*
X124590154Y-102291767D01*
X124592477Y-102296749D01*
X124646740Y-102374244D01*
X124712945Y-102468794D01*
X124723802Y-102484300D01*
X124885700Y-102646198D01*
X124890208Y-102649355D01*
X124890211Y-102649357D01*
X124960856Y-102698823D01*
X125073251Y-102777523D01*
X125078233Y-102779846D01*
X125080027Y-102780882D01*
X125129019Y-102832266D01*
X125142454Y-102901979D01*
X125116066Y-102967890D01*
X125080027Y-102999118D01*
X125078233Y-103000154D01*
X125073251Y-103002477D01*
X125000576Y-103053365D01*
X124890211Y-103130643D01*
X124890208Y-103130645D01*
X124885700Y-103133802D01*
X124723802Y-103295700D01*
X124720645Y-103300208D01*
X124720643Y-103300211D01*
X124715003Y-103308266D01*
X124592477Y-103483251D01*
X124590154Y-103488233D01*
X124590151Y-103488238D01*
X124500264Y-103681003D01*
X124495716Y-103690757D01*
X124494294Y-103696065D01*
X124494293Y-103696067D01*
X124440624Y-103896362D01*
X124436457Y-103911913D01*
X124416502Y-104140000D01*
X124436457Y-104368087D01*
X124437881Y-104373400D01*
X124437881Y-104373402D01*
X124475025Y-104512022D01*
X124495716Y-104589243D01*
X124498039Y-104594224D01*
X124498039Y-104594225D01*
X124590151Y-104791762D01*
X124590154Y-104791767D01*
X124592477Y-104796749D01*
X124723802Y-104984300D01*
X124885700Y-105146198D01*
X124890208Y-105149355D01*
X124890211Y-105149357D01*
X124937240Y-105182287D01*
X124981568Y-105237744D01*
X124988877Y-105308364D01*
X124956846Y-105371724D01*
X124895645Y-105407709D01*
X124864969Y-105411500D01*
X122576829Y-105411500D01*
X122508708Y-105391498D01*
X122462215Y-105337842D01*
X122452111Y-105267568D01*
X122481605Y-105202988D01*
X122515263Y-105175566D01*
X122594315Y-105131294D01*
X122594318Y-105131292D01*
X122599357Y-105128470D01*
X122625224Y-105106957D01*
X122763677Y-104991806D01*
X122768115Y-104988115D01*
X122908470Y-104819357D01*
X123015721Y-104627846D01*
X123061958Y-104491637D01*
X123084420Y-104425467D01*
X123084421Y-104425462D01*
X123086276Y-104419998D01*
X123087104Y-104414289D01*
X123087105Y-104414284D01*
X123113727Y-104230671D01*
X123117772Y-104202773D01*
X123119416Y-104140000D01*
X123104170Y-103974077D01*
X123099861Y-103927178D01*
X123099860Y-103927175D01*
X123099332Y-103921424D01*
X123089090Y-103885110D01*
X123041319Y-103715727D01*
X123041318Y-103715725D01*
X123039751Y-103710168D01*
X123032798Y-103696067D01*
X122945225Y-103518488D01*
X122942670Y-103513307D01*
X122938058Y-103507130D01*
X122814793Y-103342058D01*
X122814792Y-103342057D01*
X122811340Y-103337434D01*
X122700821Y-103235271D01*
X122654398Y-103192358D01*
X122654395Y-103192356D01*
X122650158Y-103188439D01*
X122464523Y-103071313D01*
X122451723Y-103066206D01*
X122418256Y-103052854D01*
X122260653Y-102989976D01*
X122255586Y-102988968D01*
X122196118Y-102950551D01*
X122166777Y-102885901D01*
X122177048Y-102815651D01*
X122223667Y-102762105D01*
X122251036Y-102748951D01*
X122312052Y-102728239D01*
X122407846Y-102695721D01*
X122599357Y-102588470D01*
X122768115Y-102448115D01*
X122887190Y-102304943D01*
X122904779Y-102283795D01*
X122908470Y-102279357D01*
X123015721Y-102087846D01*
X123051852Y-101981407D01*
X123084420Y-101885467D01*
X123084421Y-101885462D01*
X123086276Y-101879998D01*
X123087104Y-101874289D01*
X123087105Y-101874284D01*
X123117239Y-101666447D01*
X123117772Y-101662773D01*
X123119416Y-101600000D01*
X123102637Y-101417393D01*
X123099861Y-101387178D01*
X123099860Y-101387175D01*
X123099332Y-101381424D01*
X123054573Y-101222721D01*
X123041319Y-101175727D01*
X123041318Y-101175725D01*
X123039751Y-101170168D01*
X123037196Y-101164985D01*
X122945225Y-100978488D01*
X122942670Y-100973307D01*
X122901206Y-100917779D01*
X122814793Y-100802058D01*
X122814792Y-100802057D01*
X122811340Y-100797434D01*
X122650158Y-100648439D01*
X122464523Y-100531313D01*
X122260653Y-100449976D01*
X122255586Y-100448968D01*
X122196118Y-100410551D01*
X122166777Y-100345901D01*
X122177048Y-100275651D01*
X122223667Y-100222105D01*
X122251036Y-100208951D01*
X122383230Y-100164077D01*
X122407846Y-100155721D01*
X122599357Y-100048470D01*
X122611481Y-100038387D01*
X122763677Y-99911806D01*
X122768115Y-99908115D01*
X122908470Y-99739357D01*
X123015721Y-99547846D01*
X123047315Y-99454773D01*
X123084420Y-99345467D01*
X123084421Y-99345462D01*
X123086276Y-99339998D01*
X123087104Y-99334289D01*
X123087105Y-99334284D01*
X123117239Y-99126447D01*
X123117772Y-99122773D01*
X123119416Y-99060000D01*
X123106953Y-98924366D01*
X123099861Y-98847178D01*
X123099860Y-98847175D01*
X123099332Y-98841424D01*
X123085478Y-98792301D01*
X123041319Y-98635727D01*
X123041318Y-98635725D01*
X123039751Y-98630168D01*
X123025369Y-98601003D01*
X122945225Y-98438488D01*
X122945223Y-98438484D01*
X122942670Y-98433307D01*
X122878070Y-98346796D01*
X122814793Y-98262058D01*
X122814792Y-98262057D01*
X122811340Y-98257434D01*
X122704175Y-98158372D01*
X122654398Y-98112358D01*
X122654395Y-98112356D01*
X122650158Y-98108439D01*
X122464523Y-97991313D01*
X122260653Y-97909976D01*
X122255586Y-97908968D01*
X122196118Y-97870551D01*
X122166777Y-97805901D01*
X122169102Y-97790000D01*
X124416502Y-97790000D01*
X124436457Y-98018087D01*
X124437881Y-98023400D01*
X124437881Y-98023402D01*
X124487819Y-98209770D01*
X124495716Y-98239243D01*
X124498039Y-98244224D01*
X124498039Y-98244225D01*
X124590151Y-98441762D01*
X124590154Y-98441767D01*
X124592477Y-98446749D01*
X124637529Y-98511090D01*
X124717282Y-98624988D01*
X124723802Y-98634300D01*
X124885700Y-98796198D01*
X124890208Y-98799355D01*
X124890211Y-98799357D01*
X124914500Y-98816364D01*
X125073251Y-98927523D01*
X125078233Y-98929846D01*
X125078238Y-98929849D01*
X125275775Y-99021961D01*
X125280757Y-99024284D01*
X125286065Y-99025706D01*
X125286067Y-99025707D01*
X125496598Y-99082119D01*
X125496600Y-99082119D01*
X125501913Y-99083543D01*
X125730000Y-99103498D01*
X125958087Y-99083543D01*
X125963400Y-99082119D01*
X125963402Y-99082119D01*
X126173933Y-99025707D01*
X126173935Y-99025706D01*
X126179243Y-99024284D01*
X126184225Y-99021961D01*
X126381762Y-98929849D01*
X126381767Y-98929846D01*
X126386749Y-98927523D01*
X126545500Y-98816364D01*
X126569789Y-98799357D01*
X126569792Y-98799355D01*
X126574300Y-98796198D01*
X126736198Y-98634300D01*
X126742719Y-98624988D01*
X126822471Y-98511090D01*
X126867523Y-98446749D01*
X126869846Y-98441767D01*
X126869849Y-98441762D01*
X126961961Y-98244225D01*
X126961961Y-98244224D01*
X126964284Y-98239243D01*
X126972182Y-98209770D01*
X127022119Y-98023402D01*
X127022119Y-98023400D01*
X127023543Y-98018087D01*
X127043498Y-97790000D01*
X127023543Y-97561913D01*
X127015979Y-97533685D01*
X126965707Y-97346067D01*
X126965706Y-97346065D01*
X126964284Y-97340757D01*
X126922184Y-97250472D01*
X126869849Y-97138238D01*
X126869846Y-97138233D01*
X126867523Y-97133251D01*
X126779713Y-97007846D01*
X126739357Y-96950211D01*
X126739355Y-96950208D01*
X126736198Y-96945700D01*
X126574300Y-96783802D01*
X126569792Y-96780645D01*
X126569789Y-96780643D01*
X126445970Y-96693944D01*
X126386749Y-96652477D01*
X126381767Y-96650154D01*
X126379973Y-96649118D01*
X126330981Y-96597734D01*
X126317546Y-96528021D01*
X126343934Y-96462110D01*
X126379973Y-96430882D01*
X126381767Y-96429846D01*
X126386749Y-96427523D01*
X126566837Y-96301424D01*
X126569789Y-96299357D01*
X126569792Y-96299355D01*
X126574300Y-96296198D01*
X126622613Y-96247885D01*
X128346200Y-96247885D01*
X128350675Y-96263124D01*
X128352065Y-96264329D01*
X128359748Y-96266000D01*
X129267885Y-96266000D01*
X129283124Y-96261525D01*
X129284329Y-96260135D01*
X129286000Y-96252452D01*
X129286000Y-96247885D01*
X129794000Y-96247885D01*
X129798475Y-96263124D01*
X129799865Y-96264329D01*
X129807548Y-96266000D01*
X130715684Y-96266000D01*
X130730923Y-96261525D01*
X130732128Y-96260135D01*
X130733799Y-96252452D01*
X130733799Y-95789531D01*
X130733429Y-95782710D01*
X130727905Y-95731848D01*
X130724279Y-95716596D01*
X130679124Y-95596146D01*
X130670586Y-95580551D01*
X130594085Y-95478476D01*
X130581524Y-95465915D01*
X130479449Y-95389414D01*
X130463854Y-95380876D01*
X130343406Y-95335722D01*
X130328151Y-95332095D01*
X130277286Y-95326569D01*
X130270472Y-95326200D01*
X129812115Y-95326200D01*
X129796876Y-95330675D01*
X129795671Y-95332065D01*
X129794000Y-95339748D01*
X129794000Y-96247885D01*
X129286000Y-96247885D01*
X129286000Y-95344316D01*
X129281525Y-95329077D01*
X129280135Y-95327872D01*
X129272452Y-95326201D01*
X128809531Y-95326201D01*
X128802710Y-95326571D01*
X128751848Y-95332095D01*
X128736596Y-95335721D01*
X128616146Y-95380876D01*
X128600551Y-95389414D01*
X128498476Y-95465915D01*
X128485915Y-95478476D01*
X128409414Y-95580551D01*
X128400876Y-95596146D01*
X128355722Y-95716594D01*
X128352095Y-95731849D01*
X128346569Y-95782714D01*
X128346200Y-95789528D01*
X128346200Y-96247885D01*
X126622613Y-96247885D01*
X126736198Y-96134300D01*
X126867523Y-95946749D01*
X126869846Y-95941767D01*
X126869849Y-95941762D01*
X126961961Y-95744225D01*
X126961961Y-95744224D01*
X126964284Y-95739243D01*
X126966266Y-95731848D01*
X127022119Y-95523402D01*
X127022119Y-95523400D01*
X127023543Y-95518087D01*
X127043498Y-95290000D01*
X127023543Y-95061913D01*
X127013518Y-95024500D01*
X126965707Y-94846067D01*
X126965706Y-94846065D01*
X126964284Y-94840757D01*
X126961961Y-94835775D01*
X126869849Y-94638238D01*
X126869846Y-94638233D01*
X126867523Y-94633251D01*
X126754614Y-94472000D01*
X126739357Y-94450211D01*
X126739355Y-94450208D01*
X126736198Y-94445700D01*
X126574300Y-94283802D01*
X126569792Y-94280645D01*
X126569789Y-94280643D01*
X126476278Y-94215166D01*
X126386749Y-94152477D01*
X126381767Y-94150154D01*
X126381762Y-94150151D01*
X126184225Y-94058039D01*
X126184224Y-94058039D01*
X126179243Y-94055716D01*
X126173935Y-94054294D01*
X126173933Y-94054293D01*
X125963402Y-93997881D01*
X125963400Y-93997881D01*
X125958087Y-93996457D01*
X125730000Y-93976502D01*
X125501913Y-93996457D01*
X125496600Y-93997881D01*
X125496598Y-93997881D01*
X125286067Y-94054293D01*
X125286065Y-94054294D01*
X125280757Y-94055716D01*
X125275776Y-94058039D01*
X125275775Y-94058039D01*
X125078238Y-94150151D01*
X125078233Y-94150154D01*
X125073251Y-94152477D01*
X124983722Y-94215166D01*
X124890211Y-94280643D01*
X124890208Y-94280645D01*
X124885700Y-94283802D01*
X124723802Y-94445700D01*
X124720645Y-94450208D01*
X124720643Y-94450211D01*
X124705386Y-94472000D01*
X124592477Y-94633251D01*
X124590154Y-94638233D01*
X124590151Y-94638238D01*
X124498039Y-94835775D01*
X124495716Y-94840757D01*
X124494294Y-94846065D01*
X124494293Y-94846067D01*
X124446482Y-95024500D01*
X124436457Y-95061913D01*
X124416502Y-95290000D01*
X124436457Y-95518087D01*
X124437881Y-95523400D01*
X124437881Y-95523402D01*
X124493735Y-95731848D01*
X124495716Y-95739243D01*
X124498039Y-95744224D01*
X124498039Y-95744225D01*
X124590151Y-95941762D01*
X124590154Y-95941767D01*
X124592477Y-95946749D01*
X124723802Y-96134300D01*
X124885700Y-96296198D01*
X124890208Y-96299355D01*
X124890211Y-96299357D01*
X124893163Y-96301424D01*
X125073251Y-96427523D01*
X125078233Y-96429846D01*
X125080027Y-96430882D01*
X125129019Y-96482266D01*
X125142454Y-96551979D01*
X125116066Y-96617890D01*
X125080027Y-96649118D01*
X125078233Y-96650154D01*
X125073251Y-96652477D01*
X125014030Y-96693944D01*
X124890211Y-96780643D01*
X124890208Y-96780645D01*
X124885700Y-96783802D01*
X124723802Y-96945700D01*
X124720645Y-96950208D01*
X124720643Y-96950211D01*
X124680287Y-97007846D01*
X124592477Y-97133251D01*
X124590154Y-97138233D01*
X124590151Y-97138238D01*
X124537816Y-97250472D01*
X124495716Y-97340757D01*
X124494294Y-97346065D01*
X124494293Y-97346067D01*
X124444021Y-97533685D01*
X124436457Y-97561913D01*
X124416502Y-97790000D01*
X122169102Y-97790000D01*
X122177048Y-97735651D01*
X122223667Y-97682105D01*
X122251036Y-97668951D01*
X122402378Y-97617577D01*
X122407846Y-97615721D01*
X122599357Y-97508470D01*
X122768115Y-97368115D01*
X122865960Y-97250469D01*
X122904779Y-97203795D01*
X122908470Y-97199357D01*
X123015721Y-97007846D01*
X123032613Y-96958083D01*
X123084420Y-96805467D01*
X123084421Y-96805462D01*
X123086276Y-96799998D01*
X123087104Y-96794289D01*
X123087105Y-96794284D01*
X123117239Y-96586447D01*
X123117772Y-96582773D01*
X123119416Y-96520000D01*
X123099332Y-96301424D01*
X123085520Y-96252452D01*
X123041319Y-96095727D01*
X123041318Y-96095725D01*
X123039751Y-96090168D01*
X123025369Y-96061003D01*
X122945225Y-95898488D01*
X122942670Y-95893307D01*
X122827626Y-95739243D01*
X122814793Y-95722058D01*
X122814792Y-95722057D01*
X122811340Y-95717434D01*
X122682345Y-95598192D01*
X122654398Y-95572358D01*
X122654395Y-95572356D01*
X122650158Y-95568439D01*
X122464523Y-95451313D01*
X122260653Y-95369976D01*
X122254985Y-95368849D01*
X122254983Y-95368848D01*
X122051041Y-95328282D01*
X122051037Y-95328282D01*
X122045373Y-95327155D01*
X122039598Y-95327079D01*
X122039594Y-95327079D01*
X121928963Y-95325631D01*
X121825895Y-95324281D01*
X121820198Y-95325260D01*
X121820197Y-95325260D01*
X121615265Y-95360474D01*
X121609568Y-95361453D01*
X121403638Y-95437425D01*
X121398677Y-95440377D01*
X121398676Y-95440377D01*
X121219969Y-95546696D01*
X121219966Y-95546698D01*
X121215001Y-95549652D01*
X121049974Y-95694377D01*
X120914085Y-95866751D01*
X120911394Y-95871867D01*
X120911392Y-95871869D01*
X120900113Y-95893307D01*
X120811884Y-96061003D01*
X120746794Y-96270627D01*
X120720995Y-96488603D01*
X120735351Y-96707630D01*
X120789381Y-96920373D01*
X120881275Y-97119708D01*
X120884606Y-97124421D01*
X120884607Y-97124423D01*
X120981630Y-97261706D01*
X121007957Y-97298958D01*
X121165183Y-97452121D01*
X121169979Y-97455326D01*
X121169982Y-97455328D01*
X121243991Y-97504779D01*
X121347688Y-97574067D01*
X121352991Y-97576345D01*
X121352994Y-97576347D01*
X121444640Y-97615721D01*
X121549360Y-97660712D01*
X121576274Y-97666802D01*
X121638300Y-97701346D01*
X121671804Y-97763940D01*
X121666148Y-97834711D01*
X121623129Y-97891190D01*
X121592078Y-97907906D01*
X121403638Y-97977425D01*
X121398677Y-97980377D01*
X121398676Y-97980377D01*
X121219969Y-98086696D01*
X121219966Y-98086698D01*
X121215001Y-98089652D01*
X121049974Y-98234377D01*
X120914085Y-98406751D01*
X120911394Y-98411867D01*
X120911392Y-98411869D01*
X120814576Y-98595886D01*
X120811884Y-98601003D01*
X120802946Y-98629789D01*
X120748619Y-98804751D01*
X120746794Y-98810627D01*
X120720995Y-99028603D01*
X120735351Y-99247630D01*
X120789381Y-99460373D01*
X120881275Y-99659708D01*
X120884606Y-99664421D01*
X120884607Y-99664423D01*
X120990558Y-99814339D01*
X121007957Y-99838958D01*
X121165183Y-99992121D01*
X121169979Y-99995326D01*
X121169982Y-99995328D01*
X121180891Y-100002617D01*
X121347688Y-100114067D01*
X121352991Y-100116345D01*
X121352994Y-100116347D01*
X121473891Y-100168288D01*
X121549360Y-100200712D01*
X121576274Y-100206802D01*
X121638300Y-100241346D01*
X121671804Y-100303940D01*
X121666148Y-100374711D01*
X121623129Y-100431190D01*
X121592078Y-100447906D01*
X121403638Y-100517425D01*
X121398677Y-100520377D01*
X121398676Y-100520377D01*
X121219969Y-100626696D01*
X121219966Y-100626698D01*
X121215001Y-100629652D01*
X121049974Y-100774377D01*
X120914085Y-100946751D01*
X120911394Y-100951867D01*
X120911392Y-100951869D01*
X120814576Y-101135886D01*
X120811884Y-101141003D01*
X120746794Y-101350627D01*
X120720995Y-101568603D01*
X120735351Y-101787630D01*
X120789381Y-102000373D01*
X120881275Y-102199708D01*
X120884606Y-102204421D01*
X120884607Y-102204423D01*
X120979558Y-102338774D01*
X121007957Y-102378958D01*
X121012093Y-102382987D01*
X121101585Y-102470166D01*
X121165183Y-102532121D01*
X121169979Y-102535326D01*
X121169982Y-102535328D01*
X121243991Y-102584779D01*
X121347688Y-102654067D01*
X121352991Y-102656345D01*
X121352994Y-102656347D01*
X121535334Y-102734686D01*
X121549360Y-102740712D01*
X121576274Y-102746802D01*
X121638300Y-102781346D01*
X121671804Y-102843940D01*
X121666148Y-102914711D01*
X121623129Y-102971190D01*
X121592078Y-102987906D01*
X121403638Y-103057425D01*
X121398677Y-103060377D01*
X121398676Y-103060377D01*
X121219969Y-103166696D01*
X121219966Y-103166698D01*
X121215001Y-103169652D01*
X121108559Y-103262999D01*
X121066122Y-103300216D01*
X121049974Y-103314377D01*
X120914085Y-103486751D01*
X120911394Y-103491867D01*
X120911392Y-103491869D01*
X120820933Y-103663803D01*
X120811884Y-103681003D01*
X120746794Y-103890627D01*
X120720995Y-104108603D01*
X120735351Y-104327630D01*
X120789381Y-104540373D01*
X120881275Y-104739708D01*
X120884606Y-104744421D01*
X120884607Y-104744423D01*
X120981218Y-104881123D01*
X121007957Y-104918958D01*
X121165183Y-105072121D01*
X121169979Y-105075326D01*
X121169982Y-105075328D01*
X121327735Y-105180735D01*
X121373263Y-105235212D01*
X121382111Y-105305655D01*
X121351469Y-105369699D01*
X121291068Y-105407010D01*
X121257733Y-105411500D01*
X118424595Y-105411500D01*
X118356474Y-105391498D01*
X118335500Y-105374595D01*
X116240405Y-103279500D01*
X116206379Y-103217188D01*
X116203500Y-103190405D01*
X116203500Y-102313768D01*
X116204027Y-102302585D01*
X116205702Y-102295092D01*
X116205208Y-102279357D01*
X116203562Y-102227002D01*
X116203500Y-102223044D01*
X116203500Y-102195144D01*
X116202994Y-102191134D01*
X116202063Y-102179311D01*
X116200923Y-102143036D01*
X116200674Y-102135111D01*
X116195021Y-102115652D01*
X116191012Y-102096293D01*
X116190121Y-102089243D01*
X116188474Y-102076203D01*
X116185558Y-102068837D01*
X116185556Y-102068831D01*
X116172200Y-102035098D01*
X116168355Y-102023868D01*
X116158230Y-101989017D01*
X116158230Y-101989016D01*
X116156019Y-101981407D01*
X116145705Y-101963966D01*
X116137008Y-101946213D01*
X116132472Y-101934758D01*
X116129552Y-101927383D01*
X116103563Y-101891612D01*
X116097047Y-101881692D01*
X116078578Y-101850463D01*
X116074542Y-101843638D01*
X116060221Y-101829317D01*
X116047380Y-101814283D01*
X116040132Y-101804307D01*
X116035472Y-101797893D01*
X116001407Y-101769712D01*
X115992626Y-101761722D01*
X115449406Y-101218501D01*
X115421081Y-101174885D01*
X115419751Y-101170168D01*
X115322670Y-100973307D01*
X115281206Y-100917779D01*
X115194793Y-100802058D01*
X115194792Y-100802057D01*
X115191340Y-100797434D01*
X115030158Y-100648439D01*
X114844523Y-100531313D01*
X114640653Y-100449976D01*
X114635586Y-100448968D01*
X114576118Y-100410551D01*
X114546777Y-100345901D01*
X114557048Y-100275651D01*
X114603667Y-100222105D01*
X114631036Y-100208951D01*
X114763230Y-100164077D01*
X114787846Y-100155721D01*
X114979357Y-100048470D01*
X114991481Y-100038387D01*
X115143677Y-99911806D01*
X115148115Y-99908115D01*
X115288470Y-99739357D01*
X115395721Y-99547846D01*
X115427315Y-99454773D01*
X115464420Y-99345467D01*
X115464421Y-99345462D01*
X115466276Y-99339998D01*
X115467104Y-99334289D01*
X115467105Y-99334284D01*
X115497239Y-99126447D01*
X115497772Y-99122773D01*
X115499416Y-99060000D01*
X115479332Y-98841424D01*
X115481941Y-98841184D01*
X115488119Y-98781606D01*
X115515614Y-98740290D01*
X122145499Y-92110405D01*
X122207811Y-92076379D01*
X122234594Y-92073500D01*
X123240606Y-92073500D01*
X123308727Y-92093502D01*
X123343819Y-92127229D01*
X123450643Y-92279789D01*
X123453802Y-92284300D01*
X123615700Y-92446198D01*
X123620208Y-92449355D01*
X123620211Y-92449357D01*
X123698389Y-92504098D01*
X123803251Y-92577523D01*
X123808233Y-92579846D01*
X123808238Y-92579849D01*
X123942544Y-92642476D01*
X124010757Y-92674284D01*
X124016065Y-92675706D01*
X124016067Y-92675707D01*
X124226598Y-92732119D01*
X124226600Y-92732119D01*
X124231913Y-92733543D01*
X124460000Y-92753498D01*
X124688087Y-92733543D01*
X124693400Y-92732119D01*
X124693402Y-92732119D01*
X124903933Y-92675707D01*
X124903935Y-92675706D01*
X124909243Y-92674284D01*
X124977456Y-92642476D01*
X125111762Y-92579849D01*
X125111767Y-92579846D01*
X125116749Y-92577523D01*
X125190243Y-92526062D01*
X126278493Y-92526062D01*
X126287789Y-92538077D01*
X126338994Y-92573931D01*
X126348489Y-92579414D01*
X126545947Y-92671490D01*
X126556239Y-92675236D01*
X126766688Y-92731625D01*
X126777481Y-92733528D01*
X126994525Y-92752517D01*
X127005475Y-92752517D01*
X127222519Y-92733528D01*
X127233312Y-92731625D01*
X127443761Y-92675236D01*
X127454053Y-92671490D01*
X127651511Y-92579414D01*
X127661006Y-92573931D01*
X127713048Y-92537491D01*
X127721424Y-92527012D01*
X127714356Y-92513566D01*
X127012812Y-91812022D01*
X126998868Y-91804408D01*
X126997035Y-91804539D01*
X126990420Y-91808790D01*
X126284923Y-92514287D01*
X126278493Y-92526062D01*
X125190243Y-92526062D01*
X125221611Y-92504098D01*
X125299789Y-92449357D01*
X125299792Y-92449355D01*
X125304300Y-92446198D01*
X125466198Y-92284300D01*
X125472025Y-92275979D01*
X125559353Y-92151261D01*
X125597523Y-92096749D01*
X125599846Y-92091767D01*
X125599849Y-92091762D01*
X125616081Y-92056951D01*
X125662998Y-92003666D01*
X125731275Y-91984205D01*
X125799235Y-92004747D01*
X125844471Y-92056951D01*
X125860586Y-92091511D01*
X125866069Y-92101006D01*
X125902509Y-92153048D01*
X125912988Y-92161424D01*
X125926434Y-92154356D01*
X126639658Y-91441132D01*
X127364408Y-91441132D01*
X127364539Y-91442965D01*
X127368790Y-91449580D01*
X128074287Y-92155077D01*
X128086062Y-92161507D01*
X128098077Y-92152211D01*
X128133931Y-92101006D01*
X128139414Y-92091511D01*
X128231490Y-91894053D01*
X128235236Y-91883761D01*
X128291625Y-91673312D01*
X128293528Y-91662519D01*
X128312517Y-91445475D01*
X128312517Y-91434525D01*
X128293528Y-91217481D01*
X128291625Y-91206688D01*
X128235236Y-90996239D01*
X128231490Y-90985947D01*
X128139414Y-90788489D01*
X128133931Y-90778994D01*
X128097491Y-90726952D01*
X128087012Y-90718576D01*
X128073566Y-90725644D01*
X127372022Y-91427188D01*
X127364408Y-91441132D01*
X126639658Y-91441132D01*
X127715077Y-90365713D01*
X127721507Y-90353938D01*
X127712211Y-90341923D01*
X127661006Y-90306069D01*
X127651511Y-90300586D01*
X127454053Y-90208510D01*
X127443761Y-90204764D01*
X127234734Y-90148756D01*
X127174111Y-90111804D01*
X127143090Y-90047944D01*
X127151518Y-89977449D01*
X127178250Y-89937954D01*
X133136405Y-83979799D01*
X133198717Y-83945773D01*
X133269532Y-83950838D01*
G37*
%TD.AperFunction*%
%TA.AperFunction,Conductor*%
G36*
X118883091Y-90184484D02*
G01*
X118931247Y-90236652D01*
X118943554Y-90306574D01*
X118916105Y-90372050D01*
X118907430Y-90381665D01*
X117717747Y-91571348D01*
X117709461Y-91578888D01*
X117702982Y-91583000D01*
X117697557Y-91588777D01*
X117656357Y-91632651D01*
X117653602Y-91635493D01*
X117633865Y-91655230D01*
X117631385Y-91658427D01*
X117623682Y-91667447D01*
X117593414Y-91699679D01*
X117589595Y-91706625D01*
X117589593Y-91706628D01*
X117583652Y-91717434D01*
X117572801Y-91733953D01*
X117560386Y-91749959D01*
X117557241Y-91757228D01*
X117557238Y-91757232D01*
X117542826Y-91790537D01*
X117537609Y-91801187D01*
X117516305Y-91839940D01*
X117514334Y-91847615D01*
X117514334Y-91847616D01*
X117511267Y-91859562D01*
X117504863Y-91878266D01*
X117496819Y-91896855D01*
X117495580Y-91904678D01*
X117495577Y-91904688D01*
X117489901Y-91940524D01*
X117487495Y-91952144D01*
X117476500Y-91994970D01*
X117476500Y-92015224D01*
X117474949Y-92034934D01*
X117471780Y-92054943D01*
X117472526Y-92062835D01*
X117475941Y-92098961D01*
X117476500Y-92110819D01*
X117476500Y-92642476D01*
X117456498Y-92710597D01*
X117444142Y-92726779D01*
X117370960Y-92808056D01*
X117275473Y-92973444D01*
X117216458Y-93155072D01*
X117196496Y-93345000D01*
X117216458Y-93534928D01*
X117275473Y-93716556D01*
X117278776Y-93722278D01*
X117278777Y-93722279D01*
X117296292Y-93752616D01*
X117370960Y-93881944D01*
X117375378Y-93886851D01*
X117375379Y-93886852D01*
X117474068Y-93996457D01*
X117498747Y-94023866D01*
X117653248Y-94136118D01*
X117659276Y-94138802D01*
X117659278Y-94138803D01*
X117813301Y-94207378D01*
X117827712Y-94213794D01*
X117916260Y-94232616D01*
X117949231Y-94239624D01*
X118011705Y-94273353D01*
X118046026Y-94335502D01*
X118041298Y-94406341D01*
X118012129Y-94451966D01*
X115678300Y-96785795D01*
X115615988Y-96819821D01*
X115545173Y-96814756D01*
X115506693Y-96791925D01*
X115487935Y-96775671D01*
X115480252Y-96774000D01*
X114172000Y-96774000D01*
X114103879Y-96753998D01*
X114057386Y-96700342D01*
X114046000Y-96648000D01*
X114046000Y-96247885D01*
X114554000Y-96247885D01*
X114558475Y-96263124D01*
X114559865Y-96264329D01*
X114567548Y-96266000D01*
X115475684Y-96266000D01*
X115490923Y-96261525D01*
X115492128Y-96260135D01*
X115493799Y-96252452D01*
X115493799Y-95789531D01*
X115493429Y-95782710D01*
X115487905Y-95731848D01*
X115484279Y-95716596D01*
X115439124Y-95596146D01*
X115430586Y-95580551D01*
X115354085Y-95478476D01*
X115341524Y-95465915D01*
X115239449Y-95389414D01*
X115223854Y-95380876D01*
X115103406Y-95335722D01*
X115088151Y-95332095D01*
X115037286Y-95326569D01*
X115030472Y-95326200D01*
X114572115Y-95326200D01*
X114556876Y-95330675D01*
X114555671Y-95332065D01*
X114554000Y-95339748D01*
X114554000Y-96247885D01*
X114046000Y-96247885D01*
X114046000Y-95344316D01*
X114041525Y-95329077D01*
X114040135Y-95327872D01*
X114032452Y-95326201D01*
X113569531Y-95326201D01*
X113562710Y-95326571D01*
X113511848Y-95332095D01*
X113496596Y-95335721D01*
X113376146Y-95380876D01*
X113360551Y-95389414D01*
X113258476Y-95465915D01*
X113243595Y-95480796D01*
X113181283Y-95514822D01*
X113110468Y-95509757D01*
X113053632Y-95467210D01*
X113028821Y-95400690D01*
X113028500Y-95391701D01*
X113028500Y-92526062D01*
X113578493Y-92526062D01*
X113587789Y-92538077D01*
X113638994Y-92573931D01*
X113648489Y-92579414D01*
X113845947Y-92671490D01*
X113856239Y-92675236D01*
X114066688Y-92731625D01*
X114077481Y-92733528D01*
X114294525Y-92752517D01*
X114305475Y-92752517D01*
X114522519Y-92733528D01*
X114533312Y-92731625D01*
X114743761Y-92675236D01*
X114754053Y-92671490D01*
X114951511Y-92579414D01*
X114961006Y-92573931D01*
X115013048Y-92537491D01*
X115021424Y-92527012D01*
X115014356Y-92513566D01*
X114312812Y-91812022D01*
X114298868Y-91804408D01*
X114297035Y-91804539D01*
X114290420Y-91808790D01*
X113584923Y-92514287D01*
X113578493Y-92526062D01*
X113028500Y-92526062D01*
X113028500Y-92275979D01*
X113048502Y-92207858D01*
X113102158Y-92161365D01*
X113172432Y-92151261D01*
X113194616Y-92160865D01*
X113210854Y-92162545D01*
X113226434Y-92154356D01*
X113927978Y-91452812D01*
X113934356Y-91441132D01*
X114664408Y-91441132D01*
X114664539Y-91442965D01*
X114668790Y-91449580D01*
X115374287Y-92155077D01*
X115386062Y-92161507D01*
X115398077Y-92152211D01*
X115433931Y-92101006D01*
X115439414Y-92091511D01*
X115531490Y-91894053D01*
X115535236Y-91883761D01*
X115591625Y-91673312D01*
X115593528Y-91662519D01*
X115612517Y-91445475D01*
X115612517Y-91434525D01*
X115593528Y-91217481D01*
X115591625Y-91206688D01*
X115535236Y-90996239D01*
X115531490Y-90985947D01*
X115439414Y-90788489D01*
X115433931Y-90778994D01*
X115397491Y-90726952D01*
X115387012Y-90718576D01*
X115373566Y-90725644D01*
X114672022Y-91427188D01*
X114664408Y-91441132D01*
X113934356Y-91441132D01*
X113935592Y-91438868D01*
X113935461Y-91437035D01*
X113931210Y-91430420D01*
X113225713Y-90724923D01*
X113211769Y-90717309D01*
X113196993Y-90718365D01*
X113165479Y-90730692D01*
X113095874Y-90716701D01*
X113044883Y-90667301D01*
X113028500Y-90605171D01*
X113028500Y-90508316D01*
X113048502Y-90440195D01*
X113065405Y-90419221D01*
X113279221Y-90205405D01*
X113341533Y-90171379D01*
X113368316Y-90168500D01*
X113464021Y-90168500D01*
X113532142Y-90188502D01*
X113578635Y-90242158D01*
X113588739Y-90312432D01*
X113579135Y-90334616D01*
X113577455Y-90350854D01*
X113585644Y-90366434D01*
X114287188Y-91067978D01*
X114301132Y-91075592D01*
X114302965Y-91075461D01*
X114309580Y-91071210D01*
X115015077Y-90365713D01*
X115022691Y-90351769D01*
X115021635Y-90336993D01*
X115009308Y-90305479D01*
X115023299Y-90235874D01*
X115072699Y-90184883D01*
X115134829Y-90168500D01*
X118666233Y-90168500D01*
X118677416Y-90169027D01*
X118684909Y-90170702D01*
X118692835Y-90170453D01*
X118692836Y-90170453D01*
X118752986Y-90168562D01*
X118756945Y-90168500D01*
X118784856Y-90168500D01*
X118788791Y-90168003D01*
X118788856Y-90167995D01*
X118800691Y-90167063D01*
X118814377Y-90166632D01*
X118883091Y-90184484D01*
G37*
%TD.AperFunction*%
%TA.AperFunction,Conductor*%
G36*
X124874433Y-85084319D02*
G01*
X124933229Y-85124112D01*
X124961177Y-85189377D01*
X124949404Y-85259390D01*
X124945187Y-85267336D01*
X124899961Y-85345671D01*
X124895473Y-85353444D01*
X124836458Y-85535072D01*
X124816496Y-85725000D01*
X124817186Y-85731565D01*
X124833936Y-85890928D01*
X124836458Y-85914928D01*
X124895473Y-86096556D01*
X124898776Y-86102278D01*
X124898777Y-86102279D01*
X124945541Y-86183276D01*
X124962279Y-86252271D01*
X124939059Y-86319363D01*
X124883252Y-86363250D01*
X124812577Y-86369999D01*
X124803811Y-86367983D01*
X124693312Y-86338375D01*
X124682519Y-86336472D01*
X124465475Y-86317483D01*
X124454525Y-86317483D01*
X124237481Y-86336472D01*
X124226688Y-86338375D01*
X124016239Y-86394764D01*
X124005947Y-86398510D01*
X123808489Y-86490586D01*
X123798994Y-86496069D01*
X123746952Y-86532509D01*
X123738576Y-86542988D01*
X123745644Y-86556434D01*
X124730115Y-87540905D01*
X124764141Y-87603217D01*
X124759076Y-87674032D01*
X124730115Y-87719095D01*
X123744923Y-88704287D01*
X123738493Y-88716062D01*
X123747789Y-88728077D01*
X123798994Y-88763931D01*
X123808489Y-88769414D01*
X124005947Y-88861490D01*
X124016239Y-88865236D01*
X124226688Y-88921625D01*
X124237481Y-88923528D01*
X124454525Y-88942517D01*
X124465475Y-88942517D01*
X124477980Y-88941423D01*
X124547584Y-88955412D01*
X124598577Y-89004812D01*
X124614767Y-89073938D01*
X124591014Y-89140843D01*
X124578056Y-89156039D01*
X124234500Y-89499595D01*
X124172188Y-89533621D01*
X124145405Y-89536500D01*
X120093767Y-89536500D01*
X120082584Y-89535973D01*
X120075091Y-89534298D01*
X120067165Y-89534547D01*
X120067164Y-89534547D01*
X120007001Y-89536438D01*
X120003043Y-89536500D01*
X119975144Y-89536500D01*
X119971154Y-89537004D01*
X119959316Y-89537936D01*
X119945621Y-89538367D01*
X119876906Y-89520514D01*
X119828751Y-89468344D01*
X119816446Y-89398422D01*
X119843897Y-89332947D01*
X119852570Y-89323334D01*
X121540429Y-87635475D01*
X123147483Y-87635475D01*
X123166472Y-87852519D01*
X123168375Y-87863312D01*
X123224764Y-88073761D01*
X123228510Y-88084053D01*
X123320586Y-88281511D01*
X123326069Y-88291006D01*
X123362509Y-88343048D01*
X123372988Y-88351424D01*
X123386434Y-88344356D01*
X124087978Y-87642812D01*
X124095592Y-87628868D01*
X124095461Y-87627035D01*
X124091210Y-87620420D01*
X123385713Y-86914923D01*
X123373938Y-86908493D01*
X123361923Y-86917789D01*
X123326069Y-86968994D01*
X123320586Y-86978489D01*
X123228510Y-87175947D01*
X123224764Y-87186239D01*
X123168375Y-87396688D01*
X123166472Y-87407481D01*
X123147483Y-87624525D01*
X123147483Y-87635475D01*
X121540429Y-87635475D01*
X124046752Y-85129152D01*
X124109064Y-85095126D01*
X124168459Y-85096541D01*
X124226591Y-85112118D01*
X124226602Y-85112120D01*
X124231913Y-85113543D01*
X124460000Y-85133498D01*
X124688087Y-85113543D01*
X124693398Y-85112120D01*
X124693409Y-85112118D01*
X124803456Y-85082630D01*
X124874433Y-85084319D01*
G37*
%TD.AperFunction*%
%TA.AperFunction,Conductor*%
G36*
X136081273Y-64008013D02*
G01*
X136127766Y-64061669D01*
X136137870Y-64131943D01*
X136124662Y-64172675D01*
X136051884Y-64311003D01*
X135986794Y-64520627D01*
X135960995Y-64738603D01*
X135975351Y-64957630D01*
X136029381Y-65170373D01*
X136121275Y-65369708D01*
X136124606Y-65374421D01*
X136124607Y-65374423D01*
X136222235Y-65512562D01*
X136247957Y-65548958D01*
X136405183Y-65702121D01*
X136409979Y-65705326D01*
X136409982Y-65705328D01*
X136483991Y-65754779D01*
X136587688Y-65824067D01*
X136592991Y-65826345D01*
X136592994Y-65826347D01*
X136684640Y-65865721D01*
X136789360Y-65910712D01*
X136816274Y-65916802D01*
X136878300Y-65951346D01*
X136911804Y-66013940D01*
X136906148Y-66084711D01*
X136863129Y-66141190D01*
X136832078Y-66157906D01*
X136643638Y-66227425D01*
X136638677Y-66230377D01*
X136638676Y-66230377D01*
X136459969Y-66336696D01*
X136459966Y-66336698D01*
X136455001Y-66339652D01*
X136289974Y-66484377D01*
X136154085Y-66656751D01*
X136151394Y-66661867D01*
X136151392Y-66661869D01*
X136054576Y-66845886D01*
X136051884Y-66851003D01*
X135986794Y-67060627D01*
X135960995Y-67278603D01*
X135975351Y-67497630D01*
X136029381Y-67710373D01*
X136121275Y-67909708D01*
X136124606Y-67914421D01*
X136124607Y-67914423D01*
X136215517Y-68043056D01*
X136247957Y-68088958D01*
X136292654Y-68132500D01*
X136341585Y-68180166D01*
X136405183Y-68242121D01*
X136409979Y-68245326D01*
X136409982Y-68245328D01*
X136543543Y-68334570D01*
X136587688Y-68364067D01*
X136592991Y-68366345D01*
X136592994Y-68366347D01*
X136684640Y-68405721D01*
X136789360Y-68450712D01*
X136903847Y-68476618D01*
X136995610Y-68497382D01*
X137003445Y-68499155D01*
X137009216Y-68499382D01*
X137009218Y-68499382D01*
X137082634Y-68502266D01*
X137222773Y-68507772D01*
X137284073Y-68498884D01*
X137295971Y-68497159D01*
X137366257Y-68507179D01*
X137419968Y-68553608D01*
X137440051Y-68621705D01*
X137420130Y-68689850D01*
X137403146Y-68710950D01*
X133957497Y-72156598D01*
X130584500Y-75529595D01*
X130522188Y-75563621D01*
X130495405Y-75566500D01*
X128219394Y-75566500D01*
X128151273Y-75546498D01*
X128116181Y-75512771D01*
X128009357Y-75360211D01*
X128009355Y-75360208D01*
X128006198Y-75355700D01*
X127844300Y-75193802D01*
X127839792Y-75190645D01*
X127839789Y-75190643D01*
X127730308Y-75113984D01*
X127656749Y-75062477D01*
X127651767Y-75060154D01*
X127651762Y-75060151D01*
X127454225Y-74968039D01*
X127454224Y-74968039D01*
X127449243Y-74965716D01*
X127443935Y-74964294D01*
X127443933Y-74964293D01*
X127233402Y-74907881D01*
X127233400Y-74907881D01*
X127228087Y-74906457D01*
X127000000Y-74886502D01*
X126771913Y-74906457D01*
X126766600Y-74907881D01*
X126766598Y-74907881D01*
X126556067Y-74964293D01*
X126556065Y-74964294D01*
X126550757Y-74965716D01*
X126545776Y-74968039D01*
X126545775Y-74968039D01*
X126348238Y-75060151D01*
X126348233Y-75060154D01*
X126343251Y-75062477D01*
X126269692Y-75113984D01*
X126160211Y-75190643D01*
X126160208Y-75190645D01*
X126155700Y-75193802D01*
X125993802Y-75355700D01*
X125990645Y-75360208D01*
X125990643Y-75360211D01*
X125956563Y-75408882D01*
X125862477Y-75543251D01*
X125860154Y-75548233D01*
X125860151Y-75548238D01*
X125844195Y-75582457D01*
X125797278Y-75635742D01*
X125729001Y-75655203D01*
X125661041Y-75634661D01*
X125615805Y-75582457D01*
X125599849Y-75548238D01*
X125599846Y-75548233D01*
X125597523Y-75543251D01*
X125503437Y-75408882D01*
X125469357Y-75360211D01*
X125469355Y-75360208D01*
X125466198Y-75355700D01*
X125304300Y-75193802D01*
X125299792Y-75190645D01*
X125299789Y-75190643D01*
X125190308Y-75113984D01*
X125116749Y-75062477D01*
X125111767Y-75060154D01*
X125111762Y-75060151D01*
X124914225Y-74968039D01*
X124914224Y-74968039D01*
X124909243Y-74965716D01*
X124903935Y-74964294D01*
X124903933Y-74964293D01*
X124693402Y-74907881D01*
X124693400Y-74907881D01*
X124688087Y-74906457D01*
X124460000Y-74886502D01*
X124231913Y-74906457D01*
X124226600Y-74907881D01*
X124226598Y-74907881D01*
X124016067Y-74964293D01*
X124016065Y-74964294D01*
X124010757Y-74965716D01*
X124005776Y-74968039D01*
X124005775Y-74968039D01*
X123808238Y-75060151D01*
X123808233Y-75060154D01*
X123803251Y-75062477D01*
X123729692Y-75113984D01*
X123620211Y-75190643D01*
X123620208Y-75190645D01*
X123615700Y-75193802D01*
X123453802Y-75355700D01*
X123450645Y-75360208D01*
X123450643Y-75360211D01*
X123416563Y-75408882D01*
X123322477Y-75543251D01*
X123320154Y-75548233D01*
X123320151Y-75548238D01*
X123228039Y-75745775D01*
X123225716Y-75750757D01*
X123224294Y-75756065D01*
X123224293Y-75756067D01*
X123171099Y-75954588D01*
X123166457Y-75971913D01*
X123146502Y-76200000D01*
X123166457Y-76428087D01*
X123167881Y-76433400D01*
X123167881Y-76433402D01*
X123223818Y-76642158D01*
X123225716Y-76649243D01*
X123228039Y-76654225D01*
X123228041Y-76654230D01*
X123229448Y-76657247D01*
X123229669Y-76658704D01*
X123229922Y-76659398D01*
X123229782Y-76659449D01*
X123240111Y-76727438D01*
X123211133Y-76792252D01*
X123151715Y-76831110D01*
X123115255Y-76836500D01*
X122234595Y-76836500D01*
X122166474Y-76816498D01*
X122145500Y-76799595D01*
X121320405Y-75974500D01*
X121286379Y-75912188D01*
X121283500Y-75885405D01*
X121283500Y-75244594D01*
X121303502Y-75176473D01*
X121320405Y-75155499D01*
X123260231Y-73215673D01*
X123322543Y-73181647D01*
X123393358Y-73186712D01*
X123445427Y-73226987D01*
X123447108Y-73225576D01*
X123450643Y-73229789D01*
X123453802Y-73234300D01*
X123615700Y-73396198D01*
X123620208Y-73399355D01*
X123620211Y-73399357D01*
X123656415Y-73424707D01*
X123803251Y-73527523D01*
X123808233Y-73529846D01*
X123808238Y-73529849D01*
X124005775Y-73621961D01*
X124010757Y-73624284D01*
X124016065Y-73625706D01*
X124016067Y-73625707D01*
X124226598Y-73682119D01*
X124226600Y-73682119D01*
X124231913Y-73683543D01*
X124460000Y-73703498D01*
X124688087Y-73683543D01*
X124693400Y-73682119D01*
X124693402Y-73682119D01*
X124903933Y-73625707D01*
X124903935Y-73625706D01*
X124909243Y-73624284D01*
X124914225Y-73621961D01*
X125111762Y-73529849D01*
X125111767Y-73529846D01*
X125116749Y-73527523D01*
X125263585Y-73424707D01*
X125299789Y-73399357D01*
X125299792Y-73399355D01*
X125304300Y-73396198D01*
X125466198Y-73234300D01*
X125479241Y-73215673D01*
X125576181Y-73077229D01*
X125631638Y-73032901D01*
X125679394Y-73023500D01*
X125780606Y-73023500D01*
X125848727Y-73043502D01*
X125883819Y-73077229D01*
X125980759Y-73215673D01*
X125993802Y-73234300D01*
X126155700Y-73396198D01*
X126160208Y-73399355D01*
X126160211Y-73399357D01*
X126196415Y-73424707D01*
X126343251Y-73527523D01*
X126348233Y-73529846D01*
X126348238Y-73529849D01*
X126545775Y-73621961D01*
X126550757Y-73624284D01*
X126556065Y-73625706D01*
X126556067Y-73625707D01*
X126766598Y-73682119D01*
X126766600Y-73682119D01*
X126771913Y-73683543D01*
X127000000Y-73703498D01*
X127228087Y-73683543D01*
X127233400Y-73682119D01*
X127233402Y-73682119D01*
X127443933Y-73625707D01*
X127443935Y-73625706D01*
X127449243Y-73624284D01*
X127454225Y-73621961D01*
X127651762Y-73529849D01*
X127651767Y-73529846D01*
X127656749Y-73527523D01*
X127803585Y-73424707D01*
X127839789Y-73399357D01*
X127839792Y-73399355D01*
X127844300Y-73396198D01*
X128006198Y-73234300D01*
X128023706Y-73209297D01*
X128093589Y-73109493D01*
X128137523Y-73046749D01*
X128139846Y-73041767D01*
X128139849Y-73041762D01*
X128231961Y-72844225D01*
X128231961Y-72844224D01*
X128234284Y-72839243D01*
X128239067Y-72821395D01*
X128292119Y-72623402D01*
X128292119Y-72623400D01*
X128293543Y-72618087D01*
X128313498Y-72390000D01*
X128293543Y-72161913D01*
X128279348Y-72108938D01*
X128235707Y-71946067D01*
X128235706Y-71946065D01*
X128234284Y-71940757D01*
X128224544Y-71919870D01*
X128139849Y-71738238D01*
X128139846Y-71738233D01*
X128137523Y-71733251D01*
X128006198Y-71545700D01*
X127844300Y-71383802D01*
X127839792Y-71380645D01*
X127839789Y-71380643D01*
X127694346Y-71278803D01*
X127656749Y-71252477D01*
X127651767Y-71250154D01*
X127651762Y-71250151D01*
X127454225Y-71158039D01*
X127454224Y-71158039D01*
X127449243Y-71155716D01*
X127443935Y-71154294D01*
X127443933Y-71154293D01*
X127233402Y-71097881D01*
X127233400Y-71097881D01*
X127228087Y-71096457D01*
X127000000Y-71076502D01*
X126771913Y-71096457D01*
X126766600Y-71097881D01*
X126766598Y-71097881D01*
X126556067Y-71154293D01*
X126556065Y-71154294D01*
X126550757Y-71155716D01*
X126545776Y-71158039D01*
X126545775Y-71158039D01*
X126348238Y-71250151D01*
X126348233Y-71250154D01*
X126343251Y-71252477D01*
X126305654Y-71278803D01*
X126160211Y-71380643D01*
X126160208Y-71380645D01*
X126155700Y-71383802D01*
X125993802Y-71545700D01*
X125990645Y-71550208D01*
X125990643Y-71550211D01*
X125883819Y-71702771D01*
X125828362Y-71747099D01*
X125780606Y-71756500D01*
X125679394Y-71756500D01*
X125611273Y-71736498D01*
X125576181Y-71702771D01*
X125469357Y-71550211D01*
X125469355Y-71550208D01*
X125466198Y-71545700D01*
X125304300Y-71383802D01*
X125299792Y-71380645D01*
X125299789Y-71380643D01*
X125154346Y-71278803D01*
X125116749Y-71252477D01*
X125111767Y-71250154D01*
X125111762Y-71250151D01*
X124914225Y-71158039D01*
X124914224Y-71158039D01*
X124909243Y-71155716D01*
X124903935Y-71154294D01*
X124903933Y-71154293D01*
X124693402Y-71097881D01*
X124693400Y-71097881D01*
X124688087Y-71096457D01*
X124460000Y-71076502D01*
X124231913Y-71096457D01*
X124226600Y-71097881D01*
X124226598Y-71097881D01*
X124016067Y-71154293D01*
X124016065Y-71154294D01*
X124010757Y-71155716D01*
X124005776Y-71158039D01*
X124005775Y-71158039D01*
X123808238Y-71250151D01*
X123808233Y-71250154D01*
X123803251Y-71252477D01*
X123765654Y-71278803D01*
X123620211Y-71380643D01*
X123620208Y-71380645D01*
X123615700Y-71383802D01*
X123453802Y-71545700D01*
X123450645Y-71550208D01*
X123450643Y-71550211D01*
X123345226Y-71700761D01*
X123289768Y-71745089D01*
X123245972Y-71754428D01*
X123187278Y-71756273D01*
X123182031Y-71756438D01*
X123178075Y-71756500D01*
X123150144Y-71756500D01*
X123146229Y-71756995D01*
X123146225Y-71756995D01*
X123146167Y-71757003D01*
X123146138Y-71757006D01*
X123134296Y-71757939D01*
X123090110Y-71759327D01*
X123072744Y-71764372D01*
X123070658Y-71764978D01*
X123051306Y-71768986D01*
X123039068Y-71770532D01*
X123039066Y-71770533D01*
X123031203Y-71771526D01*
X122990086Y-71787806D01*
X122978885Y-71791641D01*
X122936406Y-71803982D01*
X122929587Y-71808015D01*
X122929582Y-71808017D01*
X122918971Y-71814293D01*
X122901221Y-71822990D01*
X122882383Y-71830448D01*
X122875967Y-71835109D01*
X122875966Y-71835110D01*
X122846625Y-71856428D01*
X122836701Y-71862947D01*
X122805460Y-71881422D01*
X122805455Y-71881426D01*
X122798637Y-71885458D01*
X122784313Y-71899782D01*
X122769281Y-71912621D01*
X122752893Y-71924528D01*
X122724712Y-71958593D01*
X122716722Y-71967373D01*
X120257747Y-74426348D01*
X120249461Y-74433888D01*
X120242982Y-74438000D01*
X120237557Y-74443777D01*
X120196357Y-74487651D01*
X120193602Y-74490493D01*
X120173865Y-74510230D01*
X120171385Y-74513427D01*
X120163682Y-74522447D01*
X120133414Y-74554679D01*
X120129595Y-74561625D01*
X120129593Y-74561628D01*
X120123652Y-74572434D01*
X120112801Y-74588953D01*
X120100386Y-74604959D01*
X120097241Y-74612228D01*
X120097238Y-74612232D01*
X120082826Y-74645537D01*
X120077609Y-74656187D01*
X120056305Y-74694940D01*
X120054334Y-74702615D01*
X120054334Y-74702616D01*
X120051267Y-74714562D01*
X120044863Y-74733266D01*
X120036819Y-74751855D01*
X120035580Y-74759678D01*
X120035577Y-74759688D01*
X120029901Y-74795524D01*
X120027495Y-74807144D01*
X120016500Y-74849970D01*
X120016500Y-74870224D01*
X120014949Y-74889934D01*
X120011780Y-74909943D01*
X120012526Y-74917835D01*
X120015941Y-74953961D01*
X120016500Y-74965819D01*
X120016500Y-76121233D01*
X120015973Y-76132416D01*
X120014298Y-76139909D01*
X120014547Y-76147835D01*
X120014547Y-76147836D01*
X120016438Y-76207986D01*
X120016500Y-76211945D01*
X120016500Y-76239856D01*
X120016997Y-76243790D01*
X120016997Y-76243791D01*
X120017005Y-76243856D01*
X120017938Y-76255693D01*
X120019327Y-76299889D01*
X120024978Y-76319339D01*
X120028987Y-76338700D01*
X120031526Y-76358797D01*
X120034445Y-76366168D01*
X120034445Y-76366170D01*
X120047804Y-76399912D01*
X120051649Y-76411142D01*
X120054980Y-76422607D01*
X120063982Y-76453593D01*
X120068015Y-76460412D01*
X120068017Y-76460417D01*
X120074293Y-76471028D01*
X120082988Y-76488776D01*
X120090448Y-76507617D01*
X120095110Y-76514033D01*
X120095110Y-76514034D01*
X120116436Y-76543387D01*
X120122952Y-76553307D01*
X120139571Y-76581407D01*
X120145458Y-76591362D01*
X120159779Y-76605683D01*
X120172619Y-76620716D01*
X120184528Y-76637107D01*
X120211473Y-76659398D01*
X120218605Y-76665298D01*
X120227384Y-76673288D01*
X121416343Y-77862247D01*
X121423887Y-77870537D01*
X121428000Y-77877018D01*
X121433777Y-77882443D01*
X121477667Y-77923658D01*
X121480509Y-77926413D01*
X121500230Y-77946134D01*
X121503425Y-77948612D01*
X121512447Y-77956318D01*
X121544679Y-77986586D01*
X121551628Y-77990406D01*
X121562432Y-77996346D01*
X121578956Y-78007199D01*
X121594959Y-78019613D01*
X121635543Y-78037176D01*
X121646173Y-78042383D01*
X121684940Y-78063695D01*
X121692617Y-78065666D01*
X121692622Y-78065668D01*
X121704558Y-78068732D01*
X121723266Y-78075137D01*
X121741855Y-78083181D01*
X121749683Y-78084421D01*
X121749690Y-78084423D01*
X121785524Y-78090099D01*
X121797144Y-78092505D01*
X121832289Y-78101528D01*
X121839970Y-78103500D01*
X121860224Y-78103500D01*
X121879934Y-78105051D01*
X121899943Y-78108220D01*
X121907835Y-78107474D01*
X121943961Y-78104059D01*
X121955819Y-78103500D01*
X123825106Y-78103500D01*
X123893227Y-78123502D01*
X123914201Y-78140405D01*
X124281342Y-78507546D01*
X124315368Y-78569858D01*
X124310303Y-78640673D01*
X124267756Y-78697509D01*
X124224861Y-78718347D01*
X124075000Y-78758502D01*
X124016067Y-78774293D01*
X124016065Y-78774294D01*
X124010757Y-78775716D01*
X124005776Y-78778039D01*
X124005775Y-78778039D01*
X123808238Y-78870151D01*
X123808233Y-78870154D01*
X123803251Y-78872477D01*
X123789034Y-78882432D01*
X123620211Y-79000643D01*
X123620208Y-79000645D01*
X123615700Y-79003802D01*
X123453802Y-79165700D01*
X123322477Y-79353251D01*
X123320154Y-79358233D01*
X123320151Y-79358238D01*
X123274062Y-79457077D01*
X123225716Y-79560757D01*
X123224294Y-79566065D01*
X123224293Y-79566067D01*
X123171384Y-79763526D01*
X123166457Y-79781913D01*
X123146502Y-80010000D01*
X123166457Y-80238087D01*
X123167880Y-80243399D01*
X123167881Y-80243402D01*
X123217819Y-80429770D01*
X123225716Y-80459243D01*
X123228039Y-80464224D01*
X123228039Y-80464225D01*
X123320151Y-80661762D01*
X123320154Y-80661767D01*
X123322477Y-80666749D01*
X123453802Y-80854300D01*
X123615700Y-81016198D01*
X123620208Y-81019355D01*
X123620211Y-81019357D01*
X123772771Y-81126181D01*
X123817099Y-81181638D01*
X123826500Y-81229394D01*
X123826500Y-82600606D01*
X123806498Y-82668727D01*
X123772771Y-82703819D01*
X123620211Y-82810643D01*
X123620208Y-82810645D01*
X123615700Y-82813802D01*
X123453802Y-82975700D01*
X123322477Y-83163251D01*
X123320154Y-83168233D01*
X123320151Y-83168238D01*
X123277247Y-83260248D01*
X123225716Y-83370757D01*
X123224294Y-83376065D01*
X123224293Y-83376067D01*
X123167881Y-83586598D01*
X123166457Y-83591913D01*
X123146502Y-83820000D01*
X123166457Y-84048087D01*
X123167880Y-84053398D01*
X123167882Y-84053409D01*
X123183459Y-84111541D01*
X123181770Y-84182517D01*
X123150848Y-84233248D01*
X120828382Y-86555713D01*
X118519500Y-88864595D01*
X118457188Y-88898621D01*
X118430405Y-88901500D01*
X115165031Y-88901500D01*
X115096910Y-88881498D01*
X115050417Y-88827842D01*
X115040313Y-88757568D01*
X115069807Y-88692988D01*
X115092760Y-88672287D01*
X115139789Y-88639357D01*
X115139792Y-88639355D01*
X115144300Y-88636198D01*
X115306198Y-88474300D01*
X115437523Y-88286749D01*
X115439846Y-88281767D01*
X115439849Y-88281762D01*
X115531961Y-88084225D01*
X115531961Y-88084224D01*
X115534284Y-88079243D01*
X115574522Y-87929076D01*
X115592119Y-87863402D01*
X115592119Y-87863400D01*
X115593543Y-87858087D01*
X115613498Y-87630000D01*
X115593543Y-87401913D01*
X115534284Y-87180757D01*
X115531961Y-87175775D01*
X115439849Y-86978238D01*
X115439846Y-86978233D01*
X115437523Y-86973251D01*
X115364098Y-86868389D01*
X115309357Y-86790211D01*
X115309355Y-86790208D01*
X115306198Y-86785700D01*
X115144300Y-86623802D01*
X115139792Y-86620645D01*
X115139789Y-86620643D01*
X114989239Y-86515226D01*
X114944911Y-86459768D01*
X114935572Y-86415972D01*
X114933562Y-86352034D01*
X114933500Y-86348075D01*
X114933500Y-86320144D01*
X114932994Y-86316138D01*
X114932061Y-86304292D01*
X114930922Y-86268037D01*
X114930673Y-86260110D01*
X114925022Y-86240658D01*
X114921014Y-86221306D01*
X114919468Y-86209068D01*
X114919467Y-86209066D01*
X114918474Y-86201203D01*
X114902194Y-86160086D01*
X114898359Y-86148885D01*
X114886018Y-86106406D01*
X114881985Y-86099587D01*
X114881983Y-86099582D01*
X114875707Y-86088971D01*
X114867010Y-86071221D01*
X114859552Y-86052383D01*
X114833571Y-86016623D01*
X114827053Y-86006701D01*
X114808578Y-85975460D01*
X114808574Y-85975455D01*
X114804542Y-85968637D01*
X114790218Y-85954313D01*
X114777376Y-85939278D01*
X114775098Y-85936142D01*
X114765472Y-85922893D01*
X114731406Y-85894711D01*
X114722627Y-85886722D01*
X114181944Y-85346039D01*
X114147918Y-85283727D01*
X114152983Y-85212912D01*
X114195530Y-85156076D01*
X114262050Y-85131265D01*
X114282020Y-85131423D01*
X114294525Y-85132517D01*
X114305475Y-85132517D01*
X114522519Y-85113528D01*
X114533312Y-85111625D01*
X114743761Y-85055236D01*
X114754053Y-85051490D01*
X114951511Y-84959414D01*
X114961006Y-84953931D01*
X115013048Y-84917491D01*
X115021424Y-84907012D01*
X115014356Y-84893566D01*
X113941922Y-83821132D01*
X114664408Y-83821132D01*
X114664539Y-83822965D01*
X114668790Y-83829580D01*
X115374287Y-84535077D01*
X115386062Y-84541507D01*
X115398077Y-84532211D01*
X115433931Y-84481006D01*
X115439414Y-84471511D01*
X115531490Y-84274053D01*
X115535236Y-84263761D01*
X115591625Y-84053312D01*
X115593528Y-84042519D01*
X115612517Y-83825475D01*
X115612517Y-83814525D01*
X115593528Y-83597481D01*
X115591625Y-83586688D01*
X115535236Y-83376239D01*
X115531490Y-83365947D01*
X115439414Y-83168489D01*
X115433931Y-83158994D01*
X115397491Y-83106952D01*
X115387012Y-83098576D01*
X115373566Y-83105644D01*
X114672022Y-83807188D01*
X114664408Y-83821132D01*
X113941922Y-83821132D01*
X113225713Y-83104923D01*
X113213938Y-83098493D01*
X113201923Y-83107789D01*
X113166069Y-83158994D01*
X113160586Y-83168489D01*
X113068510Y-83365947D01*
X113064764Y-83376239D01*
X113008375Y-83586688D01*
X113006472Y-83597481D01*
X112987483Y-83814525D01*
X112987483Y-83825475D01*
X112988577Y-83837980D01*
X112974588Y-83907584D01*
X112925188Y-83958577D01*
X112856062Y-83974767D01*
X112789157Y-83951014D01*
X112773961Y-83938056D01*
X112430405Y-83594500D01*
X112396379Y-83532188D01*
X112393500Y-83505405D01*
X112393500Y-82732988D01*
X113578576Y-82732988D01*
X113585644Y-82746434D01*
X114287188Y-83447978D01*
X114301132Y-83455592D01*
X114302965Y-83455461D01*
X114309580Y-83451210D01*
X115015077Y-82745713D01*
X115021507Y-82733938D01*
X115012211Y-82721923D01*
X114961006Y-82686069D01*
X114951511Y-82680586D01*
X114754053Y-82588510D01*
X114743761Y-82584764D01*
X114533312Y-82528375D01*
X114522519Y-82526472D01*
X114305475Y-82507483D01*
X114294525Y-82507483D01*
X114077481Y-82526472D01*
X114066688Y-82528375D01*
X113856239Y-82584764D01*
X113845947Y-82588510D01*
X113648489Y-82680586D01*
X113638994Y-82686069D01*
X113586952Y-82722509D01*
X113578576Y-82732988D01*
X112393500Y-82732988D01*
X112393500Y-80010000D01*
X112986502Y-80010000D01*
X113006457Y-80238087D01*
X113007880Y-80243399D01*
X113007881Y-80243402D01*
X113057819Y-80429770D01*
X113065716Y-80459243D01*
X113068039Y-80464224D01*
X113068039Y-80464225D01*
X113160151Y-80661762D01*
X113160154Y-80661767D01*
X113162477Y-80666749D01*
X113293802Y-80854300D01*
X113455700Y-81016198D01*
X113460208Y-81019355D01*
X113460211Y-81019357D01*
X113538389Y-81074098D01*
X113643251Y-81147523D01*
X113648233Y-81149846D01*
X113648238Y-81149849D01*
X113818825Y-81229394D01*
X113850757Y-81244284D01*
X113856065Y-81245706D01*
X113856067Y-81245707D01*
X114066598Y-81302119D01*
X114066600Y-81302119D01*
X114071913Y-81303543D01*
X114300000Y-81323498D01*
X114528087Y-81303543D01*
X114533400Y-81302119D01*
X114533402Y-81302119D01*
X114743933Y-81245707D01*
X114743935Y-81245706D01*
X114749243Y-81244284D01*
X114781175Y-81229394D01*
X114951762Y-81149849D01*
X114951767Y-81149846D01*
X114956749Y-81147523D01*
X115061611Y-81074098D01*
X115139789Y-81019357D01*
X115139792Y-81019355D01*
X115144300Y-81016198D01*
X115306198Y-80854300D01*
X115437523Y-80666749D01*
X115439846Y-80661767D01*
X115439849Y-80661762D01*
X115531961Y-80464225D01*
X115531961Y-80464224D01*
X115534284Y-80459243D01*
X115542182Y-80429770D01*
X115592119Y-80243402D01*
X115592120Y-80243399D01*
X115593543Y-80238087D01*
X115613498Y-80010000D01*
X115593543Y-79781913D01*
X115588616Y-79763526D01*
X115535707Y-79566067D01*
X115535706Y-79566065D01*
X115534284Y-79560757D01*
X115485938Y-79457077D01*
X115439849Y-79358238D01*
X115439846Y-79358233D01*
X115437523Y-79353251D01*
X115306198Y-79165700D01*
X115144300Y-79003802D01*
X115139792Y-79000645D01*
X115139789Y-79000643D01*
X114970966Y-78882432D01*
X114956749Y-78872477D01*
X114951767Y-78870154D01*
X114951762Y-78870151D01*
X114754225Y-78778039D01*
X114754224Y-78778039D01*
X114749243Y-78775716D01*
X114743935Y-78774294D01*
X114743933Y-78774293D01*
X114533402Y-78717881D01*
X114533400Y-78717881D01*
X114528087Y-78716457D01*
X114300000Y-78696502D01*
X114071913Y-78716457D01*
X114066600Y-78717881D01*
X114066598Y-78717881D01*
X113856067Y-78774293D01*
X113856065Y-78774294D01*
X113850757Y-78775716D01*
X113845776Y-78778039D01*
X113845775Y-78778039D01*
X113648238Y-78870151D01*
X113648233Y-78870154D01*
X113643251Y-78872477D01*
X113629034Y-78882432D01*
X113460211Y-79000643D01*
X113460208Y-79000645D01*
X113455700Y-79003802D01*
X113293802Y-79165700D01*
X113162477Y-79353251D01*
X113160154Y-79358233D01*
X113160151Y-79358238D01*
X113114062Y-79457077D01*
X113065716Y-79560757D01*
X113064294Y-79566065D01*
X113064293Y-79566067D01*
X113011384Y-79763526D01*
X113006457Y-79781913D01*
X112986502Y-80010000D01*
X112393500Y-80010000D01*
X112393500Y-76200000D01*
X112986502Y-76200000D01*
X113006457Y-76428087D01*
X113007881Y-76433400D01*
X113007881Y-76433402D01*
X113063818Y-76642158D01*
X113065716Y-76649243D01*
X113068039Y-76654224D01*
X113068039Y-76654225D01*
X113160151Y-76851762D01*
X113160154Y-76851767D01*
X113162477Y-76856749D01*
X113189325Y-76895092D01*
X113279581Y-77023990D01*
X113293802Y-77044300D01*
X113455700Y-77206198D01*
X113460208Y-77209355D01*
X113460211Y-77209357D01*
X113507240Y-77242287D01*
X113643251Y-77337523D01*
X113648233Y-77339846D01*
X113648238Y-77339849D01*
X113799786Y-77410516D01*
X113850757Y-77434284D01*
X113856065Y-77435706D01*
X113856067Y-77435707D01*
X114066598Y-77492119D01*
X114066600Y-77492119D01*
X114071913Y-77493543D01*
X114300000Y-77513498D01*
X114528087Y-77493543D01*
X114533400Y-77492119D01*
X114533402Y-77492119D01*
X114743933Y-77435707D01*
X114743935Y-77435706D01*
X114749243Y-77434284D01*
X114800214Y-77410516D01*
X114951762Y-77339849D01*
X114951767Y-77339846D01*
X114956749Y-77337523D01*
X115092760Y-77242287D01*
X115139789Y-77209357D01*
X115139792Y-77209355D01*
X115144300Y-77206198D01*
X115306198Y-77044300D01*
X115320420Y-77023990D01*
X115410675Y-76895092D01*
X115437523Y-76856749D01*
X115439846Y-76851767D01*
X115439849Y-76851762D01*
X115531961Y-76654225D01*
X115531961Y-76654224D01*
X115534284Y-76649243D01*
X115536183Y-76642158D01*
X115592119Y-76433402D01*
X115592119Y-76433400D01*
X115593543Y-76428087D01*
X115613498Y-76200000D01*
X115593543Y-75971913D01*
X115588901Y-75954588D01*
X115535707Y-75756067D01*
X115535706Y-75756065D01*
X115534284Y-75750757D01*
X115531961Y-75745775D01*
X115439849Y-75548238D01*
X115439846Y-75548233D01*
X115437523Y-75543251D01*
X115343437Y-75408882D01*
X115309357Y-75360211D01*
X115309355Y-75360208D01*
X115306198Y-75355700D01*
X115144300Y-75193802D01*
X115139792Y-75190645D01*
X115139789Y-75190643D01*
X115030308Y-75113984D01*
X114956749Y-75062477D01*
X114951767Y-75060154D01*
X114951762Y-75060151D01*
X114754225Y-74968039D01*
X114754224Y-74968039D01*
X114749243Y-74965716D01*
X114743935Y-74964294D01*
X114743933Y-74964293D01*
X114533402Y-74907881D01*
X114533400Y-74907881D01*
X114528087Y-74906457D01*
X114300000Y-74886502D01*
X114071913Y-74906457D01*
X114066600Y-74907881D01*
X114066598Y-74907881D01*
X113856067Y-74964293D01*
X113856065Y-74964294D01*
X113850757Y-74965716D01*
X113845776Y-74968039D01*
X113845775Y-74968039D01*
X113648238Y-75060151D01*
X113648233Y-75060154D01*
X113643251Y-75062477D01*
X113569692Y-75113984D01*
X113460211Y-75190643D01*
X113460208Y-75190645D01*
X113455700Y-75193802D01*
X113293802Y-75355700D01*
X113290645Y-75360208D01*
X113290643Y-75360211D01*
X113256563Y-75408882D01*
X113162477Y-75543251D01*
X113160154Y-75548233D01*
X113160151Y-75548238D01*
X113068039Y-75745775D01*
X113065716Y-75750757D01*
X113064294Y-75756065D01*
X113064293Y-75756067D01*
X113011099Y-75954588D01*
X113006457Y-75971913D01*
X112986502Y-76200000D01*
X112393500Y-76200000D01*
X112393500Y-68313156D01*
X113661204Y-68313156D01*
X113671086Y-68325645D01*
X113723124Y-68360416D01*
X113733234Y-68365906D01*
X113924208Y-68447955D01*
X113935151Y-68451510D01*
X114137873Y-68497382D01*
X114149283Y-68498884D01*
X114356978Y-68507044D01*
X114368460Y-68506442D01*
X114574159Y-68476618D01*
X114585355Y-68473930D01*
X114782174Y-68407118D01*
X114792681Y-68402440D01*
X114931069Y-68324938D01*
X114940934Y-68314860D01*
X114937978Y-68307188D01*
X114312812Y-67682022D01*
X114298868Y-67674408D01*
X114297035Y-67674539D01*
X114290420Y-67678790D01*
X113667400Y-68301810D01*
X113661204Y-68313156D01*
X112393500Y-68313156D01*
X112393500Y-67284382D01*
X113101875Y-67284382D01*
X113115469Y-67491783D01*
X113117270Y-67503153D01*
X113168432Y-67704606D01*
X113172273Y-67715453D01*
X113259293Y-67904215D01*
X113265042Y-67914172D01*
X113284225Y-67941315D01*
X113294814Y-67949703D01*
X113308115Y-67942675D01*
X113927978Y-67322812D01*
X113935592Y-67308868D01*
X113935461Y-67307035D01*
X113931210Y-67300420D01*
X113305011Y-66674221D01*
X113292631Y-66667461D01*
X113286665Y-66671927D01*
X113195037Y-66846085D01*
X113190636Y-66856709D01*
X113128998Y-67055215D01*
X113126606Y-67066469D01*
X113102176Y-67272881D01*
X113101875Y-67284382D01*
X112393500Y-67284382D01*
X112393500Y-65084594D01*
X112413502Y-65016473D01*
X112430405Y-64995499D01*
X112899602Y-64526302D01*
X112961914Y-64492276D01*
X113032729Y-64497341D01*
X113089565Y-64539888D01*
X113114376Y-64606408D01*
X113113824Y-64630206D01*
X113104354Y-64710224D01*
X113100995Y-64738603D01*
X113115351Y-64957630D01*
X113169381Y-65170373D01*
X113261275Y-65369708D01*
X113264606Y-65374421D01*
X113264607Y-65374423D01*
X113362235Y-65512562D01*
X113387957Y-65548958D01*
X113545183Y-65702121D01*
X113549979Y-65705326D01*
X113549982Y-65705328D01*
X113623991Y-65754779D01*
X113727688Y-65824067D01*
X113732991Y-65826345D01*
X113732994Y-65826347D01*
X113824640Y-65865721D01*
X113929360Y-65910712D01*
X113957167Y-65917004D01*
X114019193Y-65951547D01*
X114052698Y-66014140D01*
X114047044Y-66084911D01*
X114004025Y-66141390D01*
X113972970Y-66158109D01*
X113789270Y-66225880D01*
X113778892Y-66230830D01*
X113669785Y-66295742D01*
X113660187Y-66306075D01*
X113663673Y-66314463D01*
X115293274Y-67944064D01*
X115305654Y-67950824D01*
X115312234Y-67945898D01*
X115392440Y-67802681D01*
X115397118Y-67792174D01*
X115463930Y-67595355D01*
X115466618Y-67584159D01*
X115496738Y-67376420D01*
X115497368Y-67369037D01*
X115498817Y-67313704D01*
X115498574Y-67306305D01*
X115479367Y-67097272D01*
X115477269Y-67085951D01*
X115420852Y-66885913D01*
X115416727Y-66875166D01*
X115324795Y-66688746D01*
X115318783Y-66678935D01*
X115271189Y-66615199D01*
X115246457Y-66548650D01*
X115261632Y-66479293D01*
X115311894Y-66429151D01*
X115372147Y-66413811D01*
X117412899Y-66413811D01*
X117481020Y-66433813D01*
X117527513Y-66487469D01*
X117537617Y-66557743D01*
X117508123Y-66622323D01*
X117501296Y-66629282D01*
X117498747Y-66631134D01*
X117449004Y-66686379D01*
X117385348Y-66757077D01*
X117370960Y-66773056D01*
X117275473Y-66938444D01*
X117216458Y-67120072D01*
X117215768Y-67126633D01*
X117215768Y-67126635D01*
X117210751Y-67174369D01*
X117200398Y-67272881D01*
X117199093Y-67285293D01*
X117172080Y-67350950D01*
X117162878Y-67361218D01*
X115534852Y-68989243D01*
X113907747Y-70616348D01*
X113899461Y-70623888D01*
X113892982Y-70628000D01*
X113887557Y-70633777D01*
X113846357Y-70677651D01*
X113843602Y-70680493D01*
X113823865Y-70700230D01*
X113821385Y-70703427D01*
X113813682Y-70712447D01*
X113783414Y-70744679D01*
X113779595Y-70751625D01*
X113779593Y-70751628D01*
X113773652Y-70762434D01*
X113762801Y-70778953D01*
X113750386Y-70794959D01*
X113747241Y-70802228D01*
X113747238Y-70802232D01*
X113732826Y-70835537D01*
X113727609Y-70846187D01*
X113706305Y-70884940D01*
X113704334Y-70892615D01*
X113704334Y-70892616D01*
X113701267Y-70904562D01*
X113694863Y-70923266D01*
X113686819Y-70941855D01*
X113685580Y-70949678D01*
X113685577Y-70949688D01*
X113679901Y-70985524D01*
X113677495Y-70997144D01*
X113666500Y-71039970D01*
X113666500Y-71060224D01*
X113664949Y-71079934D01*
X113661780Y-71099943D01*
X113662526Y-71107835D01*
X113665941Y-71143961D01*
X113666500Y-71155819D01*
X113666500Y-71170606D01*
X113646498Y-71238727D01*
X113612771Y-71273819D01*
X113460211Y-71380643D01*
X113460208Y-71380645D01*
X113455700Y-71383802D01*
X113293802Y-71545700D01*
X113162477Y-71733251D01*
X113160154Y-71738233D01*
X113160151Y-71738238D01*
X113075456Y-71919870D01*
X113065716Y-71940757D01*
X113064294Y-71946065D01*
X113064293Y-71946067D01*
X113020652Y-72108938D01*
X113006457Y-72161913D01*
X112986502Y-72390000D01*
X113006457Y-72618087D01*
X113007881Y-72623400D01*
X113007881Y-72623402D01*
X113060934Y-72821395D01*
X113065716Y-72839243D01*
X113068039Y-72844224D01*
X113068039Y-72844225D01*
X113160151Y-73041762D01*
X113160154Y-73041767D01*
X113162477Y-73046749D01*
X113206411Y-73109493D01*
X113276295Y-73209297D01*
X113293802Y-73234300D01*
X113455700Y-73396198D01*
X113460208Y-73399355D01*
X113460211Y-73399357D01*
X113496415Y-73424707D01*
X113643251Y-73527523D01*
X113648233Y-73529846D01*
X113648238Y-73529849D01*
X113845775Y-73621961D01*
X113850757Y-73624284D01*
X113856065Y-73625706D01*
X113856067Y-73625707D01*
X114066598Y-73682119D01*
X114066600Y-73682119D01*
X114071913Y-73683543D01*
X114300000Y-73703498D01*
X114528087Y-73683543D01*
X114533400Y-73682119D01*
X114533402Y-73682119D01*
X114743933Y-73625707D01*
X114743935Y-73625706D01*
X114749243Y-73624284D01*
X114754225Y-73621961D01*
X114951762Y-73529849D01*
X114951767Y-73529846D01*
X114956749Y-73527523D01*
X115103585Y-73424707D01*
X115139789Y-73399357D01*
X115139792Y-73399355D01*
X115144300Y-73396198D01*
X115306198Y-73234300D01*
X115323706Y-73209297D01*
X115393589Y-73109493D01*
X115437523Y-73046749D01*
X115439846Y-73041767D01*
X115439849Y-73041762D01*
X115531961Y-72844225D01*
X115531961Y-72844224D01*
X115534284Y-72839243D01*
X115539067Y-72821395D01*
X115592119Y-72623402D01*
X115592119Y-72623400D01*
X115593543Y-72618087D01*
X115613498Y-72390000D01*
X115593543Y-72161913D01*
X115579348Y-72108938D01*
X115535707Y-71946067D01*
X115535706Y-71946065D01*
X115534284Y-71940757D01*
X115524544Y-71919870D01*
X115439849Y-71738238D01*
X115439846Y-71738233D01*
X115437523Y-71733251D01*
X115306198Y-71545700D01*
X115144300Y-71383802D01*
X115139789Y-71380643D01*
X115135576Y-71377108D01*
X115136894Y-71375537D01*
X115098159Y-71327059D01*
X115090864Y-71256438D01*
X115125673Y-71190231D01*
X118060499Y-68255405D01*
X118122811Y-68221379D01*
X118149594Y-68218500D01*
X118205487Y-68218500D01*
X118211939Y-68217128D01*
X118211944Y-68217128D01*
X118298888Y-68198647D01*
X118392288Y-68178794D01*
X118514691Y-68124297D01*
X118560722Y-68103803D01*
X118560724Y-68103802D01*
X118566752Y-68101118D01*
X118577944Y-68092987D01*
X118673216Y-68023767D01*
X118721253Y-67988866D01*
X118755506Y-67950824D01*
X118844621Y-67851852D01*
X118844622Y-67851851D01*
X118849040Y-67846944D01*
X118924957Y-67715453D01*
X118941223Y-67687279D01*
X118941224Y-67687278D01*
X118944527Y-67681556D01*
X119003542Y-67499928D01*
X119009882Y-67439612D01*
X119022814Y-67316565D01*
X119023504Y-67310000D01*
X119015334Y-67232266D01*
X119004232Y-67126635D01*
X119004232Y-67126633D01*
X119003542Y-67120072D01*
X118944527Y-66938444D01*
X118849040Y-66773056D01*
X118834653Y-66757077D01*
X118770996Y-66686379D01*
X118721253Y-66631134D01*
X118721324Y-66631070D01*
X118685549Y-66572996D01*
X118686904Y-66502012D01*
X118726421Y-66443029D01*
X118791553Y-66414774D01*
X118807101Y-66413811D01*
X120845828Y-66413811D01*
X120913949Y-66433813D01*
X120960442Y-66487469D01*
X120970546Y-66557743D01*
X120944778Y-66617817D01*
X120918329Y-66651368D01*
X120914085Y-66656751D01*
X120911394Y-66661867D01*
X120911392Y-66661869D01*
X120814576Y-66845886D01*
X120811884Y-66851003D01*
X120746794Y-67060627D01*
X120720995Y-67278603D01*
X120735351Y-67497630D01*
X120789381Y-67710373D01*
X120881275Y-67909708D01*
X120884606Y-67914421D01*
X120884607Y-67914423D01*
X120975517Y-68043056D01*
X121007957Y-68088958D01*
X121052654Y-68132500D01*
X121101585Y-68180166D01*
X121165183Y-68242121D01*
X121169979Y-68245326D01*
X121169982Y-68245328D01*
X121303543Y-68334570D01*
X121347688Y-68364067D01*
X121352991Y-68366345D01*
X121352994Y-68366347D01*
X121444640Y-68405721D01*
X121549360Y-68450712D01*
X121663847Y-68476618D01*
X121755610Y-68497382D01*
X121763445Y-68499155D01*
X121769216Y-68499382D01*
X121769218Y-68499382D01*
X121842634Y-68502266D01*
X121982773Y-68507772D01*
X122074442Y-68494481D01*
X122194284Y-68477105D01*
X122194289Y-68477104D01*
X122199998Y-68476276D01*
X122205462Y-68474421D01*
X122205467Y-68474420D01*
X122402378Y-68407577D01*
X122407846Y-68405721D01*
X122599357Y-68298470D01*
X122768115Y-68158115D01*
X122908470Y-67989357D01*
X123015721Y-67797846D01*
X123051852Y-67691407D01*
X123084420Y-67595467D01*
X123084421Y-67595462D01*
X123086276Y-67589998D01*
X123087104Y-67584289D01*
X123087105Y-67584284D01*
X123117239Y-67376447D01*
X123117772Y-67372773D01*
X123119416Y-67310000D01*
X123105939Y-67163327D01*
X123099861Y-67097178D01*
X123099860Y-67097175D01*
X123099332Y-67091424D01*
X123057228Y-66942137D01*
X123041319Y-66885727D01*
X123041318Y-66885725D01*
X123039751Y-66880168D01*
X123029308Y-66858990D01*
X122945225Y-66688488D01*
X122942670Y-66683307D01*
X122935944Y-66674299D01*
X122897131Y-66622323D01*
X122891812Y-66615199D01*
X122867080Y-66548650D01*
X122882254Y-66479294D01*
X122932516Y-66429152D01*
X122992770Y-66413811D01*
X123370922Y-66413811D01*
X123382105Y-66414338D01*
X123389598Y-66416013D01*
X123397524Y-66415764D01*
X123397525Y-66415764D01*
X123457675Y-66413873D01*
X123461634Y-66413811D01*
X123489545Y-66413811D01*
X123493480Y-66413314D01*
X123493545Y-66413306D01*
X123505382Y-66412373D01*
X123537640Y-66411359D01*
X123541659Y-66411233D01*
X123549578Y-66410984D01*
X123569032Y-66405332D01*
X123588389Y-66401324D01*
X123600619Y-66399779D01*
X123600620Y-66399779D01*
X123608486Y-66398785D01*
X123615857Y-66395866D01*
X123615859Y-66395866D01*
X123649601Y-66382507D01*
X123660831Y-66378662D01*
X123695672Y-66368540D01*
X123695673Y-66368540D01*
X123703282Y-66366329D01*
X123710101Y-66362296D01*
X123710106Y-66362294D01*
X123720717Y-66356018D01*
X123738465Y-66347323D01*
X123757306Y-66339863D01*
X123779903Y-66323446D01*
X123793076Y-66313875D01*
X123802996Y-66307359D01*
X123834224Y-66288891D01*
X123834227Y-66288889D01*
X123841051Y-66284853D01*
X123855372Y-66270532D01*
X123870406Y-66257691D01*
X123880383Y-66250442D01*
X123886796Y-66245783D01*
X123914987Y-66211706D01*
X123922977Y-66202927D01*
X124203411Y-65922493D01*
X124265723Y-65888467D01*
X124336538Y-65893532D01*
X124393374Y-65936079D01*
X124418185Y-66002599D01*
X124418026Y-66022570D01*
X124416981Y-66034514D01*
X124416981Y-66034525D01*
X124416502Y-66040000D01*
X124436457Y-66268087D01*
X124437881Y-66273400D01*
X124437881Y-66273402D01*
X124479615Y-66429152D01*
X124495716Y-66489243D01*
X124498039Y-66494224D01*
X124498039Y-66494225D01*
X124590151Y-66691762D01*
X124590154Y-66691767D01*
X124592477Y-66696749D01*
X124625328Y-66743665D01*
X124717282Y-66874988D01*
X124723802Y-66884300D01*
X124885700Y-67046198D01*
X124890208Y-67049355D01*
X124890211Y-67049357D01*
X124914310Y-67066231D01*
X125073251Y-67177523D01*
X125078233Y-67179846D01*
X125080027Y-67180882D01*
X125129019Y-67232266D01*
X125142454Y-67301979D01*
X125116066Y-67367890D01*
X125080027Y-67399118D01*
X125078233Y-67400154D01*
X125073251Y-67402477D01*
X125020217Y-67439612D01*
X124890211Y-67530643D01*
X124890208Y-67530645D01*
X124885700Y-67533802D01*
X124723802Y-67695700D01*
X124720645Y-67700208D01*
X124720643Y-67700211D01*
X124691795Y-67741411D01*
X124592477Y-67883251D01*
X124590154Y-67888233D01*
X124590151Y-67888238D01*
X124517959Y-68043056D01*
X124495716Y-68090757D01*
X124494294Y-68096065D01*
X124494293Y-68096067D01*
X124451598Y-68255405D01*
X124436457Y-68311913D01*
X124416502Y-68540000D01*
X124436457Y-68768087D01*
X124437881Y-68773400D01*
X124437881Y-68773402D01*
X124467267Y-68883069D01*
X124495716Y-68989243D01*
X124498039Y-68994224D01*
X124498039Y-68994225D01*
X124590151Y-69191762D01*
X124590154Y-69191767D01*
X124592477Y-69196749D01*
X124723802Y-69384300D01*
X124885700Y-69546198D01*
X124890208Y-69549355D01*
X124890211Y-69549357D01*
X124923757Y-69572846D01*
X125073251Y-69677523D01*
X125078233Y-69679846D01*
X125078238Y-69679849D01*
X125275775Y-69771961D01*
X125280757Y-69774284D01*
X125286065Y-69775706D01*
X125286067Y-69775707D01*
X125496598Y-69832119D01*
X125496600Y-69832119D01*
X125501913Y-69833543D01*
X125730000Y-69853498D01*
X125958087Y-69833543D01*
X125963400Y-69832119D01*
X125963402Y-69832119D01*
X126173933Y-69775707D01*
X126173935Y-69775706D01*
X126179243Y-69774284D01*
X126184225Y-69771961D01*
X126381762Y-69679849D01*
X126381767Y-69679846D01*
X126386749Y-69677523D01*
X126536243Y-69572846D01*
X126569789Y-69549357D01*
X126569792Y-69549355D01*
X126574300Y-69546198D01*
X126736198Y-69384300D01*
X126867523Y-69196749D01*
X126869846Y-69191767D01*
X126869849Y-69191762D01*
X126961961Y-68994225D01*
X126961961Y-68994224D01*
X126964284Y-68989243D01*
X126992734Y-68883069D01*
X127022119Y-68773402D01*
X127022119Y-68773400D01*
X127023543Y-68768087D01*
X127043498Y-68540000D01*
X127023652Y-68313156D01*
X128901204Y-68313156D01*
X128911086Y-68325645D01*
X128963124Y-68360416D01*
X128973234Y-68365906D01*
X129164208Y-68447955D01*
X129175151Y-68451510D01*
X129377873Y-68497382D01*
X129389283Y-68498884D01*
X129596978Y-68507044D01*
X129608460Y-68506442D01*
X129814159Y-68476618D01*
X129825355Y-68473930D01*
X130022174Y-68407118D01*
X130032681Y-68402440D01*
X130171069Y-68324938D01*
X130180934Y-68314860D01*
X130177978Y-68307188D01*
X129552812Y-67682022D01*
X129538868Y-67674408D01*
X129537035Y-67674539D01*
X129530420Y-67678790D01*
X128907400Y-68301810D01*
X128901204Y-68313156D01*
X127023652Y-68313156D01*
X127023543Y-68311913D01*
X127008402Y-68255405D01*
X126965707Y-68096067D01*
X126965706Y-68096065D01*
X126964284Y-68090757D01*
X126942041Y-68043056D01*
X126869849Y-67888238D01*
X126869846Y-67888233D01*
X126867523Y-67883251D01*
X126768205Y-67741411D01*
X126739357Y-67700211D01*
X126739355Y-67700208D01*
X126736198Y-67695700D01*
X126574300Y-67533802D01*
X126569792Y-67530645D01*
X126569789Y-67530643D01*
X126439783Y-67439612D01*
X126386749Y-67402477D01*
X126381767Y-67400154D01*
X126379973Y-67399118D01*
X126330981Y-67347734D01*
X126318772Y-67284382D01*
X128341875Y-67284382D01*
X128355469Y-67491783D01*
X128357270Y-67503153D01*
X128408432Y-67704606D01*
X128412273Y-67715453D01*
X128499293Y-67904215D01*
X128505042Y-67914172D01*
X128524225Y-67941315D01*
X128534814Y-67949703D01*
X128548115Y-67942675D01*
X129167978Y-67322812D01*
X129175592Y-67308868D01*
X129175461Y-67307035D01*
X129171210Y-67300420D01*
X128545011Y-66674221D01*
X128532631Y-66667461D01*
X128526665Y-66671927D01*
X128435037Y-66846085D01*
X128430636Y-66856709D01*
X128368998Y-67055215D01*
X128366606Y-67066469D01*
X128342176Y-67272881D01*
X128341875Y-67284382D01*
X126318772Y-67284382D01*
X126317546Y-67278021D01*
X126343934Y-67212110D01*
X126379973Y-67180882D01*
X126381767Y-67179846D01*
X126386749Y-67177523D01*
X126545690Y-67066231D01*
X126569789Y-67049357D01*
X126569792Y-67049355D01*
X126574300Y-67046198D01*
X126736198Y-66884300D01*
X126742719Y-66874988D01*
X126834672Y-66743665D01*
X126867523Y-66696749D01*
X126869846Y-66691767D01*
X126869849Y-66691762D01*
X126961961Y-66494225D01*
X126961961Y-66494224D01*
X126964284Y-66489243D01*
X126980386Y-66429152D01*
X127022119Y-66273402D01*
X127022119Y-66273400D01*
X127023543Y-66268087D01*
X127043498Y-66040000D01*
X127023543Y-65811913D01*
X126994984Y-65705328D01*
X126965706Y-65596064D01*
X126964284Y-65590757D01*
X126961380Y-65584528D01*
X126960552Y-65582753D01*
X126960331Y-65581296D01*
X126960078Y-65580602D01*
X126960218Y-65580551D01*
X126949889Y-65512562D01*
X126978867Y-65447748D01*
X127038285Y-65408890D01*
X127074745Y-65403500D01*
X128459914Y-65403500D01*
X128528035Y-65423502D01*
X128562811Y-65456779D01*
X128602235Y-65512562D01*
X128627957Y-65548958D01*
X128785183Y-65702121D01*
X128789979Y-65705326D01*
X128789982Y-65705328D01*
X128863991Y-65754779D01*
X128967688Y-65824067D01*
X128972991Y-65826345D01*
X128972994Y-65826347D01*
X129064640Y-65865721D01*
X129169360Y-65910712D01*
X129197167Y-65917004D01*
X129259193Y-65951547D01*
X129292698Y-66014140D01*
X129287044Y-66084911D01*
X129244025Y-66141390D01*
X129212970Y-66158109D01*
X129029270Y-66225880D01*
X129018892Y-66230830D01*
X128909785Y-66295742D01*
X128900187Y-66306075D01*
X128903673Y-66314463D01*
X130533274Y-67944064D01*
X130545654Y-67950824D01*
X130552234Y-67945898D01*
X130632440Y-67802681D01*
X130637118Y-67792174D01*
X130703930Y-67595355D01*
X130706618Y-67584159D01*
X130736738Y-67376420D01*
X130737368Y-67369037D01*
X130738817Y-67313704D01*
X130738574Y-67306305D01*
X130725761Y-67166855D01*
X130739446Y-67097190D01*
X130788622Y-67045983D01*
X130857677Y-67029491D01*
X130924685Y-67052951D01*
X130940324Y-67066228D01*
X131505061Y-67630966D01*
X132044595Y-68170500D01*
X132078621Y-68232812D01*
X132081500Y-68259595D01*
X132081500Y-69147476D01*
X132061498Y-69215597D01*
X132049142Y-69231779D01*
X131975960Y-69313056D01*
X131880473Y-69478444D01*
X131821458Y-69660072D01*
X131820768Y-69666633D01*
X131820768Y-69666635D01*
X131809698Y-69771961D01*
X131801496Y-69850000D01*
X131802186Y-69856565D01*
X131812191Y-69951753D01*
X131821458Y-70039928D01*
X131880473Y-70221556D01*
X131975960Y-70386944D01*
X131980378Y-70391851D01*
X131980379Y-70391852D01*
X132047480Y-70466375D01*
X132103747Y-70528866D01*
X132202843Y-70600864D01*
X132240193Y-70628000D01*
X132258248Y-70641118D01*
X132264276Y-70643802D01*
X132264278Y-70643803D01*
X132426681Y-70716109D01*
X132432712Y-70718794D01*
X132526113Y-70738647D01*
X132613056Y-70757128D01*
X132613061Y-70757128D01*
X132619513Y-70758500D01*
X132810487Y-70758500D01*
X132816939Y-70757128D01*
X132816944Y-70757128D01*
X132903887Y-70738647D01*
X132997288Y-70718794D01*
X133003319Y-70716109D01*
X133165722Y-70643803D01*
X133165724Y-70643802D01*
X133171752Y-70641118D01*
X133189808Y-70628000D01*
X133227157Y-70600864D01*
X133326253Y-70528866D01*
X133382520Y-70466375D01*
X133449621Y-70391852D01*
X133449622Y-70391851D01*
X133454040Y-70386944D01*
X133549527Y-70221556D01*
X133608542Y-70039928D01*
X133617810Y-69951753D01*
X133627814Y-69856565D01*
X133628504Y-69850000D01*
X133620302Y-69771961D01*
X133609232Y-69666635D01*
X133609232Y-69666633D01*
X133608542Y-69660072D01*
X133549527Y-69478444D01*
X133454040Y-69313056D01*
X133380863Y-69231785D01*
X133350147Y-69167779D01*
X133348500Y-69147476D01*
X133348500Y-68023767D01*
X133349027Y-68012584D01*
X133350702Y-68005091D01*
X133350208Y-67989357D01*
X133348562Y-67937014D01*
X133348500Y-67933055D01*
X133348500Y-67905144D01*
X133347995Y-67901144D01*
X133347062Y-67889301D01*
X133345922Y-67853030D01*
X133345673Y-67845111D01*
X133340021Y-67825657D01*
X133336013Y-67806300D01*
X133334468Y-67794070D01*
X133334468Y-67794069D01*
X133333474Y-67786203D01*
X133330555Y-67778830D01*
X133317196Y-67745088D01*
X133313351Y-67733858D01*
X133303229Y-67699017D01*
X133303229Y-67699016D01*
X133301018Y-67691407D01*
X133296985Y-67684588D01*
X133296983Y-67684583D01*
X133290707Y-67673972D01*
X133282012Y-67656224D01*
X133274552Y-67637383D01*
X133248564Y-67601613D01*
X133242048Y-67591693D01*
X133223580Y-67560465D01*
X133223578Y-67560462D01*
X133219542Y-67553638D01*
X133205221Y-67539317D01*
X133192380Y-67524283D01*
X133185131Y-67514306D01*
X133180472Y-67507893D01*
X133146395Y-67479702D01*
X133137616Y-67471712D01*
X130752160Y-65086255D01*
X130718134Y-65023943D01*
X130716559Y-64979080D01*
X130737239Y-64836447D01*
X130737772Y-64832773D01*
X130739416Y-64770000D01*
X130719332Y-64551424D01*
X130716848Y-64542616D01*
X130661319Y-64345727D01*
X130661318Y-64345725D01*
X130659751Y-64340168D01*
X130653579Y-64327651D01*
X130575705Y-64169739D01*
X130563515Y-64099797D01*
X130591074Y-64034367D01*
X130649632Y-63994224D01*
X130688711Y-63988011D01*
X136013152Y-63988011D01*
X136081273Y-64008013D01*
G37*
%TD.AperFunction*%
%TA.AperFunction,Conductor*%
G36*
X125798959Y-80575339D02*
G01*
X125844195Y-80627543D01*
X125860151Y-80661762D01*
X125860154Y-80661767D01*
X125862477Y-80666749D01*
X125993802Y-80854300D01*
X126155700Y-81016198D01*
X126160208Y-81019355D01*
X126160211Y-81019357D01*
X126238389Y-81074098D01*
X126343251Y-81147523D01*
X126348233Y-81149846D01*
X126348238Y-81149849D01*
X126518825Y-81229394D01*
X126550757Y-81244284D01*
X126556065Y-81245706D01*
X126556067Y-81245707D01*
X126766598Y-81302119D01*
X126766600Y-81302119D01*
X126771913Y-81303543D01*
X127000000Y-81323498D01*
X127228087Y-81303543D01*
X127233398Y-81302120D01*
X127233409Y-81302118D01*
X127291541Y-81286541D01*
X127362517Y-81288230D01*
X127413248Y-81319152D01*
X128461663Y-82367568D01*
X129504595Y-83410500D01*
X129538621Y-83472812D01*
X129541500Y-83499595D01*
X129541500Y-84314345D01*
X129521498Y-84382466D01*
X129509136Y-84398655D01*
X129401311Y-84518407D01*
X129391687Y-84535077D01*
X129314830Y-84668197D01*
X129305824Y-84683795D01*
X129246809Y-84865423D01*
X129246119Y-84871984D01*
X129246119Y-84871986D01*
X129236137Y-84966965D01*
X129226847Y-85055351D01*
X129227537Y-85061916D01*
X129240934Y-85189377D01*
X129246809Y-85245279D01*
X129305824Y-85426907D01*
X129309127Y-85432629D01*
X129309128Y-85432630D01*
X129343037Y-85491361D01*
X129401311Y-85592295D01*
X129478031Y-85677501D01*
X129508748Y-85741509D01*
X129499983Y-85811962D01*
X129473489Y-85850906D01*
X128331106Y-86993289D01*
X128268794Y-87027315D01*
X128197979Y-87022250D01*
X128141143Y-86979703D01*
X128136496Y-86972656D01*
X128097491Y-86916952D01*
X128087012Y-86908576D01*
X128073566Y-86915644D01*
X127089095Y-87900115D01*
X127026783Y-87934141D01*
X126955968Y-87929076D01*
X126910905Y-87900115D01*
X126729885Y-87719095D01*
X126695859Y-87656783D01*
X126700924Y-87585968D01*
X126729885Y-87540905D01*
X127715077Y-86555713D01*
X127721507Y-86543938D01*
X127712211Y-86531923D01*
X127661006Y-86496069D01*
X127651511Y-86490586D01*
X127454053Y-86398510D01*
X127443761Y-86394764D01*
X127233312Y-86338375D01*
X127222519Y-86336472D01*
X127005475Y-86317483D01*
X126994525Y-86317483D01*
X126777481Y-86336472D01*
X126766688Y-86338375D01*
X126656189Y-86367983D01*
X126585213Y-86366293D01*
X126526417Y-86326499D01*
X126498469Y-86261235D01*
X126510242Y-86191221D01*
X126514459Y-86183276D01*
X126561223Y-86102279D01*
X126561224Y-86102278D01*
X126564527Y-86096556D01*
X126623542Y-85914928D01*
X126626065Y-85890928D01*
X126642814Y-85731565D01*
X126643504Y-85725000D01*
X126623542Y-85535072D01*
X126564527Y-85353444D01*
X126559075Y-85344000D01*
X126514459Y-85266724D01*
X126497721Y-85197729D01*
X126520941Y-85130637D01*
X126576748Y-85086750D01*
X126647423Y-85080001D01*
X126656189Y-85082017D01*
X126766688Y-85111625D01*
X126777481Y-85113528D01*
X126994525Y-85132517D01*
X127005475Y-85132517D01*
X127222519Y-85113528D01*
X127233312Y-85111625D01*
X127443761Y-85055236D01*
X127454053Y-85051490D01*
X127651511Y-84959414D01*
X127661006Y-84953931D01*
X127713048Y-84917491D01*
X127721424Y-84907012D01*
X127714356Y-84893566D01*
X126641922Y-83821132D01*
X127364408Y-83821132D01*
X127364539Y-83822965D01*
X127368790Y-83829580D01*
X128074287Y-84535077D01*
X128086062Y-84541507D01*
X128098077Y-84532211D01*
X128133931Y-84481006D01*
X128139414Y-84471511D01*
X128231490Y-84274053D01*
X128235236Y-84263761D01*
X128291625Y-84053312D01*
X128293528Y-84042519D01*
X128312517Y-83825475D01*
X128312517Y-83814525D01*
X128293528Y-83597481D01*
X128291625Y-83586688D01*
X128235236Y-83376239D01*
X128231490Y-83365947D01*
X128139414Y-83168489D01*
X128133931Y-83158994D01*
X128097491Y-83106952D01*
X128087012Y-83098576D01*
X128073566Y-83105644D01*
X127372022Y-83807188D01*
X127364408Y-83821132D01*
X126641922Y-83821132D01*
X125925713Y-83104923D01*
X125913938Y-83098493D01*
X125901923Y-83107789D01*
X125866069Y-83158994D01*
X125860586Y-83168489D01*
X125844471Y-83203049D01*
X125797554Y-83256334D01*
X125729277Y-83275795D01*
X125661317Y-83255253D01*
X125616081Y-83203049D01*
X125599849Y-83168238D01*
X125599846Y-83168233D01*
X125597523Y-83163251D01*
X125466198Y-82975700D01*
X125304300Y-82813802D01*
X125299792Y-82810645D01*
X125299789Y-82810643D01*
X125188887Y-82732988D01*
X126278576Y-82732988D01*
X126285644Y-82746434D01*
X126987188Y-83447978D01*
X127001132Y-83455592D01*
X127002965Y-83455461D01*
X127009580Y-83451210D01*
X127715077Y-82745713D01*
X127721507Y-82733938D01*
X127712211Y-82721923D01*
X127661006Y-82686069D01*
X127651511Y-82680586D01*
X127454053Y-82588510D01*
X127443761Y-82584764D01*
X127233312Y-82528375D01*
X127222519Y-82526472D01*
X127005475Y-82507483D01*
X126994525Y-82507483D01*
X126777481Y-82526472D01*
X126766688Y-82528375D01*
X126556239Y-82584764D01*
X126545947Y-82588510D01*
X126348489Y-82680586D01*
X126338994Y-82686069D01*
X126286952Y-82722509D01*
X126278576Y-82732988D01*
X125188887Y-82732988D01*
X125147229Y-82703819D01*
X125102901Y-82648362D01*
X125093500Y-82600606D01*
X125093500Y-81229394D01*
X125113502Y-81161273D01*
X125147229Y-81126181D01*
X125299789Y-81019357D01*
X125299792Y-81019355D01*
X125304300Y-81016198D01*
X125466198Y-80854300D01*
X125597523Y-80666749D01*
X125599846Y-80661767D01*
X125599849Y-80661762D01*
X125615805Y-80627543D01*
X125662722Y-80574258D01*
X125730999Y-80554797D01*
X125798959Y-80575339D01*
G37*
%TD.AperFunction*%
%TA.AperFunction,Conductor*%
G36*
X128288321Y-59073502D02*
G01*
X128334814Y-59127158D01*
X128346200Y-59179500D01*
X128346200Y-59417885D01*
X128350675Y-59433124D01*
X128352065Y-59434329D01*
X128359748Y-59436000D01*
X130715684Y-59436000D01*
X130730923Y-59431525D01*
X130732128Y-59430135D01*
X130733799Y-59422452D01*
X130733799Y-59179500D01*
X130753801Y-59111379D01*
X130807457Y-59064886D01*
X130859799Y-59053500D01*
X133034688Y-59053500D01*
X133102809Y-59073502D01*
X133123783Y-59090405D01*
X134199871Y-60166494D01*
X134199874Y-60166496D01*
X134584595Y-60551217D01*
X134618621Y-60613529D01*
X134621500Y-60640312D01*
X134621500Y-61527476D01*
X134601498Y-61595597D01*
X134589142Y-61611779D01*
X134515960Y-61693056D01*
X134420473Y-61858444D01*
X134361458Y-62040072D01*
X134360768Y-62046633D01*
X134360768Y-62046635D01*
X134355326Y-62098415D01*
X134328313Y-62164072D01*
X134270091Y-62204702D01*
X134199146Y-62207405D01*
X134138002Y-62171323D01*
X134120897Y-62148245D01*
X134092341Y-62098785D01*
X134089040Y-62093067D01*
X134047233Y-62046635D01*
X133965675Y-61956056D01*
X133965674Y-61956055D01*
X133961253Y-61951145D01*
X133806752Y-61838893D01*
X133800724Y-61836209D01*
X133800722Y-61836208D01*
X133638319Y-61763902D01*
X133638318Y-61763902D01*
X133632288Y-61761217D01*
X133538888Y-61741364D01*
X133451944Y-61722883D01*
X133451939Y-61722883D01*
X133445487Y-61721511D01*
X133372391Y-61721511D01*
X133311682Y-61705921D01*
X133307550Y-61703649D01*
X133291036Y-61692801D01*
X133290572Y-61692441D01*
X133275030Y-61680386D01*
X133267761Y-61677241D01*
X133267757Y-61677238D01*
X133234452Y-61662826D01*
X133223802Y-61657609D01*
X133185049Y-61636305D01*
X133165426Y-61631267D01*
X133146723Y-61624863D01*
X133135409Y-61619967D01*
X133135408Y-61619967D01*
X133128134Y-61616819D01*
X133120311Y-61615580D01*
X133120301Y-61615577D01*
X133084465Y-61609901D01*
X133072845Y-61607495D01*
X133037700Y-61598472D01*
X133037699Y-61598472D01*
X133030019Y-61596500D01*
X133009765Y-61596500D01*
X132990054Y-61594949D01*
X132977875Y-61593020D01*
X132970046Y-61591780D01*
X132962154Y-61592526D01*
X132926028Y-61595941D01*
X132914170Y-61596500D01*
X130620752Y-61596500D01*
X130552631Y-61576498D01*
X130519794Y-61545889D01*
X130506045Y-61527476D01*
X130431340Y-61427434D01*
X130294613Y-61301045D01*
X130274398Y-61282358D01*
X130274395Y-61282356D01*
X130270158Y-61278439D01*
X130084523Y-61161313D01*
X130073036Y-61156730D01*
X129998090Y-61126829D01*
X129942231Y-61083008D01*
X129918931Y-61015943D01*
X129935587Y-60946928D01*
X129986912Y-60897874D01*
X130044781Y-60883799D01*
X130270469Y-60883799D01*
X130277290Y-60883429D01*
X130328152Y-60877905D01*
X130343404Y-60874279D01*
X130463854Y-60829124D01*
X130479449Y-60820586D01*
X130581524Y-60744085D01*
X130594085Y-60731524D01*
X130670586Y-60629449D01*
X130679124Y-60613854D01*
X130724278Y-60493406D01*
X130727905Y-60478151D01*
X130733431Y-60427286D01*
X130733800Y-60420472D01*
X130733800Y-59962115D01*
X130729325Y-59946876D01*
X130727935Y-59945671D01*
X130720252Y-59944000D01*
X128364316Y-59944000D01*
X128349077Y-59948475D01*
X128347872Y-59949865D01*
X128346201Y-59957548D01*
X128346201Y-60420469D01*
X128346571Y-60427290D01*
X128352095Y-60478152D01*
X128355721Y-60493404D01*
X128400876Y-60613854D01*
X128409414Y-60629449D01*
X128485915Y-60731524D01*
X128498476Y-60744085D01*
X128600551Y-60820586D01*
X128616146Y-60829124D01*
X128736594Y-60874278D01*
X128751849Y-60877905D01*
X128802714Y-60883431D01*
X128809528Y-60883800D01*
X129032648Y-60883800D01*
X129100769Y-60903802D01*
X129147262Y-60957458D01*
X129157366Y-61027732D01*
X129127872Y-61092312D01*
X129076259Y-61128012D01*
X129023638Y-61147425D01*
X129018677Y-61150377D01*
X129018676Y-61150377D01*
X128839969Y-61256696D01*
X128839966Y-61256698D01*
X128835001Y-61259652D01*
X128669974Y-61404377D01*
X128534085Y-61576751D01*
X128531394Y-61581867D01*
X128531392Y-61581869D01*
X128435620Y-61763902D01*
X128431884Y-61771003D01*
X128399117Y-61876531D01*
X128374424Y-61956056D01*
X128366794Y-61980627D01*
X128340995Y-62198603D01*
X128355351Y-62417630D01*
X128364234Y-62452607D01*
X128392523Y-62563996D01*
X128389905Y-62634944D01*
X128349344Y-62693214D01*
X128283720Y-62720305D01*
X128270400Y-62721011D01*
X127117299Y-62721011D01*
X127049178Y-62701009D01*
X127002685Y-62647353D01*
X126992581Y-62577079D01*
X126995592Y-62562399D01*
X127023543Y-62458087D01*
X127043498Y-62230000D01*
X127023543Y-62001913D01*
X127019377Y-61986364D01*
X126965707Y-61786067D01*
X126965706Y-61786065D01*
X126964284Y-61780757D01*
X126957350Y-61765886D01*
X126869849Y-61578238D01*
X126869846Y-61578233D01*
X126867523Y-61573251D01*
X126785190Y-61455668D01*
X126739357Y-61390211D01*
X126739355Y-61390208D01*
X126736198Y-61385700D01*
X126574300Y-61223802D01*
X126569792Y-61220645D01*
X126569789Y-61220643D01*
X126437498Y-61128012D01*
X126386749Y-61092477D01*
X126381767Y-61090154D01*
X126379973Y-61089118D01*
X126330981Y-61037734D01*
X126317546Y-60968021D01*
X126343934Y-60902110D01*
X126379973Y-60870882D01*
X126381767Y-60869846D01*
X126386749Y-60867523D01*
X126466124Y-60811944D01*
X126569789Y-60739357D01*
X126569792Y-60739355D01*
X126574300Y-60736198D01*
X126736198Y-60574300D01*
X126867523Y-60386749D01*
X126869846Y-60381767D01*
X126869849Y-60381762D01*
X126961961Y-60184225D01*
X126961961Y-60184224D01*
X126964284Y-60179243D01*
X126966124Y-60172378D01*
X127022119Y-59963402D01*
X127022119Y-59963400D01*
X127023543Y-59958087D01*
X127043498Y-59730000D01*
X127023543Y-59501913D01*
X127022120Y-59496602D01*
X127022118Y-59496591D01*
X127006541Y-59438459D01*
X127008230Y-59367483D01*
X127039152Y-59316752D01*
X127265499Y-59090405D01*
X127327811Y-59056379D01*
X127354594Y-59053500D01*
X128220200Y-59053500D01*
X128288321Y-59073502D01*
G37*
%TD.AperFunction*%
%TD*%
M02*
