M48
; DRILL file {KiCad (6.0.5)} date Sat Jul  8 16:29:17 2023
; FORMAT={-:-/ absolute / metric / decimal}
; #@! TF.CreationDate,2023-07-08T16:29:17+09:00
; #@! TF.GenerationSoftware,Kicad,Pcbnew,(6.0.5)
; #@! TF.FileFunction,Plated,1,2,PTH
FMAT,2
METRIC
; #@! TA.AperFunction,Plated,PTH,ViaDrill
T1C0.400
; #@! TA.AperFunction,Plated,PTH,ComponentDrill
T2C0.800
; #@! TA.AperFunction,Plated,PTH,ComponentDrill
T3C0.864
; #@! TA.AperFunction,Plated,PTH,ComponentDrill
T4C1.000
%
G90
G05
T1
X118.11Y-67.31
X118.11Y-93.345
X125.73Y-85.725
X126.365Y-57.874
X130.14Y-85.055
X131.216Y-83.98
X132.715Y-69.85
X133.35Y-62.63
X135.255Y-62.23
X137.795Y-70.485
X138.43Y-81.915
X139.065Y-97.066
X139.065Y-101.6
X144.055Y-102.87
X144.145Y-99.06
X144.78Y-76.2
X146.05Y-68.58
T2
X114.3Y-72.39
X114.3Y-76.2
X114.3Y-80.01
X114.3Y-83.82
X114.3Y-87.63
X114.3Y-91.44
X124.46Y-72.39
X124.46Y-76.2
X124.46Y-80.01
X124.46Y-83.82
X124.46Y-87.63
X124.46Y-91.44
X125.73Y-59.73
X125.73Y-62.23
X125.73Y-66.04
X125.73Y-68.54
X125.73Y-95.29
X125.73Y-97.79
X125.73Y-101.64
X125.73Y-104.14
X127.0Y-72.39
X127.0Y-76.2
X127.0Y-80.01
X127.0Y-83.82
X127.0Y-87.63
X127.0Y-91.44
X137.16Y-72.39
X137.16Y-76.2
X137.16Y-80.01
X137.16Y-83.82
X137.16Y-87.63
X137.16Y-91.44
T3
X114.3Y-59.69
X114.3Y-62.23
X114.3Y-64.77
X114.3Y-67.31
X114.3Y-96.52
X114.3Y-99.06
X114.3Y-101.6
X114.3Y-104.14
X121.92Y-59.69
X121.92Y-62.23
X121.92Y-64.77
X121.92Y-67.31
X121.92Y-96.52
X121.92Y-99.06
X121.92Y-101.6
X121.92Y-104.14
X129.54Y-59.69
X129.54Y-62.23
X129.54Y-64.77
X129.54Y-67.31
X129.54Y-96.52
X129.54Y-99.06
X129.54Y-101.6
X129.54Y-104.14
X137.16Y-59.69
X137.16Y-62.23
X137.16Y-64.77
X137.16Y-67.31
X137.16Y-96.52
X137.16Y-99.06
X137.16Y-101.6
X137.16Y-104.14
T4
X143.51Y-60.97
X143.51Y-63.51
X143.51Y-66.05
X143.51Y-68.59
X143.51Y-82.55
X143.51Y-85.09
X149.86Y-60.975
X149.86Y-63.515
X149.86Y-66.055
X149.86Y-68.595
X149.86Y-71.135
X149.86Y-73.675
X149.86Y-76.215
X149.86Y-78.755
T0
M30
