%TF.GenerationSoftware,KiCad,Pcbnew,(6.0.5)*%
%TF.CreationDate,2023-02-13T18:16:20+09:00*%
%TF.ProjectId,charge shutdown PCB_v.2,63686172-6765-4207-9368-7574646f776e,rev?*%
%TF.SameCoordinates,Original*%
%TF.FileFunction,Legend,Top*%
%TF.FilePolarity,Positive*%
%FSLAX46Y46*%
G04 Gerber Fmt 4.6, Leading zero omitted, Abs format (unit mm)*
G04 Created by KiCad (PCBNEW (6.0.5)) date 2023-02-13 18:16:20*
%MOMM*%
%LPD*%
G01*
G04 APERTURE LIST*
%ADD10C,0.600000*%
%ADD11C,0.300000*%
%ADD12C,0.150000*%
%ADD13C,0.100000*%
%ADD14C,0.250000*%
%ADD15C,0.254000*%
%ADD16C,0.200000*%
%ADD17C,0.120000*%
G04 APERTURE END LIST*
D10*
X175216857Y-104922000D02*
X174978761Y-104802952D01*
X174621619Y-104802952D01*
X174264476Y-104922000D01*
X174026380Y-105160095D01*
X173907333Y-105398190D01*
X173788285Y-105874380D01*
X173788285Y-106231523D01*
X173907333Y-106707714D01*
X174026380Y-106945809D01*
X174264476Y-107183904D01*
X174621619Y-107302952D01*
X174859714Y-107302952D01*
X175216857Y-107183904D01*
X175335904Y-107064857D01*
X175335904Y-106231523D01*
X174859714Y-106231523D01*
X177597809Y-107302952D02*
X176407333Y-107302952D01*
X176407333Y-104802952D01*
X178074000Y-104802952D02*
X178907333Y-107302952D01*
X179740666Y-104802952D01*
X180574000Y-107302952D02*
X180574000Y-104802952D01*
X181407333Y-106588666D01*
X182240666Y-104802952D01*
X182240666Y-107302952D01*
X183431142Y-107302952D02*
X183431142Y-104802952D01*
X184383523Y-104802952D01*
X184621619Y-104922000D01*
X184740666Y-105041047D01*
X184859714Y-105279142D01*
X184859714Y-105636285D01*
X184740666Y-105874380D01*
X184621619Y-105993428D01*
X184383523Y-106112476D01*
X183431142Y-106112476D01*
D11*
X138938285Y-110406571D02*
X138081142Y-110406571D01*
X138509714Y-110406571D02*
X138509714Y-108906571D01*
X138366857Y-109120857D01*
X138224000Y-109263714D01*
X138081142Y-109335142D01*
X139866857Y-108906571D02*
X140009714Y-108906571D01*
X140152571Y-108978000D01*
X140224000Y-109049428D01*
X140295428Y-109192285D01*
X140366857Y-109478000D01*
X140366857Y-109835142D01*
X140295428Y-110120857D01*
X140224000Y-110263714D01*
X140152571Y-110335142D01*
X140009714Y-110406571D01*
X139866857Y-110406571D01*
X139724000Y-110335142D01*
X139652571Y-110263714D01*
X139581142Y-110120857D01*
X139509714Y-109835142D01*
X139509714Y-109478000D01*
X139581142Y-109192285D01*
X139652571Y-109049428D01*
X139724000Y-108978000D01*
X139866857Y-108906571D01*
X141009714Y-110406571D02*
X141009714Y-109406571D01*
X141009714Y-109549428D02*
X141081142Y-109478000D01*
X141224000Y-109406571D01*
X141438285Y-109406571D01*
X141581142Y-109478000D01*
X141652571Y-109620857D01*
X141652571Y-110406571D01*
X141652571Y-109620857D02*
X141724000Y-109478000D01*
X141866857Y-109406571D01*
X142081142Y-109406571D01*
X142224000Y-109478000D01*
X142295428Y-109620857D01*
X142295428Y-110406571D01*
X143009714Y-110406571D02*
X143009714Y-109406571D01*
X143009714Y-109549428D02*
X143081142Y-109478000D01*
X143224000Y-109406571D01*
X143438285Y-109406571D01*
X143581142Y-109478000D01*
X143652571Y-109620857D01*
X143652571Y-110406571D01*
X143652571Y-109620857D02*
X143724000Y-109478000D01*
X143866857Y-109406571D01*
X144081142Y-109406571D01*
X144224000Y-109478000D01*
X144295428Y-109620857D01*
X144295428Y-110406571D01*
D10*
X115789047Y-88038952D02*
X117217619Y-88038952D01*
X116503333Y-90538952D02*
X116503333Y-88038952D01*
X117931904Y-90419904D02*
X118289047Y-90538952D01*
X118884285Y-90538952D01*
X119122380Y-90419904D01*
X119241428Y-90300857D01*
X119360476Y-90062761D01*
X119360476Y-89824666D01*
X119241428Y-89586571D01*
X119122380Y-89467523D01*
X118884285Y-89348476D01*
X118408095Y-89229428D01*
X118170000Y-89110380D01*
X118050952Y-88991333D01*
X117931904Y-88753238D01*
X117931904Y-88515142D01*
X118050952Y-88277047D01*
X118170000Y-88158000D01*
X118408095Y-88038952D01*
X119003333Y-88038952D01*
X119360476Y-88158000D01*
X120431904Y-90538952D02*
X120431904Y-88038952D01*
X121265238Y-89824666D01*
X122098571Y-88038952D01*
X122098571Y-90538952D01*
X123289047Y-90538952D02*
X123289047Y-88038952D01*
X124241428Y-88038952D01*
X124479523Y-88158000D01*
X124598571Y-88277047D01*
X124717619Y-88515142D01*
X124717619Y-88872285D01*
X124598571Y-89110380D01*
X124479523Y-89229428D01*
X124241428Y-89348476D01*
X123289047Y-89348476D01*
X125789047Y-89586571D02*
X127693809Y-89586571D01*
X130521047Y-88038952D02*
X131949619Y-88038952D01*
X131235333Y-90538952D02*
X131235333Y-88038952D01*
X132663904Y-90419904D02*
X133021047Y-90538952D01*
X133616285Y-90538952D01*
X133854380Y-90419904D01*
X133973428Y-90300857D01*
X134092476Y-90062761D01*
X134092476Y-89824666D01*
X133973428Y-89586571D01*
X133854380Y-89467523D01*
X133616285Y-89348476D01*
X133140095Y-89229428D01*
X132902000Y-89110380D01*
X132782952Y-88991333D01*
X132663904Y-88753238D01*
X132663904Y-88515142D01*
X132782952Y-88277047D01*
X132902000Y-88158000D01*
X133140095Y-88038952D01*
X133735333Y-88038952D01*
X134092476Y-88158000D01*
X135163904Y-90538952D02*
X135163904Y-88038952D01*
X135997238Y-89824666D01*
X136830571Y-88038952D01*
X136830571Y-90538952D01*
X138021047Y-90538952D02*
X138021047Y-88038952D01*
X138973428Y-88038952D01*
X139211523Y-88158000D01*
X139330571Y-88277047D01*
X139449619Y-88515142D01*
X139449619Y-88872285D01*
X139330571Y-89110380D01*
X139211523Y-89229428D01*
X138973428Y-89348476D01*
X138021047Y-89348476D01*
X140521047Y-89586571D02*
X142425809Y-89586571D01*
X141473428Y-90538952D02*
X141473428Y-88634190D01*
D12*
%TO.C,D1*%
X168171904Y-39187380D02*
X168171904Y-38187380D01*
X168410000Y-38187380D01*
X168552857Y-38235000D01*
X168648095Y-38330238D01*
X168695714Y-38425476D01*
X168743333Y-38615952D01*
X168743333Y-38758809D01*
X168695714Y-38949285D01*
X168648095Y-39044523D01*
X168552857Y-39139761D01*
X168410000Y-39187380D01*
X168171904Y-39187380D01*
X169695714Y-39187380D02*
X169124285Y-39187380D01*
X169410000Y-39187380D02*
X169410000Y-38187380D01*
X169314761Y-38330238D01*
X169219523Y-38425476D01*
X169124285Y-38473095D01*
D13*
X173499428Y-36301142D02*
X173499428Y-36586857D01*
X172899428Y-36586857D01*
X172899428Y-36186857D02*
X173499428Y-35986857D01*
X172899428Y-35786857D01*
X173556571Y-35729714D02*
X173556571Y-35272571D01*
X173328000Y-35158285D02*
X173328000Y-34872571D01*
X173499428Y-35215428D02*
X172899428Y-35015428D01*
X173499428Y-34815428D01*
X173442285Y-34272571D02*
X173470857Y-34301142D01*
X173499428Y-34386857D01*
X173499428Y-34444000D01*
X173470857Y-34529714D01*
X173413714Y-34586857D01*
X173356571Y-34615428D01*
X173242285Y-34644000D01*
X173156571Y-34644000D01*
X173042285Y-34615428D01*
X172985142Y-34586857D01*
X172928000Y-34529714D01*
X172899428Y-34444000D01*
X172899428Y-34386857D01*
X172928000Y-34301142D01*
X172956571Y-34272571D01*
X172899428Y-34101142D02*
X172899428Y-33758285D01*
X173499428Y-33929714D02*
X172899428Y-33929714D01*
X173499428Y-33558285D02*
X172899428Y-33558285D01*
X172899428Y-33358285D02*
X173499428Y-33158285D01*
X172899428Y-32958285D01*
X173185142Y-32758285D02*
X173185142Y-32558285D01*
X173499428Y-32472571D02*
X173499428Y-32758285D01*
X172899428Y-32758285D01*
X172899428Y-32472571D01*
D12*
%TO.C,D6*%
X168171904Y-62047380D02*
X168171904Y-61047380D01*
X168410000Y-61047380D01*
X168552857Y-61095000D01*
X168648095Y-61190238D01*
X168695714Y-61285476D01*
X168743333Y-61475952D01*
X168743333Y-61618809D01*
X168695714Y-61809285D01*
X168648095Y-61904523D01*
X168552857Y-61999761D01*
X168410000Y-62047380D01*
X168171904Y-62047380D01*
X169600476Y-61047380D02*
X169410000Y-61047380D01*
X169314761Y-61095000D01*
X169267142Y-61142619D01*
X169171904Y-61285476D01*
X169124285Y-61475952D01*
X169124285Y-61856904D01*
X169171904Y-61952142D01*
X169219523Y-61999761D01*
X169314761Y-62047380D01*
X169505238Y-62047380D01*
X169600476Y-61999761D01*
X169648095Y-61952142D01*
X169695714Y-61856904D01*
X169695714Y-61618809D01*
X169648095Y-61523571D01*
X169600476Y-61475952D01*
X169505238Y-61428333D01*
X169314761Y-61428333D01*
X169219523Y-61475952D01*
X169171904Y-61523571D01*
X169124285Y-61618809D01*
D14*
X174666285Y-60655428D02*
X174723428Y-60484000D01*
X174780571Y-60426857D01*
X174894857Y-60369714D01*
X175066285Y-60369714D01*
X175180571Y-60426857D01*
X175237714Y-60484000D01*
X175294857Y-60598285D01*
X175294857Y-61055428D01*
X174094857Y-61055428D01*
X174094857Y-60655428D01*
X174152000Y-60541142D01*
X174209142Y-60484000D01*
X174323428Y-60426857D01*
X174437714Y-60426857D01*
X174552000Y-60484000D01*
X174609142Y-60541142D01*
X174666285Y-60655428D01*
X174666285Y-61055428D01*
X175294857Y-59855428D02*
X174094857Y-59855428D01*
X174952000Y-59455428D01*
X174094857Y-59055428D01*
X175294857Y-59055428D01*
X175237714Y-58541142D02*
X175294857Y-58369714D01*
X175294857Y-58084000D01*
X175237714Y-57969714D01*
X175180571Y-57912571D01*
X175066285Y-57855428D01*
X174952000Y-57855428D01*
X174837714Y-57912571D01*
X174780571Y-57969714D01*
X174723428Y-58084000D01*
X174666285Y-58312571D01*
X174609142Y-58426857D01*
X174552000Y-58484000D01*
X174437714Y-58541142D01*
X174323428Y-58541142D01*
X174209142Y-58484000D01*
X174152000Y-58426857D01*
X174094857Y-58312571D01*
X174094857Y-58026857D01*
X174152000Y-57855428D01*
X174923428Y-57078285D02*
X174923428Y-57398285D01*
X175426285Y-57398285D02*
X174466285Y-57398285D01*
X174466285Y-56941142D01*
X175152000Y-56621142D02*
X175152000Y-56164000D01*
X175426285Y-56712571D02*
X174466285Y-56392571D01*
X175426285Y-56072571D01*
X174466285Y-55752571D02*
X175243428Y-55752571D01*
X175334857Y-55706857D01*
X175380571Y-55661142D01*
X175426285Y-55569714D01*
X175426285Y-55386857D01*
X175380571Y-55295428D01*
X175334857Y-55249714D01*
X175243428Y-55204000D01*
X174466285Y-55204000D01*
X175426285Y-54289714D02*
X175426285Y-54746857D01*
X174466285Y-54746857D01*
X174466285Y-54106857D02*
X174466285Y-53558285D01*
X175426285Y-53832571D02*
X174466285Y-53832571D01*
D12*
%TO.C,R9*%
X126976380Y-66206666D02*
X126500190Y-66540000D01*
X126976380Y-66778095D02*
X125976380Y-66778095D01*
X125976380Y-66397142D01*
X126024000Y-66301904D01*
X126071619Y-66254285D01*
X126166857Y-66206666D01*
X126309714Y-66206666D01*
X126404952Y-66254285D01*
X126452571Y-66301904D01*
X126500190Y-66397142D01*
X126500190Y-66778095D01*
X126976380Y-65730476D02*
X126976380Y-65540000D01*
X126928761Y-65444761D01*
X126881142Y-65397142D01*
X126738285Y-65301904D01*
X126547809Y-65254285D01*
X126166857Y-65254285D01*
X126071619Y-65301904D01*
X126024000Y-65349523D01*
X125976380Y-65444761D01*
X125976380Y-65635238D01*
X126024000Y-65730476D01*
X126071619Y-65778095D01*
X126166857Y-65825714D01*
X126404952Y-65825714D01*
X126500190Y-65778095D01*
X126547809Y-65730476D01*
X126595428Y-65635238D01*
X126595428Y-65444761D01*
X126547809Y-65349523D01*
X126500190Y-65301904D01*
X126404952Y-65254285D01*
%TO.C,R8*%
X141200380Y-65702166D02*
X140724190Y-66035500D01*
X141200380Y-66273595D02*
X140200380Y-66273595D01*
X140200380Y-65892642D01*
X140248000Y-65797404D01*
X140295619Y-65749785D01*
X140390857Y-65702166D01*
X140533714Y-65702166D01*
X140628952Y-65749785D01*
X140676571Y-65797404D01*
X140724190Y-65892642D01*
X140724190Y-66273595D01*
X140628952Y-65130738D02*
X140581333Y-65225976D01*
X140533714Y-65273595D01*
X140438476Y-65321214D01*
X140390857Y-65321214D01*
X140295619Y-65273595D01*
X140248000Y-65225976D01*
X140200380Y-65130738D01*
X140200380Y-64940261D01*
X140248000Y-64845023D01*
X140295619Y-64797404D01*
X140390857Y-64749785D01*
X140438476Y-64749785D01*
X140533714Y-64797404D01*
X140581333Y-64845023D01*
X140628952Y-64940261D01*
X140628952Y-65130738D01*
X140676571Y-65225976D01*
X140724190Y-65273595D01*
X140819428Y-65321214D01*
X141009904Y-65321214D01*
X141105142Y-65273595D01*
X141152761Y-65225976D01*
X141200380Y-65130738D01*
X141200380Y-64940261D01*
X141152761Y-64845023D01*
X141105142Y-64797404D01*
X141009904Y-64749785D01*
X140819428Y-64749785D01*
X140724190Y-64797404D01*
X140676571Y-64845023D01*
X140628952Y-64940261D01*
D15*
%TO.C,U1*%
X169212380Y-76139523D02*
X169212380Y-77167619D01*
X169272857Y-77288571D01*
X169333333Y-77349047D01*
X169454285Y-77409523D01*
X169696190Y-77409523D01*
X169817142Y-77349047D01*
X169877619Y-77288571D01*
X169938095Y-77167619D01*
X169938095Y-76139523D01*
X171208095Y-77409523D02*
X170482380Y-77409523D01*
X170845238Y-77409523D02*
X170845238Y-76139523D01*
X170724285Y-76320952D01*
X170603333Y-76441904D01*
X170482380Y-76502380D01*
D16*
%TO.C,D3*%
X190635238Y-56332380D02*
X190635238Y-55332380D01*
X191111428Y-56332380D02*
X191111428Y-55332380D01*
X191444761Y-56046666D01*
X191778095Y-55332380D01*
X191778095Y-56332380D01*
X192254285Y-56332380D02*
X192254285Y-55332380D01*
X192492380Y-55332380D01*
X192635238Y-55380000D01*
X192730476Y-55475238D01*
X192778095Y-55570476D01*
X192825714Y-55760952D01*
X192825714Y-55903809D01*
X192778095Y-56094285D01*
X192730476Y-56189523D01*
X192635238Y-56284761D01*
X192492380Y-56332380D01*
X192254285Y-56332380D01*
X193663809Y-56365714D02*
X193625714Y-56403809D01*
X193511428Y-56441904D01*
X193435238Y-56441904D01*
X193320952Y-56403809D01*
X193244761Y-56327619D01*
X193206666Y-56251428D01*
X193168571Y-56099047D01*
X193168571Y-55984761D01*
X193206666Y-55832380D01*
X193244761Y-55756190D01*
X193320952Y-55680000D01*
X193435238Y-55641904D01*
X193511428Y-55641904D01*
X193625714Y-55680000D01*
X193663809Y-55718095D01*
X194159047Y-55641904D02*
X194311428Y-55641904D01*
X194387619Y-55680000D01*
X194463809Y-55756190D01*
X194501904Y-55908571D01*
X194501904Y-56175238D01*
X194463809Y-56327619D01*
X194387619Y-56403809D01*
X194311428Y-56441904D01*
X194159047Y-56441904D01*
X194082857Y-56403809D01*
X194006666Y-56327619D01*
X193968571Y-56175238D01*
X193968571Y-55908571D01*
X194006666Y-55756190D01*
X194082857Y-55680000D01*
X194159047Y-55641904D01*
X194844761Y-56441904D02*
X194844761Y-55641904D01*
X195606666Y-56441904D02*
X195225714Y-56441904D01*
X195225714Y-55641904D01*
D12*
%TO.C,SMPS*%
X190904761Y-47553333D02*
X190952380Y-47410476D01*
X190952380Y-47172380D01*
X190904761Y-47077142D01*
X190857142Y-47029523D01*
X190761904Y-46981904D01*
X190666666Y-46981904D01*
X190571428Y-47029523D01*
X190523809Y-47077142D01*
X190476190Y-47172380D01*
X190428571Y-47362857D01*
X190380952Y-47458095D01*
X190333333Y-47505714D01*
X190238095Y-47553333D01*
X190142857Y-47553333D01*
X190047619Y-47505714D01*
X190000000Y-47458095D01*
X189952380Y-47362857D01*
X189952380Y-47124761D01*
X190000000Y-46981904D01*
X190952380Y-46553333D02*
X189952380Y-46553333D01*
X190666666Y-46220000D01*
X189952380Y-45886666D01*
X190952380Y-45886666D01*
X190952380Y-45410476D02*
X189952380Y-45410476D01*
X189952380Y-45029523D01*
X190000000Y-44934285D01*
X190047619Y-44886666D01*
X190142857Y-44839047D01*
X190285714Y-44839047D01*
X190380952Y-44886666D01*
X190428571Y-44934285D01*
X190476190Y-45029523D01*
X190476190Y-45410476D01*
X190904761Y-44458095D02*
X190952380Y-44315238D01*
X190952380Y-44077142D01*
X190904761Y-43981904D01*
X190857142Y-43934285D01*
X190761904Y-43886666D01*
X190666666Y-43886666D01*
X190571428Y-43934285D01*
X190523809Y-43981904D01*
X190476190Y-44077142D01*
X190428571Y-44267619D01*
X190380952Y-44362857D01*
X190333333Y-44410476D01*
X190238095Y-44458095D01*
X190142857Y-44458095D01*
X190047619Y-44410476D01*
X190000000Y-44362857D01*
X189952380Y-44267619D01*
X189952380Y-44029523D01*
X190000000Y-43886666D01*
D15*
%TO.C,RELAY_DISCHARGE1*%
X136676190Y-39884523D02*
X136252857Y-39279761D01*
X135950476Y-39884523D02*
X135950476Y-38614523D01*
X136434285Y-38614523D01*
X136555238Y-38675000D01*
X136615714Y-38735476D01*
X136676190Y-38856428D01*
X136676190Y-39037857D01*
X136615714Y-39158809D01*
X136555238Y-39219285D01*
X136434285Y-39279761D01*
X135950476Y-39279761D01*
X137220476Y-39219285D02*
X137643809Y-39219285D01*
X137825238Y-39884523D02*
X137220476Y-39884523D01*
X137220476Y-38614523D01*
X137825238Y-38614523D01*
X138974285Y-39884523D02*
X138369523Y-39884523D01*
X138369523Y-38614523D01*
X139337142Y-39521666D02*
X139941904Y-39521666D01*
X139216190Y-39884523D02*
X139639523Y-38614523D01*
X140062857Y-39884523D01*
X140728095Y-39279761D02*
X140728095Y-39884523D01*
X140304761Y-38614523D02*
X140728095Y-39279761D01*
X141151428Y-38614523D01*
X141272380Y-40005476D02*
X142239999Y-40005476D01*
X142542380Y-39884523D02*
X142542380Y-38614523D01*
X142844761Y-38614523D01*
X143026190Y-38675000D01*
X143147142Y-38795952D01*
X143207619Y-38916904D01*
X143268095Y-39158809D01*
X143268095Y-39340238D01*
X143207619Y-39582142D01*
X143147142Y-39703095D01*
X143026190Y-39824047D01*
X142844761Y-39884523D01*
X142542380Y-39884523D01*
X143812380Y-39884523D02*
X143812380Y-38614523D01*
X144356666Y-39824047D02*
X144538095Y-39884523D01*
X144840476Y-39884523D01*
X144961428Y-39824047D01*
X145021904Y-39763571D01*
X145082380Y-39642619D01*
X145082380Y-39521666D01*
X145021904Y-39400714D01*
X144961428Y-39340238D01*
X144840476Y-39279761D01*
X144598571Y-39219285D01*
X144477619Y-39158809D01*
X144417142Y-39098333D01*
X144356666Y-38977380D01*
X144356666Y-38856428D01*
X144417142Y-38735476D01*
X144477619Y-38675000D01*
X144598571Y-38614523D01*
X144900952Y-38614523D01*
X145082380Y-38675000D01*
X146352380Y-39763571D02*
X146291904Y-39824047D01*
X146110476Y-39884523D01*
X145989523Y-39884523D01*
X145808095Y-39824047D01*
X145687142Y-39703095D01*
X145626666Y-39582142D01*
X145566190Y-39340238D01*
X145566190Y-39158809D01*
X145626666Y-38916904D01*
X145687142Y-38795952D01*
X145808095Y-38675000D01*
X145989523Y-38614523D01*
X146110476Y-38614523D01*
X146291904Y-38675000D01*
X146352380Y-38735476D01*
X146896666Y-39884523D02*
X146896666Y-38614523D01*
X146896666Y-39219285D02*
X147622380Y-39219285D01*
X147622380Y-39884523D02*
X147622380Y-38614523D01*
X148166666Y-39521666D02*
X148771428Y-39521666D01*
X148045714Y-39884523D02*
X148469047Y-38614523D01*
X148892380Y-39884523D01*
X150041428Y-39884523D02*
X149618095Y-39279761D01*
X149315714Y-39884523D02*
X149315714Y-38614523D01*
X149799523Y-38614523D01*
X149920476Y-38675000D01*
X149980952Y-38735476D01*
X150041428Y-38856428D01*
X150041428Y-39037857D01*
X149980952Y-39158809D01*
X149920476Y-39219285D01*
X149799523Y-39279761D01*
X149315714Y-39279761D01*
X151250952Y-38675000D02*
X151129999Y-38614523D01*
X150948571Y-38614523D01*
X150767142Y-38675000D01*
X150646190Y-38795952D01*
X150585714Y-38916904D01*
X150525238Y-39158809D01*
X150525238Y-39340238D01*
X150585714Y-39582142D01*
X150646190Y-39703095D01*
X150767142Y-39824047D01*
X150948571Y-39884523D01*
X151069523Y-39884523D01*
X151250952Y-39824047D01*
X151311428Y-39763571D01*
X151311428Y-39340238D01*
X151069523Y-39340238D01*
X151855714Y-39219285D02*
X152279047Y-39219285D01*
X152460476Y-39884523D02*
X151855714Y-39884523D01*
X151855714Y-38614523D01*
X152460476Y-38614523D01*
X153670000Y-39884523D02*
X152944285Y-39884523D01*
X153307142Y-39884523D02*
X153307142Y-38614523D01*
X153186190Y-38795952D01*
X153065238Y-38916904D01*
X152944285Y-38977380D01*
%TO.C,U2*%
X169212380Y-92649523D02*
X169212380Y-93677619D01*
X169272857Y-93798571D01*
X169333333Y-93859047D01*
X169454285Y-93919523D01*
X169696190Y-93919523D01*
X169817142Y-93859047D01*
X169877619Y-93798571D01*
X169938095Y-93677619D01*
X169938095Y-92649523D01*
X170482380Y-92770476D02*
X170542857Y-92710000D01*
X170663809Y-92649523D01*
X170966190Y-92649523D01*
X171087142Y-92710000D01*
X171147619Y-92770476D01*
X171208095Y-92891428D01*
X171208095Y-93012380D01*
X171147619Y-93193809D01*
X170421904Y-93919523D01*
X171208095Y-93919523D01*
D12*
%TO.C,R5*%
X161727380Y-39536666D02*
X161251190Y-39870000D01*
X161727380Y-40108095D02*
X160727380Y-40108095D01*
X160727380Y-39727142D01*
X160775000Y-39631904D01*
X160822619Y-39584285D01*
X160917857Y-39536666D01*
X161060714Y-39536666D01*
X161155952Y-39584285D01*
X161203571Y-39631904D01*
X161251190Y-39727142D01*
X161251190Y-40108095D01*
X160727380Y-38631904D02*
X160727380Y-39108095D01*
X161203571Y-39155714D01*
X161155952Y-39108095D01*
X161108333Y-39012857D01*
X161108333Y-38774761D01*
X161155952Y-38679523D01*
X161203571Y-38631904D01*
X161298809Y-38584285D01*
X161536904Y-38584285D01*
X161632142Y-38631904D01*
X161679761Y-38679523D01*
X161727380Y-38774761D01*
X161727380Y-39012857D01*
X161679761Y-39108095D01*
X161632142Y-39155714D01*
X161456904Y-33837619D02*
X161504523Y-33790000D01*
X161599761Y-33742380D01*
X161837857Y-33742380D01*
X161933095Y-33790000D01*
X161980714Y-33837619D01*
X162028333Y-33932857D01*
X162028333Y-34028095D01*
X161980714Y-34170952D01*
X161409285Y-34742380D01*
X162028333Y-34742380D01*
X162885476Y-34075714D02*
X162885476Y-34742380D01*
X162647380Y-33694761D02*
X162409285Y-34409047D01*
X163028333Y-34409047D01*
X163599761Y-33742380D02*
X163695000Y-33742380D01*
X163790238Y-33790000D01*
X163837857Y-33837619D01*
X163885476Y-33932857D01*
X163933095Y-34123333D01*
X163933095Y-34361428D01*
X163885476Y-34551904D01*
X163837857Y-34647142D01*
X163790238Y-34694761D01*
X163695000Y-34742380D01*
X163599761Y-34742380D01*
X163504523Y-34694761D01*
X163456904Y-34647142D01*
X163409285Y-34551904D01*
X163361666Y-34361428D01*
X163361666Y-34123333D01*
X163409285Y-33932857D01*
X163456904Y-33837619D01*
X163504523Y-33790000D01*
X163599761Y-33742380D01*
X164361666Y-34742380D02*
X164361666Y-33742380D01*
X164933095Y-34742380D02*
X164504523Y-34170952D01*
X164933095Y-33742380D02*
X164361666Y-34313809D01*
%TO.C,RESET*%
X190952380Y-42092380D02*
X190476190Y-42425714D01*
X190952380Y-42663809D02*
X189952380Y-42663809D01*
X189952380Y-42282857D01*
X190000000Y-42187619D01*
X190047619Y-42140000D01*
X190142857Y-42092380D01*
X190285714Y-42092380D01*
X190380952Y-42140000D01*
X190428571Y-42187619D01*
X190476190Y-42282857D01*
X190476190Y-42663809D01*
X190428571Y-41663809D02*
X190428571Y-41330476D01*
X190952380Y-41187619D02*
X190952380Y-41663809D01*
X189952380Y-41663809D01*
X189952380Y-41187619D01*
X190904761Y-40806666D02*
X190952380Y-40663809D01*
X190952380Y-40425714D01*
X190904761Y-40330476D01*
X190857142Y-40282857D01*
X190761904Y-40235238D01*
X190666666Y-40235238D01*
X190571428Y-40282857D01*
X190523809Y-40330476D01*
X190476190Y-40425714D01*
X190428571Y-40616190D01*
X190380952Y-40711428D01*
X190333333Y-40759047D01*
X190238095Y-40806666D01*
X190142857Y-40806666D01*
X190047619Y-40759047D01*
X190000000Y-40711428D01*
X189952380Y-40616190D01*
X189952380Y-40378095D01*
X190000000Y-40235238D01*
X190428571Y-39806666D02*
X190428571Y-39473333D01*
X190952380Y-39330476D02*
X190952380Y-39806666D01*
X189952380Y-39806666D01*
X189952380Y-39330476D01*
X189952380Y-39044761D02*
X189952380Y-38473333D01*
X190952380Y-38759047D02*
X189952380Y-38759047D01*
%TO.C,Q1*%
X181617619Y-48355238D02*
X181570000Y-48450476D01*
X181474761Y-48545714D01*
X181331904Y-48688571D01*
X181284285Y-48783809D01*
X181284285Y-48879047D01*
X181522380Y-48831428D02*
X181474761Y-48926666D01*
X181379523Y-49021904D01*
X181189047Y-49069523D01*
X180855714Y-49069523D01*
X180665238Y-49021904D01*
X180570000Y-48926666D01*
X180522380Y-48831428D01*
X180522380Y-48640952D01*
X180570000Y-48545714D01*
X180665238Y-48450476D01*
X180855714Y-48402857D01*
X181189047Y-48402857D01*
X181379523Y-48450476D01*
X181474761Y-48545714D01*
X181522380Y-48640952D01*
X181522380Y-48831428D01*
X181522380Y-47450476D02*
X181522380Y-48021904D01*
X181522380Y-47736190D02*
X180522380Y-47736190D01*
X180665238Y-47831428D01*
X180760476Y-47926666D01*
X180808095Y-48021904D01*
%TO.C,J2*%
X190166666Y-99177380D02*
X190166666Y-99891666D01*
X190119047Y-100034523D01*
X190023809Y-100129761D01*
X189880952Y-100177380D01*
X189785714Y-100177380D01*
X190595238Y-99272619D02*
X190642857Y-99225000D01*
X190738095Y-99177380D01*
X190976190Y-99177380D01*
X191071428Y-99225000D01*
X191119047Y-99272619D01*
X191166666Y-99367857D01*
X191166666Y-99463095D01*
X191119047Y-99605952D01*
X190547619Y-100177380D01*
X191166666Y-100177380D01*
X188301523Y-69032380D02*
X188301523Y-68032380D01*
X188682476Y-68032380D01*
X188777714Y-68080000D01*
X188825333Y-68127619D01*
X188872952Y-68222857D01*
X188872952Y-68365714D01*
X188825333Y-68460952D01*
X188777714Y-68508571D01*
X188682476Y-68556190D01*
X188301523Y-68556190D01*
X189253904Y-68746666D02*
X189730095Y-68746666D01*
X189158666Y-69032380D02*
X189492000Y-68032380D01*
X189825333Y-69032380D01*
X190730095Y-68937142D02*
X190682476Y-68984761D01*
X190539619Y-69032380D01*
X190444380Y-69032380D01*
X190301523Y-68984761D01*
X190206285Y-68889523D01*
X190158666Y-68794285D01*
X190111047Y-68603809D01*
X190111047Y-68460952D01*
X190158666Y-68270476D01*
X190206285Y-68175238D01*
X190301523Y-68080000D01*
X190444380Y-68032380D01*
X190539619Y-68032380D01*
X190682476Y-68080000D01*
X190730095Y-68127619D01*
X191158666Y-69032380D02*
X191158666Y-68032380D01*
X191730095Y-69032380D02*
X191301523Y-68460952D01*
X191730095Y-68032380D02*
X191158666Y-68603809D01*
%TO.C,D4*%
X168171904Y-54577380D02*
X168171904Y-53577380D01*
X168410000Y-53577380D01*
X168552857Y-53625000D01*
X168648095Y-53720238D01*
X168695714Y-53815476D01*
X168743333Y-54005952D01*
X168743333Y-54148809D01*
X168695714Y-54339285D01*
X168648095Y-54434523D01*
X168552857Y-54529761D01*
X168410000Y-54577380D01*
X168171904Y-54577380D01*
X169600476Y-53910714D02*
X169600476Y-54577380D01*
X169362380Y-53529761D02*
X169124285Y-54244047D01*
X169743333Y-54244047D01*
D14*
X175294857Y-52133714D02*
X174094857Y-52133714D01*
X175294857Y-51562285D02*
X174094857Y-51562285D01*
X174952000Y-51162285D01*
X174094857Y-50762285D01*
X175294857Y-50762285D01*
X175294857Y-50190857D02*
X174094857Y-50190857D01*
X174094857Y-49905142D01*
X174152000Y-49733714D01*
X174266285Y-49619428D01*
X174380571Y-49562285D01*
X174609142Y-49505142D01*
X174780571Y-49505142D01*
X175009142Y-49562285D01*
X175123428Y-49619428D01*
X175237714Y-49733714D01*
X175294857Y-49905142D01*
X175294857Y-50190857D01*
X174923428Y-48728000D02*
X174923428Y-49048000D01*
X175426285Y-49048000D02*
X174466285Y-49048000D01*
X174466285Y-48590857D01*
X175152000Y-48270857D02*
X175152000Y-47813714D01*
X175426285Y-48362285D02*
X174466285Y-48042285D01*
X175426285Y-47722285D01*
X174466285Y-47402285D02*
X175243428Y-47402285D01*
X175334857Y-47356571D01*
X175380571Y-47310857D01*
X175426285Y-47219428D01*
X175426285Y-47036571D01*
X175380571Y-46945142D01*
X175334857Y-46899428D01*
X175243428Y-46853714D01*
X174466285Y-46853714D01*
X175426285Y-45939428D02*
X175426285Y-46396571D01*
X174466285Y-46396571D01*
X174466285Y-45756571D02*
X174466285Y-45208000D01*
X175426285Y-45482285D02*
X174466285Y-45482285D01*
D12*
%TO.C,Q2*%
X183427619Y-61055238D02*
X183380000Y-61150476D01*
X183284761Y-61245714D01*
X183141904Y-61388571D01*
X183094285Y-61483809D01*
X183094285Y-61579047D01*
X183332380Y-61531428D02*
X183284761Y-61626666D01*
X183189523Y-61721904D01*
X182999047Y-61769523D01*
X182665714Y-61769523D01*
X182475238Y-61721904D01*
X182380000Y-61626666D01*
X182332380Y-61531428D01*
X182332380Y-61340952D01*
X182380000Y-61245714D01*
X182475238Y-61150476D01*
X182665714Y-61102857D01*
X182999047Y-61102857D01*
X183189523Y-61150476D01*
X183284761Y-61245714D01*
X183332380Y-61340952D01*
X183332380Y-61531428D01*
X182427619Y-60721904D02*
X182380000Y-60674285D01*
X182332380Y-60579047D01*
X182332380Y-60340952D01*
X182380000Y-60245714D01*
X182427619Y-60198095D01*
X182522857Y-60150476D01*
X182618095Y-60150476D01*
X182760952Y-60198095D01*
X183332380Y-60769523D01*
X183332380Y-60150476D01*
%TO.C,R_DIS1*%
X90258619Y-59436095D02*
X90734809Y-59102761D01*
X90258619Y-58864666D02*
X91258619Y-58864666D01*
X91258619Y-59245619D01*
X91211000Y-59340857D01*
X91163380Y-59388476D01*
X91068142Y-59436095D01*
X90925285Y-59436095D01*
X90830047Y-59388476D01*
X90782428Y-59340857D01*
X90734809Y-59245619D01*
X90734809Y-58864666D01*
X90163380Y-59626571D02*
X90163380Y-60388476D01*
X90258619Y-60626571D02*
X91258619Y-60626571D01*
X91258619Y-60864666D01*
X91211000Y-61007523D01*
X91115761Y-61102761D01*
X91020523Y-61150380D01*
X90830047Y-61198000D01*
X90687190Y-61198000D01*
X90496714Y-61150380D01*
X90401476Y-61102761D01*
X90306238Y-61007523D01*
X90258619Y-60864666D01*
X90258619Y-60626571D01*
X90258619Y-61626571D02*
X91258619Y-61626571D01*
X90306238Y-62055142D02*
X90258619Y-62198000D01*
X90258619Y-62436095D01*
X90306238Y-62531333D01*
X90353857Y-62578952D01*
X90449095Y-62626571D01*
X90544333Y-62626571D01*
X90639571Y-62578952D01*
X90687190Y-62531333D01*
X90734809Y-62436095D01*
X90782428Y-62245619D01*
X90830047Y-62150380D01*
X90877666Y-62102761D01*
X90972904Y-62055142D01*
X91068142Y-62055142D01*
X91163380Y-62102761D01*
X91211000Y-62150380D01*
X91258619Y-62245619D01*
X91258619Y-62483714D01*
X91211000Y-62626571D01*
X90258619Y-63578952D02*
X90258619Y-63007523D01*
X90258619Y-63293238D02*
X91258619Y-63293238D01*
X91115761Y-63198000D01*
X91020523Y-63102761D01*
X90972904Y-63007523D01*
%TO.C,J5*%
X75696380Y-100409333D02*
X76410666Y-100409333D01*
X76553523Y-100456952D01*
X76648761Y-100552190D01*
X76696380Y-100695047D01*
X76696380Y-100790285D01*
X75696380Y-99456952D02*
X75696380Y-99933142D01*
X76172571Y-99980761D01*
X76124952Y-99933142D01*
X76077333Y-99837904D01*
X76077333Y-99599809D01*
X76124952Y-99504571D01*
X76172571Y-99456952D01*
X76267809Y-99409333D01*
X76505904Y-99409333D01*
X76601142Y-99456952D01*
X76648761Y-99504571D01*
X76696380Y-99599809D01*
X76696380Y-99837904D01*
X76648761Y-99933142D01*
X76601142Y-99980761D01*
%TO.C,D5*%
X190730476Y-63428571D02*
X190873333Y-63476190D01*
X190920952Y-63523809D01*
X190968571Y-63619047D01*
X190968571Y-63761904D01*
X190920952Y-63857142D01*
X190873333Y-63904761D01*
X190778095Y-63952380D01*
X190397142Y-63952380D01*
X190397142Y-62952380D01*
X190730476Y-62952380D01*
X190825714Y-63000000D01*
X190873333Y-63047619D01*
X190920952Y-63142857D01*
X190920952Y-63238095D01*
X190873333Y-63333333D01*
X190825714Y-63380952D01*
X190730476Y-63428571D01*
X190397142Y-63428571D01*
X191397142Y-63952380D02*
X191397142Y-62952380D01*
X191730476Y-63666666D01*
X192063809Y-62952380D01*
X192063809Y-63952380D01*
X192492380Y-63904761D02*
X192635238Y-63952380D01*
X192873333Y-63952380D01*
X192968571Y-63904761D01*
X193016190Y-63857142D01*
X193063809Y-63761904D01*
X193063809Y-63666666D01*
X193016190Y-63571428D01*
X192968571Y-63523809D01*
X192873333Y-63476190D01*
X192682857Y-63428571D01*
X192587619Y-63380952D01*
X192540000Y-63333333D01*
X192492380Y-63238095D01*
X192492380Y-63142857D01*
X192540000Y-63047619D01*
X192587619Y-63000000D01*
X192682857Y-62952380D01*
X192920952Y-62952380D01*
X193063809Y-63000000D01*
X193901904Y-63985714D02*
X193863809Y-64023809D01*
X193749523Y-64061904D01*
X193673333Y-64061904D01*
X193559047Y-64023809D01*
X193482857Y-63947619D01*
X193444761Y-63871428D01*
X193406666Y-63719047D01*
X193406666Y-63604761D01*
X193444761Y-63452380D01*
X193482857Y-63376190D01*
X193559047Y-63300000D01*
X193673333Y-63261904D01*
X193749523Y-63261904D01*
X193863809Y-63300000D01*
X193901904Y-63338095D01*
X194397142Y-63261904D02*
X194549523Y-63261904D01*
X194625714Y-63300000D01*
X194701904Y-63376190D01*
X194740000Y-63528571D01*
X194740000Y-63795238D01*
X194701904Y-63947619D01*
X194625714Y-64023809D01*
X194549523Y-64061904D01*
X194397142Y-64061904D01*
X194320952Y-64023809D01*
X194244761Y-63947619D01*
X194206666Y-63795238D01*
X194206666Y-63528571D01*
X194244761Y-63376190D01*
X194320952Y-63300000D01*
X194397142Y-63261904D01*
X195082857Y-64061904D02*
X195082857Y-63261904D01*
X195844761Y-64061904D02*
X195463809Y-64061904D01*
X195463809Y-63261904D01*
%TO.C,R2*%
X165567380Y-52236666D02*
X165091190Y-52570000D01*
X165567380Y-52808095D02*
X164567380Y-52808095D01*
X164567380Y-52427142D01*
X164615000Y-52331904D01*
X164662619Y-52284285D01*
X164757857Y-52236666D01*
X164900714Y-52236666D01*
X164995952Y-52284285D01*
X165043571Y-52331904D01*
X165091190Y-52427142D01*
X165091190Y-52808095D01*
X164662619Y-51855714D02*
X164615000Y-51808095D01*
X164567380Y-51712857D01*
X164567380Y-51474761D01*
X164615000Y-51379523D01*
X164662619Y-51331904D01*
X164757857Y-51284285D01*
X164853095Y-51284285D01*
X164995952Y-51331904D01*
X165567380Y-51903333D01*
X165567380Y-51284285D01*
%TO.C,D7*%
X168171904Y-69667380D02*
X168171904Y-68667380D01*
X168410000Y-68667380D01*
X168552857Y-68715000D01*
X168648095Y-68810238D01*
X168695714Y-68905476D01*
X168743333Y-69095952D01*
X168743333Y-69238809D01*
X168695714Y-69429285D01*
X168648095Y-69524523D01*
X168552857Y-69619761D01*
X168410000Y-69667380D01*
X168171904Y-69667380D01*
X169076666Y-68667380D02*
X169743333Y-68667380D01*
X169314761Y-69667380D01*
D13*
X173328000Y-67803428D02*
X173328000Y-67517714D01*
X173499428Y-67860571D02*
X172899428Y-67660571D01*
X173499428Y-67460571D01*
X173499428Y-67260571D02*
X172899428Y-67260571D01*
X173499428Y-66632000D02*
X173213714Y-66832000D01*
X173499428Y-66974857D02*
X172899428Y-66974857D01*
X172899428Y-66746285D01*
X172928000Y-66689142D01*
X172956571Y-66660571D01*
X173013714Y-66632000D01*
X173099428Y-66632000D01*
X173156571Y-66660571D01*
X173185142Y-66689142D01*
X173213714Y-66746285D01*
X173213714Y-66974857D01*
X173556571Y-66517714D02*
X173556571Y-66060571D01*
X173328000Y-65946285D02*
X173328000Y-65660571D01*
X173499428Y-66003428D02*
X172899428Y-65803428D01*
X173499428Y-65603428D01*
X173442285Y-65060571D02*
X173470857Y-65089142D01*
X173499428Y-65174857D01*
X173499428Y-65232000D01*
X173470857Y-65317714D01*
X173413714Y-65374857D01*
X173356571Y-65403428D01*
X173242285Y-65432000D01*
X173156571Y-65432000D01*
X173042285Y-65403428D01*
X172985142Y-65374857D01*
X172928000Y-65317714D01*
X172899428Y-65232000D01*
X172899428Y-65174857D01*
X172928000Y-65089142D01*
X172956571Y-65060571D01*
X172899428Y-64889142D02*
X172899428Y-64546285D01*
X173499428Y-64717714D02*
X172899428Y-64717714D01*
X173499428Y-64346285D02*
X172899428Y-64346285D01*
X172899428Y-64146285D02*
X173499428Y-63946285D01*
X172899428Y-63746285D01*
X173185142Y-63546285D02*
X173185142Y-63346285D01*
X173499428Y-63260571D02*
X173499428Y-63546285D01*
X172899428Y-63546285D01*
X172899428Y-63260571D01*
D12*
%TO.C,AC_RELAY*%
X177006666Y-29630666D02*
X177482857Y-29630666D01*
X176911428Y-29916380D02*
X177244761Y-28916380D01*
X177578095Y-29916380D01*
X178482857Y-29821142D02*
X178435238Y-29868761D01*
X178292380Y-29916380D01*
X178197142Y-29916380D01*
X178054285Y-29868761D01*
X177959047Y-29773523D01*
X177911428Y-29678285D01*
X177863809Y-29487809D01*
X177863809Y-29344952D01*
X177911428Y-29154476D01*
X177959047Y-29059238D01*
X178054285Y-28964000D01*
X178197142Y-28916380D01*
X178292380Y-28916380D01*
X178435238Y-28964000D01*
X178482857Y-29011619D01*
X178673333Y-30011619D02*
X179435238Y-30011619D01*
X180244761Y-29916380D02*
X179911428Y-29440190D01*
X179673333Y-29916380D02*
X179673333Y-28916380D01*
X180054285Y-28916380D01*
X180149523Y-28964000D01*
X180197142Y-29011619D01*
X180244761Y-29106857D01*
X180244761Y-29249714D01*
X180197142Y-29344952D01*
X180149523Y-29392571D01*
X180054285Y-29440190D01*
X179673333Y-29440190D01*
X180673333Y-29392571D02*
X181006666Y-29392571D01*
X181149523Y-29916380D02*
X180673333Y-29916380D01*
X180673333Y-28916380D01*
X181149523Y-28916380D01*
X182054285Y-29916380D02*
X181578095Y-29916380D01*
X181578095Y-28916380D01*
X182340000Y-29630666D02*
X182816190Y-29630666D01*
X182244761Y-29916380D02*
X182578095Y-28916380D01*
X182911428Y-29916380D01*
X183435238Y-29440190D02*
X183435238Y-29916380D01*
X183101904Y-28916380D02*
X183435238Y-29440190D01*
X183768571Y-28916380D01*
%TO.C,D2*%
X168171904Y-46957380D02*
X168171904Y-45957380D01*
X168410000Y-45957380D01*
X168552857Y-46005000D01*
X168648095Y-46100238D01*
X168695714Y-46195476D01*
X168743333Y-46385952D01*
X168743333Y-46528809D01*
X168695714Y-46719285D01*
X168648095Y-46814523D01*
X168552857Y-46909761D01*
X168410000Y-46957380D01*
X168171904Y-46957380D01*
X169124285Y-46052619D02*
X169171904Y-46005000D01*
X169267142Y-45957380D01*
X169505238Y-45957380D01*
X169600476Y-46005000D01*
X169648095Y-46052619D01*
X169695714Y-46147857D01*
X169695714Y-46243095D01*
X169648095Y-46385952D01*
X169076666Y-46957380D01*
X169695714Y-46957380D01*
D13*
X173470857Y-43856000D02*
X173499428Y-43770285D01*
X173499428Y-43627428D01*
X173470857Y-43570285D01*
X173442285Y-43541714D01*
X173385142Y-43513142D01*
X173328000Y-43513142D01*
X173270857Y-43541714D01*
X173242285Y-43570285D01*
X173213714Y-43627428D01*
X173185142Y-43741714D01*
X173156571Y-43798857D01*
X173128000Y-43827428D01*
X173070857Y-43856000D01*
X173013714Y-43856000D01*
X172956571Y-43827428D01*
X172928000Y-43798857D01*
X172899428Y-43741714D01*
X172899428Y-43598857D01*
X172928000Y-43513142D01*
X172899428Y-43313142D02*
X173499428Y-43170285D01*
X173070857Y-43056000D01*
X173499428Y-42941714D01*
X172899428Y-42798857D01*
X173556571Y-42713142D02*
X173556571Y-42256000D01*
X173328000Y-42141714D02*
X173328000Y-41856000D01*
X173499428Y-42198857D02*
X172899428Y-41998857D01*
X173499428Y-41798857D01*
X173442285Y-41256000D02*
X173470857Y-41284571D01*
X173499428Y-41370285D01*
X173499428Y-41427428D01*
X173470857Y-41513142D01*
X173413714Y-41570285D01*
X173356571Y-41598857D01*
X173242285Y-41627428D01*
X173156571Y-41627428D01*
X173042285Y-41598857D01*
X172985142Y-41570285D01*
X172928000Y-41513142D01*
X172899428Y-41427428D01*
X172899428Y-41370285D01*
X172928000Y-41284571D01*
X172956571Y-41256000D01*
X172899428Y-41084571D02*
X172899428Y-40741714D01*
X173499428Y-40913142D02*
X172899428Y-40913142D01*
X173499428Y-40541714D02*
X172899428Y-40541714D01*
X172899428Y-40341714D02*
X173499428Y-40141714D01*
X172899428Y-39941714D01*
X173185142Y-39741714D02*
X173185142Y-39541714D01*
X173499428Y-39456000D02*
X173499428Y-39741714D01*
X172899428Y-39741714D01*
X172899428Y-39456000D01*
D12*
%TO.C,PUSH*%
X190947380Y-36710714D02*
X189947380Y-36710714D01*
X189947380Y-36329761D01*
X189995000Y-36234523D01*
X190042619Y-36186904D01*
X190137857Y-36139285D01*
X190280714Y-36139285D01*
X190375952Y-36186904D01*
X190423571Y-36234523D01*
X190471190Y-36329761D01*
X190471190Y-36710714D01*
X189947380Y-35710714D02*
X190756904Y-35710714D01*
X190852142Y-35663095D01*
X190899761Y-35615476D01*
X190947380Y-35520238D01*
X190947380Y-35329761D01*
X190899761Y-35234523D01*
X190852142Y-35186904D01*
X190756904Y-35139285D01*
X189947380Y-35139285D01*
X190899761Y-34710714D02*
X190947380Y-34567857D01*
X190947380Y-34329761D01*
X190899761Y-34234523D01*
X190852142Y-34186904D01*
X190756904Y-34139285D01*
X190661666Y-34139285D01*
X190566428Y-34186904D01*
X190518809Y-34234523D01*
X190471190Y-34329761D01*
X190423571Y-34520238D01*
X190375952Y-34615476D01*
X190328333Y-34663095D01*
X190233095Y-34710714D01*
X190137857Y-34710714D01*
X190042619Y-34663095D01*
X189995000Y-34615476D01*
X189947380Y-34520238D01*
X189947380Y-34282142D01*
X189995000Y-34139285D01*
X190947380Y-33710714D02*
X189947380Y-33710714D01*
X190423571Y-33710714D02*
X190423571Y-33139285D01*
X190947380Y-33139285D02*
X189947380Y-33139285D01*
%TO.C,R1*%
X157297380Y-52871666D02*
X156821190Y-53205000D01*
X157297380Y-53443095D02*
X156297380Y-53443095D01*
X156297380Y-53062142D01*
X156345000Y-52966904D01*
X156392619Y-52919285D01*
X156487857Y-52871666D01*
X156630714Y-52871666D01*
X156725952Y-52919285D01*
X156773571Y-52966904D01*
X156821190Y-53062142D01*
X156821190Y-53443095D01*
X157297380Y-51919285D02*
X157297380Y-52490714D01*
X157297380Y-52205000D02*
X156297380Y-52205000D01*
X156440238Y-52300238D01*
X156535476Y-52395476D01*
X156583095Y-52490714D01*
%TO.C,R4*%
X157282380Y-63666666D02*
X156806190Y-64000000D01*
X157282380Y-64238095D02*
X156282380Y-64238095D01*
X156282380Y-63857142D01*
X156330000Y-63761904D01*
X156377619Y-63714285D01*
X156472857Y-63666666D01*
X156615714Y-63666666D01*
X156710952Y-63714285D01*
X156758571Y-63761904D01*
X156806190Y-63857142D01*
X156806190Y-64238095D01*
X156615714Y-62809523D02*
X157282380Y-62809523D01*
X156234761Y-63047619D02*
X156949047Y-63285714D01*
X156949047Y-62666666D01*
D17*
%TO.C,D1*%
X171470000Y-36470000D02*
X171470000Y-33380000D01*
X171470000Y-33380170D02*
G75*
G03*
X165920000Y-34925462I-2560000J-1544830D01*
G01*
X165920000Y-34924538D02*
G75*
G03*
X171470000Y-36469830I2990000J-462D01*
G01*
X171410000Y-34925000D02*
G75*
G03*
X171410000Y-34925000I-2500000J0D01*
G01*
%TO.C,D6*%
X166350000Y-56240000D02*
X166350000Y-59330000D01*
X166350000Y-59329830D02*
G75*
G03*
X171900000Y-57784538I2560000J1544830D01*
G01*
X171900000Y-57785462D02*
G75*
G03*
X166350000Y-56240170I-2990000J462D01*
G01*
X171410000Y-57785000D02*
G75*
G03*
X171410000Y-57785000I-2500000J0D01*
G01*
%TO.C,R9*%
X116284000Y-55920000D02*
X116284000Y-76160000D01*
X120904000Y-52240000D02*
X120904000Y-55920000D01*
X120904000Y-79840000D02*
X120904000Y-76160000D01*
X116284000Y-76160000D02*
X125524000Y-76160000D01*
X125524000Y-55920000D02*
X116284000Y-55920000D01*
X125524000Y-76160000D02*
X125524000Y-55920000D01*
%TO.C,R8*%
X130508000Y-75655500D02*
X139748000Y-75655500D01*
X135128000Y-79335500D02*
X135128000Y-75655500D01*
X135128000Y-51735500D02*
X135128000Y-55415500D01*
X139748000Y-55415500D02*
X130508000Y-55415500D01*
X139748000Y-75655500D02*
X139748000Y-55415500D01*
X130508000Y-55415500D02*
X130508000Y-75655500D01*
D16*
%TO.C,U1*%
X184680000Y-83335000D02*
X184680000Y-70335000D01*
X155680000Y-83335000D02*
X184680000Y-83335000D01*
X184680000Y-70335000D02*
X155680000Y-70335000D01*
D13*
X185080000Y-71755000D02*
X185080000Y-71755000D01*
X185180000Y-71755000D02*
X185180000Y-71755000D01*
D16*
X155680000Y-70335000D02*
X155680000Y-83335000D01*
D13*
X185080000Y-71755000D02*
G75*
G03*
X185180000Y-71755000I50000J0D01*
G01*
X185180000Y-71755000D02*
G75*
G03*
X185080000Y-71755000I-50000J0D01*
G01*
D17*
%TO.C,D3*%
X184130000Y-51795000D02*
X184130000Y-54885000D01*
X189680000Y-53340462D02*
G75*
G03*
X184130000Y-51795170I-2990000J462D01*
G01*
X184130000Y-54884830D02*
G75*
G03*
X189680000Y-53339538I2560000J1544830D01*
G01*
X189190000Y-53340000D02*
G75*
G03*
X189190000Y-53340000I-2500000J0D01*
G01*
%TO.C,G\u002A\u002A\u002A*%
G36*
X100302057Y-106953493D02*
G01*
X100197114Y-106768300D01*
X100086151Y-106572172D01*
X100061286Y-106528182D01*
X99422857Y-105398495D01*
X99423306Y-105253059D01*
X99811801Y-105253059D01*
X99815414Y-105290852D01*
X99826156Y-105325638D01*
X99842836Y-105360385D01*
X99864267Y-105398063D01*
X99880722Y-105426481D01*
X99950687Y-105548864D01*
X100030246Y-105687545D01*
X100117119Y-105838591D01*
X100209024Y-105998066D01*
X100303682Y-106162035D01*
X100398812Y-106326566D01*
X100492134Y-106487722D01*
X100581367Y-106641570D01*
X100664230Y-106784175D01*
X100738444Y-106911603D01*
X100801728Y-107019918D01*
X100851801Y-107105188D01*
X100886383Y-107163477D01*
X100903193Y-107190851D01*
X100904136Y-107192167D01*
X100933224Y-107211749D01*
X100945513Y-107211818D01*
X100960683Y-107193025D01*
X100993496Y-107143317D01*
X101041117Y-107067295D01*
X101100708Y-106969565D01*
X101169434Y-106854729D01*
X101244457Y-106727390D01*
X101252282Y-106714001D01*
X101344240Y-106556449D01*
X101430963Y-106407715D01*
X101464361Y-106350364D01*
X101932267Y-106350364D01*
X101947339Y-106355600D01*
X101970527Y-106345702D01*
X102025571Y-106317596D01*
X102108691Y-106273345D01*
X102216104Y-106215012D01*
X102344028Y-106144662D01*
X102488681Y-106064356D01*
X102646282Y-105976159D01*
X102754173Y-105915408D01*
X102947022Y-105806602D01*
X103153727Y-105690057D01*
X103366052Y-105570410D01*
X103575763Y-105452299D01*
X103774624Y-105340363D01*
X103954399Y-105239240D01*
X104106854Y-105153569D01*
X104109182Y-105152261D01*
X104426311Y-104974178D01*
X104998967Y-104974178D01*
X105005072Y-104983942D01*
X105026501Y-104991309D01*
X105067928Y-104996588D01*
X105134026Y-105000086D01*
X105229469Y-105002112D01*
X105358929Y-105002975D01*
X105436690Y-105003067D01*
X105874413Y-105003067D01*
X106328457Y-104203834D01*
X106422361Y-104038091D01*
X106509706Y-103883053D01*
X106588455Y-103742403D01*
X106656570Y-103619821D01*
X106712012Y-103518986D01*
X106752745Y-103443581D01*
X106776729Y-103397284D01*
X106782502Y-103383818D01*
X106762263Y-103376330D01*
X106702531Y-103370442D01*
X106604785Y-103366221D01*
X106470507Y-103363734D01*
X106324719Y-103363034D01*
X105866936Y-103363034D01*
X105432952Y-104154161D01*
X105342307Y-104320040D01*
X105258080Y-104475406D01*
X105182279Y-104616465D01*
X105116913Y-104739422D01*
X105063990Y-104840481D01*
X105025519Y-104915849D01*
X105003508Y-104961730D01*
X104998967Y-104974178D01*
X104426311Y-104974178D01*
X104685176Y-104828813D01*
X105380207Y-103588539D01*
X105496396Y-103380902D01*
X105606500Y-103183560D01*
X105708900Y-102999450D01*
X105801978Y-102831508D01*
X105884117Y-102682671D01*
X105953698Y-102555876D01*
X106009103Y-102454062D01*
X106048714Y-102380163D01*
X106070912Y-102337119D01*
X106075238Y-102327030D01*
X106065141Y-102303474D01*
X106036564Y-102249626D01*
X105992073Y-102169816D01*
X105934238Y-102068373D01*
X105865628Y-101949628D01*
X105788811Y-101817910D01*
X105706356Y-101677548D01*
X105620831Y-101532872D01*
X105534805Y-101388213D01*
X105450846Y-101247899D01*
X105371524Y-101116260D01*
X105299406Y-100997626D01*
X105237061Y-100896327D01*
X105187059Y-100816692D01*
X105151966Y-100763050D01*
X105134353Y-100739733D01*
X105133186Y-100739088D01*
X105121431Y-100756520D01*
X105090705Y-100807250D01*
X105042340Y-100888954D01*
X104977668Y-100999309D01*
X104898022Y-101135992D01*
X104804732Y-101296680D01*
X104699132Y-101479048D01*
X104582553Y-101680775D01*
X104456327Y-101899536D01*
X104321786Y-102133008D01*
X104180263Y-102378868D01*
X104033089Y-102634793D01*
X103881596Y-102898459D01*
X103727117Y-103167543D01*
X103570983Y-103439722D01*
X103414527Y-103712673D01*
X103259080Y-103984071D01*
X103105975Y-104251595D01*
X102956543Y-104512920D01*
X102812117Y-104765723D01*
X102674029Y-105007681D01*
X102543610Y-105236471D01*
X102422193Y-105449769D01*
X102311110Y-105645252D01*
X102211693Y-105820597D01*
X102125273Y-105973480D01*
X102053184Y-106101579D01*
X101996756Y-106202569D01*
X101957322Y-106274128D01*
X101936214Y-106313932D01*
X101933228Y-106320370D01*
X101932267Y-106350364D01*
X101464361Y-106350364D01*
X101516010Y-106261673D01*
X101602942Y-106112195D01*
X101695318Y-105953156D01*
X101796700Y-105778428D01*
X101910646Y-105581885D01*
X102040718Y-105357401D01*
X102073783Y-105300322D01*
X102200150Y-105081523D01*
X102337265Y-104842953D01*
X102482208Y-104589768D01*
X102632060Y-104327121D01*
X102783900Y-104060166D01*
X102934810Y-103794056D01*
X103081870Y-103533945D01*
X103222161Y-103284987D01*
X103352763Y-103052336D01*
X103470756Y-102841144D01*
X103573221Y-102656566D01*
X103635755Y-102543018D01*
X103677214Y-102467776D01*
X103732317Y-102368304D01*
X103794657Y-102256138D01*
X103857832Y-102142815D01*
X103874763Y-102112510D01*
X103921016Y-102029533D01*
X103983637Y-101916841D01*
X104059196Y-101780624D01*
X104144264Y-101627072D01*
X104235411Y-101462373D01*
X104329210Y-101292719D01*
X104414257Y-101138741D01*
X104505025Y-100974368D01*
X104594131Y-100813095D01*
X104678556Y-100660380D01*
X104755279Y-100521683D01*
X104821280Y-100402463D01*
X104873540Y-100308179D01*
X104909039Y-100244291D01*
X104909255Y-100243904D01*
X104961231Y-100150612D01*
X105347177Y-100150612D01*
X105402066Y-100244919D01*
X105422819Y-100279734D01*
X105458716Y-100338846D01*
X105510356Y-100423224D01*
X105578339Y-100533840D01*
X105663264Y-100671666D01*
X105765732Y-100837672D01*
X105886343Y-101032830D01*
X106025696Y-101258110D01*
X106184391Y-101514486D01*
X106363028Y-101802926D01*
X106562207Y-102124404D01*
X106745415Y-102420016D01*
X106818325Y-102537568D01*
X106887364Y-102648742D01*
X106948393Y-102746882D01*
X106997275Y-102825334D01*
X107029868Y-102877443D01*
X107035507Y-102886400D01*
X107090523Y-102973527D01*
X108587980Y-102973527D01*
X108563512Y-102927401D01*
X108546266Y-102896663D01*
X108510019Y-102833459D01*
X108456473Y-102740710D01*
X108387329Y-102621339D01*
X108304290Y-102478269D01*
X108209058Y-102314421D01*
X108103335Y-102132719D01*
X107988825Y-101936085D01*
X107867227Y-101727441D01*
X107740246Y-101509711D01*
X107609583Y-101285815D01*
X107476941Y-101058678D01*
X107344021Y-100831221D01*
X107212526Y-100606366D01*
X107084157Y-100387038D01*
X107032143Y-100298224D01*
X106923619Y-100112915D01*
X106819563Y-99935154D01*
X106722154Y-99768670D01*
X106633571Y-99617191D01*
X106555993Y-99484444D01*
X106491600Y-99374159D01*
X106442571Y-99290062D01*
X106411084Y-99235882D01*
X106403045Y-99221953D01*
X106372253Y-99168803D01*
X106323591Y-99085450D01*
X106260056Y-98976985D01*
X106184643Y-98848499D01*
X106100349Y-98705081D01*
X106010172Y-98551824D01*
X105917106Y-98393818D01*
X105824149Y-98236153D01*
X105734298Y-98083921D01*
X105650547Y-97942212D01*
X105575895Y-97816117D01*
X105534253Y-97745924D01*
X105357724Y-97448668D01*
X105352451Y-98799640D01*
X105347177Y-100150612D01*
X104961231Y-100150612D01*
X105019468Y-100046082D01*
X105019468Y-98143638D01*
X105019264Y-97811075D01*
X105018662Y-97506980D01*
X105017675Y-97232704D01*
X105016318Y-96989599D01*
X105014604Y-96779015D01*
X105012547Y-96602305D01*
X105010161Y-96460820D01*
X105007460Y-96355911D01*
X105004457Y-96288930D01*
X105001166Y-96261228D01*
X105000218Y-96260669D01*
X104993059Y-96269722D01*
X104980382Y-96288611D01*
X104960768Y-96319719D01*
X104932801Y-96365430D01*
X104895062Y-96428129D01*
X104846133Y-96510199D01*
X104784598Y-96614024D01*
X104709037Y-96741988D01*
X104618034Y-96896474D01*
X104510171Y-97079866D01*
X104384030Y-97294549D01*
X104281485Y-97469168D01*
X104158555Y-97678484D01*
X104026834Y-97902676D01*
X103888804Y-98137522D01*
X103746950Y-98378804D01*
X103603754Y-98622299D01*
X103461700Y-98863787D01*
X103323272Y-99099049D01*
X103190952Y-99323862D01*
X103067224Y-99534007D01*
X102954572Y-99725263D01*
X102855478Y-99893409D01*
X102772427Y-100034225D01*
X102713380Y-100134221D01*
X102414345Y-100641475D01*
X102099177Y-101178533D01*
X101771456Y-101739246D01*
X101434762Y-102317469D01*
X101092674Y-102907052D01*
X100748773Y-103501850D01*
X100429292Y-104056325D01*
X100296230Y-104287537D01*
X100182185Y-104486044D01*
X100085970Y-104654814D01*
X100006394Y-104796818D01*
X99942270Y-104915026D01*
X99892408Y-105012407D01*
X99855619Y-105091931D01*
X99830714Y-105156568D01*
X99816504Y-105209287D01*
X99811801Y-105253059D01*
X99423306Y-105253059D01*
X99424361Y-104910815D01*
X99553055Y-104664810D01*
X99607279Y-104564374D01*
X99676677Y-104440626D01*
X99754679Y-104305018D01*
X99834717Y-104168999D01*
X99894142Y-104070298D01*
X99964436Y-103954617D01*
X100031959Y-103842881D01*
X100092048Y-103742849D01*
X100140043Y-103662283D01*
X100171225Y-103609039D01*
X100193749Y-103570269D01*
X100234952Y-103499855D01*
X100292678Y-103401466D01*
X100364769Y-103278770D01*
X100449069Y-103135436D01*
X100543419Y-102975132D01*
X100645665Y-102801525D01*
X100753647Y-102618286D01*
X100816151Y-102512268D01*
X100913664Y-102346872D01*
X101029364Y-102150590D01*
X101160631Y-101927866D01*
X101304847Y-101683144D01*
X101459394Y-101420867D01*
X101621653Y-101145480D01*
X101789006Y-100861427D01*
X101958835Y-100573152D01*
X102128520Y-100285098D01*
X102295444Y-100001711D01*
X102446811Y-99744713D01*
X102606519Y-99473547D01*
X102769834Y-99196265D01*
X102934325Y-98916998D01*
X103097556Y-98639876D01*
X103257096Y-98369030D01*
X103410510Y-98108592D01*
X103555365Y-97862692D01*
X103689228Y-97635462D01*
X103809665Y-97431032D01*
X103914243Y-97253533D01*
X104000528Y-97107096D01*
X104003035Y-97102842D01*
X104106126Y-96927658D01*
X104204701Y-96759688D01*
X104296419Y-96602955D01*
X104378938Y-96461481D01*
X104449916Y-96339290D01*
X104507012Y-96240402D01*
X104547882Y-96168841D01*
X104569952Y-96129073D01*
X104623773Y-96031722D01*
X104628679Y-96023400D01*
X105112022Y-96023400D01*
X105117359Y-96047444D01*
X105140593Y-96099453D01*
X105178240Y-96172407D01*
X105226818Y-96259285D01*
X105241686Y-96284780D01*
X105272354Y-96337174D01*
X105321909Y-96422191D01*
X105388690Y-96536970D01*
X105471037Y-96678652D01*
X105567291Y-96844377D01*
X105675792Y-97031286D01*
X105794880Y-97236519D01*
X105922895Y-97457217D01*
X106058177Y-97690521D01*
X106199068Y-97933571D01*
X106343905Y-98183506D01*
X106393256Y-98268684D01*
X106546435Y-98533072D01*
X106701403Y-98800526D01*
X106855921Y-99067187D01*
X107007756Y-99329198D01*
X107154671Y-99582703D01*
X107294431Y-99823843D01*
X107424800Y-100048761D01*
X107543542Y-100253599D01*
X107648422Y-100434501D01*
X107737204Y-100587609D01*
X107807169Y-100708232D01*
X107911429Y-100887973D01*
X108030983Y-101094130D01*
X108160575Y-101317636D01*
X108294951Y-101549428D01*
X108428854Y-101780441D01*
X108557031Y-102001609D01*
X108674225Y-102203868D01*
X108677906Y-102210222D01*
X108774894Y-102377226D01*
X108866534Y-102534247D01*
X108950594Y-102677517D01*
X109024843Y-102803269D01*
X109087051Y-102907735D01*
X109134986Y-102987148D01*
X109166417Y-103037739D01*
X109178035Y-103054763D01*
X109201023Y-103072083D01*
X109256030Y-103108785D01*
X109340026Y-103162970D01*
X109449985Y-103232740D01*
X109582880Y-103316196D01*
X109735681Y-103411440D01*
X109905362Y-103516572D01*
X110088895Y-103629694D01*
X110283252Y-103748908D01*
X110349572Y-103789458D01*
X110557255Y-103916668D01*
X110763151Y-104043395D01*
X110963133Y-104167063D01*
X111153074Y-104285091D01*
X111328846Y-104394901D01*
X111486323Y-104493915D01*
X111621378Y-104579553D01*
X111729883Y-104649236D01*
X111807711Y-104700386D01*
X111811340Y-104702827D01*
X111914644Y-104771235D01*
X112008054Y-104830884D01*
X112085653Y-104878169D01*
X112141521Y-104909488D01*
X112169738Y-104921237D01*
X112170097Y-104921249D01*
X112199071Y-104931594D01*
X112255754Y-104959968D01*
X112333137Y-105002585D01*
X112424216Y-105055655D01*
X112471364Y-105084110D01*
X112587379Y-105152953D01*
X112672305Y-105198411D01*
X112728292Y-105221110D01*
X112757489Y-105221673D01*
X112762043Y-105200726D01*
X112746929Y-105164146D01*
X112733111Y-105139211D01*
X112700647Y-105081323D01*
X112651077Y-104993212D01*
X112585944Y-104877612D01*
X112506788Y-104737253D01*
X112415152Y-104574870D01*
X112312578Y-104393192D01*
X112200605Y-104194953D01*
X112080777Y-103982884D01*
X111954635Y-103759718D01*
X111881033Y-103629540D01*
X111774473Y-103441083D01*
X111649562Y-103220168D01*
X111508130Y-102970031D01*
X111352004Y-102693904D01*
X111183014Y-102395023D01*
X111002987Y-102076620D01*
X110813753Y-101741931D01*
X110617140Y-101394189D01*
X110414977Y-101036628D01*
X110209091Y-100672483D01*
X110001313Y-100304987D01*
X109793469Y-99937375D01*
X109587389Y-99572880D01*
X109384902Y-99214738D01*
X109319438Y-99098950D01*
X109134403Y-98771739D01*
X108954666Y-98454025D01*
X108781278Y-98147659D01*
X108615287Y-97854490D01*
X108457746Y-97576370D01*
X108309702Y-97315149D01*
X108172207Y-97072677D01*
X108046311Y-96850804D01*
X107933063Y-96651382D01*
X107833513Y-96476259D01*
X107748712Y-96327288D01*
X107679709Y-96206317D01*
X107627555Y-96115198D01*
X107593300Y-96055781D01*
X107577993Y-96029916D01*
X107577373Y-96029015D01*
X107553432Y-96024058D01*
X107492975Y-96019571D01*
X107400372Y-96015563D01*
X107279992Y-96012045D01*
X107136206Y-96009026D01*
X106973383Y-96006517D01*
X106795893Y-96004527D01*
X106608107Y-96003066D01*
X106414392Y-96002144D01*
X106219121Y-96001772D01*
X106026661Y-96001959D01*
X105841384Y-96002715D01*
X105667659Y-96004050D01*
X105509855Y-96005973D01*
X105372343Y-96008496D01*
X105259492Y-96011628D01*
X105175672Y-96015379D01*
X105125253Y-96019758D01*
X105112022Y-96023400D01*
X104628679Y-96023400D01*
X104685088Y-95927704D01*
X104748871Y-95824844D01*
X104810096Y-95730963D01*
X104863737Y-95653883D01*
X104904766Y-95601426D01*
X104917502Y-95588185D01*
X104968217Y-95542130D01*
X107768965Y-95554004D01*
X107829137Y-95681320D01*
X107858556Y-95742893D01*
X107886622Y-95799620D01*
X107916899Y-95858096D01*
X107952953Y-95924914D01*
X107998349Y-96006667D01*
X108056655Y-96109951D01*
X108131434Y-96241358D01*
X108141863Y-96259644D01*
X108167946Y-96305369D01*
X108192275Y-96348006D01*
X108216003Y-96389561D01*
X108240282Y-96432039D01*
X108266266Y-96477445D01*
X108295107Y-96527785D01*
X108327958Y-96585063D01*
X108365971Y-96651285D01*
X108410299Y-96728456D01*
X108462095Y-96818581D01*
X108522511Y-96923666D01*
X108592701Y-97045715D01*
X108673816Y-97186733D01*
X108767010Y-97348727D01*
X108873435Y-97533700D01*
X108994244Y-97743659D01*
X109130590Y-97980608D01*
X109283625Y-98246553D01*
X109454502Y-98543498D01*
X109644373Y-98873449D01*
X109697458Y-98965698D01*
X109870519Y-99266493D01*
X110059627Y-99595285D01*
X110260825Y-99945187D01*
X110470156Y-100309313D01*
X110683662Y-100680776D01*
X110897385Y-101052691D01*
X111107368Y-101418170D01*
X111309652Y-101770327D01*
X111500281Y-102102276D01*
X111675296Y-102407129D01*
X111712109Y-102471267D01*
X111855560Y-102721135D01*
X111994862Y-102963633D01*
X112128450Y-103196043D01*
X112254759Y-103415651D01*
X112372223Y-103619738D01*
X112479278Y-103805589D01*
X112574359Y-103970487D01*
X112655900Y-104111716D01*
X112722337Y-104226558D01*
X112772105Y-104312297D01*
X112803637Y-104366218D01*
X112810516Y-104377804D01*
X112868510Y-104478772D01*
X112931091Y-104594304D01*
X112985958Y-104701601D01*
X112992472Y-104714977D01*
X113028318Y-104790452D01*
X113052083Y-104848159D01*
X113066220Y-104900218D01*
X113073183Y-104958748D01*
X113075422Y-105035867D01*
X113075445Y-105124985D01*
X113074685Y-105227470D01*
X113071879Y-105298470D01*
X113065195Y-105347502D01*
X113052800Y-105384080D01*
X113032859Y-105417721D01*
X113014017Y-105443825D01*
X112976159Y-105501723D01*
X112930120Y-105581894D01*
X112884490Y-105669200D01*
X112874412Y-105689830D01*
X112847978Y-105742519D01*
X112806747Y-105821846D01*
X112753514Y-105922657D01*
X112691074Y-106039802D01*
X112622218Y-106168128D01*
X112549743Y-106302482D01*
X112476441Y-106437713D01*
X112405106Y-106568670D01*
X112338533Y-106690199D01*
X112279516Y-106797149D01*
X112230848Y-106884367D01*
X112195323Y-106946702D01*
X112175736Y-106979002D01*
X112174016Y-106981356D01*
X112154432Y-107012627D01*
X112122375Y-107071456D01*
X112081638Y-107150105D01*
X112036015Y-107240832D01*
X111989298Y-107335897D01*
X111945279Y-107427561D01*
X111907751Y-107508083D01*
X111880507Y-107569723D01*
X111867339Y-107604742D01*
X111866688Y-107608566D01*
X111852399Y-107647029D01*
X111829112Y-107675192D01*
X111823242Y-107678660D01*
X111812609Y-107681884D01*
X111795779Y-107684874D01*
X111771313Y-107687639D01*
X111737775Y-107690186D01*
X111693728Y-107692526D01*
X111637735Y-107694666D01*
X111568358Y-107696616D01*
X111484161Y-107698384D01*
X111383707Y-107699979D01*
X111265559Y-107701410D01*
X111128279Y-107702685D01*
X110970431Y-107703814D01*
X110790578Y-107704804D01*
X110587283Y-107705665D01*
X110359108Y-107706406D01*
X110104617Y-107707036D01*
X109822373Y-107707562D01*
X109510939Y-107707994D01*
X109168877Y-107708341D01*
X108794751Y-107708611D01*
X108387124Y-107708813D01*
X107944559Y-107708957D01*
X107465619Y-107709049D01*
X106948866Y-107709101D01*
X106392864Y-107709119D01*
X106265763Y-107709120D01*
X105682464Y-107709086D01*
X105138932Y-107708981D01*
X104633934Y-107708798D01*
X104166236Y-107708532D01*
X103734604Y-107708178D01*
X103337805Y-107707730D01*
X102974605Y-107707181D01*
X102643770Y-107706527D01*
X102344067Y-107705761D01*
X102074263Y-107704879D01*
X101833123Y-107703873D01*
X101619414Y-107702739D01*
X101431903Y-107701470D01*
X101269355Y-107700062D01*
X101130537Y-107698508D01*
X101014217Y-107696803D01*
X100919159Y-107694941D01*
X100844130Y-107692916D01*
X100787897Y-107690722D01*
X100749227Y-107688355D01*
X100726885Y-107685807D01*
X100719809Y-107683494D01*
X100706436Y-107661568D01*
X100674685Y-107607026D01*
X100626322Y-107522967D01*
X100563112Y-107412487D01*
X100486822Y-107278683D01*
X100457155Y-107226523D01*
X101210063Y-107226523D01*
X101211707Y-107231428D01*
X101219817Y-107235951D01*
X101235921Y-107240104D01*
X101261545Y-107243897D01*
X101298218Y-107247343D01*
X101347466Y-107250453D01*
X101410818Y-107253240D01*
X101489800Y-107255715D01*
X101585940Y-107257891D01*
X101700766Y-107259778D01*
X101835804Y-107261389D01*
X101992583Y-107262736D01*
X102172630Y-107263830D01*
X102377472Y-107264684D01*
X102608636Y-107265308D01*
X102867651Y-107265716D01*
X103156043Y-107265918D01*
X103475340Y-107265927D01*
X103827069Y-107265755D01*
X104212758Y-107265413D01*
X104633934Y-107264913D01*
X105092125Y-107264267D01*
X105588858Y-107263487D01*
X105911235Y-107262950D01*
X106295462Y-107262317D01*
X106684074Y-107261709D01*
X107073542Y-107261130D01*
X107460334Y-107260584D01*
X107840921Y-107260075D01*
X108211771Y-107259607D01*
X108569354Y-107259184D01*
X108910138Y-107258811D01*
X109230595Y-107258491D01*
X109527192Y-107258228D01*
X109796400Y-107258026D01*
X110034687Y-107257890D01*
X110238523Y-107257824D01*
X110382832Y-107257825D01*
X111656366Y-107258111D01*
X112166367Y-106340789D01*
X112265406Y-106162429D01*
X112358333Y-105994648D01*
X112443248Y-105840907D01*
X112518252Y-105704663D01*
X112581445Y-105589377D01*
X112630929Y-105498507D01*
X112664803Y-105435514D01*
X112681168Y-105403856D01*
X112682372Y-105401013D01*
X112663744Y-105395514D01*
X112606413Y-105390177D01*
X112512676Y-105385037D01*
X112384830Y-105380126D01*
X112225174Y-105375477D01*
X112036005Y-105371124D01*
X111819620Y-105367099D01*
X111578316Y-105363436D01*
X111314391Y-105360168D01*
X111030142Y-105357328D01*
X110727868Y-105354950D01*
X110409865Y-105353066D01*
X110078430Y-105351710D01*
X109735862Y-105350914D01*
X109384457Y-105350712D01*
X109206221Y-105350845D01*
X107868116Y-105352429D01*
X107896907Y-105285375D01*
X107911263Y-105253689D01*
X107941257Y-105188844D01*
X107985050Y-105094771D01*
X108040806Y-104975402D01*
X108048409Y-104959160D01*
X108479334Y-104959160D01*
X108502867Y-104961265D01*
X108564087Y-104963135D01*
X108659682Y-104964753D01*
X108786340Y-104966099D01*
X108940747Y-104967154D01*
X109119591Y-104967900D01*
X109319560Y-104968318D01*
X109537340Y-104968389D01*
X109769619Y-104968094D01*
X109963232Y-104967583D01*
X110253719Y-104966510D01*
X110505597Y-104965265D01*
X110721260Y-104963799D01*
X110903100Y-104962062D01*
X111053509Y-104960003D01*
X111174880Y-104957573D01*
X111269605Y-104954721D01*
X111340077Y-104951397D01*
X111388688Y-104947552D01*
X111417830Y-104943134D01*
X111429897Y-104938094D01*
X111430511Y-104936833D01*
X111414336Y-104921820D01*
X111366382Y-104888305D01*
X111290220Y-104838430D01*
X111189418Y-104774337D01*
X111067549Y-104698169D01*
X110928182Y-104612069D01*
X110774889Y-104518180D01*
X110611238Y-104418643D01*
X110440801Y-104315602D01*
X110267148Y-104211200D01*
X110093850Y-104107578D01*
X109924477Y-104006881D01*
X109762599Y-103911249D01*
X109611788Y-103822826D01*
X109475612Y-103743755D01*
X109357643Y-103676178D01*
X109261452Y-103622238D01*
X109190608Y-103584078D01*
X109148682Y-103563839D01*
X109138525Y-103561394D01*
X109121370Y-103587944D01*
X109090310Y-103645412D01*
X109047675Y-103728858D01*
X108995794Y-103833342D01*
X108936997Y-103953924D01*
X108873613Y-104085664D01*
X108807974Y-104223622D01*
X108742408Y-104362856D01*
X108679245Y-104498429D01*
X108620815Y-104625398D01*
X108569448Y-104738824D01*
X108527474Y-104833767D01*
X108497222Y-104905287D01*
X108481022Y-104948443D01*
X108479334Y-104959160D01*
X108048409Y-104959160D01*
X108106685Y-104834666D01*
X108180848Y-104676495D01*
X108261459Y-104504820D01*
X108346679Y-104323572D01*
X108348370Y-104319977D01*
X108432645Y-104140269D01*
X108511324Y-103971357D01*
X108582713Y-103816956D01*
X108645117Y-103680786D01*
X108696843Y-103566565D01*
X108736196Y-103478011D01*
X108761482Y-103418841D01*
X108771008Y-103392774D01*
X108771041Y-103392333D01*
X108766061Y-103384831D01*
X108748752Y-103378698D01*
X108715568Y-103373806D01*
X108662960Y-103370027D01*
X108587378Y-103367234D01*
X108485276Y-103365299D01*
X108353103Y-103364093D01*
X108187312Y-103363491D01*
X107984354Y-103363363D01*
X107966401Y-103363369D01*
X107161760Y-103363704D01*
X106630897Y-104344376D01*
X106100035Y-105325047D01*
X105841632Y-105338227D01*
X105742342Y-105342167D01*
X105612547Y-105345644D01*
X105462739Y-105348472D01*
X105303414Y-105350463D01*
X105145064Y-105351429D01*
X105100232Y-105351490D01*
X104617236Y-105351573D01*
X102916939Y-106273508D01*
X102668348Y-106408585D01*
X102431196Y-106538005D01*
X102207904Y-106660417D01*
X102000891Y-106774470D01*
X101812578Y-106878812D01*
X101645385Y-106972092D01*
X101501732Y-107052959D01*
X101384038Y-107120062D01*
X101294724Y-107172050D01*
X101236210Y-107207571D01*
X101210916Y-107225274D01*
X101210063Y-107226523D01*
X100457155Y-107226523D01*
X100399215Y-107124653D01*
X100302057Y-106953493D01*
G37*
%TO.C,SMPS*%
X186690000Y-44390000D02*
X184090000Y-44390000D01*
X186690000Y-44390000D02*
X186690000Y-47050000D01*
X186690000Y-47050000D02*
X184090000Y-47050000D01*
X189290000Y-44390000D02*
X189290000Y-45720000D01*
X187960000Y-44390000D02*
X189290000Y-44390000D01*
X184090000Y-44390000D02*
X184090000Y-47050000D01*
D13*
%TO.C,RELAY_DISCHARGE1*%
X158855000Y-45660000D02*
X129805000Y-45660000D01*
X158855000Y-32960000D02*
X158855000Y-45660000D01*
D16*
X159655000Y-35810000D02*
X159655000Y-35810000D01*
D13*
X129805000Y-45660000D02*
X129805000Y-32960000D01*
D16*
X159755000Y-35810000D02*
X159755000Y-35810000D01*
X159755000Y-35810000D02*
X159755000Y-35810000D01*
D13*
X129805000Y-32960000D02*
X158855000Y-32960000D01*
D16*
X159655000Y-35810000D02*
G75*
G03*
X159755000Y-35810000I50000J0D01*
G01*
X159755000Y-35810000D02*
G75*
G03*
X159655000Y-35810000I-50000J0D01*
G01*
X159755000Y-35810000D02*
G75*
G03*
X159655000Y-35810000I-50000J0D01*
G01*
%TO.C,U2*%
X184680000Y-99845000D02*
X184680000Y-86845000D01*
X155680000Y-99845000D02*
X184680000Y-99845000D01*
D13*
X185180000Y-88265000D02*
X185180000Y-88265000D01*
D16*
X184680000Y-86845000D02*
X155680000Y-86845000D01*
X155680000Y-86845000D02*
X155680000Y-99845000D01*
D13*
X185080000Y-88265000D02*
X185080000Y-88265000D01*
X185180000Y-88265000D02*
G75*
G03*
X185080000Y-88265000I-50000J0D01*
G01*
X185080000Y-88265000D02*
G75*
G03*
X185180000Y-88265000I50000J0D01*
G01*
D17*
%TO.C,R5*%
X163195000Y-36500000D02*
X163195000Y-37450000D01*
X162275000Y-41290000D02*
X164115000Y-41290000D01*
X164115000Y-41290000D02*
X164115000Y-37450000D01*
X163195000Y-42240000D02*
X163195000Y-41290000D01*
X164115000Y-37450000D02*
X162275000Y-37450000D01*
X162275000Y-37450000D02*
X162275000Y-41290000D01*
%TO.C,G\u002A\u002A\u002A*%
G36*
X135050079Y-96423262D02*
G01*
X135110788Y-96438235D01*
X135153952Y-96471332D01*
X135181878Y-96524562D01*
X135187138Y-96542781D01*
X135191656Y-96574028D01*
X135195505Y-96626902D01*
X135198511Y-96697221D01*
X135200501Y-96780804D01*
X135201301Y-96873468D01*
X135201309Y-96883742D01*
X135201309Y-97168423D01*
X135046431Y-97168423D01*
X135046431Y-96887352D01*
X135046153Y-96791732D01*
X135045172Y-96718572D01*
X135043273Y-96664521D01*
X135040237Y-96626229D01*
X135035847Y-96600348D01*
X135029886Y-96583526D01*
X135026340Y-96577596D01*
X134996289Y-96553829D01*
X134960183Y-96551636D01*
X134926792Y-96571459D01*
X134925820Y-96572513D01*
X134918749Y-96583211D01*
X134913402Y-96599834D01*
X134909550Y-96625732D01*
X134906960Y-96664253D01*
X134905403Y-96718747D01*
X134904647Y-96792563D01*
X134904460Y-96882269D01*
X134904460Y-97168423D01*
X134749582Y-97168423D01*
X134749582Y-96432752D01*
X134820567Y-96432752D01*
X134861634Y-96433896D01*
X134883027Y-96438780D01*
X134890837Y-96449588D01*
X134891553Y-96458176D01*
X134893181Y-96472582D01*
X134901797Y-96474141D01*
X134923001Y-96461969D01*
X134939952Y-96450540D01*
X134977643Y-96429180D01*
X135014007Y-96421777D01*
X135050079Y-96423262D01*
G37*
G36*
X117825928Y-102813425D02*
G01*
X118096597Y-102985285D01*
X118371016Y-103133172D01*
X118653080Y-103258924D01*
X118946681Y-103364382D01*
X119074021Y-103402964D01*
X119288619Y-103457101D01*
X119521364Y-103502048D01*
X119765983Y-103536980D01*
X120016203Y-103561075D01*
X120265753Y-103573508D01*
X120384643Y-103575093D01*
X120619974Y-103568440D01*
X120844138Y-103547368D01*
X121062896Y-103510739D01*
X121282011Y-103457414D01*
X121507244Y-103386254D01*
X121694653Y-103316137D01*
X121750400Y-103293589D01*
X121804352Y-103271063D01*
X121853383Y-103249978D01*
X121894367Y-103231756D01*
X121924180Y-103217819D01*
X121939696Y-103209586D01*
X121937790Y-103208479D01*
X121915337Y-103215918D01*
X121914063Y-103216379D01*
X121713085Y-103284930D01*
X121527023Y-103338776D01*
X121350272Y-103378872D01*
X121177227Y-103406170D01*
X121002283Y-103421624D01*
X120819832Y-103426186D01*
X120694399Y-103423757D01*
X120392241Y-103400656D01*
X120088179Y-103352504D01*
X119783530Y-103279860D01*
X119539182Y-103202214D01*
X121946329Y-103202214D01*
X121952783Y-103208667D01*
X121959236Y-103202214D01*
X121952783Y-103195760D01*
X121946329Y-103202214D01*
X119539182Y-103202214D01*
X119479614Y-103183285D01*
X119177746Y-103063339D01*
X118879246Y-102920581D01*
X118585431Y-102755572D01*
X118297619Y-102568871D01*
X118017128Y-102361038D01*
X117829800Y-102206682D01*
X117687183Y-102084115D01*
X117687183Y-101419428D01*
X117922727Y-101653058D01*
X118021016Y-101748535D01*
X118118900Y-101839847D01*
X118213667Y-101924695D01*
X118302608Y-102000782D01*
X118383009Y-102065810D01*
X118452160Y-102117482D01*
X118507350Y-102153498D01*
X118523762Y-102162433D01*
X118603004Y-102190367D01*
X118687119Y-102199504D01*
X118764034Y-102189289D01*
X118824863Y-102162387D01*
X118882594Y-102119834D01*
X118928230Y-102068981D01*
X118943894Y-102042330D01*
X118959903Y-101986572D01*
X118963978Y-101919720D01*
X118956069Y-101853599D01*
X118944883Y-101817576D01*
X118933463Y-101793147D01*
X118918980Y-101769633D01*
X118898809Y-101744397D01*
X118870325Y-101714803D01*
X118830906Y-101678214D01*
X118777925Y-101631995D01*
X118708759Y-101573509D01*
X118668077Y-101539501D01*
X118418395Y-101316308D01*
X118179732Y-101073217D01*
X117956577Y-100815171D01*
X117753420Y-100547113D01*
X117710447Y-100485225D01*
X117704769Y-100478041D01*
X117700159Y-100476311D01*
X117696501Y-100482302D01*
X117693680Y-100498280D01*
X117691580Y-100526512D01*
X117690086Y-100569263D01*
X117689082Y-100628800D01*
X117688453Y-100707390D01*
X117688083Y-100807298D01*
X117687860Y-100928496D01*
X117687183Y-101403864D01*
X117628377Y-101335051D01*
X117568153Y-101262559D01*
X117500389Y-101177682D01*
X117430758Y-101087781D01*
X117364932Y-101000214D01*
X117308584Y-100922339D01*
X117293308Y-100900415D01*
X117257300Y-100851396D01*
X117221549Y-100808302D01*
X117191380Y-100777319D01*
X117178919Y-100767569D01*
X117159710Y-100756877D01*
X117139742Y-100750188D01*
X117114995Y-100747775D01*
X117081448Y-100749912D01*
X117035081Y-100756873D01*
X116971874Y-100768931D01*
X116887805Y-100786360D01*
X116880527Y-100787896D01*
X116732862Y-100812411D01*
X116603527Y-100819441D01*
X116491635Y-100808735D01*
X116396301Y-100780043D01*
X116316637Y-100733116D01*
X116251758Y-100667701D01*
X116207869Y-100597957D01*
X116183017Y-100539235D01*
X116156846Y-100459224D01*
X116130395Y-100362339D01*
X116104702Y-100252997D01*
X116080807Y-100135614D01*
X116059749Y-100014605D01*
X116042859Y-99896698D01*
X116016796Y-99670247D01*
X115998923Y-99464514D01*
X115989309Y-99275718D01*
X115988021Y-99100076D01*
X115995130Y-98933804D01*
X116010703Y-98773120D01*
X116034808Y-98614241D01*
X116067516Y-98453384D01*
X116069162Y-98446167D01*
X116084525Y-98383665D01*
X116103756Y-98312429D01*
X116125635Y-98236253D01*
X116148944Y-98158929D01*
X116172466Y-98084251D01*
X116194984Y-98016010D01*
X116215278Y-97958001D01*
X116232132Y-97914015D01*
X116244327Y-97887847D01*
X116250156Y-97882479D01*
X116249131Y-97896189D01*
X116242459Y-97929162D01*
X116231354Y-97975777D01*
X116222890Y-98008632D01*
X116172859Y-98243614D01*
X116143011Y-98491575D01*
X116133157Y-98749644D01*
X116143107Y-99014948D01*
X116172671Y-99284616D01*
X116221660Y-99555776D01*
X116289883Y-99825556D01*
X116356598Y-100033945D01*
X116389125Y-100118347D01*
X116420961Y-100181063D01*
X116455127Y-100225952D01*
X116494645Y-100256874D01*
X116542535Y-100277688D01*
X116549006Y-100279695D01*
X116570545Y-100284948D01*
X116593278Y-100286811D01*
X116621758Y-100284622D01*
X116660538Y-100277721D01*
X116714170Y-100265449D01*
X116787207Y-100247146D01*
X116805031Y-100242578D01*
X116940699Y-100209861D01*
X117056003Y-100187131D01*
X117154331Y-100174275D01*
X117239076Y-100171183D01*
X117313626Y-100177743D01*
X117381373Y-100193842D01*
X117445707Y-100219370D01*
X117449826Y-100221341D01*
X117498927Y-100252173D01*
X117554359Y-100298093D01*
X117608799Y-100352283D01*
X117654926Y-100407922D01*
X117664033Y-100420862D01*
X117668869Y-100426882D01*
X117672938Y-100428119D01*
X117676308Y-100422623D01*
X117679048Y-100408444D01*
X117681227Y-100383631D01*
X117682913Y-100346236D01*
X117684176Y-100294308D01*
X117685083Y-100225897D01*
X117685705Y-100139054D01*
X117686109Y-100031827D01*
X117686365Y-99902268D01*
X117686506Y-99783687D01*
X117687183Y-99114245D01*
X117777456Y-99296942D01*
X117830662Y-99403105D01*
X117878959Y-99495576D01*
X117925992Y-99580644D01*
X117975405Y-99664596D01*
X118030844Y-99753722D01*
X118095953Y-99854308D01*
X118133399Y-99911055D01*
X118316354Y-100172376D01*
X118506999Y-100414933D01*
X118708410Y-100641808D01*
X118923665Y-100856090D01*
X119155843Y-101060861D01*
X119408021Y-101259208D01*
X119650770Y-101432149D01*
X119708011Y-101472132D01*
X119757499Y-101508432D01*
X119795300Y-101538031D01*
X119817483Y-101557907D01*
X119821490Y-101563259D01*
X119820897Y-101589348D01*
X119808038Y-101634505D01*
X119784245Y-101695856D01*
X119750848Y-101770529D01*
X119709182Y-101855651D01*
X119660577Y-101948349D01*
X119606367Y-102045751D01*
X119564650Y-102117115D01*
X119500621Y-102238447D01*
X119459858Y-102349420D01*
X119442365Y-102450868D01*
X119448147Y-102543620D01*
X119477208Y-102628510D01*
X119529552Y-102706369D01*
X119567921Y-102746173D01*
X119614900Y-102785952D01*
X119666111Y-102820348D01*
X119727160Y-102852399D01*
X119803650Y-102885145D01*
X119872146Y-102911118D01*
X120152440Y-103001651D01*
X120445616Y-103073442D01*
X120745296Y-103124934D01*
X120752478Y-103125903D01*
X120841853Y-103135258D01*
X120948449Y-103142214D01*
X121065871Y-103146715D01*
X121187727Y-103148703D01*
X121307622Y-103148122D01*
X121419164Y-103144914D01*
X121515960Y-103139023D01*
X121572041Y-103133204D01*
X121822789Y-103091740D01*
X122056182Y-103034216D01*
X122274486Y-102959361D01*
X122479968Y-102865906D01*
X122674895Y-102752580D01*
X122861535Y-102618114D01*
X123042154Y-102461238D01*
X123219020Y-102280681D01*
X123338191Y-102143861D01*
X123386417Y-102085376D01*
X123425472Y-102036700D01*
X123454249Y-101999423D01*
X123467008Y-101981606D01*
X124595011Y-101981606D01*
X124608850Y-102203147D01*
X124643742Y-102411844D01*
X124699481Y-102607048D01*
X124775858Y-102788110D01*
X124872666Y-102954381D01*
X124989697Y-103105211D01*
X125060114Y-103178925D01*
X125205659Y-103303613D01*
X125368116Y-103410180D01*
X125547972Y-103498834D01*
X125745717Y-103569782D01*
X125961840Y-103623230D01*
X126192569Y-103658904D01*
X126252613Y-103663791D01*
X126332678Y-103667463D01*
X126427001Y-103669912D01*
X126529820Y-103671131D01*
X126635370Y-103671111D01*
X126737890Y-103669844D01*
X126831615Y-103667321D01*
X126910783Y-103663535D01*
X126955912Y-103659985D01*
X127250180Y-103619086D01*
X127531069Y-103556396D01*
X127798373Y-103471995D01*
X128051886Y-103365965D01*
X128291402Y-103238386D01*
X128516716Y-103089339D01*
X128625445Y-103005606D01*
X128682918Y-102957841D01*
X128740720Y-102907652D01*
X128791663Y-102861397D01*
X128825055Y-102829054D01*
X128859494Y-102794991D01*
X128887292Y-102769603D01*
X128903445Y-102757405D01*
X128904964Y-102756939D01*
X128915364Y-102767441D01*
X128933415Y-102794900D01*
X128953991Y-102831152D01*
X129038171Y-102964466D01*
X129144450Y-103093108D01*
X129269148Y-103213742D01*
X129408584Y-103323036D01*
X129559078Y-103417654D01*
X129656401Y-103467522D01*
X129819784Y-103535306D01*
X129991559Y-103588877D01*
X130174854Y-103628821D01*
X130372794Y-103655721D01*
X130588509Y-103670165D01*
X130755019Y-103673179D01*
X131063291Y-103661368D01*
X131361818Y-103625734D01*
X131650463Y-103566324D01*
X131929095Y-103483184D01*
X132197579Y-103376360D01*
X132455782Y-103245897D01*
X132703570Y-103091843D01*
X132930938Y-102922274D01*
X133067630Y-102811474D01*
X133109737Y-102897139D01*
X133194821Y-103041256D01*
X133301287Y-103171392D01*
X133428646Y-103287279D01*
X133576411Y-103388649D01*
X133744094Y-103475233D01*
X133931207Y-103546764D01*
X134137263Y-103602974D01*
X134361772Y-103643594D01*
X134496920Y-103659582D01*
X134576747Y-103665371D01*
X134675989Y-103669502D01*
X134788301Y-103671973D01*
X134907335Y-103672780D01*
X135026749Y-103671922D01*
X135140195Y-103669395D01*
X135241328Y-103665198D01*
X135317468Y-103659910D01*
X135566552Y-103629632D01*
X135808882Y-103584509D01*
X136041421Y-103525502D01*
X136261128Y-103453568D01*
X136464965Y-103369665D01*
X136649893Y-103274753D01*
X136764867Y-103203353D01*
X136831752Y-103158311D01*
X136902089Y-103222595D01*
X137036517Y-103330160D01*
X137188777Y-103423102D01*
X137359885Y-103501848D01*
X137550857Y-103566828D01*
X137762707Y-103618469D01*
X137898769Y-103642992D01*
X137970875Y-103651648D01*
X138063978Y-103658512D01*
X138173321Y-103663581D01*
X138294151Y-103666852D01*
X138421710Y-103668322D01*
X138551246Y-103667989D01*
X138678002Y-103665850D01*
X138797223Y-103661902D01*
X138904155Y-103656143D01*
X138994043Y-103648571D01*
X139034541Y-103643625D01*
X139266253Y-103605571D01*
X139477989Y-103559364D01*
X139674658Y-103503713D01*
X139861169Y-103437326D01*
X139936684Y-103406346D01*
X140157917Y-103299682D01*
X140360339Y-103176552D01*
X140543405Y-103037565D01*
X140706565Y-102883327D01*
X140849272Y-102714447D01*
X140970979Y-102531533D01*
X141071138Y-102335191D01*
X141149202Y-102126029D01*
X141176227Y-102030801D01*
X141212938Y-101859600D01*
X141231504Y-101699310D01*
X141231378Y-101549328D01*
X141212009Y-101409055D01*
X141172849Y-101277886D01*
X141113350Y-101155222D01*
X141032963Y-101040460D01*
X140931139Y-100932998D01*
X140807330Y-100832234D01*
X140660986Y-100737567D01*
X140491559Y-100648396D01*
X140298500Y-100564117D01*
X140081262Y-100484130D01*
X139839294Y-100407833D01*
X139647600Y-100354352D01*
X139472130Y-100306165D01*
X139320886Y-100260900D01*
X139192572Y-100217587D01*
X139085896Y-100175256D01*
X138999564Y-100132938D01*
X138932282Y-100089663D01*
X138882758Y-100044463D01*
X138849697Y-99996367D01*
X138831806Y-99944406D01*
X138827792Y-99887610D01*
X138836361Y-99825011D01*
X138854713Y-99760067D01*
X138898700Y-99659068D01*
X138957472Y-99577429D01*
X139034361Y-99511401D01*
X139117875Y-99464074D01*
X139198079Y-99430966D01*
X139279721Y-99408282D01*
X139368991Y-99395030D01*
X139472079Y-99390214D01*
X139568241Y-99391753D01*
X139675495Y-99398036D01*
X139761965Y-99409230D01*
X139832440Y-99426749D01*
X139891711Y-99452006D01*
X139944569Y-99486414D01*
X139974838Y-99511716D01*
X140031236Y-99572546D01*
X140069101Y-99639342D01*
X140090702Y-99717725D01*
X140098311Y-99813315D01*
X140098355Y-99817404D01*
X140099327Y-99930256D01*
X140837979Y-99930336D01*
X141576630Y-99930415D01*
X141586556Y-99894922D01*
X141589854Y-99870248D01*
X141592550Y-99825016D01*
X141594459Y-99764475D01*
X141595392Y-99693878D01*
X141595395Y-99646472D01*
X141594365Y-99559187D01*
X141591912Y-99491624D01*
X141587471Y-99437705D01*
X141580479Y-99391355D01*
X141570372Y-99346496D01*
X141566060Y-99330262D01*
X141509311Y-99168626D01*
X141431584Y-99021924D01*
X141332857Y-98890142D01*
X141213113Y-98773265D01*
X141072331Y-98671281D01*
X140910492Y-98584174D01*
X140727577Y-98511930D01*
X140523565Y-98454535D01*
X140312285Y-98414071D01*
X140224636Y-98403440D01*
X140117554Y-98394949D01*
X139997342Y-98388751D01*
X139870304Y-98384996D01*
X139742743Y-98383836D01*
X139620961Y-98385421D01*
X139511262Y-98389904D01*
X139459149Y-98393592D01*
X139271774Y-98414472D01*
X139084280Y-98444943D01*
X138902868Y-98483661D01*
X138733740Y-98529280D01*
X138583095Y-98580457D01*
X138565078Y-98587493D01*
X138442982Y-98640489D01*
X138316584Y-98703429D01*
X138192248Y-98772659D01*
X138076338Y-98844521D01*
X137975217Y-98915362D01*
X137925242Y-98955053D01*
X137867823Y-99003394D01*
X137841770Y-98966778D01*
X137775866Y-98886983D01*
X137692080Y-98805152D01*
X137597176Y-98726923D01*
X137497917Y-98657941D01*
X137414751Y-98610575D01*
X137240652Y-98535146D01*
X137045320Y-98473531D01*
X136829460Y-98425938D01*
X136742267Y-98411582D01*
X136660696Y-98402236D01*
X136558874Y-98395135D01*
X136442263Y-98390280D01*
X136316329Y-98387669D01*
X136186533Y-98387300D01*
X136058341Y-98389173D01*
X135937215Y-98393285D01*
X135828618Y-98399637D01*
X135738015Y-98408226D01*
X135711116Y-98411827D01*
X135439183Y-98461892D01*
X135186240Y-98529053D01*
X134951673Y-98613610D01*
X134734871Y-98715866D01*
X134535220Y-98836122D01*
X134352107Y-98974680D01*
X134184918Y-99131840D01*
X134132870Y-99188135D01*
X134048079Y-99283068D01*
X133987034Y-99184053D01*
X133874251Y-99025452D01*
X133741824Y-98883303D01*
X133590316Y-98757994D01*
X133420288Y-98649916D01*
X133232305Y-98559457D01*
X133026927Y-98487007D01*
X132948231Y-98465252D01*
X132742132Y-98422404D01*
X132520187Y-98395032D01*
X132287179Y-98383097D01*
X132047892Y-98386560D01*
X131807110Y-98405380D01*
X131569615Y-98439519D01*
X131383711Y-98478189D01*
X131103107Y-98558160D01*
X130832927Y-98661454D01*
X130572691Y-98788320D01*
X130321921Y-98939007D01*
X130080138Y-99113763D01*
X129938960Y-99230467D01*
X129845666Y-99311363D01*
X129798464Y-99217561D01*
X129730431Y-99095580D01*
X129655363Y-98989012D01*
X129565792Y-98887460D01*
X129549241Y-98870606D01*
X129411820Y-98750667D01*
X129254929Y-98647336D01*
X129078970Y-98560743D01*
X128884343Y-98491018D01*
X128671449Y-98438293D01*
X128440689Y-98402696D01*
X128192463Y-98384360D01*
X128046512Y-98381678D01*
X127743145Y-98393632D01*
X127449465Y-98429247D01*
X127165867Y-98488363D01*
X126892749Y-98570821D01*
X126630508Y-98676459D01*
X126379539Y-98805119D01*
X126140239Y-98956641D01*
X125913005Y-99130864D01*
X125698233Y-99327627D01*
X125695637Y-99330222D01*
X125499497Y-99544187D01*
X125319594Y-99776684D01*
X125156991Y-100025362D01*
X125012750Y-100287871D01*
X124887936Y-100561860D01*
X124783609Y-100844979D01*
X124700833Y-101134878D01*
X124640671Y-101429206D01*
X124604185Y-101725613D01*
X124602433Y-101747869D01*
X124595011Y-101981606D01*
X123467008Y-101981606D01*
X123471640Y-101975137D01*
X123476539Y-101965433D01*
X123467837Y-101971904D01*
X123444429Y-101996139D01*
X123429830Y-102012128D01*
X123390960Y-102052282D01*
X123339571Y-102101408D01*
X123283297Y-102152349D01*
X123244792Y-102185507D01*
X123052749Y-102330073D01*
X122847666Y-102452649D01*
X122630140Y-102553162D01*
X122400769Y-102631540D01*
X122160149Y-102687711D01*
X121908876Y-102721601D01*
X121647548Y-102733137D01*
X121376761Y-102722248D01*
X121097113Y-102688860D01*
X120809199Y-102632901D01*
X120513618Y-102554298D01*
X120429815Y-102528302D01*
X120371416Y-102509279D01*
X120320834Y-102492154D01*
X120283907Y-102478944D01*
X120267335Y-102472157D01*
X120261434Y-102465331D01*
X120261425Y-102451663D01*
X120268489Y-102428065D01*
X120283804Y-102391451D01*
X120308547Y-102338736D01*
X120343898Y-102266833D01*
X120351777Y-102251017D01*
X120408060Y-102134582D01*
X120461577Y-102017011D01*
X120497957Y-101932041D01*
X121226139Y-101932041D01*
X121234859Y-101989468D01*
X121261523Y-102044965D01*
X121307832Y-102097457D01*
X121367765Y-102141204D01*
X121419392Y-102165314D01*
X121495917Y-102181848D01*
X121584394Y-102183324D01*
X121676110Y-102170151D01*
X121743827Y-102150142D01*
X121835610Y-102104304D01*
X121913557Y-102042256D01*
X121974200Y-101967710D01*
X122014073Y-101884376D01*
X122015755Y-101878163D01*
X122569993Y-101878163D01*
X122573615Y-101951957D01*
X122598047Y-102010673D01*
X122643539Y-102054838D01*
X122657184Y-102063092D01*
X122716257Y-102082282D01*
X122791125Y-102084744D01*
X122878255Y-102070859D01*
X122974114Y-102041007D01*
X123014332Y-102024585D01*
X123214755Y-101924531D01*
X123397622Y-101806498D01*
X123563326Y-101670032D01*
X123712261Y-101514676D01*
X123844820Y-101339976D01*
X123961396Y-101145476D01*
X124062383Y-100930721D01*
X124139681Y-100721534D01*
X124173832Y-100611396D01*
X124205669Y-100497408D01*
X124233621Y-100385970D01*
X124256117Y-100283482D01*
X124271587Y-100196344D01*
X124275227Y-100169185D01*
X124276420Y-100149019D01*
X124272417Y-100151402D01*
X124262909Y-100177070D01*
X124247587Y-100226757D01*
X124239889Y-100253077D01*
X124192665Y-100400796D01*
X124140546Y-100531969D01*
X124079720Y-100655837D01*
X124056280Y-100698103D01*
X123943901Y-100869614D01*
X123811862Y-101024850D01*
X123661050Y-101163165D01*
X123492350Y-101283911D01*
X123306648Y-101386440D01*
X123104829Y-101470106D01*
X122924816Y-101524992D01*
X122821754Y-101559674D01*
X122738371Y-101606066D01*
X122672897Y-101663709D01*
X122622981Y-101724367D01*
X122591535Y-101780662D01*
X122574559Y-101840934D01*
X122569993Y-101878163D01*
X122015755Y-101878163D01*
X122023033Y-101851289D01*
X122029801Y-101774912D01*
X122013781Y-101708362D01*
X121973686Y-101647471D01*
X121953674Y-101626674D01*
X121903035Y-101586893D01*
X121844708Y-101559847D01*
X121773512Y-101543984D01*
X121684267Y-101537753D01*
X121655933Y-101537522D01*
X121596020Y-101538669D01*
X121553039Y-101542955D01*
X121518149Y-101552102D01*
X121482508Y-101567836D01*
X121471552Y-101573467D01*
X121385639Y-101629182D01*
X121316252Y-101696217D01*
X121265281Y-101771251D01*
X121234613Y-101850966D01*
X121226139Y-101932041D01*
X120497957Y-101932041D01*
X120510413Y-101902949D01*
X120552653Y-101797038D01*
X120586381Y-101703920D01*
X120609682Y-101628239D01*
X120611427Y-101621568D01*
X120628513Y-101511767D01*
X120625382Y-101401113D01*
X120602597Y-101296923D01*
X120582495Y-101246292D01*
X120550809Y-101186873D01*
X120513485Y-101133511D01*
X120466901Y-101082635D01*
X120407432Y-101030672D01*
X120331456Y-100974051D01*
X120250934Y-100919423D01*
X120035040Y-100771903D01*
X119838725Y-100626105D01*
X119656512Y-100477548D01*
X119482924Y-100321753D01*
X119312482Y-100154237D01*
X119300496Y-100141924D01*
X119134656Y-99959226D01*
X120514858Y-99959226D01*
X120515914Y-99982301D01*
X120523362Y-100039670D01*
X120540262Y-100092253D01*
X120568694Y-100142169D01*
X120610743Y-100191535D01*
X120668489Y-100242469D01*
X120744016Y-100297089D01*
X120839406Y-100357514D01*
X120946075Y-100419812D01*
X121213665Y-100560641D01*
X121480359Y-100678656D01*
X121744786Y-100773389D01*
X122005576Y-100844371D01*
X122261357Y-100891133D01*
X122359338Y-100902693D01*
X122422548Y-100906772D01*
X122503337Y-100908799D01*
X122593560Y-100908863D01*
X122685071Y-100907052D01*
X122769726Y-100903455D01*
X122839379Y-100898160D01*
X122846400Y-100897408D01*
X123057022Y-100862078D01*
X123255537Y-100804958D01*
X123440823Y-100727000D01*
X123611760Y-100629154D01*
X123767226Y-100512371D01*
X123906101Y-100377603D01*
X124027264Y-100225798D01*
X124124703Y-100065933D01*
X124284923Y-100065933D01*
X124286318Y-100087975D01*
X124290358Y-100089916D01*
X124290873Y-100088765D01*
X124293426Y-100063143D01*
X124291351Y-100050046D01*
X124287242Y-100044782D01*
X124285008Y-100061925D01*
X124284923Y-100065933D01*
X124124703Y-100065933D01*
X124129594Y-100057909D01*
X124155027Y-100001401D01*
X124295313Y-100001401D01*
X124301766Y-100007854D01*
X124308220Y-100001401D01*
X124301766Y-99994947D01*
X124295313Y-100001401D01*
X124155027Y-100001401D01*
X124211969Y-99874886D01*
X124270236Y-99689775D01*
X124312074Y-99475171D01*
X124331547Y-99249485D01*
X124328790Y-99014283D01*
X124303939Y-98771130D01*
X124257131Y-98521593D01*
X124188500Y-98267238D01*
X124132404Y-98100484D01*
X124107652Y-98034173D01*
X124080170Y-97963804D01*
X124051633Y-97893298D01*
X124023715Y-97826578D01*
X123998093Y-97767565D01*
X123976441Y-97720179D01*
X123960435Y-97688344D01*
X123951751Y-97675979D01*
X123951106Y-97676113D01*
X123953482Y-97689362D01*
X123964100Y-97720056D01*
X123980787Y-97762020D01*
X123984097Y-97769890D01*
X124070691Y-98000858D01*
X124133119Y-98229341D01*
X124172241Y-98459162D01*
X124188422Y-98676037D01*
X124187558Y-98863819D01*
X124172050Y-99033562D01*
X124140952Y-99189107D01*
X124093318Y-99334293D01*
X124028205Y-99472959D01*
X123967007Y-99575486D01*
X123863419Y-99711495D01*
X123741564Y-99830395D01*
X123603110Y-99931475D01*
X123449727Y-100014021D01*
X123283084Y-100077324D01*
X123104850Y-100120671D01*
X122916693Y-100143350D01*
X122720282Y-100144650D01*
X122644522Y-100139452D01*
X122389165Y-100104436D01*
X122134783Y-100044772D01*
X121880672Y-99960213D01*
X121626129Y-99850513D01*
X121370450Y-99715423D01*
X121275191Y-99658817D01*
X121194701Y-99612704D01*
X121126376Y-99581800D01*
X121063202Y-99564036D01*
X120998164Y-99557347D01*
X120935873Y-99558845D01*
X120832935Y-99577523D01*
X120737141Y-99617981D01*
X120652780Y-99677340D01*
X120584143Y-99752721D01*
X120543684Y-99822085D01*
X120524952Y-99868586D01*
X120516084Y-99910023D01*
X120514858Y-99959226D01*
X119134656Y-99959226D01*
X119067434Y-99885170D01*
X118852096Y-99613879D01*
X118656371Y-99330819D01*
X118482147Y-99038759D01*
X118450549Y-98976272D01*
X119525964Y-98976272D01*
X119527911Y-99069204D01*
X119549332Y-99161944D01*
X119589459Y-99251299D01*
X119647527Y-99334075D01*
X119722767Y-99407080D01*
X119814415Y-99467121D01*
X119823136Y-99471625D01*
X119919579Y-99509450D01*
X120015157Y-99523476D01*
X120114750Y-99514046D01*
X120180339Y-99496670D01*
X120247862Y-99463675D01*
X120312360Y-99411934D01*
X120366393Y-99348134D01*
X120390013Y-99308225D01*
X120409693Y-99261951D01*
X120419956Y-99216325D01*
X120423301Y-99159302D01*
X120423362Y-99147521D01*
X120417136Y-99062400D01*
X120396666Y-98985878D01*
X120359265Y-98911133D01*
X120302245Y-98831344D01*
X120295545Y-98823051D01*
X120247809Y-98766163D01*
X120208913Y-98725113D01*
X120172669Y-98694752D01*
X120132889Y-98669929D01*
X120083383Y-98645496D01*
X120080636Y-98644235D01*
X120037950Y-98626512D01*
X120001098Y-98617253D01*
X119959205Y-98614714D01*
X119908948Y-98616688D01*
X119815225Y-98630202D01*
X119736083Y-98660448D01*
X119664183Y-98710522D01*
X119644630Y-98728252D01*
X119583557Y-98802603D01*
X119544257Y-98886341D01*
X119525964Y-98976272D01*
X118450549Y-98976272D01*
X118331311Y-98740468D01*
X118304513Y-98681201D01*
X118277906Y-98618616D01*
X118248484Y-98545100D01*
X118217727Y-98464830D01*
X118187116Y-98381982D01*
X118158130Y-98300733D01*
X118132250Y-98225259D01*
X118110957Y-98159737D01*
X118095730Y-98108343D01*
X118088050Y-98075255D01*
X118087417Y-98068652D01*
X118082769Y-98049630D01*
X118068118Y-98050609D01*
X118041898Y-98072214D01*
X118019636Y-98095697D01*
X117942003Y-98194241D01*
X117868969Y-98310705D01*
X117804653Y-98437197D01*
X117753175Y-98565830D01*
X117725430Y-98659124D01*
X117710823Y-98731654D01*
X117698528Y-98818077D01*
X117690159Y-98906484D01*
X117688728Y-98930161D01*
X117680730Y-99085039D01*
X117620661Y-98930161D01*
X117559266Y-98763690D01*
X117506576Y-98603978D01*
X117463355Y-98453986D01*
X117430368Y-98316675D01*
X117408379Y-98195008D01*
X117398152Y-98091945D01*
X117397493Y-98065425D01*
X117398245Y-98005696D01*
X117402164Y-97963058D01*
X117410876Y-97928833D01*
X117426014Y-97894344D01*
X117431685Y-97883345D01*
X117460820Y-97838461D01*
X117500592Y-97790086D01*
X117532845Y-97757634D01*
X117607925Y-97703797D01*
X117687307Y-97671327D01*
X117767235Y-97660462D01*
X117843950Y-97671439D01*
X117913694Y-97704495D01*
X117947016Y-97731495D01*
X117980985Y-97764032D01*
X118059859Y-97724217D01*
X118116290Y-97697633D01*
X118169429Y-97677672D01*
X118224475Y-97663446D01*
X118286628Y-97654065D01*
X118361089Y-97648639D01*
X118453056Y-97646279D01*
X118517292Y-97645964D01*
X118600062Y-97645747D01*
X118660299Y-97644899D01*
X118701276Y-97643121D01*
X118726272Y-97640118D01*
X118738563Y-97635592D01*
X118741424Y-97629244D01*
X118740507Y-97625711D01*
X118734716Y-97604819D01*
X118725504Y-97565219D01*
X118714375Y-97513545D01*
X118707605Y-97480513D01*
X118670931Y-97246377D01*
X118656008Y-97019314D01*
X118662312Y-96800502D01*
X118689320Y-96591117D01*
X118736510Y-96392337D01*
X118803357Y-96205341D01*
X118889338Y-96031305D01*
X118993931Y-95871407D01*
X119116613Y-95726825D01*
X119256859Y-95598737D01*
X119414148Y-95488320D01*
X119587955Y-95396751D01*
X119643975Y-95372834D01*
X119848850Y-95303761D01*
X120064394Y-95258058D01*
X120290336Y-95235715D01*
X120526404Y-95236724D01*
X120772327Y-95261073D01*
X121027835Y-95308753D01*
X121292656Y-95379754D01*
X121472612Y-95439458D01*
X121529833Y-95460266D01*
X121576549Y-95478071D01*
X121608311Y-95491116D01*
X121620671Y-95497645D01*
X121620641Y-95497906D01*
X121607251Y-95496389D01*
X121575021Y-95488758D01*
X121529790Y-95476453D01*
X121507112Y-95469881D01*
X121274477Y-95411432D01*
X121050175Y-95375620D01*
X120834951Y-95362416D01*
X120629551Y-95371792D01*
X120434718Y-95403718D01*
X120251198Y-95458166D01*
X120100699Y-95524150D01*
X119949111Y-95615736D01*
X119814811Y-95726111D01*
X119698495Y-95854287D01*
X119600861Y-95999277D01*
X119522609Y-96160091D01*
X119464434Y-96335744D01*
X119436495Y-96464330D01*
X119425809Y-96549496D01*
X119419469Y-96652383D01*
X119417479Y-96765268D01*
X119419845Y-96880425D01*
X119426570Y-96990131D01*
X119436130Y-97076250D01*
X119449088Y-97161443D01*
X119461131Y-97225464D01*
X119473506Y-97272860D01*
X119487457Y-97308181D01*
X119504229Y-97335976D01*
X119508907Y-97342154D01*
X119522814Y-97357270D01*
X119538926Y-97367045D01*
X119560406Y-97370969D01*
X119590413Y-97368531D01*
X119632110Y-97359220D01*
X119688657Y-97342525D01*
X119763214Y-97317935D01*
X119855476Y-97286146D01*
X120022638Y-97231918D01*
X120188699Y-97185512D01*
X120347331Y-97148501D01*
X120492208Y-97122463D01*
X120537490Y-97116355D01*
X120672228Y-97111261D01*
X120799424Y-97128961D01*
X120916796Y-97168679D01*
X121022060Y-97229640D01*
X121112932Y-97311069D01*
X121113741Y-97311962D01*
X121134106Y-97337106D01*
X121162668Y-97375735D01*
X121196217Y-97423102D01*
X121231540Y-97474458D01*
X121265426Y-97525058D01*
X121294664Y-97570154D01*
X121316042Y-97604999D01*
X121326347Y-97624846D01*
X121326817Y-97626918D01*
X121314218Y-97627833D01*
X121277651Y-97628709D01*
X121218960Y-97629536D01*
X121139989Y-97630303D01*
X121042584Y-97631002D01*
X120928589Y-97631621D01*
X120799849Y-97632151D01*
X120658208Y-97632580D01*
X120505511Y-97632900D01*
X120343602Y-97633099D01*
X120194272Y-97633167D01*
X119959025Y-97633360D01*
X119748504Y-97633907D01*
X119561622Y-97634836D01*
X119397292Y-97636176D01*
X119254429Y-97637954D01*
X119131946Y-97640197D01*
X119028758Y-97642935D01*
X118943778Y-97646193D01*
X118875920Y-97650002D01*
X118824098Y-97654387D01*
X118787226Y-97659377D01*
X118764219Y-97665000D01*
X118755025Y-97670012D01*
X118753903Y-97687141D01*
X118761994Y-97722178D01*
X118777302Y-97769779D01*
X118797831Y-97824601D01*
X118821586Y-97881299D01*
X118846570Y-97934529D01*
X118869737Y-97977203D01*
X118942678Y-98078835D01*
X119025692Y-98156836D01*
X119119131Y-98211345D01*
X119223346Y-98242502D01*
X119338689Y-98250447D01*
X119465512Y-98235321D01*
X119499096Y-98227940D01*
X119550950Y-98213203D01*
X119619284Y-98190362D01*
X119697057Y-98161949D01*
X119777230Y-98130495D01*
X119822537Y-98111651D01*
X119958260Y-98056175D01*
X120088754Y-98007366D01*
X120209763Y-97966650D01*
X120317028Y-97935453D01*
X120406292Y-97915201D01*
X120412442Y-97914111D01*
X120474773Y-97905701D01*
X120524151Y-97906583D01*
X120565751Y-97919345D01*
X120604744Y-97946575D01*
X120646304Y-97990861D01*
X120695603Y-98054793D01*
X120696763Y-98056370D01*
X120869707Y-98274602D01*
X121055533Y-98476846D01*
X121252434Y-98661834D01*
X121458606Y-98828301D01*
X121672243Y-98974978D01*
X121891542Y-99100599D01*
X122114697Y-99203896D01*
X122339903Y-99283602D01*
X122505855Y-99326443D01*
X122560541Y-99337323D01*
X122612575Y-99345094D01*
X122668109Y-99350226D01*
X122733295Y-99353185D01*
X122814285Y-99354441D01*
X122875598Y-99354568D01*
X122989529Y-99353026D01*
X123083755Y-99347863D01*
X123164275Y-99337842D01*
X123237087Y-99321724D01*
X123308189Y-99298272D01*
X123383580Y-99266249D01*
X123443484Y-99237390D01*
X123506639Y-99203891D01*
X123558689Y-99170508D01*
X123608183Y-99130963D01*
X123663669Y-99078976D01*
X123676633Y-99066139D01*
X123749031Y-98988644D01*
X123801578Y-98918745D01*
X123836976Y-98851484D01*
X123857929Y-98781901D01*
X123866332Y-98718193D01*
X123868332Y-98664010D01*
X123863730Y-98622892D01*
X123850538Y-98582505D01*
X123840915Y-98560509D01*
X123791310Y-98478836D01*
X123726891Y-98414551D01*
X123651174Y-98369914D01*
X123567673Y-98347187D01*
X123506702Y-98345509D01*
X123442362Y-98355815D01*
X123397770Y-98376651D01*
X123394911Y-98378823D01*
X123275256Y-98461423D01*
X123155411Y-98520116D01*
X123031385Y-98556526D01*
X122922832Y-98570958D01*
X122792129Y-98569197D01*
X122649669Y-98547785D01*
X122498892Y-98507937D01*
X122343234Y-98450867D01*
X122186135Y-98377792D01*
X122031034Y-98289926D01*
X121920516Y-98216768D01*
X121868424Y-98176821D01*
X121805091Y-98123285D01*
X121734561Y-98060071D01*
X121660882Y-97991095D01*
X121588100Y-97920269D01*
X121520259Y-97851507D01*
X121461407Y-97788723D01*
X121415589Y-97735830D01*
X121393774Y-97707269D01*
X121351026Y-97645964D01*
X121910035Y-97646103D01*
X122050858Y-97646281D01*
X122168243Y-97646785D01*
X122264565Y-97647691D01*
X122342199Y-97649072D01*
X122403518Y-97651002D01*
X122450897Y-97653555D01*
X122486710Y-97656804D01*
X122513331Y-97660824D01*
X122532400Y-97665463D01*
X122609719Y-97680677D01*
X122692488Y-97683388D01*
X122769219Y-97673604D01*
X122798159Y-97665323D01*
X122820346Y-97659288D01*
X122850681Y-97654577D01*
X122892176Y-97651050D01*
X122947843Y-97648566D01*
X123020691Y-97646985D01*
X123113732Y-97646166D01*
X123212790Y-97645964D01*
X123318739Y-97646061D01*
X123401676Y-97646471D01*
X123464397Y-97647368D01*
X123509704Y-97648928D01*
X123540394Y-97651327D01*
X123559268Y-97654739D01*
X123569124Y-97659341D01*
X123572760Y-97665308D01*
X123573116Y-97668550D01*
X123578241Y-97736844D01*
X123589233Y-97809162D01*
X123604266Y-97876009D01*
X123621515Y-97927892D01*
X123624050Y-97933521D01*
X123660819Y-97997812D01*
X123704676Y-98053348D01*
X123752470Y-98098450D01*
X123801050Y-98131439D01*
X123847267Y-98150634D01*
X123887969Y-98154356D01*
X123920007Y-98140924D01*
X123940229Y-98108660D01*
X123941836Y-98102956D01*
X123943140Y-98071866D01*
X123937834Y-98021055D01*
X123926829Y-97955495D01*
X123911035Y-97880156D01*
X123891361Y-97800011D01*
X123876609Y-97746605D01*
X123847459Y-97645964D01*
X142183988Y-97645964D01*
X142180631Y-102018042D01*
X142177275Y-106390120D01*
X142141260Y-106491970D01*
X142084314Y-106617580D01*
X142008958Y-106726143D01*
X141916595Y-106816345D01*
X141808626Y-106886871D01*
X141686454Y-106936407D01*
X141659151Y-106944013D01*
X141653180Y-106945161D01*
X141644021Y-106946266D01*
X141631190Y-106947329D01*
X141614201Y-106948350D01*
X141592569Y-106949329D01*
X141565809Y-106950269D01*
X141533436Y-106951169D01*
X141494965Y-106952031D01*
X141449911Y-106952856D01*
X141397789Y-106953643D01*
X141338113Y-106954395D01*
X141270399Y-106955111D01*
X141194162Y-106955794D01*
X141108915Y-106956442D01*
X141014176Y-106957058D01*
X140909457Y-106957642D01*
X140794274Y-106958196D01*
X140668143Y-106958719D01*
X140530577Y-106959212D01*
X140381092Y-106959677D01*
X140219203Y-106960115D01*
X140044424Y-106960525D01*
X139856271Y-106960909D01*
X139654259Y-106961268D01*
X139437902Y-106961603D01*
X139206715Y-106961914D01*
X138960214Y-106962203D01*
X138697912Y-106962469D01*
X138419326Y-106962714D01*
X138123969Y-106962939D01*
X137811357Y-106963145D01*
X137481005Y-106963332D01*
X137132428Y-106963501D01*
X136765140Y-106963653D01*
X136378657Y-106963789D01*
X135972493Y-106963909D01*
X135546164Y-106964015D01*
X135099183Y-106964108D01*
X134631067Y-106964187D01*
X134141329Y-106964255D01*
X133629486Y-106964311D01*
X133095052Y-106964357D01*
X132537541Y-106964393D01*
X131956469Y-106964420D01*
X131351350Y-106964440D01*
X130721700Y-106964452D01*
X130067033Y-106964458D01*
X129633516Y-106964460D01*
X117687183Y-106964460D01*
X117687183Y-104616134D01*
X133420212Y-104616134D01*
X133420332Y-104737543D01*
X133420768Y-104835701D01*
X133421631Y-104913170D01*
X133423029Y-104972512D01*
X133425075Y-105016288D01*
X133427879Y-105047061D01*
X133431552Y-105067392D01*
X133436204Y-105079842D01*
X133440493Y-105085641D01*
X133449682Y-105091815D01*
X133465386Y-105096623D01*
X133490544Y-105100229D01*
X133528093Y-105102794D01*
X133580973Y-105104481D01*
X133652120Y-105105452D01*
X133744475Y-105105870D01*
X133807407Y-105105923D01*
X133913096Y-105105747D01*
X133995913Y-105105109D01*
X134058794Y-105103848D01*
X134104679Y-105101801D01*
X134136505Y-105098806D01*
X134157211Y-105094700D01*
X134169735Y-105089320D01*
X134174320Y-105085641D01*
X134179838Y-105077429D01*
X134184275Y-105063264D01*
X134187744Y-105040560D01*
X134190359Y-105006734D01*
X134192234Y-104959201D01*
X134193481Y-104895379D01*
X134194214Y-104812682D01*
X134194306Y-104784036D01*
X134477268Y-104784036D01*
X134477430Y-104904813D01*
X134477997Y-105023038D01*
X134478968Y-105135874D01*
X134480345Y-105240486D01*
X134482127Y-105334037D01*
X134484313Y-105413691D01*
X134486905Y-105476612D01*
X134489901Y-105519964D01*
X134493303Y-105540911D01*
X134494033Y-105542163D01*
X134518669Y-105552815D01*
X134559074Y-105557668D01*
X134605929Y-105557004D01*
X134649915Y-105551107D01*
X134681716Y-105540259D01*
X134687259Y-105536290D01*
X134692345Y-105530571D01*
X134696645Y-105522000D01*
X134700224Y-105508522D01*
X134703148Y-105488084D01*
X134705484Y-105458630D01*
X134707296Y-105418106D01*
X134708651Y-105364458D01*
X134709614Y-105295632D01*
X134710250Y-105209572D01*
X134710627Y-105104226D01*
X134710808Y-104977537D01*
X134710861Y-104827452D01*
X134710862Y-104798409D01*
X134710905Y-104724486D01*
X134942882Y-104724486D01*
X134943156Y-104817833D01*
X134943179Y-104839490D01*
X134943697Y-104941367D01*
X134945318Y-105019308D01*
X134948140Y-105075173D01*
X134952264Y-105110820D01*
X134957789Y-105128106D01*
X134958667Y-105129155D01*
X134978759Y-105136081D01*
X135020154Y-105140911D01*
X135078423Y-105143618D01*
X135149139Y-105144176D01*
X135227874Y-105142558D01*
X135310199Y-105138738D01*
X135391689Y-105132690D01*
X135401360Y-105131798D01*
X135494967Y-105122639D01*
X135565964Y-105114325D01*
X135617469Y-105105608D01*
X135652601Y-105095241D01*
X135674477Y-105081974D01*
X135686215Y-105064561D01*
X135690934Y-105041753D01*
X135691756Y-105015577D01*
X135686903Y-104970863D01*
X135669918Y-104943076D01*
X135637161Y-104929802D01*
X135584993Y-104928629D01*
X135563368Y-104930439D01*
X135515462Y-104934561D01*
X135450917Y-104939200D01*
X135378880Y-104943734D01*
X135320694Y-104946935D01*
X135162590Y-104954968D01*
X135162590Y-104720588D01*
X135354249Y-104716431D01*
X135438506Y-104713788D01*
X135499659Y-104709869D01*
X135540400Y-104704397D01*
X135563417Y-104697097D01*
X135567206Y-104694561D01*
X135574540Y-104685600D01*
X135580001Y-104670315D01*
X135583855Y-104645253D01*
X135586365Y-104606961D01*
X135587797Y-104551983D01*
X135588102Y-104514883D01*
X135730405Y-104514883D01*
X135730420Y-104649057D01*
X135730476Y-104796167D01*
X135730421Y-104952671D01*
X135730431Y-105085327D01*
X135730770Y-105196098D01*
X135731701Y-105286948D01*
X135733487Y-105359841D01*
X135736390Y-105416741D01*
X135740675Y-105459612D01*
X135746604Y-105490417D01*
X135754440Y-105511121D01*
X135764446Y-105523686D01*
X135776886Y-105530078D01*
X135792023Y-105532259D01*
X135810120Y-105532194D01*
X135829045Y-105531838D01*
X135858667Y-105532107D01*
X135882324Y-105531183D01*
X135900683Y-105526465D01*
X135914413Y-105515353D01*
X135924182Y-105495245D01*
X135930658Y-105463543D01*
X135934511Y-105417645D01*
X135936408Y-105354952D01*
X135937017Y-105272862D01*
X135937008Y-105168777D01*
X135936980Y-105111922D01*
X135936980Y-104718728D01*
X136091858Y-104718728D01*
X136091858Y-105124361D01*
X136091814Y-105243463D01*
X136092121Y-105339280D01*
X136093438Y-105414338D01*
X136096423Y-105471163D01*
X136101735Y-105512283D01*
X136110034Y-105540221D01*
X136121977Y-105557506D01*
X136138223Y-105566663D01*
X136159432Y-105570219D01*
X136186261Y-105570698D01*
X136208207Y-105570557D01*
X136253522Y-105568947D01*
X136281035Y-105562541D01*
X136298640Y-105548977D01*
X136304083Y-105541872D01*
X136308479Y-105533121D01*
X136312195Y-105519087D01*
X136315287Y-105497738D01*
X136317810Y-105467043D01*
X136319819Y-105424968D01*
X136321369Y-105369482D01*
X136322516Y-105298553D01*
X136323315Y-105210148D01*
X136323821Y-105102235D01*
X136323913Y-105057802D01*
X136479053Y-105057802D01*
X136489330Y-105087942D01*
X136514933Y-105121657D01*
X136548016Y-105151142D01*
X136580736Y-105168592D01*
X136592271Y-105170455D01*
X136617462Y-105162823D01*
X136654522Y-105142769D01*
X136695623Y-105114555D01*
X136697403Y-105113192D01*
X136766307Y-105054394D01*
X136835934Y-104985044D01*
X136897745Y-104914052D01*
X136930781Y-104869645D01*
X136951541Y-104841110D01*
X136966344Y-104824418D01*
X136969500Y-104822587D01*
X136979739Y-104832391D01*
X137000921Y-104857922D01*
X137028808Y-104894029D01*
X137034033Y-104901013D01*
X137082118Y-104957209D01*
X137145393Y-105019172D01*
X137216465Y-105080160D01*
X137287942Y-105133434D01*
X137291808Y-105136054D01*
X137335325Y-105155191D01*
X137375721Y-105149978D01*
X137416421Y-105119869D01*
X137420514Y-105115603D01*
X137450836Y-105075973D01*
X137459925Y-105041105D01*
X137446972Y-105006856D01*
X137411167Y-104969081D01*
X137388259Y-104950503D01*
X137286444Y-104859677D01*
X137232920Y-104794040D01*
X137576106Y-104794040D01*
X137576244Y-104960436D01*
X137576680Y-105102508D01*
X137577443Y-105221741D01*
X137578565Y-105319621D01*
X137580076Y-105397637D01*
X137582008Y-105457273D01*
X137584391Y-105500017D01*
X137587255Y-105527356D01*
X137590632Y-105540774D01*
X137591594Y-105542163D01*
X137612438Y-105550600D01*
X137650445Y-105556185D01*
X137685811Y-105557651D01*
X137731144Y-105555210D01*
X137765910Y-105548832D01*
X137780029Y-105542163D01*
X137784768Y-105529661D01*
X137787028Y-105512773D01*
X138382762Y-105512773D01*
X138383399Y-105569781D01*
X138386583Y-105609177D01*
X138394225Y-105639155D01*
X138408235Y-105667908D01*
X138425418Y-105695700D01*
X138479328Y-105764402D01*
X138545425Y-105818204D01*
X138630246Y-105862390D01*
X138633413Y-105863734D01*
X138673868Y-105878978D01*
X138711344Y-105887575D01*
X138755078Y-105890797D01*
X138814304Y-105889916D01*
X138821584Y-105889645D01*
X138900628Y-105883580D01*
X138961222Y-105871521D01*
X138998089Y-105858084D01*
X139084501Y-105806856D01*
X139154290Y-105739863D01*
X139205021Y-105660640D01*
X139234259Y-105572720D01*
X139240635Y-105506025D01*
X139228144Y-105411793D01*
X139191996Y-105325762D01*
X139133636Y-105250099D01*
X139054504Y-105186970D01*
X139012477Y-105163216D01*
X138974938Y-105145491D01*
X138942115Y-105134349D01*
X138905911Y-105128285D01*
X138858232Y-105125798D01*
X138808677Y-105125373D01*
X138746087Y-105126106D01*
X138701177Y-105129367D01*
X138665839Y-105136591D01*
X138631963Y-105149215D01*
X138606514Y-105161180D01*
X138532003Y-105207185D01*
X138466452Y-105265471D01*
X138417118Y-105329248D01*
X138406776Y-105348011D01*
X138393558Y-105383302D01*
X138385949Y-105428010D01*
X138382927Y-105489136D01*
X138382762Y-105512773D01*
X137787028Y-105512773D01*
X137788547Y-105501420D01*
X137791436Y-105455613D01*
X137793501Y-105390414D01*
X137794813Y-105303995D01*
X137795439Y-105194529D01*
X137795516Y-105129155D01*
X137795516Y-105091974D01*
X139631534Y-105091974D01*
X139635888Y-105122769D01*
X139661789Y-105158451D01*
X139669491Y-105166614D01*
X139702443Y-105195274D01*
X139734229Y-105208629D01*
X139769078Y-105205908D01*
X139811222Y-105186340D01*
X139864891Y-105149151D01*
X139895205Y-105125443D01*
X139945227Y-105082730D01*
X139997181Y-105033886D01*
X140045734Y-104984377D01*
X140085552Y-104939666D01*
X140111299Y-104905218D01*
X140113046Y-104902286D01*
X140122253Y-104909453D01*
X140145637Y-104931629D01*
X140179486Y-104965211D01*
X140213526Y-104999839D01*
X140264729Y-105048606D01*
X140320556Y-105095443D01*
X140376237Y-105136973D01*
X140426999Y-105169817D01*
X140468073Y-105190598D01*
X140490974Y-105196268D01*
X140512691Y-105186904D01*
X140541500Y-105163396D01*
X140571022Y-105132627D01*
X140594876Y-105101478D01*
X140599248Y-105092348D01*
X140725129Y-105092348D01*
X140725366Y-105205998D01*
X140726208Y-105299615D01*
X140727948Y-105375125D01*
X140730882Y-105434455D01*
X140735304Y-105479531D01*
X140741507Y-105512279D01*
X140749786Y-105534625D01*
X140760436Y-105548495D01*
X140773750Y-105555816D01*
X140790022Y-105558514D01*
X140809548Y-105558515D01*
X140832621Y-105557746D01*
X140841451Y-105557651D01*
X140897912Y-105553773D01*
X140931919Y-105541827D01*
X140937328Y-105537369D01*
X140943342Y-105528424D01*
X140948063Y-105513107D01*
X140951640Y-105488568D01*
X140954224Y-105451955D01*
X140955963Y-105400417D01*
X140957007Y-105331104D01*
X140957504Y-105241165D01*
X140957610Y-105150174D01*
X140957610Y-104783260D01*
X141060130Y-104783260D01*
X141112649Y-104782491D01*
X141145784Y-104779185D01*
X141165942Y-104771842D01*
X141179531Y-104758963D01*
X141182742Y-104754576D01*
X141199988Y-104711876D01*
X141200369Y-104664775D01*
X141184333Y-104624151D01*
X141177021Y-104615476D01*
X141158391Y-104601591D01*
X141132566Y-104593651D01*
X141092606Y-104590196D01*
X141054409Y-104589663D01*
X140957610Y-104589663D01*
X140957610Y-104335776D01*
X140957395Y-104240194D01*
X140955972Y-104167340D01*
X140952173Y-104114128D01*
X140944831Y-104077473D01*
X140932779Y-104054288D01*
X140914849Y-104041490D01*
X140889874Y-104035991D01*
X140856687Y-104034708D01*
X140843694Y-104034683D01*
X140818892Y-104034096D01*
X140797800Y-104033617D01*
X140780117Y-104035170D01*
X140765547Y-104040677D01*
X140753789Y-104052064D01*
X140744546Y-104071253D01*
X140737518Y-104100168D01*
X140732408Y-104140733D01*
X140728916Y-104194870D01*
X140726743Y-104264504D01*
X140725592Y-104351558D01*
X140725163Y-104457956D01*
X140725157Y-104585621D01*
X140725277Y-104736477D01*
X140725293Y-104797245D01*
X140725203Y-104956739D01*
X140725129Y-105092348D01*
X140599248Y-105092348D01*
X140606680Y-105076830D01*
X140606846Y-105071308D01*
X140595099Y-105054114D01*
X140567128Y-105026544D01*
X140527779Y-104993138D01*
X140502373Y-104973419D01*
X140405702Y-104891113D01*
X140332623Y-104806081D01*
X140280926Y-104714985D01*
X140248397Y-104614486D01*
X140241706Y-104579983D01*
X140232577Y-104525130D01*
X140386008Y-104525130D01*
X140466546Y-104523693D01*
X140521635Y-104519386D01*
X140551184Y-104512219D01*
X140554927Y-104509642D01*
X140563762Y-104488586D01*
X140569369Y-104451729D01*
X140570415Y-104426204D01*
X140568282Y-104383013D01*
X140560403Y-104358163D01*
X140545450Y-104344893D01*
X140524679Y-104340862D01*
X140479620Y-104337491D01*
X140411789Y-104334827D01*
X140322704Y-104332918D01*
X140213882Y-104331810D01*
X140114004Y-104331533D01*
X139998920Y-104331672D01*
X139906947Y-104332176D01*
X139835385Y-104333173D01*
X139781534Y-104334790D01*
X139742692Y-104337158D01*
X139716160Y-104340403D01*
X139699237Y-104344654D01*
X139689222Y-104350039D01*
X139687241Y-104351814D01*
X139674425Y-104378031D01*
X139667847Y-104417938D01*
X139667831Y-104460900D01*
X139674699Y-104496283D01*
X139682447Y-104509642D01*
X139704671Y-104517638D01*
X139752388Y-104522768D01*
X139825437Y-104525018D01*
X139850232Y-104525130D01*
X139909483Y-104525938D01*
X139957969Y-104528137D01*
X139990660Y-104531390D01*
X140002529Y-104535325D01*
X139997922Y-104565184D01*
X139985868Y-104610559D01*
X139969021Y-104663212D01*
X139950031Y-104714903D01*
X139931551Y-104757393D01*
X139930151Y-104760195D01*
X139894407Y-104816974D01*
X139842687Y-104881139D01*
X139780815Y-104946253D01*
X139714616Y-105005880D01*
X139690423Y-105025086D01*
X139649467Y-105061077D01*
X139631534Y-105091974D01*
X137795516Y-105091974D01*
X137795516Y-105006203D01*
X138014482Y-105006203D01*
X138016791Y-105020898D01*
X138023336Y-105033034D01*
X138036025Y-105042855D01*
X138056770Y-105050604D01*
X138087481Y-105056524D01*
X138130068Y-105060859D01*
X138186442Y-105063852D01*
X138258512Y-105065747D01*
X138348189Y-105066787D01*
X138457384Y-105067215D01*
X138588006Y-105067275D01*
X138741966Y-105067211D01*
X138792166Y-105067203D01*
X138971934Y-105066962D01*
X139128171Y-105066243D01*
X139260528Y-105065051D01*
X139368658Y-105063394D01*
X139452214Y-105061276D01*
X139510846Y-105058705D01*
X139544208Y-105055687D01*
X139551650Y-105053843D01*
X139567098Y-105039769D01*
X139574679Y-105014267D01*
X139576614Y-104972532D01*
X139573828Y-104930985D01*
X139566706Y-104899260D01*
X139561126Y-104889094D01*
X139547215Y-104883753D01*
X139516192Y-104879639D01*
X139466173Y-104876661D01*
X139395277Y-104874732D01*
X139301620Y-104873763D01*
X139232010Y-104873606D01*
X138918382Y-104873606D01*
X138918382Y-104718728D01*
X139099073Y-104718728D01*
X139171752Y-104718412D01*
X139223200Y-104717082D01*
X139257995Y-104714167D01*
X139280715Y-104709094D01*
X139295937Y-104701291D01*
X139305577Y-104692915D01*
X139325278Y-104657535D01*
X139331051Y-104612353D01*
X139322534Y-104569182D01*
X139310030Y-104548733D01*
X139302401Y-104542025D01*
X139291124Y-104536718D01*
X139273356Y-104532649D01*
X139246254Y-104529656D01*
X139206975Y-104527575D01*
X139152675Y-104526245D01*
X139080512Y-104525503D01*
X138987643Y-104525186D01*
X138897022Y-104525130D01*
X138505374Y-104525130D01*
X138505374Y-104279907D01*
X138889988Y-104279907D01*
X139009943Y-104279590D01*
X139105931Y-104278593D01*
X139179794Y-104276844D01*
X139233369Y-104274273D01*
X139268497Y-104270807D01*
X139287018Y-104266376D01*
X139290090Y-104264419D01*
X139301335Y-104238933D01*
X139305499Y-104199352D01*
X139303224Y-104161637D01*
X139833215Y-104161637D01*
X139839829Y-104200135D01*
X139854394Y-104225201D01*
X139857331Y-104227247D01*
X139877865Y-104231817D01*
X139920043Y-104235680D01*
X139979701Y-104238608D01*
X140052672Y-104240375D01*
X140106136Y-104240795D01*
X140191794Y-104240543D01*
X140255426Y-104239252D01*
X140300805Y-104236630D01*
X140331707Y-104232387D01*
X140351906Y-104226230D01*
X140361039Y-104221096D01*
X140380618Y-104200231D01*
X140388809Y-104168459D01*
X140389724Y-104144388D01*
X140388329Y-104112663D01*
X140382032Y-104088729D01*
X140367661Y-104071495D01*
X140342045Y-104059870D01*
X140302014Y-104052762D01*
X140244397Y-104049080D01*
X140166023Y-104047732D01*
X140108514Y-104047590D01*
X140027875Y-104048357D01*
X139958430Y-104050513D01*
X139904259Y-104053838D01*
X139869441Y-104058114D01*
X139859709Y-104060950D01*
X139843291Y-104082504D01*
X139834414Y-104119247D01*
X139833215Y-104161637D01*
X139303224Y-104161637D01*
X139302903Y-104156312D01*
X139293871Y-104120446D01*
X139285296Y-104106591D01*
X139277309Y-104101229D01*
X139263493Y-104096886D01*
X139241345Y-104093458D01*
X139208365Y-104090841D01*
X139162052Y-104088932D01*
X139099906Y-104087628D01*
X139019424Y-104086825D01*
X138918107Y-104086420D01*
X138794849Y-104086309D01*
X138672152Y-104086360D01*
X138572662Y-104086602D01*
X138493769Y-104087172D01*
X138432868Y-104088205D01*
X138387350Y-104089837D01*
X138354609Y-104092204D01*
X138332038Y-104095441D01*
X138317028Y-104099683D01*
X138306972Y-104105068D01*
X138299264Y-104111730D01*
X138298870Y-104112122D01*
X138290150Y-104122364D01*
X138283645Y-104135637D01*
X138279032Y-104155564D01*
X138275990Y-104185767D01*
X138274196Y-104229871D01*
X138273329Y-104291498D01*
X138273066Y-104374271D01*
X138273057Y-104402518D01*
X138272841Y-104500955D01*
X138273658Y-104576592D01*
X138277703Y-104632421D01*
X138287172Y-104671428D01*
X138304260Y-104696602D01*
X138331164Y-104710933D01*
X138370078Y-104717408D01*
X138423199Y-104719016D01*
X138492722Y-104718746D01*
X138505374Y-104718728D01*
X138686065Y-104718728D01*
X138686065Y-104873606D01*
X138374099Y-104873606D01*
X138268598Y-104873772D01*
X138186086Y-104874768D01*
X138123737Y-104877336D01*
X138078729Y-104882219D01*
X138048236Y-104890162D01*
X138029433Y-104901909D01*
X138019497Y-104918202D01*
X138015603Y-104939785D01*
X138014927Y-104967401D01*
X138014927Y-104968162D01*
X138014497Y-104988705D01*
X138014482Y-105006203D01*
X137795516Y-105006203D01*
X137795516Y-104731634D01*
X137902640Y-104731634D01*
X137962470Y-104729686D01*
X138004891Y-104724198D01*
X138025252Y-104716147D01*
X138034087Y-104695090D01*
X138039695Y-104658233D01*
X138040740Y-104632708D01*
X138038376Y-104591775D01*
X138028426Y-104564596D01*
X138006605Y-104548424D01*
X137968630Y-104540508D01*
X137910214Y-104538100D01*
X137893164Y-104538037D01*
X137795516Y-104538037D01*
X137795516Y-104301848D01*
X137794860Y-104206637D01*
X137792818Y-104135464D01*
X137789285Y-104086588D01*
X137784152Y-104058266D01*
X137780029Y-104050171D01*
X137757504Y-104040917D01*
X137718939Y-104035950D01*
X137673768Y-104035384D01*
X137631425Y-104039329D01*
X137601343Y-104047899D01*
X137601070Y-104048044D01*
X137595756Y-104051620D01*
X137591254Y-104057544D01*
X137587498Y-104067829D01*
X137584419Y-104084487D01*
X137581951Y-104109531D01*
X137580027Y-104144975D01*
X137578578Y-104192831D01*
X137577538Y-104255113D01*
X137576839Y-104333833D01*
X137576413Y-104431004D01*
X137576195Y-104548639D01*
X137576115Y-104688752D01*
X137576106Y-104794040D01*
X137232920Y-104794040D01*
X137206690Y-104761874D01*
X137162397Y-104684994D01*
X137132355Y-104610193D01*
X137107821Y-104526577D01*
X137091450Y-104444735D01*
X137085883Y-104379932D01*
X137085659Y-104331533D01*
X137223387Y-104331533D01*
X137296190Y-104330267D01*
X137347081Y-104325022D01*
X137379899Y-104313630D01*
X137398482Y-104293921D01*
X137406669Y-104263726D01*
X137408321Y-104227012D01*
X137408023Y-104199698D01*
X137405430Y-104177755D01*
X137397995Y-104160596D01*
X137383171Y-104147633D01*
X137358411Y-104138278D01*
X137321168Y-104131941D01*
X137268894Y-104128037D01*
X137199042Y-104125975D01*
X137109066Y-104125168D01*
X136996417Y-104125028D01*
X136966628Y-104125029D01*
X136856725Y-104125102D01*
X136769717Y-104125445D01*
X136702683Y-104126240D01*
X136652707Y-104127672D01*
X136616868Y-104129925D01*
X136592249Y-104133182D01*
X136575931Y-104137626D01*
X136564994Y-104143442D01*
X136556521Y-104150812D01*
X136556492Y-104150842D01*
X136534921Y-104190665D01*
X136530679Y-104228281D01*
X136533882Y-104268928D01*
X136545927Y-104297515D01*
X136570468Y-104316045D01*
X136611161Y-104326521D01*
X136671661Y-104330948D01*
X136719035Y-104331533D01*
X136855764Y-104331533D01*
X136847384Y-104399292D01*
X136831084Y-104508790D01*
X136810204Y-104598780D01*
X136781755Y-104675516D01*
X136742746Y-104745256D01*
X136690188Y-104814254D01*
X136621090Y-104888766D01*
X136606373Y-104903538D01*
X136548251Y-104963506D01*
X136507066Y-105010685D01*
X136483925Y-105043734D01*
X136479053Y-105057802D01*
X136323913Y-105057802D01*
X136324089Y-104972783D01*
X136324174Y-104819760D01*
X136324175Y-104802620D01*
X136324240Y-104642434D01*
X136324245Y-104506139D01*
X136323911Y-104391813D01*
X136322953Y-104297534D01*
X136321092Y-104221382D01*
X136318044Y-104161434D01*
X136313528Y-104115770D01*
X136307262Y-104082468D01*
X136298964Y-104059605D01*
X136288353Y-104045262D01*
X136275146Y-104037516D01*
X136259062Y-104034446D01*
X136239819Y-104034131D01*
X136217135Y-104034648D01*
X136211528Y-104034683D01*
X136171081Y-104035415D01*
X136140958Y-104039821D01*
X136119639Y-104051216D01*
X136105602Y-104072913D01*
X136097326Y-104108228D01*
X136093291Y-104160474D01*
X136091976Y-104232967D01*
X136091858Y-104295458D01*
X136091858Y-104513512D01*
X136017646Y-104509641D01*
X135943433Y-104505770D01*
X135940013Y-104299266D01*
X135938299Y-104215438D01*
X135935303Y-104153958D01*
X135929459Y-104111362D01*
X135919203Y-104084186D01*
X135902971Y-104068967D01*
X135879199Y-104062240D01*
X135846323Y-104060543D01*
X135832183Y-104060496D01*
X135810542Y-104060053D01*
X135792198Y-104060032D01*
X135776880Y-104062397D01*
X135764317Y-104069109D01*
X135754237Y-104082132D01*
X135746368Y-104103429D01*
X135740439Y-104134963D01*
X135736180Y-104178697D01*
X135733318Y-104236592D01*
X135731583Y-104310613D01*
X135730702Y-104402723D01*
X135730405Y-104514883D01*
X135588102Y-104514883D01*
X135588414Y-104476866D01*
X135588504Y-104416426D01*
X135587943Y-104316941D01*
X135586190Y-104241414D01*
X135583144Y-104188014D01*
X135578700Y-104154910D01*
X135573016Y-104140516D01*
X135555046Y-104135198D01*
X135515850Y-104130912D01*
X135459996Y-104127660D01*
X135392050Y-104125441D01*
X135316580Y-104124255D01*
X135238152Y-104124102D01*
X135161334Y-104124983D01*
X135090692Y-104126897D01*
X135030793Y-104129844D01*
X134986205Y-104133825D01*
X134961494Y-104138839D01*
X134958667Y-104140516D01*
X134948445Y-104164339D01*
X134943876Y-104202438D01*
X134944959Y-104243901D01*
X134951694Y-104277819D01*
X134958667Y-104290232D01*
X134977339Y-104297223D01*
X135018012Y-104302070D01*
X135081957Y-104304870D01*
X135165171Y-104305720D01*
X135356187Y-104305720D01*
X135356187Y-104525130D01*
X135178368Y-104525130D01*
X135104931Y-104524754D01*
X135048544Y-104525622D01*
X135006966Y-104530724D01*
X134977960Y-104543054D01*
X134959287Y-104565602D01*
X134948709Y-104601363D01*
X134943987Y-104653326D01*
X134942882Y-104724486D01*
X134710905Y-104724486D01*
X134710955Y-104638546D01*
X134711031Y-104502573D01*
X134710781Y-104388566D01*
X134709900Y-104294604D01*
X134708079Y-104218765D01*
X134705011Y-104159127D01*
X134700390Y-104113767D01*
X134693908Y-104080762D01*
X134685259Y-104058192D01*
X134674134Y-104044134D01*
X134660228Y-104036665D01*
X134643232Y-104033864D01*
X134622839Y-104033808D01*
X134598744Y-104034575D01*
X134588831Y-104034683D01*
X134543184Y-104037112D01*
X134508262Y-104043471D01*
X134494033Y-104050171D01*
X134490550Y-104066288D01*
X134487473Y-104105379D01*
X134484800Y-104164607D01*
X134482532Y-104241137D01*
X134480670Y-104332131D01*
X134479212Y-104434755D01*
X134478159Y-104546171D01*
X134477511Y-104663543D01*
X134477268Y-104784036D01*
X134194306Y-104784036D01*
X134194547Y-104708527D01*
X134194602Y-104623474D01*
X134194429Y-104500679D01*
X134193848Y-104401228D01*
X134192760Y-104322655D01*
X134191070Y-104262493D01*
X134188679Y-104218275D01*
X134185493Y-104187535D01*
X134181413Y-104167805D01*
X134176343Y-104156619D01*
X134176283Y-104156535D01*
X134169560Y-104149045D01*
X134159647Y-104143215D01*
X134143520Y-104138838D01*
X134118157Y-104135706D01*
X134080536Y-104133614D01*
X134027635Y-104132353D01*
X133956432Y-104131717D01*
X133863904Y-104131499D01*
X133810431Y-104131482D01*
X133701409Y-104131741D01*
X133615535Y-104132602D01*
X133550147Y-104134194D01*
X133502586Y-104136645D01*
X133470189Y-104140082D01*
X133450297Y-104144632D01*
X133441555Y-104149195D01*
X133435826Y-104156086D01*
X133431211Y-104167977D01*
X133427594Y-104187452D01*
X133424855Y-104217093D01*
X133422877Y-104259480D01*
X133421541Y-104317197D01*
X133420731Y-104392824D01*
X133420327Y-104488944D01*
X133420212Y-104608139D01*
X133420212Y-104616134D01*
X117687183Y-104616134D01*
X117687183Y-102718669D01*
X117825928Y-102813425D01*
G37*
G36*
X133736421Y-96432752D02*
G01*
X133777026Y-96433499D01*
X133798164Y-96437833D01*
X133806176Y-96448894D01*
X133807407Y-96467890D01*
X133808327Y-96491952D01*
X133814246Y-96492270D01*
X133826252Y-96476122D01*
X133863685Y-96443459D01*
X133916247Y-96424967D01*
X133975889Y-96423466D01*
X133976437Y-96423538D01*
X134017021Y-96432193D01*
X134048733Y-96447886D01*
X134072606Y-96473468D01*
X134089672Y-96511790D01*
X134100963Y-96565702D01*
X134107513Y-96638053D01*
X134110354Y-96731693D01*
X134110710Y-96794134D01*
X134109398Y-96900184D01*
X134104991Y-96983604D01*
X134096787Y-97047468D01*
X134084078Y-97094849D01*
X134066161Y-97128820D01*
X134042332Y-97152454D01*
X134026286Y-97162245D01*
X133974820Y-97178388D01*
X133917923Y-97180341D01*
X133866180Y-97168543D01*
X133841414Y-97154580D01*
X133807407Y-97127830D01*
X133807407Y-97426553D01*
X133665435Y-97426553D01*
X133665435Y-96797734D01*
X133813860Y-96797734D01*
X133814621Y-96886292D01*
X133817515Y-96952151D01*
X133823458Y-96998396D01*
X133833363Y-97028114D01*
X133848148Y-97044389D01*
X133868727Y-97050306D01*
X133888636Y-97049792D01*
X133926935Y-97036663D01*
X133945667Y-97013545D01*
X133952081Y-96987482D01*
X133956988Y-96941798D01*
X133960328Y-96882643D01*
X133962038Y-96816169D01*
X133962059Y-96748526D01*
X133960327Y-96685866D01*
X133956783Y-96634340D01*
X133951364Y-96600098D01*
X133949835Y-96595284D01*
X133926479Y-96563911D01*
X133892706Y-96552181D01*
X133856592Y-96561727D01*
X133841725Y-96573403D01*
X133831021Y-96585696D01*
X133823470Y-96600566D01*
X133818526Y-96622411D01*
X133815642Y-96655626D01*
X133814273Y-96704608D01*
X133813873Y-96773754D01*
X133813860Y-96797734D01*
X133665435Y-96797734D01*
X133665435Y-96432752D01*
X133736421Y-96432752D01*
G37*
G36*
X134112069Y-101156766D02*
G01*
X134141646Y-101170415D01*
X134183664Y-101192824D01*
X134221202Y-101214392D01*
X134331012Y-101274349D01*
X134453608Y-101331630D01*
X134591469Y-101387152D01*
X134747071Y-101441833D01*
X134922891Y-101496588D01*
X135121408Y-101552334D01*
X135169043Y-101564998D01*
X135346575Y-101613433D01*
X135500012Y-101659179D01*
X135630825Y-101703106D01*
X135740484Y-101746084D01*
X135830462Y-101788981D01*
X135902228Y-101832667D01*
X135957255Y-101878011D01*
X135997013Y-101925882D01*
X136022974Y-101977149D01*
X136036608Y-102032682D01*
X136039633Y-102079348D01*
X136027751Y-102197433D01*
X135992839Y-102304820D01*
X135935816Y-102400445D01*
X135857599Y-102483242D01*
X135759105Y-102552149D01*
X135641253Y-102606102D01*
X135564544Y-102630082D01*
X135496601Y-102643501D01*
X135410438Y-102653598D01*
X135313461Y-102660144D01*
X135213076Y-102662908D01*
X135116690Y-102661663D01*
X135031710Y-102656179D01*
X134975445Y-102648303D01*
X134850879Y-102616465D01*
X134747278Y-102572905D01*
X134661913Y-102516140D01*
X134592053Y-102444686D01*
X134585727Y-102436561D01*
X134544103Y-102366685D01*
X134515308Y-102281562D01*
X134498222Y-102177538D01*
X134495112Y-102140654D01*
X134487813Y-102034175D01*
X133703633Y-102034175D01*
X133743253Y-101966416D01*
X133808780Y-101847653D01*
X133875416Y-101714782D01*
X133939611Y-101575654D01*
X133997814Y-101438121D01*
X134046475Y-101310036D01*
X134065686Y-101253331D01*
X134080501Y-101208194D01*
X134092515Y-101173100D01*
X134099364Y-101154934D01*
X134099713Y-101154244D01*
X134112069Y-101156766D01*
G37*
G36*
X132312672Y-96755415D02*
G01*
X132315642Y-96667750D01*
X132320325Y-96601458D01*
X132327797Y-96552108D01*
X132339132Y-96515267D01*
X132355406Y-96486504D01*
X132377695Y-96461388D01*
X132385846Y-96453782D01*
X132424863Y-96432779D01*
X132476631Y-96422903D01*
X132530138Y-96425193D01*
X132567183Y-96436673D01*
X132607102Y-96456587D01*
X132607102Y-96174622D01*
X132761980Y-96174622D01*
X132761980Y-97168423D01*
X132690994Y-97168423D01*
X132650082Y-97167365D01*
X132628768Y-97162627D01*
X132620874Y-97151862D01*
X132620008Y-97141463D01*
X132618685Y-97125415D01*
X132611010Y-97124166D01*
X132591425Y-97138619D01*
X132580299Y-97147916D01*
X132528964Y-97175775D01*
X132470817Y-97183357D01*
X132414075Y-97170744D01*
X132374845Y-97145837D01*
X132351465Y-97117858D01*
X132333926Y-97079959D01*
X132321737Y-97029066D01*
X132314410Y-96962106D01*
X132311454Y-96876006D01*
X132312125Y-96797716D01*
X132465130Y-96797716D01*
X132465654Y-96878024D01*
X132467465Y-96936576D01*
X132470922Y-96977411D01*
X132476385Y-97004567D01*
X132484214Y-97022086D01*
X132485222Y-97023580D01*
X132515359Y-97047722D01*
X132551720Y-97049015D01*
X132583499Y-97030904D01*
X132592445Y-97020334D01*
X132598822Y-97004671D01*
X132603054Y-96979831D01*
X132605562Y-96941732D01*
X132606770Y-96886290D01*
X132607101Y-96809421D01*
X132607102Y-96802830D01*
X132606726Y-96722802D01*
X132605351Y-96664562D01*
X132602602Y-96624092D01*
X132598109Y-96597376D01*
X132591499Y-96580397D01*
X132585742Y-96572513D01*
X132552964Y-96551448D01*
X132517419Y-96555521D01*
X132490943Y-96574724D01*
X132481002Y-96586687D01*
X132473985Y-96602325D01*
X132469391Y-96625971D01*
X132466719Y-96661957D01*
X132465467Y-96714618D01*
X132465133Y-96788285D01*
X132465130Y-96797716D01*
X132312125Y-96797716D01*
X132312382Y-96767694D01*
X132312672Y-96755415D01*
G37*
G36*
X131226662Y-96822204D02*
G01*
X131234406Y-96809186D01*
X131266539Y-96778292D01*
X131315445Y-96752208D01*
X131372097Y-96734852D01*
X131417067Y-96729885D01*
X131472509Y-96729602D01*
X131468693Y-96643830D01*
X131464500Y-96592445D01*
X131456582Y-96561231D01*
X131443474Y-96544649D01*
X131442290Y-96543871D01*
X131412747Y-96537571D01*
X131387059Y-96552637D01*
X131371651Y-96584752D01*
X131370447Y-96592159D01*
X131366588Y-96611069D01*
X131356523Y-96621299D01*
X131333872Y-96625507D01*
X131292255Y-96626348D01*
X131288345Y-96626350D01*
X131210327Y-96626350D01*
X131218887Y-96577950D01*
X131242074Y-96512577D01*
X131284467Y-96463422D01*
X131344035Y-96432037D01*
X131418743Y-96419971D01*
X131426157Y-96419886D01*
X131498836Y-96429381D01*
X131557271Y-96456725D01*
X131598091Y-96500201D01*
X131603601Y-96510191D01*
X131610887Y-96527669D01*
X131616446Y-96549502D01*
X131620502Y-96579183D01*
X131623279Y-96620207D01*
X131625002Y-96676065D01*
X131625895Y-96750251D01*
X131626183Y-96846258D01*
X131626187Y-96861893D01*
X131626208Y-97168423D01*
X131555222Y-97168423D01*
X131512903Y-97166824D01*
X131491005Y-97161026D01*
X131484277Y-97149529D01*
X131484236Y-97148126D01*
X131480926Y-97136935D01*
X131467528Y-97141790D01*
X131450229Y-97154580D01*
X131410242Y-97174742D01*
X131355361Y-97181318D01*
X131352438Y-97181329D01*
X131308415Y-97178345D01*
X131277864Y-97166503D01*
X131252341Y-97145018D01*
X131218839Y-97094955D01*
X131199124Y-97030233D01*
X131193593Y-96958262D01*
X131194018Y-96954885D01*
X131342264Y-96954885D01*
X131345115Y-96996005D01*
X131352385Y-97027273D01*
X131357752Y-97036777D01*
X131388123Y-97051561D01*
X131423993Y-97049599D01*
X131453534Y-97032451D01*
X131460133Y-97023257D01*
X131468808Y-96994641D01*
X131474897Y-96951261D01*
X131476720Y-96916778D01*
X131477783Y-96839307D01*
X131434987Y-96841303D01*
X131387663Y-96851473D01*
X131357945Y-96878231D01*
X131343953Y-96923880D01*
X131342264Y-96954885D01*
X131194018Y-96954885D01*
X131202640Y-96886449D01*
X131226662Y-96822204D01*
G37*
G36*
X125583279Y-96222117D02*
G01*
X125593595Y-96226819D01*
X125640103Y-96259042D01*
X125672191Y-96305551D01*
X125691891Y-96370108D01*
X125698831Y-96421457D01*
X125705707Y-96497285D01*
X125547244Y-96497285D01*
X125547244Y-96439205D01*
X125539294Y-96388088D01*
X125518147Y-96352521D01*
X125487858Y-96335213D01*
X125452482Y-96338867D01*
X125424632Y-96357385D01*
X125420415Y-96373928D01*
X125416579Y-96413614D01*
X125413261Y-96473773D01*
X125410598Y-96551735D01*
X125408726Y-96644832D01*
X125408339Y-96675370D01*
X125407464Y-96782555D01*
X125407827Y-96866771D01*
X125409940Y-96930855D01*
X125414314Y-96977640D01*
X125421459Y-97009962D01*
X125431889Y-97030655D01*
X125446112Y-97042555D01*
X125464641Y-97048495D01*
X125475921Y-97050145D01*
X125512108Y-97045796D01*
X125535103Y-97021793D01*
X125545994Y-96976554D01*
X125547244Y-96946546D01*
X125547244Y-96884480D01*
X125702122Y-96884480D01*
X125702122Y-96952731D01*
X125693688Y-97020042D01*
X125670693Y-97082206D01*
X125636603Y-97131918D01*
X125605323Y-97156919D01*
X125545412Y-97178566D01*
X125474913Y-97186717D01*
X125416063Y-97181857D01*
X125348881Y-97158167D01*
X125299884Y-97116161D01*
X125278356Y-97080300D01*
X125271644Y-97062211D01*
X125266454Y-97038958D01*
X125262600Y-97007259D01*
X125259898Y-96963830D01*
X125258165Y-96905391D01*
X125257214Y-96828657D01*
X125256864Y-96730347D01*
X125256848Y-96697336D01*
X125256977Y-96594482D01*
X125257516Y-96514038D01*
X125258693Y-96452598D01*
X125260733Y-96406758D01*
X125263864Y-96373115D01*
X125268312Y-96348265D01*
X125274306Y-96328803D01*
X125282070Y-96311327D01*
X125282661Y-96310140D01*
X125321601Y-96259363D01*
X125376828Y-96223646D01*
X125442646Y-96204516D01*
X125513361Y-96203497D01*
X125583279Y-96222117D01*
G37*
G36*
X133962285Y-104912325D02*
G01*
X133652529Y-104912325D01*
X133652529Y-104318626D01*
X133962285Y-104318626D01*
X133962285Y-104912325D01*
G37*
G36*
X133075567Y-96567207D02*
G01*
X133077149Y-96489662D01*
X133079182Y-96431079D01*
X133081950Y-96388033D01*
X133085736Y-96357099D01*
X133090822Y-96334851D01*
X133097493Y-96317864D01*
X133104002Y-96306022D01*
X133144931Y-96255767D01*
X133197862Y-96223993D01*
X133266692Y-96208830D01*
X133310506Y-96206888D01*
X133387371Y-96213180D01*
X133445560Y-96233480D01*
X133489319Y-96269923D01*
X133515752Y-96310140D01*
X133524405Y-96328370D01*
X133531082Y-96348300D01*
X133536096Y-96373548D01*
X133539760Y-96407732D01*
X133542386Y-96454471D01*
X133544289Y-96517383D01*
X133545781Y-96600086D01*
X133546698Y-96667736D01*
X133547672Y-96779028D01*
X133547183Y-96867861D01*
X133544813Y-96937564D01*
X133540143Y-96991472D01*
X133532753Y-97032914D01*
X133522225Y-97065223D01*
X133508141Y-97091731D01*
X133490436Y-97115349D01*
X133441876Y-97154335D01*
X133377648Y-97178700D01*
X133304290Y-97186981D01*
X133228342Y-97177716D01*
X133220602Y-97175699D01*
X133157182Y-97147973D01*
X133112770Y-97103638D01*
X133084871Y-97040176D01*
X133084276Y-97037996D01*
X133079366Y-97004558D01*
X133075881Y-96947003D01*
X133073869Y-96866990D01*
X133073372Y-96766179D01*
X133073982Y-96688947D01*
X133226614Y-96688947D01*
X133226882Y-96795264D01*
X133228116Y-96878567D01*
X133230962Y-96941653D01*
X133236066Y-96987318D01*
X133244074Y-97018359D01*
X133255631Y-97037573D01*
X133271383Y-97047758D01*
X133291977Y-97051709D01*
X133310506Y-97052264D01*
X133351632Y-97043969D01*
X133374307Y-97023580D01*
X133380915Y-97010404D01*
X133385946Y-96990029D01*
X133389597Y-96959215D01*
X133392068Y-96914724D01*
X133393557Y-96853315D01*
X133394264Y-96771752D01*
X133394399Y-96695894D01*
X133394221Y-96599152D01*
X133393535Y-96524885D01*
X133392108Y-96469758D01*
X133389708Y-96430434D01*
X133386103Y-96403576D01*
X133381063Y-96385849D01*
X133374355Y-96373917D01*
X133371812Y-96370771D01*
X133334615Y-96341452D01*
X133295993Y-96337906D01*
X133260908Y-96356024D01*
X133226614Y-96383000D01*
X133226614Y-96688947D01*
X133073982Y-96688947D01*
X133074154Y-96667140D01*
X133075567Y-96567207D01*
G37*
G36*
X117450092Y-96226496D02*
G01*
X117293553Y-96414503D01*
X117160691Y-96612210D01*
X117050736Y-96821026D01*
X116962916Y-97042362D01*
X116912704Y-97211261D01*
X116860627Y-97462038D01*
X116831623Y-97720932D01*
X116826014Y-97983868D01*
X116836796Y-98175130D01*
X116846104Y-98284282D01*
X116852175Y-98371345D01*
X116854841Y-98439860D01*
X116853933Y-98493369D01*
X116849284Y-98535411D01*
X116840726Y-98569528D01*
X116828091Y-98599262D01*
X116815653Y-98621115D01*
X116767357Y-98681101D01*
X116708341Y-98726333D01*
X116643754Y-98754600D01*
X116578750Y-98763688D01*
X116518479Y-98751388D01*
X116515365Y-98750029D01*
X116478655Y-98723601D01*
X116448863Y-98678128D01*
X116444625Y-98669195D01*
X116434684Y-98645627D01*
X116427402Y-98621820D01*
X116422385Y-98593392D01*
X116419238Y-98555963D01*
X116417568Y-98505153D01*
X116416982Y-98436583D01*
X116417039Y-98362275D01*
X116425392Y-98115816D01*
X116449687Y-97885370D01*
X116490832Y-97665968D01*
X116549734Y-97452638D01*
X116617281Y-97265222D01*
X116711878Y-97062122D01*
X116831880Y-96863412D01*
X116977245Y-96669147D01*
X117147930Y-96479379D01*
X117343895Y-96294163D01*
X117416147Y-96232343D01*
X117538758Y-96129944D01*
X117450092Y-96226496D01*
G37*
G36*
X127274949Y-96771548D02*
G01*
X127254753Y-96862883D01*
X127236088Y-96947073D01*
X127219764Y-97020481D01*
X127206591Y-97079470D01*
X127197380Y-97120402D01*
X127193005Y-97139383D01*
X127186889Y-97154903D01*
X127174007Y-97163635D01*
X127148165Y-97167488D01*
X127103169Y-97168374D01*
X127099005Y-97168374D01*
X127012132Y-97168326D01*
X126933614Y-96803766D01*
X126855096Y-96439205D01*
X126931884Y-96435324D01*
X126973531Y-96434028D01*
X127003382Y-96434619D01*
X127013657Y-96436428D01*
X127017024Y-96450104D01*
X127023586Y-96485471D01*
X127032693Y-96538697D01*
X127043695Y-96605948D01*
X127055940Y-96683391D01*
X127059733Y-96707870D01*
X127072095Y-96786984D01*
X127083262Y-96856463D01*
X127092617Y-96912628D01*
X127099543Y-96951796D01*
X127103421Y-96970286D01*
X127103913Y-96971239D01*
X127106981Y-96958126D01*
X127113441Y-96923933D01*
X127122504Y-96873053D01*
X127133380Y-96809880D01*
X127140395Y-96768210D01*
X127153082Y-96693161D01*
X127165488Y-96621378D01*
X127176477Y-96559341D01*
X127184908Y-96513529D01*
X127187447Y-96500511D01*
X127201107Y-96432752D01*
X127349767Y-96432752D01*
X127274949Y-96771548D01*
G37*
G36*
X140392467Y-96426272D02*
G01*
X140448605Y-96447866D01*
X140492837Y-96484991D01*
X140509089Y-96510191D01*
X140524032Y-96553921D01*
X140531486Y-96602798D01*
X140531675Y-96610217D01*
X140531695Y-96665069D01*
X140389724Y-96665069D01*
X140389724Y-96621477D01*
X140381277Y-96578479D01*
X140357062Y-96554656D01*
X140322675Y-96551147D01*
X140303123Y-96557868D01*
X140294607Y-96575697D01*
X140292925Y-96606333D01*
X140295339Y-96637939D01*
X140306160Y-96661193D01*
X140330756Y-96684772D01*
X140351004Y-96700215D01*
X140420887Y-96753345D01*
X140471846Y-96796829D01*
X140506776Y-96834818D01*
X140528570Y-96871462D01*
X140540123Y-96910909D01*
X140544328Y-96957311D01*
X140544602Y-96977839D01*
X140535125Y-97053999D01*
X140506832Y-97112514D01*
X140459929Y-97153186D01*
X140394625Y-97175817D01*
X140331846Y-97180824D01*
X140282134Y-97177648D01*
X140236835Y-97170013D01*
X140214872Y-97163186D01*
X140168552Y-97130117D01*
X140137832Y-97077582D01*
X140122284Y-97005941D01*
X140115076Y-96936106D01*
X140273565Y-96936106D01*
X140273565Y-96980357D01*
X140280833Y-97019637D01*
X140299202Y-97050558D01*
X140323524Y-97064942D01*
X140326962Y-97065171D01*
X140362943Y-97054068D01*
X140384820Y-97023652D01*
X140389724Y-96992883D01*
X140386259Y-96952389D01*
X140372944Y-96920518D01*
X140345399Y-96890855D01*
X140299246Y-96856987D01*
X140295015Y-96854166D01*
X140233225Y-96807526D01*
X140182976Y-96758524D01*
X140148715Y-96711954D01*
X140136642Y-96683424D01*
X140132062Y-96634269D01*
X140137899Y-96577932D01*
X140152211Y-96526371D01*
X140166585Y-96499037D01*
X140211481Y-96456591D01*
X140268018Y-96430443D01*
X140330309Y-96420400D01*
X140392467Y-96426272D01*
G37*
G36*
X134215046Y-96605567D02*
G01*
X134220209Y-96567978D01*
X134222171Y-96560517D01*
X134253287Y-96501977D01*
X134300348Y-96455607D01*
X134346660Y-96431553D01*
X134400011Y-96422287D01*
X134460032Y-96424316D01*
X134515928Y-96436425D01*
X134553719Y-96454886D01*
X134589373Y-96486862D01*
X134614432Y-96524298D01*
X134630779Y-96572430D01*
X134640296Y-96636491D01*
X134644411Y-96707015D01*
X134649185Y-96845760D01*
X134349480Y-96845760D01*
X134349480Y-96916139D01*
X134355559Y-96986342D01*
X134373781Y-97033868D01*
X134404119Y-97058655D01*
X134410292Y-97060557D01*
X134445798Y-97057856D01*
X134474679Y-97035438D01*
X134490321Y-96999398D01*
X134491451Y-96985732D01*
X134492610Y-96965462D01*
X134500127Y-96954488D01*
X134520061Y-96949958D01*
X134558473Y-96949020D01*
X134569475Y-96949012D01*
X134647499Y-96949012D01*
X134639134Y-96997412D01*
X134617612Y-97072549D01*
X134582981Y-97128011D01*
X134543077Y-97158723D01*
X134492377Y-97174382D01*
X134429278Y-97180603D01*
X134365061Y-97177313D01*
X134311005Y-97164439D01*
X134301565Y-97160298D01*
X134270176Y-97140703D01*
X134246364Y-97114614D01*
X134229180Y-97078572D01*
X134217673Y-97029120D01*
X134210893Y-96962800D01*
X134207892Y-96876154D01*
X134207508Y-96817798D01*
X134208433Y-96735077D01*
X134210198Y-96686003D01*
X134349453Y-96686003D01*
X134356985Y-96713743D01*
X134379778Y-96726015D01*
X134421858Y-96727475D01*
X134430001Y-96727055D01*
X134497905Y-96723149D01*
X134494952Y-96653816D01*
X134489024Y-96599777D01*
X134475144Y-96567014D01*
X134450738Y-96551560D01*
X134426919Y-96548911D01*
X134391049Y-96556811D01*
X134367763Y-96582669D01*
X134354384Y-96629723D01*
X134353156Y-96638135D01*
X134349453Y-96686003D01*
X134210198Y-96686003D01*
X134211033Y-96662800D01*
X134215046Y-96605567D01*
G37*
G36*
X128324401Y-96755415D02*
G01*
X128327040Y-96666772D01*
X128331534Y-96599712D01*
X128339094Y-96550017D01*
X128350929Y-96513463D01*
X128368251Y-96485832D01*
X128392270Y-96462901D01*
X128412488Y-96448217D01*
X128449385Y-96428175D01*
X128487240Y-96421739D01*
X128519097Y-96423267D01*
X128561624Y-96431488D01*
X128596655Y-96445483D01*
X128605947Y-96451987D01*
X128625130Y-96467039D01*
X128634769Y-96464058D01*
X128639464Y-96453869D01*
X128652945Y-96440073D01*
X128683151Y-96433686D01*
X128711518Y-96432752D01*
X128775469Y-96432752D01*
X128771443Y-96855440D01*
X128770241Y-96971991D01*
X128768970Y-97065665D01*
X128767445Y-97139396D01*
X128765480Y-97196122D01*
X128762891Y-97238777D01*
X128759494Y-97270296D01*
X128755103Y-97293615D01*
X128749533Y-97311671D01*
X128742601Y-97327397D01*
X128741604Y-97329395D01*
X128716049Y-97367339D01*
X128684647Y-97397880D01*
X128676633Y-97403167D01*
X128629339Y-97420927D01*
X128568522Y-97431286D01*
X128505693Y-97433128D01*
X128452364Y-97425339D01*
X128451208Y-97424998D01*
X128413317Y-97409702D01*
X128382958Y-97391065D01*
X128381667Y-97389961D01*
X128355092Y-97355817D01*
X128333273Y-97309911D01*
X128322444Y-97265941D01*
X128322143Y-97259183D01*
X128324861Y-97244548D01*
X128336965Y-97236640D01*
X128364377Y-97233454D01*
X128399582Y-97232955D01*
X128443202Y-97234054D01*
X128466769Y-97238493D01*
X128475993Y-97247984D01*
X128477021Y-97256187D01*
X128488013Y-97288939D01*
X128518575Y-97307400D01*
X128543403Y-97310394D01*
X128580585Y-97300085D01*
X128605080Y-97268647D01*
X128617322Y-97215316D01*
X128618992Y-97177521D01*
X128618992Y-97102017D01*
X128584985Y-97128767D01*
X128545328Y-97148836D01*
X128490919Y-97155495D01*
X128486896Y-97155516D01*
X128443875Y-97152834D01*
X128413622Y-97141378D01*
X128383355Y-97116034D01*
X128380089Y-97112792D01*
X128359823Y-97089754D01*
X128344643Y-97064111D01*
X128333956Y-97032048D01*
X128327166Y-96989751D01*
X128323680Y-96933404D01*
X128322902Y-96859193D01*
X128323887Y-96788530D01*
X128477021Y-96788530D01*
X128477917Y-96858822D01*
X128480389Y-96920469D01*
X128484112Y-96968299D01*
X128488762Y-96997137D01*
X128490381Y-97001487D01*
X128514002Y-97021982D01*
X128547524Y-97026288D01*
X128581022Y-97014746D01*
X128598900Y-96997767D01*
X128607365Y-96980120D01*
X128613203Y-96952682D01*
X128616815Y-96911246D01*
X128618603Y-96851604D01*
X128618992Y-96787681D01*
X128618376Y-96710374D01*
X128616260Y-96654650D01*
X128612242Y-96616303D01*
X128605919Y-96591125D01*
X128598900Y-96577596D01*
X128569548Y-96553160D01*
X128535309Y-96553143D01*
X128502834Y-96574724D01*
X128492678Y-96587002D01*
X128485582Y-96603084D01*
X128481008Y-96627433D01*
X128478416Y-96664515D01*
X128477267Y-96718794D01*
X128477021Y-96788530D01*
X128323887Y-96788530D01*
X128324238Y-96763302D01*
X128324401Y-96755415D01*
G37*
G36*
X121470565Y-95619224D02*
G01*
X121681036Y-95655981D01*
X121893092Y-95715944D01*
X122105043Y-95798054D01*
X122315195Y-95901247D01*
X122521856Y-96024464D01*
X122723335Y-96166642D01*
X122917938Y-96326721D01*
X123103973Y-96503638D01*
X123279749Y-96696333D01*
X123443572Y-96903743D01*
X123531912Y-97029570D01*
X123580051Y-97105603D01*
X123630978Y-97193542D01*
X123681793Y-97287671D01*
X123729592Y-97382274D01*
X123771472Y-97471636D01*
X123804533Y-97550040D01*
X123823598Y-97604017D01*
X123826686Y-97617141D01*
X123823426Y-97625561D01*
X123809451Y-97630321D01*
X123780392Y-97632464D01*
X123731882Y-97633035D01*
X123702079Y-97633057D01*
X123636428Y-97631939D01*
X123593894Y-97628374D01*
X123571865Y-97622052D01*
X123567437Y-97616924D01*
X123527848Y-97478203D01*
X123487451Y-97358296D01*
X123443453Y-97250281D01*
X123393061Y-97147233D01*
X123339956Y-97053053D01*
X123218122Y-96870489D01*
X123075197Y-96694937D01*
X122915808Y-96531208D01*
X122744583Y-96384117D01*
X122591655Y-96274767D01*
X122423128Y-96174900D01*
X122256371Y-96094819D01*
X122092926Y-96034672D01*
X121934336Y-95994605D01*
X121782144Y-95974766D01*
X121637892Y-95975302D01*
X121503124Y-95996360D01*
X121379382Y-96038087D01*
X121268209Y-96100630D01*
X121213667Y-96143354D01*
X121153755Y-96204076D01*
X121101669Y-96276130D01*
X121053860Y-96364947D01*
X121023059Y-96435063D01*
X120970711Y-96534437D01*
X120903634Y-96612826D01*
X120821206Y-96670664D01*
X120722807Y-96708390D01*
X120609482Y-96726326D01*
X120507013Y-96724113D01*
X120418057Y-96703035D01*
X120344485Y-96664212D01*
X120288165Y-96608764D01*
X120250968Y-96537809D01*
X120242075Y-96506299D01*
X120233986Y-96463165D01*
X120232235Y-96426427D01*
X120237211Y-96385516D01*
X120248417Y-96333611D01*
X120265228Y-96276635D01*
X120290242Y-96208781D01*
X120319032Y-96141685D01*
X120330224Y-96118448D01*
X120363353Y-96056774D01*
X120397500Y-96004766D01*
X120438850Y-95954096D01*
X120493592Y-95896438D01*
X120499739Y-95890268D01*
X120608070Y-95795508D01*
X120724392Y-95721126D01*
X120851371Y-95666131D01*
X120991674Y-95629535D01*
X121147966Y-95610346D01*
X121263373Y-95606736D01*
X121470565Y-95619224D01*
G37*
G36*
X116263166Y-97843863D02*
G01*
X116264710Y-97859180D01*
X116263166Y-97861072D01*
X116255493Y-97859300D01*
X116254561Y-97852468D01*
X116259283Y-97841844D01*
X116263166Y-97843863D01*
G37*
G36*
X128248405Y-96424683D02*
G01*
X128254588Y-96442475D01*
X128257250Y-96478143D01*
X128257610Y-96510191D01*
X128256941Y-96557617D01*
X128253852Y-96584782D01*
X128246721Y-96597228D01*
X128233925Y-96600496D01*
X128231156Y-96600537D01*
X128189280Y-96609999D01*
X128146692Y-96633613D01*
X128115817Y-96664224D01*
X128113264Y-96668429D01*
X128106128Y-96695138D01*
X128100222Y-96746937D01*
X128095604Y-96823130D01*
X128092328Y-96923022D01*
X128092107Y-96932879D01*
X128086995Y-97168423D01*
X127947854Y-97168423D01*
X127947854Y-96432752D01*
X128089825Y-96432752D01*
X128090234Y-96481152D01*
X128090643Y-96529551D01*
X128117387Y-96493697D01*
X128151175Y-96459682D01*
X128192561Y-96433101D01*
X128231340Y-96420225D01*
X128237609Y-96419846D01*
X128248405Y-96424683D01*
G37*
G36*
X127878753Y-99444989D02*
G01*
X128009999Y-99470656D01*
X128122197Y-99513738D01*
X128215362Y-99574249D01*
X128289510Y-99652203D01*
X128344657Y-99747615D01*
X128380819Y-99860500D01*
X128398012Y-99990871D01*
X128399582Y-100048944D01*
X128399582Y-100136919D01*
X128799683Y-100136919D01*
X128898346Y-100137074D01*
X128988169Y-100137512D01*
X129066050Y-100138195D01*
X129128883Y-100139084D01*
X129173567Y-100140141D01*
X129196997Y-100141326D01*
X129199785Y-100141915D01*
X129194120Y-100154724D01*
X129178906Y-100185022D01*
X129156809Y-100227558D01*
X129142382Y-100254847D01*
X129028369Y-100492841D01*
X128930009Y-100746855D01*
X128848860Y-101011278D01*
X128786485Y-101280504D01*
X128744444Y-101548922D01*
X128727158Y-101747005D01*
X128718371Y-101905110D01*
X127937316Y-101905110D01*
X127889594Y-101992229D01*
X127801985Y-102132368D01*
X127701043Y-102258998D01*
X127589781Y-102369219D01*
X127471212Y-102460133D01*
X127348350Y-102528841D01*
X127318310Y-102541805D01*
X127209965Y-102577790D01*
X127090020Y-102604002D01*
X126967321Y-102619239D01*
X126850715Y-102622295D01*
X126773362Y-102615980D01*
X126639611Y-102586385D01*
X126523139Y-102537882D01*
X126424217Y-102470668D01*
X126343114Y-102384940D01*
X126280102Y-102280895D01*
X126264428Y-102245310D01*
X126224429Y-102117017D01*
X126200639Y-101969676D01*
X126192989Y-101804270D01*
X126201412Y-101621787D01*
X126225841Y-101423210D01*
X126266207Y-101209527D01*
X126322442Y-100981721D01*
X126360617Y-100849086D01*
X126441282Y-100608509D01*
X126531620Y-100388878D01*
X126631249Y-100190744D01*
X126739787Y-100014662D01*
X126856854Y-99861184D01*
X126982070Y-99730863D01*
X127115051Y-99624251D01*
X127255418Y-99541902D01*
X127264838Y-99537379D01*
X127376247Y-99490794D01*
X127484188Y-99459806D01*
X127597744Y-99442442D01*
X127725999Y-99436730D01*
X127728443Y-99436722D01*
X127878753Y-99444989D01*
G37*
G36*
X130254966Y-96428068D02*
G01*
X130317125Y-96452943D01*
X130362563Y-96496869D01*
X130390086Y-96558887D01*
X130397081Y-96599575D01*
X130403374Y-96665069D01*
X130324293Y-96665069D01*
X130280860Y-96664567D01*
X130257220Y-96661149D01*
X130247352Y-96651947D01*
X130245235Y-96634095D01*
X130245212Y-96627405D01*
X130242588Y-96592502D01*
X130237378Y-96569326D01*
X130219289Y-96552879D01*
X130189901Y-96549013D01*
X130160153Y-96557204D01*
X130142414Y-96573875D01*
X130137610Y-96595598D01*
X130133634Y-96638545D01*
X130130751Y-96698133D01*
X130129226Y-96769778D01*
X130129053Y-96804762D01*
X130129357Y-96883596D01*
X130130562Y-96940903D01*
X130133110Y-96980967D01*
X130137442Y-97008071D01*
X130143999Y-97026499D01*
X130153222Y-97040532D01*
X130153350Y-97040691D01*
X130173963Y-97060858D01*
X130194494Y-97062020D01*
X130210656Y-97055656D01*
X130232946Y-97040243D01*
X130243991Y-97014834D01*
X130247665Y-96985134D01*
X130251665Y-96929653D01*
X130325877Y-96925782D01*
X130400090Y-96921911D01*
X130400018Y-96964501D01*
X130389664Y-97042093D01*
X130360006Y-97106989D01*
X130335021Y-97136671D01*
X130310904Y-97157003D01*
X130285926Y-97169001D01*
X130251632Y-97175338D01*
X130202647Y-97178555D01*
X130148510Y-97179395D01*
X130111102Y-97175134D01*
X130081596Y-97164298D01*
X130066971Y-97155906D01*
X130038856Y-97135464D01*
X130017482Y-97111524D01*
X130001959Y-97080435D01*
X129991401Y-97038543D01*
X129984919Y-96982196D01*
X129981626Y-96907740D01*
X129980635Y-96811522D01*
X129980628Y-96800588D01*
X129980878Y-96716215D01*
X129981889Y-96653420D01*
X129984059Y-96607970D01*
X129987783Y-96575631D01*
X129993456Y-96552172D01*
X130001474Y-96533358D01*
X130006441Y-96524447D01*
X130046999Y-96471680D01*
X130096938Y-96439514D01*
X130162162Y-96424451D01*
X130177279Y-96423200D01*
X130254966Y-96428068D01*
G37*
G36*
X125787394Y-96661593D02*
G01*
X125789761Y-96616405D01*
X125793816Y-96583613D01*
X125799987Y-96558746D01*
X125808703Y-96537332D01*
X125812575Y-96529551D01*
X125851903Y-96478387D01*
X125905352Y-96443326D01*
X125967507Y-96424393D01*
X126032950Y-96421608D01*
X126096268Y-96434993D01*
X126152043Y-96464572D01*
X126194860Y-96510365D01*
X126204700Y-96527948D01*
X126214623Y-96550967D01*
X126221747Y-96575723D01*
X126226525Y-96606861D01*
X126229406Y-96649024D01*
X126230841Y-96706856D01*
X126231281Y-96785001D01*
X126231289Y-96801928D01*
X126231039Y-96883428D01*
X126229963Y-96943803D01*
X126227569Y-96987735D01*
X126223364Y-97019908D01*
X126216858Y-97045009D01*
X126207558Y-97067719D01*
X126202249Y-97078569D01*
X126166979Y-97129400D01*
X126119705Y-97161998D01*
X126056525Y-97178388D01*
X126004107Y-97181309D01*
X125949198Y-97178215D01*
X125909040Y-97167231D01*
X125882193Y-97152246D01*
X125850109Y-97128474D01*
X125826006Y-97103604D01*
X125808765Y-97073617D01*
X125797266Y-97034496D01*
X125790389Y-96982222D01*
X125787016Y-96912776D01*
X125786027Y-96822139D01*
X125786014Y-96807041D01*
X125786045Y-96797563D01*
X125940893Y-96797563D01*
X125941445Y-96885014D01*
X125943706Y-96949955D01*
X125948580Y-96995681D01*
X125956971Y-97025482D01*
X125969784Y-97042651D01*
X125987923Y-97050480D01*
X126010877Y-97052264D01*
X126042651Y-97046794D01*
X126060923Y-97036777D01*
X126067439Y-97019624D01*
X126072106Y-96982048D01*
X126075032Y-96922448D01*
X126076325Y-96839222D01*
X126076411Y-96805381D01*
X126076035Y-96723082D01*
X126074692Y-96662812D01*
X126072057Y-96620800D01*
X126067806Y-96593269D01*
X126061616Y-96576445D01*
X126056129Y-96569192D01*
X126021958Y-96550561D01*
X125983370Y-96556780D01*
X125965946Y-96567230D01*
X125956619Y-96575908D01*
X125949934Y-96588822D01*
X125945456Y-96609964D01*
X125942750Y-96643325D01*
X125941384Y-96692898D01*
X125940921Y-96762674D01*
X125940893Y-96797563D01*
X125786045Y-96797563D01*
X125786288Y-96723647D01*
X125787394Y-96661593D01*
G37*
G36*
X122280374Y-96600781D02*
G01*
X122374928Y-96628489D01*
X122473305Y-96674046D01*
X122573613Y-96738017D01*
X122673960Y-96820969D01*
X122684552Y-96830928D01*
X122776466Y-96928722D01*
X122851495Y-97029920D01*
X122908995Y-97132141D01*
X122948323Y-97233006D01*
X122968834Y-97330132D01*
X122969885Y-97421139D01*
X122950832Y-97503646D01*
X122911032Y-97575273D01*
X122891858Y-97597564D01*
X122857862Y-97633057D01*
X122650546Y-97632823D01*
X122572896Y-97632600D01*
X122516069Y-97631670D01*
X122475076Y-97629335D01*
X122444926Y-97624900D01*
X122420630Y-97617667D01*
X122397198Y-97606941D01*
X122373504Y-97594156D01*
X122250480Y-97514135D01*
X122140030Y-97417943D01*
X122045402Y-97309347D01*
X121969846Y-97192112D01*
X121916610Y-97070004D01*
X121913774Y-97061278D01*
X121888737Y-96953801D01*
X121884559Y-96859081D01*
X121899347Y-96777685D01*
X121931209Y-96710178D01*
X121978252Y-96657126D01*
X122038583Y-96619095D01*
X122110309Y-96596650D01*
X122191537Y-96590356D01*
X122280374Y-96600781D01*
G37*
G36*
X128890311Y-96588614D02*
G01*
X128904277Y-96538849D01*
X128924607Y-96500902D01*
X128952040Y-96471332D01*
X128960324Y-96464670D01*
X129021120Y-96433567D01*
X129092051Y-96421807D01*
X129165433Y-96430056D01*
X129204417Y-96443523D01*
X129247557Y-96468234D01*
X129278561Y-96501035D01*
X129299098Y-96545971D01*
X129310831Y-96607083D01*
X129315428Y-96688414D01*
X129315660Y-96713469D01*
X129315943Y-96845760D01*
X129032000Y-96845760D01*
X129032000Y-96934106D01*
X129033683Y-96986078D01*
X129039686Y-97019047D01*
X129051439Y-97039663D01*
X129055603Y-97043811D01*
X129090458Y-97062240D01*
X129123412Y-97058228D01*
X129148751Y-97034863D01*
X129160760Y-96995235D01*
X129161065Y-96986810D01*
X129162108Y-96966057D01*
X129169247Y-96954758D01*
X129188503Y-96950038D01*
X129225892Y-96949024D01*
X129240204Y-96949012D01*
X129319342Y-96949012D01*
X129312621Y-96999121D01*
X129293213Y-97073782D01*
X129257403Y-97128545D01*
X129204713Y-97163829D01*
X129134663Y-97180053D01*
X129104304Y-97181309D01*
X129037801Y-97175880D01*
X128985181Y-97160814D01*
X128980813Y-97158723D01*
X128947695Y-97138872D01*
X128922811Y-97114727D01*
X128904917Y-97082423D01*
X128892768Y-97038095D01*
X128885119Y-96977876D01*
X128880726Y-96897900D01*
X128879228Y-96843240D01*
X128878523Y-96737368D01*
X128878843Y-96729602D01*
X129032000Y-96729602D01*
X129173972Y-96729602D01*
X129173972Y-96664221D01*
X129170393Y-96607304D01*
X129158110Y-96571634D01*
X129134808Y-96553445D01*
X129102986Y-96548911D01*
X129067948Y-96554725D01*
X129045989Y-96574676D01*
X129034792Y-96612529D01*
X129032000Y-96664221D01*
X129032000Y-96729602D01*
X128878843Y-96729602D01*
X128881972Y-96653640D01*
X128890311Y-96588614D01*
G37*
G36*
X121752732Y-95548657D02*
G01*
X121746279Y-95555110D01*
X121739825Y-95548657D01*
X121746279Y-95542203D01*
X121752732Y-95548657D01*
G37*
G36*
X116280374Y-97820201D02*
G01*
X116273921Y-97826655D01*
X116267468Y-97820201D01*
X116273921Y-97813748D01*
X116280374Y-97820201D01*
G37*
G36*
X140980660Y-96610756D02*
G01*
X140989356Y-96559788D01*
X141002797Y-96521562D01*
X141022240Y-96491727D01*
X141048945Y-96465932D01*
X141063127Y-96454886D01*
X141111478Y-96432291D01*
X141173158Y-96422382D01*
X141238631Y-96425859D01*
X141286445Y-96438412D01*
X141330505Y-96459983D01*
X141362546Y-96488724D01*
X141384475Y-96528769D01*
X141398202Y-96584254D01*
X141405635Y-96659315D01*
X141407434Y-96700562D01*
X141412124Y-96845760D01*
X141125395Y-96845760D01*
X141125395Y-96934106D01*
X141127078Y-96986078D01*
X141133080Y-97019047D01*
X141144833Y-97039663D01*
X141148997Y-97043811D01*
X141183852Y-97062240D01*
X141216806Y-97058228D01*
X141242145Y-97034863D01*
X141254154Y-96995235D01*
X141254460Y-96986810D01*
X141255503Y-96966052D01*
X141262648Y-96954753D01*
X141281914Y-96950036D01*
X141319321Y-96949024D01*
X141333548Y-96949012D01*
X141412637Y-96949012D01*
X141403876Y-97003799D01*
X141382493Y-97077248D01*
X141344758Y-97130810D01*
X141290231Y-97164850D01*
X141218468Y-97179732D01*
X141189927Y-97180491D01*
X141143366Y-97177694D01*
X141102703Y-97171431D01*
X141086682Y-97166830D01*
X141048753Y-97147074D01*
X141019475Y-97119722D01*
X140997983Y-97081759D01*
X140983412Y-97030167D01*
X140974897Y-96961929D01*
X140971575Y-96874030D01*
X140972469Y-96768321D01*
X140973759Y-96729602D01*
X141125395Y-96729602D01*
X141267366Y-96729602D01*
X141267366Y-96672130D01*
X141262251Y-96610854D01*
X141246122Y-96571449D01*
X141217804Y-96551919D01*
X141194763Y-96548911D01*
X141160396Y-96555009D01*
X141138851Y-96575730D01*
X141127941Y-96614710D01*
X141125395Y-96664221D01*
X141125395Y-96729602D01*
X140973759Y-96729602D01*
X140975451Y-96678817D01*
X140980660Y-96610756D01*
G37*
G36*
X116894313Y-101256242D02*
G01*
X116951786Y-101281400D01*
X117010813Y-101326434D01*
X117074225Y-101392910D01*
X117122995Y-101453378D01*
X117273419Y-101641475D01*
X117432225Y-101825299D01*
X117567815Y-101971105D01*
X117687659Y-102095179D01*
X117684194Y-102401093D01*
X117680730Y-102707007D01*
X117551665Y-102601218D01*
X117470828Y-102531587D01*
X117379067Y-102446907D01*
X117281500Y-102352353D01*
X117183246Y-102253099D01*
X117089422Y-102154320D01*
X117005148Y-102061189D01*
X116935540Y-101978881D01*
X116933300Y-101976096D01*
X116870651Y-101895675D01*
X116809819Y-101813281D01*
X116753220Y-101732563D01*
X116703272Y-101657172D01*
X116662391Y-101590756D01*
X116632995Y-101536966D01*
X116617501Y-101499451D01*
X116617399Y-101499075D01*
X116612111Y-101433812D01*
X116629840Y-101372426D01*
X116667794Y-101319229D01*
X116723181Y-101278532D01*
X116772707Y-101259277D01*
X116835564Y-101249391D01*
X116894313Y-101256242D01*
G37*
G36*
X136587424Y-96865052D02*
G01*
X136601960Y-96832854D01*
X136640395Y-96788945D01*
X136695562Y-96754332D01*
X136758819Y-96733550D01*
X136798587Y-96729602D01*
X136854521Y-96729602D01*
X136850705Y-96643830D01*
X136846512Y-96592445D01*
X136838594Y-96561231D01*
X136825486Y-96544649D01*
X136824302Y-96543871D01*
X136794760Y-96537571D01*
X136769072Y-96552637D01*
X136753663Y-96584752D01*
X136752459Y-96592159D01*
X136748611Y-96611046D01*
X136738576Y-96621277D01*
X136715985Y-96625496D01*
X136674469Y-96626348D01*
X136670105Y-96626350D01*
X136591834Y-96626350D01*
X136599639Y-96578253D01*
X136621446Y-96512905D01*
X136662126Y-96464559D01*
X136720380Y-96434113D01*
X136794905Y-96422469D01*
X136824163Y-96422977D01*
X136895336Y-96434032D01*
X136946586Y-96459085D01*
X136980669Y-96499806D01*
X136991358Y-96524307D01*
X136997378Y-96556216D01*
X137002027Y-96613346D01*
X137005278Y-96695141D01*
X137007105Y-96801042D01*
X137007491Y-96868347D01*
X137008220Y-97168423D01*
X136937234Y-97168423D01*
X136894915Y-97166824D01*
X136873017Y-97161026D01*
X136866289Y-97149529D01*
X136866248Y-97148126D01*
X136862938Y-97136935D01*
X136849540Y-97141790D01*
X136832241Y-97154580D01*
X136790889Y-97173929D01*
X136738483Y-97181358D01*
X136686506Y-97176454D01*
X136649636Y-97161186D01*
X136610866Y-97120566D01*
X136586932Y-97062358D01*
X136577024Y-96984415D01*
X136576669Y-96968372D01*
X136577199Y-96953189D01*
X136721101Y-96953189D01*
X136724011Y-96993519D01*
X136732389Y-97024971D01*
X136736728Y-97032356D01*
X136764187Y-97049022D01*
X136798882Y-97051231D01*
X136829252Y-97039549D01*
X136839981Y-97027300D01*
X136846897Y-97001822D01*
X136851725Y-96960053D01*
X136853342Y-96915981D01*
X136853342Y-96829627D01*
X136811440Y-96838007D01*
X136762568Y-96856559D01*
X136733298Y-96890254D01*
X136721525Y-96941778D01*
X136721101Y-96953189D01*
X136577199Y-96953189D01*
X136578756Y-96908561D01*
X136587424Y-96865052D01*
G37*
G36*
X136182203Y-96488878D02*
G01*
X136214049Y-96458961D01*
X136253621Y-96436176D01*
X136306027Y-96423988D01*
X136359976Y-96423800D01*
X136401614Y-96435613D01*
X136424073Y-96449404D01*
X136441759Y-96466642D01*
X136455231Y-96490365D01*
X136465050Y-96523608D01*
X136471774Y-96569407D01*
X136475964Y-96630799D01*
X136478181Y-96710819D01*
X136478983Y-96812504D01*
X136479033Y-96855440D01*
X136479053Y-97168423D01*
X136324175Y-97168423D01*
X136324175Y-96878948D01*
X136323942Y-96782934D01*
X136323103Y-96709497D01*
X136321446Y-96655403D01*
X136318759Y-96617420D01*
X136314830Y-96592314D01*
X136309448Y-96576852D01*
X136303893Y-96569192D01*
X136269719Y-96550561D01*
X136231119Y-96556778D01*
X136213710Y-96567210D01*
X136205578Y-96574708D01*
X136199338Y-96586006D01*
X136194677Y-96604434D01*
X136191284Y-96633316D01*
X136188849Y-96675982D01*
X136187061Y-96735757D01*
X136185607Y-96815969D01*
X136184744Y-96876966D01*
X136180831Y-97168423D01*
X136027325Y-97168423D01*
X136027325Y-96174622D01*
X136182203Y-96174622D01*
X136182203Y-96488878D01*
G37*
G36*
X138843407Y-105309268D02*
G01*
X138901363Y-105329988D01*
X138950783Y-105367544D01*
X138987348Y-105420071D01*
X139006742Y-105485707D01*
X139008728Y-105516608D01*
X138996996Y-105578050D01*
X138965035Y-105630552D01*
X138917693Y-105671285D01*
X138859820Y-105697419D01*
X138796266Y-105706123D01*
X138731880Y-105694569D01*
X138715372Y-105687790D01*
X138658526Y-105648684D01*
X138620421Y-105596166D01*
X138601934Y-105535453D01*
X138603938Y-105471766D01*
X138627311Y-105410322D01*
X138661504Y-105366756D01*
X138719159Y-105325789D01*
X138781233Y-105307247D01*
X138843407Y-105309268D01*
G37*
G36*
X116306187Y-97755669D02*
G01*
X116299734Y-97762122D01*
X116293281Y-97755669D01*
X116299734Y-97749216D01*
X116306187Y-97755669D01*
G37*
G36*
X139402977Y-96213805D02*
G01*
X139459600Y-96235948D01*
X139499180Y-96275406D01*
X139523858Y-96334267D01*
X139535455Y-96410166D01*
X139540997Y-96484378D01*
X139383016Y-96484378D01*
X139383016Y-96422427D01*
X139378102Y-96371335D01*
X139362151Y-96341451D01*
X139333351Y-96329877D01*
X139324937Y-96329500D01*
X139294425Y-96336468D01*
X139276075Y-96359647D01*
X139267963Y-96402455D01*
X139267145Y-96432107D01*
X139268996Y-96472603D01*
X139276540Y-96504422D01*
X139293325Y-96532820D01*
X139322898Y-96563051D01*
X139368806Y-96600371D01*
X139393340Y-96619067D01*
X139456039Y-96670333D01*
X139499145Y-96717285D01*
X139526370Y-96766710D01*
X139541425Y-96825396D01*
X139548023Y-96900130D01*
X139548105Y-96902094D01*
X139549713Y-96961018D01*
X139548002Y-97002099D01*
X139541809Y-97033216D01*
X139529973Y-97062248D01*
X139522312Y-97077078D01*
X139479962Y-97130157D01*
X139421260Y-97167438D01*
X139351788Y-97186735D01*
X139277126Y-97185862D01*
X139255512Y-97181575D01*
X139187336Y-97155576D01*
X139139329Y-97114676D01*
X139110353Y-97057324D01*
X139099264Y-96981970D01*
X139099073Y-96968886D01*
X139099073Y-96897386D01*
X139237688Y-96897386D01*
X139244293Y-96955989D01*
X139257583Y-97008370D01*
X139281495Y-97045268D01*
X139312140Y-97064127D01*
X139345625Y-97062392D01*
X139374563Y-97041568D01*
X139388284Y-97011722D01*
X139395126Y-96966178D01*
X139394996Y-96914142D01*
X139387803Y-96864822D01*
X139376661Y-96833042D01*
X139356700Y-96806319D01*
X139322954Y-96772184D01*
X139283088Y-96738318D01*
X139214555Y-96681387D01*
X139166254Y-96630349D01*
X139135123Y-96579979D01*
X139118100Y-96525050D01*
X139112120Y-96460336D01*
X139111980Y-96446334D01*
X139120310Y-96362732D01*
X139144480Y-96294348D01*
X139183263Y-96244331D01*
X139194114Y-96235762D01*
X139222337Y-96219520D01*
X139255203Y-96210614D01*
X139301380Y-96207163D01*
X139327171Y-96206888D01*
X139402977Y-96213805D01*
G37*
G36*
X127412988Y-96628954D02*
G01*
X127418058Y-96577796D01*
X127426434Y-96540118D01*
X127439255Y-96511810D01*
X127457661Y-96488760D01*
X127482790Y-96466858D01*
X127501097Y-96452909D01*
X127542740Y-96434340D01*
X127598588Y-96425344D01*
X127658876Y-96425921D01*
X127713839Y-96436070D01*
X127750083Y-96452945D01*
X127787938Y-96488823D01*
X127814017Y-96534696D01*
X127829822Y-96594980D01*
X127836852Y-96674088D01*
X127837536Y-96710242D01*
X127838149Y-96839307D01*
X127692950Y-96842956D01*
X127547752Y-96846606D01*
X127547752Y-96930075D01*
X127553890Y-96994917D01*
X127571802Y-97039478D01*
X127600738Y-97062330D01*
X127618738Y-97065171D01*
X127646923Y-97054129D01*
X127672722Y-97027255D01*
X127688199Y-96993925D01*
X127689724Y-96981279D01*
X127691566Y-96962799D01*
X127701306Y-96953177D01*
X127725258Y-96949541D01*
X127760710Y-96949012D01*
X127831695Y-96949012D01*
X127831695Y-96997613D01*
X127820493Y-97060334D01*
X127789874Y-97115638D01*
X127744323Y-97155648D01*
X127740554Y-97157746D01*
X127689992Y-97174411D01*
X127626718Y-97180895D01*
X127561769Y-97177131D01*
X127506179Y-97163054D01*
X127497522Y-97159177D01*
X127454774Y-97124853D01*
X127428969Y-97081603D01*
X127420092Y-97058983D01*
X127413751Y-97034534D01*
X127409637Y-97003865D01*
X127407438Y-96962587D01*
X127406843Y-96906308D01*
X127407543Y-96830638D01*
X127408214Y-96788154D01*
X127409426Y-96729602D01*
X127547752Y-96729602D01*
X127689724Y-96729602D01*
X127689724Y-96654744D01*
X127686368Y-96601001D01*
X127674561Y-96568246D01*
X127651699Y-96552323D01*
X127623342Y-96548911D01*
X127585712Y-96560235D01*
X127560451Y-96593152D01*
X127548567Y-96646077D01*
X127547752Y-96667941D01*
X127547752Y-96729602D01*
X127409426Y-96729602D01*
X127410087Y-96697703D01*
X127412988Y-96628954D01*
G37*
G36*
X138365355Y-96755415D02*
G01*
X138367534Y-96676431D01*
X138370366Y-96618544D01*
X138374441Y-96577037D01*
X138380353Y-96547194D01*
X138388692Y-96524298D01*
X138396108Y-96510191D01*
X138435926Y-96463320D01*
X138487572Y-96433062D01*
X138544696Y-96420864D01*
X138600949Y-96428170D01*
X138646355Y-96453259D01*
X138671633Y-96473630D01*
X138682984Y-96477971D01*
X138685969Y-96467186D01*
X138686065Y-96459713D01*
X138689117Y-96443653D01*
X138702536Y-96435603D01*
X138732720Y-96432917D01*
X138751244Y-96432752D01*
X138816422Y-96432752D01*
X138812549Y-96861893D01*
X138811416Y-96979045D01*
X138810231Y-97073249D01*
X138808813Y-97147371D01*
X138806980Y-97204277D01*
X138804549Y-97246833D01*
X138801338Y-97277903D01*
X138797165Y-97300354D01*
X138791848Y-97317051D01*
X138785204Y-97330859D01*
X138782407Y-97335751D01*
X138754816Y-97371553D01*
X138721944Y-97400192D01*
X138717875Y-97402713D01*
X138671638Y-97420459D01*
X138612416Y-97431219D01*
X138552449Y-97433486D01*
X138511827Y-97428086D01*
X138447792Y-97404039D01*
X138404456Y-97368146D01*
X138377922Y-97316395D01*
X138369374Y-97281355D01*
X138360530Y-97232955D01*
X138436576Y-97232955D01*
X138479478Y-97233808D01*
X138503970Y-97238470D01*
X138517448Y-97250101D01*
X138527237Y-97271675D01*
X138543228Y-97299889D01*
X138568035Y-97309839D01*
X138580770Y-97310394D01*
X138618807Y-97304543D01*
X138643210Y-97284606D01*
X138656263Y-97247007D01*
X138660249Y-97188171D01*
X138660252Y-97185924D01*
X138660252Y-97102017D01*
X138626245Y-97128767D01*
X138578567Y-97151354D01*
X138522028Y-97156433D01*
X138466450Y-97144299D01*
X138429749Y-97122796D01*
X138405720Y-97096751D01*
X138387764Y-97062270D01*
X138375298Y-97016016D01*
X138367735Y-96954654D01*
X138364492Y-96874849D01*
X138364928Y-96784809D01*
X138518281Y-96784809D01*
X138518878Y-96862663D01*
X138520932Y-96918901D01*
X138524837Y-96957699D01*
X138530986Y-96983231D01*
X138538372Y-96997767D01*
X138568510Y-97021909D01*
X138604870Y-97023202D01*
X138636650Y-97005091D01*
X138645859Y-96994143D01*
X138652337Y-96977891D01*
X138656550Y-96952096D01*
X138658962Y-96912515D01*
X138660039Y-96854907D01*
X138660252Y-96789924D01*
X138659830Y-96712503D01*
X138658290Y-96656721D01*
X138655224Y-96618412D01*
X138650222Y-96593413D01*
X138642875Y-96577557D01*
X138638892Y-96572513D01*
X138606114Y-96551448D01*
X138570569Y-96555521D01*
X138544094Y-96574724D01*
X138533847Y-96587138D01*
X138526719Y-96603411D01*
X138522154Y-96628066D01*
X138519597Y-96665622D01*
X138518493Y-96720603D01*
X138518281Y-96784809D01*
X138364928Y-96784809D01*
X138364984Y-96773263D01*
X138365355Y-96755415D01*
G37*
G36*
X119347820Y-95301282D02*
G01*
X119346048Y-95308955D01*
X119339216Y-95309886D01*
X119328592Y-95305164D01*
X119330611Y-95301282D01*
X119345928Y-95299737D01*
X119347820Y-95301282D01*
G37*
G36*
X130485534Y-96667690D02*
G01*
X130487922Y-96624631D01*
X130492258Y-96592864D01*
X130499059Y-96567548D01*
X130508845Y-96543844D01*
X130513797Y-96533553D01*
X130555227Y-96475704D01*
X130611924Y-96438425D01*
X130682942Y-96422201D01*
X130730529Y-96422646D01*
X130797517Y-96435445D01*
X130848602Y-96462720D01*
X130885166Y-96506547D01*
X130908592Y-96569000D01*
X130920264Y-96652154D01*
X130922190Y-96710242D01*
X130922803Y-96839307D01*
X130777605Y-96842956D01*
X130632407Y-96846606D01*
X130632407Y-96930075D01*
X130638544Y-96994917D01*
X130656456Y-97039478D01*
X130685393Y-97062330D01*
X130703393Y-97065171D01*
X130731578Y-97054129D01*
X130757376Y-97027255D01*
X130772853Y-96993925D01*
X130774378Y-96981279D01*
X130776221Y-96962799D01*
X130785960Y-96953177D01*
X130809912Y-96949541D01*
X130845364Y-96949012D01*
X130916350Y-96949012D01*
X130916350Y-96997613D01*
X130905147Y-97060334D01*
X130874528Y-97115638D01*
X130828977Y-97155648D01*
X130825208Y-97157746D01*
X130774647Y-97174411D01*
X130711373Y-97180895D01*
X130646423Y-97177131D01*
X130590834Y-97163054D01*
X130582176Y-97159177D01*
X130540598Y-97126257D01*
X130511739Y-97078805D01*
X130501599Y-97053634D01*
X130494347Y-97026713D01*
X130489497Y-96993207D01*
X130486566Y-96948281D01*
X130485070Y-96887103D01*
X130484531Y-96807041D01*
X130484574Y-96729602D01*
X130632407Y-96729602D01*
X130774378Y-96729602D01*
X130774378Y-96654744D01*
X130771022Y-96601001D01*
X130759216Y-96568246D01*
X130736353Y-96552323D01*
X130707996Y-96548911D01*
X130670366Y-96560235D01*
X130645106Y-96593152D01*
X130633222Y-96646077D01*
X130632407Y-96667941D01*
X130632407Y-96729602D01*
X130484574Y-96729602D01*
X130484576Y-96726880D01*
X130485534Y-96667690D01*
G37*
G36*
X121714012Y-95535750D02*
G01*
X121707559Y-95542203D01*
X121701106Y-95535750D01*
X121707559Y-95529297D01*
X121714012Y-95535750D01*
G37*
G36*
X116293281Y-97781482D02*
G01*
X116286827Y-97787935D01*
X116280374Y-97781482D01*
X116286827Y-97775029D01*
X116293281Y-97781482D01*
G37*
G36*
X132077329Y-99474076D02*
G01*
X132200773Y-99500571D01*
X132310282Y-99541516D01*
X132381533Y-99582236D01*
X132474229Y-99661252D01*
X132549078Y-99758842D01*
X132606083Y-99875016D01*
X132645243Y-100009785D01*
X132666562Y-100163161D01*
X132670041Y-100335154D01*
X132655680Y-100525776D01*
X132623483Y-100735038D01*
X132575502Y-100954662D01*
X132506588Y-101203544D01*
X132427102Y-101434884D01*
X132337675Y-101647452D01*
X132238936Y-101840014D01*
X132131516Y-102011338D01*
X132016043Y-102160191D01*
X131896889Y-102281989D01*
X131759451Y-102389362D01*
X131610326Y-102475589D01*
X131452298Y-102539799D01*
X131288150Y-102581116D01*
X131120666Y-102598667D01*
X130952629Y-102591580D01*
X130922803Y-102587658D01*
X130787900Y-102556977D01*
X130669686Y-102506723D01*
X130568309Y-102437139D01*
X130483916Y-102348470D01*
X130416655Y-102240958D01*
X130366674Y-102114849D01*
X130334122Y-101970385D01*
X130319146Y-101807810D01*
X130321894Y-101627368D01*
X130323723Y-101600408D01*
X130345908Y-101404058D01*
X130383214Y-101198979D01*
X130434009Y-100990143D01*
X130496662Y-100782523D01*
X130569544Y-100581092D01*
X130651022Y-100390822D01*
X130739466Y-100216686D01*
X130822461Y-100079691D01*
X130918963Y-99949730D01*
X131028043Y-99829754D01*
X131145506Y-99723516D01*
X131267158Y-99634768D01*
X131388807Y-99567264D01*
X131401470Y-99561534D01*
X131530139Y-99514415D01*
X131666356Y-99482201D01*
X131805824Y-99464800D01*
X131944248Y-99462122D01*
X132077329Y-99474076D01*
G37*
G36*
X129753576Y-96424642D02*
G01*
X129804225Y-96447229D01*
X129840856Y-96491432D01*
X129846462Y-96502755D01*
X129854155Y-96522247D01*
X129860029Y-96544888D01*
X129864325Y-96574285D01*
X129867288Y-96614046D01*
X129869159Y-96667780D01*
X129870181Y-96739095D01*
X129870598Y-96831600D01*
X129870640Y-96861893D01*
X129870923Y-97168423D01*
X129716045Y-97168423D01*
X129716045Y-96878948D01*
X129715812Y-96782934D01*
X129714973Y-96709497D01*
X129713316Y-96655403D01*
X129710629Y-96617420D01*
X129706700Y-96592314D01*
X129701318Y-96576852D01*
X129695763Y-96569192D01*
X129661874Y-96550698D01*
X129624897Y-96556485D01*
X129599886Y-96574724D01*
X129591437Y-96584600D01*
X129585059Y-96597381D01*
X129580464Y-96616543D01*
X129577361Y-96645559D01*
X129575461Y-96687906D01*
X129574474Y-96747058D01*
X129574112Y-96826491D01*
X129574073Y-96884480D01*
X129574073Y-97168423D01*
X129419195Y-97168423D01*
X129419195Y-96432752D01*
X129491389Y-96432752D01*
X129533688Y-96434080D01*
X129556951Y-96439560D01*
X129567885Y-96451438D01*
X129570509Y-96459236D01*
X129577435Y-96485720D01*
X129606752Y-96458178D01*
X129638968Y-96438372D01*
X129680760Y-96424892D01*
X129688720Y-96423574D01*
X129753576Y-96424642D01*
G37*
G36*
X140815638Y-96432752D02*
G01*
X140918890Y-96432752D01*
X140918890Y-96561817D01*
X140815638Y-96561817D01*
X140815638Y-96798006D01*
X140815943Y-96887472D01*
X140817403Y-96954389D01*
X140820837Y-97002020D01*
X140827066Y-97033627D01*
X140836909Y-97052474D01*
X140851185Y-97061822D01*
X140870714Y-97064934D01*
X140882752Y-97065171D01*
X140906180Y-97067566D01*
X140916434Y-97079714D01*
X140918869Y-97109059D01*
X140918890Y-97115416D01*
X140913609Y-97155860D01*
X140898475Y-97173495D01*
X140866937Y-97179129D01*
X140821664Y-97180307D01*
X140774282Y-97177385D01*
X140736416Y-97170717D01*
X140729363Y-97168333D01*
X140710186Y-97158453D01*
X140695353Y-97144035D01*
X140684233Y-97121848D01*
X140676191Y-97088665D01*
X140670596Y-97041254D01*
X140666813Y-96976387D01*
X140664211Y-96890835D01*
X140662978Y-96829627D01*
X140658152Y-96561817D01*
X140620737Y-96561817D01*
X140598582Y-96560297D01*
X140587534Y-96551301D01*
X140583735Y-96528175D01*
X140583321Y-96497285D01*
X140584167Y-96459083D01*
X140589369Y-96440033D01*
X140602920Y-96433477D01*
X140622041Y-96432752D01*
X140660760Y-96432752D01*
X140660760Y-96252061D01*
X140815638Y-96252061D01*
X140815638Y-96432752D01*
G37*
G36*
X139794236Y-96681460D02*
G01*
X139806920Y-96760554D01*
X139818111Y-96832650D01*
X139827133Y-96893202D01*
X139833309Y-96937663D01*
X139835962Y-96961488D01*
X139835995Y-96962177D01*
X139838472Y-96959586D01*
X139844722Y-96934667D01*
X139854099Y-96890524D01*
X139865961Y-96830260D01*
X139879663Y-96756979D01*
X139886955Y-96716695D01*
X139901492Y-96635567D01*
X139914412Y-96563499D01*
X139925053Y-96504189D01*
X139932752Y-96461331D01*
X139936845Y-96438622D01*
X139937330Y-96435979D01*
X139949423Y-96434257D01*
X139980102Y-96433086D01*
X140013536Y-96432752D01*
X140089076Y-96432752D01*
X139995625Y-96850303D01*
X139965850Y-96981842D01*
X139940399Y-97090413D01*
X139918527Y-97178361D01*
X139899492Y-97248028D01*
X139882552Y-97301758D01*
X139866962Y-97341895D01*
X139851982Y-97370783D01*
X139836866Y-97390765D01*
X139820873Y-97404184D01*
X139819818Y-97404864D01*
X139779991Y-97421086D01*
X139727857Y-97431172D01*
X139676601Y-97433033D01*
X139657280Y-97430619D01*
X139639711Y-97423787D01*
X139631068Y-97407800D01*
X139628349Y-97375474D01*
X139628240Y-97361123D01*
X139629009Y-97323273D01*
X139634353Y-97304524D01*
X139648824Y-97298165D01*
X139671412Y-97297488D01*
X139717187Y-97286914D01*
X139746774Y-97257121D01*
X139757305Y-97211001D01*
X139757305Y-97210885D01*
X139754596Y-97190994D01*
X139747043Y-97149936D01*
X139735511Y-97091718D01*
X139720861Y-97020347D01*
X139703958Y-96939831D01*
X139685663Y-96854177D01*
X139666840Y-96767392D01*
X139648352Y-96683484D01*
X139631062Y-96606459D01*
X139615833Y-96540325D01*
X139603528Y-96489089D01*
X139595010Y-96456759D01*
X139594588Y-96455339D01*
X139593833Y-96443084D01*
X139604295Y-96436245D01*
X139631078Y-96433310D01*
X139670754Y-96432752D01*
X139753728Y-96432752D01*
X139794236Y-96681460D01*
G37*
G36*
X132089653Y-96424642D02*
G01*
X132140302Y-96447229D01*
X132176933Y-96491432D01*
X132182539Y-96502755D01*
X132190233Y-96522247D01*
X132196106Y-96544888D01*
X132200403Y-96574285D01*
X132203365Y-96614046D01*
X132205236Y-96667780D01*
X132206258Y-96739095D01*
X132206675Y-96831600D01*
X132206717Y-96861893D01*
X132207000Y-97168423D01*
X132052122Y-97168423D01*
X132052122Y-96878948D01*
X132051890Y-96782934D01*
X132051050Y-96709497D01*
X132049393Y-96655403D01*
X132046706Y-96617420D01*
X132042777Y-96592314D01*
X132037395Y-96576852D01*
X132031841Y-96569192D01*
X131997666Y-96550561D01*
X131959066Y-96556778D01*
X131941657Y-96567210D01*
X131933526Y-96574708D01*
X131927285Y-96586006D01*
X131922624Y-96604434D01*
X131919232Y-96633316D01*
X131916796Y-96675982D01*
X131915008Y-96735757D01*
X131913554Y-96815969D01*
X131912691Y-96876966D01*
X131908778Y-97168423D01*
X131755273Y-97168423D01*
X131755273Y-96432752D01*
X131827467Y-96432752D01*
X131869765Y-96434080D01*
X131893028Y-96439560D01*
X131903962Y-96451438D01*
X131906586Y-96459236D01*
X131913512Y-96485720D01*
X131942829Y-96458178D01*
X131975045Y-96438372D01*
X132016837Y-96424892D01*
X132024797Y-96423574D01*
X132089653Y-96424642D01*
G37*
G36*
X116932583Y-99131540D02*
G01*
X116982794Y-99155416D01*
X117025369Y-99194692D01*
X117061801Y-99252383D01*
X117089537Y-99321342D01*
X117106026Y-99394422D01*
X117108717Y-99464477D01*
X117104224Y-99495536D01*
X117076245Y-99569221D01*
X117030454Y-99629724D01*
X116971218Y-99674500D01*
X116902906Y-99701001D01*
X116829886Y-99706681D01*
X116765978Y-99692724D01*
X116703527Y-99656875D01*
X116649451Y-99601785D01*
X116607832Y-99533664D01*
X116582753Y-99458724D01*
X116577224Y-99405488D01*
X116588209Y-99325664D01*
X116618677Y-99255566D01*
X116664893Y-99197497D01*
X116723125Y-99153758D01*
X116789640Y-99126651D01*
X116860703Y-99118478D01*
X116932583Y-99131540D01*
G37*
G36*
X126669820Y-96423858D02*
G01*
X126699144Y-96431307D01*
X126729834Y-96451656D01*
X126757798Y-96483214D01*
X126760401Y-96487283D01*
X126768439Y-96502062D01*
X126774614Y-96518991D01*
X126779172Y-96541484D01*
X126782355Y-96572956D01*
X126784408Y-96616821D01*
X126785574Y-96676495D01*
X126786097Y-96755392D01*
X126786220Y-96848987D01*
X126786269Y-97168423D01*
X126644297Y-97168423D01*
X126644297Y-96911906D01*
X126643893Y-96830349D01*
X126642768Y-96755224D01*
X126641053Y-96691273D01*
X126638877Y-96643237D01*
X126636370Y-96615856D01*
X126636139Y-96614598D01*
X126617701Y-96574600D01*
X126584890Y-96553920D01*
X126546875Y-96554367D01*
X126529188Y-96562900D01*
X126515396Y-96580399D01*
X126505060Y-96609609D01*
X126497741Y-96653273D01*
X126493002Y-96714137D01*
X126490402Y-96794945D01*
X126489505Y-96898440D01*
X126489491Y-96913519D01*
X126489419Y-97168423D01*
X126347447Y-97168423D01*
X126347447Y-96821003D01*
X126347165Y-96728020D01*
X126346370Y-96642909D01*
X126345138Y-96569266D01*
X126343546Y-96510687D01*
X126341671Y-96470768D01*
X126339613Y-96453168D01*
X126339003Y-96441812D01*
X126351470Y-96435580D01*
X126381906Y-96433063D01*
X126410599Y-96432752D01*
X126454142Y-96433558D01*
X126477830Y-96437386D01*
X126487605Y-96446353D01*
X126489419Y-96460815D01*
X126489419Y-96488878D01*
X126520882Y-96459320D01*
X126561516Y-96435688D01*
X126614914Y-96423278D01*
X126669820Y-96423858D01*
G37*
G36*
X141854399Y-96432574D02*
G01*
X141886507Y-96453780D01*
X141926836Y-96487715D01*
X141959523Y-96457007D01*
X141997252Y-96435898D01*
X142047812Y-96425420D01*
X142101333Y-96425866D01*
X142147948Y-96437526D01*
X142169394Y-96450820D01*
X142185205Y-96468469D01*
X142197608Y-96491531D01*
X142206995Y-96523080D01*
X142213755Y-96566192D01*
X142218279Y-96623942D01*
X142220956Y-96699404D01*
X142222178Y-96795654D01*
X142222375Y-96868347D01*
X142222447Y-97168423D01*
X142067569Y-97168423D01*
X142067569Y-96878948D01*
X142067337Y-96782934D01*
X142066498Y-96709497D01*
X142064840Y-96655403D01*
X142062153Y-96617420D01*
X142058224Y-96592314D01*
X142052842Y-96576852D01*
X142047288Y-96569192D01*
X142018711Y-96550885D01*
X141988419Y-96555759D01*
X141970011Y-96567215D01*
X141961876Y-96574730D01*
X141955625Y-96586075D01*
X141950942Y-96604579D01*
X141947513Y-96633566D01*
X141945021Y-96676364D01*
X141943152Y-96736299D01*
X141941590Y-96816698D01*
X141940657Y-96876971D01*
X141936357Y-97168423D01*
X141798307Y-97168423D01*
X141794193Y-96879979D01*
X141792413Y-96778597D01*
X141789960Y-96700137D01*
X141786293Y-96641710D01*
X141780875Y-96600426D01*
X141773166Y-96573395D01*
X141762626Y-96557727D01*
X141748717Y-96550532D01*
X141732420Y-96548911D01*
X141706822Y-96557922D01*
X141688828Y-96572513D01*
X141681757Y-96583211D01*
X141676410Y-96599834D01*
X141672558Y-96625732D01*
X141669969Y-96664253D01*
X141668411Y-96718747D01*
X141667655Y-96792563D01*
X141667468Y-96882269D01*
X141667468Y-97168423D01*
X141512590Y-97168423D01*
X141512590Y-96432752D01*
X141581603Y-96432752D01*
X141623570Y-96434388D01*
X141647576Y-96441102D01*
X141661362Y-96455602D01*
X141664622Y-96461792D01*
X141675089Y-96477932D01*
X141679501Y-96475030D01*
X141691942Y-96456421D01*
X141721855Y-96438554D01*
X141761072Y-96425129D01*
X141801355Y-96419846D01*
X141854399Y-96432574D01*
G37*
G36*
X137679358Y-96329500D02*
G01*
X137524480Y-96329500D01*
X137524480Y-96174622D01*
X137679358Y-96174622D01*
X137679358Y-96329500D01*
G37*
G36*
X121664237Y-95510305D02*
G01*
X121675293Y-95516390D01*
X121685624Y-95526617D01*
X121681746Y-95528902D01*
X121660536Y-95522475D01*
X121649480Y-95516390D01*
X121639149Y-95506164D01*
X121643027Y-95503879D01*
X121664237Y-95510305D01*
G37*
G36*
X121778545Y-95561563D02*
G01*
X121772092Y-95568016D01*
X121765638Y-95561563D01*
X121772092Y-95555110D01*
X121778545Y-95561563D01*
G37*
G36*
X136112861Y-99395755D02*
G01*
X136235216Y-99417051D01*
X136336770Y-99452996D01*
X136417986Y-99503939D01*
X136479322Y-99570232D01*
X136521241Y-99652225D01*
X136544201Y-99750269D01*
X136549250Y-99830389D01*
X136549699Y-99930415D01*
X136908025Y-99930415D01*
X137001181Y-99930749D01*
X137085319Y-99931691D01*
X137157161Y-99933154D01*
X137213428Y-99935048D01*
X137250840Y-99937285D01*
X137266120Y-99939777D01*
X137266311Y-99940095D01*
X137263969Y-99956078D01*
X137257675Y-99991629D01*
X137248471Y-100040992D01*
X137240498Y-100082524D01*
X137225338Y-100184045D01*
X137216959Y-100292620D01*
X137215452Y-100400418D01*
X137220911Y-100499608D01*
X137233428Y-100582359D01*
X137234534Y-100587175D01*
X137274016Y-100704204D01*
X137335777Y-100820118D01*
X137416655Y-100929446D01*
X137459125Y-100975730D01*
X137557806Y-101065910D01*
X137671618Y-101150268D01*
X137802128Y-101229540D01*
X137950904Y-101304460D01*
X138119515Y-101375764D01*
X138309529Y-101444185D01*
X138522515Y-101510461D01*
X138711404Y-101562668D01*
X138884149Y-101609416D01*
X139033168Y-101652766D01*
X139160188Y-101693620D01*
X139266936Y-101732878D01*
X139355139Y-101771440D01*
X139426524Y-101810208D01*
X139482817Y-101850082D01*
X139525746Y-101891962D01*
X139557038Y-101936748D01*
X139578419Y-101985342D01*
X139587896Y-102019739D01*
X139593704Y-102094981D01*
X139582506Y-102180456D01*
X139556501Y-102269146D01*
X139517886Y-102354037D01*
X139468860Y-102428112D01*
X139454764Y-102444641D01*
X139374679Y-102515322D01*
X139274238Y-102573994D01*
X139156651Y-102619183D01*
X139025125Y-102649416D01*
X139000933Y-102653057D01*
X138934112Y-102659622D01*
X138852875Y-102663492D01*
X138765374Y-102664674D01*
X138679763Y-102663170D01*
X138604196Y-102658987D01*
X138550700Y-102652799D01*
X138455983Y-102631310D01*
X138363639Y-102600127D01*
X138282701Y-102562606D01*
X138243809Y-102538753D01*
X138169617Y-102473967D01*
X138113205Y-102394442D01*
X138073616Y-102298231D01*
X138049891Y-102183385D01*
X138044815Y-102134200D01*
X138036914Y-102034175D01*
X137624934Y-102034175D01*
X137632189Y-102005135D01*
X137657628Y-101879254D01*
X137673104Y-101748953D01*
X137678384Y-101620916D01*
X137673234Y-101501829D01*
X137657419Y-101398377D01*
X137653906Y-101383810D01*
X137613083Y-101261598D01*
X137554553Y-101146697D01*
X137477520Y-101038583D01*
X137381188Y-100936734D01*
X137264759Y-100840626D01*
X137127438Y-100749737D01*
X136968427Y-100663542D01*
X136786930Y-100581520D01*
X136582151Y-100503146D01*
X136353293Y-100427898D01*
X136099559Y-100355252D01*
X136079459Y-100349882D01*
X135916945Y-100305399D01*
X135777969Y-100264413D01*
X135660626Y-100226076D01*
X135563009Y-100189541D01*
X135483211Y-100153961D01*
X135419327Y-100118488D01*
X135369449Y-100082276D01*
X135331672Y-100044477D01*
X135304853Y-100005613D01*
X135282680Y-99941316D01*
X135279559Y-99865945D01*
X135294250Y-99784388D01*
X135325517Y-99701531D01*
X135372121Y-99622258D01*
X135415440Y-99569113D01*
X135492447Y-99502621D01*
X135585098Y-99451850D01*
X135694961Y-99416290D01*
X135823604Y-99395430D01*
X135969246Y-99388757D01*
X136112861Y-99395755D01*
G37*
G36*
X137454773Y-96435983D02*
G01*
X137459401Y-96471086D01*
X137459947Y-96508542D01*
X137459947Y-96597238D01*
X137410800Y-96605097D01*
X137364222Y-96621425D01*
X137330135Y-96646472D01*
X137319143Y-96659031D01*
X137310984Y-96672574D01*
X137305155Y-96691012D01*
X137301157Y-96718258D01*
X137298490Y-96758223D01*
X137296652Y-96814819D01*
X137295144Y-96891958D01*
X137294607Y-96924206D01*
X137290598Y-97168423D01*
X137137285Y-97168423D01*
X137137285Y-96432752D01*
X137277772Y-96432752D01*
X137281741Y-96487605D01*
X137285710Y-96542457D01*
X137309153Y-96499495D01*
X137339696Y-96462409D01*
X137376498Y-96438189D01*
X137417282Y-96422872D01*
X137442054Y-96421024D01*
X137454773Y-96435983D01*
G37*
G36*
X135781854Y-96212830D02*
G01*
X135836154Y-96231374D01*
X135874747Y-96265667D01*
X135900600Y-96318605D01*
X135916677Y-96393083D01*
X135919172Y-96412440D01*
X135927627Y-96484378D01*
X135769195Y-96484378D01*
X135769195Y-96431904D01*
X135763928Y-96377509D01*
X135747097Y-96344483D01*
X135717159Y-96330402D01*
X135703889Y-96329500D01*
X135672116Y-96335762D01*
X135654272Y-96358723D01*
X135652717Y-96362607D01*
X135639339Y-96427545D01*
X135650751Y-96487905D01*
X135687277Y-96544528D01*
X135741050Y-96592372D01*
X135807612Y-96647116D01*
X135863089Y-96704324D01*
X135903323Y-96759193D01*
X135923022Y-96802463D01*
X135935375Y-96876072D01*
X135934657Y-96953192D01*
X135921965Y-97026285D01*
X135898398Y-97087816D01*
X135876932Y-97118973D01*
X135823907Y-97159144D01*
X135756453Y-97181611D01*
X135679976Y-97185188D01*
X135621212Y-97175097D01*
X135557118Y-97146363D01*
X135510833Y-97099055D01*
X135482545Y-97033464D01*
X135472442Y-96949879D01*
X135472418Y-96945786D01*
X135472346Y-96897386D01*
X135627224Y-96897386D01*
X135627224Y-96955466D01*
X135635296Y-97007381D01*
X135656747Y-97043986D01*
X135687428Y-97062658D01*
X135723190Y-97060774D01*
X135757702Y-97037944D01*
X135772627Y-97019198D01*
X135779955Y-96996127D01*
X135781258Y-96960737D01*
X135779583Y-96926755D01*
X135777951Y-96897605D01*
X135775664Y-96875006D01*
X135770227Y-96855613D01*
X135759145Y-96836079D01*
X135739924Y-96813061D01*
X135710069Y-96783212D01*
X135667086Y-96743187D01*
X135608479Y-96689641D01*
X135590527Y-96673231D01*
X135541449Y-96622347D01*
X135511520Y-96573385D01*
X135496696Y-96517182D01*
X135492924Y-96452112D01*
X135501371Y-96363022D01*
X135527411Y-96292535D01*
X135571223Y-96240198D01*
X135579817Y-96233534D01*
X135606803Y-96218387D01*
X135640681Y-96210176D01*
X135689569Y-96207240D01*
X135708882Y-96207141D01*
X135781854Y-96212830D01*
G37*
G36*
X137679358Y-97168423D02*
G01*
X137524480Y-97168423D01*
X137524480Y-96432752D01*
X137679358Y-96432752D01*
X137679358Y-97168423D01*
G37*
G36*
X119282433Y-95314239D02*
G01*
X119268540Y-95322460D01*
X119230461Y-95337966D01*
X119171106Y-95359770D01*
X118972137Y-95444062D01*
X118788352Y-95548763D01*
X118620714Y-95672737D01*
X118470185Y-95814852D01*
X118337729Y-95973972D01*
X118224308Y-96148964D01*
X118130886Y-96338694D01*
X118058423Y-96542028D01*
X118014532Y-96722134D01*
X117994933Y-96803038D01*
X117970829Y-96864653D01*
X117952542Y-96896097D01*
X117900397Y-96953427D01*
X117833078Y-96997558D01*
X117756637Y-97026769D01*
X117677128Y-97039338D01*
X117600605Y-97033545D01*
X117542219Y-97012786D01*
X117494514Y-96976611D01*
X117465496Y-96927526D01*
X117455020Y-96864253D01*
X117462941Y-96785514D01*
X117489114Y-96690030D01*
X117501658Y-96654826D01*
X117589668Y-96449932D01*
X117694430Y-96262464D01*
X117816608Y-96091882D01*
X117956863Y-95937644D01*
X118115860Y-95799208D01*
X118294259Y-95676034D01*
X118492723Y-95567580D01*
X118711915Y-95473306D01*
X118952498Y-95392669D01*
X119093783Y-95354035D01*
X119177815Y-95333202D01*
X119237188Y-95319619D01*
X119272022Y-95313295D01*
X119282433Y-95314239D01*
G37*
G36*
X138150469Y-96426083D02*
G01*
X138176619Y-96435265D01*
X138198707Y-96447012D01*
X138216170Y-96461841D01*
X138229598Y-96482757D01*
X138239580Y-96512762D01*
X138246703Y-96554861D01*
X138251559Y-96612058D01*
X138254735Y-96687354D01*
X138256820Y-96783756D01*
X138257742Y-96848987D01*
X138261787Y-97168423D01*
X138105273Y-97168423D01*
X138105273Y-96880027D01*
X138105116Y-96785782D01*
X138104475Y-96713978D01*
X138103092Y-96661243D01*
X138100712Y-96624204D01*
X138097076Y-96599491D01*
X138091927Y-96583731D01*
X138085010Y-96573553D01*
X138081670Y-96570271D01*
X138046552Y-96550861D01*
X138011752Y-96557145D01*
X137989114Y-96574724D01*
X137980665Y-96584600D01*
X137974287Y-96597381D01*
X137969691Y-96616543D01*
X137966588Y-96645559D01*
X137964689Y-96687906D01*
X137963702Y-96747058D01*
X137963340Y-96826491D01*
X137963301Y-96884480D01*
X137963301Y-97168423D01*
X137808423Y-97168423D01*
X137808423Y-96432752D01*
X137878539Y-96432752D01*
X137920566Y-96434289D01*
X137943742Y-96440407D01*
X137954923Y-96453371D01*
X137956860Y-96458605D01*
X137965099Y-96476309D01*
X137977223Y-96471909D01*
X137985546Y-96463977D01*
X138032362Y-96433917D01*
X138090446Y-96420819D01*
X138150469Y-96426083D01*
G37*
G36*
X119416655Y-95290527D02*
G01*
X119410201Y-95296980D01*
X119403748Y-95290527D01*
X119410201Y-95284073D01*
X119416655Y-95290527D01*
G37*
%TO.C,RESET*%
X186690000Y-39310000D02*
X189290000Y-39310000D01*
X186690000Y-41970000D02*
X186690000Y-39310000D01*
X184090000Y-41970000D02*
X184090000Y-40640000D01*
X185420000Y-41970000D02*
X184090000Y-41970000D01*
X186690000Y-41970000D02*
X189290000Y-41970000D01*
X189290000Y-41970000D02*
X189290000Y-39310000D01*
%TO.C,Q1*%
X181070000Y-50111000D02*
X179560000Y-50111000D01*
X179560000Y-43140000D02*
X179560000Y-53380000D01*
X176429000Y-43140000D02*
X176429000Y-53380000D01*
X181070000Y-46410000D02*
X179560000Y-46410000D01*
X181070000Y-43140000D02*
X181070000Y-53380000D01*
X181070000Y-43140000D02*
X176429000Y-43140000D01*
X181070000Y-53380000D02*
X176429000Y-53380000D01*
%TO.C,J2*%
X189290000Y-97790000D02*
X186630000Y-97790000D01*
X189290000Y-97790000D02*
X189290000Y-69790000D01*
X186630000Y-97790000D02*
X186630000Y-69790000D01*
X189290000Y-100390000D02*
X187960000Y-100390000D01*
X189290000Y-99060000D02*
X189290000Y-100390000D01*
X189290000Y-69790000D02*
X186630000Y-69790000D01*
%TO.C,D4*%
X171470000Y-51710000D02*
X171470000Y-48620000D01*
X171470000Y-48620170D02*
G75*
G03*
X165920000Y-50165462I-2560000J-1544830D01*
G01*
X165920000Y-50164538D02*
G75*
G03*
X171470000Y-51709830I2990000J-462D01*
G01*
X171410000Y-50165000D02*
G75*
G03*
X171410000Y-50165000I-2500000J0D01*
G01*
%TO.C,Q2*%
X176429000Y-55840000D02*
X176429000Y-66080000D01*
X181070000Y-59110000D02*
X179560000Y-59110000D01*
X181070000Y-66080000D02*
X176429000Y-66080000D01*
X179560000Y-55840000D02*
X179560000Y-66080000D01*
X181070000Y-62811000D02*
X179560000Y-62811000D01*
X181070000Y-55840000D02*
X181070000Y-66080000D01*
X181070000Y-55840000D02*
X176429000Y-55840000D01*
%TO.C,R3*%
X181260000Y-34910000D02*
X179420000Y-34910000D01*
X179420000Y-38750000D02*
X181260000Y-38750000D01*
X181260000Y-38750000D02*
X181260000Y-34910000D01*
X179420000Y-34910000D02*
X179420000Y-38750000D01*
X180340000Y-33960000D02*
X180340000Y-34910000D01*
X180340000Y-39700000D02*
X180340000Y-38750000D01*
%TO.C,R_DIS1*%
X64516000Y-28448000D02*
X112016000Y-28448000D01*
X112016000Y-28448000D02*
X112016000Y-93948000D01*
X112016000Y-93948000D02*
X64516000Y-93948000D01*
X64516000Y-93948000D02*
X64516000Y-28448000D01*
X85266000Y-17448000D02*
X91266000Y-17448000D01*
X91266000Y-17448000D02*
X91266000Y-28448000D01*
X91266000Y-28448000D02*
X85266000Y-28448000D01*
X85266000Y-28448000D02*
X85266000Y-17448000D01*
X85266000Y-93948000D02*
X91266000Y-93948000D01*
X91266000Y-93948000D02*
X91266000Y-104948000D01*
X91266000Y-104948000D02*
X85266000Y-104948000D01*
X85266000Y-104948000D02*
X85266000Y-93948000D01*
%TO.C,J5*%
X73914000Y-98746000D02*
X75244000Y-98746000D01*
X72644000Y-98746000D02*
X70044000Y-98746000D01*
X72644000Y-98746000D02*
X72644000Y-101406000D01*
X72644000Y-101406000D02*
X70044000Y-101406000D01*
X75244000Y-98746000D02*
X75244000Y-100076000D01*
X70044000Y-98746000D02*
X70044000Y-101406000D01*
%TO.C,D5*%
X184130000Y-59415000D02*
X184130000Y-62505000D01*
X189680000Y-60960462D02*
G75*
G03*
X184130000Y-59415170I-2990000J462D01*
G01*
X184130000Y-62504830D02*
G75*
G03*
X189680000Y-60959538I2560000J1544830D01*
G01*
X189190000Y-60960000D02*
G75*
G03*
X189190000Y-60960000I-2500000J0D01*
G01*
%TO.C,R6*%
X162275000Y-61580000D02*
X162275000Y-65420000D01*
X163195000Y-66370000D02*
X163195000Y-65420000D01*
X164115000Y-61580000D02*
X162275000Y-61580000D01*
X162275000Y-65420000D02*
X164115000Y-65420000D01*
X164115000Y-65420000D02*
X164115000Y-61580000D01*
X163195000Y-60630000D02*
X163195000Y-61580000D01*
%TO.C,R2*%
X163195000Y-49200000D02*
X163195000Y-50150000D01*
X164115000Y-53990000D02*
X164115000Y-50150000D01*
X164115000Y-50150000D02*
X162275000Y-50150000D01*
X162275000Y-50150000D02*
X162275000Y-53990000D01*
X163195000Y-54940000D02*
X163195000Y-53990000D01*
X162275000Y-53990000D02*
X164115000Y-53990000D01*
%TO.C,D7*%
X166350000Y-63860000D02*
X166350000Y-66950000D01*
X166350000Y-66949830D02*
G75*
G03*
X171900000Y-65404538I2560000J1544830D01*
G01*
X171900000Y-65405462D02*
G75*
G03*
X166350000Y-63860170I-2990000J462D01*
G01*
X171410000Y-65405000D02*
G75*
G03*
X171410000Y-65405000I-2500000J0D01*
G01*
%TO.C,AC_RELAY*%
X185669000Y-29778000D02*
X184339000Y-29778000D01*
X186939000Y-29778000D02*
X189539000Y-29778000D01*
X184339000Y-29778000D02*
X184339000Y-28448000D01*
X186939000Y-27118000D02*
X189539000Y-27118000D01*
X186939000Y-29778000D02*
X186939000Y-27118000D01*
X189539000Y-29778000D02*
X189539000Y-27118000D01*
%TO.C,D2*%
X171470000Y-44090000D02*
X171470000Y-41000000D01*
X171470000Y-41000170D02*
G75*
G03*
X165920000Y-42545462I-2560000J-1544830D01*
G01*
X165920000Y-42544538D02*
G75*
G03*
X171470000Y-44089830I2990000J-462D01*
G01*
X171410000Y-42545000D02*
G75*
G03*
X171410000Y-42545000I-2500000J0D01*
G01*
%TO.C,PUSH*%
X186685000Y-33595000D02*
X189285000Y-33595000D01*
X189285000Y-36255000D02*
X189285000Y-33595000D01*
X185415000Y-36255000D02*
X184085000Y-36255000D01*
X186685000Y-36255000D02*
X189285000Y-36255000D01*
X184085000Y-36255000D02*
X184085000Y-34925000D01*
X186685000Y-36255000D02*
X186685000Y-33595000D01*
%TO.C,R1*%
X159670000Y-53990000D02*
X159670000Y-50150000D01*
X158750000Y-54940000D02*
X158750000Y-53990000D01*
X158750000Y-49200000D02*
X158750000Y-50150000D01*
X157830000Y-53990000D02*
X159670000Y-53990000D01*
X157830000Y-50150000D02*
X157830000Y-53990000D01*
X159670000Y-50150000D02*
X157830000Y-50150000D01*
%TO.C,R4*%
X159670000Y-61580000D02*
X157830000Y-61580000D01*
X159670000Y-65420000D02*
X159670000Y-61580000D01*
X157830000Y-65420000D02*
X159670000Y-65420000D01*
X157830000Y-61580000D02*
X157830000Y-65420000D01*
X158750000Y-60630000D02*
X158750000Y-61580000D01*
X158750000Y-66370000D02*
X158750000Y-65420000D01*
%TO.C,R7*%
X178720000Y-34910000D02*
X176880000Y-34910000D01*
X176880000Y-38750000D02*
X178720000Y-38750000D01*
X176880000Y-34910000D02*
X176880000Y-38750000D01*
X177800000Y-33960000D02*
X177800000Y-34910000D01*
X177800000Y-39700000D02*
X177800000Y-38750000D01*
X178720000Y-38750000D02*
X178720000Y-34910000D01*
%TD*%
M02*
