%TF.GenerationSoftware,KiCad,Pcbnew,(6.0.5)*%
%TF.CreationDate,2023-02-13T18:16:20+09:00*%
%TF.ProjectId,charge shutdown PCB_v.2,63686172-6765-4207-9368-7574646f776e,rev?*%
%TF.SameCoordinates,Original*%
%TF.FileFunction,Soldermask,Bot*%
%TF.FilePolarity,Negative*%
%FSLAX46Y46*%
G04 Gerber Fmt 4.6, Leading zero omitted, Abs format (unit mm)*
G04 Created by KiCad (PCBNEW (6.0.5)) date 2023-02-13 18:16:20*
%MOMM*%
%LPD*%
G01*
G04 APERTURE LIST*
%ADD10R,1.800000X1.800000*%
%ADD11C,1.800000*%
%ADD12C,3.000000*%
%ADD13O,3.000000X7.000000*%
%ADD14C,2.400000*%
%ADD15R,2.250000X2.250000*%
%ADD16C,2.250000*%
%ADD17R,1.700000X1.700000*%
%ADD18O,1.700000X1.700000*%
%ADD19C,1.950000*%
%ADD20C,1.400000*%
%ADD21O,1.400000X1.400000*%
%ADD22R,2.000000X1.905000*%
%ADD23O,2.000000X1.905000*%
%ADD24O,7.000000X3.000000*%
G04 APERTURE END LIST*
D10*
%TO.C,D1*%
X170180000Y-34925000D03*
D11*
X167640000Y-34925000D03*
%TD*%
D10*
%TO.C,D6*%
X167640000Y-57785000D03*
D11*
X170180000Y-57785000D03*
%TD*%
D12*
%TO.C,R9*%
X120904000Y-50800000D03*
D13*
X120904000Y-81280000D03*
%TD*%
D14*
%TO.C,R8*%
X135128000Y-50295500D03*
D13*
X135128000Y-80775500D03*
%TD*%
D15*
%TO.C,U1*%
X182880000Y-71755000D03*
D16*
X167640000Y-71755000D03*
X157480000Y-71755000D03*
X162560000Y-81915000D03*
X182880000Y-81915000D03*
X182880000Y-76835000D03*
%TD*%
D10*
%TO.C,D3*%
X185420000Y-53340000D03*
D11*
X187960000Y-53340000D03*
%TD*%
D17*
%TO.C,SMPS*%
X187960000Y-45720000D03*
D18*
X185420000Y-45720000D03*
%TD*%
D19*
%TO.C,RELAY_DISCHARGE1*%
X156555000Y-35560000D03*
X140055000Y-35560000D03*
X133055000Y-35560000D03*
D12*
X136555000Y-43060000D03*
D19*
X156555000Y-43060000D03*
%TD*%
D15*
%TO.C,U2*%
X182880000Y-88265000D03*
D16*
X167640000Y-88265000D03*
X157480000Y-88265000D03*
X162560000Y-98425000D03*
X182880000Y-98425000D03*
X182880000Y-93345000D03*
%TD*%
D20*
%TO.C,R5*%
X163195000Y-43180000D03*
D21*
X163195000Y-35560000D03*
%TD*%
D17*
%TO.C,RESET*%
X185420000Y-40640000D03*
D18*
X187960000Y-40640000D03*
%TD*%
D22*
%TO.C,Q1*%
X177800000Y-45720000D03*
D23*
X177800000Y-48260000D03*
X177800000Y-50800000D03*
%TD*%
D17*
%TO.C,J2*%
X187960000Y-99060000D03*
D18*
X187960000Y-96520000D03*
X187960000Y-93980000D03*
X187960000Y-91440000D03*
X187960000Y-88900000D03*
X187960000Y-86360000D03*
X187960000Y-83820000D03*
X187960000Y-81280000D03*
X187960000Y-78740000D03*
X187960000Y-76200000D03*
X187960000Y-73660000D03*
X187960000Y-71120000D03*
%TD*%
D10*
%TO.C,D4*%
X170180000Y-50165000D03*
D11*
X167640000Y-50165000D03*
%TD*%
D22*
%TO.C,Q2*%
X177800000Y-58420000D03*
D23*
X177800000Y-60960000D03*
X177800000Y-63500000D03*
%TD*%
D20*
%TO.C,R3*%
X180340000Y-33020000D03*
D21*
X180340000Y-40640000D03*
%TD*%
D17*
%TO.C,J5*%
X73914000Y-100076000D03*
D18*
X71374000Y-100076000D03*
%TD*%
D10*
%TO.C,D5*%
X185420000Y-60960000D03*
D11*
X187960000Y-60960000D03*
%TD*%
D20*
%TO.C,R6*%
X163195000Y-59690000D03*
D21*
X163195000Y-67310000D03*
%TD*%
D20*
%TO.C,R2*%
X163195000Y-48260000D03*
D21*
X163195000Y-55880000D03*
%TD*%
D24*
%TO.C,J7*%
X168148000Y-106172000D03*
%TD*%
D10*
%TO.C,D7*%
X167640000Y-65405000D03*
D11*
X170180000Y-65405000D03*
%TD*%
D17*
%TO.C,AC_RELAY*%
X185669000Y-28448000D03*
D18*
X188209000Y-28448000D03*
%TD*%
D10*
%TO.C,D2*%
X170180000Y-42545000D03*
D11*
X167640000Y-42545000D03*
%TD*%
D17*
%TO.C,PUSH*%
X185415000Y-34925000D03*
D18*
X187955000Y-34925000D03*
%TD*%
D20*
%TO.C,R1*%
X158750000Y-48260000D03*
D21*
X158750000Y-55880000D03*
%TD*%
D20*
%TO.C,R4*%
X158750000Y-67310000D03*
D21*
X158750000Y-59690000D03*
%TD*%
D20*
%TO.C,R7*%
X177800000Y-40640000D03*
D21*
X177800000Y-33020000D03*
%TD*%
M02*
