M48
; DRILL file {KiCad (6.0.5)} date Mon Feb 13 18:16:28 2023
; FORMAT={-:-/ absolute / metric / decimal}
; #@! TF.CreationDate,2023-02-13T18:16:28+09:00
; #@! TF.GenerationSoftware,Kicad,Pcbnew,(6.0.5)
; #@! TF.FileFunction,Plated,1,2,PTH
FMAT,2
METRIC
; #@! TA.AperFunction,Plated,PTH,ViaDrill
T1C0.400
; #@! TA.AperFunction,Plated,PTH,ComponentDrill
T2C0.700
; #@! TA.AperFunction,Plated,PTH,ComponentDrill
T3C0.900
; #@! TA.AperFunction,Plated,PTH,ComponentDrill
T4C1.000
; #@! TA.AperFunction,Plated,PTH,ComponentDrill
T5C1.100
; #@! TA.AperFunction,Plated,PTH,ComponentDrill
T6C1.200
; #@! TA.AperFunction,Plated,PTH,ComponentDrill
T7C1.300
; #@! TA.AperFunction,Plated,PTH,ComponentDrill
T8C1.500
; #@! TA.AperFunction,Plated,PTH,ComponentDrill
T9C2.000
%
G90
G05
T1
X166.37Y-54.61
X171.704Y-39.624
X173.99Y-72.39
X174.244Y-38.1
X176.657Y-91.567
X179.07Y-66.04
X181.61Y-66.04
X190.5Y-49.53
T2
X158.75Y-48.26
X158.75Y-55.88
X158.75Y-59.69
X158.75Y-67.31
X163.195Y-35.56
X163.195Y-43.18
X163.195Y-48.26
X163.195Y-55.88
X163.195Y-59.69
X163.195Y-67.31
X177.8Y-33.02
X177.8Y-40.64
X180.34Y-33.02
X180.34Y-40.64
T3
X167.64Y-34.925
X167.64Y-42.545
X167.64Y-50.165
X167.64Y-57.785
X167.64Y-65.405
X170.18Y-34.925
X170.18Y-42.545
X170.18Y-50.165
X170.18Y-57.785
X170.18Y-65.405
X185.42Y-53.34
X185.42Y-60.96
X187.96Y-53.34
X187.96Y-60.96
T4
X71.374Y-100.076
X73.914Y-100.076
X185.415Y-34.925
X185.42Y-40.64
X185.42Y-45.72
X185.669Y-28.448
X187.955Y-34.925
X187.96Y-40.64
X187.96Y-45.72
X187.96Y-71.12
X187.96Y-73.66
X187.96Y-76.2
X187.96Y-78.74
X187.96Y-81.28
X187.96Y-83.82
X187.96Y-86.36
X187.96Y-88.9
X187.96Y-91.44
X187.96Y-93.98
X187.96Y-96.52
X187.96Y-99.06
X188.209Y-28.448
T5
X177.8Y-45.72
X177.8Y-48.26
X177.8Y-50.8
X177.8Y-58.42
X177.8Y-60.96
X177.8Y-63.5
T6
X135.128Y-50.295
T7
X133.055Y-35.56
X140.055Y-35.56
X156.555Y-35.56
X156.555Y-43.06
T8
X157.48Y-71.755
X157.48Y-88.265
X162.56Y-81.915
X162.56Y-98.425
X167.64Y-71.755
X167.64Y-88.265
X182.88Y-71.755
X182.88Y-76.835
X182.88Y-81.915
X182.88Y-88.265
X182.88Y-93.345
X182.88Y-98.425
T9
X120.904Y-50.8
X136.555Y-43.06
T7
G00X120.904Y-78.73
M15
G01X120.904Y-83.83
M16
G05
G00X135.128Y-78.275
M15
G01X135.128Y-83.275
M16
G05
G00X165.648Y-106.172
M15
G01X170.648Y-106.172
M16
G05
T0
M30
