%TF.GenerationSoftware,KiCad,Pcbnew,(6.0.5)*%
%TF.CreationDate,2023-02-13T18:16:20+09:00*%
%TF.ProjectId,charge shutdown PCB_v.2,63686172-6765-4207-9368-7574646f776e,rev?*%
%TF.SameCoordinates,Original*%
%TF.FileFunction,Legend,Bot*%
%TF.FilePolarity,Positive*%
%FSLAX46Y46*%
G04 Gerber Fmt 4.6, Leading zero omitted, Abs format (unit mm)*
G04 Created by KiCad (PCBNEW (6.0.5)) date 2023-02-13 18:16:20*
%MOMM*%
%LPD*%
G01*
G04 APERTURE LIST*
%ADD10C,0.300000*%
%ADD11C,0.150000*%
G04 APERTURE END LIST*
D10*
X130152000Y-23538571D02*
X130152000Y-22038571D01*
X130652000Y-23110000D01*
X131152000Y-22038571D01*
X131152000Y-23538571D01*
X132509142Y-23538571D02*
X132509142Y-22752857D01*
X132437714Y-22610000D01*
X132294857Y-22538571D01*
X132009142Y-22538571D01*
X131866285Y-22610000D01*
X132509142Y-23467142D02*
X132366285Y-23538571D01*
X132009142Y-23538571D01*
X131866285Y-23467142D01*
X131794857Y-23324285D01*
X131794857Y-23181428D01*
X131866285Y-23038571D01*
X132009142Y-22967142D01*
X132366285Y-22967142D01*
X132509142Y-22895714D01*
X133866285Y-23538571D02*
X133866285Y-22038571D01*
X133866285Y-23467142D02*
X133723428Y-23538571D01*
X133437714Y-23538571D01*
X133294857Y-23467142D01*
X133223428Y-23395714D01*
X133152000Y-23252857D01*
X133152000Y-22824285D01*
X133223428Y-22681428D01*
X133294857Y-22610000D01*
X133437714Y-22538571D01*
X133723428Y-22538571D01*
X133866285Y-22610000D01*
X135152000Y-23467142D02*
X135009142Y-23538571D01*
X134723428Y-23538571D01*
X134580571Y-23467142D01*
X134509142Y-23324285D01*
X134509142Y-22752857D01*
X134580571Y-22610000D01*
X134723428Y-22538571D01*
X135009142Y-22538571D01*
X135152000Y-22610000D01*
X135223428Y-22752857D01*
X135223428Y-22895714D01*
X134509142Y-23038571D01*
X137009142Y-23538571D02*
X137009142Y-22038571D01*
X137009142Y-22610000D02*
X137152000Y-22538571D01*
X137437714Y-22538571D01*
X137580571Y-22610000D01*
X137652000Y-22681428D01*
X137723428Y-22824285D01*
X137723428Y-23252857D01*
X137652000Y-23395714D01*
X137580571Y-23467142D01*
X137437714Y-23538571D01*
X137152000Y-23538571D01*
X137009142Y-23467142D01*
X138223428Y-22538571D02*
X138580571Y-23538571D01*
X138937714Y-22538571D02*
X138580571Y-23538571D01*
X138437714Y-23895714D01*
X138366285Y-23967142D01*
X138223428Y-24038571D01*
X140652000Y-23538571D02*
X140652000Y-22038571D01*
X141152000Y-23110000D01*
X141652000Y-22038571D01*
X141652000Y-23538571D01*
X142366285Y-23538571D02*
X142366285Y-22038571D01*
X143223428Y-23538571D02*
X142580571Y-22681428D01*
X143223428Y-22038571D02*
X142366285Y-22895714D01*
D11*
%TO.C,U1*%
X160432714Y-81335619D02*
X160432714Y-82335619D01*
X159861285Y-81335619D01*
X159861285Y-82335619D01*
X180779704Y-76535019D02*
X180779704Y-77535019D01*
X180541609Y-77535019D01*
X180398752Y-77487400D01*
X180303514Y-77392161D01*
X180255895Y-77296923D01*
X180208276Y-77106447D01*
X180208276Y-76963590D01*
X180255895Y-76773114D01*
X180303514Y-76677876D01*
X180398752Y-76582638D01*
X180541609Y-76535019D01*
X180779704Y-76535019D01*
X180901933Y-72302619D02*
X180568600Y-71302619D01*
X180235266Y-72302619D01*
X168513000Y-74741019D02*
X168322523Y-74741019D01*
X168227285Y-74693400D01*
X168132047Y-74598161D01*
X168084428Y-74407685D01*
X168084428Y-74074352D01*
X168132047Y-73883876D01*
X168227285Y-73788638D01*
X168322523Y-73741019D01*
X168513000Y-73741019D01*
X168608238Y-73788638D01*
X168703476Y-73883876D01*
X168751095Y-74074352D01*
X168751095Y-74407685D01*
X168703476Y-74598161D01*
X168608238Y-74693400D01*
X168513000Y-74741019D01*
X167655857Y-74741019D02*
X167655857Y-73931495D01*
X167608238Y-73836257D01*
X167560619Y-73788638D01*
X167465380Y-73741019D01*
X167274904Y-73741019D01*
X167179666Y-73788638D01*
X167132047Y-73836257D01*
X167084428Y-73931495D01*
X167084428Y-74741019D01*
X166751095Y-74741019D02*
X166179666Y-74741019D01*
X166465380Y-73741019D02*
X166465380Y-74741019D01*
X180157476Y-81462619D02*
X180633666Y-81462619D01*
X180633666Y-82462619D01*
X158149847Y-73512419D02*
X158721276Y-73512419D01*
X158435561Y-73512419D02*
X158435561Y-74512419D01*
X158530800Y-74369561D01*
X158626038Y-74274323D01*
X158721276Y-74226704D01*
X157768895Y-74417180D02*
X157721276Y-74464800D01*
X157626038Y-74512419D01*
X157387942Y-74512419D01*
X157292704Y-74464800D01*
X157245085Y-74417180D01*
X157197466Y-74321942D01*
X157197466Y-74226704D01*
X157245085Y-74083847D01*
X157816514Y-73512419D01*
X157197466Y-73512419D01*
X156911752Y-74512419D02*
X156578419Y-73512419D01*
X156245085Y-74512419D01*
%TO.C,RELAY_DISCHARGE1*%
X143040514Y-35158419D02*
X143040514Y-36158419D01*
X142469085Y-35158419D01*
X142469085Y-36158419D01*
X141421466Y-35253657D02*
X141469085Y-35206038D01*
X141611942Y-35158419D01*
X141707180Y-35158419D01*
X141850038Y-35206038D01*
X141945276Y-35301276D01*
X141992895Y-35396514D01*
X142040514Y-35586990D01*
X142040514Y-35729847D01*
X141992895Y-35920323D01*
X141945276Y-36015561D01*
X141850038Y-36110800D01*
X141707180Y-36158419D01*
X141611942Y-36158419D01*
X141469085Y-36110800D01*
X141421466Y-36063180D01*
X140993714Y-42822857D02*
X141041333Y-42775238D01*
X141184190Y-42727619D01*
X141279428Y-42727619D01*
X141422285Y-42775238D01*
X141517523Y-42870476D01*
X141565142Y-42965714D01*
X141612761Y-43156190D01*
X141612761Y-43299047D01*
X141565142Y-43489523D01*
X141517523Y-43584761D01*
X141422285Y-43680000D01*
X141279428Y-43727619D01*
X141184190Y-43727619D01*
X141041333Y-43680000D01*
X140993714Y-43632380D01*
X140374666Y-43727619D02*
X140184190Y-43727619D01*
X140088952Y-43680000D01*
X139993714Y-43584761D01*
X139946095Y-43394285D01*
X139946095Y-43060952D01*
X139993714Y-42870476D01*
X140088952Y-42775238D01*
X140184190Y-42727619D01*
X140374666Y-42727619D01*
X140469904Y-42775238D01*
X140565142Y-42870476D01*
X140612761Y-43060952D01*
X140612761Y-43394285D01*
X140565142Y-43584761D01*
X140469904Y-43680000D01*
X140374666Y-43727619D01*
X139517523Y-42727619D02*
X139517523Y-43727619D01*
X139184190Y-43013333D01*
X138850857Y-43727619D01*
X138850857Y-42727619D01*
X135952323Y-35082219D02*
X135952323Y-36082219D01*
X135380895Y-35082219D01*
X135380895Y-36082219D01*
X134714228Y-36082219D02*
X134523752Y-36082219D01*
X134428514Y-36034600D01*
X134333276Y-35939361D01*
X134285657Y-35748885D01*
X134285657Y-35415552D01*
X134333276Y-35225076D01*
X134428514Y-35129838D01*
X134523752Y-35082219D01*
X134714228Y-35082219D01*
X134809466Y-35129838D01*
X134904704Y-35225076D01*
X134952323Y-35415552D01*
X134952323Y-35748885D01*
X134904704Y-35939361D01*
X134809466Y-36034600D01*
X134714228Y-36082219D01*
%TO.C,U2*%
X180779704Y-93045019D02*
X180779704Y-94045019D01*
X180541609Y-94045019D01*
X180398752Y-93997400D01*
X180303514Y-93902161D01*
X180255895Y-93806923D01*
X180208276Y-93616447D01*
X180208276Y-93473590D01*
X180255895Y-93283114D01*
X180303514Y-93187876D01*
X180398752Y-93092638D01*
X180541609Y-93045019D01*
X180779704Y-93045019D01*
X180157476Y-97972619D02*
X180633666Y-97972619D01*
X180633666Y-98972619D01*
X168513000Y-91251019D02*
X168322523Y-91251019D01*
X168227285Y-91203400D01*
X168132047Y-91108161D01*
X168084428Y-90917685D01*
X168084428Y-90584352D01*
X168132047Y-90393876D01*
X168227285Y-90298638D01*
X168322523Y-90251019D01*
X168513000Y-90251019D01*
X168608238Y-90298638D01*
X168703476Y-90393876D01*
X168751095Y-90584352D01*
X168751095Y-90917685D01*
X168703476Y-91108161D01*
X168608238Y-91203400D01*
X168513000Y-91251019D01*
X167655857Y-91251019D02*
X167655857Y-90441495D01*
X167608238Y-90346257D01*
X167560619Y-90298638D01*
X167465380Y-90251019D01*
X167274904Y-90251019D01*
X167179666Y-90298638D01*
X167132047Y-90346257D01*
X167084428Y-90441495D01*
X167084428Y-91251019D01*
X166751095Y-91251019D02*
X166179666Y-91251019D01*
X166465380Y-90251019D02*
X166465380Y-91251019D01*
X160432714Y-97845619D02*
X160432714Y-98845619D01*
X159861285Y-97845619D01*
X159861285Y-98845619D01*
X158149847Y-90022419D02*
X158721276Y-90022419D01*
X158435561Y-90022419D02*
X158435561Y-91022419D01*
X158530800Y-90879561D01*
X158626038Y-90784323D01*
X158721276Y-90736704D01*
X157768895Y-90927180D02*
X157721276Y-90974800D01*
X157626038Y-91022419D01*
X157387942Y-91022419D01*
X157292704Y-90974800D01*
X157245085Y-90927180D01*
X157197466Y-90831942D01*
X157197466Y-90736704D01*
X157245085Y-90593847D01*
X157816514Y-90022419D01*
X157197466Y-90022419D01*
X156911752Y-91022419D02*
X156578419Y-90022419D01*
X156245085Y-91022419D01*
X180901933Y-88812619D02*
X180568600Y-87812619D01*
X180235266Y-88812619D01*
%TD*%
M02*
