%TF.GenerationSoftware,KiCad,Pcbnew,(6.0.5)*%
%TF.CreationDate,2023-02-13T18:16:20+09:00*%
%TF.ProjectId,charge shutdown PCB_v.2,63686172-6765-4207-9368-7574646f776e,rev?*%
%TF.SameCoordinates,Original*%
%TF.FileFunction,Copper,L1,Top*%
%TF.FilePolarity,Positive*%
%FSLAX46Y46*%
G04 Gerber Fmt 4.6, Leading zero omitted, Abs format (unit mm)*
G04 Created by KiCad (PCBNEW (6.0.5)) date 2023-02-13 18:16:20*
%MOMM*%
%LPD*%
G01*
G04 APERTURE LIST*
%TA.AperFunction,ComponentPad*%
%ADD10R,1.800000X1.800000*%
%TD*%
%TA.AperFunction,ComponentPad*%
%ADD11C,1.800000*%
%TD*%
%TA.AperFunction,ComponentPad*%
%ADD12C,3.000000*%
%TD*%
%TA.AperFunction,ComponentPad*%
%ADD13O,3.000000X7.000000*%
%TD*%
%TA.AperFunction,ComponentPad*%
%ADD14C,2.400000*%
%TD*%
%TA.AperFunction,ComponentPad*%
%ADD15R,2.250000X2.250000*%
%TD*%
%TA.AperFunction,ComponentPad*%
%ADD16C,2.250000*%
%TD*%
%TA.AperFunction,ComponentPad*%
%ADD17R,1.700000X1.700000*%
%TD*%
%TA.AperFunction,ComponentPad*%
%ADD18O,1.700000X1.700000*%
%TD*%
%TA.AperFunction,ComponentPad*%
%ADD19C,1.950000*%
%TD*%
%TA.AperFunction,ComponentPad*%
%ADD20C,1.400000*%
%TD*%
%TA.AperFunction,ComponentPad*%
%ADD21O,1.400000X1.400000*%
%TD*%
%TA.AperFunction,ComponentPad*%
%ADD22R,2.000000X1.905000*%
%TD*%
%TA.AperFunction,ComponentPad*%
%ADD23O,2.000000X1.905000*%
%TD*%
%TA.AperFunction,ComponentPad*%
%ADD24O,7.000000X3.000000*%
%TD*%
%TA.AperFunction,ViaPad*%
%ADD25C,0.800000*%
%TD*%
%TA.AperFunction,Conductor*%
%ADD26C,0.250000*%
%TD*%
%TA.AperFunction,Conductor*%
%ADD27C,0.800000*%
%TD*%
%TA.AperFunction,Conductor*%
%ADD28C,1.000000*%
%TD*%
G04 APERTURE END LIST*
D10*
%TO.P,D1,1,K*%
%TO.N,GND_BOX*%
X170180000Y-34925000D03*
D11*
%TO.P,D1,2,A*%
%TO.N,Net-(D1-Pad2)*%
X167640000Y-34925000D03*
%TD*%
D10*
%TO.P,D6,1,K*%
%TO.N,GND_BOX*%
X167640000Y-57785000D03*
D11*
%TO.P,D6,2,A*%
%TO.N,Net-(D6-Pad2)*%
X170180000Y-57785000D03*
%TD*%
D12*
%TO.P,R9,1*%
%TO.N,Net-(J5-Pad2)*%
X120904000Y-50800000D03*
D13*
%TO.P,R9,2*%
%TO.N,unconnected-(R9-Pad2)*%
X120904000Y-81280000D03*
%TD*%
D14*
%TO.P,R8,1*%
%TO.N,Net-(J5-Pad1)*%
X135128000Y-50295500D03*
D13*
%TO.P,R8,2*%
%TO.N,unconnected-(R8-Pad2)*%
X135128000Y-80775500D03*
%TD*%
D15*
%TO.P,U1,1,V*%
%TO.N,CHARGE_POWER*%
X182880000Y-71755000D03*
D16*
%TO.P,U1,2,Out*%
%TO.N,Net-(U1-Pad2)*%
X167640000Y-71755000D03*
%TO.P,U1,4,12V*%
%TO.N,INTERLOCK_{2}*%
X157480000Y-71755000D03*
%TO.P,U1,6,N*%
%TO.N,Net-(R4-Pad1)*%
X162560000Y-81915000D03*
%TO.P,U1,8,L*%
%TO.N,Reset_Button*%
X182880000Y-81915000D03*
%TO.P,U1,9,D*%
%TO.N,Net-(D3-Pad2)*%
X182880000Y-76835000D03*
%TD*%
D10*
%TO.P,D3,1,K*%
%TO.N,Net-(D3-Pad1)*%
X185420000Y-53340000D03*
D11*
%TO.P,D3,2,A*%
%TO.N,Net-(D3-Pad2)*%
X187960000Y-53340000D03*
%TD*%
D17*
%TO.P,SMPS,1,Pin_1*%
%TO.N,CHARGE_POWER*%
X187960000Y-45720000D03*
D18*
%TO.P,SMPS,2,Pin_2*%
%TO.N,GND_BOX*%
X185420000Y-45720000D03*
%TD*%
D19*
%TO.P,RELAY_DISCHARGE1,1,COIL_1*%
%TO.N,AIR+_ACTIVE*%
X156555000Y-35560000D03*
%TO.P,RELAY_DISCHARGE1,2,NC*%
%TO.N,Net-(J5-Pad1)*%
X140055000Y-35560000D03*
%TO.P,RELAY_DISCHARGE1,3,NO*%
%TO.N,unconnected-(RELAY_DISCHARGE1-Pad3)*%
X133055000Y-35560000D03*
D12*
%TO.P,RELAY_DISCHARGE1,4,COM*%
%TO.N,unconnected-(RELAY_DISCHARGE1-Pad4)*%
X136555000Y-43060000D03*
D19*
%TO.P,RELAY_DISCHARGE1,5,COIL_2*%
%TO.N,GND_BOX*%
X156555000Y-43060000D03*
%TD*%
D15*
%TO.P,U2,1,V*%
%TO.N,CHARGE_POWER*%
X182880000Y-88265000D03*
D16*
%TO.P,U2,2,Out*%
%TO.N,AIR+_ACTIVE*%
X167640000Y-88265000D03*
%TO.P,U2,4,12V*%
%TO.N,Net-(U1-Pad2)*%
X157480000Y-88265000D03*
%TO.P,U2,6,N*%
%TO.N,Net-(R6-Pad1)*%
X162560000Y-98425000D03*
%TO.P,U2,8,L*%
%TO.N,Reset_Button*%
X182880000Y-98425000D03*
%TO.P,U2,9,D*%
%TO.N,Net-(D5-Pad2)*%
X182880000Y-93345000D03*
%TD*%
D20*
%TO.P,R5,1*%
%TO.N,CHARGER_SAFETY*%
X163195000Y-43180000D03*
D21*
%TO.P,R5,2*%
%TO.N,Net-(D5-Pad1)*%
X163195000Y-35560000D03*
%TD*%
D17*
%TO.P,RESET,1,Pin_1*%
%TO.N,GND_BOX*%
X185420000Y-40640000D03*
D18*
%TO.P,RESET,2,Pin_2*%
%TO.N,Reset_Button*%
X187960000Y-40640000D03*
%TD*%
D22*
%TO.P,Q1,1,G*%
%TO.N,IMD_FAULT*%
X177800000Y-45720000D03*
D23*
%TO.P,Q1,2,D*%
%TO.N,GND_BOX*%
X177800000Y-48260000D03*
%TO.P,Q1,3,S*%
%TO.N,Net-(D3-Pad1)*%
X177800000Y-50800000D03*
%TD*%
D17*
%TO.P,J2,1,Pin_1*%
%TO.N,CHARGE_POWER*%
X187960000Y-99060000D03*
D18*
%TO.P,J2,2,Pin_2*%
%TO.N,GND_BOX*%
X187960000Y-96520000D03*
%TO.P,J2,3,Pin_3*%
%TO.N,CHARGE_POWER*%
X187960000Y-93980000D03*
%TO.P,J2,4,Pin_4*%
%TO.N,CHARGER_SAFETY*%
X187960000Y-91440000D03*
%TO.P,J2,5,Pin_5*%
%TO.N,IMD_FAULT*%
X187960000Y-88900000D03*
%TO.P,J2,6,Pin_6*%
%TO.N,AIR+_ACTIVE*%
X187960000Y-86360000D03*
%TO.P,J2,7,Pin_7*%
X187960000Y-83820000D03*
%TO.P,J2,8,Pin_8*%
%TO.N,unconnected-(J2-Pad8)*%
X187960000Y-81280000D03*
%TO.P,J2,9,Pin_9*%
%TO.N,unconnected-(J2-Pad9)*%
X187960000Y-78740000D03*
%TO.P,J2,10,Pin_10*%
%TO.N,unconnected-(J2-Pad10)*%
X187960000Y-76200000D03*
%TO.P,J2,11,Pin_11*%
%TO.N,INTERLOCK_{1}*%
X187960000Y-73660000D03*
%TO.P,J2,12,Pin_12*%
%TO.N,INTERLOCK_{2}*%
X187960000Y-71120000D03*
%TD*%
D10*
%TO.P,D4,1,K*%
%TO.N,GND_BOX*%
X170180000Y-50165000D03*
D11*
%TO.P,D4,2,A*%
%TO.N,Net-(D4-Pad2)*%
X167640000Y-50165000D03*
%TD*%
D22*
%TO.P,Q2,1,G*%
%TO.N,CHARGER_SAFETY*%
X177800000Y-58420000D03*
D23*
%TO.P,Q2,2,D*%
%TO.N,Net-(D5-Pad1)*%
X177800000Y-60960000D03*
%TO.P,Q2,3,S*%
%TO.N,GND_BOX*%
X177800000Y-63500000D03*
%TD*%
D20*
%TO.P,R3,1*%
%TO.N,GND_BOX*%
X180340000Y-33020000D03*
D21*
%TO.P,R3,2*%
%TO.N,IMD_FAULT*%
X180340000Y-40640000D03*
%TD*%
D17*
%TO.P,J5,1,Pin_1*%
%TO.N,Net-(J5-Pad1)*%
X73914000Y-100076000D03*
D18*
%TO.P,J5,2,Pin_2*%
%TO.N,Net-(J5-Pad2)*%
X71374000Y-100076000D03*
%TD*%
D10*
%TO.P,D5,1,K*%
%TO.N,Net-(D5-Pad1)*%
X185420000Y-60960000D03*
D11*
%TO.P,D5,2,A*%
%TO.N,Net-(D5-Pad2)*%
X187960000Y-60960000D03*
%TD*%
D20*
%TO.P,R6,1*%
%TO.N,Net-(R6-Pad1)*%
X163195000Y-59690000D03*
D21*
%TO.P,R6,2*%
%TO.N,Net-(D6-Pad2)*%
X163195000Y-67310000D03*
%TD*%
D20*
%TO.P,R2,1*%
%TO.N,Net-(D2-Pad2)*%
X163195000Y-48260000D03*
D21*
%TO.P,R2,2*%
%TO.N,INTERLOCK_{2}*%
X163195000Y-55880000D03*
%TD*%
D24*
%TO.P,J7,1,Pin_1*%
%TO.N,GND_BOX*%
X168148000Y-106172000D03*
%TD*%
D10*
%TO.P,D7,1,K*%
%TO.N,GND_BOX*%
X167640000Y-65405000D03*
D11*
%TO.P,D7,2,A*%
%TO.N,Net-(D7-Pad2)*%
X170180000Y-65405000D03*
%TD*%
D17*
%TO.P,AC_RELAY,1,Pin_1*%
%TO.N,CHARGE_POWER*%
X185669000Y-28448000D03*
D18*
%TO.P,AC_RELAY,2,Pin_2*%
%TO.N,CHARGER_SAFETY*%
X188209000Y-28448000D03*
%TD*%
D10*
%TO.P,D2,1,K*%
%TO.N,GND_BOX*%
X170180000Y-42545000D03*
D11*
%TO.P,D2,2,A*%
%TO.N,Net-(D2-Pad2)*%
X167640000Y-42545000D03*
%TD*%
D17*
%TO.P,PUSH,1,Pin_1*%
%TO.N,INTERLOCK_{1}*%
X185415000Y-34925000D03*
D18*
%TO.P,PUSH,2,Pin_2*%
%TO.N,CHARGE_POWER*%
X187955000Y-34925000D03*
%TD*%
D20*
%TO.P,R1,1*%
%TO.N,Net-(D1-Pad2)*%
X158750000Y-48260000D03*
D21*
%TO.P,R1,2*%
%TO.N,CHARGE_POWER*%
X158750000Y-55880000D03*
%TD*%
D20*
%TO.P,R4,1*%
%TO.N,Net-(R4-Pad1)*%
X158750000Y-67310000D03*
D21*
%TO.P,R4,2*%
%TO.N,Net-(D4-Pad2)*%
X158750000Y-59690000D03*
%TD*%
D20*
%TO.P,R7,1*%
%TO.N,Net-(D7-Pad2)*%
X177800000Y-40640000D03*
D21*
%TO.P,R7,2*%
%TO.N,AIR+_ACTIVE*%
X177800000Y-33020000D03*
%TD*%
D25*
%TO.N,GND_BOX*%
X176657000Y-91567000D03*
%TO.N,Net-(D5-Pad2)*%
X181610000Y-66040000D03*
X179070000Y-66040000D03*
%TO.N,Net-(D6-Pad2)*%
X166370000Y-54610000D03*
%TO.N,CHARGE_POWER*%
X173990000Y-72390000D03*
%TO.N,IMD_FAULT*%
X190500000Y-49530000D03*
%TO.N,CHARGER_SAFETY*%
X174244000Y-38100000D03*
X171704000Y-39624000D03*
%TD*%
D26*
%TO.N,GND_BOX*%
X167640000Y-66040000D02*
X167640000Y-57785000D01*
X177800000Y-63500000D02*
X177800000Y-64770000D01*
X160020000Y-33469520D02*
X160020000Y-39595000D01*
X170180000Y-34925000D02*
X170180000Y-42545000D01*
X176530000Y-71120000D02*
X176530000Y-91440000D01*
X170180000Y-68580000D02*
X167640000Y-66040000D01*
X176530000Y-91440000D02*
X176657000Y-91567000D01*
D27*
X170180000Y-34925000D02*
X178435000Y-34925000D01*
D26*
X177800000Y-64770000D02*
X173990000Y-68580000D01*
X181610000Y-96520000D02*
X187960000Y-96520000D01*
X167640000Y-55880000D02*
X170180000Y-53340000D01*
D27*
X178435000Y-34925000D02*
X180340000Y-33020000D01*
X180340000Y-33020000D02*
X182880000Y-35560000D01*
D26*
X170180000Y-33775000D02*
X168604520Y-32199520D01*
X167640000Y-57785000D02*
X167640000Y-55880000D01*
D27*
X182880000Y-35560000D02*
X182880000Y-39370000D01*
X182880000Y-39370000D02*
X184150000Y-40640000D01*
D26*
X168604520Y-32199520D02*
X161290000Y-32199520D01*
D27*
X184150000Y-40640000D02*
X185420000Y-40640000D01*
D26*
X176657000Y-91567000D02*
X181610000Y-96520000D01*
X170180000Y-34925000D02*
X170180000Y-33775000D01*
X160020000Y-39595000D02*
X156555000Y-43060000D01*
X173990000Y-68580000D02*
X170180000Y-68580000D01*
X170180000Y-53340000D02*
X170180000Y-50165000D01*
X161290000Y-32199520D02*
X160020000Y-33469520D01*
X173990000Y-68580000D02*
X176530000Y-71120000D01*
D27*
%TO.N,Net-(D1-Pad2)*%
X161036000Y-34173040D02*
X161036000Y-45974000D01*
X161036000Y-45974000D02*
X158750000Y-48260000D01*
X161036000Y-34173040D02*
X166888040Y-34173040D01*
X166888040Y-34173040D02*
X167640000Y-34925000D01*
D26*
%TO.N,Net-(D2-Pad2)*%
X167640000Y-42545000D02*
X163195000Y-46990000D01*
X163195000Y-46990000D02*
X163195000Y-48260000D01*
%TO.N,Net-(D3-Pad1)*%
X185420000Y-53340000D02*
X180340000Y-53340000D01*
X180340000Y-53340000D02*
X177800000Y-50800000D01*
%TO.N,Net-(D3-Pad2)*%
X187960000Y-55880000D02*
X186690000Y-57150000D01*
X180789520Y-74744520D02*
X182880000Y-76835000D01*
X182880000Y-57150000D02*
X180789520Y-59240480D01*
X186690000Y-57150000D02*
X182880000Y-57150000D01*
X187960000Y-53340000D02*
X187960000Y-55880000D01*
X180789520Y-59240480D02*
X180789520Y-74744520D01*
%TO.N,Net-(D4-Pad2)*%
X158750000Y-52070000D02*
X156210000Y-54610000D01*
X156210000Y-57150000D02*
X158750000Y-59690000D01*
X156210000Y-54610000D02*
X156210000Y-57150000D01*
X165735000Y-52070000D02*
X158750000Y-52070000D01*
X167640000Y-50165000D02*
X165735000Y-52070000D01*
%TO.N,Net-(D5-Pad2)*%
X185420000Y-66040000D02*
X181610000Y-66040000D01*
X179070000Y-66040000D02*
X177800000Y-67310000D01*
X187960000Y-60960000D02*
X187960000Y-63500000D01*
X177800000Y-67310000D02*
X177800000Y-88265000D01*
X187960000Y-63500000D02*
X185420000Y-66040000D01*
X177800000Y-88265000D02*
X182880000Y-93345000D01*
%TO.N,Net-(D6-Pad2)*%
X163830000Y-67310000D02*
X163195000Y-67310000D01*
X166370000Y-54610000D02*
X164592000Y-56388000D01*
X164592000Y-56388000D02*
X164592000Y-66548000D01*
X164592000Y-66548000D02*
X163830000Y-67310000D01*
%TO.N,Net-(D7-Pad2)*%
X177800000Y-40640000D02*
X173990000Y-44450000D01*
X172085000Y-65405000D02*
X170180000Y-65405000D01*
X173990000Y-44450000D02*
X173990000Y-63500000D01*
X173990000Y-63500000D02*
X172085000Y-65405000D01*
D28*
%TO.N,INTERLOCK_{1}*%
X193040000Y-34290000D02*
X193040000Y-68580000D01*
X185415000Y-33025000D02*
X186690000Y-31750000D01*
X190500000Y-31750000D02*
X193040000Y-34290000D01*
X186690000Y-31750000D02*
X190500000Y-31750000D01*
X192532000Y-69088000D02*
X187960000Y-73660000D01*
X193040000Y-68580000D02*
X192532000Y-69088000D01*
X185415000Y-34925000D02*
X185415000Y-33025000D01*
D27*
%TO.N,CHARGE_POWER*%
X161607859Y-68262141D02*
X162877859Y-69532141D01*
D26*
X191320480Y-46990000D02*
X191320480Y-63314520D01*
D27*
X161290000Y-58420000D02*
X161290000Y-67944282D01*
D26*
X182880000Y-88900000D02*
X182880000Y-88265000D01*
D27*
X158750000Y-55880000D02*
X161290000Y-58420000D01*
X189992000Y-98298000D02*
X189230000Y-99060000D01*
D26*
X191320480Y-63314520D02*
X182880000Y-71755000D01*
D27*
X189992000Y-96520000D02*
X189992000Y-98298000D01*
X161290000Y-67944282D02*
X161607859Y-68262141D01*
D28*
X189415480Y-34925000D02*
X191320480Y-36830000D01*
D27*
X171132141Y-69532141D02*
X173990000Y-72390000D01*
D28*
X191320480Y-36830000D02*
X191320480Y-42359520D01*
D27*
X189230000Y-99060000D02*
X187960000Y-99060000D01*
X189992000Y-96520000D02*
X189992000Y-96012000D01*
X187960000Y-93980000D02*
X182880000Y-88900000D01*
D26*
X187960000Y-45720000D02*
X190050480Y-45720000D01*
D27*
X189992000Y-96012000D02*
X187960000Y-93980000D01*
D26*
X190050480Y-45720000D02*
X191320480Y-46990000D01*
D28*
X187955000Y-34925000D02*
X189415480Y-34925000D01*
X191320480Y-42359520D02*
X187960000Y-45720000D01*
D27*
X162877859Y-69532141D02*
X171132141Y-69532141D01*
D26*
%TO.N,IMD_FAULT*%
X177800000Y-45720000D02*
X177800000Y-44450000D01*
X180340000Y-45720000D02*
X184150000Y-49530000D01*
X184150000Y-49530000D02*
X190500000Y-49530000D01*
X180340000Y-41910000D02*
X180340000Y-40640000D01*
X177800000Y-45720000D02*
X180340000Y-45720000D01*
X177800000Y-44450000D02*
X180340000Y-41910000D01*
%TO.N,CHARGER_SAFETY*%
X185420000Y-86360000D02*
X185420000Y-88900000D01*
X185420000Y-88900000D02*
X187960000Y-91440000D01*
X174244000Y-38100000D02*
X172720000Y-39624000D01*
X180340000Y-59690000D02*
X180340000Y-83820000D01*
X181610000Y-85090000D02*
X184150000Y-85090000D01*
X179070000Y-58420000D02*
X180340000Y-59690000D01*
X180340000Y-83820000D02*
X181610000Y-85090000D01*
X177800000Y-58420000D02*
X179070000Y-58420000D01*
X172720000Y-39624000D02*
X171704000Y-39624000D01*
X184150000Y-85090000D02*
X185420000Y-86360000D01*
%TO.N,Net-(R4-Pad1)*%
X162560000Y-71120000D02*
X158750000Y-67310000D01*
X162560000Y-81915000D02*
X162560000Y-71120000D01*
D28*
%TO.N,AIR+_ACTIVE*%
X180975000Y-101600000D02*
X167640000Y-88265000D01*
D26*
X177800000Y-33020000D02*
X176530000Y-31750000D01*
D28*
X187960000Y-86360000D02*
X191516000Y-89916000D01*
X190949520Y-99880480D02*
X189230000Y-101600000D01*
X189230000Y-101600000D02*
X180975000Y-101600000D01*
X191516000Y-89916000D02*
X191516000Y-99314000D01*
D26*
X180340000Y-30480000D02*
X191516000Y-30480000D01*
X158750000Y-31750000D02*
X156555000Y-33945000D01*
D28*
X191516000Y-99314000D02*
X190949520Y-99880480D01*
D26*
X176530000Y-31750000D02*
X158750000Y-31750000D01*
X156555000Y-33945000D02*
X156555000Y-35560000D01*
X194056000Y-77724000D02*
X187960000Y-83820000D01*
X177800000Y-33020000D02*
X180340000Y-30480000D01*
D28*
X187960000Y-83820000D02*
X187960000Y-86360000D01*
D26*
X191516000Y-30480000D02*
X194056000Y-33020000D01*
X194056000Y-33020000D02*
X194056000Y-77724000D01*
D28*
%TO.N,Net-(U1-Pad2)*%
X161925000Y-88265000D02*
X157480000Y-88265000D01*
X167640000Y-82550000D02*
X161925000Y-88265000D01*
X167640000Y-71755000D02*
X167640000Y-82550000D01*
D26*
%TO.N,Net-(J5-Pad1)*%
X140055000Y-45368500D02*
X135128000Y-50295500D01*
X140055000Y-35560000D02*
X140055000Y-45368500D01*
X98806000Y-75184000D02*
X73914000Y-100076000D01*
X107188000Y-75184000D02*
X98806000Y-75184000D01*
X135128000Y-50295500D02*
X135128000Y-54864000D01*
X135128000Y-54864000D02*
X114808000Y-75184000D01*
X114808000Y-75184000D02*
X107188000Y-75184000D01*
%TO.N,Net-(J5-Pad2)*%
X71374000Y-92456000D02*
X71374000Y-100076000D01*
X75184000Y-88646000D02*
X71374000Y-92456000D01*
X83058000Y-88646000D02*
X75184000Y-88646000D01*
X120904000Y-50800000D02*
X83058000Y-88646000D01*
%TD*%
%TA.AperFunction,Conductor*%
%TO.N,GND_BOX*%
G36*
X195522121Y-21356002D02*
G01*
X195568614Y-21409658D01*
X195580000Y-21462000D01*
X195580000Y-110618000D01*
X195559998Y-110686121D01*
X195506342Y-110732614D01*
X195454000Y-110744000D01*
X155574000Y-110744000D01*
X155505879Y-110723998D01*
X155459386Y-110670342D01*
X155448000Y-110618000D01*
X155448000Y-106444845D01*
X164157134Y-106444845D01*
X164194127Y-106654642D01*
X164196246Y-106663143D01*
X164280308Y-106921858D01*
X164283599Y-106930005D01*
X164402848Y-107174499D01*
X164407233Y-107182096D01*
X164559352Y-107407621D01*
X164564756Y-107414538D01*
X164746776Y-107616691D01*
X164753091Y-107622790D01*
X164961471Y-107797642D01*
X164968576Y-107802804D01*
X165199275Y-107946961D01*
X165207009Y-107951073D01*
X165455533Y-108061723D01*
X165463774Y-108064722D01*
X165725267Y-108139704D01*
X165733847Y-108141528D01*
X166003235Y-108179388D01*
X166011984Y-108180000D01*
X167875885Y-108180000D01*
X167891124Y-108175525D01*
X167892329Y-108174135D01*
X167894000Y-108166452D01*
X167894000Y-108161885D01*
X168402000Y-108161885D01*
X168406475Y-108177124D01*
X168407865Y-108178329D01*
X168415548Y-108180000D01*
X170215923Y-108180000D01*
X170220308Y-108179847D01*
X170423757Y-108165621D01*
X170432438Y-108164401D01*
X170698530Y-108107841D01*
X170706967Y-108105422D01*
X170962587Y-108012383D01*
X170970603Y-108008814D01*
X171210790Y-107881105D01*
X171218238Y-107876451D01*
X171438306Y-107716562D01*
X171445036Y-107710915D01*
X171508078Y-107650036D01*
X190268692Y-107650036D01*
X190268701Y-107650217D01*
X190268924Y-107654862D01*
X190268924Y-107654867D01*
X190275162Y-107784740D01*
X190281178Y-107909992D01*
X190331952Y-108165247D01*
X190419896Y-108410193D01*
X190543081Y-108639450D01*
X190545872Y-108643187D01*
X190545876Y-108643194D01*
X190620308Y-108742870D01*
X190698798Y-108847981D01*
X190702105Y-108851259D01*
X190702110Y-108851265D01*
X190803153Y-108951429D01*
X190883628Y-109031204D01*
X190887395Y-109033966D01*
X190887396Y-109033967D01*
X191003401Y-109119026D01*
X191093509Y-109185096D01*
X191097640Y-109187270D01*
X191097641Y-109187270D01*
X191319698Y-109304100D01*
X191319704Y-109304102D01*
X191323833Y-109306275D01*
X191328240Y-109307814D01*
X191328247Y-109307817D01*
X191565121Y-109390537D01*
X191569537Y-109392079D01*
X191825225Y-109440623D01*
X191948703Y-109445474D01*
X192080612Y-109450657D01*
X192080617Y-109450657D01*
X192085280Y-109450840D01*
X192186525Y-109439752D01*
X192339336Y-109423017D01*
X192339342Y-109423016D01*
X192343989Y-109422507D01*
X192369795Y-109415713D01*
X192591145Y-109357437D01*
X192591148Y-109357436D01*
X192595668Y-109356246D01*
X192610877Y-109349712D01*
X192830495Y-109255356D01*
X192830497Y-109255355D01*
X192834789Y-109253511D01*
X193056098Y-109116561D01*
X193062701Y-109110971D01*
X193251161Y-108951429D01*
X193251163Y-108951427D01*
X193254734Y-108948404D01*
X193426332Y-108752733D01*
X193429008Y-108748574D01*
X193564596Y-108537778D01*
X193567124Y-108533848D01*
X193674016Y-108296557D01*
X193744660Y-108046072D01*
X193762566Y-107905322D01*
X193777106Y-107791028D01*
X193777106Y-107791022D01*
X193777504Y-107787897D01*
X193779910Y-107696000D01*
X193760623Y-107436460D01*
X193754098Y-107407621D01*
X193704216Y-107187179D01*
X193703185Y-107182622D01*
X193687921Y-107143370D01*
X193610554Y-106944419D01*
X193610552Y-106944416D01*
X193608859Y-106940061D01*
X193603112Y-106930005D01*
X193522946Y-106789746D01*
X193479715Y-106714108D01*
X193453104Y-106680351D01*
X193321490Y-106513399D01*
X193318593Y-106509724D01*
X193129030Y-106331402D01*
X192915192Y-106183057D01*
X192911002Y-106180991D01*
X192910999Y-106180989D01*
X192685963Y-106070014D01*
X192685960Y-106070013D01*
X192681775Y-106067949D01*
X192635853Y-106053249D01*
X192625631Y-106049977D01*
X192433909Y-105988606D01*
X192429302Y-105987856D01*
X192429299Y-105987855D01*
X192181649Y-105947523D01*
X192181650Y-105947523D01*
X192177038Y-105946772D01*
X192050570Y-105945116D01*
X191921481Y-105943426D01*
X191921478Y-105943426D01*
X191916804Y-105943365D01*
X191658926Y-105978461D01*
X191654440Y-105979769D01*
X191654438Y-105979769D01*
X191624120Y-105988606D01*
X191409067Y-106051288D01*
X191172718Y-106160247D01*
X191168809Y-106162810D01*
X190958983Y-106300377D01*
X190958978Y-106300381D01*
X190955070Y-106302943D01*
X190923184Y-106331402D01*
X190796082Y-106444845D01*
X190760904Y-106476242D01*
X190594486Y-106676338D01*
X190459473Y-106898834D01*
X190457664Y-106903148D01*
X190457663Y-106903150D01*
X190440358Y-106944419D01*
X190358829Y-107138842D01*
X190294766Y-107391089D01*
X190290095Y-107437481D01*
X190272050Y-107616691D01*
X190268692Y-107650036D01*
X171508078Y-107650036D01*
X171640716Y-107521949D01*
X171646588Y-107515427D01*
X171814064Y-107301067D01*
X171818970Y-107293793D01*
X171954984Y-107058211D01*
X171958833Y-107050319D01*
X172060735Y-106798104D01*
X172063451Y-106789746D01*
X172129257Y-106525808D01*
X172130782Y-106517163D01*
X172138470Y-106444015D01*
X172135791Y-106429365D01*
X172123470Y-106426000D01*
X168420115Y-106426000D01*
X168404876Y-106430475D01*
X168403671Y-106431865D01*
X168402000Y-106439548D01*
X168402000Y-108161885D01*
X167894000Y-108161885D01*
X167894000Y-106444115D01*
X167889525Y-106428876D01*
X167888135Y-106427671D01*
X167880452Y-106426000D01*
X164171926Y-106426000D01*
X164159057Y-106429779D01*
X164157134Y-106444845D01*
X155448000Y-106444845D01*
X155448000Y-105899985D01*
X164157530Y-105899985D01*
X164160209Y-105914635D01*
X164172530Y-105918000D01*
X167875885Y-105918000D01*
X167891124Y-105913525D01*
X167892329Y-105912135D01*
X167894000Y-105904452D01*
X167894000Y-105899885D01*
X168402000Y-105899885D01*
X168406475Y-105915124D01*
X168407865Y-105916329D01*
X168415548Y-105918000D01*
X172124074Y-105918000D01*
X172136943Y-105914221D01*
X172138866Y-105899155D01*
X172101873Y-105689358D01*
X172099754Y-105680857D01*
X172015692Y-105422142D01*
X172012401Y-105413995D01*
X171893152Y-105169501D01*
X171888767Y-105161904D01*
X171736648Y-104936379D01*
X171731244Y-104929462D01*
X171549224Y-104727309D01*
X171542909Y-104721210D01*
X171334529Y-104546358D01*
X171327424Y-104541196D01*
X171096725Y-104397039D01*
X171088991Y-104392927D01*
X170840467Y-104282277D01*
X170832226Y-104279278D01*
X170570733Y-104204296D01*
X170562153Y-104202472D01*
X170292765Y-104164612D01*
X170284016Y-104164000D01*
X168420115Y-104164000D01*
X168404876Y-104168475D01*
X168403671Y-104169865D01*
X168402000Y-104177548D01*
X168402000Y-105899885D01*
X167894000Y-105899885D01*
X167894000Y-104182115D01*
X167889525Y-104166876D01*
X167888135Y-104165671D01*
X167880452Y-104164000D01*
X166080077Y-104164000D01*
X166075692Y-104164153D01*
X165872243Y-104178379D01*
X165863562Y-104179599D01*
X165597470Y-104236159D01*
X165589033Y-104238578D01*
X165333413Y-104331617D01*
X165325397Y-104335186D01*
X165085210Y-104462895D01*
X165077762Y-104467549D01*
X164857694Y-104627438D01*
X164850964Y-104633085D01*
X164655284Y-104822051D01*
X164649412Y-104828573D01*
X164481936Y-105042933D01*
X164477030Y-105050207D01*
X164341016Y-105285789D01*
X164337167Y-105293681D01*
X164235265Y-105545896D01*
X164232549Y-105554254D01*
X164166743Y-105818192D01*
X164165218Y-105826837D01*
X164157530Y-105899985D01*
X155448000Y-105899985D01*
X155448000Y-98425000D01*
X161229437Y-98425000D01*
X161249651Y-98656050D01*
X161309680Y-98880079D01*
X161312005Y-98885064D01*
X161405373Y-99085294D01*
X161405376Y-99085299D01*
X161407699Y-99090281D01*
X161540730Y-99280269D01*
X161704731Y-99444270D01*
X161709239Y-99447427D01*
X161709242Y-99447429D01*
X161722601Y-99456783D01*
X161894718Y-99577301D01*
X161899700Y-99579624D01*
X161899705Y-99579627D01*
X162006616Y-99629480D01*
X162104921Y-99675320D01*
X162328950Y-99735349D01*
X162560000Y-99755563D01*
X162791050Y-99735349D01*
X163015079Y-99675320D01*
X163113384Y-99629480D01*
X163220295Y-99579627D01*
X163220300Y-99579624D01*
X163225282Y-99577301D01*
X163397399Y-99456783D01*
X163410758Y-99447429D01*
X163410761Y-99447427D01*
X163415269Y-99444270D01*
X163579270Y-99280269D01*
X163712301Y-99090281D01*
X163714624Y-99085299D01*
X163714627Y-99085294D01*
X163807995Y-98885064D01*
X163810320Y-98880079D01*
X163870349Y-98656050D01*
X163890563Y-98425000D01*
X163870349Y-98193950D01*
X163810320Y-97969921D01*
X163715132Y-97765790D01*
X163714627Y-97764706D01*
X163714624Y-97764701D01*
X163712301Y-97759719D01*
X163661708Y-97687464D01*
X163582429Y-97574242D01*
X163582427Y-97574239D01*
X163579270Y-97569731D01*
X163415269Y-97405730D01*
X163225282Y-97272699D01*
X163220300Y-97270376D01*
X163220295Y-97270373D01*
X163106227Y-97217183D01*
X163015079Y-97174680D01*
X162791050Y-97114651D01*
X162560000Y-97094437D01*
X162328950Y-97114651D01*
X162104921Y-97174680D01*
X162013773Y-97217183D01*
X161899706Y-97270373D01*
X161899701Y-97270376D01*
X161894719Y-97272699D01*
X161890212Y-97275855D01*
X161890210Y-97275856D01*
X161709242Y-97402571D01*
X161709239Y-97402573D01*
X161704731Y-97405730D01*
X161540730Y-97569731D01*
X161537573Y-97574239D01*
X161537571Y-97574242D01*
X161458292Y-97687464D01*
X161407699Y-97759719D01*
X161405376Y-97764701D01*
X161405373Y-97764706D01*
X161404868Y-97765790D01*
X161309680Y-97969921D01*
X161249651Y-98193950D01*
X161229437Y-98425000D01*
X155448000Y-98425000D01*
X155448000Y-88265000D01*
X156149437Y-88265000D01*
X156169651Y-88496050D01*
X156229680Y-88720079D01*
X156266304Y-88798619D01*
X156325373Y-88925294D01*
X156325376Y-88925299D01*
X156327699Y-88930281D01*
X156330855Y-88934788D01*
X156330856Y-88934790D01*
X156457571Y-89115757D01*
X156460730Y-89120269D01*
X156624731Y-89284270D01*
X156629239Y-89287427D01*
X156629242Y-89287429D01*
X156638721Y-89294066D01*
X156814718Y-89417301D01*
X156819700Y-89419624D01*
X156819705Y-89419627D01*
X156883445Y-89449349D01*
X157024921Y-89515320D01*
X157248950Y-89575349D01*
X157480000Y-89595563D01*
X157711050Y-89575349D01*
X157935079Y-89515320D01*
X158076555Y-89449349D01*
X158140295Y-89419627D01*
X158140300Y-89419624D01*
X158145282Y-89417301D01*
X158321279Y-89294066D01*
X158330758Y-89287429D01*
X158330761Y-89287427D01*
X158335269Y-89284270D01*
X158499270Y-89120269D01*
X158570018Y-89019230D01*
X158625475Y-88974901D01*
X158673231Y-88965500D01*
X161896359Y-88965500D01*
X161904929Y-88965792D01*
X161954354Y-88969162D01*
X161954358Y-88969162D01*
X161961930Y-88969678D01*
X161969406Y-88968373D01*
X161969409Y-88968373D01*
X162024132Y-88958822D01*
X162030658Y-88957859D01*
X162071096Y-88952965D01*
X162093320Y-88950276D01*
X162100427Y-88947591D01*
X162103720Y-88946782D01*
X162118191Y-88942823D01*
X162121467Y-88941834D01*
X162128954Y-88940527D01*
X162135914Y-88937472D01*
X162186760Y-88915153D01*
X162192866Y-88912661D01*
X162244818Y-88893030D01*
X162244820Y-88893029D01*
X162251923Y-88890345D01*
X162258178Y-88886046D01*
X162261203Y-88884465D01*
X162274299Y-88877175D01*
X162277243Y-88875434D01*
X162284202Y-88872379D01*
X162334273Y-88833958D01*
X162339609Y-88830081D01*
X162385386Y-88798619D01*
X162385392Y-88798614D01*
X162391651Y-88794312D01*
X162432609Y-88748342D01*
X162437589Y-88743067D01*
X168115075Y-83065582D01*
X168121341Y-83059728D01*
X168158669Y-83027165D01*
X168164396Y-83022169D01*
X168200690Y-82970527D01*
X168204616Y-82965242D01*
X168238897Y-82921522D01*
X168238901Y-82921516D01*
X168243584Y-82915543D01*
X168246709Y-82908623D01*
X168248457Y-82905736D01*
X168255909Y-82892673D01*
X168257523Y-82889663D01*
X168261887Y-82883453D01*
X168284813Y-82824652D01*
X168287369Y-82818571D01*
X168303631Y-82782555D01*
X168313356Y-82761016D01*
X168314740Y-82753551D01*
X168315764Y-82750283D01*
X168319859Y-82735904D01*
X168320716Y-82732566D01*
X168323476Y-82725487D01*
X168324467Y-82717960D01*
X168324468Y-82717956D01*
X168331715Y-82662906D01*
X168332747Y-82656391D01*
X168342869Y-82601776D01*
X168342869Y-82601775D01*
X168344253Y-82594308D01*
X168340709Y-82532844D01*
X168340500Y-82525592D01*
X168340500Y-72948232D01*
X168360502Y-72880111D01*
X168394229Y-72845019D01*
X168490758Y-72777429D01*
X168490760Y-72777427D01*
X168495269Y-72774270D01*
X168659270Y-72610269D01*
X168663350Y-72604443D01*
X168789144Y-72424790D01*
X168789145Y-72424788D01*
X168792301Y-72420281D01*
X168794624Y-72415299D01*
X168794627Y-72415294D01*
X168858464Y-72278394D01*
X168890320Y-72210079D01*
X168950349Y-71986050D01*
X168970563Y-71755000D01*
X168950349Y-71523950D01*
X168890320Y-71299921D01*
X168821799Y-71152978D01*
X168794627Y-71094706D01*
X168794624Y-71094701D01*
X168792301Y-71089719D01*
X168785877Y-71080544D01*
X168662429Y-70904242D01*
X168662427Y-70904239D01*
X168659270Y-70899731D01*
X168495269Y-70735730D01*
X168450186Y-70704162D01*
X168411708Y-70677220D01*
X168305282Y-70602699D01*
X168300300Y-70600376D01*
X168300295Y-70600373D01*
X168173939Y-70541453D01*
X168095079Y-70504680D01*
X167871050Y-70444651D01*
X167640000Y-70424437D01*
X167408950Y-70444651D01*
X167184921Y-70504680D01*
X167118079Y-70535849D01*
X166979706Y-70600373D01*
X166979701Y-70600376D01*
X166974719Y-70602699D01*
X166970212Y-70605855D01*
X166970210Y-70605856D01*
X166789242Y-70732571D01*
X166789239Y-70732573D01*
X166784731Y-70735730D01*
X166620730Y-70899731D01*
X166617573Y-70904239D01*
X166617571Y-70904242D01*
X166494123Y-71080544D01*
X166487699Y-71089719D01*
X166485376Y-71094701D01*
X166485373Y-71094706D01*
X166458201Y-71152978D01*
X166389680Y-71299921D01*
X166329651Y-71523950D01*
X166309437Y-71755000D01*
X166329651Y-71986050D01*
X166389680Y-72210079D01*
X166421536Y-72278394D01*
X166485373Y-72415294D01*
X166485376Y-72415299D01*
X166487699Y-72420281D01*
X166490855Y-72424788D01*
X166490856Y-72424790D01*
X166616651Y-72604443D01*
X166620730Y-72610269D01*
X166784731Y-72774270D01*
X166789240Y-72777427D01*
X166789242Y-72777429D01*
X166885771Y-72845019D01*
X166930099Y-72900476D01*
X166939500Y-72948232D01*
X166939500Y-82207653D01*
X166919498Y-82275774D01*
X166902595Y-82296748D01*
X161671748Y-87527595D01*
X161609436Y-87561621D01*
X161582653Y-87564500D01*
X158673231Y-87564500D01*
X158605110Y-87544498D01*
X158570018Y-87510770D01*
X158503205Y-87415351D01*
X158499270Y-87409731D01*
X158335269Y-87245730D01*
X158308222Y-87226791D01*
X158251708Y-87187220D01*
X158145282Y-87112699D01*
X158140300Y-87110376D01*
X158140295Y-87110373D01*
X158013939Y-87051453D01*
X157935079Y-87014680D01*
X157711050Y-86954651D01*
X157480000Y-86934437D01*
X157248950Y-86954651D01*
X157024921Y-87014680D01*
X156946061Y-87051453D01*
X156819706Y-87110373D01*
X156819701Y-87110376D01*
X156814719Y-87112699D01*
X156810212Y-87115855D01*
X156810210Y-87115856D01*
X156629242Y-87242571D01*
X156629239Y-87242573D01*
X156624731Y-87245730D01*
X156460730Y-87409731D01*
X156457573Y-87414239D01*
X156457571Y-87414242D01*
X156330856Y-87595210D01*
X156327699Y-87599719D01*
X156325376Y-87604701D01*
X156325373Y-87604706D01*
X156275448Y-87711771D01*
X156229680Y-87809921D01*
X156169651Y-88033950D01*
X156149437Y-88265000D01*
X155448000Y-88265000D01*
X155448000Y-71755000D01*
X156149437Y-71755000D01*
X156169651Y-71986050D01*
X156229680Y-72210079D01*
X156261536Y-72278394D01*
X156325373Y-72415294D01*
X156325376Y-72415299D01*
X156327699Y-72420281D01*
X156330855Y-72424788D01*
X156330856Y-72424790D01*
X156456651Y-72604443D01*
X156460730Y-72610269D01*
X156624731Y-72774270D01*
X156629239Y-72777427D01*
X156629242Y-72777429D01*
X156642601Y-72786783D01*
X156814718Y-72907301D01*
X156819700Y-72909624D01*
X156819705Y-72909627D01*
X156897839Y-72946061D01*
X157024921Y-73005320D01*
X157248950Y-73065349D01*
X157480000Y-73085563D01*
X157711050Y-73065349D01*
X157935079Y-73005320D01*
X158062161Y-72946061D01*
X158140295Y-72909627D01*
X158140300Y-72909624D01*
X158145282Y-72907301D01*
X158317399Y-72786783D01*
X158330758Y-72777429D01*
X158330761Y-72777427D01*
X158335269Y-72774270D01*
X158499270Y-72610269D01*
X158503350Y-72604443D01*
X158629144Y-72424790D01*
X158629145Y-72424788D01*
X158632301Y-72420281D01*
X158634624Y-72415299D01*
X158634627Y-72415294D01*
X158698464Y-72278394D01*
X158730320Y-72210079D01*
X158790349Y-71986050D01*
X158810563Y-71755000D01*
X158790349Y-71523950D01*
X158730320Y-71299921D01*
X158661799Y-71152978D01*
X158634627Y-71094706D01*
X158634624Y-71094701D01*
X158632301Y-71089719D01*
X158625877Y-71080544D01*
X158502429Y-70904242D01*
X158502427Y-70904239D01*
X158499270Y-70899731D01*
X158335269Y-70735730D01*
X158290186Y-70704162D01*
X158251708Y-70677220D01*
X158145282Y-70602699D01*
X158140300Y-70600376D01*
X158140295Y-70600373D01*
X158013939Y-70541453D01*
X157935079Y-70504680D01*
X157711050Y-70444651D01*
X157480000Y-70424437D01*
X157248950Y-70444651D01*
X157024921Y-70504680D01*
X156958079Y-70535849D01*
X156819706Y-70600373D01*
X156819701Y-70600376D01*
X156814719Y-70602699D01*
X156810212Y-70605855D01*
X156810210Y-70605856D01*
X156629242Y-70732571D01*
X156629239Y-70732573D01*
X156624731Y-70735730D01*
X156460730Y-70899731D01*
X156457573Y-70904239D01*
X156457571Y-70904242D01*
X156334123Y-71080544D01*
X156327699Y-71089719D01*
X156325376Y-71094701D01*
X156325373Y-71094706D01*
X156298201Y-71152978D01*
X156229680Y-71299921D01*
X156169651Y-71523950D01*
X156149437Y-71755000D01*
X155448000Y-71755000D01*
X155448000Y-67310000D01*
X157844540Y-67310000D01*
X157864326Y-67498256D01*
X157922821Y-67678284D01*
X157926124Y-67684006D01*
X157926125Y-67684007D01*
X157954095Y-67732452D01*
X158017467Y-67842216D01*
X158021885Y-67847123D01*
X158021886Y-67847124D01*
X158081300Y-67913109D01*
X158144129Y-67982888D01*
X158297270Y-68094151D01*
X158470197Y-68171144D01*
X158557746Y-68189753D01*
X158648897Y-68209128D01*
X158648901Y-68209128D01*
X158655354Y-68210500D01*
X158844646Y-68210500D01*
X158851099Y-68209128D01*
X158851103Y-68209128D01*
X158942254Y-68189753D01*
X159029803Y-68171144D01*
X159035835Y-68168458D01*
X159042115Y-68166418D01*
X159042625Y-68167988D01*
X159104788Y-68159650D01*
X159169087Y-68189753D01*
X159174771Y-68195097D01*
X162197595Y-71217921D01*
X162231621Y-71280233D01*
X162234500Y-71307016D01*
X162234500Y-80533276D01*
X162214498Y-80601397D01*
X162160842Y-80647890D01*
X162141110Y-80654983D01*
X162110237Y-80663255D01*
X162110231Y-80663257D01*
X162104921Y-80664680D01*
X162038079Y-80695849D01*
X161899706Y-80760373D01*
X161899701Y-80760376D01*
X161894719Y-80762699D01*
X161890212Y-80765855D01*
X161890210Y-80765856D01*
X161709242Y-80892571D01*
X161709239Y-80892573D01*
X161704731Y-80895730D01*
X161540730Y-81059731D01*
X161537573Y-81064239D01*
X161537571Y-81064242D01*
X161525765Y-81081103D01*
X161407699Y-81249719D01*
X161405376Y-81254701D01*
X161405373Y-81254706D01*
X161378201Y-81312978D01*
X161309680Y-81459921D01*
X161249651Y-81683950D01*
X161229437Y-81915000D01*
X161249651Y-82146050D01*
X161309680Y-82370079D01*
X161312005Y-82375064D01*
X161405373Y-82575294D01*
X161405376Y-82575299D01*
X161407699Y-82580281D01*
X161410855Y-82584788D01*
X161410856Y-82584790D01*
X161537102Y-82765087D01*
X161540730Y-82770269D01*
X161704731Y-82934270D01*
X161894718Y-83067301D01*
X161899700Y-83069624D01*
X161899705Y-83069627D01*
X162006616Y-83119480D01*
X162104921Y-83165320D01*
X162328950Y-83225349D01*
X162560000Y-83245563D01*
X162791050Y-83225349D01*
X163015079Y-83165320D01*
X163113384Y-83119480D01*
X163220295Y-83069627D01*
X163220300Y-83069624D01*
X163225282Y-83067301D01*
X163415269Y-82934270D01*
X163579270Y-82770269D01*
X163582899Y-82765087D01*
X163709144Y-82584790D01*
X163709145Y-82584788D01*
X163712301Y-82580281D01*
X163714624Y-82575299D01*
X163714627Y-82575294D01*
X163807995Y-82375064D01*
X163810320Y-82370079D01*
X163870349Y-82146050D01*
X163890563Y-81915000D01*
X163870349Y-81683950D01*
X163810320Y-81459921D01*
X163741799Y-81312978D01*
X163714627Y-81254706D01*
X163714624Y-81254701D01*
X163712301Y-81249719D01*
X163594235Y-81081103D01*
X163582429Y-81064242D01*
X163582427Y-81064239D01*
X163579270Y-81059731D01*
X163415269Y-80895730D01*
X163370186Y-80864162D01*
X163331708Y-80837220D01*
X163225282Y-80762699D01*
X163220300Y-80760376D01*
X163220295Y-80760373D01*
X163113384Y-80710520D01*
X163015079Y-80664680D01*
X163009769Y-80663257D01*
X163009763Y-80663255D01*
X162978890Y-80654983D01*
X162918267Y-80618032D01*
X162887245Y-80554172D01*
X162885500Y-80533276D01*
X162885500Y-71139710D01*
X162885980Y-71128728D01*
X162888303Y-71102180D01*
X162888303Y-71102178D01*
X162889264Y-71091193D01*
X162879508Y-71054785D01*
X162877130Y-71044058D01*
X162876538Y-71040699D01*
X162870588Y-71006955D01*
X162865077Y-70997410D01*
X162863885Y-70994134D01*
X162862408Y-70990966D01*
X162859554Y-70980316D01*
X162837945Y-70949456D01*
X162832039Y-70940185D01*
X162818707Y-70917094D01*
X162813194Y-70907545D01*
X162784317Y-70883315D01*
X162776215Y-70875889D01*
X159632128Y-67731802D01*
X159598102Y-67669490D01*
X159601390Y-67603771D01*
X159633634Y-67504534D01*
X159635674Y-67498256D01*
X159655460Y-67310000D01*
X159643579Y-67196955D01*
X159636364Y-67128307D01*
X159636364Y-67128305D01*
X159635674Y-67121744D01*
X159577179Y-66941716D01*
X159482533Y-66777784D01*
X159458332Y-66750906D01*
X159360286Y-66642015D01*
X159360284Y-66642014D01*
X159355871Y-66637112D01*
X159202730Y-66525849D01*
X159029803Y-66448856D01*
X158931788Y-66428022D01*
X158851103Y-66410872D01*
X158851099Y-66410872D01*
X158844646Y-66409500D01*
X158655354Y-66409500D01*
X158648901Y-66410872D01*
X158648897Y-66410872D01*
X158568212Y-66428022D01*
X158470197Y-66448856D01*
X158297270Y-66525849D01*
X158144129Y-66637112D01*
X158139716Y-66642014D01*
X158139714Y-66642015D01*
X158041668Y-66750906D01*
X158017467Y-66777784D01*
X157922821Y-66941716D01*
X157864326Y-67121744D01*
X157863636Y-67128305D01*
X157863636Y-67128307D01*
X157856421Y-67196955D01*
X157844540Y-67310000D01*
X155448000Y-67310000D01*
X155448000Y-57178807D01*
X155880736Y-57178807D01*
X155890491Y-57215210D01*
X155892870Y-57225942D01*
X155899412Y-57263045D01*
X155904923Y-57272590D01*
X155906115Y-57275866D01*
X155907592Y-57279034D01*
X155910446Y-57289684D01*
X155916770Y-57298715D01*
X155932055Y-57320544D01*
X155937961Y-57329815D01*
X155939951Y-57333261D01*
X155956806Y-57362455D01*
X155982176Y-57383743D01*
X155985682Y-57386685D01*
X155993785Y-57394111D01*
X157867872Y-59268199D01*
X157901898Y-59330511D01*
X157898610Y-59396230D01*
X157864326Y-59501744D01*
X157863636Y-59508307D01*
X157863635Y-59508314D01*
X157849095Y-59646658D01*
X157844540Y-59690000D01*
X157845230Y-59696565D01*
X157862482Y-59860707D01*
X157864326Y-59878256D01*
X157922821Y-60058284D01*
X157926124Y-60064006D01*
X157926125Y-60064007D01*
X158001989Y-60195408D01*
X158017467Y-60222216D01*
X158144129Y-60362888D01*
X158149468Y-60366767D01*
X158287308Y-60466913D01*
X158297270Y-60474151D01*
X158470197Y-60551144D01*
X158556509Y-60569490D01*
X158648897Y-60589128D01*
X158648901Y-60589128D01*
X158655354Y-60590500D01*
X158844646Y-60590500D01*
X158851099Y-60589128D01*
X158851103Y-60589128D01*
X158943491Y-60569490D01*
X159029803Y-60551144D01*
X159202730Y-60474151D01*
X159212693Y-60466913D01*
X159350532Y-60366767D01*
X159355871Y-60362888D01*
X159482533Y-60222216D01*
X159498011Y-60195408D01*
X159573875Y-60064007D01*
X159573876Y-60064006D01*
X159577179Y-60058284D01*
X159635674Y-59878256D01*
X159637519Y-59860707D01*
X159654770Y-59696565D01*
X159655460Y-59690000D01*
X159650905Y-59646658D01*
X159636364Y-59508307D01*
X159636364Y-59508305D01*
X159635674Y-59501744D01*
X159577179Y-59321716D01*
X159482533Y-59157784D01*
X159465011Y-59138324D01*
X159360286Y-59022015D01*
X159360284Y-59022014D01*
X159355871Y-59017112D01*
X159202730Y-58905849D01*
X159029803Y-58828856D01*
X158917112Y-58804903D01*
X158851103Y-58790872D01*
X158851099Y-58790872D01*
X158844646Y-58789500D01*
X158655354Y-58789500D01*
X158648901Y-58790872D01*
X158648897Y-58790872D01*
X158476655Y-58827483D01*
X158476652Y-58827484D01*
X158470197Y-58828856D01*
X158464163Y-58831542D01*
X158457887Y-58833582D01*
X158457377Y-58832013D01*
X158395210Y-58840350D01*
X158330912Y-58810245D01*
X158325230Y-58804903D01*
X156572405Y-57052079D01*
X156538380Y-56989767D01*
X156535500Y-56962984D01*
X156535500Y-55880000D01*
X157844540Y-55880000D01*
X157845230Y-55886565D01*
X157857769Y-56005865D01*
X157864326Y-56068256D01*
X157922821Y-56248284D01*
X158017467Y-56412216D01*
X158021885Y-56417123D01*
X158021886Y-56417124D01*
X158122869Y-56529276D01*
X158144129Y-56552888D01*
X158297270Y-56664151D01*
X158470197Y-56741144D01*
X158568212Y-56761978D01*
X158648897Y-56779128D01*
X158648901Y-56779128D01*
X158655354Y-56780500D01*
X158749075Y-56780500D01*
X158817196Y-56800502D01*
X158838170Y-56817405D01*
X160652595Y-58631831D01*
X160686621Y-58694143D01*
X160689500Y-58720926D01*
X160689500Y-67896663D01*
X160688422Y-67913109D01*
X160684318Y-67944282D01*
X160689500Y-67983643D01*
X160704956Y-68101044D01*
X160765464Y-68247123D01*
X160861718Y-68372564D01*
X160868264Y-68377587D01*
X160886671Y-68391711D01*
X160899062Y-68402579D01*
X162419562Y-69923079D01*
X162430429Y-69935469D01*
X162449577Y-69960423D01*
X162575018Y-70056677D01*
X162721097Y-70117185D01*
X162877859Y-70137823D01*
X162886047Y-70136745D01*
X162909032Y-70133719D01*
X162925478Y-70132641D01*
X170831216Y-70132641D01*
X170899337Y-70152643D01*
X170920311Y-70169546D01*
X173531703Y-72780938D01*
X173542570Y-72793328D01*
X173561718Y-72818282D01*
X173687159Y-72914536D01*
X173833238Y-72975044D01*
X173990000Y-72995682D01*
X173998188Y-72994604D01*
X174138574Y-72976122D01*
X174146762Y-72975044D01*
X174292841Y-72914536D01*
X174418282Y-72818282D01*
X174514536Y-72692841D01*
X174575044Y-72546762D01*
X174595682Y-72390000D01*
X174575044Y-72233238D01*
X174563251Y-72204768D01*
X174517696Y-72094787D01*
X174517695Y-72094785D01*
X174514536Y-72087159D01*
X174512315Y-72084264D01*
X174418282Y-71961718D01*
X174393328Y-71942570D01*
X174380938Y-71931703D01*
X171590433Y-69141198D01*
X171579573Y-69128816D01*
X171560423Y-69103859D01*
X171549646Y-69095589D01*
X171441533Y-69012632D01*
X171434982Y-69007605D01*
X171288903Y-68947097D01*
X171171502Y-68931641D01*
X171132141Y-68926459D01*
X171123953Y-68927537D01*
X171100968Y-68930563D01*
X171084522Y-68931641D01*
X163178784Y-68931641D01*
X163110663Y-68911639D01*
X163089689Y-68894736D01*
X161927405Y-67732452D01*
X161893379Y-67670140D01*
X161890500Y-67643357D01*
X161890500Y-67310000D01*
X162289540Y-67310000D01*
X162309326Y-67498256D01*
X162367821Y-67678284D01*
X162371124Y-67684006D01*
X162371125Y-67684007D01*
X162399095Y-67732452D01*
X162462467Y-67842216D01*
X162466885Y-67847123D01*
X162466886Y-67847124D01*
X162526300Y-67913109D01*
X162589129Y-67982888D01*
X162742270Y-68094151D01*
X162915197Y-68171144D01*
X163002746Y-68189753D01*
X163093897Y-68209128D01*
X163093901Y-68209128D01*
X163100354Y-68210500D01*
X163289646Y-68210500D01*
X163296099Y-68209128D01*
X163296103Y-68209128D01*
X163387254Y-68189753D01*
X163474803Y-68171144D01*
X163647730Y-68094151D01*
X163800871Y-67982888D01*
X163863701Y-67913109D01*
X163923114Y-67847124D01*
X163923115Y-67847123D01*
X163927533Y-67842216D01*
X163990905Y-67732452D01*
X164018875Y-67684007D01*
X164018876Y-67684006D01*
X164022179Y-67678284D01*
X164061029Y-67558718D01*
X164091766Y-67508560D01*
X164808215Y-66792111D01*
X164816319Y-66784684D01*
X164836749Y-66767541D01*
X164845194Y-66760455D01*
X164851354Y-66749786D01*
X164864039Y-66727815D01*
X164869945Y-66718544D01*
X164879828Y-66704430D01*
X164891554Y-66687684D01*
X164894408Y-66677034D01*
X164895885Y-66673866D01*
X164897077Y-66670590D01*
X164902588Y-66661045D01*
X164909130Y-66623942D01*
X164911509Y-66613210D01*
X164914385Y-66602478D01*
X164921264Y-66576807D01*
X164920191Y-66564536D01*
X164917979Y-66539257D01*
X164917500Y-66528276D01*
X164917500Y-66349669D01*
X166232001Y-66349669D01*
X166232371Y-66356490D01*
X166237895Y-66407352D01*
X166241521Y-66422604D01*
X166286676Y-66543054D01*
X166295214Y-66558649D01*
X166371715Y-66660724D01*
X166384276Y-66673285D01*
X166486351Y-66749786D01*
X166501946Y-66758324D01*
X166622394Y-66803478D01*
X166637649Y-66807105D01*
X166688514Y-66812631D01*
X166695328Y-66813000D01*
X167367885Y-66813000D01*
X167383124Y-66808525D01*
X167384329Y-66807135D01*
X167386000Y-66799452D01*
X167386000Y-66794884D01*
X167894000Y-66794884D01*
X167898475Y-66810123D01*
X167899865Y-66811328D01*
X167907548Y-66812999D01*
X168584669Y-66812999D01*
X168591490Y-66812629D01*
X168642352Y-66807105D01*
X168657604Y-66803479D01*
X168778054Y-66758324D01*
X168793649Y-66749786D01*
X168895724Y-66673285D01*
X168908285Y-66660724D01*
X168984786Y-66558649D01*
X168993324Y-66543054D01*
X169038478Y-66422606D01*
X169042105Y-66407351D01*
X169047631Y-66356486D01*
X169048000Y-66349672D01*
X169048000Y-66106794D01*
X169068002Y-66038673D01*
X169121658Y-65992180D01*
X169191932Y-65982076D01*
X169256512Y-66011570D01*
X169276897Y-66034074D01*
X169339588Y-66122780D01*
X169484466Y-66263913D01*
X169652637Y-66376282D01*
X169657940Y-66378560D01*
X169657943Y-66378562D01*
X169827817Y-66451545D01*
X169838470Y-66456122D01*
X170035740Y-66500760D01*
X170041509Y-66500987D01*
X170041512Y-66500987D01*
X170117683Y-66503979D01*
X170237842Y-66508700D01*
X170324132Y-66496189D01*
X170432286Y-66480508D01*
X170432291Y-66480507D01*
X170438007Y-66479678D01*
X170443479Y-66477820D01*
X170443481Y-66477820D01*
X170624067Y-66416519D01*
X170624069Y-66416518D01*
X170629531Y-66414664D01*
X170806001Y-66315837D01*
X170826598Y-66298707D01*
X170930393Y-66212381D01*
X170961505Y-66186505D01*
X171076543Y-66048188D01*
X171087146Y-66035439D01*
X171090837Y-66031001D01*
X171189664Y-65854531D01*
X171202744Y-65815999D01*
X171243581Y-65757923D01*
X171309333Y-65731144D01*
X171322057Y-65730500D01*
X172065290Y-65730500D01*
X172076272Y-65730980D01*
X172102820Y-65733303D01*
X172102822Y-65733303D01*
X172113807Y-65734264D01*
X172150215Y-65724508D01*
X172160942Y-65722130D01*
X172164301Y-65721538D01*
X172198045Y-65715588D01*
X172207590Y-65710077D01*
X172210866Y-65708885D01*
X172214034Y-65707408D01*
X172224684Y-65704554D01*
X172255544Y-65682945D01*
X172264815Y-65677039D01*
X172287906Y-65663707D01*
X172297455Y-65658194D01*
X172321685Y-65629317D01*
X172329111Y-65621215D01*
X174178132Y-63772194D01*
X176316573Y-63772194D01*
X176326110Y-63834515D01*
X176328499Y-63844543D01*
X176399898Y-64062988D01*
X176403895Y-64072497D01*
X176510011Y-64276344D01*
X176515505Y-64285069D01*
X176653493Y-64468852D01*
X176660336Y-64476559D01*
X176826491Y-64635339D01*
X176834501Y-64641826D01*
X177024347Y-64771330D01*
X177033321Y-64776429D01*
X177241769Y-64873187D01*
X177251456Y-64876750D01*
X177472908Y-64938165D01*
X177483030Y-64940096D01*
X177527987Y-64944901D01*
X177542608Y-64942253D01*
X177545853Y-64930412D01*
X178054000Y-64930412D01*
X178058325Y-64945141D01*
X178070111Y-64947202D01*
X178081704Y-64946249D01*
X178091866Y-64944567D01*
X178314771Y-64888578D01*
X178324519Y-64885259D01*
X178535289Y-64793615D01*
X178544364Y-64788749D01*
X178737327Y-64663915D01*
X178745498Y-64657622D01*
X178915480Y-64502950D01*
X178922506Y-64495417D01*
X179064945Y-64315056D01*
X179070650Y-64306469D01*
X179181714Y-64105278D01*
X179185944Y-64095866D01*
X179262659Y-63879232D01*
X179265293Y-63869261D01*
X179282647Y-63771837D01*
X179281187Y-63758540D01*
X179266630Y-63754000D01*
X178072115Y-63754000D01*
X178056876Y-63758475D01*
X178055671Y-63759865D01*
X178054000Y-63767548D01*
X178054000Y-64930412D01*
X177545853Y-64930412D01*
X177546000Y-64929876D01*
X177546000Y-63772115D01*
X177541525Y-63756876D01*
X177540135Y-63755671D01*
X177532452Y-63754000D01*
X176331904Y-63754000D01*
X176318560Y-63757918D01*
X176316573Y-63772194D01*
X174178132Y-63772194D01*
X174206215Y-63744111D01*
X174214319Y-63736684D01*
X174234749Y-63719541D01*
X174243194Y-63712455D01*
X174262038Y-63679816D01*
X174262039Y-63679815D01*
X174267945Y-63670544D01*
X174283230Y-63648715D01*
X174289554Y-63639684D01*
X174292408Y-63629034D01*
X174293885Y-63625866D01*
X174295077Y-63622590D01*
X174300588Y-63613045D01*
X174307132Y-63575931D01*
X174309509Y-63565210D01*
X174309513Y-63565196D01*
X174319264Y-63528807D01*
X174315979Y-63491257D01*
X174315500Y-63480276D01*
X174315500Y-48532194D01*
X176316573Y-48532194D01*
X176326110Y-48594515D01*
X176328499Y-48604543D01*
X176399898Y-48822988D01*
X176403895Y-48832497D01*
X176510011Y-49036344D01*
X176515505Y-49045069D01*
X176653493Y-49228852D01*
X176660336Y-49236559D01*
X176826491Y-49395339D01*
X176834501Y-49401826D01*
X177024347Y-49531330D01*
X177033317Y-49536426D01*
X177142224Y-49586979D01*
X177195590Y-49633803D01*
X177215171Y-49702047D01*
X177194747Y-49770042D01*
X177155007Y-49808700D01*
X177152657Y-49810140D01*
X177147478Y-49812694D01*
X177142852Y-49816148D01*
X177142851Y-49816149D01*
X177021823Y-49906525D01*
X176977687Y-49939483D01*
X176955402Y-49963591D01*
X176874160Y-50051478D01*
X176833844Y-50095091D01*
X176720768Y-50274306D01*
X176642244Y-50471127D01*
X176641118Y-50476787D01*
X176641117Y-50476791D01*
X176630866Y-50528328D01*
X176600903Y-50678962D01*
X176600827Y-50684737D01*
X176600827Y-50684741D01*
X176600508Y-50709149D01*
X176598130Y-50890851D01*
X176634016Y-51099697D01*
X176707360Y-51298506D01*
X176815707Y-51480620D01*
X176955427Y-51639940D01*
X176959962Y-51643515D01*
X176959963Y-51643516D01*
X177106977Y-51759412D01*
X177121841Y-51771130D01*
X177126957Y-51773821D01*
X177126959Y-51773823D01*
X177278919Y-51853773D01*
X177309376Y-51869797D01*
X177511751Y-51932636D01*
X177517488Y-51933315D01*
X177680118Y-51952564D01*
X177680125Y-51952564D01*
X177683805Y-51953000D01*
X177901261Y-51953000D01*
X178058518Y-51938550D01*
X178064080Y-51936981D01*
X178064082Y-51936981D01*
X178256904Y-51882600D01*
X178256909Y-51882598D01*
X178262469Y-51881030D01*
X178267647Y-51878476D01*
X178267656Y-51878473D01*
X178287465Y-51868704D01*
X178357408Y-51856514D01*
X178422837Y-51884074D01*
X178432288Y-51892615D01*
X180095895Y-53556222D01*
X180103321Y-53564325D01*
X180127545Y-53593194D01*
X180145363Y-53603481D01*
X180160184Y-53612038D01*
X180169452Y-53617942D01*
X180200316Y-53639553D01*
X180210962Y-53642406D01*
X180214130Y-53643883D01*
X180217407Y-53645076D01*
X180226955Y-53650588D01*
X180256508Y-53655799D01*
X180264069Y-53657132D01*
X180274803Y-53659512D01*
X180311193Y-53669263D01*
X180322169Y-53668303D01*
X180322172Y-53668303D01*
X180348731Y-53665979D01*
X180359712Y-53665500D01*
X184193500Y-53665500D01*
X184261621Y-53685502D01*
X184308114Y-53739158D01*
X184319500Y-53791500D01*
X184319500Y-54259748D01*
X184320707Y-54265816D01*
X184327628Y-54300608D01*
X184331133Y-54318231D01*
X184375448Y-54384552D01*
X184441769Y-54428867D01*
X184453938Y-54431288D01*
X184453939Y-54431288D01*
X184472330Y-54434946D01*
X184500252Y-54440500D01*
X186339748Y-54440500D01*
X186367670Y-54434946D01*
X186386061Y-54431288D01*
X186386062Y-54431288D01*
X186398231Y-54428867D01*
X186464552Y-54384552D01*
X186508867Y-54318231D01*
X186512373Y-54300608D01*
X186519293Y-54265816D01*
X186520500Y-54259748D01*
X186520500Y-52420252D01*
X186512991Y-52382501D01*
X186511288Y-52373939D01*
X186511288Y-52373938D01*
X186508867Y-52361769D01*
X186464552Y-52295448D01*
X186430125Y-52272444D01*
X186408547Y-52258026D01*
X186398231Y-52251133D01*
X186386062Y-52248712D01*
X186386061Y-52248712D01*
X186345816Y-52240707D01*
X186339748Y-52239500D01*
X184500252Y-52239500D01*
X184494184Y-52240707D01*
X184453939Y-52248712D01*
X184453938Y-52248712D01*
X184441769Y-52251133D01*
X184431453Y-52258026D01*
X184409875Y-52272444D01*
X184375448Y-52295448D01*
X184331133Y-52361769D01*
X184328712Y-52373938D01*
X184328712Y-52373939D01*
X184327009Y-52382501D01*
X184319500Y-52420252D01*
X184319500Y-52888500D01*
X184299498Y-52956621D01*
X184245842Y-53003114D01*
X184193500Y-53014500D01*
X180527017Y-53014500D01*
X180458896Y-52994498D01*
X180437922Y-52977595D01*
X178911342Y-51451015D01*
X178877316Y-51388703D01*
X178883407Y-51315230D01*
X178955616Y-51134237D01*
X178957756Y-51128873D01*
X178961576Y-51109672D01*
X178997970Y-50926705D01*
X178997970Y-50926702D01*
X178999097Y-50921038D01*
X178999418Y-50896549D01*
X179001794Y-50714931D01*
X179001870Y-50709149D01*
X178985612Y-50614531D01*
X178966962Y-50505993D01*
X178966961Y-50505990D01*
X178965984Y-50500303D01*
X178892640Y-50301494D01*
X178808816Y-50160599D01*
X178787249Y-50124348D01*
X178787247Y-50124345D01*
X178784293Y-50119380D01*
X178644573Y-49960060D01*
X178613055Y-49935213D01*
X178482698Y-49832448D01*
X178482696Y-49832447D01*
X178478159Y-49828870D01*
X178450038Y-49814075D01*
X178399067Y-49764656D01*
X178382905Y-49695523D01*
X178406685Y-49628627D01*
X178458466Y-49587018D01*
X178535289Y-49553615D01*
X178544364Y-49548749D01*
X178737327Y-49423915D01*
X178745498Y-49417622D01*
X178915480Y-49262950D01*
X178922506Y-49255417D01*
X179064945Y-49075056D01*
X179070650Y-49066469D01*
X179181714Y-48865278D01*
X179185944Y-48855866D01*
X179262659Y-48639232D01*
X179265293Y-48629261D01*
X179282647Y-48531837D01*
X179281187Y-48518540D01*
X179266630Y-48514000D01*
X176331904Y-48514000D01*
X176318560Y-48517918D01*
X176316573Y-48532194D01*
X174315500Y-48532194D01*
X174315500Y-47988163D01*
X176317353Y-47988163D01*
X176318813Y-48001460D01*
X176333370Y-48006000D01*
X179268096Y-48006000D01*
X179281440Y-48002082D01*
X179283427Y-47987806D01*
X179273890Y-47925485D01*
X179271501Y-47915457D01*
X179200102Y-47697012D01*
X179196105Y-47687503D01*
X179089989Y-47483656D01*
X179084495Y-47474931D01*
X178946507Y-47291148D01*
X178939664Y-47283441D01*
X178773509Y-47124661D01*
X178765504Y-47118178D01*
X178743383Y-47103088D01*
X178698381Y-47048176D01*
X178690210Y-46977651D01*
X178721465Y-46913904D01*
X178782222Y-46877175D01*
X178807427Y-46873903D01*
X178807398Y-46873607D01*
X178813561Y-46873000D01*
X178819748Y-46873000D01*
X178825816Y-46871793D01*
X178866061Y-46863788D01*
X178866062Y-46863788D01*
X178878231Y-46861367D01*
X178944552Y-46817052D01*
X178988867Y-46750731D01*
X178996064Y-46714552D01*
X178999293Y-46698316D01*
X179000500Y-46692248D01*
X179000500Y-46171500D01*
X179020502Y-46103379D01*
X179074158Y-46056886D01*
X179126500Y-46045500D01*
X180152984Y-46045500D01*
X180221105Y-46065502D01*
X180242079Y-46082405D01*
X183905889Y-49746215D01*
X183913316Y-49754319D01*
X183937545Y-49783194D01*
X183947094Y-49788707D01*
X183970185Y-49802039D01*
X183979456Y-49807945D01*
X184010316Y-49829554D01*
X184020966Y-49832408D01*
X184024134Y-49833885D01*
X184027410Y-49835077D01*
X184036955Y-49840588D01*
X184070699Y-49846538D01*
X184074058Y-49847130D01*
X184084785Y-49849508D01*
X184121193Y-49859264D01*
X184132169Y-49858304D01*
X184132172Y-49858304D01*
X184158743Y-49855979D01*
X184169724Y-49855500D01*
X189930714Y-49855500D01*
X189998835Y-49875502D01*
X190030677Y-49904796D01*
X190054644Y-49936030D01*
X190071718Y-49958282D01*
X190197159Y-50054536D01*
X190343238Y-50115044D01*
X190500000Y-50135682D01*
X190508188Y-50134604D01*
X190648574Y-50116122D01*
X190656762Y-50115044D01*
X190664391Y-50111884D01*
X190795213Y-50057696D01*
X190795215Y-50057695D01*
X190802841Y-50054536D01*
X190807216Y-50051179D01*
X190874979Y-50034742D01*
X190942070Y-50057965D01*
X190985956Y-50113773D01*
X190994980Y-50160599D01*
X190994980Y-63127503D01*
X190974978Y-63195624D01*
X190958075Y-63216598D01*
X183782079Y-70392595D01*
X183719767Y-70426621D01*
X183692984Y-70429500D01*
X181735252Y-70429500D01*
X181729184Y-70430707D01*
X181688939Y-70438712D01*
X181688938Y-70438712D01*
X181676769Y-70441133D01*
X181610448Y-70485448D01*
X181566133Y-70551769D01*
X181554500Y-70610252D01*
X181554500Y-72899748D01*
X181566133Y-72958231D01*
X181610448Y-73024552D01*
X181676769Y-73068867D01*
X181688938Y-73071288D01*
X181688939Y-73071288D01*
X181729184Y-73079293D01*
X181735252Y-73080500D01*
X184024748Y-73080500D01*
X184030816Y-73079293D01*
X184071061Y-73071288D01*
X184071062Y-73071288D01*
X184083231Y-73068867D01*
X184149552Y-73024552D01*
X184193867Y-72958231D01*
X184205500Y-72899748D01*
X184205500Y-70942016D01*
X184225502Y-70873895D01*
X184242405Y-70852921D01*
X187887518Y-67207809D01*
X191536702Y-63558625D01*
X191544806Y-63551198D01*
X191558802Y-63539454D01*
X191573674Y-63526975D01*
X191579184Y-63517432D01*
X191579187Y-63517428D01*
X191592516Y-63494341D01*
X191598421Y-63485071D01*
X191601779Y-63480276D01*
X191620034Y-63454204D01*
X191622887Y-63443556D01*
X191624366Y-63440385D01*
X191625558Y-63437109D01*
X191631068Y-63427565D01*
X191637614Y-63390444D01*
X191639988Y-63379737D01*
X191649743Y-63343327D01*
X191647089Y-63312984D01*
X191646459Y-63305789D01*
X191645980Y-63294808D01*
X191645980Y-47009713D01*
X191646459Y-46998732D01*
X191648783Y-46972170D01*
X191648783Y-46972168D01*
X191649743Y-46961193D01*
X191639988Y-46924783D01*
X191637613Y-46914072D01*
X191637611Y-46914058D01*
X191631068Y-46876955D01*
X191625558Y-46867411D01*
X191624366Y-46864135D01*
X191622887Y-46860964D01*
X191620034Y-46850316D01*
X191598420Y-46819448D01*
X191592516Y-46810179D01*
X191579187Y-46787092D01*
X191579184Y-46787088D01*
X191573674Y-46777545D01*
X191544804Y-46753320D01*
X191536701Y-46745894D01*
X190294590Y-45503784D01*
X190287163Y-45495680D01*
X190270021Y-45475251D01*
X190270022Y-45475251D01*
X190262935Y-45466806D01*
X190238073Y-45452452D01*
X190230295Y-45447961D01*
X190221024Y-45442055D01*
X190199195Y-45426770D01*
X190190164Y-45420446D01*
X190179514Y-45417592D01*
X190176346Y-45416115D01*
X190173070Y-45414923D01*
X190163525Y-45409412D01*
X190129781Y-45403462D01*
X190126422Y-45402870D01*
X190115695Y-45400492D01*
X190079287Y-45390736D01*
X190068302Y-45391697D01*
X190068300Y-45391697D01*
X190041752Y-45394020D01*
X190030770Y-45394500D01*
X189580346Y-45394500D01*
X189512225Y-45374498D01*
X189465732Y-45320842D01*
X189455628Y-45250568D01*
X189485122Y-45185988D01*
X189491251Y-45179405D01*
X191795547Y-42875109D01*
X191801813Y-42869255D01*
X191839151Y-42836683D01*
X191844876Y-42831689D01*
X191849241Y-42825478D01*
X191849244Y-42825475D01*
X191881185Y-42780027D01*
X191885118Y-42774732D01*
X191919373Y-42731044D01*
X191924063Y-42725063D01*
X191927191Y-42718136D01*
X191928966Y-42715205D01*
X191936383Y-42702202D01*
X191937999Y-42699188D01*
X191942367Y-42692973D01*
X191945126Y-42685897D01*
X191945128Y-42685893D01*
X191965299Y-42634156D01*
X191967855Y-42628075D01*
X191990711Y-42577455D01*
X191990711Y-42577454D01*
X191993835Y-42570536D01*
X191995219Y-42563070D01*
X191996237Y-42559821D01*
X192000357Y-42545356D01*
X192001197Y-42542083D01*
X192003956Y-42535007D01*
X192012196Y-42472414D01*
X192013228Y-42465897D01*
X192023348Y-42411295D01*
X192024732Y-42403828D01*
X192021189Y-42342381D01*
X192020980Y-42335129D01*
X192020980Y-36858641D01*
X192021272Y-36850071D01*
X192024642Y-36800646D01*
X192024642Y-36800642D01*
X192025158Y-36793070D01*
X192023853Y-36785594D01*
X192023853Y-36785590D01*
X192014304Y-36730878D01*
X192013341Y-36724352D01*
X192006670Y-36669229D01*
X192006669Y-36669225D01*
X192005756Y-36661680D01*
X192003071Y-36654575D01*
X192002249Y-36651227D01*
X191998304Y-36636808D01*
X191997314Y-36633529D01*
X191996008Y-36626046D01*
X191970628Y-36568230D01*
X191968137Y-36562125D01*
X191955704Y-36529220D01*
X191945825Y-36503077D01*
X191941522Y-36496817D01*
X191939939Y-36493788D01*
X191932656Y-36480701D01*
X191930911Y-36477750D01*
X191927859Y-36470798D01*
X191890812Y-36422517D01*
X191889438Y-36420727D01*
X191885561Y-36415391D01*
X191854099Y-36369614D01*
X191854094Y-36369608D01*
X191849792Y-36363349D01*
X191803822Y-36322391D01*
X191798547Y-36317411D01*
X189931063Y-34449926D01*
X189925209Y-34443660D01*
X189892645Y-34406331D01*
X189887649Y-34400604D01*
X189836007Y-34364310D01*
X189830722Y-34360384D01*
X189787004Y-34326105D01*
X189787000Y-34326103D01*
X189781023Y-34321416D01*
X189774100Y-34318290D01*
X189771152Y-34316505D01*
X189758192Y-34309113D01*
X189755146Y-34307480D01*
X189748933Y-34303113D01*
X189690113Y-34280180D01*
X189684034Y-34277624D01*
X189626496Y-34251645D01*
X189619025Y-34250260D01*
X189615757Y-34249236D01*
X189601316Y-34245123D01*
X189598043Y-34244283D01*
X189590967Y-34241524D01*
X189546297Y-34235644D01*
X189528374Y-34233284D01*
X189521857Y-34232252D01*
X189467255Y-34222132D01*
X189459788Y-34220748D01*
X189452208Y-34221185D01*
X189452207Y-34221185D01*
X189398336Y-34224291D01*
X189391084Y-34224500D01*
X188798611Y-34224500D01*
X188730490Y-34204498D01*
X188709205Y-34187284D01*
X188707907Y-34185977D01*
X188704011Y-34181200D01*
X188581471Y-34079826D01*
X188550025Y-34053811D01*
X188550021Y-34053809D01*
X188545275Y-34049882D01*
X188364055Y-33951897D01*
X188167254Y-33890977D01*
X188161129Y-33890333D01*
X188161128Y-33890333D01*
X187968498Y-33870087D01*
X187968496Y-33870087D01*
X187962369Y-33869443D01*
X187875529Y-33877346D01*
X187763342Y-33887555D01*
X187763339Y-33887556D01*
X187757203Y-33888114D01*
X187559572Y-33946280D01*
X187554107Y-33949137D01*
X187524319Y-33964710D01*
X187377002Y-34041726D01*
X187372201Y-34045586D01*
X187372198Y-34045588D01*
X187221254Y-34166950D01*
X187216447Y-34170815D01*
X187084024Y-34328630D01*
X187081056Y-34334028D01*
X187081053Y-34334033D01*
X187013206Y-34457447D01*
X186984776Y-34509162D01*
X186922484Y-34705532D01*
X186921798Y-34711649D01*
X186921797Y-34711653D01*
X186906594Y-34847198D01*
X186899520Y-34910262D01*
X186900325Y-34919844D01*
X186915747Y-35103496D01*
X186916759Y-35115553D01*
X186918458Y-35121478D01*
X186969412Y-35299175D01*
X186973544Y-35313586D01*
X186976359Y-35319063D01*
X186976360Y-35319066D01*
X187064897Y-35491341D01*
X187067712Y-35496818D01*
X187195677Y-35658270D01*
X187200370Y-35662264D01*
X187200371Y-35662265D01*
X187338569Y-35779880D01*
X187352564Y-35791791D01*
X187532398Y-35892297D01*
X187616280Y-35919552D01*
X187722471Y-35954056D01*
X187722475Y-35954057D01*
X187728329Y-35955959D01*
X187932894Y-35980351D01*
X187939029Y-35979879D01*
X187939031Y-35979879D01*
X188011625Y-35974293D01*
X188138300Y-35964546D01*
X188144230Y-35962890D01*
X188144232Y-35962890D01*
X188330797Y-35910800D01*
X188330796Y-35910800D01*
X188336725Y-35909145D01*
X188342214Y-35906372D01*
X188342220Y-35906370D01*
X188515116Y-35819033D01*
X188520610Y-35816258D01*
X188557038Y-35787798D01*
X188678095Y-35693218D01*
X188678096Y-35693217D01*
X188682951Y-35689424D01*
X188700436Y-35669168D01*
X188760088Y-35630671D01*
X188795816Y-35625500D01*
X189073134Y-35625500D01*
X189141255Y-35645502D01*
X189162229Y-35662405D01*
X190583075Y-37083252D01*
X190617101Y-37145564D01*
X190619980Y-37172347D01*
X190619980Y-42017173D01*
X190599978Y-42085294D01*
X190583075Y-42106268D01*
X188056748Y-44632595D01*
X187994436Y-44666621D01*
X187967653Y-44669500D01*
X187090252Y-44669500D01*
X187084184Y-44670707D01*
X187043939Y-44678712D01*
X187043938Y-44678712D01*
X187031769Y-44681133D01*
X186965448Y-44725448D01*
X186921133Y-44791769D01*
X186909500Y-44850252D01*
X186909500Y-45134016D01*
X186889498Y-45202137D01*
X186835842Y-45248630D01*
X186765568Y-45258734D01*
X186700988Y-45229240D01*
X186667950Y-45184258D01*
X186622972Y-45080814D01*
X186618105Y-45071739D01*
X186502426Y-44892926D01*
X186496136Y-44884757D01*
X186352806Y-44727240D01*
X186345273Y-44720215D01*
X186178139Y-44588222D01*
X186169552Y-44582517D01*
X185983117Y-44479599D01*
X185973705Y-44475369D01*
X185772959Y-44404280D01*
X185762988Y-44401646D01*
X185691837Y-44388972D01*
X185678540Y-44390432D01*
X185674000Y-44404989D01*
X185674000Y-47038517D01*
X185678064Y-47052359D01*
X185691478Y-47054393D01*
X185698184Y-47053534D01*
X185708262Y-47051392D01*
X185912255Y-46990191D01*
X185921842Y-46986433D01*
X186113095Y-46892739D01*
X186121945Y-46887464D01*
X186295328Y-46763792D01*
X186303200Y-46757139D01*
X186454052Y-46606812D01*
X186460730Y-46598965D01*
X186585003Y-46426020D01*
X186590313Y-46417183D01*
X186670543Y-46254851D01*
X186718657Y-46202644D01*
X186787358Y-46184737D01*
X186854834Y-46206816D01*
X186899663Y-46261870D01*
X186909500Y-46310678D01*
X186909500Y-46589748D01*
X186921133Y-46648231D01*
X186965448Y-46714552D01*
X186975761Y-46721443D01*
X187018179Y-46749786D01*
X187031769Y-46758867D01*
X187043938Y-46761288D01*
X187043939Y-46761288D01*
X187084184Y-46769293D01*
X187090252Y-46770500D01*
X188829748Y-46770500D01*
X188835816Y-46769293D01*
X188876061Y-46761288D01*
X188876062Y-46761288D01*
X188888231Y-46758867D01*
X188901822Y-46749786D01*
X188944239Y-46721443D01*
X188954552Y-46714552D01*
X188998867Y-46648231D01*
X189010500Y-46589748D01*
X189010500Y-46171500D01*
X189030502Y-46103379D01*
X189084158Y-46056886D01*
X189136500Y-46045500D01*
X189863464Y-46045500D01*
X189931585Y-46065502D01*
X189952559Y-46082405D01*
X190958075Y-47087922D01*
X190992101Y-47150234D01*
X190994980Y-47177017D01*
X190994980Y-48899401D01*
X190974978Y-48967522D01*
X190921322Y-49014015D01*
X190851048Y-49024119D01*
X190807519Y-49009054D01*
X190802841Y-49005464D01*
X190795215Y-49002305D01*
X190795213Y-49002304D01*
X190664391Y-48948116D01*
X190656762Y-48944956D01*
X190500000Y-48924318D01*
X190343238Y-48944956D01*
X190197159Y-49005464D01*
X190071718Y-49101718D01*
X190066695Y-49108264D01*
X190030677Y-49155204D01*
X189973339Y-49197071D01*
X189930714Y-49204500D01*
X184337016Y-49204500D01*
X184268895Y-49184498D01*
X184247921Y-49167595D01*
X181068292Y-45987966D01*
X184088257Y-45987966D01*
X184118565Y-46122446D01*
X184121645Y-46132275D01*
X184201770Y-46329603D01*
X184206413Y-46338794D01*
X184317694Y-46520388D01*
X184323777Y-46528699D01*
X184463213Y-46689667D01*
X184470580Y-46696883D01*
X184634434Y-46832916D01*
X184642881Y-46838831D01*
X184826756Y-46946279D01*
X184836042Y-46950729D01*
X185035001Y-47026703D01*
X185044899Y-47029579D01*
X185148250Y-47050606D01*
X185162299Y-47049410D01*
X185166000Y-47039065D01*
X185166000Y-45992115D01*
X185161525Y-45976876D01*
X185160135Y-45975671D01*
X185152452Y-45974000D01*
X184103225Y-45974000D01*
X184089694Y-45977973D01*
X184088257Y-45987966D01*
X181068292Y-45987966D01*
X180584111Y-45503785D01*
X180576684Y-45495681D01*
X180559541Y-45475251D01*
X180559542Y-45475251D01*
X180552455Y-45466806D01*
X180530591Y-45454183D01*
X184084389Y-45454183D01*
X184085912Y-45462607D01*
X184098292Y-45466000D01*
X185147885Y-45466000D01*
X185163124Y-45461525D01*
X185164329Y-45460135D01*
X185166000Y-45452452D01*
X185166000Y-44403102D01*
X185162082Y-44389758D01*
X185147806Y-44387771D01*
X185109324Y-44393660D01*
X185099288Y-44396051D01*
X184896868Y-44462212D01*
X184887359Y-44466209D01*
X184698463Y-44564542D01*
X184689738Y-44570036D01*
X184519433Y-44697905D01*
X184511726Y-44704748D01*
X184364590Y-44858717D01*
X184358104Y-44866727D01*
X184238098Y-45042649D01*
X184233000Y-45051623D01*
X184143338Y-45244783D01*
X184139775Y-45254470D01*
X184084389Y-45454183D01*
X180530591Y-45454183D01*
X180527593Y-45452452D01*
X180519815Y-45447961D01*
X180510544Y-45442055D01*
X180488715Y-45426770D01*
X180479684Y-45420446D01*
X180469034Y-45417592D01*
X180465866Y-45416115D01*
X180462590Y-45414923D01*
X180453045Y-45409412D01*
X180419301Y-45403462D01*
X180415942Y-45402870D01*
X180405215Y-45400492D01*
X180368807Y-45390736D01*
X180357822Y-45391697D01*
X180357820Y-45391697D01*
X180331272Y-45394020D01*
X180320290Y-45394500D01*
X179126500Y-45394500D01*
X179058379Y-45374498D01*
X179011886Y-45320842D01*
X179000500Y-45268500D01*
X179000500Y-44747752D01*
X178996420Y-44727240D01*
X178991288Y-44701439D01*
X178991288Y-44701438D01*
X178988867Y-44689269D01*
X178944552Y-44622948D01*
X178878231Y-44578633D01*
X178866062Y-44576212D01*
X178866061Y-44576212D01*
X178825816Y-44568207D01*
X178819748Y-44567000D01*
X178447516Y-44567000D01*
X178379395Y-44546998D01*
X178332902Y-44493342D01*
X178322798Y-44423068D01*
X178352292Y-44358488D01*
X178358421Y-44351905D01*
X179380136Y-43330191D01*
X180556222Y-42154105D01*
X180564326Y-42146678D01*
X180584749Y-42129541D01*
X180593194Y-42122455D01*
X180612039Y-42089815D01*
X180617943Y-42080547D01*
X180633231Y-42058713D01*
X180639553Y-42049684D01*
X180642406Y-42039038D01*
X180643883Y-42035870D01*
X180645076Y-42032593D01*
X180650588Y-42023045D01*
X180657132Y-41985931D01*
X180659512Y-41975196D01*
X180666410Y-41949454D01*
X180669263Y-41938807D01*
X180665979Y-41901269D01*
X180665500Y-41890288D01*
X180665500Y-41562623D01*
X180673708Y-41534669D01*
X184062001Y-41534669D01*
X184062371Y-41541490D01*
X184067895Y-41592352D01*
X184071521Y-41607604D01*
X184116676Y-41728054D01*
X184125214Y-41743649D01*
X184201715Y-41845724D01*
X184214276Y-41858285D01*
X184316351Y-41934786D01*
X184331946Y-41943324D01*
X184452394Y-41988478D01*
X184467649Y-41992105D01*
X184518514Y-41997631D01*
X184525328Y-41998000D01*
X185147885Y-41998000D01*
X185163124Y-41993525D01*
X185164329Y-41992135D01*
X185166000Y-41984452D01*
X185166000Y-41979884D01*
X185674000Y-41979884D01*
X185678475Y-41995123D01*
X185679865Y-41996328D01*
X185687548Y-41997999D01*
X186314669Y-41997999D01*
X186321490Y-41997629D01*
X186372352Y-41992105D01*
X186387604Y-41988479D01*
X186508054Y-41943324D01*
X186523649Y-41934786D01*
X186625724Y-41858285D01*
X186638285Y-41845724D01*
X186714786Y-41743649D01*
X186723324Y-41728054D01*
X186768478Y-41607606D01*
X186772105Y-41592351D01*
X186777631Y-41541486D01*
X186778000Y-41534672D01*
X186778000Y-41159192D01*
X186798002Y-41091071D01*
X186851658Y-41044578D01*
X186921932Y-41034474D01*
X186986512Y-41063968D01*
X187016067Y-41101598D01*
X187072712Y-41211818D01*
X187200677Y-41373270D01*
X187205370Y-41377264D01*
X187205371Y-41377265D01*
X187347537Y-41498257D01*
X187357564Y-41506791D01*
X187362942Y-41509797D01*
X187362944Y-41509798D01*
X187394432Y-41527396D01*
X187537398Y-41607297D01*
X187632238Y-41638113D01*
X187727471Y-41669056D01*
X187727475Y-41669057D01*
X187733329Y-41670959D01*
X187937894Y-41695351D01*
X187944029Y-41694879D01*
X187944031Y-41694879D01*
X188000039Y-41690569D01*
X188143300Y-41679546D01*
X188149230Y-41677890D01*
X188149232Y-41677890D01*
X188335797Y-41625800D01*
X188335796Y-41625800D01*
X188341725Y-41624145D01*
X188347214Y-41621372D01*
X188347220Y-41621370D01*
X188493557Y-41547449D01*
X188525610Y-41531258D01*
X188564155Y-41501144D01*
X188638330Y-41443192D01*
X188687951Y-41404424D01*
X188699236Y-41391351D01*
X188818540Y-41253134D01*
X188818540Y-41253133D01*
X188822564Y-41248472D01*
X188843387Y-41211818D01*
X188883347Y-41141475D01*
X188924323Y-41069344D01*
X188989351Y-40873863D01*
X189015171Y-40669474D01*
X189015583Y-40640000D01*
X188995480Y-40434970D01*
X188935935Y-40237749D01*
X188839218Y-40055849D01*
X188758541Y-39956929D01*
X188712906Y-39900975D01*
X188712903Y-39900972D01*
X188709011Y-39896200D01*
X188686037Y-39877194D01*
X188555025Y-39768811D01*
X188555021Y-39768809D01*
X188550275Y-39764882D01*
X188369055Y-39666897D01*
X188172254Y-39605977D01*
X188166129Y-39605333D01*
X188166128Y-39605333D01*
X187973498Y-39585087D01*
X187973496Y-39585087D01*
X187967369Y-39584443D01*
X187880529Y-39592346D01*
X187768342Y-39602555D01*
X187768339Y-39602556D01*
X187762203Y-39603114D01*
X187564572Y-39661280D01*
X187382002Y-39756726D01*
X187377201Y-39760586D01*
X187377198Y-39760588D01*
X187278162Y-39840215D01*
X187221447Y-39885815D01*
X187089024Y-40043630D01*
X187086054Y-40049033D01*
X187086053Y-40049034D01*
X187014414Y-40179345D01*
X186964068Y-40229404D01*
X186894651Y-40244297D01*
X186828202Y-40219296D01*
X186785818Y-40162339D01*
X186777999Y-40118644D01*
X186777999Y-39745331D01*
X186777629Y-39738510D01*
X186772105Y-39687648D01*
X186768479Y-39672396D01*
X186723324Y-39551946D01*
X186714786Y-39536351D01*
X186638285Y-39434276D01*
X186625724Y-39421715D01*
X186523649Y-39345214D01*
X186508054Y-39336676D01*
X186387606Y-39291522D01*
X186372351Y-39287895D01*
X186321486Y-39282369D01*
X186314672Y-39282000D01*
X185692115Y-39282000D01*
X185676876Y-39286475D01*
X185675671Y-39287865D01*
X185674000Y-39295548D01*
X185674000Y-41979884D01*
X185166000Y-41979884D01*
X185166000Y-40912115D01*
X185161525Y-40896876D01*
X185160135Y-40895671D01*
X185152452Y-40894000D01*
X184080116Y-40894000D01*
X184064877Y-40898475D01*
X184063672Y-40899865D01*
X184062001Y-40907548D01*
X184062001Y-41534669D01*
X180673708Y-41534669D01*
X180685502Y-41494502D01*
X180740250Y-41447517D01*
X180768643Y-41434875D01*
X180786700Y-41426836D01*
X180786702Y-41426835D01*
X180792730Y-41424151D01*
X180945871Y-41312888D01*
X180967132Y-41289276D01*
X181068114Y-41177124D01*
X181068115Y-41177123D01*
X181072533Y-41172216D01*
X181135305Y-41063491D01*
X181163875Y-41014007D01*
X181163876Y-41014006D01*
X181167179Y-41008284D01*
X181225674Y-40828256D01*
X181245460Y-40640000D01*
X181225674Y-40451744D01*
X181198426Y-40367885D01*
X184062000Y-40367885D01*
X184066475Y-40383124D01*
X184067865Y-40384329D01*
X184075548Y-40386000D01*
X185147885Y-40386000D01*
X185163124Y-40381525D01*
X185164329Y-40380135D01*
X185166000Y-40372452D01*
X185166000Y-39300116D01*
X185161525Y-39284877D01*
X185160135Y-39283672D01*
X185152452Y-39282001D01*
X184525331Y-39282001D01*
X184518510Y-39282371D01*
X184467648Y-39287895D01*
X184452396Y-39291521D01*
X184331946Y-39336676D01*
X184316351Y-39345214D01*
X184214276Y-39421715D01*
X184201715Y-39434276D01*
X184125214Y-39536351D01*
X184116676Y-39551946D01*
X184071522Y-39672394D01*
X184067895Y-39687649D01*
X184062369Y-39738514D01*
X184062000Y-39745328D01*
X184062000Y-40367885D01*
X181198426Y-40367885D01*
X181167179Y-40271716D01*
X181072533Y-40107784D01*
X181068114Y-40102876D01*
X180950286Y-39972015D01*
X180950284Y-39972014D01*
X180945871Y-39967112D01*
X180899459Y-39933392D01*
X180798072Y-39859730D01*
X180798071Y-39859729D01*
X180792730Y-39855849D01*
X180619803Y-39778856D01*
X180515689Y-39756726D01*
X180441103Y-39740872D01*
X180441099Y-39740872D01*
X180434646Y-39739500D01*
X180245354Y-39739500D01*
X180238901Y-39740872D01*
X180238897Y-39740872D01*
X180164311Y-39756726D01*
X180060197Y-39778856D01*
X179887270Y-39855849D01*
X179881929Y-39859729D01*
X179881928Y-39859730D01*
X179780541Y-39933392D01*
X179734129Y-39967112D01*
X179729716Y-39972014D01*
X179729714Y-39972015D01*
X179611886Y-40102876D01*
X179607467Y-40107784D01*
X179512821Y-40271716D01*
X179454326Y-40451744D01*
X179434540Y-40640000D01*
X179454326Y-40828256D01*
X179512821Y-41008284D01*
X179516124Y-41014006D01*
X179516125Y-41014007D01*
X179544695Y-41063491D01*
X179607467Y-41172216D01*
X179611885Y-41177123D01*
X179611886Y-41177124D01*
X179712869Y-41289276D01*
X179734129Y-41312888D01*
X179887270Y-41424151D01*
X179893298Y-41426835D01*
X179893300Y-41426836D01*
X179911357Y-41434875D01*
X179939750Y-41447517D01*
X179993844Y-41493496D01*
X180014500Y-41562623D01*
X180014500Y-41722983D01*
X179994498Y-41791104D01*
X179977595Y-41812078D01*
X177583784Y-44205890D01*
X177575681Y-44213316D01*
X177546806Y-44237545D01*
X177541293Y-44247094D01*
X177527961Y-44270185D01*
X177522055Y-44279456D01*
X177500446Y-44310316D01*
X177497592Y-44320966D01*
X177496115Y-44324134D01*
X177494923Y-44327410D01*
X177489412Y-44336955D01*
X177483462Y-44370699D01*
X177482870Y-44374058D01*
X177480492Y-44384785D01*
X177470736Y-44421193D01*
X177471697Y-44432180D01*
X177470737Y-44443156D01*
X177468901Y-44442995D01*
X177457519Y-44499624D01*
X177408119Y-44550616D01*
X177345988Y-44567000D01*
X176780252Y-44567000D01*
X176774184Y-44568207D01*
X176733939Y-44576212D01*
X176733938Y-44576212D01*
X176721769Y-44578633D01*
X176655448Y-44622948D01*
X176611133Y-44689269D01*
X176608712Y-44701438D01*
X176608712Y-44701439D01*
X176603580Y-44727240D01*
X176599500Y-44747752D01*
X176599500Y-46692248D01*
X176600707Y-46698316D01*
X176603937Y-46714552D01*
X176611133Y-46750731D01*
X176655448Y-46817052D01*
X176721769Y-46861367D01*
X176733938Y-46863788D01*
X176733939Y-46863788D01*
X176774184Y-46871793D01*
X176780252Y-46873000D01*
X176786439Y-46873000D01*
X176792602Y-46873607D01*
X176792369Y-46875976D01*
X176850354Y-46893002D01*
X176896847Y-46946658D01*
X176906951Y-47016932D01*
X176877457Y-47081512D01*
X176859110Y-47098830D01*
X176854500Y-47102380D01*
X176684520Y-47257050D01*
X176677494Y-47264583D01*
X176535055Y-47444944D01*
X176529350Y-47453531D01*
X176418286Y-47654722D01*
X176414056Y-47664134D01*
X176337341Y-47880768D01*
X176334707Y-47890739D01*
X176317353Y-47988163D01*
X174315500Y-47988163D01*
X174315500Y-44637016D01*
X174335502Y-44568895D01*
X174352405Y-44547921D01*
X177375229Y-41525097D01*
X177437541Y-41491071D01*
X177508356Y-41496136D01*
X177513546Y-41498257D01*
X177514163Y-41498457D01*
X177520197Y-41501144D01*
X177612776Y-41520822D01*
X177698897Y-41539128D01*
X177698901Y-41539128D01*
X177705354Y-41540500D01*
X177894646Y-41540500D01*
X177901099Y-41539128D01*
X177901103Y-41539128D01*
X177981788Y-41521978D01*
X178079803Y-41501144D01*
X178252730Y-41424151D01*
X178405871Y-41312888D01*
X178427132Y-41289276D01*
X178528114Y-41177124D01*
X178528115Y-41177123D01*
X178532533Y-41172216D01*
X178595305Y-41063491D01*
X178623875Y-41014007D01*
X178623876Y-41014006D01*
X178627179Y-41008284D01*
X178685674Y-40828256D01*
X178705460Y-40640000D01*
X178685674Y-40451744D01*
X178627179Y-40271716D01*
X178532533Y-40107784D01*
X178528114Y-40102876D01*
X178410286Y-39972015D01*
X178410284Y-39972014D01*
X178405871Y-39967112D01*
X178359459Y-39933392D01*
X178258072Y-39859730D01*
X178258071Y-39859729D01*
X178252730Y-39855849D01*
X178079803Y-39778856D01*
X177975689Y-39756726D01*
X177901103Y-39740872D01*
X177901099Y-39740872D01*
X177894646Y-39739500D01*
X177705354Y-39739500D01*
X177698901Y-39740872D01*
X177698897Y-39740872D01*
X177624311Y-39756726D01*
X177520197Y-39778856D01*
X177347270Y-39855849D01*
X177341929Y-39859729D01*
X177341928Y-39859730D01*
X177240541Y-39933392D01*
X177194129Y-39967112D01*
X177189716Y-39972014D01*
X177189714Y-39972015D01*
X177071886Y-40102876D01*
X177067467Y-40107784D01*
X176972821Y-40271716D01*
X176914326Y-40451744D01*
X176894540Y-40640000D01*
X176914326Y-40828256D01*
X176929145Y-40873863D01*
X176948610Y-40933771D01*
X176950638Y-41004738D01*
X176917872Y-41061802D01*
X173773785Y-44205889D01*
X173765681Y-44213316D01*
X173736806Y-44237545D01*
X173731293Y-44247094D01*
X173717961Y-44270185D01*
X173712055Y-44279456D01*
X173690446Y-44310316D01*
X173687592Y-44320966D01*
X173686115Y-44324134D01*
X173684923Y-44327410D01*
X173679412Y-44336955D01*
X173673462Y-44370699D01*
X173672870Y-44374058D01*
X173670492Y-44384785D01*
X173660736Y-44421193D01*
X173661697Y-44432178D01*
X173661697Y-44432180D01*
X173664020Y-44458728D01*
X173664500Y-44469710D01*
X173664500Y-63312984D01*
X173644498Y-63381105D01*
X173627595Y-63402079D01*
X171987079Y-65042595D01*
X171924767Y-65076621D01*
X171897984Y-65079500D01*
X171324929Y-65079500D01*
X171256808Y-65059498D01*
X171212634Y-65008518D01*
X171211807Y-65008926D01*
X171124906Y-64832708D01*
X171122351Y-64827527D01*
X171104079Y-64803057D01*
X171004788Y-64670091D01*
X171004787Y-64670090D01*
X171001335Y-64665467D01*
X170997099Y-64661551D01*
X170857053Y-64532094D01*
X170857051Y-64532092D01*
X170852812Y-64528174D01*
X170825374Y-64510862D01*
X170686637Y-64423325D01*
X170681757Y-64420246D01*
X170493898Y-64345298D01*
X170295526Y-64305839D01*
X170289752Y-64305763D01*
X170289748Y-64305763D01*
X170187257Y-64304422D01*
X170093286Y-64303192D01*
X170087589Y-64304171D01*
X170087588Y-64304171D01*
X169899646Y-64336465D01*
X169899645Y-64336465D01*
X169893949Y-64337444D01*
X169704193Y-64407449D01*
X169699232Y-64410401D01*
X169699231Y-64410401D01*
X169600984Y-64468852D01*
X169530371Y-64510862D01*
X169378305Y-64644220D01*
X169274081Y-64776429D01*
X169272949Y-64777865D01*
X169215068Y-64818978D01*
X169144148Y-64822272D01*
X169082705Y-64786701D01*
X169050248Y-64723558D01*
X169047999Y-64699859D01*
X169047999Y-64460331D01*
X169047629Y-64453510D01*
X169042105Y-64402648D01*
X169038479Y-64387396D01*
X168993324Y-64266946D01*
X168984786Y-64251351D01*
X168908285Y-64149276D01*
X168895724Y-64136715D01*
X168793649Y-64060214D01*
X168778054Y-64051676D01*
X168657606Y-64006522D01*
X168642351Y-64002895D01*
X168591486Y-63997369D01*
X168584672Y-63997000D01*
X167912115Y-63997000D01*
X167896876Y-64001475D01*
X167895671Y-64002865D01*
X167894000Y-64010548D01*
X167894000Y-66794884D01*
X167386000Y-66794884D01*
X167386000Y-65677115D01*
X167381525Y-65661876D01*
X167380135Y-65660671D01*
X167372452Y-65659000D01*
X166250116Y-65659000D01*
X166234877Y-65663475D01*
X166233672Y-65664865D01*
X166232001Y-65672548D01*
X166232001Y-66349669D01*
X164917500Y-66349669D01*
X164917500Y-65132885D01*
X166232000Y-65132885D01*
X166236475Y-65148124D01*
X166237865Y-65149329D01*
X166245548Y-65151000D01*
X167367885Y-65151000D01*
X167383124Y-65146525D01*
X167384329Y-65145135D01*
X167386000Y-65137452D01*
X167386000Y-64015116D01*
X167381525Y-63999877D01*
X167380135Y-63998672D01*
X167372452Y-63997001D01*
X166695331Y-63997001D01*
X166688510Y-63997371D01*
X166637648Y-64002895D01*
X166622396Y-64006521D01*
X166501946Y-64051676D01*
X166486351Y-64060214D01*
X166384276Y-64136715D01*
X166371715Y-64149276D01*
X166295214Y-64251351D01*
X166286676Y-64266946D01*
X166241522Y-64387394D01*
X166237895Y-64402649D01*
X166232369Y-64453514D01*
X166232000Y-64460328D01*
X166232000Y-65132885D01*
X164917500Y-65132885D01*
X164917500Y-58729669D01*
X166232001Y-58729669D01*
X166232371Y-58736490D01*
X166237895Y-58787352D01*
X166241521Y-58802604D01*
X166286676Y-58923054D01*
X166295214Y-58938649D01*
X166371715Y-59040724D01*
X166384276Y-59053285D01*
X166486351Y-59129786D01*
X166501946Y-59138324D01*
X166622394Y-59183478D01*
X166637649Y-59187105D01*
X166688514Y-59192631D01*
X166695328Y-59193000D01*
X167367885Y-59193000D01*
X167383124Y-59188525D01*
X167384329Y-59187135D01*
X167386000Y-59179452D01*
X167386000Y-59174884D01*
X167894000Y-59174884D01*
X167898475Y-59190123D01*
X167899865Y-59191328D01*
X167907548Y-59192999D01*
X168584669Y-59192999D01*
X168591490Y-59192629D01*
X168642352Y-59187105D01*
X168657604Y-59183479D01*
X168778054Y-59138324D01*
X168793649Y-59129786D01*
X168895724Y-59053285D01*
X168908285Y-59040724D01*
X168984786Y-58938649D01*
X168993324Y-58923054D01*
X169038478Y-58802606D01*
X169042105Y-58787351D01*
X169047631Y-58736486D01*
X169048000Y-58729672D01*
X169048000Y-58486794D01*
X169068002Y-58418673D01*
X169121658Y-58372180D01*
X169191932Y-58362076D01*
X169256512Y-58391570D01*
X169276897Y-58414074D01*
X169308903Y-58459361D01*
X169339588Y-58502780D01*
X169484466Y-58643913D01*
X169652637Y-58756282D01*
X169657940Y-58758560D01*
X169657943Y-58758562D01*
X169818362Y-58827483D01*
X169838470Y-58836122D01*
X170035740Y-58880760D01*
X170041509Y-58880987D01*
X170041512Y-58880987D01*
X170117683Y-58883979D01*
X170237842Y-58888700D01*
X170324132Y-58876189D01*
X170432286Y-58860508D01*
X170432291Y-58860507D01*
X170438007Y-58859678D01*
X170443479Y-58857820D01*
X170443481Y-58857820D01*
X170624067Y-58796519D01*
X170624069Y-58796518D01*
X170629531Y-58794664D01*
X170806001Y-58695837D01*
X170868433Y-58643913D01*
X170957073Y-58570191D01*
X170961505Y-58566505D01*
X171090837Y-58411001D01*
X171189664Y-58234531D01*
X171231731Y-58110608D01*
X171252820Y-58048481D01*
X171252820Y-58048479D01*
X171254678Y-58043007D01*
X171255507Y-58037291D01*
X171255508Y-58037286D01*
X171283167Y-57846516D01*
X171283700Y-57842842D01*
X171285215Y-57785000D01*
X171266708Y-57583591D01*
X171211807Y-57388926D01*
X171122351Y-57207527D01*
X171104079Y-57183057D01*
X171004788Y-57050091D01*
X171004787Y-57050090D01*
X171001335Y-57045467D01*
X170997099Y-57041551D01*
X170857053Y-56912094D01*
X170857051Y-56912092D01*
X170852812Y-56908174D01*
X170825374Y-56890862D01*
X170686637Y-56803325D01*
X170681757Y-56800246D01*
X170493898Y-56725298D01*
X170295526Y-56685839D01*
X170289752Y-56685763D01*
X170289748Y-56685763D01*
X170187257Y-56684422D01*
X170093286Y-56683192D01*
X170087589Y-56684171D01*
X170087588Y-56684171D01*
X169899646Y-56716465D01*
X169899645Y-56716465D01*
X169893949Y-56717444D01*
X169704193Y-56787449D01*
X169699232Y-56790401D01*
X169699231Y-56790401D01*
X169552051Y-56877964D01*
X169530371Y-56890862D01*
X169378305Y-57024220D01*
X169272949Y-57157865D01*
X169215068Y-57198978D01*
X169144148Y-57202272D01*
X169082705Y-57166701D01*
X169050248Y-57103558D01*
X169047999Y-57079859D01*
X169047999Y-56840331D01*
X169047629Y-56833510D01*
X169042105Y-56782648D01*
X169038479Y-56767396D01*
X168993324Y-56646946D01*
X168984786Y-56631351D01*
X168908285Y-56529276D01*
X168895724Y-56516715D01*
X168793649Y-56440214D01*
X168778054Y-56431676D01*
X168657606Y-56386522D01*
X168642351Y-56382895D01*
X168591486Y-56377369D01*
X168584672Y-56377000D01*
X167912115Y-56377000D01*
X167896876Y-56381475D01*
X167895671Y-56382865D01*
X167894000Y-56390548D01*
X167894000Y-59174884D01*
X167386000Y-59174884D01*
X167386000Y-58057115D01*
X167381525Y-58041876D01*
X167380135Y-58040671D01*
X167372452Y-58039000D01*
X166250116Y-58039000D01*
X166234877Y-58043475D01*
X166233672Y-58044865D01*
X166232001Y-58052548D01*
X166232001Y-58729669D01*
X164917500Y-58729669D01*
X164917500Y-57512885D01*
X166232000Y-57512885D01*
X166236475Y-57528124D01*
X166237865Y-57529329D01*
X166245548Y-57531000D01*
X167367885Y-57531000D01*
X167383124Y-57526525D01*
X167384329Y-57525135D01*
X167386000Y-57517452D01*
X167386000Y-56395116D01*
X167381525Y-56379877D01*
X167380135Y-56378672D01*
X167372452Y-56377001D01*
X166695331Y-56377001D01*
X166688510Y-56377371D01*
X166637648Y-56382895D01*
X166622396Y-56386521D01*
X166501946Y-56431676D01*
X166486351Y-56440214D01*
X166384276Y-56516715D01*
X166371715Y-56529276D01*
X166295214Y-56631351D01*
X166286676Y-56646946D01*
X166241522Y-56767394D01*
X166237895Y-56782649D01*
X166232369Y-56833514D01*
X166232000Y-56840328D01*
X166232000Y-57512885D01*
X164917500Y-57512885D01*
X164917500Y-56575016D01*
X164937502Y-56506895D01*
X164954405Y-56485921D01*
X166197617Y-55242709D01*
X166259929Y-55208683D01*
X166303157Y-55206882D01*
X166370000Y-55215682D01*
X166378188Y-55214604D01*
X166518574Y-55196122D01*
X166526762Y-55195044D01*
X166672841Y-55134536D01*
X166798282Y-55038282D01*
X166894536Y-54912841D01*
X166955044Y-54766762D01*
X166975682Y-54610000D01*
X166958838Y-54482057D01*
X166956122Y-54461426D01*
X166955044Y-54453238D01*
X166894536Y-54307159D01*
X166798282Y-54181718D01*
X166672841Y-54085464D01*
X166526762Y-54024956D01*
X166370000Y-54004318D01*
X166213238Y-54024956D01*
X166067159Y-54085464D01*
X165941718Y-54181718D01*
X165845464Y-54307159D01*
X165784956Y-54453238D01*
X165783878Y-54461426D01*
X165781162Y-54482057D01*
X165764318Y-54610000D01*
X165765396Y-54618188D01*
X165773118Y-54676842D01*
X165762179Y-54746990D01*
X165737291Y-54782383D01*
X164375785Y-56143889D01*
X164367681Y-56151316D01*
X164338806Y-56175545D01*
X164333293Y-56185094D01*
X164319961Y-56208185D01*
X164314055Y-56217456D01*
X164292446Y-56248316D01*
X164289592Y-56258966D01*
X164288115Y-56262134D01*
X164286923Y-56265410D01*
X164281412Y-56274955D01*
X164275462Y-56308699D01*
X164274870Y-56312058D01*
X164272492Y-56322785D01*
X164262736Y-56359193D01*
X164263697Y-56370178D01*
X164263697Y-56370180D01*
X164266020Y-56396728D01*
X164266500Y-56407710D01*
X164266500Y-59279384D01*
X164246498Y-59347505D01*
X164192842Y-59393998D01*
X164122568Y-59404102D01*
X164057988Y-59374608D01*
X164025393Y-59330633D01*
X164024221Y-59328001D01*
X164022179Y-59321716D01*
X163927533Y-59157784D01*
X163910011Y-59138324D01*
X163805286Y-59022015D01*
X163805284Y-59022014D01*
X163800871Y-59017112D01*
X163647730Y-58905849D01*
X163474803Y-58828856D01*
X163362112Y-58804903D01*
X163296103Y-58790872D01*
X163296099Y-58790872D01*
X163289646Y-58789500D01*
X163100354Y-58789500D01*
X163093901Y-58790872D01*
X163093897Y-58790872D01*
X163027888Y-58804903D01*
X162915197Y-58828856D01*
X162742270Y-58905849D01*
X162589129Y-59017112D01*
X162584716Y-59022014D01*
X162584714Y-59022015D01*
X162479989Y-59138324D01*
X162462467Y-59157784D01*
X162367821Y-59321716D01*
X162309326Y-59501744D01*
X162308636Y-59508305D01*
X162308636Y-59508307D01*
X162294095Y-59646658D01*
X162289540Y-59690000D01*
X162290230Y-59696565D01*
X162307482Y-59860707D01*
X162309326Y-59878256D01*
X162367821Y-60058284D01*
X162371124Y-60064006D01*
X162371125Y-60064007D01*
X162446989Y-60195408D01*
X162462467Y-60222216D01*
X162589129Y-60362888D01*
X162594468Y-60366767D01*
X162732308Y-60466913D01*
X162742270Y-60474151D01*
X162915197Y-60551144D01*
X163001509Y-60569490D01*
X163093897Y-60589128D01*
X163093901Y-60589128D01*
X163100354Y-60590500D01*
X163289646Y-60590500D01*
X163296099Y-60589128D01*
X163296103Y-60589128D01*
X163388491Y-60569490D01*
X163474803Y-60551144D01*
X163647730Y-60474151D01*
X163657693Y-60466913D01*
X163795532Y-60366767D01*
X163800871Y-60362888D01*
X163927533Y-60222216D01*
X163943011Y-60195408D01*
X164018875Y-60064007D01*
X164018876Y-60064006D01*
X164022179Y-60058284D01*
X164024221Y-60051999D01*
X164025393Y-60049367D01*
X164071373Y-59995271D01*
X164139301Y-59974622D01*
X164207609Y-59993974D01*
X164254610Y-60047185D01*
X164266500Y-60100616D01*
X164266500Y-66360984D01*
X164246498Y-66429105D01*
X164229595Y-66450079D01*
X164009270Y-66670404D01*
X163946958Y-66704430D01*
X163876143Y-66699365D01*
X163826541Y-66665621D01*
X163800871Y-66637112D01*
X163795529Y-66633231D01*
X163795527Y-66633229D01*
X163653072Y-66529730D01*
X163653071Y-66529729D01*
X163647730Y-66525849D01*
X163474803Y-66448856D01*
X163376788Y-66428022D01*
X163296103Y-66410872D01*
X163296099Y-66410872D01*
X163289646Y-66409500D01*
X163100354Y-66409500D01*
X163093901Y-66410872D01*
X163093897Y-66410872D01*
X163013212Y-66428022D01*
X162915197Y-66448856D01*
X162742270Y-66525849D01*
X162589129Y-66637112D01*
X162584716Y-66642014D01*
X162584714Y-66642015D01*
X162486668Y-66750906D01*
X162462467Y-66777784D01*
X162367821Y-66941716D01*
X162309326Y-67121744D01*
X162308636Y-67128305D01*
X162308636Y-67128307D01*
X162301421Y-67196955D01*
X162289540Y-67310000D01*
X161890500Y-67310000D01*
X161890500Y-58467619D01*
X161891578Y-58451173D01*
X161894604Y-58428188D01*
X161895682Y-58420000D01*
X161875044Y-58263238D01*
X161814536Y-58117159D01*
X161742450Y-58023214D01*
X161742449Y-58023213D01*
X161718282Y-57991718D01*
X161693337Y-57972577D01*
X161680946Y-57961710D01*
X160709003Y-56989767D01*
X159691675Y-55972440D01*
X159657650Y-55910128D01*
X159654941Y-55884937D01*
X159655460Y-55880000D01*
X162289540Y-55880000D01*
X162290230Y-55886565D01*
X162302769Y-56005865D01*
X162309326Y-56068256D01*
X162367821Y-56248284D01*
X162462467Y-56412216D01*
X162466885Y-56417123D01*
X162466886Y-56417124D01*
X162567869Y-56529276D01*
X162589129Y-56552888D01*
X162742270Y-56664151D01*
X162915197Y-56741144D01*
X163013212Y-56761978D01*
X163093897Y-56779128D01*
X163093901Y-56779128D01*
X163100354Y-56780500D01*
X163289646Y-56780500D01*
X163296099Y-56779128D01*
X163296103Y-56779128D01*
X163376788Y-56761978D01*
X163474803Y-56741144D01*
X163647730Y-56664151D01*
X163800871Y-56552888D01*
X163822132Y-56529276D01*
X163923114Y-56417124D01*
X163923115Y-56417123D01*
X163927533Y-56412216D01*
X164022179Y-56248284D01*
X164080674Y-56068256D01*
X164087232Y-56005865D01*
X164099770Y-55886565D01*
X164100460Y-55880000D01*
X164087964Y-55761104D01*
X164081364Y-55698307D01*
X164081364Y-55698305D01*
X164080674Y-55691744D01*
X164022179Y-55511716D01*
X163927533Y-55347784D01*
X163832923Y-55242709D01*
X163805286Y-55212015D01*
X163805284Y-55212014D01*
X163800871Y-55207112D01*
X163647730Y-55095849D01*
X163474803Y-55018856D01*
X163376788Y-54998022D01*
X163296103Y-54980872D01*
X163296099Y-54980872D01*
X163289646Y-54979500D01*
X163100354Y-54979500D01*
X163093901Y-54980872D01*
X163093897Y-54980872D01*
X163013212Y-54998022D01*
X162915197Y-55018856D01*
X162742270Y-55095849D01*
X162589129Y-55207112D01*
X162584716Y-55212014D01*
X162584714Y-55212015D01*
X162557077Y-55242709D01*
X162462467Y-55347784D01*
X162367821Y-55511716D01*
X162309326Y-55691744D01*
X162308636Y-55698305D01*
X162308636Y-55698307D01*
X162302036Y-55761104D01*
X162289540Y-55880000D01*
X159655460Y-55880000D01*
X159642964Y-55761104D01*
X159636364Y-55698307D01*
X159636364Y-55698305D01*
X159635674Y-55691744D01*
X159577179Y-55511716D01*
X159482533Y-55347784D01*
X159387923Y-55242709D01*
X159360286Y-55212015D01*
X159360284Y-55212014D01*
X159355871Y-55207112D01*
X159202730Y-55095849D01*
X159029803Y-55018856D01*
X158931788Y-54998022D01*
X158851103Y-54980872D01*
X158851099Y-54980872D01*
X158844646Y-54979500D01*
X158655354Y-54979500D01*
X158648901Y-54980872D01*
X158648897Y-54980872D01*
X158568212Y-54998022D01*
X158470197Y-55018856D01*
X158297270Y-55095849D01*
X158144129Y-55207112D01*
X158139716Y-55212014D01*
X158139714Y-55212015D01*
X158112077Y-55242709D01*
X158017467Y-55347784D01*
X157922821Y-55511716D01*
X157864326Y-55691744D01*
X157863636Y-55698305D01*
X157863636Y-55698307D01*
X157857036Y-55761104D01*
X157844540Y-55880000D01*
X156535500Y-55880000D01*
X156535500Y-54797016D01*
X156555502Y-54728895D01*
X156572405Y-54707921D01*
X158847922Y-52432405D01*
X158910234Y-52398379D01*
X158937017Y-52395500D01*
X165715290Y-52395500D01*
X165726272Y-52395980D01*
X165752820Y-52398303D01*
X165752822Y-52398303D01*
X165763807Y-52399264D01*
X165800215Y-52389508D01*
X165810942Y-52387130D01*
X165814301Y-52386538D01*
X165848045Y-52380588D01*
X165857590Y-52375077D01*
X165860866Y-52373885D01*
X165864034Y-52372408D01*
X165874684Y-52369554D01*
X165905544Y-52347945D01*
X165914815Y-52342039D01*
X165937906Y-52328707D01*
X165947455Y-52323194D01*
X165971685Y-52294317D01*
X165979111Y-52286215D01*
X167063734Y-51201592D01*
X167126046Y-51167566D01*
X167202566Y-51174919D01*
X167293167Y-51213844D01*
X167293170Y-51213845D01*
X167298470Y-51216122D01*
X167304099Y-51217396D01*
X167304100Y-51217396D01*
X167406240Y-51240508D01*
X167495740Y-51260760D01*
X167501509Y-51260987D01*
X167501512Y-51260987D01*
X167577683Y-51263979D01*
X167697842Y-51268700D01*
X167784132Y-51256189D01*
X167892286Y-51240508D01*
X167892291Y-51240507D01*
X167898007Y-51239678D01*
X167903479Y-51237820D01*
X167903481Y-51237820D01*
X168084067Y-51176519D01*
X168084069Y-51176518D01*
X168089531Y-51174664D01*
X168213721Y-51105115D01*
X168260964Y-51078658D01*
X168260965Y-51078657D01*
X168266001Y-51075837D01*
X168421505Y-50946505D01*
X168549127Y-50793057D01*
X168608065Y-50753474D01*
X168679047Y-50752038D01*
X168739537Y-50789205D01*
X168770330Y-50853176D01*
X168772001Y-50873627D01*
X168772001Y-51109669D01*
X168772371Y-51116490D01*
X168777895Y-51167352D01*
X168781521Y-51182604D01*
X168826676Y-51303054D01*
X168835214Y-51318649D01*
X168911715Y-51420724D01*
X168924276Y-51433285D01*
X169026351Y-51509786D01*
X169041946Y-51518324D01*
X169162394Y-51563478D01*
X169177649Y-51567105D01*
X169228514Y-51572631D01*
X169235328Y-51573000D01*
X169907885Y-51573000D01*
X169923124Y-51568525D01*
X169924329Y-51567135D01*
X169926000Y-51559452D01*
X169926000Y-51554884D01*
X170434000Y-51554884D01*
X170438475Y-51570123D01*
X170439865Y-51571328D01*
X170447548Y-51572999D01*
X171124669Y-51572999D01*
X171131490Y-51572629D01*
X171182352Y-51567105D01*
X171197604Y-51563479D01*
X171318054Y-51518324D01*
X171333649Y-51509786D01*
X171435724Y-51433285D01*
X171448285Y-51420724D01*
X171524786Y-51318649D01*
X171533324Y-51303054D01*
X171578478Y-51182606D01*
X171582105Y-51167351D01*
X171587631Y-51116486D01*
X171588000Y-51109672D01*
X171588000Y-50437115D01*
X171583525Y-50421876D01*
X171582135Y-50420671D01*
X171574452Y-50419000D01*
X170452115Y-50419000D01*
X170436876Y-50423475D01*
X170435671Y-50424865D01*
X170434000Y-50432548D01*
X170434000Y-51554884D01*
X169926000Y-51554884D01*
X169926000Y-49892885D01*
X170434000Y-49892885D01*
X170438475Y-49908124D01*
X170439865Y-49909329D01*
X170447548Y-49911000D01*
X171569884Y-49911000D01*
X171585123Y-49906525D01*
X171586328Y-49905135D01*
X171587999Y-49897452D01*
X171587999Y-49220331D01*
X171587629Y-49213510D01*
X171582105Y-49162648D01*
X171578479Y-49147396D01*
X171533324Y-49026946D01*
X171524786Y-49011351D01*
X171448285Y-48909276D01*
X171435724Y-48896715D01*
X171333649Y-48820214D01*
X171318054Y-48811676D01*
X171197606Y-48766522D01*
X171182351Y-48762895D01*
X171131486Y-48757369D01*
X171124672Y-48757000D01*
X170452115Y-48757000D01*
X170436876Y-48761475D01*
X170435671Y-48762865D01*
X170434000Y-48770548D01*
X170434000Y-49892885D01*
X169926000Y-49892885D01*
X169926000Y-48775116D01*
X169921525Y-48759877D01*
X169920135Y-48758672D01*
X169912452Y-48757001D01*
X169235331Y-48757001D01*
X169228510Y-48757371D01*
X169177648Y-48762895D01*
X169162396Y-48766521D01*
X169041946Y-48811676D01*
X169026351Y-48820214D01*
X168924276Y-48896715D01*
X168911715Y-48909276D01*
X168835214Y-49011351D01*
X168826676Y-49026946D01*
X168781522Y-49147394D01*
X168777895Y-49162649D01*
X168772369Y-49213514D01*
X168772000Y-49220328D01*
X168772000Y-49462175D01*
X168751998Y-49530296D01*
X168698342Y-49576789D01*
X168628068Y-49586893D01*
X168563488Y-49557399D01*
X168545042Y-49537564D01*
X168464788Y-49430091D01*
X168464787Y-49430090D01*
X168461335Y-49425467D01*
X168457099Y-49421551D01*
X168317053Y-49292094D01*
X168317051Y-49292092D01*
X168312812Y-49288174D01*
X168285374Y-49270862D01*
X168146637Y-49183325D01*
X168141757Y-49180246D01*
X167953898Y-49105298D01*
X167755526Y-49065839D01*
X167749752Y-49065763D01*
X167749748Y-49065763D01*
X167647257Y-49064422D01*
X167553286Y-49063192D01*
X167547589Y-49064171D01*
X167547588Y-49064171D01*
X167359646Y-49096465D01*
X167359645Y-49096465D01*
X167353949Y-49097444D01*
X167164193Y-49167449D01*
X167159232Y-49170401D01*
X167159231Y-49170401D01*
X167060984Y-49228852D01*
X166990371Y-49270862D01*
X166838305Y-49404220D01*
X166713089Y-49563057D01*
X166618914Y-49742053D01*
X166558937Y-49935213D01*
X166535164Y-50136069D01*
X166548392Y-50337894D01*
X166598178Y-50533928D01*
X166628487Y-50599674D01*
X166638842Y-50669908D01*
X166609580Y-50734594D01*
X166603156Y-50741518D01*
X165637079Y-51707595D01*
X165574767Y-51741621D01*
X165547984Y-51744500D01*
X158769698Y-51744500D01*
X158758716Y-51744020D01*
X158732180Y-51741698D01*
X158732178Y-51741698D01*
X158721193Y-51740737D01*
X158710543Y-51743591D01*
X158710541Y-51743591D01*
X158684804Y-51750488D01*
X158674069Y-51752868D01*
X158666508Y-51754201D01*
X158636955Y-51759412D01*
X158627407Y-51764924D01*
X158624130Y-51766117D01*
X158620962Y-51767594D01*
X158610316Y-51770447D01*
X158601287Y-51776769D01*
X158579453Y-51792057D01*
X158570185Y-51797961D01*
X158537545Y-51816806D01*
X158530457Y-51825253D01*
X158513326Y-51845669D01*
X158505900Y-51853773D01*
X155993784Y-54365890D01*
X155985681Y-54373316D01*
X155956806Y-54397545D01*
X155951293Y-54407094D01*
X155937961Y-54430185D01*
X155932055Y-54439456D01*
X155910446Y-54470316D01*
X155907592Y-54480966D01*
X155906115Y-54484134D01*
X155904923Y-54487410D01*
X155899412Y-54496955D01*
X155893462Y-54530699D01*
X155892870Y-54534058D01*
X155890492Y-54544785D01*
X155880736Y-54581193D01*
X155881697Y-54592178D01*
X155881697Y-54592180D01*
X155884020Y-54618728D01*
X155884500Y-54629710D01*
X155884500Y-57130290D01*
X155884020Y-57141272D01*
X155880736Y-57178807D01*
X155448000Y-57178807D01*
X155448000Y-48260000D01*
X157844540Y-48260000D01*
X157864326Y-48448256D01*
X157922821Y-48628284D01*
X158017467Y-48792216D01*
X158021885Y-48797123D01*
X158021886Y-48797124D01*
X158136413Y-48924318D01*
X158144129Y-48932888D01*
X158149468Y-48936767D01*
X158286525Y-49036344D01*
X158297270Y-49044151D01*
X158470197Y-49121144D01*
X158568212Y-49141978D01*
X158648897Y-49159128D01*
X158648901Y-49159128D01*
X158655354Y-49160500D01*
X158844646Y-49160500D01*
X158851099Y-49159128D01*
X158851103Y-49159128D01*
X158931788Y-49141978D01*
X159029803Y-49121144D01*
X159202730Y-49044151D01*
X159213476Y-49036344D01*
X159350532Y-48936767D01*
X159355871Y-48932888D01*
X159363588Y-48924318D01*
X159478114Y-48797124D01*
X159478115Y-48797123D01*
X159482533Y-48792216D01*
X159577179Y-48628284D01*
X159635674Y-48448256D01*
X159655460Y-48260000D01*
X162289540Y-48260000D01*
X162309326Y-48448256D01*
X162367821Y-48628284D01*
X162462467Y-48792216D01*
X162466885Y-48797123D01*
X162466886Y-48797124D01*
X162581413Y-48924318D01*
X162589129Y-48932888D01*
X162594468Y-48936767D01*
X162731525Y-49036344D01*
X162742270Y-49044151D01*
X162915197Y-49121144D01*
X163013212Y-49141978D01*
X163093897Y-49159128D01*
X163093901Y-49159128D01*
X163100354Y-49160500D01*
X163289646Y-49160500D01*
X163296099Y-49159128D01*
X163296103Y-49159128D01*
X163376788Y-49141978D01*
X163474803Y-49121144D01*
X163647730Y-49044151D01*
X163658476Y-49036344D01*
X163795532Y-48936767D01*
X163800871Y-48932888D01*
X163808588Y-48924318D01*
X163923114Y-48797124D01*
X163923115Y-48797123D01*
X163927533Y-48792216D01*
X164022179Y-48628284D01*
X164080674Y-48448256D01*
X164100460Y-48260000D01*
X164092949Y-48188534D01*
X164081364Y-48078307D01*
X164081364Y-48078305D01*
X164080674Y-48071744D01*
X164022179Y-47891716D01*
X163927533Y-47727784D01*
X163870222Y-47664134D01*
X163805286Y-47592015D01*
X163805284Y-47592014D01*
X163800871Y-47587112D01*
X163795532Y-47583233D01*
X163653072Y-47479730D01*
X163653071Y-47479729D01*
X163647730Y-47475849D01*
X163641702Y-47473165D01*
X163641700Y-47473164D01*
X163597603Y-47453531D01*
X163595250Y-47452483D01*
X163541156Y-47406504D01*
X163520500Y-47337377D01*
X163520500Y-47177016D01*
X163540502Y-47108895D01*
X163557405Y-47087921D01*
X167063735Y-43581592D01*
X167126047Y-43547566D01*
X167202567Y-43554919D01*
X167298470Y-43596122D01*
X167495740Y-43640760D01*
X167501509Y-43640987D01*
X167501512Y-43640987D01*
X167577683Y-43643979D01*
X167697842Y-43648700D01*
X167784132Y-43636189D01*
X167892286Y-43620508D01*
X167892291Y-43620507D01*
X167898007Y-43619678D01*
X167903479Y-43617820D01*
X167903481Y-43617820D01*
X168084067Y-43556519D01*
X168084069Y-43556518D01*
X168089531Y-43554664D01*
X168266001Y-43455837D01*
X168421505Y-43326505D01*
X168549127Y-43173057D01*
X168608065Y-43133474D01*
X168679047Y-43132038D01*
X168739537Y-43169205D01*
X168770330Y-43233176D01*
X168772001Y-43253627D01*
X168772001Y-43489669D01*
X168772371Y-43496490D01*
X168777895Y-43547352D01*
X168781521Y-43562604D01*
X168826676Y-43683054D01*
X168835214Y-43698649D01*
X168911715Y-43800724D01*
X168924276Y-43813285D01*
X169026351Y-43889786D01*
X169041946Y-43898324D01*
X169162394Y-43943478D01*
X169177649Y-43947105D01*
X169228514Y-43952631D01*
X169235328Y-43953000D01*
X169907885Y-43953000D01*
X169923124Y-43948525D01*
X169924329Y-43947135D01*
X169926000Y-43939452D01*
X169926000Y-43934884D01*
X170434000Y-43934884D01*
X170438475Y-43950123D01*
X170439865Y-43951328D01*
X170447548Y-43952999D01*
X171124669Y-43952999D01*
X171131490Y-43952629D01*
X171182352Y-43947105D01*
X171197604Y-43943479D01*
X171318054Y-43898324D01*
X171333649Y-43889786D01*
X171435724Y-43813285D01*
X171448285Y-43800724D01*
X171524786Y-43698649D01*
X171533324Y-43683054D01*
X171578478Y-43562606D01*
X171582105Y-43547351D01*
X171587631Y-43496486D01*
X171588000Y-43489672D01*
X171588000Y-42817115D01*
X171583525Y-42801876D01*
X171582135Y-42800671D01*
X171574452Y-42799000D01*
X170452115Y-42799000D01*
X170436876Y-42803475D01*
X170435671Y-42804865D01*
X170434000Y-42812548D01*
X170434000Y-43934884D01*
X169926000Y-43934884D01*
X169926000Y-42272885D01*
X170434000Y-42272885D01*
X170438475Y-42288124D01*
X170439865Y-42289329D01*
X170447548Y-42291000D01*
X171569884Y-42291000D01*
X171585123Y-42286525D01*
X171586328Y-42285135D01*
X171587999Y-42277452D01*
X171587999Y-41600331D01*
X171587629Y-41593510D01*
X171582105Y-41542648D01*
X171578479Y-41527396D01*
X171533324Y-41406946D01*
X171524786Y-41391351D01*
X171448285Y-41289276D01*
X171435724Y-41276715D01*
X171333649Y-41200214D01*
X171318054Y-41191676D01*
X171197606Y-41146522D01*
X171182351Y-41142895D01*
X171131486Y-41137369D01*
X171124672Y-41137000D01*
X170452115Y-41137000D01*
X170436876Y-41141475D01*
X170435671Y-41142865D01*
X170434000Y-41150548D01*
X170434000Y-42272885D01*
X169926000Y-42272885D01*
X169926000Y-41155116D01*
X169921525Y-41139877D01*
X169920135Y-41138672D01*
X169912452Y-41137001D01*
X169235331Y-41137001D01*
X169228510Y-41137371D01*
X169177648Y-41142895D01*
X169162396Y-41146521D01*
X169041946Y-41191676D01*
X169026351Y-41200214D01*
X168924276Y-41276715D01*
X168911715Y-41289276D01*
X168835214Y-41391351D01*
X168826676Y-41406946D01*
X168781522Y-41527394D01*
X168777895Y-41542649D01*
X168772369Y-41593514D01*
X168772000Y-41600328D01*
X168772000Y-41842175D01*
X168751998Y-41910296D01*
X168698342Y-41956789D01*
X168628068Y-41966893D01*
X168563488Y-41937399D01*
X168545042Y-41917564D01*
X168464788Y-41810091D01*
X168464787Y-41810090D01*
X168461335Y-41805467D01*
X168457099Y-41801551D01*
X168317053Y-41672094D01*
X168317051Y-41672092D01*
X168312812Y-41668174D01*
X168285374Y-41650862D01*
X168146637Y-41563325D01*
X168141757Y-41560246D01*
X167953898Y-41485298D01*
X167755526Y-41445839D01*
X167749752Y-41445763D01*
X167749748Y-41445763D01*
X167647257Y-41444422D01*
X167553286Y-41443192D01*
X167547589Y-41444171D01*
X167547588Y-41444171D01*
X167359646Y-41476465D01*
X167359645Y-41476465D01*
X167353949Y-41477444D01*
X167164193Y-41547449D01*
X167159232Y-41550401D01*
X167159231Y-41550401D01*
X167032497Y-41625800D01*
X166990371Y-41650862D01*
X166838305Y-41784220D01*
X166713089Y-41943057D01*
X166618914Y-42122053D01*
X166558937Y-42315213D01*
X166535164Y-42516069D01*
X166548392Y-42717894D01*
X166549815Y-42723496D01*
X166586833Y-42869255D01*
X166598178Y-42913928D01*
X166600595Y-42919172D01*
X166600598Y-42919179D01*
X166628486Y-42979672D01*
X166638841Y-43049909D01*
X166609578Y-43114595D01*
X166603155Y-43121518D01*
X162978784Y-46745890D01*
X162970681Y-46753316D01*
X162941806Y-46777545D01*
X162936293Y-46787094D01*
X162922961Y-46810185D01*
X162917055Y-46819456D01*
X162895446Y-46850316D01*
X162892592Y-46860966D01*
X162891115Y-46864134D01*
X162889923Y-46867410D01*
X162884412Y-46876955D01*
X162881583Y-46893002D01*
X162877870Y-46914058D01*
X162875492Y-46924785D01*
X162865736Y-46961193D01*
X162866697Y-46972178D01*
X162866697Y-46972180D01*
X162869020Y-46998728D01*
X162869500Y-47009710D01*
X162869500Y-47337377D01*
X162849498Y-47405498D01*
X162794750Y-47452483D01*
X162792397Y-47453531D01*
X162748300Y-47473164D01*
X162748298Y-47473165D01*
X162742270Y-47475849D01*
X162736929Y-47479729D01*
X162736928Y-47479730D01*
X162594468Y-47583233D01*
X162589129Y-47587112D01*
X162584716Y-47592014D01*
X162584714Y-47592015D01*
X162519778Y-47664134D01*
X162462467Y-47727784D01*
X162367821Y-47891716D01*
X162309326Y-48071744D01*
X162308636Y-48078305D01*
X162308636Y-48078307D01*
X162297051Y-48188534D01*
X162289540Y-48260000D01*
X159655460Y-48260000D01*
X159655019Y-48255806D01*
X159674772Y-48188534D01*
X159691675Y-48167560D01*
X161426938Y-46432297D01*
X161439329Y-46421429D01*
X161457736Y-46407305D01*
X161464282Y-46402282D01*
X161560536Y-46276841D01*
X161621044Y-46130762D01*
X161636500Y-46013361D01*
X161641682Y-45974000D01*
X161637578Y-45942827D01*
X161636500Y-45926381D01*
X161636500Y-43180000D01*
X162289540Y-43180000D01*
X162309326Y-43368256D01*
X162367821Y-43548284D01*
X162371124Y-43554006D01*
X162371125Y-43554007D01*
X162409040Y-43619678D01*
X162462467Y-43712216D01*
X162589129Y-43852888D01*
X162594468Y-43856767D01*
X162726921Y-43952999D01*
X162742270Y-43964151D01*
X162915197Y-44041144D01*
X163013212Y-44061978D01*
X163093897Y-44079128D01*
X163093901Y-44079128D01*
X163100354Y-44080500D01*
X163289646Y-44080500D01*
X163296099Y-44079128D01*
X163296103Y-44079128D01*
X163376788Y-44061978D01*
X163474803Y-44041144D01*
X163647730Y-43964151D01*
X163663080Y-43952999D01*
X163795532Y-43856767D01*
X163800871Y-43852888D01*
X163927533Y-43712216D01*
X163980960Y-43619678D01*
X164018875Y-43554007D01*
X164018876Y-43554006D01*
X164022179Y-43548284D01*
X164080674Y-43368256D01*
X164100460Y-43180000D01*
X164095136Y-43129340D01*
X164081364Y-42998307D01*
X164081364Y-42998305D01*
X164080674Y-42991744D01*
X164022179Y-42811716D01*
X164014838Y-42799000D01*
X163930836Y-42653505D01*
X163927533Y-42647784D01*
X163871410Y-42585453D01*
X163805286Y-42512015D01*
X163805284Y-42512014D01*
X163800871Y-42507112D01*
X163753113Y-42472414D01*
X163653072Y-42399730D01*
X163653071Y-42399729D01*
X163647730Y-42395849D01*
X163474803Y-42318856D01*
X163376788Y-42298022D01*
X163296103Y-42280872D01*
X163296099Y-42280872D01*
X163289646Y-42279500D01*
X163100354Y-42279500D01*
X163093901Y-42280872D01*
X163093897Y-42280872D01*
X163013212Y-42298022D01*
X162915197Y-42318856D01*
X162742270Y-42395849D01*
X162736929Y-42399729D01*
X162736928Y-42399730D01*
X162636887Y-42472414D01*
X162589129Y-42507112D01*
X162584716Y-42512014D01*
X162584714Y-42512015D01*
X162518590Y-42585453D01*
X162462467Y-42647784D01*
X162459164Y-42653505D01*
X162375163Y-42799000D01*
X162367821Y-42811716D01*
X162309326Y-42991744D01*
X162308636Y-42998305D01*
X162308636Y-42998307D01*
X162294864Y-43129340D01*
X162289540Y-43180000D01*
X161636500Y-43180000D01*
X161636500Y-39624000D01*
X171098318Y-39624000D01*
X171118956Y-39780762D01*
X171179464Y-39926841D01*
X171275718Y-40052282D01*
X171401159Y-40148536D01*
X171547238Y-40209044D01*
X171704000Y-40229682D01*
X171712188Y-40228604D01*
X171852574Y-40210122D01*
X171860762Y-40209044D01*
X172006841Y-40148536D01*
X172132282Y-40052282D01*
X172173323Y-39998796D01*
X172230661Y-39956929D01*
X172273286Y-39949500D01*
X172700290Y-39949500D01*
X172711272Y-39949980D01*
X172737820Y-39952303D01*
X172737822Y-39952303D01*
X172748807Y-39953264D01*
X172785215Y-39943508D01*
X172795942Y-39941130D01*
X172799301Y-39940538D01*
X172833045Y-39934588D01*
X172842590Y-39929077D01*
X172845866Y-39927885D01*
X172849034Y-39926408D01*
X172859684Y-39923554D01*
X172890544Y-39901945D01*
X172899815Y-39896039D01*
X172922906Y-39882707D01*
X172932455Y-39877194D01*
X172956685Y-39848317D01*
X172964111Y-39840215D01*
X174071618Y-38732709D01*
X174133930Y-38698683D01*
X174177158Y-38696882D01*
X174244000Y-38705682D01*
X174252188Y-38704604D01*
X174392574Y-38686122D01*
X174400762Y-38685044D01*
X174546841Y-38624536D01*
X174672282Y-38528282D01*
X174768536Y-38402841D01*
X174829044Y-38256762D01*
X174849682Y-38100000D01*
X174829044Y-37943238D01*
X174768536Y-37797159D01*
X174672282Y-37671718D01*
X174546841Y-37575464D01*
X174400762Y-37514956D01*
X174244000Y-37494318D01*
X174087238Y-37514956D01*
X173941159Y-37575464D01*
X173815718Y-37671718D01*
X173719464Y-37797159D01*
X173658956Y-37943238D01*
X173638318Y-38100000D01*
X173639396Y-38108187D01*
X173647118Y-38166840D01*
X173636179Y-38236989D01*
X173611291Y-38272382D01*
X172622079Y-39261595D01*
X172559767Y-39295620D01*
X172532984Y-39298500D01*
X172273286Y-39298500D01*
X172205165Y-39278498D01*
X172173323Y-39249204D01*
X172137305Y-39202264D01*
X172132282Y-39195718D01*
X172006841Y-39099464D01*
X171860762Y-39038956D01*
X171704000Y-39018318D01*
X171547238Y-39038956D01*
X171401159Y-39099464D01*
X171275718Y-39195718D01*
X171179464Y-39321159D01*
X171118956Y-39467238D01*
X171098318Y-39624000D01*
X161636500Y-39624000D01*
X161636500Y-34899540D01*
X161656502Y-34831419D01*
X161710158Y-34784926D01*
X161762500Y-34773540D01*
X162408389Y-34773540D01*
X162476510Y-34793542D01*
X162523003Y-34847198D01*
X162533107Y-34917472D01*
X162502025Y-34983850D01*
X162462467Y-35027784D01*
X162459164Y-35033505D01*
X162375163Y-35179000D01*
X162367821Y-35191716D01*
X162309326Y-35371744D01*
X162308636Y-35378305D01*
X162308636Y-35378307D01*
X162295673Y-35501646D01*
X162289540Y-35560000D01*
X162290230Y-35566565D01*
X162299361Y-35653439D01*
X162309326Y-35748256D01*
X162367821Y-35928284D01*
X162371124Y-35934006D01*
X162371125Y-35934007D01*
X162409040Y-35999678D01*
X162462467Y-36092216D01*
X162589129Y-36232888D01*
X162594468Y-36236767D01*
X162726921Y-36332999D01*
X162742270Y-36344151D01*
X162915197Y-36421144D01*
X163013212Y-36441978D01*
X163093897Y-36459128D01*
X163093901Y-36459128D01*
X163100354Y-36460500D01*
X163289646Y-36460500D01*
X163296099Y-36459128D01*
X163296103Y-36459128D01*
X163376788Y-36441978D01*
X163474803Y-36421144D01*
X163647730Y-36344151D01*
X163663080Y-36332999D01*
X163795532Y-36236767D01*
X163800871Y-36232888D01*
X163927533Y-36092216D01*
X163980960Y-35999678D01*
X164018875Y-35934007D01*
X164018876Y-35934006D01*
X164022179Y-35928284D01*
X164080674Y-35748256D01*
X164090640Y-35653439D01*
X164099770Y-35566565D01*
X164100460Y-35560000D01*
X164094327Y-35501646D01*
X164081364Y-35378307D01*
X164081364Y-35378305D01*
X164080674Y-35371744D01*
X164022179Y-35191716D01*
X164014838Y-35179000D01*
X163930836Y-35033505D01*
X163927533Y-35027784D01*
X163887975Y-34983850D01*
X163857258Y-34919844D01*
X163866021Y-34849390D01*
X163911484Y-34794859D01*
X163981611Y-34773540D01*
X166409559Y-34773540D01*
X166477680Y-34793542D01*
X166524173Y-34847198D01*
X166534149Y-34896136D01*
X166535164Y-34896069D01*
X166548392Y-35097894D01*
X166598178Y-35293928D01*
X166682856Y-35477607D01*
X166686189Y-35482323D01*
X166784750Y-35621784D01*
X166799588Y-35642780D01*
X166944466Y-35783913D01*
X167112637Y-35896282D01*
X167117940Y-35898560D01*
X167117943Y-35898562D01*
X167293163Y-35973842D01*
X167298470Y-35976122D01*
X167495740Y-36020760D01*
X167501509Y-36020987D01*
X167501512Y-36020987D01*
X167577683Y-36023979D01*
X167697842Y-36028700D01*
X167784132Y-36016189D01*
X167892286Y-36000508D01*
X167892291Y-36000507D01*
X167898007Y-35999678D01*
X167903479Y-35997820D01*
X167903481Y-35997820D01*
X168084067Y-35936519D01*
X168084069Y-35936518D01*
X168089531Y-35934664D01*
X168216521Y-35863547D01*
X168260964Y-35838658D01*
X168260965Y-35838657D01*
X168266001Y-35835837D01*
X168273176Y-35829870D01*
X168417073Y-35710191D01*
X168421505Y-35706505D01*
X168549127Y-35553057D01*
X168608065Y-35513474D01*
X168679047Y-35512038D01*
X168739537Y-35549205D01*
X168770330Y-35613176D01*
X168772001Y-35633627D01*
X168772001Y-35869669D01*
X168772371Y-35876490D01*
X168777895Y-35927352D01*
X168781521Y-35942604D01*
X168826676Y-36063054D01*
X168835214Y-36078649D01*
X168911715Y-36180724D01*
X168924276Y-36193285D01*
X169026351Y-36269786D01*
X169041946Y-36278324D01*
X169162394Y-36323478D01*
X169177649Y-36327105D01*
X169228514Y-36332631D01*
X169235328Y-36333000D01*
X169907885Y-36333000D01*
X169923124Y-36328525D01*
X169924329Y-36327135D01*
X169926000Y-36319452D01*
X169926000Y-36314884D01*
X170434000Y-36314884D01*
X170438475Y-36330123D01*
X170439865Y-36331328D01*
X170447548Y-36332999D01*
X171124669Y-36332999D01*
X171131490Y-36332629D01*
X171182352Y-36327105D01*
X171197604Y-36323479D01*
X171318054Y-36278324D01*
X171333649Y-36269786D01*
X171435724Y-36193285D01*
X171448285Y-36180724D01*
X171524786Y-36078649D01*
X171533324Y-36063054D01*
X171578478Y-35942606D01*
X171582105Y-35927351D01*
X171587631Y-35876486D01*
X171588000Y-35869672D01*
X171588000Y-35197115D01*
X171583525Y-35181876D01*
X171582135Y-35180671D01*
X171574452Y-35179000D01*
X170452115Y-35179000D01*
X170436876Y-35183475D01*
X170435671Y-35184865D01*
X170434000Y-35192548D01*
X170434000Y-36314884D01*
X169926000Y-36314884D01*
X169926000Y-34652885D01*
X170434000Y-34652885D01*
X170438475Y-34668124D01*
X170439865Y-34669329D01*
X170447548Y-34671000D01*
X171569884Y-34671000D01*
X171585123Y-34666525D01*
X171586328Y-34665135D01*
X171587999Y-34657452D01*
X171587999Y-34034261D01*
X179690294Y-34034261D01*
X179699590Y-34046276D01*
X179729189Y-34067001D01*
X179738677Y-34072479D01*
X179920277Y-34157159D01*
X179930571Y-34160907D01*
X180124122Y-34212769D01*
X180134909Y-34214671D01*
X180334525Y-34232135D01*
X180345475Y-34232135D01*
X180545091Y-34214671D01*
X180555878Y-34212769D01*
X180749429Y-34160907D01*
X180759723Y-34157159D01*
X180941323Y-34072479D01*
X180950811Y-34067001D01*
X180981248Y-34045689D01*
X180989623Y-34035212D01*
X180982554Y-34021764D01*
X180352812Y-33392022D01*
X180338868Y-33384408D01*
X180337035Y-33384539D01*
X180330420Y-33388790D01*
X179696724Y-34022486D01*
X179690294Y-34034261D01*
X171587999Y-34034261D01*
X171587999Y-33980331D01*
X171587629Y-33973510D01*
X171582105Y-33922648D01*
X171578479Y-33907396D01*
X171533324Y-33786946D01*
X171524786Y-33771351D01*
X171448285Y-33669276D01*
X171435724Y-33656715D01*
X171333649Y-33580214D01*
X171318054Y-33571676D01*
X171197606Y-33526522D01*
X171182351Y-33522895D01*
X171131486Y-33517369D01*
X171124672Y-33517000D01*
X170452115Y-33517000D01*
X170436876Y-33521475D01*
X170435671Y-33522865D01*
X170434000Y-33530548D01*
X170434000Y-34652885D01*
X169926000Y-34652885D01*
X169926000Y-33535116D01*
X169921525Y-33519877D01*
X169920135Y-33518672D01*
X169912452Y-33517001D01*
X169235331Y-33517001D01*
X169228510Y-33517371D01*
X169177648Y-33522895D01*
X169162396Y-33526521D01*
X169041946Y-33571676D01*
X169026351Y-33580214D01*
X168924276Y-33656715D01*
X168911715Y-33669276D01*
X168835214Y-33771351D01*
X168826676Y-33786946D01*
X168781522Y-33907394D01*
X168777895Y-33922649D01*
X168772369Y-33973514D01*
X168772000Y-33980328D01*
X168772000Y-34222175D01*
X168751998Y-34290296D01*
X168698342Y-34336789D01*
X168628068Y-34346893D01*
X168563488Y-34317399D01*
X168545042Y-34297564D01*
X168464788Y-34190091D01*
X168464787Y-34190090D01*
X168461335Y-34185467D01*
X168457099Y-34181551D01*
X168317053Y-34052094D01*
X168317051Y-34052092D01*
X168312812Y-34048174D01*
X168262260Y-34016278D01*
X168146637Y-33943325D01*
X168141757Y-33940246D01*
X167953898Y-33865298D01*
X167755526Y-33825839D01*
X167749752Y-33825763D01*
X167749748Y-33825763D01*
X167647257Y-33824422D01*
X167553286Y-33823192D01*
X167547589Y-33824171D01*
X167547588Y-33824171D01*
X167476047Y-33836464D01*
X167405523Y-33828287D01*
X167365614Y-33801379D01*
X167346337Y-33782102D01*
X167335469Y-33769711D01*
X167321345Y-33751304D01*
X167316322Y-33744758D01*
X167190881Y-33648504D01*
X167044802Y-33587996D01*
X166927401Y-33572540D01*
X166888040Y-33567358D01*
X166879852Y-33568436D01*
X166856867Y-33571462D01*
X166840421Y-33572540D01*
X161083619Y-33572540D01*
X161067173Y-33571462D01*
X161044188Y-33568436D01*
X161036000Y-33567358D01*
X160996639Y-33572540D01*
X160879238Y-33587996D01*
X160733159Y-33648504D01*
X160607718Y-33744758D01*
X160602695Y-33751304D01*
X160584930Y-33774456D01*
X160511464Y-33870199D01*
X160450956Y-34016278D01*
X160449878Y-34024466D01*
X160448463Y-34035212D01*
X160430318Y-34173040D01*
X160431396Y-34181228D01*
X160434422Y-34204213D01*
X160435500Y-34220659D01*
X160435500Y-45673075D01*
X160415498Y-45741196D01*
X160398595Y-45762170D01*
X158838170Y-47322595D01*
X158775858Y-47356621D01*
X158749075Y-47359500D01*
X158655354Y-47359500D01*
X158648901Y-47360872D01*
X158648897Y-47360872D01*
X158568212Y-47378022D01*
X158470197Y-47398856D01*
X158297270Y-47475849D01*
X158291929Y-47479729D01*
X158291928Y-47479730D01*
X158149468Y-47583233D01*
X158144129Y-47587112D01*
X158139716Y-47592014D01*
X158139714Y-47592015D01*
X158074778Y-47664134D01*
X158017467Y-47727784D01*
X157922821Y-47891716D01*
X157864326Y-48071744D01*
X157863636Y-48078305D01*
X157863636Y-48078307D01*
X157852051Y-48188534D01*
X157844540Y-48260000D01*
X155448000Y-48260000D01*
X155448000Y-44336903D01*
X155468002Y-44268782D01*
X155521658Y-44222289D01*
X155591932Y-44212185D01*
X155654484Y-44239958D01*
X155697494Y-44275665D01*
X155705928Y-44281570D01*
X155907563Y-44399397D01*
X155916846Y-44403844D01*
X156135007Y-44487152D01*
X156144905Y-44490028D01*
X156373744Y-44536585D01*
X156383972Y-44537804D01*
X156617340Y-44546362D01*
X156627626Y-44545895D01*
X156859262Y-44516222D01*
X156869340Y-44514080D01*
X157093014Y-44446974D01*
X157102612Y-44443212D01*
X157312324Y-44340476D01*
X157321169Y-44335203D01*
X157393869Y-44283347D01*
X157402270Y-44272646D01*
X157395283Y-44259493D01*
X156284885Y-43149095D01*
X156250859Y-43086783D01*
X156252694Y-43061132D01*
X156919408Y-43061132D01*
X156919539Y-43062965D01*
X156923790Y-43069580D01*
X157755045Y-43900835D01*
X157767055Y-43907394D01*
X157778794Y-43898426D01*
X157827518Y-43830619D01*
X157832829Y-43821780D01*
X157936291Y-43612442D01*
X157940089Y-43602849D01*
X158007974Y-43379413D01*
X158010151Y-43369343D01*
X158040869Y-43136015D01*
X158041388Y-43129340D01*
X158043001Y-43063364D01*
X158042807Y-43056647D01*
X158023525Y-42822108D01*
X158021842Y-42811946D01*
X157964952Y-42585453D01*
X157961634Y-42575706D01*
X157868513Y-42361542D01*
X157863646Y-42352467D01*
X157778465Y-42220796D01*
X157767779Y-42211593D01*
X157758214Y-42215996D01*
X156927022Y-43047188D01*
X156919408Y-43061132D01*
X156252694Y-43061132D01*
X156255924Y-43015968D01*
X156284885Y-42970905D01*
X157397391Y-41858399D01*
X157404412Y-41845543D01*
X157396639Y-41834875D01*
X157382548Y-41823746D01*
X157373970Y-41818047D01*
X157169526Y-41705189D01*
X157160126Y-41700964D01*
X156939993Y-41623011D01*
X156930036Y-41620381D01*
X156700129Y-41579427D01*
X156689878Y-41578458D01*
X156456367Y-41575605D01*
X156446083Y-41576325D01*
X156215253Y-41611647D01*
X156205225Y-41614036D01*
X155983263Y-41686584D01*
X155973753Y-41690581D01*
X155766625Y-41798405D01*
X155757900Y-41803899D01*
X155649653Y-41885174D01*
X155583169Y-41910080D01*
X155513773Y-41895088D01*
X155463499Y-41844958D01*
X155448000Y-41784414D01*
X155448000Y-36421440D01*
X155468002Y-36353319D01*
X155521658Y-36306826D01*
X155591932Y-36296722D01*
X155656512Y-36326216D01*
X155661921Y-36331186D01*
X155701369Y-36369614D01*
X155812065Y-36477449D01*
X155991697Y-36597475D01*
X155997000Y-36599753D01*
X155997003Y-36599755D01*
X156080561Y-36635654D01*
X156190194Y-36682756D01*
X156268129Y-36700391D01*
X156395272Y-36729161D01*
X156395278Y-36729162D01*
X156400909Y-36730436D01*
X156406680Y-36730663D01*
X156406682Y-36730663D01*
X156471653Y-36733216D01*
X156616784Y-36738918D01*
X156725147Y-36723206D01*
X156824870Y-36708748D01*
X156824875Y-36708747D01*
X156830591Y-36707918D01*
X156836063Y-36706060D01*
X156836065Y-36706060D01*
X157029703Y-36640328D01*
X157029705Y-36640327D01*
X157035167Y-36638473D01*
X157223663Y-36532911D01*
X157389765Y-36394765D01*
X157527911Y-36228663D01*
X157633473Y-36040167D01*
X157647218Y-35999678D01*
X157701060Y-35841065D01*
X157701061Y-35841061D01*
X157702918Y-35835591D01*
X157703747Y-35829875D01*
X157703748Y-35829870D01*
X157728028Y-35662405D01*
X157733918Y-35621784D01*
X157735536Y-35560000D01*
X157715768Y-35344864D01*
X157702882Y-35299175D01*
X157658693Y-35142493D01*
X157658692Y-35142491D01*
X157657125Y-35136934D01*
X157643553Y-35109411D01*
X157564127Y-34948353D01*
X157561572Y-34943172D01*
X157548003Y-34925000D01*
X157435762Y-34774691D01*
X157435761Y-34774690D01*
X157432309Y-34770067D01*
X157305542Y-34652885D01*
X157277905Y-34627337D01*
X157277902Y-34627335D01*
X157273665Y-34623418D01*
X157090952Y-34508135D01*
X156959809Y-34455814D01*
X156903951Y-34411994D01*
X156880500Y-34338785D01*
X156880500Y-34132016D01*
X156900502Y-34063895D01*
X156917405Y-34042921D01*
X158847921Y-32112405D01*
X158910233Y-32078379D01*
X158937016Y-32075500D01*
X176342984Y-32075500D01*
X176411105Y-32095502D01*
X176432079Y-32112405D01*
X176917872Y-32598198D01*
X176951898Y-32660510D01*
X176948610Y-32726229D01*
X176914326Y-32831744D01*
X176894540Y-33020000D01*
X176895230Y-33026565D01*
X176908711Y-33154827D01*
X176914326Y-33208256D01*
X176972821Y-33388284D01*
X177067467Y-33552216D01*
X177071885Y-33557123D01*
X177071886Y-33557124D01*
X177187615Y-33685653D01*
X177194129Y-33692888D01*
X177199468Y-33696767D01*
X177300191Y-33769946D01*
X177347270Y-33804151D01*
X177520197Y-33881144D01*
X177618212Y-33901978D01*
X177698897Y-33919128D01*
X177698901Y-33919128D01*
X177705354Y-33920500D01*
X177894646Y-33920500D01*
X177901099Y-33919128D01*
X177901103Y-33919128D01*
X177981788Y-33901978D01*
X178079803Y-33881144D01*
X178252730Y-33804151D01*
X178299810Y-33769946D01*
X178400532Y-33696767D01*
X178405871Y-33692888D01*
X178412386Y-33685653D01*
X178528114Y-33557124D01*
X178528115Y-33557123D01*
X178532533Y-33552216D01*
X178627179Y-33388284D01*
X178685674Y-33208256D01*
X178691290Y-33154827D01*
X178704770Y-33026565D01*
X178704885Y-33025475D01*
X179127865Y-33025475D01*
X179145329Y-33225091D01*
X179147231Y-33235878D01*
X179199093Y-33429429D01*
X179202841Y-33439723D01*
X179287521Y-33621323D01*
X179292999Y-33630811D01*
X179314311Y-33661248D01*
X179324788Y-33669623D01*
X179338236Y-33662554D01*
X179967978Y-33032812D01*
X179974356Y-33021132D01*
X180704408Y-33021132D01*
X180704539Y-33022965D01*
X180708790Y-33029580D01*
X181342486Y-33663276D01*
X181354261Y-33669706D01*
X181366276Y-33660410D01*
X181387001Y-33630811D01*
X181392479Y-33621323D01*
X181477159Y-33439723D01*
X181480907Y-33429429D01*
X181532769Y-33235878D01*
X181534671Y-33225091D01*
X181552135Y-33025475D01*
X181552135Y-33014525D01*
X181534671Y-32814909D01*
X181532769Y-32804122D01*
X181480907Y-32610571D01*
X181477159Y-32600277D01*
X181392479Y-32418677D01*
X181387001Y-32409189D01*
X181365689Y-32378752D01*
X181355212Y-32370377D01*
X181341764Y-32377446D01*
X180712022Y-33007188D01*
X180704408Y-33021132D01*
X179974356Y-33021132D01*
X179975592Y-33018868D01*
X179975461Y-33017035D01*
X179971210Y-33010420D01*
X179337514Y-32376724D01*
X179325739Y-32370294D01*
X179313724Y-32379590D01*
X179292999Y-32409189D01*
X179287521Y-32418677D01*
X179202841Y-32600277D01*
X179199093Y-32610571D01*
X179147231Y-32804122D01*
X179145329Y-32814909D01*
X179127865Y-33014525D01*
X179127865Y-33025475D01*
X178704885Y-33025475D01*
X178705460Y-33020000D01*
X178685674Y-32831744D01*
X178651390Y-32726229D01*
X178649362Y-32655262D01*
X178682128Y-32598198D01*
X179275538Y-32004788D01*
X179690377Y-32004788D01*
X179697446Y-32018236D01*
X180327188Y-32647978D01*
X180341132Y-32655592D01*
X180342965Y-32655461D01*
X180349580Y-32651210D01*
X180983276Y-32017514D01*
X180989706Y-32005739D01*
X180980410Y-31993724D01*
X180950811Y-31972999D01*
X180941323Y-31967521D01*
X180759723Y-31882841D01*
X180749429Y-31879093D01*
X180555878Y-31827231D01*
X180545091Y-31825329D01*
X180345475Y-31807865D01*
X180334525Y-31807865D01*
X180134909Y-31825329D01*
X180124122Y-31827231D01*
X179930571Y-31879093D01*
X179920277Y-31882841D01*
X179738677Y-31967521D01*
X179729189Y-31972999D01*
X179698752Y-31994311D01*
X179690377Y-32004788D01*
X179275538Y-32004788D01*
X180437922Y-30842405D01*
X180500234Y-30808379D01*
X180527017Y-30805500D01*
X186572381Y-30805500D01*
X186640502Y-30825502D01*
X186686995Y-30879158D01*
X186697099Y-30949432D01*
X186667605Y-31014012D01*
X186607879Y-31052396D01*
X186594033Y-31055626D01*
X186590857Y-31056180D01*
X186584342Y-31057141D01*
X186543904Y-31062035D01*
X186521680Y-31064724D01*
X186514573Y-31067409D01*
X186511280Y-31068218D01*
X186496809Y-31072177D01*
X186493533Y-31073166D01*
X186486046Y-31074473D01*
X186479088Y-31077528D01*
X186479086Y-31077528D01*
X186428242Y-31099846D01*
X186422137Y-31102338D01*
X186417784Y-31103983D01*
X186363077Y-31124655D01*
X186356824Y-31128953D01*
X186353793Y-31130537D01*
X186340716Y-31137817D01*
X186337757Y-31139567D01*
X186330797Y-31142622D01*
X186324770Y-31147247D01*
X186324766Y-31147249D01*
X186280700Y-31181062D01*
X186275381Y-31184927D01*
X186223349Y-31220688D01*
X186182400Y-31266648D01*
X186177419Y-31271924D01*
X184939925Y-32509418D01*
X184933660Y-32515271D01*
X184890604Y-32552831D01*
X184858720Y-32598198D01*
X184854317Y-32604463D01*
X184850384Y-32609758D01*
X184816105Y-32653476D01*
X184816103Y-32653480D01*
X184811416Y-32659457D01*
X184808290Y-32666380D01*
X184806505Y-32669328D01*
X184799113Y-32682288D01*
X184797480Y-32685334D01*
X184793113Y-32691547D01*
X184790354Y-32698624D01*
X184770180Y-32750366D01*
X184767625Y-32756445D01*
X184741645Y-32813984D01*
X184740260Y-32821455D01*
X184739236Y-32824723D01*
X184735123Y-32839164D01*
X184734283Y-32842437D01*
X184731524Y-32849513D01*
X184730533Y-32857043D01*
X184723284Y-32912106D01*
X184722252Y-32918623D01*
X184710748Y-32980692D01*
X184711185Y-32988272D01*
X184711185Y-32988273D01*
X184714291Y-33042144D01*
X184714500Y-33049396D01*
X184714500Y-33748500D01*
X184694498Y-33816621D01*
X184640842Y-33863114D01*
X184588500Y-33874500D01*
X184545252Y-33874500D01*
X184539184Y-33875707D01*
X184498939Y-33883712D01*
X184498938Y-33883712D01*
X184486769Y-33886133D01*
X184420448Y-33930448D01*
X184376133Y-33996769D01*
X184373712Y-34008938D01*
X184373712Y-34008939D01*
X184368675Y-34034261D01*
X184364500Y-34055252D01*
X184364500Y-35794748D01*
X184365707Y-35800816D01*
X184369331Y-35819033D01*
X184376133Y-35853231D01*
X184420448Y-35919552D01*
X184486769Y-35963867D01*
X184498938Y-35966288D01*
X184498939Y-35966288D01*
X184536917Y-35973842D01*
X184545252Y-35975500D01*
X186284748Y-35975500D01*
X186293083Y-35973842D01*
X186331061Y-35966288D01*
X186331062Y-35966288D01*
X186343231Y-35963867D01*
X186409552Y-35919552D01*
X186453867Y-35853231D01*
X186460670Y-35819033D01*
X186464293Y-35800816D01*
X186465500Y-35794748D01*
X186465500Y-34055252D01*
X186461325Y-34034261D01*
X186456288Y-34008939D01*
X186456288Y-34008938D01*
X186453867Y-33996769D01*
X186409552Y-33930448D01*
X186343231Y-33886133D01*
X186331062Y-33883712D01*
X186331061Y-33883712D01*
X186290816Y-33875707D01*
X186284748Y-33874500D01*
X186241500Y-33874500D01*
X186173379Y-33854498D01*
X186126886Y-33800842D01*
X186115500Y-33748500D01*
X186115500Y-33367346D01*
X186135502Y-33299225D01*
X186152405Y-33278251D01*
X186943251Y-32487405D01*
X187005563Y-32453379D01*
X187032346Y-32450500D01*
X190157654Y-32450500D01*
X190225775Y-32470502D01*
X190246749Y-32487405D01*
X192302595Y-34543251D01*
X192336621Y-34605563D01*
X192339500Y-34632346D01*
X192339500Y-68237653D01*
X192319498Y-68305774D01*
X192302595Y-68326748D01*
X189208203Y-71421140D01*
X189145891Y-71455166D01*
X189075076Y-71450101D01*
X189018240Y-71407554D01*
X188993429Y-71341034D01*
X188994102Y-71316253D01*
X188996795Y-71294936D01*
X189015171Y-71149474D01*
X189015583Y-71120000D01*
X188995480Y-70914970D01*
X188935935Y-70717749D01*
X188839218Y-70535849D01*
X188748352Y-70424437D01*
X188712906Y-70380975D01*
X188712903Y-70380972D01*
X188709011Y-70376200D01*
X188691786Y-70361950D01*
X188555025Y-70248811D01*
X188555021Y-70248809D01*
X188550275Y-70244882D01*
X188369055Y-70146897D01*
X188172254Y-70085977D01*
X188166129Y-70085333D01*
X188166128Y-70085333D01*
X187973498Y-70065087D01*
X187973496Y-70065087D01*
X187967369Y-70064443D01*
X187880529Y-70072346D01*
X187768342Y-70082555D01*
X187768339Y-70082556D01*
X187762203Y-70083114D01*
X187564572Y-70141280D01*
X187559107Y-70144137D01*
X187473287Y-70189003D01*
X187382002Y-70236726D01*
X187377201Y-70240586D01*
X187377198Y-70240588D01*
X187366971Y-70248811D01*
X187221447Y-70365815D01*
X187089024Y-70523630D01*
X187086056Y-70529028D01*
X187086053Y-70529033D01*
X187044739Y-70604184D01*
X186989776Y-70704162D01*
X186927484Y-70900532D01*
X186926798Y-70906649D01*
X186926797Y-70906653D01*
X186906769Y-71085210D01*
X186904520Y-71105262D01*
X186905036Y-71111406D01*
X186920448Y-71294936D01*
X186921759Y-71310553D01*
X186923458Y-71316478D01*
X186961774Y-71450101D01*
X186978544Y-71508586D01*
X186981359Y-71514063D01*
X186981360Y-71514066D01*
X187069897Y-71686341D01*
X187072712Y-71691818D01*
X187200677Y-71853270D01*
X187205370Y-71857264D01*
X187205371Y-71857265D01*
X187322197Y-71956691D01*
X187357564Y-71986791D01*
X187537398Y-72087297D01*
X187589251Y-72104145D01*
X187727471Y-72149056D01*
X187727475Y-72149057D01*
X187733329Y-72150959D01*
X187937894Y-72175351D01*
X187944029Y-72174879D01*
X187944031Y-72174879D01*
X188025795Y-72168587D01*
X188143300Y-72159546D01*
X188147502Y-72158373D01*
X188217444Y-72166174D01*
X188272547Y-72210942D01*
X188294700Y-72278394D01*
X188276868Y-72347115D01*
X188257858Y-72371485D01*
X188061174Y-72568169D01*
X187998862Y-72602195D01*
X187972280Y-72604959D01*
X187967369Y-72604443D01*
X187880529Y-72612346D01*
X187768342Y-72622555D01*
X187768339Y-72622556D01*
X187762203Y-72623114D01*
X187564572Y-72681280D01*
X187382002Y-72776726D01*
X187377201Y-72780586D01*
X187377198Y-72780588D01*
X187324069Y-72823305D01*
X187221447Y-72905815D01*
X187089024Y-73063630D01*
X187086056Y-73069028D01*
X187086053Y-73069033D01*
X187076966Y-73085563D01*
X186989776Y-73244162D01*
X186927484Y-73440532D01*
X186904520Y-73645262D01*
X186921759Y-73850553D01*
X186978544Y-74048586D01*
X186981359Y-74054063D01*
X186981360Y-74054066D01*
X187002247Y-74094707D01*
X187072712Y-74231818D01*
X187200677Y-74393270D01*
X187357564Y-74526791D01*
X187537398Y-74627297D01*
X187632238Y-74658113D01*
X187727471Y-74689056D01*
X187727475Y-74689057D01*
X187733329Y-74690959D01*
X187937894Y-74715351D01*
X187944029Y-74714879D01*
X187944031Y-74714879D01*
X188000039Y-74710569D01*
X188143300Y-74699546D01*
X188149230Y-74697890D01*
X188149232Y-74697890D01*
X188273104Y-74663304D01*
X188341725Y-74644145D01*
X188347214Y-74641372D01*
X188347220Y-74641370D01*
X188520116Y-74554033D01*
X188525610Y-74551258D01*
X188687951Y-74424424D01*
X188822564Y-74268472D01*
X188843387Y-74231818D01*
X188921276Y-74094707D01*
X188924323Y-74089344D01*
X188989351Y-73893863D01*
X189015171Y-73689474D01*
X189015583Y-73660000D01*
X189015240Y-73656504D01*
X189015099Y-73653137D01*
X189032229Y-73584238D01*
X189051893Y-73558763D01*
X193515067Y-69095589D01*
X193521310Y-69089755D01*
X193521648Y-69089460D01*
X193586123Y-69059736D01*
X193656432Y-69069589D01*
X193710254Y-69115890D01*
X193730500Y-69184389D01*
X193730500Y-77536984D01*
X193710498Y-77605105D01*
X193693595Y-77626079D01*
X188501491Y-82818183D01*
X188439179Y-82852209D01*
X188369400Y-82845783D01*
X188369055Y-82846897D01*
X188363786Y-82845266D01*
X188172254Y-82785977D01*
X188166129Y-82785333D01*
X188166128Y-82785333D01*
X187973498Y-82765087D01*
X187973496Y-82765087D01*
X187967369Y-82764443D01*
X187880529Y-82772346D01*
X187768342Y-82782555D01*
X187768339Y-82782556D01*
X187762203Y-82783114D01*
X187564572Y-82841280D01*
X187559107Y-82844137D01*
X187555959Y-82845783D01*
X187382002Y-82936726D01*
X187377201Y-82940586D01*
X187377198Y-82940588D01*
X187339949Y-82970537D01*
X187221447Y-83065815D01*
X187089024Y-83223630D01*
X187086056Y-83229028D01*
X187086053Y-83229033D01*
X187022287Y-83345024D01*
X186989776Y-83404162D01*
X186927484Y-83600532D01*
X186926798Y-83606649D01*
X186926797Y-83606653D01*
X186917990Y-83685174D01*
X186904520Y-83805262D01*
X186905036Y-83811406D01*
X186911234Y-83885210D01*
X186921759Y-84010553D01*
X186978544Y-84208586D01*
X186981359Y-84214063D01*
X186981360Y-84214066D01*
X187002247Y-84254707D01*
X187072712Y-84391818D01*
X187200677Y-84553270D01*
X187215162Y-84565598D01*
X187254075Y-84624978D01*
X187259500Y-84661552D01*
X187259500Y-85516428D01*
X187239498Y-85584549D01*
X187223559Y-85604117D01*
X187221447Y-85605815D01*
X187089024Y-85763630D01*
X187086056Y-85769028D01*
X187086053Y-85769033D01*
X187079315Y-85781290D01*
X186989776Y-85944162D01*
X186927484Y-86140532D01*
X186926798Y-86146649D01*
X186926797Y-86146653D01*
X186910777Y-86289481D01*
X186904520Y-86345262D01*
X186921759Y-86550553D01*
X186978544Y-86748586D01*
X187072712Y-86931818D01*
X187200677Y-87093270D01*
X187205370Y-87097264D01*
X187205371Y-87097265D01*
X187239651Y-87126439D01*
X187357564Y-87226791D01*
X187537398Y-87327297D01*
X187632238Y-87358113D01*
X187727471Y-87389056D01*
X187727475Y-87389057D01*
X187733329Y-87390959D01*
X187937894Y-87415351D01*
X187944028Y-87414879D01*
X187944029Y-87414879D01*
X187947368Y-87414622D01*
X187960711Y-87413595D01*
X188030164Y-87428311D01*
X188059473Y-87450129D01*
X188259318Y-87649974D01*
X188293344Y-87712286D01*
X188288279Y-87783101D01*
X188245732Y-87839937D01*
X188179212Y-87864748D01*
X188157053Y-87864379D01*
X187973498Y-87845087D01*
X187973496Y-87845087D01*
X187967369Y-87844443D01*
X187880529Y-87852346D01*
X187768342Y-87862555D01*
X187768339Y-87862556D01*
X187762203Y-87863114D01*
X187564572Y-87921280D01*
X187382002Y-88016726D01*
X187377201Y-88020586D01*
X187377198Y-88020588D01*
X187226254Y-88141950D01*
X187221447Y-88145815D01*
X187089024Y-88303630D01*
X187086056Y-88309028D01*
X187086053Y-88309033D01*
X187011407Y-88444815D01*
X186989776Y-88484162D01*
X186927484Y-88680532D01*
X186926798Y-88686649D01*
X186926797Y-88686653D01*
X186910501Y-88831939D01*
X186904520Y-88885262D01*
X186905036Y-88891406D01*
X186911234Y-88965210D01*
X186921759Y-89090553D01*
X186978544Y-89288586D01*
X186981359Y-89294063D01*
X186981360Y-89294066D01*
X187064383Y-89455612D01*
X187072712Y-89471818D01*
X187200677Y-89633270D01*
X187205370Y-89637264D01*
X187205371Y-89637265D01*
X187335109Y-89747680D01*
X187357564Y-89766791D01*
X187537398Y-89867297D01*
X187596948Y-89886646D01*
X187727471Y-89929056D01*
X187727475Y-89929057D01*
X187733329Y-89930959D01*
X187937894Y-89955351D01*
X187944029Y-89954879D01*
X187944031Y-89954879D01*
X188000039Y-89950569D01*
X188143300Y-89939546D01*
X188149230Y-89937890D01*
X188149232Y-89937890D01*
X188335797Y-89885800D01*
X188335796Y-89885800D01*
X188341725Y-89884145D01*
X188347214Y-89881372D01*
X188347220Y-89881370D01*
X188520116Y-89794033D01*
X188525610Y-89791258D01*
X188687951Y-89664424D01*
X188702010Y-89648137D01*
X188818540Y-89513134D01*
X188818540Y-89513133D01*
X188822564Y-89508472D01*
X188826603Y-89501363D01*
X188879413Y-89408400D01*
X188924323Y-89329344D01*
X188989351Y-89133863D01*
X189015171Y-88929474D01*
X189015583Y-88900000D01*
X188996246Y-88702785D01*
X189009506Y-88633039D01*
X189058368Y-88581532D01*
X189127321Y-88564619D01*
X189194471Y-88587669D01*
X189210740Y-88601396D01*
X190778595Y-90169251D01*
X190812621Y-90231563D01*
X190815500Y-90258346D01*
X190815500Y-95797477D01*
X190795498Y-95865598D01*
X190741842Y-95912091D01*
X190671568Y-95922195D01*
X190606988Y-95892701D01*
X190573091Y-95845695D01*
X190571829Y-95842649D01*
X190516536Y-95709159D01*
X190444450Y-95615215D01*
X190420282Y-95583718D01*
X190395328Y-95564570D01*
X190382938Y-95553703D01*
X189039026Y-94209791D01*
X189005000Y-94147479D01*
X189003115Y-94104904D01*
X189014728Y-94012978D01*
X189015171Y-94009474D01*
X189015583Y-93980000D01*
X188995480Y-93774970D01*
X188935935Y-93577749D01*
X188839218Y-93395849D01*
X188765859Y-93305902D01*
X188712906Y-93240975D01*
X188712903Y-93240972D01*
X188709011Y-93236200D01*
X188567857Y-93119427D01*
X188555025Y-93108811D01*
X188555021Y-93108809D01*
X188550275Y-93104882D01*
X188369055Y-93006897D01*
X188172254Y-92945977D01*
X188166129Y-92945333D01*
X188166128Y-92945333D01*
X187973498Y-92925087D01*
X187973496Y-92925087D01*
X187967369Y-92924443D01*
X187830282Y-92936919D01*
X187760630Y-92923174D01*
X187729768Y-92900533D01*
X187462832Y-92633597D01*
X187428806Y-92571285D01*
X187433871Y-92500470D01*
X187476418Y-92443634D01*
X187542938Y-92418823D01*
X187590863Y-92424669D01*
X187727471Y-92469056D01*
X187727475Y-92469057D01*
X187733329Y-92470959D01*
X187937894Y-92495351D01*
X187944029Y-92494879D01*
X187944031Y-92494879D01*
X188000039Y-92490569D01*
X188143300Y-92479546D01*
X188149230Y-92477890D01*
X188149232Y-92477890D01*
X188335797Y-92425800D01*
X188335796Y-92425800D01*
X188341725Y-92424145D01*
X188347214Y-92421372D01*
X188347220Y-92421370D01*
X188520116Y-92334033D01*
X188525610Y-92331258D01*
X188687951Y-92204424D01*
X188700080Y-92190373D01*
X188818540Y-92053134D01*
X188818540Y-92053133D01*
X188822564Y-92048472D01*
X188830416Y-92034651D01*
X188921276Y-91874707D01*
X188924323Y-91869344D01*
X188989351Y-91673863D01*
X189015171Y-91469474D01*
X189015583Y-91440000D01*
X188995480Y-91234970D01*
X188935935Y-91037749D01*
X188839218Y-90855849D01*
X188765859Y-90765902D01*
X188712906Y-90700975D01*
X188712903Y-90700972D01*
X188709011Y-90696200D01*
X188704262Y-90692271D01*
X188555025Y-90568811D01*
X188555021Y-90568809D01*
X188550275Y-90564882D01*
X188369055Y-90466897D01*
X188172254Y-90405977D01*
X188166129Y-90405333D01*
X188166128Y-90405333D01*
X187973498Y-90385087D01*
X187973496Y-90385087D01*
X187967369Y-90384443D01*
X187880529Y-90392346D01*
X187768342Y-90402555D01*
X187768339Y-90402556D01*
X187762203Y-90403114D01*
X187564572Y-90461280D01*
X187559113Y-90464134D01*
X187554776Y-90465886D01*
X187484123Y-90472858D01*
X187418482Y-90438155D01*
X185782405Y-88802079D01*
X185748380Y-88739767D01*
X185745500Y-88712984D01*
X185745500Y-86379713D01*
X185745979Y-86368732D01*
X185748303Y-86342170D01*
X185748303Y-86342168D01*
X185749263Y-86331193D01*
X185739508Y-86294783D01*
X185737133Y-86284072D01*
X185732501Y-86257806D01*
X185730588Y-86246955D01*
X185725078Y-86237411D01*
X185723886Y-86234135D01*
X185722407Y-86230964D01*
X185719554Y-86220316D01*
X185697940Y-86189448D01*
X185692036Y-86180179D01*
X185678707Y-86157092D01*
X185678704Y-86157088D01*
X185673194Y-86147545D01*
X185644324Y-86123320D01*
X185636221Y-86115894D01*
X184394110Y-84873784D01*
X184386683Y-84865680D01*
X184369541Y-84845251D01*
X184369542Y-84845251D01*
X184362455Y-84836806D01*
X184352906Y-84831293D01*
X184329815Y-84817961D01*
X184320544Y-84812055D01*
X184298715Y-84796770D01*
X184289684Y-84790446D01*
X184279034Y-84787592D01*
X184275866Y-84786115D01*
X184272590Y-84784923D01*
X184263045Y-84779412D01*
X184229301Y-84773462D01*
X184225942Y-84772870D01*
X184215215Y-84770492D01*
X184178807Y-84760736D01*
X184167822Y-84761697D01*
X184167820Y-84761697D01*
X184141272Y-84764020D01*
X184130290Y-84764500D01*
X181797017Y-84764500D01*
X181728896Y-84744498D01*
X181707922Y-84727595D01*
X180702405Y-83722079D01*
X180668380Y-83659767D01*
X180665500Y-83632984D01*
X180665500Y-81915000D01*
X181549437Y-81915000D01*
X181569651Y-82146050D01*
X181629680Y-82370079D01*
X181632005Y-82375064D01*
X181725373Y-82575294D01*
X181725376Y-82575299D01*
X181727699Y-82580281D01*
X181730855Y-82584788D01*
X181730856Y-82584790D01*
X181857102Y-82765087D01*
X181860730Y-82770269D01*
X182024731Y-82934270D01*
X182214718Y-83067301D01*
X182219700Y-83069624D01*
X182219705Y-83069627D01*
X182326616Y-83119480D01*
X182424921Y-83165320D01*
X182648950Y-83225349D01*
X182880000Y-83245563D01*
X183111050Y-83225349D01*
X183335079Y-83165320D01*
X183433384Y-83119480D01*
X183540295Y-83069627D01*
X183540300Y-83069624D01*
X183545282Y-83067301D01*
X183735269Y-82934270D01*
X183899270Y-82770269D01*
X183902899Y-82765087D01*
X184029144Y-82584790D01*
X184029145Y-82584788D01*
X184032301Y-82580281D01*
X184034624Y-82575299D01*
X184034627Y-82575294D01*
X184127995Y-82375064D01*
X184130320Y-82370079D01*
X184190349Y-82146050D01*
X184210563Y-81915000D01*
X184190349Y-81683950D01*
X184130320Y-81459921D01*
X184061799Y-81312978D01*
X184039549Y-81265262D01*
X186904520Y-81265262D01*
X186905036Y-81271406D01*
X186920448Y-81454936D01*
X186921759Y-81470553D01*
X186978544Y-81668586D01*
X186981359Y-81674063D01*
X186981360Y-81674066D01*
X187002247Y-81714707D01*
X187072712Y-81851818D01*
X187200677Y-82013270D01*
X187357564Y-82146791D01*
X187537398Y-82247297D01*
X187625041Y-82275774D01*
X187727471Y-82309056D01*
X187727475Y-82309057D01*
X187733329Y-82310959D01*
X187937894Y-82335351D01*
X187944029Y-82334879D01*
X187944031Y-82334879D01*
X188000039Y-82330569D01*
X188143300Y-82319546D01*
X188149230Y-82317890D01*
X188149232Y-82317890D01*
X188335797Y-82265800D01*
X188335796Y-82265800D01*
X188341725Y-82264145D01*
X188347214Y-82261372D01*
X188347220Y-82261370D01*
X188520116Y-82174033D01*
X188525610Y-82171258D01*
X188551079Y-82151360D01*
X188683101Y-82048213D01*
X188687951Y-82044424D01*
X188822564Y-81888472D01*
X188843387Y-81851818D01*
X188921276Y-81714707D01*
X188924323Y-81709344D01*
X188989351Y-81513863D01*
X189015171Y-81309474D01*
X189015583Y-81280000D01*
X188995480Y-81074970D01*
X188935935Y-80877749D01*
X188839218Y-80695849D01*
X188723669Y-80554172D01*
X188712906Y-80540975D01*
X188712903Y-80540972D01*
X188709011Y-80536200D01*
X188691786Y-80521950D01*
X188555025Y-80408811D01*
X188555021Y-80408809D01*
X188550275Y-80404882D01*
X188369055Y-80306897D01*
X188172254Y-80245977D01*
X188166129Y-80245333D01*
X188166128Y-80245333D01*
X187973498Y-80225087D01*
X187973496Y-80225087D01*
X187967369Y-80224443D01*
X187880529Y-80232346D01*
X187768342Y-80242555D01*
X187768339Y-80242556D01*
X187762203Y-80243114D01*
X187564572Y-80301280D01*
X187382002Y-80396726D01*
X187377201Y-80400586D01*
X187377198Y-80400588D01*
X187366971Y-80408811D01*
X187221447Y-80525815D01*
X187089024Y-80683630D01*
X187086056Y-80689028D01*
X187086053Y-80689033D01*
X187043820Y-80765856D01*
X186989776Y-80864162D01*
X186927484Y-81060532D01*
X186926798Y-81066649D01*
X186926797Y-81066653D01*
X186906769Y-81245210D01*
X186904520Y-81265262D01*
X184039549Y-81265262D01*
X184034627Y-81254706D01*
X184034624Y-81254701D01*
X184032301Y-81249719D01*
X183914235Y-81081103D01*
X183902429Y-81064242D01*
X183902427Y-81064239D01*
X183899270Y-81059731D01*
X183735269Y-80895730D01*
X183690186Y-80864162D01*
X183651708Y-80837220D01*
X183545282Y-80762699D01*
X183540300Y-80760376D01*
X183540295Y-80760373D01*
X183433384Y-80710520D01*
X183335079Y-80664680D01*
X183111050Y-80604651D01*
X182880000Y-80584437D01*
X182648950Y-80604651D01*
X182424921Y-80664680D01*
X182358079Y-80695849D01*
X182219706Y-80760373D01*
X182219701Y-80760376D01*
X182214719Y-80762699D01*
X182210212Y-80765855D01*
X182210210Y-80765856D01*
X182029242Y-80892571D01*
X182029239Y-80892573D01*
X182024731Y-80895730D01*
X181860730Y-81059731D01*
X181857573Y-81064239D01*
X181857571Y-81064242D01*
X181845765Y-81081103D01*
X181727699Y-81249719D01*
X181725376Y-81254701D01*
X181725373Y-81254706D01*
X181698201Y-81312978D01*
X181629680Y-81459921D01*
X181569651Y-81683950D01*
X181549437Y-81915000D01*
X180665500Y-81915000D01*
X180665500Y-78725262D01*
X186904520Y-78725262D01*
X186921759Y-78930553D01*
X186978544Y-79128586D01*
X186981359Y-79134063D01*
X186981360Y-79134066D01*
X187002247Y-79174707D01*
X187072712Y-79311818D01*
X187200677Y-79473270D01*
X187357564Y-79606791D01*
X187537398Y-79707297D01*
X187632238Y-79738113D01*
X187727471Y-79769056D01*
X187727475Y-79769057D01*
X187733329Y-79770959D01*
X187937894Y-79795351D01*
X187944029Y-79794879D01*
X187944031Y-79794879D01*
X188000039Y-79790569D01*
X188143300Y-79779546D01*
X188149230Y-79777890D01*
X188149232Y-79777890D01*
X188335797Y-79725800D01*
X188335796Y-79725800D01*
X188341725Y-79724145D01*
X188347214Y-79721372D01*
X188347220Y-79721370D01*
X188520116Y-79634033D01*
X188525610Y-79631258D01*
X188687951Y-79504424D01*
X188822564Y-79348472D01*
X188843387Y-79311818D01*
X188921276Y-79174707D01*
X188924323Y-79169344D01*
X188989351Y-78973863D01*
X189015171Y-78769474D01*
X189015583Y-78740000D01*
X188995480Y-78534970D01*
X188935935Y-78337749D01*
X188839218Y-78155849D01*
X188765859Y-78065902D01*
X188712906Y-78000975D01*
X188712903Y-78000972D01*
X188709011Y-77996200D01*
X188691786Y-77981950D01*
X188555025Y-77868811D01*
X188555021Y-77868809D01*
X188550275Y-77864882D01*
X188369055Y-77766897D01*
X188172254Y-77705977D01*
X188166129Y-77705333D01*
X188166128Y-77705333D01*
X187973498Y-77685087D01*
X187973496Y-77685087D01*
X187967369Y-77684443D01*
X187880529Y-77692346D01*
X187768342Y-77702555D01*
X187768339Y-77702556D01*
X187762203Y-77703114D01*
X187564572Y-77761280D01*
X187382002Y-77856726D01*
X187377201Y-77860586D01*
X187377198Y-77860588D01*
X187274025Y-77943541D01*
X187221447Y-77985815D01*
X187089024Y-78143630D01*
X187086056Y-78149028D01*
X187086053Y-78149033D01*
X187076966Y-78165563D01*
X186989776Y-78324162D01*
X186927484Y-78520532D01*
X186926798Y-78526649D01*
X186926797Y-78526653D01*
X186905207Y-78719137D01*
X186904520Y-78725262D01*
X180665500Y-78725262D01*
X180665500Y-75385016D01*
X180685502Y-75316895D01*
X180739158Y-75270402D01*
X180809432Y-75260298D01*
X180874012Y-75289792D01*
X180880579Y-75295905D01*
X181673804Y-76089131D01*
X181707828Y-76151441D01*
X181702763Y-76222257D01*
X181698902Y-76231474D01*
X181629680Y-76379921D01*
X181569651Y-76603950D01*
X181549437Y-76835000D01*
X181569651Y-77066050D01*
X181629680Y-77290079D01*
X181632005Y-77295064D01*
X181725373Y-77495294D01*
X181725376Y-77495299D01*
X181727699Y-77500281D01*
X181730855Y-77504788D01*
X181730856Y-77504790D01*
X181857102Y-77685087D01*
X181860730Y-77690269D01*
X182024731Y-77854270D01*
X182029239Y-77857427D01*
X182029242Y-77857429D01*
X182051073Y-77872715D01*
X182214718Y-77987301D01*
X182219700Y-77989624D01*
X182219705Y-77989627D01*
X182326616Y-78039480D01*
X182424921Y-78085320D01*
X182648950Y-78145349D01*
X182880000Y-78165563D01*
X183111050Y-78145349D01*
X183335079Y-78085320D01*
X183433384Y-78039480D01*
X183540295Y-77989627D01*
X183540300Y-77989624D01*
X183545282Y-77987301D01*
X183708927Y-77872715D01*
X183730758Y-77857429D01*
X183730761Y-77857427D01*
X183735269Y-77854270D01*
X183899270Y-77690269D01*
X183902899Y-77685087D01*
X184029144Y-77504790D01*
X184029145Y-77504788D01*
X184032301Y-77500281D01*
X184034624Y-77495299D01*
X184034627Y-77495294D01*
X184127995Y-77295064D01*
X184130320Y-77290079D01*
X184190349Y-77066050D01*
X184210563Y-76835000D01*
X184190349Y-76603950D01*
X184130320Y-76379921D01*
X184061098Y-76231474D01*
X184039549Y-76185262D01*
X186904520Y-76185262D01*
X186905036Y-76191406D01*
X186920448Y-76374936D01*
X186921759Y-76390553D01*
X186978544Y-76588586D01*
X186981359Y-76594063D01*
X186981360Y-76594066D01*
X187002247Y-76634707D01*
X187072712Y-76771818D01*
X187200677Y-76933270D01*
X187357564Y-77066791D01*
X187537398Y-77167297D01*
X187632238Y-77198113D01*
X187727471Y-77229056D01*
X187727475Y-77229057D01*
X187733329Y-77230959D01*
X187937894Y-77255351D01*
X187944029Y-77254879D01*
X187944031Y-77254879D01*
X188000039Y-77250569D01*
X188143300Y-77239546D01*
X188149230Y-77237890D01*
X188149232Y-77237890D01*
X188335797Y-77185800D01*
X188335796Y-77185800D01*
X188341725Y-77184145D01*
X188347214Y-77181372D01*
X188347220Y-77181370D01*
X188520116Y-77094033D01*
X188525610Y-77091258D01*
X188551079Y-77071360D01*
X188683101Y-76968213D01*
X188687951Y-76964424D01*
X188822564Y-76808472D01*
X188843387Y-76771818D01*
X188921276Y-76634707D01*
X188924323Y-76629344D01*
X188989351Y-76433863D01*
X189015171Y-76229474D01*
X189015583Y-76200000D01*
X188995480Y-75994970D01*
X188935935Y-75797749D01*
X188839218Y-75615849D01*
X188748352Y-75504437D01*
X188712906Y-75460975D01*
X188712903Y-75460972D01*
X188709011Y-75456200D01*
X188691786Y-75441950D01*
X188555025Y-75328811D01*
X188555021Y-75328809D01*
X188550275Y-75324882D01*
X188369055Y-75226897D01*
X188172254Y-75165977D01*
X188166129Y-75165333D01*
X188166128Y-75165333D01*
X187973498Y-75145087D01*
X187973496Y-75145087D01*
X187967369Y-75144443D01*
X187880529Y-75152346D01*
X187768342Y-75162555D01*
X187768339Y-75162556D01*
X187762203Y-75163114D01*
X187564572Y-75221280D01*
X187382002Y-75316726D01*
X187377201Y-75320586D01*
X187377198Y-75320588D01*
X187366971Y-75328811D01*
X187221447Y-75445815D01*
X187089024Y-75603630D01*
X187086056Y-75609028D01*
X187086053Y-75609033D01*
X187043820Y-75685856D01*
X186989776Y-75784162D01*
X186927484Y-75980532D01*
X186926798Y-75986649D01*
X186926797Y-75986653D01*
X186915303Y-76089129D01*
X186904520Y-76185262D01*
X184039549Y-76185262D01*
X184034627Y-76174706D01*
X184034624Y-76174701D01*
X184032301Y-76169719D01*
X184019503Y-76151441D01*
X183902429Y-75984242D01*
X183902427Y-75984239D01*
X183899270Y-75979731D01*
X183735269Y-75815730D01*
X183690186Y-75784162D01*
X183651708Y-75757220D01*
X183545282Y-75682699D01*
X183540300Y-75680376D01*
X183540295Y-75680373D01*
X183429699Y-75628802D01*
X183335079Y-75584680D01*
X183111050Y-75524651D01*
X182880000Y-75504437D01*
X182648950Y-75524651D01*
X182424921Y-75584680D01*
X182358079Y-75615849D01*
X182276474Y-75653902D01*
X182206282Y-75664563D01*
X182141470Y-75635583D01*
X182134129Y-75628802D01*
X181151925Y-74646599D01*
X181117900Y-74584287D01*
X181115020Y-74557504D01*
X181115020Y-66670599D01*
X181135022Y-66602478D01*
X181188678Y-66555985D01*
X181258952Y-66545881D01*
X181302481Y-66560946D01*
X181307159Y-66564536D01*
X181314785Y-66567695D01*
X181314787Y-66567696D01*
X181398759Y-66602478D01*
X181453238Y-66625044D01*
X181610000Y-66645682D01*
X181618188Y-66644604D01*
X181758574Y-66626122D01*
X181766762Y-66625044D01*
X181912841Y-66564536D01*
X182038282Y-66468282D01*
X182079323Y-66414796D01*
X182136661Y-66372929D01*
X182179286Y-66365500D01*
X185400290Y-66365500D01*
X185411272Y-66365980D01*
X185437820Y-66368303D01*
X185437822Y-66368303D01*
X185448807Y-66369264D01*
X185485215Y-66359508D01*
X185495942Y-66357130D01*
X185499594Y-66356486D01*
X185533045Y-66350588D01*
X185542590Y-66345077D01*
X185545866Y-66343885D01*
X185549034Y-66342408D01*
X185559684Y-66339554D01*
X185590544Y-66317945D01*
X185599815Y-66312039D01*
X185622906Y-66298707D01*
X185632455Y-66293194D01*
X185656685Y-66264317D01*
X185664111Y-66256215D01*
X188176222Y-63744105D01*
X188184326Y-63736678D01*
X188204749Y-63719541D01*
X188213194Y-63712455D01*
X188232039Y-63679815D01*
X188237943Y-63670547D01*
X188253231Y-63648713D01*
X188259553Y-63639684D01*
X188262406Y-63629038D01*
X188263883Y-63625870D01*
X188265076Y-63622593D01*
X188270588Y-63613045D01*
X188277132Y-63575931D01*
X188279512Y-63565196D01*
X188286410Y-63539454D01*
X188289263Y-63528807D01*
X188285978Y-63491257D01*
X188285500Y-63480288D01*
X188285500Y-62102057D01*
X188305502Y-62033936D01*
X188359158Y-61987443D01*
X188370999Y-61982744D01*
X188404064Y-61971520D01*
X188404066Y-61971519D01*
X188409531Y-61969664D01*
X188586001Y-61870837D01*
X188648433Y-61818913D01*
X188737073Y-61745191D01*
X188741505Y-61741505D01*
X188825411Y-61640620D01*
X188867146Y-61590439D01*
X188870837Y-61586001D01*
X188969664Y-61409531D01*
X189034678Y-61218007D01*
X189035507Y-61212291D01*
X189035508Y-61212286D01*
X189063167Y-61021516D01*
X189063700Y-61017842D01*
X189065215Y-60960000D01*
X189046708Y-60758591D01*
X188991807Y-60563926D01*
X188902351Y-60382527D01*
X188890583Y-60366767D01*
X188784788Y-60225091D01*
X188784787Y-60225090D01*
X188781335Y-60220467D01*
X188758350Y-60199220D01*
X188637053Y-60087094D01*
X188637051Y-60087092D01*
X188632812Y-60083174D01*
X188602434Y-60064007D01*
X188466637Y-59978325D01*
X188461757Y-59975246D01*
X188273898Y-59900298D01*
X188075526Y-59860839D01*
X188069752Y-59860763D01*
X188069748Y-59860763D01*
X187967257Y-59859422D01*
X187873286Y-59858192D01*
X187867589Y-59859171D01*
X187867588Y-59859171D01*
X187679646Y-59891465D01*
X187679645Y-59891465D01*
X187673949Y-59892444D01*
X187484193Y-59962449D01*
X187479232Y-59965401D01*
X187479231Y-59965401D01*
X187323109Y-60058284D01*
X187310371Y-60065862D01*
X187158305Y-60199220D01*
X187033089Y-60358057D01*
X186938914Y-60537053D01*
X186878937Y-60730213D01*
X186855164Y-60931069D01*
X186868392Y-61132894D01*
X186918178Y-61328928D01*
X187002856Y-61512607D01*
X187006189Y-61517323D01*
X187110492Y-61664909D01*
X187119588Y-61677780D01*
X187264466Y-61818913D01*
X187432637Y-61931282D01*
X187437941Y-61933561D01*
X187437947Y-61933564D01*
X187558237Y-61985244D01*
X187612931Y-62030512D01*
X187634500Y-62101012D01*
X187634500Y-63312983D01*
X187614498Y-63381104D01*
X187597595Y-63402078D01*
X185322079Y-65677595D01*
X185259767Y-65711620D01*
X185232984Y-65714500D01*
X182179286Y-65714500D01*
X182111165Y-65694498D01*
X182079323Y-65665204D01*
X182043305Y-65618264D01*
X182038282Y-65611718D01*
X181912841Y-65515464D01*
X181766762Y-65454956D01*
X181610000Y-65434318D01*
X181453238Y-65454956D01*
X181445609Y-65458116D01*
X181314787Y-65512304D01*
X181314785Y-65512305D01*
X181307159Y-65515464D01*
X181302784Y-65518821D01*
X181235021Y-65535258D01*
X181167930Y-65512035D01*
X181124044Y-65456227D01*
X181115020Y-65409401D01*
X181115020Y-61879748D01*
X184319500Y-61879748D01*
X184331133Y-61938231D01*
X184375448Y-62004552D01*
X184441769Y-62048867D01*
X184453938Y-62051288D01*
X184453939Y-62051288D01*
X184487447Y-62057953D01*
X184500252Y-62060500D01*
X186339748Y-62060500D01*
X186352553Y-62057953D01*
X186386061Y-62051288D01*
X186386062Y-62051288D01*
X186398231Y-62048867D01*
X186464552Y-62004552D01*
X186508867Y-61938231D01*
X186520500Y-61879748D01*
X186520500Y-60040252D01*
X186508867Y-59981769D01*
X186464552Y-59915448D01*
X186430125Y-59892444D01*
X186408547Y-59878026D01*
X186398231Y-59871133D01*
X186386062Y-59868712D01*
X186386061Y-59868712D01*
X186345816Y-59860707D01*
X186339748Y-59859500D01*
X184500252Y-59859500D01*
X184494184Y-59860707D01*
X184453939Y-59868712D01*
X184453938Y-59868712D01*
X184441769Y-59871133D01*
X184431453Y-59878026D01*
X184409875Y-59892444D01*
X184375448Y-59915448D01*
X184331133Y-59981769D01*
X184319500Y-60040252D01*
X184319500Y-61879748D01*
X181115020Y-61879748D01*
X181115020Y-59427496D01*
X181135022Y-59359375D01*
X181151925Y-59338401D01*
X182977922Y-57512405D01*
X183040234Y-57478379D01*
X183067017Y-57475500D01*
X186670290Y-57475500D01*
X186681272Y-57475980D01*
X186707820Y-57478303D01*
X186707822Y-57478303D01*
X186718807Y-57479264D01*
X186755215Y-57469508D01*
X186765942Y-57467130D01*
X186769301Y-57466538D01*
X186803045Y-57460588D01*
X186812590Y-57455077D01*
X186815866Y-57453885D01*
X186819034Y-57452408D01*
X186829684Y-57449554D01*
X186860544Y-57427945D01*
X186869815Y-57422039D01*
X186892910Y-57408705D01*
X186892911Y-57408704D01*
X186902455Y-57403194D01*
X186926685Y-57374319D01*
X186934110Y-57366217D01*
X188176222Y-56124105D01*
X188184326Y-56116678D01*
X188204750Y-56099540D01*
X188213194Y-56092455D01*
X188218704Y-56082912D01*
X188218707Y-56082908D01*
X188232036Y-56059821D01*
X188237941Y-56050551D01*
X188253232Y-56028713D01*
X188259554Y-56019684D01*
X188262407Y-56009036D01*
X188263886Y-56005865D01*
X188265078Y-56002589D01*
X188270588Y-55993045D01*
X188277134Y-55955924D01*
X188279508Y-55945217D01*
X188289263Y-55908807D01*
X188287036Y-55883345D01*
X188285979Y-55871269D01*
X188285500Y-55860288D01*
X188285500Y-54482057D01*
X188305502Y-54413936D01*
X188359158Y-54367443D01*
X188370999Y-54362744D01*
X188404064Y-54351520D01*
X188404066Y-54351519D01*
X188409531Y-54349664D01*
X188586001Y-54250837D01*
X188648433Y-54198913D01*
X188737073Y-54125191D01*
X188741505Y-54121505D01*
X188870837Y-53966001D01*
X188969664Y-53789531D01*
X188986764Y-53739158D01*
X189032820Y-53603481D01*
X189032820Y-53603479D01*
X189034678Y-53598007D01*
X189035507Y-53592291D01*
X189035508Y-53592286D01*
X189063167Y-53401516D01*
X189063700Y-53397842D01*
X189065215Y-53340000D01*
X189046708Y-53138591D01*
X188991807Y-52943926D01*
X188902351Y-52762527D01*
X188884079Y-52738057D01*
X188784788Y-52605091D01*
X188784787Y-52605090D01*
X188781335Y-52600467D01*
X188758350Y-52579220D01*
X188637053Y-52467094D01*
X188637051Y-52467092D01*
X188632812Y-52463174D01*
X188605374Y-52445862D01*
X188466637Y-52358325D01*
X188461757Y-52355246D01*
X188273898Y-52280298D01*
X188075526Y-52240839D01*
X188069752Y-52240763D01*
X188069748Y-52240763D01*
X187967257Y-52239422D01*
X187873286Y-52238192D01*
X187867589Y-52239171D01*
X187867588Y-52239171D01*
X187679646Y-52271465D01*
X187679645Y-52271465D01*
X187673949Y-52272444D01*
X187484193Y-52342449D01*
X187479232Y-52345401D01*
X187479231Y-52345401D01*
X187353418Y-52420252D01*
X187310371Y-52445862D01*
X187158305Y-52579220D01*
X187033089Y-52738057D01*
X186938914Y-52917053D01*
X186878937Y-53110213D01*
X186855164Y-53311069D01*
X186868392Y-53512894D01*
X186890008Y-53598007D01*
X186912229Y-53685502D01*
X186918178Y-53708928D01*
X187002856Y-53892607D01*
X187006189Y-53897323D01*
X187098624Y-54028116D01*
X187119588Y-54057780D01*
X187264466Y-54198913D01*
X187432637Y-54311282D01*
X187437941Y-54313561D01*
X187437947Y-54313564D01*
X187558237Y-54365244D01*
X187612931Y-54410512D01*
X187634500Y-54481012D01*
X187634500Y-55692983D01*
X187614498Y-55761104D01*
X187597595Y-55782078D01*
X186592079Y-56787595D01*
X186529767Y-56821620D01*
X186502984Y-56824500D01*
X182899713Y-56824500D01*
X182888732Y-56824021D01*
X182862170Y-56821697D01*
X182862168Y-56821697D01*
X182851193Y-56820737D01*
X182814783Y-56830492D01*
X182804076Y-56832866D01*
X182766955Y-56839412D01*
X182757411Y-56844922D01*
X182754135Y-56846114D01*
X182750964Y-56847593D01*
X182740316Y-56850446D01*
X182731287Y-56856768D01*
X182709449Y-56872059D01*
X182700179Y-56877964D01*
X182677092Y-56891293D01*
X182677088Y-56891296D01*
X182667545Y-56896806D01*
X182660460Y-56905250D01*
X182643320Y-56925676D01*
X182635894Y-56933779D01*
X180573304Y-58996370D01*
X180565201Y-59003796D01*
X180536326Y-59028025D01*
X180530813Y-59037574D01*
X180517481Y-59060665D01*
X180511575Y-59069936D01*
X180489966Y-59100796D01*
X180487112Y-59111445D01*
X180485639Y-59114605D01*
X180484446Y-59117885D01*
X180481739Y-59122573D01*
X180481139Y-59123388D01*
X180479952Y-59125668D01*
X180478932Y-59127435D01*
X180478932Y-59127436D01*
X180478389Y-59127123D01*
X180441626Y-59177059D01*
X180375306Y-59202400D01*
X180305814Y-59187863D01*
X180276222Y-59165895D01*
X179314099Y-58203773D01*
X179306683Y-58195680D01*
X179289541Y-58175251D01*
X179289542Y-58175251D01*
X179282455Y-58166806D01*
X179272906Y-58161293D01*
X179249815Y-58147961D01*
X179240544Y-58142055D01*
X179218715Y-58126770D01*
X179209684Y-58120446D01*
X179199034Y-58117592D01*
X179195866Y-58116115D01*
X179192590Y-58114923D01*
X179183045Y-58109412D01*
X179149301Y-58103462D01*
X179145942Y-58102870D01*
X179135215Y-58100492D01*
X179098808Y-58090736D01*
X179099573Y-58087882D01*
X179049409Y-58068264D01*
X179007764Y-58010765D01*
X179000500Y-57968600D01*
X179000500Y-57447752D01*
X178988867Y-57389269D01*
X178944552Y-57322948D01*
X178878231Y-57278633D01*
X178866062Y-57276212D01*
X178866061Y-57276212D01*
X178825816Y-57268207D01*
X178819748Y-57267000D01*
X176780252Y-57267000D01*
X176774184Y-57268207D01*
X176733939Y-57276212D01*
X176733938Y-57276212D01*
X176721769Y-57278633D01*
X176655448Y-57322948D01*
X176611133Y-57389269D01*
X176599500Y-57447752D01*
X176599500Y-59392248D01*
X176611133Y-59450731D01*
X176655448Y-59517052D01*
X176721769Y-59561367D01*
X176733938Y-59563788D01*
X176733939Y-59563788D01*
X176774184Y-59571793D01*
X176780252Y-59573000D01*
X177513653Y-59573000D01*
X177581774Y-59593002D01*
X177628267Y-59646658D01*
X177638371Y-59716932D01*
X177608877Y-59781512D01*
X177549151Y-59819896D01*
X177543371Y-59821276D01*
X177541482Y-59821450D01*
X177535920Y-59823019D01*
X177535918Y-59823019D01*
X177439506Y-59850210D01*
X177337531Y-59878970D01*
X177147478Y-59972694D01*
X177142852Y-59976148D01*
X177142851Y-59976149D01*
X177047722Y-60047185D01*
X176977687Y-60099483D01*
X176958666Y-60120060D01*
X176859697Y-60227124D01*
X176833844Y-60255091D01*
X176720768Y-60434306D01*
X176642244Y-60631127D01*
X176641118Y-60636787D01*
X176641117Y-60636791D01*
X176602030Y-60833295D01*
X176600903Y-60838962D01*
X176600827Y-60844737D01*
X176600827Y-60844741D01*
X176600508Y-60869149D01*
X176598130Y-61050851D01*
X176634016Y-61259697D01*
X176707360Y-61458506D01*
X176815707Y-61640620D01*
X176955427Y-61799940D01*
X176959962Y-61803515D01*
X176959963Y-61803516D01*
X177045360Y-61870837D01*
X177121841Y-61931130D01*
X177149962Y-61945925D01*
X177200933Y-61995344D01*
X177217095Y-62064477D01*
X177193315Y-62131373D01*
X177141534Y-62172982D01*
X177064711Y-62206385D01*
X177055636Y-62211251D01*
X176862673Y-62336085D01*
X176854502Y-62342378D01*
X176684520Y-62497050D01*
X176677494Y-62504583D01*
X176535055Y-62684944D01*
X176529350Y-62693531D01*
X176418286Y-62894722D01*
X176414056Y-62904134D01*
X176337341Y-63120768D01*
X176334707Y-63130739D01*
X176317353Y-63228163D01*
X176318813Y-63241460D01*
X176333370Y-63246000D01*
X179268096Y-63246000D01*
X179281440Y-63242082D01*
X179283427Y-63227806D01*
X179273890Y-63165485D01*
X179271501Y-63155457D01*
X179200102Y-62937012D01*
X179196105Y-62927503D01*
X179089989Y-62723656D01*
X179084495Y-62714931D01*
X178946507Y-62531148D01*
X178939664Y-62523441D01*
X178773509Y-62364661D01*
X178765499Y-62358174D01*
X178575653Y-62228670D01*
X178566683Y-62223574D01*
X178457776Y-62173021D01*
X178404410Y-62126197D01*
X178384829Y-62057953D01*
X178405253Y-61989958D01*
X178444993Y-61951300D01*
X178447343Y-61949860D01*
X178452522Y-61947306D01*
X178478280Y-61928072D01*
X178617689Y-61823970D01*
X178617690Y-61823969D01*
X178622313Y-61820517D01*
X178708483Y-61727299D01*
X178762237Y-61669149D01*
X178762239Y-61669146D01*
X178766156Y-61664909D01*
X178879232Y-61485694D01*
X178957756Y-61288873D01*
X178963560Y-61259697D01*
X178997970Y-61086705D01*
X178997970Y-61086702D01*
X178999097Y-61081038D01*
X178999418Y-61056549D01*
X179001794Y-60874931D01*
X179001870Y-60869149D01*
X178981917Y-60753027D01*
X178966962Y-60665993D01*
X178966961Y-60665990D01*
X178965984Y-60660303D01*
X178892640Y-60461494D01*
X178831058Y-60357985D01*
X178787249Y-60284348D01*
X178787247Y-60284345D01*
X178784293Y-60279380D01*
X178644573Y-60120060D01*
X178623846Y-60103720D01*
X178482698Y-59992448D01*
X178482696Y-59992447D01*
X178478159Y-59988870D01*
X178473043Y-59986179D01*
X178473041Y-59986177D01*
X178295741Y-59892895D01*
X178295739Y-59892894D01*
X178290624Y-59890203D01*
X178088249Y-59827364D01*
X178060900Y-59824127D01*
X177995603Y-59796256D01*
X177955739Y-59737508D01*
X177953965Y-59666534D01*
X177990844Y-59605867D01*
X178054668Y-59574769D01*
X178075710Y-59573000D01*
X178819748Y-59573000D01*
X178825816Y-59571793D01*
X178866061Y-59563788D01*
X178866062Y-59563788D01*
X178878231Y-59561367D01*
X178944552Y-59517052D01*
X178988867Y-59450731D01*
X179000500Y-59392248D01*
X179000500Y-59115016D01*
X179020502Y-59046895D01*
X179074158Y-59000402D01*
X179144432Y-58990298D01*
X179209012Y-59019792D01*
X179215578Y-59025905D01*
X179977597Y-59787924D01*
X180011621Y-59850234D01*
X180014500Y-59877017D01*
X180014500Y-83800290D01*
X180014020Y-83811272D01*
X180010736Y-83848807D01*
X180013590Y-83859456D01*
X180020491Y-83885210D01*
X180022870Y-83895942D01*
X180029412Y-83933045D01*
X180034923Y-83942590D01*
X180036115Y-83945866D01*
X180037592Y-83949034D01*
X180040446Y-83959684D01*
X180046770Y-83968715D01*
X180062055Y-83990544D01*
X180067961Y-83999815D01*
X180081295Y-84022910D01*
X180086806Y-84032455D01*
X180095248Y-84039539D01*
X180115681Y-84056685D01*
X180123783Y-84064110D01*
X181365895Y-85306222D01*
X181373321Y-85314325D01*
X181397545Y-85343194D01*
X181407088Y-85348704D01*
X181407092Y-85348707D01*
X181430179Y-85362036D01*
X181439448Y-85367940D01*
X181470316Y-85389554D01*
X181480964Y-85392407D01*
X181484135Y-85393886D01*
X181487411Y-85395078D01*
X181496955Y-85400588D01*
X181534076Y-85407134D01*
X181544783Y-85409508D01*
X181581193Y-85419263D01*
X181592168Y-85418303D01*
X181592170Y-85418303D01*
X181618731Y-85415979D01*
X181629712Y-85415500D01*
X183962984Y-85415500D01*
X184031105Y-85435502D01*
X184052079Y-85452405D01*
X185057595Y-86457922D01*
X185091621Y-86520234D01*
X185094500Y-86547017D01*
X185094500Y-88880290D01*
X185094020Y-88891272D01*
X185091931Y-88915153D01*
X185090736Y-88928807D01*
X185095553Y-88946782D01*
X185100491Y-88965210D01*
X185102870Y-88975942D01*
X185109412Y-89013045D01*
X185114923Y-89022590D01*
X185116115Y-89025866D01*
X185117592Y-89029034D01*
X185120446Y-89039684D01*
X185126770Y-89048715D01*
X185142055Y-89070544D01*
X185147961Y-89079815D01*
X185150615Y-89084411D01*
X185166806Y-89112455D01*
X185180760Y-89124164D01*
X185195682Y-89136685D01*
X185203785Y-89144111D01*
X186958257Y-90898584D01*
X186992283Y-90960896D01*
X186989264Y-91025776D01*
X186927484Y-91220532D01*
X186926798Y-91226649D01*
X186926797Y-91226653D01*
X186905207Y-91419137D01*
X186904520Y-91425262D01*
X186921759Y-91630553D01*
X186923458Y-91636478D01*
X186973191Y-91809917D01*
X186972740Y-91880912D01*
X186933979Y-91940393D01*
X186869212Y-91969476D01*
X186799003Y-91958926D01*
X186762977Y-91933742D01*
X184242405Y-89413170D01*
X184208379Y-89350858D01*
X184205500Y-89324075D01*
X184205500Y-87120252D01*
X184193867Y-87061769D01*
X184149552Y-86995448D01*
X184083231Y-86951133D01*
X184071062Y-86948712D01*
X184071061Y-86948712D01*
X184030816Y-86940707D01*
X184024748Y-86939500D01*
X181735252Y-86939500D01*
X181729184Y-86940707D01*
X181688939Y-86948712D01*
X181688938Y-86948712D01*
X181676769Y-86951133D01*
X181610448Y-86995448D01*
X181566133Y-87061769D01*
X181554500Y-87120252D01*
X181554500Y-89409748D01*
X181566133Y-89468231D01*
X181610448Y-89534552D01*
X181676769Y-89578867D01*
X181688938Y-89581288D01*
X181688939Y-89581288D01*
X181728098Y-89589077D01*
X181735252Y-89590500D01*
X182669075Y-89590500D01*
X182737196Y-89610502D01*
X182758170Y-89627405D01*
X186880955Y-93750190D01*
X186914981Y-93812502D01*
X186917075Y-93853329D01*
X186904520Y-93965262D01*
X186921759Y-94170553D01*
X186978544Y-94368586D01*
X186981359Y-94374063D01*
X186981360Y-94374066D01*
X187069897Y-94546341D01*
X187072712Y-94551818D01*
X187200677Y-94713270D01*
X187357564Y-94846791D01*
X187537398Y-94947297D01*
X187602437Y-94968429D01*
X187661042Y-95008502D01*
X187688680Y-95073898D01*
X187676574Y-95143855D01*
X187628568Y-95196162D01*
X187602646Y-95208027D01*
X187436868Y-95262212D01*
X187427359Y-95266209D01*
X187238463Y-95364542D01*
X187229738Y-95370036D01*
X187059433Y-95497905D01*
X187051726Y-95504748D01*
X186904590Y-95658717D01*
X186898104Y-95666727D01*
X186778098Y-95842649D01*
X186773000Y-95851623D01*
X186683338Y-96044783D01*
X186679775Y-96054470D01*
X186624389Y-96254183D01*
X186625912Y-96262607D01*
X186638292Y-96266000D01*
X188088000Y-96266000D01*
X188156121Y-96286002D01*
X188202614Y-96339658D01*
X188214000Y-96392000D01*
X188214000Y-96648000D01*
X188193998Y-96716121D01*
X188140342Y-96762614D01*
X188088000Y-96774000D01*
X186643225Y-96774000D01*
X186629694Y-96777973D01*
X186628257Y-96787966D01*
X186658565Y-96922446D01*
X186661645Y-96932275D01*
X186741770Y-97129603D01*
X186746413Y-97138794D01*
X186857694Y-97320388D01*
X186863777Y-97328699D01*
X187003213Y-97489667D01*
X187010580Y-97496883D01*
X187174434Y-97632916D01*
X187182881Y-97638831D01*
X187366756Y-97746279D01*
X187376043Y-97750729D01*
X187415484Y-97765790D01*
X187471987Y-97808778D01*
X187496280Y-97875489D01*
X187480650Y-97944743D01*
X187430059Y-97994554D01*
X187370535Y-98009500D01*
X187090252Y-98009500D01*
X187084184Y-98010707D01*
X187043939Y-98018712D01*
X187043938Y-98018712D01*
X187031769Y-98021133D01*
X186965448Y-98065448D01*
X186921133Y-98131769D01*
X186909500Y-98190252D01*
X186909500Y-99929748D01*
X186921133Y-99988231D01*
X186965448Y-100054552D01*
X187031769Y-100098867D01*
X187043938Y-100101288D01*
X187043939Y-100101288D01*
X187084184Y-100109293D01*
X187090252Y-100110500D01*
X188829748Y-100110500D01*
X188835816Y-100109293D01*
X188876061Y-100101288D01*
X188876062Y-100101288D01*
X188888231Y-100098867D01*
X188954552Y-100054552D01*
X188998867Y-99988231D01*
X189010500Y-99929748D01*
X189010500Y-99786500D01*
X189030502Y-99718379D01*
X189084158Y-99671886D01*
X189136500Y-99660500D01*
X189182381Y-99660500D01*
X189198827Y-99661578D01*
X189230000Y-99665682D01*
X189238188Y-99664604D01*
X189269361Y-99660500D01*
X189378574Y-99646122D01*
X189386762Y-99645044D01*
X189532841Y-99584536D01*
X189634181Y-99506775D01*
X189651736Y-99493305D01*
X189658282Y-99488282D01*
X189677430Y-99463328D01*
X189688297Y-99450938D01*
X190382938Y-98756297D01*
X190395329Y-98745429D01*
X190413736Y-98731305D01*
X190420282Y-98726282D01*
X190516536Y-98600841D01*
X190573091Y-98464305D01*
X190617639Y-98409024D01*
X190685003Y-98386603D01*
X190753794Y-98404161D01*
X190802172Y-98456123D01*
X190815500Y-98512523D01*
X190815500Y-98971653D01*
X190795498Y-99039774D01*
X190778595Y-99060749D01*
X190486842Y-99352501D01*
X188976747Y-100862596D01*
X188914435Y-100896621D01*
X188887652Y-100899500D01*
X181317346Y-100899500D01*
X181249225Y-100879498D01*
X181228251Y-100862595D01*
X178790656Y-98425000D01*
X181549437Y-98425000D01*
X181569651Y-98656050D01*
X181629680Y-98880079D01*
X181632005Y-98885064D01*
X181725373Y-99085294D01*
X181725376Y-99085299D01*
X181727699Y-99090281D01*
X181860730Y-99280269D01*
X182024731Y-99444270D01*
X182029239Y-99447427D01*
X182029242Y-99447429D01*
X182042601Y-99456783D01*
X182214718Y-99577301D01*
X182219700Y-99579624D01*
X182219705Y-99579627D01*
X182326616Y-99629480D01*
X182424921Y-99675320D01*
X182648950Y-99735349D01*
X182880000Y-99755563D01*
X183111050Y-99735349D01*
X183335079Y-99675320D01*
X183433384Y-99629480D01*
X183540295Y-99579627D01*
X183540300Y-99579624D01*
X183545282Y-99577301D01*
X183717399Y-99456783D01*
X183730758Y-99447429D01*
X183730761Y-99447427D01*
X183735269Y-99444270D01*
X183899270Y-99280269D01*
X184032301Y-99090281D01*
X184034624Y-99085299D01*
X184034627Y-99085294D01*
X184127995Y-98885064D01*
X184130320Y-98880079D01*
X184190349Y-98656050D01*
X184210563Y-98425000D01*
X184190349Y-98193950D01*
X184130320Y-97969921D01*
X184035132Y-97765790D01*
X184034627Y-97764706D01*
X184034624Y-97764701D01*
X184032301Y-97759719D01*
X183981708Y-97687464D01*
X183902429Y-97574242D01*
X183902427Y-97574239D01*
X183899270Y-97569731D01*
X183735269Y-97405730D01*
X183545282Y-97272699D01*
X183540300Y-97270376D01*
X183540295Y-97270373D01*
X183426227Y-97217183D01*
X183335079Y-97174680D01*
X183111050Y-97114651D01*
X182880000Y-97094437D01*
X182648950Y-97114651D01*
X182424921Y-97174680D01*
X182333773Y-97217183D01*
X182219706Y-97270373D01*
X182219701Y-97270376D01*
X182214719Y-97272699D01*
X182210212Y-97275855D01*
X182210210Y-97275856D01*
X182029242Y-97402571D01*
X182029239Y-97402573D01*
X182024731Y-97405730D01*
X181860730Y-97569731D01*
X181857573Y-97574239D01*
X181857571Y-97574242D01*
X181778292Y-97687464D01*
X181727699Y-97759719D01*
X181725376Y-97764701D01*
X181725373Y-97764706D01*
X181724868Y-97765790D01*
X181629680Y-97969921D01*
X181569651Y-98193950D01*
X181549437Y-98425000D01*
X178790656Y-98425000D01*
X168983029Y-88617372D01*
X168949003Y-88555060D01*
X168948038Y-88506399D01*
X168948927Y-88501357D01*
X168950349Y-88496050D01*
X168968043Y-88293807D01*
X177470736Y-88293807D01*
X177473590Y-88304456D01*
X177480491Y-88330210D01*
X177482870Y-88340942D01*
X177489412Y-88378045D01*
X177494923Y-88387590D01*
X177496115Y-88390866D01*
X177497592Y-88394034D01*
X177500446Y-88404684D01*
X177506770Y-88413715D01*
X177522055Y-88435544D01*
X177527961Y-88444815D01*
X177541293Y-88467906D01*
X177546806Y-88477455D01*
X177570991Y-88497749D01*
X177575682Y-88501685D01*
X177583785Y-88509111D01*
X181673802Y-92599128D01*
X181707828Y-92661440D01*
X181702763Y-92732255D01*
X181698902Y-92741473D01*
X181661325Y-92822058D01*
X181629680Y-92889921D01*
X181569651Y-93113950D01*
X181549437Y-93345000D01*
X181569651Y-93576050D01*
X181629680Y-93800079D01*
X181675448Y-93898229D01*
X181725373Y-94005294D01*
X181725376Y-94005299D01*
X181727699Y-94010281D01*
X181730855Y-94014788D01*
X181730856Y-94014790D01*
X181839923Y-94170553D01*
X181860730Y-94200269D01*
X182024731Y-94364270D01*
X182029239Y-94367427D01*
X182029242Y-94367429D01*
X182038721Y-94374066D01*
X182214718Y-94497301D01*
X182219700Y-94499624D01*
X182219705Y-94499627D01*
X182319885Y-94546341D01*
X182424921Y-94595320D01*
X182648950Y-94655349D01*
X182880000Y-94675563D01*
X183111050Y-94655349D01*
X183335079Y-94595320D01*
X183440115Y-94546341D01*
X183540295Y-94499627D01*
X183540300Y-94499624D01*
X183545282Y-94497301D01*
X183721279Y-94374066D01*
X183730758Y-94367429D01*
X183730761Y-94367427D01*
X183735269Y-94364270D01*
X183899270Y-94200269D01*
X183920078Y-94170553D01*
X184029144Y-94014790D01*
X184029145Y-94014788D01*
X184032301Y-94010281D01*
X184034624Y-94005299D01*
X184034627Y-94005294D01*
X184084552Y-93898229D01*
X184130320Y-93800079D01*
X184190349Y-93576050D01*
X184210563Y-93345000D01*
X184190349Y-93113950D01*
X184130320Y-92889921D01*
X184084552Y-92791771D01*
X184034627Y-92684706D01*
X184034624Y-92684701D01*
X184032301Y-92679719D01*
X183906790Y-92500470D01*
X183902429Y-92494242D01*
X183902427Y-92494239D01*
X183899270Y-92489731D01*
X183735269Y-92325730D01*
X183708222Y-92306791D01*
X183567438Y-92208213D01*
X183545282Y-92192699D01*
X183540300Y-92190376D01*
X183540295Y-92190373D01*
X183429699Y-92138802D01*
X183335079Y-92094680D01*
X183111050Y-92034651D01*
X182880000Y-92014437D01*
X182648950Y-92034651D01*
X182424921Y-92094680D01*
X182357058Y-92126325D01*
X182276473Y-92163902D01*
X182206281Y-92174563D01*
X182141468Y-92145583D01*
X182134128Y-92138802D01*
X178162405Y-88167079D01*
X178128379Y-88104767D01*
X178125500Y-88077984D01*
X178125500Y-67497017D01*
X178145502Y-67428896D01*
X178162405Y-67407921D01*
X178897619Y-66672708D01*
X178959931Y-66638683D01*
X179003158Y-66636882D01*
X179070000Y-66645682D01*
X179078188Y-66644604D01*
X179218574Y-66626122D01*
X179226762Y-66625044D01*
X179372841Y-66564536D01*
X179498282Y-66468282D01*
X179594536Y-66342841D01*
X179655044Y-66196762D01*
X179675682Y-66040000D01*
X179655044Y-65883238D01*
X179594536Y-65737159D01*
X179498282Y-65611718D01*
X179372841Y-65515464D01*
X179226762Y-65454956D01*
X179070000Y-65434318D01*
X178913238Y-65454956D01*
X178767159Y-65515464D01*
X178641718Y-65611718D01*
X178545464Y-65737159D01*
X178484956Y-65883238D01*
X178464318Y-66040000D01*
X178473118Y-66106841D01*
X178462179Y-66176988D01*
X178437292Y-66212381D01*
X177583779Y-67065895D01*
X177575675Y-67073321D01*
X177546806Y-67097545D01*
X177541293Y-67107094D01*
X177527961Y-67130185D01*
X177522055Y-67139456D01*
X177500446Y-67170316D01*
X177497592Y-67180966D01*
X177496115Y-67184134D01*
X177494923Y-67187410D01*
X177489412Y-67196955D01*
X177483462Y-67230699D01*
X177482870Y-67234058D01*
X177480492Y-67244785D01*
X177470736Y-67281193D01*
X177471697Y-67292178D01*
X177471697Y-67292180D01*
X177474020Y-67318728D01*
X177474500Y-67329710D01*
X177474500Y-88245290D01*
X177474020Y-88256272D01*
X177470736Y-88293807D01*
X168968043Y-88293807D01*
X168970563Y-88265000D01*
X168950349Y-88033950D01*
X168890320Y-87809921D01*
X168844552Y-87711771D01*
X168794627Y-87604706D01*
X168794624Y-87604701D01*
X168792301Y-87599719D01*
X168789144Y-87595210D01*
X168662429Y-87414242D01*
X168662427Y-87414239D01*
X168659270Y-87409731D01*
X168495269Y-87245730D01*
X168468222Y-87226791D01*
X168411708Y-87187220D01*
X168305282Y-87112699D01*
X168300300Y-87110376D01*
X168300295Y-87110373D01*
X168173939Y-87051453D01*
X168095079Y-87014680D01*
X167871050Y-86954651D01*
X167640000Y-86934437D01*
X167408950Y-86954651D01*
X167184921Y-87014680D01*
X167106061Y-87051453D01*
X166979706Y-87110373D01*
X166979701Y-87110376D01*
X166974719Y-87112699D01*
X166970212Y-87115855D01*
X166970210Y-87115856D01*
X166789242Y-87242571D01*
X166789239Y-87242573D01*
X166784731Y-87245730D01*
X166620730Y-87409731D01*
X166617573Y-87414239D01*
X166617571Y-87414242D01*
X166490856Y-87595210D01*
X166487699Y-87599719D01*
X166485376Y-87604701D01*
X166485373Y-87604706D01*
X166435448Y-87711771D01*
X166389680Y-87809921D01*
X166329651Y-88033950D01*
X166309437Y-88265000D01*
X166329651Y-88496050D01*
X166389680Y-88720079D01*
X166426304Y-88798619D01*
X166485373Y-88925294D01*
X166485376Y-88925299D01*
X166487699Y-88930281D01*
X166490855Y-88934788D01*
X166490856Y-88934790D01*
X166617571Y-89115757D01*
X166620730Y-89120269D01*
X166784731Y-89284270D01*
X166789239Y-89287427D01*
X166789242Y-89287429D01*
X166798721Y-89294066D01*
X166974718Y-89417301D01*
X166979700Y-89419624D01*
X166979705Y-89419627D01*
X167043445Y-89449349D01*
X167184921Y-89515320D01*
X167408950Y-89575349D01*
X167640000Y-89595563D01*
X167871050Y-89575349D01*
X167876366Y-89573924D01*
X167881393Y-89573038D01*
X167951952Y-89580905D01*
X167992372Y-89608028D01*
X180459418Y-102075075D01*
X180465271Y-102081340D01*
X180502831Y-102124396D01*
X180554473Y-102160690D01*
X180559758Y-102164616D01*
X180603476Y-102198895D01*
X180603480Y-102198897D01*
X180609457Y-102203584D01*
X180616380Y-102206710D01*
X180619328Y-102208495D01*
X180632288Y-102215887D01*
X180635334Y-102217520D01*
X180641547Y-102221887D01*
X180657303Y-102228030D01*
X180700366Y-102244820D01*
X180706445Y-102247375D01*
X180763984Y-102273355D01*
X180771455Y-102274740D01*
X180774723Y-102275764D01*
X180789164Y-102279877D01*
X180792437Y-102280717D01*
X180799513Y-102283476D01*
X180844183Y-102289356D01*
X180862106Y-102291716D01*
X180868623Y-102292748D01*
X180874418Y-102293822D01*
X180930692Y-102304252D01*
X180938272Y-102303815D01*
X180938273Y-102303815D01*
X180992144Y-102300709D01*
X180999396Y-102300500D01*
X189201359Y-102300500D01*
X189209929Y-102300792D01*
X189259354Y-102304162D01*
X189259358Y-102304162D01*
X189266930Y-102304678D01*
X189274406Y-102303373D01*
X189274409Y-102303373D01*
X189329132Y-102293822D01*
X189335658Y-102292859D01*
X189376096Y-102287965D01*
X189398320Y-102285276D01*
X189405427Y-102282591D01*
X189408720Y-102281782D01*
X189423191Y-102277823D01*
X189426467Y-102276834D01*
X189433954Y-102275527D01*
X189446026Y-102270228D01*
X189491760Y-102250153D01*
X189497866Y-102247661D01*
X189549818Y-102228030D01*
X189549820Y-102228029D01*
X189556923Y-102225345D01*
X189563178Y-102221046D01*
X189566203Y-102219465D01*
X189579299Y-102212175D01*
X189582243Y-102210434D01*
X189589202Y-102207379D01*
X189600259Y-102198895D01*
X189639273Y-102168958D01*
X189644609Y-102165081D01*
X189690386Y-102133619D01*
X189690392Y-102133614D01*
X189696651Y-102129312D01*
X189737609Y-102083342D01*
X189742589Y-102078067D01*
X191474912Y-100345745D01*
X191474915Y-100345742D01*
X191991081Y-99829577D01*
X191997347Y-99823723D01*
X192034669Y-99791165D01*
X192040396Y-99786169D01*
X192076690Y-99734527D01*
X192080616Y-99729242D01*
X192114895Y-99685524D01*
X192114897Y-99685520D01*
X192119584Y-99679543D01*
X192122710Y-99672620D01*
X192124495Y-99669672D01*
X192131887Y-99656712D01*
X192133520Y-99653666D01*
X192137887Y-99647453D01*
X192160820Y-99588633D01*
X192163376Y-99582554D01*
X192186228Y-99531941D01*
X192189355Y-99525016D01*
X192190740Y-99517545D01*
X192191764Y-99514277D01*
X192195877Y-99499836D01*
X192196717Y-99496563D01*
X192199476Y-99489487D01*
X192205428Y-99444270D01*
X192207716Y-99426894D01*
X192208748Y-99420377D01*
X192218868Y-99365775D01*
X192220252Y-99358308D01*
X192216709Y-99296856D01*
X192216500Y-99289604D01*
X192216500Y-89944637D01*
X192216792Y-89936066D01*
X192220678Y-89879070D01*
X192219373Y-89871594D01*
X192219373Y-89871590D01*
X192209822Y-89816868D01*
X192208859Y-89810342D01*
X192202189Y-89755226D01*
X192201276Y-89747680D01*
X192198591Y-89740573D01*
X192197782Y-89737280D01*
X192193823Y-89722809D01*
X192192834Y-89719533D01*
X192191527Y-89712046D01*
X192188472Y-89705086D01*
X192166154Y-89654242D01*
X192163662Y-89648137D01*
X192158044Y-89633270D01*
X192141345Y-89589077D01*
X192137047Y-89582824D01*
X192135463Y-89579793D01*
X192128183Y-89566716D01*
X192126433Y-89563757D01*
X192123378Y-89556797D01*
X192118753Y-89550770D01*
X192118751Y-89550766D01*
X192084938Y-89506700D01*
X192081073Y-89501381D01*
X192045312Y-89449349D01*
X191999351Y-89408399D01*
X191994076Y-89403419D01*
X189052325Y-86461668D01*
X189018299Y-86399356D01*
X189015432Y-86370813D01*
X189015534Y-86363523D01*
X189015534Y-86363519D01*
X189015583Y-86360000D01*
X188995480Y-86154970D01*
X188935935Y-85957749D01*
X188839218Y-85775849D01*
X188765859Y-85685902D01*
X188712906Y-85620975D01*
X188712903Y-85620972D01*
X188709011Y-85616200D01*
X188704263Y-85612272D01*
X188699922Y-85607901D01*
X188701259Y-85606573D01*
X188666444Y-85555020D01*
X188660500Y-85516777D01*
X188660500Y-84663086D01*
X188680502Y-84594965D01*
X188691118Y-84580755D01*
X188818540Y-84433134D01*
X188818540Y-84433133D01*
X188822564Y-84428472D01*
X188843387Y-84391818D01*
X188921276Y-84254707D01*
X188924323Y-84249344D01*
X188989351Y-84053863D01*
X189015171Y-83849474D01*
X189015583Y-83820000D01*
X188995480Y-83614970D01*
X188935935Y-83417749D01*
X188934312Y-83414696D01*
X188926944Y-83345024D01*
X188961808Y-83278518D01*
X194272215Y-77968111D01*
X194280319Y-77960684D01*
X194300749Y-77943541D01*
X194309194Y-77936455D01*
X194314707Y-77926906D01*
X194328039Y-77903815D01*
X194333945Y-77894544D01*
X194349230Y-77872715D01*
X194355554Y-77863684D01*
X194358408Y-77853034D01*
X194359885Y-77849866D01*
X194361077Y-77846590D01*
X194366588Y-77837045D01*
X194373130Y-77799942D01*
X194375509Y-77789210D01*
X194381488Y-77766897D01*
X194385264Y-77752807D01*
X194381979Y-77715257D01*
X194381500Y-77704276D01*
X194381500Y-33039698D01*
X194381980Y-33028716D01*
X194384302Y-33002180D01*
X194384302Y-33002178D01*
X194385263Y-32991193D01*
X194375512Y-32954803D01*
X194373132Y-32944069D01*
X194368502Y-32917812D01*
X194366588Y-32906955D01*
X194361076Y-32897407D01*
X194359883Y-32894130D01*
X194358406Y-32890962D01*
X194355553Y-32880316D01*
X194333942Y-32849452D01*
X194328038Y-32840184D01*
X194323165Y-32831744D01*
X194309194Y-32807545D01*
X194280331Y-32783326D01*
X194272227Y-32775900D01*
X191760110Y-30263784D01*
X191752683Y-30255680D01*
X191735541Y-30235251D01*
X191735542Y-30235251D01*
X191728455Y-30226806D01*
X191718906Y-30221293D01*
X191695815Y-30207961D01*
X191686544Y-30202055D01*
X191664715Y-30186770D01*
X191655684Y-30180446D01*
X191645034Y-30177592D01*
X191641866Y-30176115D01*
X191638590Y-30174923D01*
X191629045Y-30169412D01*
X191595301Y-30163462D01*
X191591942Y-30162870D01*
X191581215Y-30160492D01*
X191544807Y-30150736D01*
X191533822Y-30151697D01*
X191533820Y-30151697D01*
X191507272Y-30154020D01*
X191496290Y-30154500D01*
X180359698Y-30154500D01*
X180348716Y-30154020D01*
X180322180Y-30151698D01*
X180322178Y-30151698D01*
X180311193Y-30150737D01*
X180300543Y-30153591D01*
X180300541Y-30153591D01*
X180274804Y-30160488D01*
X180264069Y-30162868D01*
X180264058Y-30162870D01*
X180226955Y-30169412D01*
X180217407Y-30174924D01*
X180214130Y-30176117D01*
X180210962Y-30177594D01*
X180200316Y-30180447D01*
X180191287Y-30186769D01*
X180169453Y-30202057D01*
X180160185Y-30207961D01*
X180127545Y-30226806D01*
X180120459Y-30235251D01*
X180120457Y-30235253D01*
X180103326Y-30255669D01*
X180095900Y-30263773D01*
X179133310Y-31226364D01*
X178224771Y-32134903D01*
X178162459Y-32168928D01*
X178091644Y-32163864D01*
X178086454Y-32161743D01*
X178085837Y-32161543D01*
X178079803Y-32158856D01*
X177967117Y-32134904D01*
X177901103Y-32120872D01*
X177901099Y-32120872D01*
X177894646Y-32119500D01*
X177705354Y-32119500D01*
X177698901Y-32120872D01*
X177698897Y-32120872D01*
X177526655Y-32157483D01*
X177526652Y-32157484D01*
X177520197Y-32158856D01*
X177514163Y-32161542D01*
X177507887Y-32163582D01*
X177507376Y-32162011D01*
X177445221Y-32170351D01*
X177380921Y-32140252D01*
X177375231Y-32134904D01*
X176774105Y-31533779D01*
X176766678Y-31525674D01*
X176749541Y-31505251D01*
X176749542Y-31505251D01*
X176742455Y-31496806D01*
X176732906Y-31491293D01*
X176709815Y-31477961D01*
X176700544Y-31472055D01*
X176678715Y-31456770D01*
X176669684Y-31450446D01*
X176659034Y-31447592D01*
X176655866Y-31446115D01*
X176652590Y-31444923D01*
X176643045Y-31439412D01*
X176609301Y-31433462D01*
X176605942Y-31432870D01*
X176595215Y-31430492D01*
X176558807Y-31420736D01*
X176547822Y-31421697D01*
X176547820Y-31421697D01*
X176521272Y-31424020D01*
X176510290Y-31424500D01*
X158769710Y-31424500D01*
X158758728Y-31424020D01*
X158732180Y-31421697D01*
X158732178Y-31421697D01*
X158721193Y-31420736D01*
X158684785Y-31430492D01*
X158674058Y-31432870D01*
X158670699Y-31433462D01*
X158636955Y-31439412D01*
X158627410Y-31444923D01*
X158624134Y-31446115D01*
X158620966Y-31447592D01*
X158610316Y-31450446D01*
X158601285Y-31456770D01*
X158579456Y-31472055D01*
X158570185Y-31477961D01*
X158547094Y-31491293D01*
X158537545Y-31496806D01*
X158530459Y-31505251D01*
X158513315Y-31525682D01*
X158505889Y-31533785D01*
X156338785Y-33700889D01*
X156330681Y-33708316D01*
X156301806Y-33732545D01*
X156296293Y-33742094D01*
X156282961Y-33765185D01*
X156277055Y-33774456D01*
X156255446Y-33805316D01*
X156252592Y-33815966D01*
X156251115Y-33819134D01*
X156249923Y-33822410D01*
X156244412Y-33831955D01*
X156238918Y-33863114D01*
X156237870Y-33869058D01*
X156235492Y-33879785D01*
X156225736Y-33916193D01*
X156226697Y-33927178D01*
X156226697Y-33927180D01*
X156229020Y-33953728D01*
X156229500Y-33964710D01*
X156229500Y-34339235D01*
X156209498Y-34407356D01*
X156155842Y-34453849D01*
X156147115Y-34457446D01*
X156046766Y-34494466D01*
X155861098Y-34604926D01*
X155856758Y-34608732D01*
X155856754Y-34608735D01*
X155725787Y-34723591D01*
X155698669Y-34747373D01*
X155695095Y-34751906D01*
X155695087Y-34751915D01*
X155672949Y-34779997D01*
X155615068Y-34821110D01*
X155544148Y-34824404D01*
X155482706Y-34788832D01*
X155450249Y-34725689D01*
X155448000Y-34701991D01*
X155448000Y-29317748D01*
X184618500Y-29317748D01*
X184619707Y-29323816D01*
X184623331Y-29342033D01*
X184630133Y-29376231D01*
X184674448Y-29442552D01*
X184740769Y-29486867D01*
X184752938Y-29489288D01*
X184752939Y-29489288D01*
X184793184Y-29497293D01*
X184799252Y-29498500D01*
X186538748Y-29498500D01*
X186544816Y-29497293D01*
X186585061Y-29489288D01*
X186585062Y-29489288D01*
X186597231Y-29486867D01*
X186663552Y-29442552D01*
X186707867Y-29376231D01*
X186714670Y-29342033D01*
X186718293Y-29323816D01*
X186719500Y-29317748D01*
X186719500Y-28433262D01*
X187153520Y-28433262D01*
X187170759Y-28638553D01*
X187227544Y-28836586D01*
X187230359Y-28842063D01*
X187230360Y-28842066D01*
X187251247Y-28882707D01*
X187321712Y-29019818D01*
X187449677Y-29181270D01*
X187606564Y-29314791D01*
X187786398Y-29415297D01*
X187870280Y-29442552D01*
X187976471Y-29477056D01*
X187976475Y-29477057D01*
X187982329Y-29478959D01*
X188186894Y-29503351D01*
X188193029Y-29502879D01*
X188193031Y-29502879D01*
X188265625Y-29497293D01*
X188392300Y-29487546D01*
X188398230Y-29485890D01*
X188398232Y-29485890D01*
X188584797Y-29433800D01*
X188584796Y-29433800D01*
X188590725Y-29432145D01*
X188596214Y-29429372D01*
X188596220Y-29429370D01*
X188769116Y-29342033D01*
X188774610Y-29339258D01*
X188936951Y-29212424D01*
X189071564Y-29056472D01*
X189092387Y-29019818D01*
X189170276Y-28882707D01*
X189173323Y-28877344D01*
X189238351Y-28681863D01*
X189264171Y-28477474D01*
X189264583Y-28448000D01*
X189244480Y-28242970D01*
X189184935Y-28045749D01*
X189088218Y-27863849D01*
X189014859Y-27773902D01*
X188961906Y-27708975D01*
X188961903Y-27708972D01*
X188958011Y-27704200D01*
X188940786Y-27689950D01*
X188804025Y-27576811D01*
X188804021Y-27576809D01*
X188799275Y-27572882D01*
X188618055Y-27474897D01*
X188421254Y-27413977D01*
X188415129Y-27413333D01*
X188415128Y-27413333D01*
X188222498Y-27393087D01*
X188222496Y-27393087D01*
X188216369Y-27392443D01*
X188129529Y-27400346D01*
X188017342Y-27410555D01*
X188017339Y-27410556D01*
X188011203Y-27411114D01*
X187813572Y-27469280D01*
X187631002Y-27564726D01*
X187626201Y-27568586D01*
X187626198Y-27568588D01*
X187496042Y-27673236D01*
X187470447Y-27693815D01*
X187338024Y-27851630D01*
X187335056Y-27857028D01*
X187335053Y-27857033D01*
X187241743Y-28026765D01*
X187238776Y-28032162D01*
X187176484Y-28228532D01*
X187175798Y-28234649D01*
X187175797Y-28234653D01*
X187154207Y-28427137D01*
X187153520Y-28433262D01*
X186719500Y-28433262D01*
X186719500Y-27578252D01*
X186707867Y-27519769D01*
X186663552Y-27453448D01*
X186597231Y-27409133D01*
X186585062Y-27406712D01*
X186585061Y-27406712D01*
X186544816Y-27398707D01*
X186538748Y-27397500D01*
X184799252Y-27397500D01*
X184793184Y-27398707D01*
X184752939Y-27406712D01*
X184752938Y-27406712D01*
X184740769Y-27409133D01*
X184674448Y-27453448D01*
X184630133Y-27519769D01*
X184618500Y-27578252D01*
X184618500Y-29317748D01*
X155448000Y-29317748D01*
X155448000Y-26144036D01*
X168932692Y-26144036D01*
X168932701Y-26144217D01*
X168932924Y-26148862D01*
X168932924Y-26148867D01*
X168934900Y-26190000D01*
X168945178Y-26403992D01*
X168995952Y-26659247D01*
X169083896Y-26904193D01*
X169207081Y-27133450D01*
X169209872Y-27137187D01*
X169209876Y-27137194D01*
X169284308Y-27236870D01*
X169362798Y-27341981D01*
X169366105Y-27345259D01*
X169366110Y-27345265D01*
X169499835Y-27477827D01*
X169547628Y-27525204D01*
X169551395Y-27527966D01*
X169551396Y-27527967D01*
X169667401Y-27613026D01*
X169757509Y-27679096D01*
X169761640Y-27681270D01*
X169761641Y-27681270D01*
X169983698Y-27798100D01*
X169983704Y-27798102D01*
X169987833Y-27800275D01*
X169992240Y-27801814D01*
X169992247Y-27801817D01*
X170229121Y-27884537D01*
X170233537Y-27886079D01*
X170489225Y-27934623D01*
X170612703Y-27939474D01*
X170744612Y-27944657D01*
X170744617Y-27944657D01*
X170749280Y-27944840D01*
X170850525Y-27933752D01*
X171003336Y-27917017D01*
X171003342Y-27917016D01*
X171007989Y-27916507D01*
X171033795Y-27909713D01*
X171255145Y-27851437D01*
X171255148Y-27851436D01*
X171259668Y-27850246D01*
X171274877Y-27843712D01*
X171494495Y-27749356D01*
X171494497Y-27749355D01*
X171498789Y-27747511D01*
X171720098Y-27610561D01*
X171759965Y-27576811D01*
X171915161Y-27445429D01*
X171915163Y-27445427D01*
X171918734Y-27442404D01*
X172090332Y-27246733D01*
X172093008Y-27242574D01*
X172228596Y-27031778D01*
X172231124Y-27027848D01*
X172338016Y-26790557D01*
X172408660Y-26540072D01*
X172441504Y-26281897D01*
X172443910Y-26190000D01*
X172424623Y-25930460D01*
X172415410Y-25889741D01*
X172368216Y-25681179D01*
X172367185Y-25676622D01*
X172351921Y-25637370D01*
X172274554Y-25438419D01*
X172274552Y-25438416D01*
X172272859Y-25434061D01*
X172251763Y-25397150D01*
X172225995Y-25352067D01*
X172143715Y-25208108D01*
X172117104Y-25174351D01*
X171985490Y-25007399D01*
X171982593Y-25003724D01*
X171793030Y-24825402D01*
X171579192Y-24677057D01*
X171575002Y-24674991D01*
X171574999Y-24674989D01*
X171349963Y-24564014D01*
X171349960Y-24564013D01*
X171345775Y-24561949D01*
X171299853Y-24547249D01*
X171289631Y-24543977D01*
X171097909Y-24482606D01*
X171093302Y-24481856D01*
X171093299Y-24481855D01*
X170845649Y-24441523D01*
X170845650Y-24441523D01*
X170841038Y-24440772D01*
X170714570Y-24439116D01*
X170585481Y-24437426D01*
X170585478Y-24437426D01*
X170580804Y-24437365D01*
X170322926Y-24472461D01*
X170318440Y-24473769D01*
X170318438Y-24473769D01*
X170288120Y-24482606D01*
X170073067Y-24545288D01*
X169836718Y-24654247D01*
X169832809Y-24656810D01*
X169622983Y-24794377D01*
X169622978Y-24794381D01*
X169619070Y-24796943D01*
X169424904Y-24970242D01*
X169258486Y-25170338D01*
X169123473Y-25392834D01*
X169121664Y-25397148D01*
X169121663Y-25397150D01*
X169104358Y-25438419D01*
X169022829Y-25632842D01*
X168958766Y-25885089D01*
X168932692Y-26144036D01*
X155448000Y-26144036D01*
X155448000Y-21462000D01*
X155468002Y-21393879D01*
X155521658Y-21347386D01*
X155574000Y-21336000D01*
X195454000Y-21336000D01*
X195522121Y-21356002D01*
G37*
%TD.AperFunction*%
%TD*%
M02*
