%TF.GenerationSoftware,KiCad,Pcbnew,(6.0.5)*%
%TF.CreationDate,2023-02-26T02:49:58+09:00*%
%TF.ProjectId,_____,0c08746c-f12e-46b6-9963-61645f706362,rev?*%
%TF.SameCoordinates,Original*%
%TF.FileFunction,Copper,L2,Bot*%
%TF.FilePolarity,Positive*%
%FSLAX46Y46*%
G04 Gerber Fmt 4.6, Leading zero omitted, Abs format (unit mm)*
G04 Created by KiCad (PCBNEW (6.0.5)) date 2023-02-26 02:49:58*
%MOMM*%
%LPD*%
G01*
G04 APERTURE LIST*
G04 Aperture macros list*
%AMRoundRect*
0 Rectangle with rounded corners*
0 $1 Rounding radius*
0 $2 $3 $4 $5 $6 $7 $8 $9 X,Y pos of 4 corners*
0 Add a 4 corners polygon primitive as box body*
4,1,4,$2,$3,$4,$5,$6,$7,$8,$9,$2,$3,0*
0 Add four circle primitives for the rounded corners*
1,1,$1+$1,$2,$3*
1,1,$1+$1,$4,$5*
1,1,$1+$1,$6,$7*
1,1,$1+$1,$8,$9*
0 Add four rect primitives between the rounded corners*
20,1,$1+$1,$2,$3,$4,$5,0*
20,1,$1+$1,$4,$5,$6,$7,0*
20,1,$1+$1,$6,$7,$8,$9,0*
20,1,$1+$1,$8,$9,$2,$3,0*%
G04 Aperture macros list end*
%TA.AperFunction,ComponentPad*%
%ADD10C,1.600000*%
%TD*%
%TA.AperFunction,ComponentPad*%
%ADD11O,1.600000X1.600000*%
%TD*%
%TA.AperFunction,ComponentPad*%
%ADD12RoundRect,0.250001X1.599999X-1.099999X1.599999X1.099999X-1.599999X1.099999X-1.599999X-1.099999X0*%
%TD*%
%TA.AperFunction,ComponentPad*%
%ADD13O,3.700000X2.700000*%
%TD*%
%TA.AperFunction,Conductor*%
%ADD14C,0.500000*%
%TD*%
%TA.AperFunction,Conductor*%
%ADD15C,0.250000*%
%TD*%
G04 APERTURE END LIST*
D10*
%TO.P,R8,1*%
%TO.N,Net-(D43-Pad2)*%
X216000000Y-97028000D03*
D11*
%TO.P,R8,2*%
%TO.N,+12V*%
X226160000Y-97028000D03*
%TD*%
D10*
%TO.P,R7,1*%
%TO.N,Net-(D37-Pad2)*%
X196088000Y-97155000D03*
D11*
%TO.P,R7,2*%
%TO.N,+12V*%
X206248000Y-97155000D03*
%TD*%
D10*
%TO.P,R5,1*%
%TO.N,Net-(D25-Pad2)*%
X155956000Y-97155000D03*
D11*
%TO.P,R5,2*%
%TO.N,+12V*%
X166116000Y-97155000D03*
%TD*%
D12*
%TO.P,J1,1,Pin_1*%
%TO.N,+12V*%
X64516000Y-81280000D03*
D13*
%TO.P,J1,2,Pin_2*%
%TO.N,GND*%
X70016000Y-81280000D03*
%TD*%
D10*
%TO.P,R6,1*%
%TO.N,Net-(D31-Pad2)*%
X175895000Y-97155000D03*
D11*
%TO.P,R6,2*%
%TO.N,+12V*%
X186055000Y-97155000D03*
%TD*%
D10*
%TO.P,R2,1*%
%TO.N,Net-(D7-Pad2)*%
X96012000Y-97155000D03*
D11*
%TO.P,R2,2*%
%TO.N,+12V*%
X106172000Y-97155000D03*
%TD*%
D10*
%TO.P,R4,1*%
%TO.N,Net-(D19-Pad2)*%
X135890000Y-97155000D03*
D11*
%TO.P,R4,2*%
%TO.N,+12V*%
X146050000Y-97155000D03*
%TD*%
D10*
%TO.P,R1,1*%
%TO.N,Net-(D1-Pad2)*%
X76000000Y-97155000D03*
D11*
%TO.P,R1,2*%
%TO.N,+12V*%
X86160000Y-97155000D03*
%TD*%
D10*
%TO.P,R3,1*%
%TO.N,Net-(D13-Pad2)*%
X115824000Y-97155000D03*
D11*
%TO.P,R3,2*%
%TO.N,+12V*%
X125984000Y-97155000D03*
%TD*%
D14*
%TO.N,+12V*%
X125730000Y-95250000D02*
X125984000Y-95504000D01*
X125730000Y-95250000D02*
X146050000Y-95250000D01*
X105918000Y-95250000D02*
X125730000Y-95250000D01*
X125984000Y-95504000D02*
X125984000Y-97155000D01*
X64516000Y-89408000D02*
X64516000Y-81280000D01*
X85090000Y-95250000D02*
X70358000Y-95250000D01*
X70358000Y-95250000D02*
X64516000Y-89408000D01*
X85090000Y-96085000D02*
X86160000Y-97155000D01*
X85090000Y-95250000D02*
X85090000Y-96085000D01*
X85090000Y-95250000D02*
X105918000Y-95250000D01*
X105918000Y-95250000D02*
X106172000Y-95504000D01*
X106172000Y-95504000D02*
X106172000Y-97155000D01*
X146050000Y-97155000D02*
X146050000Y-95250000D01*
X146050000Y-95250000D02*
X165862000Y-95250000D01*
X166116000Y-97155000D02*
X166116000Y-95504000D01*
D15*
X166116000Y-95504000D02*
X165862000Y-95250000D01*
D14*
X165862000Y-95250000D02*
X186182000Y-95250000D01*
D15*
X186055000Y-95377000D02*
X186182000Y-95250000D01*
D14*
X186182000Y-95250000D02*
X205994000Y-95250000D01*
X186055000Y-97155000D02*
X186055000Y-95377000D01*
D15*
X206248000Y-95504000D02*
X205994000Y-95250000D01*
D14*
X206248000Y-97155000D02*
X206248000Y-95504000D01*
X205994000Y-95250000D02*
X224382000Y-95250000D01*
X224382000Y-95250000D02*
X226160000Y-97028000D01*
%TD*%
M02*
