%TF.GenerationSoftware,KiCad,Pcbnew,(6.0.5)*%
%TF.CreationDate,2023-02-26T02:49:58+09:00*%
%TF.ProjectId,_____,0c08746c-f12e-46b6-9963-61645f706362,rev?*%
%TF.SameCoordinates,Original*%
%TF.FileFunction,Copper,L1,Top*%
%TF.FilePolarity,Positive*%
%FSLAX46Y46*%
G04 Gerber Fmt 4.6, Leading zero omitted, Abs format (unit mm)*
G04 Created by KiCad (PCBNEW (6.0.5)) date 2023-02-26 02:49:58*
%MOMM*%
%LPD*%
G01*
G04 APERTURE LIST*
G04 Aperture macros list*
%AMRoundRect*
0 Rectangle with rounded corners*
0 $1 Rounding radius*
0 $2 $3 $4 $5 $6 $7 $8 $9 X,Y pos of 4 corners*
0 Add a 4 corners polygon primitive as box body*
4,1,4,$2,$3,$4,$5,$6,$7,$8,$9,$2,$3,0*
0 Add four circle primitives for the rounded corners*
1,1,$1+$1,$2,$3*
1,1,$1+$1,$4,$5*
1,1,$1+$1,$6,$7*
1,1,$1+$1,$8,$9*
0 Add four rect primitives between the rounded corners*
20,1,$1+$1,$2,$3,$4,$5,0*
20,1,$1+$1,$4,$5,$6,$7,0*
20,1,$1+$1,$6,$7,$8,$9,0*
20,1,$1+$1,$8,$9,$2,$3,0*%
G04 Aperture macros list end*
%TA.AperFunction,ComponentPad*%
%ADD10C,1.600000*%
%TD*%
%TA.AperFunction,ComponentPad*%
%ADD11O,1.600000X1.600000*%
%TD*%
%TA.AperFunction,SMDPad,CuDef*%
%ADD12R,4.790000X2.000000*%
%TD*%
%TA.AperFunction,ComponentPad*%
%ADD13RoundRect,0.250001X1.599999X-1.099999X1.599999X1.099999X-1.599999X1.099999X-1.599999X-1.099999X0*%
%TD*%
%TA.AperFunction,ComponentPad*%
%ADD14O,3.700000X2.700000*%
%TD*%
%TA.AperFunction,Conductor*%
%ADD15C,1.000000*%
%TD*%
%TA.AperFunction,Conductor*%
%ADD16C,0.250000*%
%TD*%
G04 APERTURE END LIST*
D10*
%TO.P,R8,1*%
%TO.N,Net-(D43-Pad2)*%
X216000000Y-97028000D03*
D11*
%TO.P,R8,2*%
%TO.N,+12V*%
X226160000Y-97028000D03*
%TD*%
D10*
%TO.P,R7,1*%
%TO.N,Net-(D37-Pad2)*%
X196088000Y-97155000D03*
D11*
%TO.P,R7,2*%
%TO.N,+12V*%
X206248000Y-97155000D03*
%TD*%
D10*
%TO.P,R5,1*%
%TO.N,Net-(D25-Pad2)*%
X155956000Y-97155000D03*
D11*
%TO.P,R5,2*%
%TO.N,+12V*%
X166116000Y-97155000D03*
%TD*%
D12*
%TO.P,D22,1,K*%
%TO.N,Net-(D22-Pad1)*%
X146000000Y-73300000D03*
%TO.P,D22,2,A*%
%TO.N,Net-(D21-Pad1)*%
X146000000Y-68500000D03*
%TD*%
%TO.P,D38,1,K*%
%TO.N,Net-(D38-Pad1)*%
X196000000Y-78500000D03*
%TO.P,D38,2,A*%
%TO.N,Net-(D37-Pad1)*%
X196000000Y-83300000D03*
%TD*%
%TO.P,D31,1,K*%
%TO.N,Net-(D31-Pad1)*%
X176000000Y-88500000D03*
%TO.P,D31,2,A*%
%TO.N,Net-(D31-Pad2)*%
X176000000Y-93300000D03*
%TD*%
%TO.P,D15,1,K*%
%TO.N,Net-(D15-Pad1)*%
X116000000Y-68500000D03*
%TO.P,D15,2,A*%
%TO.N,Net-(D14-Pad1)*%
X116000000Y-73300000D03*
%TD*%
%TO.P,D1,1,K*%
%TO.N,Net-(D1-Pad1)*%
X76000000Y-88500000D03*
%TO.P,D1,2,A*%
%TO.N,Net-(D1-Pad2)*%
X76000000Y-93300000D03*
%TD*%
%TO.P,D43,1,K*%
%TO.N,Net-(D43-Pad1)*%
X216000000Y-88500000D03*
%TO.P,D43,2,A*%
%TO.N,Net-(D43-Pad2)*%
X216000000Y-93300000D03*
%TD*%
%TO.P,D30,1,K*%
%TO.N,GND*%
X166000000Y-93300000D03*
%TO.P,D30,2,A*%
%TO.N,Net-(D29-Pad1)*%
X166000000Y-88500000D03*
%TD*%
%TO.P,D32,1,K*%
%TO.N,Net-(D32-Pad1)*%
X176000000Y-78500000D03*
%TO.P,D32,2,A*%
%TO.N,Net-(D31-Pad1)*%
X176000000Y-83300000D03*
%TD*%
%TO.P,D5,1,K*%
%TO.N,Net-(D5-Pad1)*%
X86000000Y-83300000D03*
%TO.P,D5,2,A*%
%TO.N,Net-(D4-Pad1)*%
X86000000Y-78500000D03*
%TD*%
%TO.P,D42,1,K*%
%TO.N,GND*%
X206000000Y-93300000D03*
%TO.P,D42,2,A*%
%TO.N,Net-(D41-Pad1)*%
X206000000Y-88500000D03*
%TD*%
D13*
%TO.P,J1,1,Pin_1*%
%TO.N,+12V*%
X64516000Y-81280000D03*
D14*
%TO.P,J1,2,Pin_2*%
%TO.N,GND*%
X70016000Y-81280000D03*
%TD*%
D12*
%TO.P,D21,1,K*%
%TO.N,Net-(D21-Pad1)*%
X136000000Y-68500000D03*
%TO.P,D21,2,A*%
%TO.N,Net-(D20-Pad1)*%
X136000000Y-73300000D03*
%TD*%
%TO.P,D16,1,K*%
%TO.N,Net-(D16-Pad1)*%
X126000000Y-73300000D03*
%TO.P,D16,2,A*%
%TO.N,Net-(D15-Pad1)*%
X126000000Y-68500000D03*
%TD*%
%TO.P,D4,1,K*%
%TO.N,Net-(D4-Pad1)*%
X86000000Y-73300000D03*
%TO.P,D4,2,A*%
%TO.N,Net-(D3-Pad1)*%
X86000000Y-68500000D03*
%TD*%
%TO.P,D26,1,K*%
%TO.N,Net-(D26-Pad1)*%
X156000000Y-78500000D03*
%TO.P,D26,2,A*%
%TO.N,Net-(D25-Pad1)*%
X156000000Y-83300000D03*
%TD*%
%TO.P,D24,1,K*%
%TO.N,GND*%
X146000000Y-93300000D03*
%TO.P,D24,2,A*%
%TO.N,Net-(D23-Pad1)*%
X146000000Y-88500000D03*
%TD*%
%TO.P,D3,1,K*%
%TO.N,Net-(D3-Pad1)*%
X76000000Y-68500000D03*
%TO.P,D3,2,A*%
%TO.N,Net-(D2-Pad1)*%
X76000000Y-73300000D03*
%TD*%
%TO.P,D13,1,K*%
%TO.N,Net-(D13-Pad1)*%
X116000000Y-88500000D03*
%TO.P,D13,2,A*%
%TO.N,Net-(D13-Pad2)*%
X116000000Y-93300000D03*
%TD*%
D10*
%TO.P,R6,1*%
%TO.N,Net-(D31-Pad2)*%
X175895000Y-97155000D03*
D11*
%TO.P,R6,2*%
%TO.N,+12V*%
X186055000Y-97155000D03*
%TD*%
D10*
%TO.P,R2,1*%
%TO.N,Net-(D7-Pad2)*%
X96012000Y-97155000D03*
D11*
%TO.P,R2,2*%
%TO.N,+12V*%
X106172000Y-97155000D03*
%TD*%
D12*
%TO.P,D12,1,K*%
%TO.N,GND*%
X106000000Y-93300000D03*
%TO.P,D12,2,A*%
%TO.N,Net-(D11-Pad1)*%
X106000000Y-88500000D03*
%TD*%
D10*
%TO.P,R4,1*%
%TO.N,Net-(D19-Pad2)*%
X135890000Y-97155000D03*
D11*
%TO.P,R4,2*%
%TO.N,+12V*%
X146050000Y-97155000D03*
%TD*%
D12*
%TO.P,D40,1,K*%
%TO.N,Net-(D40-Pad1)*%
X206000000Y-73300000D03*
%TO.P,D40,2,A*%
%TO.N,Net-(D39-Pad1)*%
X206000000Y-68500000D03*
%TD*%
%TO.P,D41,1,K*%
%TO.N,Net-(D41-Pad1)*%
X206000000Y-83300000D03*
%TO.P,D41,2,A*%
%TO.N,Net-(D40-Pad1)*%
X206000000Y-78500000D03*
%TD*%
%TO.P,D44,1,K*%
%TO.N,Net-(D44-Pad1)*%
X216000000Y-78500000D03*
%TO.P,D44,2,A*%
%TO.N,Net-(D43-Pad1)*%
X216000000Y-83300000D03*
%TD*%
%TO.P,D33,1,K*%
%TO.N,Net-(D33-Pad1)*%
X176000000Y-68500000D03*
%TO.P,D33,2,A*%
%TO.N,Net-(D32-Pad1)*%
X176000000Y-73300000D03*
%TD*%
%TO.P,D36,1,K*%
%TO.N,GND*%
X186000000Y-93300000D03*
%TO.P,D36,2,A*%
%TO.N,Net-(D35-Pad1)*%
X186000000Y-88500000D03*
%TD*%
%TO.P,D18,1,K*%
%TO.N,GND*%
X126000000Y-93300000D03*
%TO.P,D18,2,A*%
%TO.N,Net-(D17-Pad1)*%
X126000000Y-88500000D03*
%TD*%
%TO.P,D17,1,K*%
%TO.N,Net-(D17-Pad1)*%
X126000000Y-83300000D03*
%TO.P,D17,2,A*%
%TO.N,Net-(D16-Pad1)*%
X126000000Y-78500000D03*
%TD*%
%TO.P,D8,1,K*%
%TO.N,Net-(D8-Pad1)*%
X96000000Y-78500000D03*
%TO.P,D8,2,A*%
%TO.N,Net-(D7-Pad1)*%
X96000000Y-83300000D03*
%TD*%
%TO.P,D9,1,K*%
%TO.N,Net-(D10-Pad2)*%
X96000000Y-68500000D03*
%TO.P,D9,2,A*%
%TO.N,Net-(D8-Pad1)*%
X96000000Y-73300000D03*
%TD*%
%TO.P,D29,1,K*%
%TO.N,Net-(D29-Pad1)*%
X166000000Y-83300000D03*
%TO.P,D29,2,A*%
%TO.N,Net-(D28-Pad1)*%
X166000000Y-78500000D03*
%TD*%
D10*
%TO.P,R1,1*%
%TO.N,Net-(D1-Pad2)*%
X76000000Y-97155000D03*
D11*
%TO.P,R1,2*%
%TO.N,+12V*%
X86160000Y-97155000D03*
%TD*%
D10*
%TO.P,R3,1*%
%TO.N,Net-(D13-Pad2)*%
X115824000Y-97155000D03*
D11*
%TO.P,R3,2*%
%TO.N,+12V*%
X125984000Y-97155000D03*
%TD*%
D12*
%TO.P,D39,1,K*%
%TO.N,Net-(D39-Pad1)*%
X196000000Y-68500000D03*
%TO.P,D39,2,A*%
%TO.N,Net-(D38-Pad1)*%
X196000000Y-73300000D03*
%TD*%
%TO.P,D14,1,K*%
%TO.N,Net-(D14-Pad1)*%
X116000000Y-78500000D03*
%TO.P,D14,2,A*%
%TO.N,Net-(D13-Pad1)*%
X116000000Y-83300000D03*
%TD*%
%TO.P,D25,1,K*%
%TO.N,Net-(D25-Pad1)*%
X156000000Y-88500000D03*
%TO.P,D25,2,A*%
%TO.N,Net-(D25-Pad2)*%
X156000000Y-93300000D03*
%TD*%
%TO.P,D28,1,K*%
%TO.N,Net-(D28-Pad1)*%
X166000000Y-73300000D03*
%TO.P,D28,2,A*%
%TO.N,Net-(D27-Pad1)*%
X166000000Y-68500000D03*
%TD*%
%TO.P,D23,1,K*%
%TO.N,Net-(D23-Pad1)*%
X146000000Y-83300000D03*
%TO.P,D23,2,A*%
%TO.N,Net-(D22-Pad1)*%
X146000000Y-78500000D03*
%TD*%
%TO.P,D11,1,K*%
%TO.N,Net-(D11-Pad1)*%
X106000000Y-83300000D03*
%TO.P,D11,2,A*%
%TO.N,Net-(D10-Pad1)*%
X106000000Y-78500000D03*
%TD*%
%TO.P,D35,1,K*%
%TO.N,Net-(D35-Pad1)*%
X186000000Y-83300000D03*
%TO.P,D35,2,A*%
%TO.N,Net-(D34-Pad1)*%
X186000000Y-78500000D03*
%TD*%
%TO.P,D27,1,K*%
%TO.N,Net-(D27-Pad1)*%
X156000000Y-68500000D03*
%TO.P,D27,2,A*%
%TO.N,Net-(D26-Pad1)*%
X156000000Y-73300000D03*
%TD*%
%TO.P,D34,1,K*%
%TO.N,Net-(D34-Pad1)*%
X186000000Y-73300000D03*
%TO.P,D34,2,A*%
%TO.N,Net-(D33-Pad1)*%
X186000000Y-68500000D03*
%TD*%
%TO.P,D45,1,K*%
%TO.N,Net-(D45-Pad1)*%
X216000000Y-68500000D03*
%TO.P,D45,2,A*%
%TO.N,Net-(D44-Pad1)*%
X216000000Y-73300000D03*
%TD*%
%TO.P,D7,1,K*%
%TO.N,Net-(D7-Pad1)*%
X96000000Y-88500000D03*
%TO.P,D7,2,A*%
%TO.N,Net-(D7-Pad2)*%
X96000000Y-93300000D03*
%TD*%
%TO.P,D19,1,K*%
%TO.N,Net-(D19-Pad1)*%
X136000000Y-88500000D03*
%TO.P,D19,2,A*%
%TO.N,Net-(D19-Pad2)*%
X136000000Y-93300000D03*
%TD*%
%TO.P,D46,1,K*%
%TO.N,Net-(D46-Pad1)*%
X226000000Y-73300000D03*
%TO.P,D46,2,A*%
%TO.N,Net-(D45-Pad1)*%
X226000000Y-68500000D03*
%TD*%
%TO.P,D47,1,K*%
%TO.N,Net-(D47-Pad1)*%
X226000000Y-83300000D03*
%TO.P,D47,2,A*%
%TO.N,Net-(D46-Pad1)*%
X226000000Y-78500000D03*
%TD*%
%TO.P,D10,1,K*%
%TO.N,Net-(D10-Pad1)*%
X106000000Y-73300000D03*
%TO.P,D10,2,A*%
%TO.N,Net-(D10-Pad2)*%
X106000000Y-68500000D03*
%TD*%
%TO.P,D37,1,K*%
%TO.N,Net-(D37-Pad1)*%
X196000000Y-88500000D03*
%TO.P,D37,2,A*%
%TO.N,Net-(D37-Pad2)*%
X196000000Y-93300000D03*
%TD*%
%TO.P,D20,1,K*%
%TO.N,Net-(D20-Pad1)*%
X136000000Y-78500000D03*
%TO.P,D20,2,A*%
%TO.N,Net-(D19-Pad1)*%
X136000000Y-83300000D03*
%TD*%
%TO.P,D2,1,K*%
%TO.N,Net-(D2-Pad1)*%
X76000000Y-78500000D03*
%TO.P,D2,2,A*%
%TO.N,Net-(D1-Pad1)*%
X76000000Y-83300000D03*
%TD*%
%TO.P,D48,1,K*%
%TO.N,GND*%
X226000000Y-93300000D03*
%TO.P,D48,2,A*%
%TO.N,Net-(D47-Pad1)*%
X226000000Y-88500000D03*
%TD*%
%TO.P,D6,1,K*%
%TO.N,GND*%
X86000000Y-93300000D03*
%TO.P,D6,2,A*%
%TO.N,Net-(D5-Pad1)*%
X86000000Y-88500000D03*
%TD*%
D15*
%TO.N,GND*%
X111252000Y-94996000D02*
X109556000Y-93300000D01*
X109556000Y-93300000D02*
X106000000Y-93300000D01*
X111252000Y-99568000D02*
X111252000Y-94996000D01*
X111252000Y-99568000D02*
X132080000Y-99568000D01*
X92964000Y-99568000D02*
X111252000Y-99568000D01*
X129368000Y-93300000D02*
X126000000Y-93300000D01*
X130556000Y-94488000D02*
X129368000Y-93300000D01*
X130556000Y-97856000D02*
X130556000Y-94488000D01*
X132080000Y-99380000D02*
X130556000Y-97856000D01*
X132080000Y-99568000D02*
X132080000Y-99380000D01*
X132080000Y-99568000D02*
X149860000Y-99568000D01*
X149860000Y-97160000D02*
X146000000Y-93300000D01*
X149860000Y-99568000D02*
X170688000Y-99568000D01*
X149860000Y-99568000D02*
X149860000Y-97160000D01*
X170688000Y-97028000D02*
X170688000Y-99568000D01*
X170688000Y-99568000D02*
X189484000Y-99568000D01*
X189484000Y-96784000D02*
X189484000Y-99568000D01*
X189484000Y-99568000D02*
X210820000Y-99568000D01*
X206000000Y-93300000D02*
X208616000Y-93300000D01*
X208616000Y-93300000D02*
X210820000Y-95504000D01*
X210820000Y-95504000D02*
X210820000Y-99568000D01*
X210820000Y-99568000D02*
X220980000Y-99568000D01*
X222676000Y-93300000D02*
X226000000Y-93300000D01*
X221488000Y-94488000D02*
X222676000Y-93300000D01*
X91948000Y-98552000D02*
X92964000Y-99568000D01*
X91948000Y-96012000D02*
X91948000Y-98552000D01*
X220980000Y-99568000D02*
X221488000Y-99060000D01*
X89236000Y-93300000D02*
X91948000Y-96012000D01*
X86000000Y-93300000D02*
X89236000Y-93300000D01*
X221488000Y-99060000D02*
X221488000Y-94488000D01*
D16*
%TO.N,Net-(D43-Pad2)*%
X216000000Y-93300000D02*
X216000000Y-97028000D01*
%TO.N,Net-(D37-Pad2)*%
X196000000Y-97067000D02*
X196088000Y-97155000D01*
X196000000Y-93300000D02*
X196000000Y-97067000D01*
%TO.N,Net-(D31-Pad2)*%
X176000000Y-93300000D02*
X176000000Y-97050000D01*
X176000000Y-97050000D02*
X175895000Y-97155000D01*
%TO.N,Net-(D25-Pad2)*%
X156000000Y-97111000D02*
X155956000Y-97155000D01*
X156000000Y-93300000D02*
X156000000Y-97111000D01*
%TO.N,Net-(D19-Pad2)*%
X135890000Y-93410000D02*
X136000000Y-93300000D01*
X135890000Y-97155000D02*
X135890000Y-93410000D01*
%TO.N,Net-(D13-Pad2)*%
X116000000Y-96979000D02*
X115824000Y-97155000D01*
X116000000Y-93300000D02*
X116000000Y-96979000D01*
%TO.N,Net-(D7-Pad2)*%
X96000000Y-97143000D02*
X96012000Y-97155000D01*
X96000000Y-93300000D02*
X96000000Y-97143000D01*
%TO.N,Net-(D1-Pad2)*%
X76000000Y-93300000D02*
X76000000Y-97155000D01*
%TO.N,Net-(D1-Pad1)*%
X76000000Y-88500000D02*
X76000000Y-88900000D01*
X76000000Y-88500000D02*
X76000000Y-83300000D01*
%TO.N,Net-(D2-Pad1)*%
X76000000Y-78500000D02*
X76000000Y-73300000D01*
D15*
%TO.N,GND*%
X86000000Y-93300000D02*
X83632000Y-90932000D01*
X166960000Y-93300000D02*
X170688000Y-97028000D01*
X70016000Y-89320000D02*
X70016000Y-81280000D01*
D16*
X146000000Y-93300000D02*
X147656000Y-93300000D01*
D15*
X83632000Y-90932000D02*
X71628000Y-90932000D01*
D16*
X166000000Y-93300000D02*
X166960000Y-93300000D01*
D15*
X71628000Y-90932000D02*
X70016000Y-89320000D01*
X189484000Y-96784000D02*
X186000000Y-93300000D01*
D16*
%TO.N,Net-(D4-Pad1)*%
X86000000Y-73300000D02*
X86000000Y-78500000D01*
%TO.N,Net-(D7-Pad1)*%
X96000000Y-88500000D02*
X96000000Y-83300000D01*
%TO.N,Net-(D10-Pad2)*%
X96000000Y-68500000D02*
X106000000Y-68500000D01*
%TO.N,Net-(D8-Pad1)*%
X96000000Y-78500000D02*
X96000000Y-73300000D01*
%TO.N,Net-(D11-Pad1)*%
X106000000Y-83300000D02*
X106000000Y-88500000D01*
%TO.N,Net-(D13-Pad1)*%
X116000000Y-88500000D02*
X116000000Y-83300000D01*
%TO.N,Net-(D14-Pad1)*%
X116000000Y-78500000D02*
X116000000Y-73300000D01*
%TO.N,Net-(D16-Pad1)*%
X126000000Y-73300000D02*
X126000000Y-78500000D01*
%TO.N,Net-(D17-Pad1)*%
X126000000Y-83300000D02*
X126000000Y-88500000D01*
%TO.N,Net-(D19-Pad1)*%
X136000000Y-88500000D02*
X136000000Y-83300000D01*
%TO.N,Net-(D21-Pad1)*%
X136000000Y-68500000D02*
X146000000Y-68500000D01*
%TO.N,Net-(D22-Pad1)*%
X146000000Y-73300000D02*
X146000000Y-78500000D01*
%TO.N,Net-(D26-Pad1)*%
X156000000Y-78500000D02*
X156000000Y-73300000D01*
%TO.N,Net-(D28-Pad1)*%
X166000000Y-73300000D02*
X166000000Y-78500000D01*
%TO.N,Net-(D29-Pad1)*%
X166000000Y-83300000D02*
X166000000Y-88500000D01*
%TO.N,Net-(D31-Pad1)*%
X176000000Y-88500000D02*
X176000000Y-83300000D01*
%TO.N,Net-(D32-Pad1)*%
X176000000Y-78500000D02*
X176000000Y-73300000D01*
%TO.N,Net-(D33-Pad1)*%
X176000000Y-68500000D02*
X186000000Y-68500000D01*
%TO.N,Net-(D34-Pad1)*%
X186000000Y-73300000D02*
X186000000Y-78500000D01*
%TO.N,Net-(D37-Pad1)*%
X196000000Y-88500000D02*
X196000000Y-83300000D01*
%TO.N,Net-(D38-Pad1)*%
X196000000Y-78500000D02*
X196000000Y-73300000D01*
%TO.N,Net-(D39-Pad1)*%
X196000000Y-68500000D02*
X206000000Y-68500000D01*
%TO.N,Net-(D3-Pad1)*%
X76000000Y-68500000D02*
X86000000Y-68500000D01*
%TO.N,Net-(D5-Pad1)*%
X86000000Y-83300000D02*
X86000000Y-88500000D01*
%TO.N,Net-(D7-Pad2)*%
X95807142Y-93492858D02*
X96000000Y-93300000D01*
%TO.N,Net-(D10-Pad1)*%
X106000000Y-73300000D02*
X106000000Y-78500000D01*
%TO.N,Net-(D13-Pad2)*%
X115614284Y-93685716D02*
X116000000Y-93300000D01*
%TO.N,Net-(D15-Pad1)*%
X116000000Y-68500000D02*
X126000000Y-68500000D01*
%TO.N,Net-(D20-Pad1)*%
X136000000Y-78500000D02*
X136000000Y-73300000D01*
%TO.N,Net-(D23-Pad1)*%
X146000000Y-83300000D02*
X146000000Y-88500000D01*
%TO.N,Net-(D25-Pad1)*%
X156000000Y-88500000D02*
X156000000Y-83300000D01*
%TO.N,Net-(D25-Pad2)*%
X156000000Y-93300000D02*
X155600000Y-93300000D01*
X155600000Y-93300000D02*
X155150000Y-93750000D01*
%TO.N,Net-(D35-Pad1)*%
X186000000Y-83300000D02*
X186000000Y-88500000D01*
%TO.N,Net-(D40-Pad1)*%
X206000000Y-73300000D02*
X206000000Y-78500000D01*
%TO.N,Net-(D41-Pad1)*%
X206000000Y-83300000D02*
X206000000Y-88500000D01*
%TO.N,Net-(D43-Pad1)*%
X216000000Y-88500000D02*
X216000000Y-83300000D01*
%TO.N,Net-(D44-Pad1)*%
X216000000Y-78500000D02*
X216000000Y-73300000D01*
%TO.N,Net-(D45-Pad1)*%
X216000000Y-68500000D02*
X226000000Y-68500000D01*
%TO.N,Net-(D46-Pad1)*%
X226000000Y-73300000D02*
X226000000Y-78500000D01*
%TO.N,Net-(D47-Pad1)*%
X226000000Y-83300000D02*
X226000000Y-88500000D01*
%TO.N,Net-(D27-Pad1)*%
X156000000Y-68500000D02*
X166000000Y-68500000D01*
%TD*%
M02*
