%TF.GenerationSoftware,KiCad,Pcbnew,(6.0.5)*%
%TF.CreationDate,2023-02-26T02:49:58+09:00*%
%TF.ProjectId,_____,0c08746c-f12e-46b6-9963-61645f706362,rev?*%
%TF.SameCoordinates,Original*%
%TF.FileFunction,Legend,Top*%
%TF.FilePolarity,Positive*%
%FSLAX46Y46*%
G04 Gerber Fmt 4.6, Leading zero omitted, Abs format (unit mm)*
G04 Created by KiCad (PCBNEW (6.0.5)) date 2023-02-26 02:49:58*
%MOMM*%
%LPD*%
G01*
G04 APERTURE LIST*
%ADD10C,0.150000*%
%ADD11C,0.120000*%
G04 APERTURE END LIST*
D10*
%TO.C,A-FA*%
D11*
%TO.C,R8*%
X217810000Y-98398000D02*
X224350000Y-98398000D01*
X224350000Y-98398000D02*
X224350000Y-95658000D01*
X217810000Y-95658000D02*
X217810000Y-98398000D01*
X217040000Y-97028000D02*
X217810000Y-97028000D01*
X225120000Y-97028000D02*
X224350000Y-97028000D01*
X224350000Y-95658000D02*
X217810000Y-95658000D01*
%TO.C,R7*%
X204438000Y-98525000D02*
X204438000Y-95785000D01*
X197898000Y-95785000D02*
X197898000Y-98525000D01*
X204438000Y-95785000D02*
X197898000Y-95785000D01*
X205208000Y-97155000D02*
X204438000Y-97155000D01*
X197898000Y-98525000D02*
X204438000Y-98525000D01*
X197128000Y-97155000D02*
X197898000Y-97155000D01*
%TO.C,R5*%
X164306000Y-98525000D02*
X164306000Y-95785000D01*
X157766000Y-98525000D02*
X164306000Y-98525000D01*
X156996000Y-97155000D02*
X157766000Y-97155000D01*
X165076000Y-97155000D02*
X164306000Y-97155000D01*
X164306000Y-95785000D02*
X157766000Y-95785000D01*
X157766000Y-95785000D02*
X157766000Y-98525000D01*
%TO.C,D22*%
X143300000Y-74500000D02*
X143300000Y-68400000D01*
X144400000Y-74500000D02*
X143300000Y-74500000D01*
X148700000Y-68400000D02*
X148700000Y-73400000D01*
%TO.C,D38*%
X197600000Y-77300000D02*
X198700000Y-77300000D01*
X198700000Y-77300000D02*
X198700000Y-83400000D01*
X193300000Y-83400000D02*
X193300000Y-78400000D01*
%TO.C,D31*%
X177600000Y-87300000D02*
X178700000Y-87300000D01*
X173300000Y-93400000D02*
X173300000Y-88400000D01*
X178700000Y-87300000D02*
X178700000Y-93400000D01*
%TO.C,D15*%
X113300000Y-73400000D02*
X113300000Y-68400000D01*
X118700000Y-67300000D02*
X118700000Y-73400000D01*
X117600000Y-67300000D02*
X118700000Y-67300000D01*
%TO.C,D1*%
X73300000Y-93400000D02*
X73300000Y-88400000D01*
X77600000Y-87300000D02*
X78700000Y-87300000D01*
X78700000Y-87300000D02*
X78700000Y-93400000D01*
%TO.C,D43*%
X217600000Y-87300000D02*
X218700000Y-87300000D01*
X213300000Y-93400000D02*
X213300000Y-88400000D01*
X218700000Y-87300000D02*
X218700000Y-93400000D01*
%TO.C,D30*%
X168700000Y-88400000D02*
X168700000Y-93400000D01*
X163300000Y-94500000D02*
X163300000Y-88400000D01*
X164400000Y-94500000D02*
X163300000Y-94500000D01*
%TO.C,D32*%
X173300000Y-83400000D02*
X173300000Y-78400000D01*
X177600000Y-77300000D02*
X178700000Y-77300000D01*
X178700000Y-77300000D02*
X178700000Y-83400000D01*
%TO.C,D5*%
X84400000Y-84500000D02*
X83300000Y-84500000D01*
X83300000Y-84500000D02*
X83300000Y-78400000D01*
X88700000Y-78400000D02*
X88700000Y-83400000D01*
%TO.C,D42*%
X208700000Y-88400000D02*
X208700000Y-93400000D01*
X203300000Y-94500000D02*
X203300000Y-88400000D01*
X204400000Y-94500000D02*
X203300000Y-94500000D01*
%TO.C,J1*%
X66626000Y-81580000D02*
X67906000Y-81580000D01*
X63526000Y-89090000D02*
X63526000Y-83280000D01*
X57106000Y-73470000D02*
X63526000Y-73470000D01*
X57106000Y-89090000D02*
X63526000Y-89090000D01*
X50506000Y-84090000D02*
X57106000Y-84090000D01*
X64516000Y-83280000D02*
X64816000Y-83880000D01*
X66626000Y-80980000D02*
X67906000Y-80980000D01*
X64816000Y-83880000D02*
X64216000Y-83880000D01*
X50506000Y-81280000D02*
X50506000Y-84090000D01*
X50506000Y-81280000D02*
X50506000Y-78470000D01*
X57106000Y-84090000D02*
X57106000Y-89090000D01*
X57106000Y-78470000D02*
X57106000Y-73470000D01*
X64216000Y-83880000D02*
X64516000Y-83280000D01*
X63526000Y-73470000D02*
X63526000Y-79280000D01*
X50506000Y-78470000D02*
X57106000Y-78470000D01*
%TO.C,D21*%
X138700000Y-67300000D02*
X138700000Y-73400000D01*
X137600000Y-67300000D02*
X138700000Y-67300000D01*
X133300000Y-73400000D02*
X133300000Y-68400000D01*
%TO.C,D16*%
X128700000Y-68400000D02*
X128700000Y-73400000D01*
X124400000Y-74500000D02*
X123300000Y-74500000D01*
X123300000Y-74500000D02*
X123300000Y-68400000D01*
%TO.C,D4*%
X84400000Y-74500000D02*
X83300000Y-74500000D01*
X88700000Y-68400000D02*
X88700000Y-73400000D01*
X83300000Y-74500000D02*
X83300000Y-68400000D01*
%TO.C,D26*%
X153300000Y-83400000D02*
X153300000Y-78400000D01*
X158700000Y-77300000D02*
X158700000Y-83400000D01*
X157600000Y-77300000D02*
X158700000Y-77300000D01*
%TO.C,D24*%
X143300000Y-94500000D02*
X143300000Y-88400000D01*
X144400000Y-94500000D02*
X143300000Y-94500000D01*
X148700000Y-88400000D02*
X148700000Y-93400000D01*
%TO.C,D3*%
X78700000Y-67300000D02*
X78700000Y-73400000D01*
X77600000Y-67300000D02*
X78700000Y-67300000D01*
X73300000Y-73400000D02*
X73300000Y-68400000D01*
%TO.C,D13*%
X117600000Y-87300000D02*
X118700000Y-87300000D01*
X118700000Y-87300000D02*
X118700000Y-93400000D01*
X113300000Y-93400000D02*
X113300000Y-88400000D01*
%TO.C,R6*%
X184245000Y-98525000D02*
X184245000Y-95785000D01*
X185015000Y-97155000D02*
X184245000Y-97155000D01*
X177705000Y-95785000D02*
X177705000Y-98525000D01*
X177705000Y-98525000D02*
X184245000Y-98525000D01*
X184245000Y-95785000D02*
X177705000Y-95785000D01*
X176935000Y-97155000D02*
X177705000Y-97155000D01*
%TO.C,R2*%
X105132000Y-97155000D02*
X104362000Y-97155000D01*
X104362000Y-98525000D02*
X104362000Y-95785000D01*
X97822000Y-98525000D02*
X104362000Y-98525000D01*
X104362000Y-95785000D02*
X97822000Y-95785000D01*
X97052000Y-97155000D02*
X97822000Y-97155000D01*
X97822000Y-95785000D02*
X97822000Y-98525000D01*
%TO.C,D12*%
X108700000Y-88400000D02*
X108700000Y-93400000D01*
X104400000Y-94500000D02*
X103300000Y-94500000D01*
X103300000Y-94500000D02*
X103300000Y-88400000D01*
%TO.C,R4*%
X137700000Y-95785000D02*
X137700000Y-98525000D01*
X144240000Y-98525000D02*
X144240000Y-95785000D01*
X144240000Y-95785000D02*
X137700000Y-95785000D01*
X136930000Y-97155000D02*
X137700000Y-97155000D01*
X137700000Y-98525000D02*
X144240000Y-98525000D01*
X145010000Y-97155000D02*
X144240000Y-97155000D01*
%TO.C,D40*%
X204400000Y-74500000D02*
X203300000Y-74500000D01*
X208700000Y-68400000D02*
X208700000Y-73400000D01*
X203300000Y-74500000D02*
X203300000Y-68400000D01*
%TO.C,D41*%
X204400000Y-84500000D02*
X203300000Y-84500000D01*
X203300000Y-84500000D02*
X203300000Y-78400000D01*
X208700000Y-78400000D02*
X208700000Y-83400000D01*
%TO.C,D44*%
X213300000Y-83400000D02*
X213300000Y-78400000D01*
X217600000Y-77300000D02*
X218700000Y-77300000D01*
X218700000Y-77300000D02*
X218700000Y-83400000D01*
%TO.C,D33*%
X177600000Y-67300000D02*
X178700000Y-67300000D01*
X178700000Y-67300000D02*
X178700000Y-73400000D01*
X173300000Y-73400000D02*
X173300000Y-68400000D01*
%TO.C,D36*%
X183300000Y-94500000D02*
X183300000Y-88400000D01*
X184400000Y-94500000D02*
X183300000Y-94500000D01*
X188700000Y-88400000D02*
X188700000Y-93400000D01*
%TO.C,D18*%
X124400000Y-94500000D02*
X123300000Y-94500000D01*
X128700000Y-88400000D02*
X128700000Y-93400000D01*
X123300000Y-94500000D02*
X123300000Y-88400000D01*
%TO.C,D17*%
X123300000Y-84500000D02*
X123300000Y-78400000D01*
X124400000Y-84500000D02*
X123300000Y-84500000D01*
X128700000Y-78400000D02*
X128700000Y-83400000D01*
%TO.C,D8*%
X98700000Y-77300000D02*
X98700000Y-83400000D01*
X93300000Y-83400000D02*
X93300000Y-78400000D01*
X97600000Y-77300000D02*
X98700000Y-77300000D01*
%TO.C,D9*%
X93300000Y-73400000D02*
X93300000Y-68400000D01*
X98700000Y-67300000D02*
X98700000Y-73400000D01*
X97600000Y-67300000D02*
X98700000Y-67300000D01*
%TO.C,D29*%
X164400000Y-84500000D02*
X163300000Y-84500000D01*
X163300000Y-84500000D02*
X163300000Y-78400000D01*
X168700000Y-78400000D02*
X168700000Y-83400000D01*
%TO.C,R1*%
X85120000Y-97155000D02*
X84350000Y-97155000D01*
X77810000Y-98525000D02*
X84350000Y-98525000D01*
X77810000Y-95785000D02*
X77810000Y-98525000D01*
X77040000Y-97155000D02*
X77810000Y-97155000D01*
X84350000Y-98525000D02*
X84350000Y-95785000D01*
X84350000Y-95785000D02*
X77810000Y-95785000D01*
%TO.C,R3*%
X124174000Y-98525000D02*
X124174000Y-95785000D01*
X117634000Y-98525000D02*
X124174000Y-98525000D01*
X116864000Y-97155000D02*
X117634000Y-97155000D01*
X124944000Y-97155000D02*
X124174000Y-97155000D01*
X124174000Y-95785000D02*
X117634000Y-95785000D01*
X117634000Y-95785000D02*
X117634000Y-98525000D01*
%TO.C,D39*%
X198700000Y-67300000D02*
X198700000Y-73400000D01*
X193300000Y-73400000D02*
X193300000Y-68400000D01*
X197600000Y-67300000D02*
X198700000Y-67300000D01*
%TO.C,D14*%
X113300000Y-83400000D02*
X113300000Y-78400000D01*
X118700000Y-77300000D02*
X118700000Y-83400000D01*
X117600000Y-77300000D02*
X118700000Y-77300000D01*
%TO.C,D25*%
X157600000Y-87300000D02*
X158700000Y-87300000D01*
X158700000Y-87300000D02*
X158700000Y-93400000D01*
X153300000Y-93400000D02*
X153300000Y-88400000D01*
%TO.C,D28*%
X168700000Y-68400000D02*
X168700000Y-73400000D01*
X164400000Y-74500000D02*
X163300000Y-74500000D01*
X163300000Y-74500000D02*
X163300000Y-68400000D01*
%TO.C,D23*%
X144400000Y-84500000D02*
X143300000Y-84500000D01*
X148700000Y-78400000D02*
X148700000Y-83400000D01*
X143300000Y-84500000D02*
X143300000Y-78400000D01*
%TO.C,D11*%
X103300000Y-84500000D02*
X103300000Y-78400000D01*
X104400000Y-84500000D02*
X103300000Y-84500000D01*
X108700000Y-78400000D02*
X108700000Y-83400000D01*
%TO.C,D35*%
X184400000Y-84500000D02*
X183300000Y-84500000D01*
X188700000Y-78400000D02*
X188700000Y-83400000D01*
X183300000Y-84500000D02*
X183300000Y-78400000D01*
%TO.C,D27*%
X153300000Y-73400000D02*
X153300000Y-68400000D01*
X158700000Y-67300000D02*
X158700000Y-73400000D01*
X157600000Y-67300000D02*
X158700000Y-67300000D01*
%TO.C,D34*%
X183300000Y-74500000D02*
X183300000Y-68400000D01*
X188700000Y-68400000D02*
X188700000Y-73400000D01*
X184400000Y-74500000D02*
X183300000Y-74500000D01*
%TO.C,D45*%
X218700000Y-67300000D02*
X218700000Y-73400000D01*
X213300000Y-73400000D02*
X213300000Y-68400000D01*
X217600000Y-67300000D02*
X218700000Y-67300000D01*
%TO.C,D7*%
X98700000Y-87300000D02*
X98700000Y-93400000D01*
X93300000Y-93400000D02*
X93300000Y-88400000D01*
X97600000Y-87300000D02*
X98700000Y-87300000D01*
%TO.C,D19*%
X137600000Y-87300000D02*
X138700000Y-87300000D01*
X133300000Y-93400000D02*
X133300000Y-88400000D01*
X138700000Y-87300000D02*
X138700000Y-93400000D01*
%TO.C,D46*%
X228700000Y-68400000D02*
X228700000Y-73400000D01*
X223300000Y-74500000D02*
X223300000Y-68400000D01*
X224400000Y-74500000D02*
X223300000Y-74500000D01*
%TO.C,D47*%
X228700000Y-78400000D02*
X228700000Y-83400000D01*
X224400000Y-84500000D02*
X223300000Y-84500000D01*
X223300000Y-84500000D02*
X223300000Y-78400000D01*
%TO.C,D10*%
X103300000Y-74500000D02*
X103300000Y-68400000D01*
X108700000Y-68400000D02*
X108700000Y-73400000D01*
X104400000Y-74500000D02*
X103300000Y-74500000D01*
%TO.C,D37*%
X198700000Y-87300000D02*
X198700000Y-93400000D01*
X193300000Y-93400000D02*
X193300000Y-88400000D01*
X197600000Y-87300000D02*
X198700000Y-87300000D01*
%TO.C,D20*%
X137600000Y-77300000D02*
X138700000Y-77300000D01*
X133300000Y-83400000D02*
X133300000Y-78400000D01*
X138700000Y-77300000D02*
X138700000Y-83400000D01*
%TO.C,D2*%
X73300000Y-83400000D02*
X73300000Y-78400000D01*
X77600000Y-77300000D02*
X78700000Y-77300000D01*
X78700000Y-77300000D02*
X78700000Y-83400000D01*
%TO.C,D48*%
X223300000Y-94500000D02*
X223300000Y-88400000D01*
X224400000Y-94500000D02*
X223300000Y-94500000D01*
X228700000Y-88400000D02*
X228700000Y-93400000D01*
%TO.C,A-FA*%
G36*
X83978615Y-64555236D02*
G01*
X84091527Y-64584944D01*
X84129226Y-64611101D01*
X84185515Y-64686372D01*
X84176339Y-64753600D01*
X84105509Y-64833022D01*
X84046678Y-64897020D01*
X84044874Y-64951126D01*
X84085714Y-65021403D01*
X84129391Y-65095286D01*
X84115174Y-65122831D01*
X84030966Y-65126928D01*
X84029946Y-65126928D01*
X83940164Y-65113213D01*
X83881482Y-65057115D01*
X83842225Y-64976598D01*
X83797452Y-64866691D01*
X83786115Y-64813412D01*
X83810878Y-64796298D01*
X83865878Y-64794901D01*
X83928095Y-64775452D01*
X83929564Y-64733084D01*
X83878037Y-64691762D01*
X83828041Y-64677881D01*
X83776655Y-64677321D01*
X83749688Y-64707626D01*
X83739380Y-64787562D01*
X83737910Y-64895773D01*
X83736000Y-65027304D01*
X83722719Y-65096135D01*
X83686738Y-65122573D01*
X83616729Y-65126925D01*
X83608960Y-65126928D01*
X83520976Y-65117698D01*
X83499136Y-65083487D01*
X83505201Y-65061278D01*
X83519495Y-64984060D01*
X83528624Y-64857952D01*
X83530394Y-64770755D01*
X83530394Y-64545882D01*
X83797200Y-64545882D01*
X83978615Y-64555236D01*
G37*
G36*
X77622458Y-64742640D02*
G01*
X77600740Y-64936175D01*
X77563234Y-65061150D01*
X77498277Y-65131908D01*
X77394203Y-65162793D01*
X77276219Y-65168431D01*
X77164187Y-65163786D01*
X77112299Y-65140824D01*
X77097829Y-65086004D01*
X77097387Y-65061876D01*
X77108433Y-64986630D01*
X77154457Y-64974807D01*
X77182385Y-64982298D01*
X77282791Y-64987432D01*
X77348496Y-64924887D01*
X77382081Y-64790685D01*
X77387910Y-64665310D01*
X77387910Y-64421372D01*
X77646921Y-64421372D01*
X77622458Y-64742640D01*
G37*
G36*
X82510442Y-64574024D02*
G01*
X82595526Y-64589999D01*
X82618612Y-64608137D01*
X82584007Y-64643647D01*
X82514854Y-64662773D01*
X82454253Y-64677049D01*
X82422922Y-64714732D01*
X82411313Y-64797513D01*
X82409805Y-64901416D01*
X82407673Y-65030912D01*
X82393636Y-65097958D01*
X82356230Y-65123112D01*
X82284053Y-65126928D01*
X82211163Y-65123368D01*
X82175185Y-65098778D01*
X82165188Y-65032288D01*
X82169919Y-64909035D01*
X82174092Y-64781992D01*
X82162338Y-64715599D01*
X82124605Y-64687709D01*
X82064943Y-64677773D01*
X81984641Y-64653275D01*
X81964643Y-64615518D01*
X82009743Y-64591941D01*
X82110905Y-64575732D01*
X82244098Y-64567161D01*
X82385288Y-64566502D01*
X82510442Y-64574024D01*
G37*
G36*
X78500466Y-63228093D02*
G01*
X79182986Y-63248259D01*
X79823868Y-63283954D01*
X80417224Y-63334482D01*
X80957172Y-63399149D01*
X81437825Y-63477259D01*
X81853298Y-63568118D01*
X82197707Y-63671031D01*
X82444625Y-63774684D01*
X82557141Y-63839371D01*
X82633523Y-63897236D01*
X82664808Y-63937963D01*
X82642036Y-63951232D01*
X82586194Y-63937675D01*
X82554000Y-63934806D01*
X82593396Y-63972547D01*
X82606946Y-63982834D01*
X82678535Y-64071902D01*
X82700328Y-64153954D01*
X82700328Y-64255359D01*
X81044254Y-64255359D01*
X80769057Y-64650073D01*
X80653896Y-64812997D01*
X80550762Y-64954817D01*
X80471800Y-65059077D01*
X80432038Y-65106609D01*
X80363910Y-65139851D01*
X80252154Y-65161720D01*
X80119068Y-65172079D01*
X79986947Y-65170791D01*
X79878088Y-65157720D01*
X79814788Y-65132729D01*
X79808474Y-65110434D01*
X79837996Y-65060663D01*
X79905607Y-64958006D01*
X80001117Y-64817102D01*
X80114335Y-64652586D01*
X80235072Y-64479096D01*
X80353136Y-64311267D01*
X80458337Y-64163737D01*
X80540486Y-64051142D01*
X80589390Y-63988120D01*
X80591624Y-63985588D01*
X80643817Y-63970917D01*
X80765732Y-63956217D01*
X80944089Y-63942536D01*
X81165609Y-63930917D01*
X81381991Y-63923333D01*
X82134919Y-63902581D01*
X81894124Y-63784862D01*
X81658447Y-63688598D01*
X81355676Y-63595019D01*
X81001709Y-63508274D01*
X80612444Y-63432509D01*
X80431381Y-63403312D01*
X80255353Y-63382358D01*
X80005766Y-63360992D01*
X79692066Y-63339788D01*
X79323693Y-63319321D01*
X78910093Y-63300166D01*
X78460707Y-63282899D01*
X78446243Y-63282398D01*
X78054364Y-63268801D01*
X77742153Y-63257710D01*
X77506321Y-63248836D01*
X77343577Y-63241890D01*
X77250631Y-63236584D01*
X77224192Y-63232628D01*
X77260969Y-63229734D01*
X77357673Y-63227614D01*
X77511013Y-63225980D01*
X77717698Y-63224541D01*
X77782191Y-63224149D01*
X78500466Y-63228093D01*
G37*
G36*
X81371240Y-64552390D02*
G01*
X81400811Y-64585333D01*
X81412085Y-64664840D01*
X81413727Y-64776907D01*
X81415715Y-64908136D01*
X81428358Y-64975487D01*
X81461673Y-64998083D01*
X81525678Y-64995049D01*
X81527861Y-64994799D01*
X81596713Y-64979033D01*
X81634359Y-64937148D01*
X81654632Y-64846511D01*
X81662746Y-64774150D01*
X81679485Y-64649904D01*
X81706534Y-64585960D01*
X81757728Y-64559689D01*
X81797632Y-64553501D01*
X81865380Y-64550513D01*
X81899053Y-64575350D01*
X81910546Y-64648077D01*
X81911766Y-64746044D01*
X81890812Y-64934427D01*
X81822795Y-65059107D01*
X81699981Y-65129477D01*
X81578102Y-65151380D01*
X81442758Y-65153093D01*
X81329008Y-65137690D01*
X81303840Y-65129424D01*
X81223686Y-65083589D01*
X81182823Y-65019166D01*
X81174160Y-64914486D01*
X81187345Y-64773427D01*
X81207504Y-64642277D01*
X81233130Y-64574017D01*
X81275376Y-64548723D01*
X81314751Y-64545882D01*
X81371240Y-64552390D01*
G37*
G36*
X84728169Y-64549617D02*
G01*
X84817500Y-64563035D01*
X84854680Y-64589454D01*
X84858498Y-64608137D01*
X84831646Y-64651018D01*
X84742194Y-64669041D01*
X84689026Y-64670392D01*
X84574571Y-64679912D01*
X84535294Y-64709784D01*
X84537052Y-64722271D01*
X84586688Y-64760028D01*
X84675396Y-64775651D01*
X84772697Y-64793861D01*
X84801115Y-64833611D01*
X84765093Y-64877541D01*
X84669076Y-64908290D01*
X84640606Y-64911541D01*
X84525873Y-64931741D01*
X84488745Y-64960119D01*
X84525819Y-64986742D01*
X84633692Y-65001675D01*
X84671733Y-65002418D01*
X84794832Y-65010565D01*
X84850904Y-65038268D01*
X84858498Y-65064673D01*
X84841803Y-65097999D01*
X84781626Y-65117339D01*
X84662830Y-65125830D01*
X84557599Y-65127021D01*
X84256701Y-65127115D01*
X84270482Y-64836498D01*
X84284264Y-64545882D01*
X84571381Y-64545882D01*
X84728169Y-64549617D01*
G37*
G36*
X88329302Y-64736269D02*
G01*
X88420518Y-64640741D01*
X88552069Y-64590561D01*
X88598390Y-64587385D01*
X88739085Y-64620895D01*
X88834030Y-64707724D01*
X88875330Y-64827315D01*
X88855090Y-64959116D01*
X88782443Y-65066559D01*
X88649265Y-65152010D01*
X88508129Y-65156695D01*
X88383957Y-65091892D01*
X88302390Y-64982150D01*
X88288940Y-64872284D01*
X88433926Y-64872284D01*
X88443241Y-64923563D01*
X88491235Y-64976938D01*
X88577497Y-65019679D01*
X88656586Y-64987584D01*
X88699399Y-64913585D01*
X88701218Y-64814649D01*
X88653086Y-64745805D01*
X88579095Y-64719845D01*
X88503334Y-64749558D01*
X88470743Y-64792173D01*
X88433926Y-64872284D01*
X88288940Y-64872284D01*
X88287049Y-64856840D01*
X88329302Y-64736269D01*
G37*
G36*
X87735252Y-64594177D02*
G01*
X87758855Y-64627725D01*
X87762458Y-64707790D01*
X87754560Y-64821873D01*
X87728611Y-64990187D01*
X87682254Y-65089890D01*
X87658482Y-65112396D01*
X87524303Y-65164548D01*
X87386744Y-65140679D01*
X87303982Y-65082215D01*
X87249245Y-65000834D01*
X87241727Y-64933559D01*
X87258384Y-64850028D01*
X87265674Y-64734003D01*
X87265688Y-64729252D01*
X87274927Y-64631298D01*
X87312213Y-64592186D01*
X87354092Y-64587385D01*
X87407640Y-64595699D01*
X87429110Y-64635153D01*
X87426396Y-64727517D01*
X87421532Y-64773372D01*
X87419393Y-64925188D01*
X87454744Y-65004320D01*
X87511466Y-65013909D01*
X87559209Y-64955164D01*
X87590178Y-64842749D01*
X87597714Y-64735375D01*
X87606146Y-64634794D01*
X87640534Y-64593404D01*
X87685860Y-64587385D01*
X87735252Y-64594177D01*
G37*
G36*
X88171157Y-64592974D02*
G01*
X88242030Y-64612586D01*
X88261766Y-64649640D01*
X88227165Y-64700340D01*
X88178760Y-64711895D01*
X88128972Y-64722820D01*
X88104141Y-64769194D01*
X88096108Y-64871413D01*
X88095753Y-64919411D01*
X88091383Y-65043880D01*
X88072833Y-65105958D01*
X88031946Y-65126040D01*
X88012746Y-65126928D01*
X87962959Y-65116002D01*
X87938128Y-65069628D01*
X87930095Y-64967410D01*
X87929740Y-64919411D01*
X87923075Y-64788912D01*
X87900001Y-64725174D01*
X87867485Y-64711895D01*
X87812461Y-64678673D01*
X87805230Y-64649640D01*
X87825724Y-64612097D01*
X87897634Y-64592768D01*
X88033498Y-64587385D01*
X88171157Y-64592974D01*
G37*
G36*
X89642409Y-65055859D02*
G01*
X89575593Y-65035839D01*
X89534198Y-65054105D01*
X89523040Y-65067017D01*
X89456637Y-65121390D01*
X89404685Y-65116904D01*
X89391371Y-65057894D01*
X89394369Y-65043962D01*
X89398110Y-64968006D01*
X89382885Y-64940491D01*
X89349926Y-64959161D01*
X89323736Y-65023456D01*
X89276627Y-65110348D01*
X89210697Y-65127180D01*
X89146478Y-65076977D01*
X89110488Y-64992042D01*
X89077266Y-64857156D01*
X89061167Y-64992042D01*
X89032449Y-65091672D01*
X88985444Y-65126928D01*
X88940612Y-65090662D01*
X88926908Y-64980821D01*
X88944198Y-64795835D01*
X88952457Y-64743022D01*
X88979540Y-64637846D01*
X89024783Y-64593722D01*
X89072387Y-64587385D01*
X89141226Y-64605818D01*
X89184729Y-64674944D01*
X89204461Y-64743022D01*
X89242329Y-64898660D01*
X89244304Y-64892806D01*
X89594363Y-64892806D01*
X89637320Y-64958592D01*
X89670582Y-64972340D01*
X89728955Y-64971787D01*
X89756686Y-64916371D01*
X89763964Y-64863046D01*
X89802815Y-64759113D01*
X89878389Y-64715239D01*
X89967470Y-64739702D01*
X90006819Y-64776458D01*
X90040308Y-64836551D01*
X90026516Y-64905065D01*
X89996098Y-64962863D01*
X89955943Y-65053699D01*
X89970695Y-65097403D01*
X89977062Y-65100536D01*
X90027473Y-65121281D01*
X90033066Y-65123651D01*
X90064012Y-65101118D01*
X90105697Y-65061708D01*
X90162000Y-64955316D01*
X90168518Y-64824295D01*
X90127640Y-64704896D01*
X90078675Y-64651993D01*
X89934422Y-64592746D01*
X89793594Y-64615750D01*
X89691742Y-64689257D01*
X89612934Y-64797270D01*
X89594363Y-64892806D01*
X89244304Y-64892806D01*
X89263328Y-64836405D01*
X89444609Y-64836405D01*
X89447900Y-64874649D01*
X89462911Y-64877908D01*
X89505175Y-64847780D01*
X89506864Y-64836405D01*
X89492704Y-64795981D01*
X89488562Y-64794901D01*
X89453128Y-64823984D01*
X89444609Y-64836405D01*
X89263328Y-64836405D01*
X89293975Y-64745549D01*
X89345535Y-64636303D01*
X89415729Y-64587440D01*
X89455722Y-64579536D01*
X89552147Y-64533639D01*
X89655881Y-64431442D01*
X89748881Y-64295685D01*
X89813103Y-64149110D01*
X89821326Y-64118741D01*
X89828224Y-64040267D01*
X89797712Y-63968638D01*
X89717139Y-63878553D01*
X89686410Y-63848970D01*
X89470514Y-63683246D01*
X89182769Y-63522666D01*
X88834320Y-63370846D01*
X88436310Y-63231403D01*
X87999885Y-63107951D01*
X87536187Y-63004108D01*
X87056362Y-62923489D01*
X86705394Y-62881681D01*
X86544122Y-62871124D01*
X86312599Y-62863245D01*
X86023533Y-62857957D01*
X85689634Y-62855174D01*
X85323610Y-62854807D01*
X84938170Y-62856771D01*
X84546023Y-62860977D01*
X84159878Y-62867339D01*
X83792444Y-62875770D01*
X83456429Y-62886181D01*
X83164544Y-62898487D01*
X83011603Y-62907011D01*
X82856515Y-62913590D01*
X82767933Y-62910230D01*
X82752894Y-62897352D01*
X82762583Y-62892199D01*
X82788901Y-62870994D01*
X82772774Y-62841206D01*
X82704994Y-62796237D01*
X82576351Y-62729490D01*
X82451309Y-62669198D01*
X81901923Y-62421329D01*
X81397104Y-62224004D01*
X80918812Y-62073262D01*
X80449009Y-61965142D01*
X79969657Y-61895683D01*
X79462717Y-61860924D01*
X78910152Y-61856904D01*
X78766862Y-61860125D01*
X78525751Y-61867894D01*
X78304115Y-61878191D01*
X78092118Y-61892454D01*
X77879922Y-61912123D01*
X77657691Y-61938638D01*
X77415589Y-61973437D01*
X77143778Y-62017961D01*
X76832424Y-62073648D01*
X76471688Y-62141939D01*
X76051735Y-62224272D01*
X75562728Y-62322087D01*
X75437256Y-62347369D01*
X75088061Y-62416737D01*
X74751059Y-62481687D01*
X74438315Y-62540043D01*
X74161892Y-62589626D01*
X73933856Y-62628260D01*
X73766271Y-62653767D01*
X73689362Y-62662819D01*
X73516017Y-62673805D01*
X73391079Y-62668256D01*
X73280764Y-62641232D01*
X73151287Y-62587790D01*
X73139444Y-62582388D01*
X73017551Y-62524716D01*
X72932932Y-62481112D01*
X72905525Y-62462639D01*
X72943979Y-62458606D01*
X73047389Y-62458109D01*
X73197784Y-62461066D01*
X73301027Y-62464391D01*
X73440114Y-62468090D01*
X73569486Y-62467312D01*
X73699617Y-62460368D01*
X73840979Y-62445569D01*
X74004045Y-62421230D01*
X74199288Y-62385661D01*
X74437182Y-62337175D01*
X74728200Y-62274084D01*
X75082814Y-62194701D01*
X75348624Y-62134419D01*
X76052368Y-61979786D01*
X76688862Y-61851916D01*
X77268896Y-61749294D01*
X77803260Y-61670404D01*
X78302745Y-61613729D01*
X78778141Y-61577753D01*
X79240238Y-61560960D01*
X79442322Y-61559258D01*
X79907441Y-61572319D01*
X80367727Y-61613494D01*
X80837278Y-61685547D01*
X81330195Y-61791244D01*
X81860575Y-61933351D01*
X82442518Y-62114632D01*
X82679577Y-62194184D01*
X83468139Y-62463354D01*
X88613192Y-62489895D01*
X89259685Y-62493348D01*
X89882952Y-62496908D01*
X90477985Y-62500535D01*
X91039772Y-62504187D01*
X91563304Y-62507825D01*
X92043572Y-62511409D01*
X92475565Y-62514898D01*
X92854273Y-62518252D01*
X93174687Y-62521430D01*
X93431797Y-62524392D01*
X93620592Y-62527098D01*
X93736064Y-62529507D01*
X93773261Y-62531451D01*
X93755842Y-62568653D01*
X93700874Y-62668230D01*
X93613548Y-62821403D01*
X93499061Y-63019392D01*
X93362605Y-63253416D01*
X93209374Y-63514698D01*
X93044563Y-63794456D01*
X92873364Y-64083911D01*
X92700973Y-64374283D01*
X92532583Y-64656793D01*
X92373388Y-64922661D01*
X92228582Y-65163107D01*
X92103359Y-65369352D01*
X92002913Y-65532616D01*
X91932437Y-65644119D01*
X91926298Y-65653518D01*
X91763710Y-65848238D01*
X91608102Y-65954416D01*
X91584772Y-65965368D01*
X91559575Y-65975342D01*
X91528714Y-65984386D01*
X91488390Y-65992545D01*
X91434806Y-65999864D01*
X91364165Y-66006388D01*
X91272669Y-66012165D01*
X91156520Y-66017238D01*
X91011920Y-66021654D01*
X90835073Y-66025459D01*
X90622180Y-66028697D01*
X90369444Y-66031415D01*
X90073066Y-66033658D01*
X89729251Y-66035472D01*
X89334199Y-66036902D01*
X88884113Y-66037994D01*
X88375197Y-66038793D01*
X87803651Y-66039346D01*
X87165678Y-66039697D01*
X86457482Y-66039893D01*
X85675263Y-66039978D01*
X84815225Y-66039999D01*
X84480366Y-66040000D01*
X77529421Y-66040000D01*
X77313021Y-65728725D01*
X77096622Y-65417450D01*
X82720697Y-65417450D01*
X83633077Y-65417145D01*
X84465766Y-65416228D01*
X85218454Y-65414704D01*
X85890833Y-65412574D01*
X86482594Y-65409841D01*
X86993428Y-65406507D01*
X87423026Y-65402574D01*
X87771079Y-65398044D01*
X88037279Y-65392920D01*
X88221316Y-65387203D01*
X88322883Y-65380898D01*
X88344773Y-65375947D01*
X88303322Y-65369219D01*
X88179175Y-65363077D01*
X87972639Y-65357526D01*
X87684024Y-65352566D01*
X87313638Y-65348200D01*
X86861788Y-65344431D01*
X86328782Y-65341260D01*
X85714930Y-65338690D01*
X85020539Y-65336723D01*
X84245917Y-65335362D01*
X83391373Y-65334609D01*
X82712779Y-65334444D01*
X81796191Y-65334141D01*
X80961182Y-65333235D01*
X80207883Y-65331724D01*
X79536428Y-65329612D01*
X78946950Y-65326897D01*
X78439583Y-65323583D01*
X78014458Y-65319669D01*
X77671709Y-65315156D01*
X77411468Y-65310046D01*
X77233869Y-65304340D01*
X77139045Y-65298038D01*
X77122157Y-65293073D01*
X77169967Y-65286812D01*
X77300033Y-65280900D01*
X77511603Y-65275342D01*
X77803926Y-65270145D01*
X78176252Y-65265314D01*
X78627830Y-65260856D01*
X79157908Y-65256776D01*
X79765737Y-65253081D01*
X80450564Y-65249777D01*
X81211641Y-65246870D01*
X82048215Y-65244366D01*
X82959535Y-65242271D01*
X83553088Y-65241194D01*
X89942648Y-65230686D01*
X89769303Y-65126928D01*
X90249962Y-65126928D01*
X90433625Y-65126928D01*
X90584123Y-65109601D01*
X90671843Y-65061194D01*
X90692507Y-65009746D01*
X90797486Y-65009746D01*
X90805061Y-65087625D01*
X90829864Y-65120410D01*
X90874492Y-65126928D01*
X91038524Y-65126928D01*
X91227269Y-65126928D01*
X91457518Y-65126928D01*
X91641833Y-65126928D01*
X91759131Y-65118332D01*
X91837901Y-65096686D01*
X91851799Y-65085424D01*
X91835581Y-65056031D01*
X91754833Y-65043941D01*
X91750490Y-65043921D01*
X91650575Y-65026085D01*
X91623531Y-64981666D01*
X91659610Y-64931596D01*
X91727289Y-64919411D01*
X91810739Y-64897764D01*
X91831047Y-64857156D01*
X91794968Y-64807086D01*
X91727289Y-64794901D01*
X91649291Y-64780694D01*
X91623531Y-64753398D01*
X91659596Y-64724257D01*
X91746492Y-64711898D01*
X91748041Y-64711895D01*
X91846890Y-64693334D01*
X91872550Y-64649640D01*
X91847493Y-64608119D01*
X91762729Y-64589578D01*
X91690626Y-64587385D01*
X91578925Y-64596149D01*
X91509853Y-64632845D01*
X91473416Y-64713083D01*
X91459620Y-64852472D01*
X91458084Y-64950539D01*
X91457518Y-65126928D01*
X91227269Y-65126928D01*
X91339336Y-65118766D01*
X91406970Y-65098092D01*
X91416014Y-65085424D01*
X91380497Y-65054225D01*
X91312256Y-65043921D01*
X91253127Y-65038100D01*
X91222163Y-65007178D01*
X91210311Y-64930969D01*
X91208498Y-64812610D01*
X91204905Y-64680115D01*
X91190193Y-64612803D01*
X91158466Y-64593015D01*
X91135867Y-64595135D01*
X91093713Y-64619662D01*
X91068325Y-64685234D01*
X91054118Y-64809780D01*
X91050880Y-64867949D01*
X91038524Y-65126928D01*
X90874492Y-65126928D01*
X90920227Y-65119093D01*
X90945830Y-65083372D01*
X90957011Y-65001437D01*
X90959478Y-64854960D01*
X90959478Y-64854113D01*
X90956779Y-64707314D01*
X90945547Y-64626677D01*
X90921084Y-64595444D01*
X90886848Y-64595135D01*
X90844693Y-64619662D01*
X90819306Y-64685234D01*
X90805099Y-64809780D01*
X90801861Y-64867949D01*
X90797486Y-65009746D01*
X90692507Y-65009746D01*
X90703951Y-64981255D01*
X90682916Y-64926528D01*
X90662789Y-64834446D01*
X90682825Y-64788115D01*
X90703144Y-64700333D01*
X90653107Y-64633710D01*
X90544547Y-64597791D01*
X90444276Y-64595706D01*
X90274675Y-64608137D01*
X90262318Y-64867532D01*
X90249962Y-65126928D01*
X89769303Y-65126928D01*
X89755884Y-65118896D01*
X89642409Y-65055859D01*
G37*
G36*
X90537422Y-64734306D02*
G01*
X90544446Y-64753398D01*
X90510830Y-64790219D01*
X90482191Y-64794901D01*
X90426960Y-64772491D01*
X90419936Y-64753398D01*
X90453552Y-64716577D01*
X90482191Y-64711895D01*
X90537422Y-64734306D01*
G37*
G36*
X90537527Y-64952687D02*
G01*
X90544446Y-64981666D01*
X90513496Y-65033872D01*
X90448053Y-65041111D01*
X90407230Y-65017381D01*
X90397578Y-64966598D01*
X90445066Y-64926308D01*
X90484640Y-64919411D01*
X90537527Y-64952687D01*
G37*
G36*
X83363933Y-64552592D02*
G01*
X83393764Y-64586527D01*
X83404284Y-64668395D01*
X83405248Y-64763774D01*
X83398454Y-64922626D01*
X83371759Y-65021424D01*
X83313977Y-65082662D01*
X83225948Y-65124331D01*
X83036330Y-65163116D01*
X82841011Y-65129451D01*
X82818032Y-65121382D01*
X82736875Y-65082484D01*
X82693218Y-65026794D01*
X82679542Y-64933293D01*
X82688329Y-64780959D01*
X82689990Y-64763381D01*
X82705440Y-64636621D01*
X82728745Y-64571969D01*
X82772825Y-64548682D01*
X82825453Y-64545882D01*
X82891956Y-64550627D01*
X82925209Y-64578769D01*
X82935632Y-64651167D01*
X82934307Y-64763774D01*
X82933820Y-64890651D01*
X82947205Y-64955404D01*
X82983762Y-64978789D01*
X83031964Y-64981666D01*
X83093857Y-64972867D01*
X83131125Y-64932954D01*
X83156615Y-64841653D01*
X83170015Y-64763774D01*
X83194670Y-64636039D01*
X83224236Y-64570779D01*
X83271242Y-64547812D01*
X83305291Y-64545882D01*
X83363933Y-64552592D01*
G37*
G36*
X87466938Y-63898892D02*
G01*
X87493956Y-63900295D01*
X87613394Y-63907870D01*
X87764852Y-63914884D01*
X87819738Y-63916849D01*
X87923339Y-63924629D01*
X88005562Y-63948287D01*
X88088325Y-64000052D01*
X88193546Y-64092154D01*
X88276274Y-64171568D01*
X88531537Y-64419803D01*
X88071058Y-64420588D01*
X87865434Y-64419380D01*
X87725951Y-64413201D01*
X87635777Y-64399467D01*
X87578082Y-64375594D01*
X87536033Y-64338999D01*
X87535459Y-64338366D01*
X87432152Y-64273405D01*
X87336059Y-64255359D01*
X87276876Y-64265037D01*
X87207068Y-64299550D01*
X87116006Y-64367119D01*
X86993059Y-64475964D01*
X86827599Y-64634306D01*
X86759118Y-64701519D01*
X86306457Y-65147679D01*
X85873000Y-65161833D01*
X85694725Y-65164382D01*
X85552031Y-65160194D01*
X85462078Y-65150165D01*
X85439544Y-65139229D01*
X85467792Y-65100133D01*
X85546585Y-65012500D01*
X85666997Y-64885700D01*
X85820100Y-64729103D01*
X85996968Y-64552078D01*
X86030965Y-64518446D01*
X86622387Y-63934420D01*
X86995916Y-63912323D01*
X87179807Y-63903370D01*
X87346020Y-63898671D01*
X87466938Y-63898892D01*
G37*
G36*
X75781118Y-63707631D02*
G01*
X75854226Y-63801654D01*
X75962461Y-63948686D01*
X76100157Y-64140839D01*
X76261647Y-64370223D01*
X76441266Y-64628950D01*
X76590938Y-64846973D01*
X77391842Y-66019248D01*
X77009084Y-66031277D01*
X76834864Y-66034558D01*
X76689885Y-66033239D01*
X76595816Y-66027700D01*
X76575173Y-66023677D01*
X76536624Y-65984625D01*
X76459986Y-65887711D01*
X76353442Y-65743982D01*
X76225178Y-65564488D01*
X76083378Y-65360277D01*
X76078826Y-65353630D01*
X75633632Y-64703212D01*
X74295000Y-66040000D01*
X73849298Y-66040000D01*
X73668214Y-66037275D01*
X73522525Y-66029896D01*
X73429186Y-66019058D01*
X73403596Y-66008594D01*
X73432031Y-65971557D01*
X73512184Y-65884275D01*
X73636329Y-65754438D01*
X73796741Y-65589734D01*
X73985692Y-65397853D01*
X74195457Y-65186486D01*
X74418310Y-64963321D01*
X74646525Y-64736048D01*
X74872375Y-64512356D01*
X75088134Y-64299936D01*
X75286076Y-64106475D01*
X75458475Y-63939665D01*
X75597605Y-63807195D01*
X75695740Y-63716753D01*
X75745153Y-63676031D01*
X75748804Y-63674505D01*
X75781118Y-63707631D01*
G37*
G36*
X77782133Y-64582256D02*
G01*
X77819186Y-64533917D01*
X77955383Y-64438380D01*
X78121086Y-64395705D01*
X78293013Y-64403797D01*
X78447886Y-64460557D01*
X78562424Y-64563889D01*
X78585085Y-64602918D01*
X78620395Y-64756198D01*
X78597920Y-64916976D01*
X78523690Y-65049470D01*
X78507043Y-65065989D01*
X78406784Y-65116506D01*
X78258888Y-65148022D01*
X78097197Y-65157400D01*
X77955551Y-65141500D01*
X77901060Y-65122204D01*
X77792074Y-65024429D01*
X77733487Y-64884332D01*
X77730924Y-64796014D01*
X77973601Y-64796014D01*
X78005209Y-64901278D01*
X78034175Y-64937198D01*
X78141022Y-64996929D01*
X78252421Y-64976346D01*
X78320220Y-64921084D01*
X78370274Y-64811885D01*
X78354077Y-64693841D01*
X78277711Y-64598827D01*
X78256205Y-64585633D01*
X78150269Y-64565348D01*
X78059166Y-64607409D01*
X77995932Y-64691178D01*
X77973601Y-64796014D01*
X77730924Y-64796014D01*
X77728955Y-64728183D01*
X77782133Y-64582256D01*
G37*
G36*
X82606946Y-62940148D02*
G01*
X82619863Y-62952178D01*
X82562474Y-62958727D01*
X82534315Y-62959129D01*
X82458807Y-62954802D01*
X82449909Y-62944028D01*
X82461684Y-62940148D01*
X82566946Y-62933694D01*
X82606946Y-62940148D01*
G37*
G36*
X79494367Y-64719943D02*
G01*
X79477658Y-64887802D01*
X79452420Y-64994986D01*
X79411845Y-65063811D01*
X79380435Y-65093472D01*
X79258986Y-65150417D01*
X79103033Y-65170976D01*
X78946213Y-65155613D01*
X78822163Y-65104794D01*
X78799021Y-65085424D01*
X78739242Y-64987582D01*
X78717636Y-64844029D01*
X78732751Y-64641684D01*
X78742653Y-64577009D01*
X78767503Y-64474117D01*
X78810403Y-64430217D01*
X78886664Y-64421372D01*
X78958859Y-64425915D01*
X78989343Y-64454466D01*
X78989451Y-64529407D01*
X78979754Y-64605194D01*
X78967921Y-64799599D01*
X78993084Y-64929975D01*
X79053779Y-64991574D01*
X79099685Y-64994736D01*
X79175228Y-64954265D01*
X79223514Y-64853349D01*
X79247786Y-64683507D01*
X79251420Y-64597761D01*
X79258240Y-64487070D01*
X79283498Y-64436204D01*
X79344832Y-64421989D01*
X79385643Y-64421372D01*
X79515730Y-64421372D01*
X79494367Y-64719943D01*
G37*
%TO.C,D6*%
X88700000Y-88400000D02*
X88700000Y-93400000D01*
X84400000Y-94500000D02*
X83300000Y-94500000D01*
X83300000Y-94500000D02*
X83300000Y-88400000D01*
%TD*%
M02*
