%TF.GenerationSoftware,KiCad,Pcbnew,(6.0.5)*%
%TF.CreationDate,2023-02-26T02:49:59+09:00*%
%TF.ProjectId,_____,0c08746c-f12e-46b6-9963-61645f706362,rev?*%
%TF.SameCoordinates,Original*%
%TF.FileFunction,Soldermask,Top*%
%TF.FilePolarity,Negative*%
%FSLAX46Y46*%
G04 Gerber Fmt 4.6, Leading zero omitted, Abs format (unit mm)*
G04 Created by KiCad (PCBNEW (6.0.5)) date 2023-02-26 02:49:59*
%MOMM*%
%LPD*%
G01*
G04 APERTURE LIST*
G04 Aperture macros list*
%AMRoundRect*
0 Rectangle with rounded corners*
0 $1 Rounding radius*
0 $2 $3 $4 $5 $6 $7 $8 $9 X,Y pos of 4 corners*
0 Add a 4 corners polygon primitive as box body*
4,1,4,$2,$3,$4,$5,$6,$7,$8,$9,$2,$3,0*
0 Add four circle primitives for the rounded corners*
1,1,$1+$1,$2,$3*
1,1,$1+$1,$4,$5*
1,1,$1+$1,$6,$7*
1,1,$1+$1,$8,$9*
0 Add four rect primitives between the rounded corners*
20,1,$1+$1,$2,$3,$4,$5,0*
20,1,$1+$1,$4,$5,$6,$7,0*
20,1,$1+$1,$6,$7,$8,$9,0*
20,1,$1+$1,$8,$9,$2,$3,0*%
G04 Aperture macros list end*
%ADD10C,1.600000*%
%ADD11O,1.600000X1.600000*%
%ADD12R,4.790000X2.000000*%
%ADD13C,3.200000*%
%ADD14RoundRect,0.250001X1.599999X-1.099999X1.599999X1.099999X-1.599999X1.099999X-1.599999X-1.099999X0*%
%ADD15O,3.700000X2.700000*%
G04 APERTURE END LIST*
D10*
%TO.C,R8*%
X216000000Y-97028000D03*
D11*
X226160000Y-97028000D03*
%TD*%
D10*
%TO.C,R7*%
X196088000Y-97155000D03*
D11*
X206248000Y-97155000D03*
%TD*%
D10*
%TO.C,R5*%
X155956000Y-97155000D03*
D11*
X166116000Y-97155000D03*
%TD*%
D12*
%TO.C,D22*%
X146000000Y-73300000D03*
X146000000Y-68500000D03*
%TD*%
%TO.C,D38*%
X196000000Y-78500000D03*
X196000000Y-83300000D03*
%TD*%
%TO.C,D31*%
X176000000Y-88500000D03*
X176000000Y-93300000D03*
%TD*%
%TO.C,D15*%
X116000000Y-68500000D03*
X116000000Y-73300000D03*
%TD*%
%TO.C,D1*%
X76000000Y-88500000D03*
X76000000Y-93300000D03*
%TD*%
%TO.C,D43*%
X216000000Y-88500000D03*
X216000000Y-93300000D03*
%TD*%
%TO.C,D30*%
X166000000Y-93300000D03*
X166000000Y-88500000D03*
%TD*%
%TO.C,D32*%
X176000000Y-78500000D03*
X176000000Y-83300000D03*
%TD*%
%TO.C,D5*%
X86000000Y-83300000D03*
X86000000Y-78500000D03*
%TD*%
%TO.C,D42*%
X206000000Y-93300000D03*
X206000000Y-88500000D03*
%TD*%
D13*
%TO.C,J1*%
X60316000Y-76780000D03*
X60316000Y-85780000D03*
D14*
X64516000Y-81280000D03*
D15*
X70016000Y-81280000D03*
%TD*%
D12*
%TO.C,D21*%
X136000000Y-68500000D03*
X136000000Y-73300000D03*
%TD*%
%TO.C,D16*%
X126000000Y-73300000D03*
X126000000Y-68500000D03*
%TD*%
%TO.C,D4*%
X86000000Y-73300000D03*
X86000000Y-68500000D03*
%TD*%
%TO.C,D26*%
X156000000Y-78500000D03*
X156000000Y-83300000D03*
%TD*%
%TO.C,D24*%
X146000000Y-93300000D03*
X146000000Y-88500000D03*
%TD*%
%TO.C,D3*%
X76000000Y-68500000D03*
X76000000Y-73300000D03*
%TD*%
%TO.C,D13*%
X116000000Y-88500000D03*
X116000000Y-93300000D03*
%TD*%
D10*
%TO.C,R6*%
X175895000Y-97155000D03*
D11*
X186055000Y-97155000D03*
%TD*%
D10*
%TO.C,R2*%
X96012000Y-97155000D03*
D11*
X106172000Y-97155000D03*
%TD*%
D12*
%TO.C,D12*%
X106000000Y-93300000D03*
X106000000Y-88500000D03*
%TD*%
D10*
%TO.C,R4*%
X135890000Y-97155000D03*
D11*
X146050000Y-97155000D03*
%TD*%
D12*
%TO.C,D40*%
X206000000Y-73300000D03*
X206000000Y-68500000D03*
%TD*%
%TO.C,D41*%
X206000000Y-83300000D03*
X206000000Y-78500000D03*
%TD*%
%TO.C,D44*%
X216000000Y-78500000D03*
X216000000Y-83300000D03*
%TD*%
%TO.C,D33*%
X176000000Y-68500000D03*
X176000000Y-73300000D03*
%TD*%
%TO.C,D36*%
X186000000Y-93300000D03*
X186000000Y-88500000D03*
%TD*%
%TO.C,D18*%
X126000000Y-93300000D03*
X126000000Y-88500000D03*
%TD*%
%TO.C,D17*%
X126000000Y-83300000D03*
X126000000Y-78500000D03*
%TD*%
%TO.C,D8*%
X96000000Y-78500000D03*
X96000000Y-83300000D03*
%TD*%
%TO.C,D9*%
X96000000Y-68500000D03*
X96000000Y-73300000D03*
%TD*%
%TO.C,D29*%
X166000000Y-83300000D03*
X166000000Y-78500000D03*
%TD*%
D10*
%TO.C,R1*%
X76000000Y-97155000D03*
D11*
X86160000Y-97155000D03*
%TD*%
D10*
%TO.C,R3*%
X115824000Y-97155000D03*
D11*
X125984000Y-97155000D03*
%TD*%
D12*
%TO.C,D39*%
X196000000Y-68500000D03*
X196000000Y-73300000D03*
%TD*%
%TO.C,D14*%
X116000000Y-78500000D03*
X116000000Y-83300000D03*
%TD*%
%TO.C,D25*%
X156000000Y-88500000D03*
X156000000Y-93300000D03*
%TD*%
%TO.C,D28*%
X166000000Y-73300000D03*
X166000000Y-68500000D03*
%TD*%
%TO.C,D23*%
X146000000Y-83300000D03*
X146000000Y-78500000D03*
%TD*%
%TO.C,D11*%
X106000000Y-83300000D03*
X106000000Y-78500000D03*
%TD*%
%TO.C,D35*%
X186000000Y-83300000D03*
X186000000Y-78500000D03*
%TD*%
%TO.C,D27*%
X156000000Y-68500000D03*
X156000000Y-73300000D03*
%TD*%
%TO.C,D34*%
X186000000Y-73300000D03*
X186000000Y-68500000D03*
%TD*%
%TO.C,D45*%
X216000000Y-68500000D03*
X216000000Y-73300000D03*
%TD*%
%TO.C,D7*%
X96000000Y-88500000D03*
X96000000Y-93300000D03*
%TD*%
%TO.C,D19*%
X136000000Y-88500000D03*
X136000000Y-93300000D03*
%TD*%
%TO.C,D46*%
X226000000Y-73300000D03*
X226000000Y-68500000D03*
%TD*%
%TO.C,D47*%
X226000000Y-83300000D03*
X226000000Y-78500000D03*
%TD*%
%TO.C,D10*%
X106000000Y-73300000D03*
X106000000Y-68500000D03*
%TD*%
%TO.C,D37*%
X196000000Y-88500000D03*
X196000000Y-93300000D03*
%TD*%
%TO.C,D20*%
X136000000Y-78500000D03*
X136000000Y-83300000D03*
%TD*%
%TO.C,D2*%
X76000000Y-78500000D03*
X76000000Y-83300000D03*
%TD*%
%TO.C,D48*%
X226000000Y-93300000D03*
X226000000Y-88500000D03*
%TD*%
%TO.C,D6*%
X86000000Y-93300000D03*
X86000000Y-88500000D03*
%TD*%
M02*
