%TF.GenerationSoftware,KiCad,Pcbnew,(6.0.2)*%
%TF.CreationDate,2022-08-09T18:47:36+09:00*%
%TF.ProjectId,dash,64617368-2e6b-4696-9361-645f70636258,rev?*%
%TF.SameCoordinates,Original*%
%TF.FileFunction,Copper,L1,Top*%
%TF.FilePolarity,Positive*%
%FSLAX46Y46*%
G04 Gerber Fmt 4.6, Leading zero omitted, Abs format (unit mm)*
G04 Created by KiCad (PCBNEW (6.0.2)) date 2022-08-09 18:47:36*
%MOMM*%
%LPD*%
G01*
G04 APERTURE LIST*
G04 Aperture macros list*
%AMRoundRect*
0 Rectangle with rounded corners*
0 $1 Rounding radius*
0 $2 $3 $4 $5 $6 $7 $8 $9 X,Y pos of 4 corners*
0 Add a 4 corners polygon primitive as box body*
4,1,4,$2,$3,$4,$5,$6,$7,$8,$9,$2,$3,0*
0 Add four circle primitives for the rounded corners*
1,1,$1+$1,$2,$3*
1,1,$1+$1,$4,$5*
1,1,$1+$1,$6,$7*
1,1,$1+$1,$8,$9*
0 Add four rect primitives between the rounded corners*
20,1,$1+$1,$2,$3,$4,$5,0*
20,1,$1+$1,$4,$5,$6,$7,0*
20,1,$1+$1,$6,$7,$8,$9,0*
20,1,$1+$1,$8,$9,$2,$3,0*%
G04 Aperture macros list end*
%TA.AperFunction,ComponentPad*%
%ADD10C,1.524000*%
%TD*%
%TA.AperFunction,ComponentPad*%
%ADD11C,1.400000*%
%TD*%
%TA.AperFunction,ComponentPad*%
%ADD12O,1.400000X1.400000*%
%TD*%
%TA.AperFunction,ComponentPad*%
%ADD13R,1.050000X1.500000*%
%TD*%
%TA.AperFunction,ComponentPad*%
%ADD14O,1.050000X1.500000*%
%TD*%
%TA.AperFunction,SMDPad,CuDef*%
%ADD15R,2.057400X4.241800*%
%TD*%
%TA.AperFunction,SMDPad,CuDef*%
%ADD16R,2.260600X1.244600*%
%TD*%
%TA.AperFunction,SMDPad,CuDef*%
%ADD17RoundRect,5.000000X-5.000000X-5.000000X5.000000X-5.000000X5.000000X5.000000X-5.000000X5.000000X0*%
%TD*%
%TA.AperFunction,SMDPad,CuDef*%
%ADD18R,4.241800X2.057400*%
%TD*%
%TA.AperFunction,SMDPad,CuDef*%
%ADD19R,1.244600X2.260600*%
%TD*%
%TA.AperFunction,ComponentPad*%
%ADD20C,4.000000*%
%TD*%
%TA.AperFunction,ComponentPad*%
%ADD21R,1.500000X1.050000*%
%TD*%
%TA.AperFunction,ComponentPad*%
%ADD22O,1.500000X1.050000*%
%TD*%
%TA.AperFunction,ViaPad*%
%ADD23C,3.100000*%
%TD*%
%TA.AperFunction,ViaPad*%
%ADD24C,0.800000*%
%TD*%
%TA.AperFunction,Conductor*%
%ADD25C,0.250000*%
%TD*%
%TA.AperFunction,Conductor*%
%ADD26C,0.200000*%
%TD*%
G04 APERTURE END LIST*
D10*
%TO.P,U4,1*%
%TO.N,CAN1_TX*%
X196728000Y-135180000D03*
%TO.N,CAN_H*%
X201808000Y-135180000D03*
%TO.N,GND*%
X194188000Y-135180000D03*
%TO.N,CAN1_RX*%
X199268000Y-135180000D03*
%TO.N,CAN_L*%
X204348000Y-135180000D03*
%TO.N,3V3*%
X191648000Y-135180000D03*
%TD*%
D11*
%TO.P,R4,1*%
%TO.N,BMS-*%
X174610000Y-186170000D03*
D12*
%TO.P,R4,2*%
%TO.N,GND*%
X182230000Y-186170000D03*
%TD*%
D11*
%TO.P,R10,1*%
%TO.N,HVD_IN*%
X172980000Y-109050000D03*
D12*
%TO.P,R10,2*%
%TO.N,Net-(Q5-Pad2)*%
X180600000Y-109050000D03*
%TD*%
D13*
%TO.P,Q6,1,E*%
%TO.N,LV*%
X178840000Y-133870000D03*
D14*
%TO.P,Q6,2,B*%
%TO.N,RTD_ACTIVE_Pin*%
X180110000Y-133870000D03*
%TO.P,Q6,3,C*%
%TO.N,APPS*%
X181380000Y-133870000D03*
%TD*%
D11*
%TO.P,R5,1*%
%TO.N,BSPD-*%
X174610000Y-188550000D03*
D12*
%TO.P,R5,2*%
%TO.N,GND*%
X182230000Y-188550000D03*
%TD*%
D10*
%TO.P,U9,1*%
%TO.N,GND*%
X230820000Y-102862000D03*
%TO.N,3V3*%
X223200000Y-102862000D03*
%TO.N,GPS_RX*%
X225740000Y-102862000D03*
%TO.N,GPS_TX*%
X228280000Y-102862000D03*
%TD*%
D11*
%TO.P,R11,1*%
%TO.N,BRAKE_DIN*%
X172980000Y-111390000D03*
D12*
%TO.P,R11,2*%
%TO.N,Net-(Q7-Pad2)*%
X180600000Y-111390000D03*
%TD*%
D15*
%TO.P,J3,*%
%TO.N,*%
X155719850Y-131280000D03*
X155711850Y-102913200D03*
D16*
%TO.P,J3,1,Pin_1*%
%TO.N,3V3*%
X161299850Y-105680000D03*
%TO.P,J3,2,Pin_2*%
%TO.N,RTD_OUT*%
X161299850Y-107680000D03*
%TO.P,J3,3,Pin_3*%
%TO.N,HV_AUX1+*%
X161299850Y-109680000D03*
%TO.P,J3,4,Pin_4*%
%TO.N,HV_AUX1-*%
X161299850Y-111680000D03*
%TO.P,J3,5,Pin_5*%
%TO.N,GND*%
X161299850Y-113680000D03*
%TO.P,J3,6,Pin_6*%
%TO.N,5V*%
X161299850Y-115680000D03*
%TO.P,J3,7,Pin_7*%
%TO.N,LCD_SDA*%
X161299850Y-117680000D03*
%TO.P,J3,8,Pin_8*%
%TO.N,LCD_SCL*%
X161299850Y-119680000D03*
%TO.P,J3,9,Pin_9*%
%TO.N,ROUT+*%
X161299850Y-121680000D03*
%TO.P,J3,10,Pin_10*%
%TO.N,ROUT-*%
X161299850Y-123680000D03*
%TO.P,J3,11,Pin_11*%
%TO.N,LOUT+*%
X161299850Y-125680000D03*
%TO.P,J3,12,Pin_12*%
%TO.N,LOUT-*%
X161299850Y-127680000D03*
%TD*%
D17*
%TO.P,REF\u002A\u002A,1*%
%TO.N,N/C*%
X230390000Y-148640000D03*
%TD*%
D11*
%TO.P,R1,1*%
%TO.N,GND*%
X119820000Y-138960000D03*
D12*
%TO.P,R1,2*%
%TO.N,-*%
X119820000Y-131340000D03*
%TD*%
D11*
%TO.P,R3,1*%
%TO.N,IMD-*%
X174630000Y-181510000D03*
D12*
%TO.P,R3,2*%
%TO.N,GND*%
X182250000Y-181510000D03*
%TD*%
D18*
%TO.P,J4,*%
%TO.N,*%
X151370000Y-184094750D03*
X134170000Y-184094750D03*
D19*
%TO.P,J4,1,Pin_1*%
%TO.N,CAN_H*%
X137770000Y-178514750D03*
%TO.P,J4,2,Pin_2*%
%TO.N,CAN_L*%
X139770000Y-178514750D03*
%TO.P,J4,3,Pin_3*%
%TO.N,CAN_H*%
X141770000Y-178514750D03*
%TO.P,J4,4,Pin_4*%
%TO.N,CAN_L*%
X143770000Y-178514750D03*
%TO.P,J4,5,Pin_5*%
%TO.N,CAN_H*%
X145770000Y-178514750D03*
%TO.P,J4,6,Pin_6*%
%TO.N,CAN_L*%
X147770000Y-178514750D03*
%TD*%
D10*
%TO.P,U5,1*%
%TO.N,LCD_SCL*%
X168050000Y-179040000D03*
%TO.N,5V*%
X162970000Y-179040000D03*
%TO.N,N/C*%
X157890000Y-189200000D03*
X160430000Y-189200000D03*
X160430000Y-179040000D03*
%TO.N,GND*%
X165510000Y-179040000D03*
%TO.N,N/C*%
X157890000Y-179040000D03*
%TO.N,I2C2_SCL*%
X168050000Y-189200000D03*
%TO.N,3V3*%
X162970000Y-189200000D03*
%TO.N,LCD_SDA*%
X170590000Y-179040000D03*
%TO.N,I2C2_SDA*%
X170590000Y-189200000D03*
%TO.N,GND*%
X165510000Y-189200000D03*
%TD*%
%TO.P,U3,1,VOUT+*%
%TO.N,5V*%
X156210000Y-140870000D03*
%TO.P,U3,2,VOUT+*%
X156210000Y-143410000D03*
%TO.P,U3,3,VOUT-*%
%TO.N,GND*%
X156210000Y-151230000D03*
%TO.P,U3,4,VOUT-*%
X156210000Y-153770000D03*
%TO.P,U3,5,VIN-*%
X173810000Y-153770000D03*
%TO.P,U3,6,VIN-*%
X173810000Y-151230000D03*
%TO.P,U3,7,VIN+*%
%TO.N,LV*%
X173810000Y-143410000D03*
%TO.P,U3,8,VIN+*%
X173810000Y-140870000D03*
%TD*%
%TO.P,ESP_PROGRAM,*%
%TO.N,*%
X105174600Y-179124600D03*
X100094600Y-179124600D03*
%TO.P,ESP_PROGRAM,1,A*%
%TO.N,GND*%
X105174600Y-186744600D03*
%TO.P,ESP_PROGRAM,2,B*%
%TO.N,Net-(SW2-Pad2)*%
X100094600Y-186744600D03*
%TD*%
D11*
%TO.P,R6,1*%
%TO.N,HVD-*%
X174620000Y-183870000D03*
D12*
%TO.P,R6,2*%
%TO.N,GND*%
X182240000Y-183870000D03*
%TD*%
D20*
%TO.P,REF\u002A\u002A,1*%
%TO.N,N/C*%
X27266200Y-102450200D03*
%TO.P,REF\u002A\u002A,2*%
X93266200Y-102450200D03*
%TO.P,REF\u002A\u002A,3*%
X27266200Y-181450200D03*
%TO.P,REF\u002A\u002A,4*%
X93266200Y-181450200D03*
%TD*%
D11*
%TO.P,R12,1*%
%TO.N,LV_ACTIVE*%
X173000000Y-113680000D03*
D12*
%TO.P,R12,2*%
%TO.N,Net-(Q8-Pad2)*%
X180620000Y-113680000D03*
%TD*%
D15*
%TO.P,J6,*%
%TO.N,*%
X110669850Y-166670000D03*
X110669850Y-137470000D03*
D16*
%TO.P,J6,1,Pin_1*%
%TO.N,BSPD_Pin*%
X116249850Y-141070000D03*
%TO.P,J6,2,Pin_2*%
%TO.N,BMS_Pin*%
X116249850Y-143070000D03*
%TO.P,J6,3,Pin_3*%
%TO.N,IMD_Pin*%
X116249850Y-145070000D03*
%TO.P,J6,4,Pin_4*%
%TO.N,GPS_RX*%
X116249850Y-147070000D03*
%TO.P,J6,5,Pin_5*%
%TO.N,GPS_TX*%
X116249850Y-149070000D03*
%TO.P,J6,6,Pin_6*%
%TO.N,I2C2_SDA*%
X116249850Y-151070000D03*
%TO.P,J6,7,Pin_7*%
%TO.N,I2C2_SCL*%
X116249850Y-153070000D03*
%TO.P,J6,8,Pin_8*%
%TO.N,5V*%
X116249850Y-155070000D03*
%TO.P,J6,9,Pin_9*%
%TO.N,GND*%
X116249850Y-157070000D03*
%TO.P,J6,10,Pin_10*%
%TO.N,2*%
X116249850Y-159070000D03*
%TO.P,J6,11,Pin_11*%
%TO.N,3*%
X116249850Y-161070000D03*
%TO.P,J6,12,Pin_12*%
%TO.N,4*%
X116249850Y-163070000D03*
%TD*%
D21*
%TO.P,Q3,1,E*%
%TO.N,3V3*%
X124050000Y-131550000D03*
D22*
%TO.P,Q3,2,B*%
%TO.N,RTD_ACTIVE_Pin*%
X124050000Y-132820000D03*
%TO.P,Q3,3,C*%
%TO.N,IN*%
X124050000Y-134090000D03*
%TD*%
D15*
%TO.P,J1,*%
%TO.N,*%
X134309850Y-131620000D03*
X134309850Y-102420000D03*
D16*
%TO.P,J1,1,Pin_1*%
%TO.N,GND*%
X139889850Y-106020000D03*
%TO.P,J1,2,Pin_2*%
%TO.N,LV*%
X139889850Y-108020000D03*
%TO.P,J1,3,Pin_3*%
%TO.N,CRITICAL_LED*%
X139889850Y-110020000D03*
%TO.P,J1,4,Pin_4*%
%TO.N,IMD_IN*%
X139889850Y-112020000D03*
%TO.P,J1,5,Pin_5*%
%TO.N,BMS_IN*%
X139889850Y-114020000D03*
%TO.P,J1,6,Pin_6*%
%TO.N,BSPD_IN*%
X139889850Y-116020000D03*
%TO.P,J1,7,Pin_7*%
%TO.N,HVD_IN*%
X139889850Y-118020000D03*
%TO.P,J1,8,Pin_8*%
%TO.N,BRAKE_DIN*%
X139889850Y-120020000D03*
%TO.P,J1,9,Pin_9*%
%TO.N,LV_ACTIVE*%
X139889850Y-122020000D03*
%TO.P,J1,10,Pin_10*%
%TO.N,HV_AUX1+*%
X139889850Y-124020000D03*
%TO.P,J1,11,Pin_11*%
%TO.N,HV_AUX1-*%
X139889850Y-126020000D03*
%TO.P,J1,12,Pin_12*%
%TO.N,APPS*%
X139889850Y-128020000D03*
%TD*%
D11*
%TO.P,R8,1*%
%TO.N,BMS_IN*%
X172980000Y-104400000D03*
D12*
%TO.P,R8,2*%
%TO.N,Net-(Q2-Pad2)*%
X180600000Y-104400000D03*
%TD*%
D10*
%TO.P,U10,1*%
%TO.N,GND*%
X186749200Y-181431600D03*
%TO.N,RIN*%
X209609200Y-176351600D03*
%TO.N,ROUT-*%
X209609200Y-148411600D03*
%TO.N,LOUT+*%
X186749200Y-153491600D03*
%TO.N,LV*%
X186749200Y-186511600D03*
%TO.N,LOUT-*%
X186749200Y-148411600D03*
%TO.N,LIN*%
X209609200Y-186511600D03*
%TO.N,ROUT+*%
X209609200Y-153491600D03*
%TO.N,GND*%
X209609200Y-181431600D03*
%TD*%
D15*
%TO.P,J5,*%
%TO.N,*%
X110529850Y-102290000D03*
X110529850Y-131490000D03*
D16*
%TO.P,J5,1,Pin_1*%
%TO.N,BOOT0*%
X116109850Y-105890000D03*
%TO.P,J5,2,Pin_2*%
%TO.N,CAN1_RX*%
X116109850Y-107890000D03*
%TO.P,J5,3,Pin_3*%
%TO.N,CAN1_TX*%
X116109850Y-109890000D03*
%TO.P,J5,4,Pin_4*%
%TO.N,RTDS*%
X116109850Y-111890000D03*
%TO.P,J5,5,Pin_5*%
%TO.N,RTD_ACTIVE_Pin*%
X116109850Y-113890000D03*
%TO.P,J5,6,Pin_6*%
%TO.N,BRAKE_Pin*%
X116109850Y-115890000D03*
%TO.P,J5,7,Pin_7*%
%TO.N,RTD_OUT*%
X116109850Y-117890000D03*
%TO.P,J5,8,Pin_8*%
%TO.N,LV_ACTIVE_Pin*%
X116109850Y-119890000D03*
%TO.P,J5,9,Pin_9*%
%TO.N,ESP_RX*%
X116109850Y-121890000D03*
%TO.P,J5,10,Pin_10*%
%TO.N,ESP_TX*%
X116109850Y-123890000D03*
%TO.P,J5,11,Pin_11*%
%TO.N,HVD_Pin*%
X116109850Y-125890000D03*
%TO.P,J5,12,Pin_12*%
%TO.N,1*%
X116109850Y-127890000D03*
%TD*%
D10*
%TO.P,U8,1*%
%TO.N,N/C*%
X205743000Y-106170800D03*
%TO.N,RTDS*%
X187963000Y-106170800D03*
%TO.N,N/C*%
X205743000Y-116330800D03*
%TO.N,3V3*%
X205743000Y-118870800D03*
%TO.N,N/C*%
X187963000Y-108710800D03*
X187963000Y-101090800D03*
X187963000Y-113790800D03*
X205743000Y-113790800D03*
X187963000Y-118870800D03*
X205743000Y-101090800D03*
X187963000Y-111250800D03*
%TO.N,GND*%
X205743000Y-103630800D03*
%TO.N,N/C*%
X187963000Y-116330800D03*
%TO.N,RIN*%
X205743000Y-111250800D03*
%TO.N,GND*%
X187963000Y-103630800D03*
%TO.N,LIN*%
X205743000Y-108710800D03*
%TD*%
D13*
%TO.P,Q2,1,E*%
%TO.N,3V3*%
X178780000Y-118040000D03*
D14*
%TO.P,Q2,2,B*%
%TO.N,Net-(Q2-Pad2)*%
X180050000Y-118040000D03*
%TO.P,Q2,3,C*%
%TO.N,BMS_Pin*%
X181320000Y-118040000D03*
%TD*%
D10*
%TO.P,BOOT0,*%
%TO.N,*%
X117789200Y-190579200D03*
X117789200Y-185499200D03*
%TO.P,BOOT0,1,A*%
%TO.N,3V3*%
X110169200Y-190579200D03*
%TO.P,BOOT0,2,B*%
%TO.N,BOOT0*%
X110169200Y-185499200D03*
%TD*%
D13*
%TO.P,Q1,1,E*%
%TO.N,3V3*%
X172760000Y-118040000D03*
D14*
%TO.P,Q1,2,B*%
%TO.N,Net-(Q1-Pad2)*%
X174030000Y-118040000D03*
%TO.P,Q1,3,C*%
%TO.N,IMD_Pin*%
X175300000Y-118040000D03*
%TD*%
D13*
%TO.P,Q7,1,E*%
%TO.N,3V3*%
X172710000Y-129020000D03*
D14*
%TO.P,Q7,2,B*%
%TO.N,Net-(Q7-Pad2)*%
X173980000Y-129020000D03*
%TO.P,Q7,3,C*%
%TO.N,BRAKE_Pin*%
X175250000Y-129020000D03*
%TD*%
D13*
%TO.P,Q4,1,E*%
%TO.N,3V3*%
X172760000Y-123550000D03*
D14*
%TO.P,Q4,2,B*%
%TO.N,Net-(Q4-Pad2)*%
X174030000Y-123550000D03*
%TO.P,Q4,3,C*%
%TO.N,BSPD_Pin*%
X175300000Y-123550000D03*
%TD*%
D10*
%TO.P,ESP_RST,*%
%TO.N,*%
X100104600Y-169180000D03*
X105184600Y-169180000D03*
%TO.P,ESP_RST,1,A*%
%TO.N,Net-(SW1-Pad1)*%
X105184600Y-176800000D03*
%TO.P,ESP_RST,2,B*%
%TO.N,GND*%
X100104600Y-176800000D03*
%TD*%
%TO.P,U2,1*%
%TO.N,3V3*%
X108509600Y-175164000D03*
%TO.N,N/C*%
X111049600Y-175164000D03*
%TO.N,ESP_TX*%
X108509600Y-172624000D03*
%TO.N,Net-(SW1-Pad1)*%
X108509600Y-177704000D03*
%TO.N,Net-(SW2-Pad2)*%
X111049600Y-177704000D03*
%TO.N,GND*%
X111049600Y-172624000D03*
%TO.N,ESP_RX*%
X111049600Y-180244000D03*
%TO.N,3V3*%
X108509600Y-180244000D03*
%TD*%
D15*
%TO.P,J2,*%
%TO.N,*%
X134469850Y-166310000D03*
X134469850Y-137110000D03*
D16*
%TO.P,J2,1,Pin_1*%
%TO.N,CRITICAL_LED*%
X140049850Y-140710000D03*
%TO.P,J2,2,Pin_2*%
%TO.N,CR-*%
X140049850Y-142710000D03*
%TO.P,J2,3,Pin_3*%
%TO.N,IMD_IN*%
X140049850Y-144710000D03*
%TO.P,J2,4,Pin_4*%
%TO.N,IMD-*%
X140049850Y-146710000D03*
%TO.P,J2,5,Pin_5*%
%TO.N,BMS_IN*%
X140049850Y-148710000D03*
%TO.P,J2,6,Pin_6*%
%TO.N,BMS-*%
X140049850Y-150710000D03*
%TO.P,J2,7,Pin_7*%
%TO.N,BSPD_IN*%
X140049850Y-152710000D03*
%TO.P,J2,8,Pin_8*%
%TO.N,BSPD-*%
X140049850Y-154710000D03*
%TO.P,J2,9,Pin_9*%
%TO.N,HVD_IN*%
X140049850Y-156710000D03*
%TO.P,J2,10,Pin_10*%
%TO.N,HVD-*%
X140049850Y-158710000D03*
%TO.P,J2,11,Pin_11*%
%TO.N,IN*%
X140049850Y-160710000D03*
%TO.P,J2,12,Pin_12*%
%TO.N,-*%
X140049850Y-162710000D03*
%TD*%
D10*
%TO.P,U6,1,VOUT+*%
%TO.N,3V3*%
X156270000Y-158940000D03*
%TO.P,U6,2,VOUT+*%
X156270000Y-161480000D03*
%TO.P,U6,3,VOUT-*%
%TO.N,GND*%
X156270000Y-169300000D03*
%TO.P,U6,4,VOUT-*%
X156270000Y-171840000D03*
%TO.P,U6,5,VIN-*%
X173870000Y-171840000D03*
%TO.P,U6,6,VIN-*%
X173870000Y-169300000D03*
%TO.P,U6,7,VIN+*%
%TO.N,LV*%
X173870000Y-161480000D03*
%TO.P,U6,8,VIN+*%
X173870000Y-158940000D03*
%TD*%
D18*
%TO.P,REF\u002A\u002A,*%
%TO.N,*%
X221714800Y-169448400D03*
X234914800Y-169448400D03*
D19*
%TO.P,REF\u002A\u002A,1*%
%TO.N,1*%
X225314800Y-163868400D03*
%TO.P,REF\u002A\u002A,2*%
%TO.N,2*%
X227314800Y-163868400D03*
%TO.P,REF\u002A\u002A,3*%
%TO.N,3*%
X229314800Y-163868400D03*
%TO.P,REF\u002A\u002A,4*%
%TO.N,4*%
X231314800Y-163868400D03*
%TD*%
D11*
%TO.P,R2,1*%
%TO.N,CR-*%
X174570000Y-179110000D03*
D12*
%TO.P,R2,2*%
%TO.N,GND*%
X182190000Y-179110000D03*
%TD*%
D11*
%TO.P,R9,1*%
%TO.N,BSPD_IN*%
X172980000Y-106720000D03*
D12*
%TO.P,R9,2*%
%TO.N,Net-(Q4-Pad2)*%
X180600000Y-106720000D03*
%TD*%
D13*
%TO.P,Q8,1,E*%
%TO.N,3V3*%
X178810000Y-129000000D03*
D14*
%TO.P,Q8,2,B*%
%TO.N,Net-(Q8-Pad2)*%
X180080000Y-129000000D03*
%TO.P,Q8,3,C*%
%TO.N,LV_ACTIVE_Pin*%
X181350000Y-129000000D03*
%TD*%
D11*
%TO.P,R7,1*%
%TO.N,IMD_IN*%
X173000000Y-102090000D03*
D12*
%TO.P,R7,2*%
%TO.N,Net-(Q1-Pad2)*%
X180620000Y-102090000D03*
%TD*%
D13*
%TO.P,Q5,1,E*%
%TO.N,3V3*%
X178800000Y-123570000D03*
D14*
%TO.P,Q5,2,B*%
%TO.N,Net-(Q5-Pad2)*%
X180070000Y-123570000D03*
%TO.P,Q5,3,C*%
%TO.N,HVD_Pin*%
X181340000Y-123570000D03*
%TD*%
D23*
%TO.N,*%
X238000000Y-97740000D03*
X21000000Y-97740000D03*
X21000000Y-188280000D03*
X238000000Y-188280000D03*
D24*
%TO.N,GND*%
X176560000Y-133590000D03*
X104630000Y-171430000D03*
X175330000Y-136440000D03*
X113610000Y-170400000D03*
X100104600Y-173465400D03*
X117704661Y-168584661D03*
X187660000Y-136880000D03*
%TO.N,BRAKE_DIN*%
X142390000Y-120020000D03*
%TO.N,HVD_IN*%
X126200000Y-124920000D03*
X135810000Y-119760000D03*
X126200000Y-133240000D03*
X142400000Y-118010000D03*
%TO.N,BSPD_IN*%
X142360000Y-116040000D03*
X138000000Y-115280000D03*
X127560000Y-133980000D03*
%TO.N,BMS_IN*%
X142300000Y-114030000D03*
X132254511Y-128054511D03*
X137760000Y-114230000D03*
%TO.N,IMD_IN*%
X136010000Y-131270000D03*
X142310000Y-112020000D03*
%TO.N,LV_ACTIVE*%
X142450000Y-122030000D03*
%TO.N,3V3*%
X198710000Y-122350000D03*
X131530000Y-136570000D03*
X115610000Y-186395386D03*
X150897444Y-163787444D03*
X193775000Y-127315000D03*
%TO.N,IMD_Pin*%
X114490000Y-145160000D03*
%TO.N,BMS_Pin*%
X114550000Y-143060000D03*
%TO.N,RTD_ACTIVE_Pin*%
X112190000Y-114910000D03*
X113880000Y-113940000D03*
%TO.N,BSPD_Pin*%
X114700000Y-141090000D03*
%TO.N,HVD_Pin*%
X115450000Y-130290000D03*
%TO.N,APPS*%
X176870000Y-143450000D03*
%TO.N,LV*%
X174710000Y-174220000D03*
%TO.N,BRAKE_Pin*%
X165540000Y-136640000D03*
X128768472Y-122280000D03*
X113780000Y-117830000D03*
%TO.N,5V*%
X157100000Y-123460000D03*
X116800000Y-155060000D03*
X156390000Y-135800000D03*
X151920000Y-129300000D03*
X161900000Y-161390000D03*
%TO.N,I2C2_SDA*%
X114560000Y-151070000D03*
X163930000Y-187660000D03*
X121580000Y-157740000D03*
%TO.N,ESP_TX*%
X105090000Y-149410000D03*
X114140000Y-121790000D03*
X116820000Y-123650000D03*
X105850000Y-173480000D03*
%TO.N,GPS_TX*%
X191310000Y-145640000D03*
X114670000Y-149660000D03*
X177960000Y-144840000D03*
X188460000Y-146620000D03*
X182230000Y-136430000D03*
X149480000Y-180860000D03*
X113870000Y-181470000D03*
X112970000Y-162380000D03*
X200000000Y-142230000D03*
%TO.N,GPS_RX*%
X114530000Y-148240000D03*
X105980000Y-181890000D03*
X113010000Y-146890000D03*
X109650000Y-146420000D03*
%TO.N,CAN1_RX*%
X121720000Y-102470000D03*
X192000000Y-127090000D03*
%TO.N,CAN1_TX*%
X179900000Y-100130000D03*
X185107311Y-102177311D03*
X196728000Y-101888000D03*
%TO.N,RTDS*%
X114050000Y-111890000D03*
X208650000Y-135400000D03*
%TO.N,BOOT0*%
X115490000Y-105960000D03*
%TO.N,Net-(SW2-Pad2)*%
X110700000Y-183260000D03*
X106548089Y-185658089D03*
%TO.N,CAN_H*%
X191190000Y-138090000D03*
X168060000Y-167290000D03*
X170380000Y-165110000D03*
X180120000Y-150400000D03*
%TO.N,CAN_L*%
X164750000Y-175080000D03*
X173400000Y-175670000D03*
X170320000Y-176520000D03*
X192010000Y-140020000D03*
%TO.N,HV_AUX1+*%
X144010000Y-112770000D03*
X149220000Y-112770000D03*
%TO.N,HV_AUX1-*%
X164020000Y-114430000D03*
X145870000Y-115150000D03*
%TO.N,ROUT+*%
X159230000Y-104040000D03*
X158910000Y-117060000D03*
X159230000Y-101330000D03*
X163360000Y-110430000D03*
X165820000Y-114980000D03*
%TO.N,ROUT-*%
X169210000Y-147320000D03*
X158680000Y-125660000D03*
X157580000Y-129200000D03*
X179090000Y-147600000D03*
X164380000Y-135760000D03*
X178710000Y-149360000D03*
X180840000Y-153270000D03*
%TO.N,LOUT+*%
X182580000Y-145640000D03*
X180010000Y-146880000D03*
%TO.N,LOUT-*%
X180490000Y-136930000D03*
X172830000Y-134920000D03*
X171790000Y-131470000D03*
X167600000Y-133220000D03*
%TO.N,CRITICAL_LED*%
X137000000Y-131930000D03*
X137000000Y-128460000D03*
%TO.N,CR-*%
X148140000Y-169010000D03*
%TO.N,IMD-*%
X146990000Y-168980000D03*
%TO.N,BMS-*%
X149410000Y-153820000D03*
X145290000Y-170870000D03*
X142110000Y-150810000D03*
%TO.N,BSPD-*%
X141170000Y-173670000D03*
X132060000Y-155300000D03*
X137990000Y-153890000D03*
%TO.N,HVD-*%
X146180000Y-170000000D03*
%TO.N,-*%
X124285000Y-156865000D03*
%TO.N,LCD_SDA*%
X172100000Y-139150000D03*
%TO.N,LCD_SCL*%
X163370000Y-120820000D03*
X167890000Y-117740000D03*
%TO.N,1*%
X112010000Y-124730000D03*
X116550000Y-129440000D03*
%TO.N,2*%
X151144520Y-159384520D03*
X210790000Y-189350000D03*
X159485000Y-162525000D03*
X176090000Y-169580000D03*
X171170000Y-166640000D03*
X116890000Y-159100000D03*
%TO.N,3*%
X110430000Y-170280000D03*
X214740000Y-134460000D03*
X116850000Y-161140000D03*
X116195489Y-165954511D03*
X185820000Y-97720000D03*
X115970000Y-168950000D03*
X211960000Y-135340000D03*
X113840000Y-169060000D03*
%TO.N,4*%
X179120000Y-168790000D03*
X198470000Y-140010000D03*
X164190000Y-168610000D03*
X118830000Y-163050000D03*
X196480000Y-141640000D03*
X116920000Y-163030000D03*
X120650000Y-165260000D03*
X215090000Y-128430000D03*
X146180000Y-174230000D03*
X171015489Y-174945489D03*
X151310000Y-179360000D03*
X126760000Y-164770000D03*
%TD*%
D25*
%TO.N,GND*%
X174122067Y-137647933D02*
X174122067Y-137777933D01*
X161299850Y-113680000D02*
X162110000Y-113680000D01*
X186704408Y-136880000D02*
X183410000Y-133585592D01*
X178010000Y-135040000D02*
X176560000Y-133590000D01*
X117704661Y-139034661D02*
X117704661Y-157084661D01*
X182230000Y-188550000D02*
X182230000Y-186170000D01*
X161299850Y-113680000D02*
X147951472Y-113680000D01*
X139889850Y-106020000D02*
X139488228Y-106020000D01*
X182250000Y-181510000D02*
X182250000Y-179170000D01*
X172710000Y-171840000D02*
X173870000Y-171840000D01*
X113273600Y-170400000D02*
X113610000Y-170400000D01*
X173870000Y-169300000D02*
X173870000Y-171840000D01*
X181184511Y-144840377D02*
X181184511Y-147340377D01*
X147951472Y-113680000D02*
X140291472Y-106020000D01*
X174122067Y-137777933D02*
X181184511Y-144840377D01*
X187963000Y-103630800D02*
X183410000Y-108183800D01*
X182230000Y-186170000D02*
X182230000Y-183880000D01*
X139488228Y-106020000D02*
X117704661Y-127803567D01*
X156270000Y-169300000D02*
X156270000Y-171840000D01*
X173870000Y-169300000D02*
X172310000Y-169300000D01*
X164290000Y-161280000D02*
X156270000Y-169300000D01*
X183410000Y-133585592D02*
X181955592Y-135040000D01*
X170500000Y-122070000D02*
X170500000Y-134155866D01*
X117704661Y-127803567D02*
X117704661Y-139034661D01*
X156210000Y-151230000D02*
X156210000Y-153770000D01*
X175330000Y-136440000D02*
X174122067Y-137647933D01*
X183410000Y-108183800D02*
X183410000Y-133585592D01*
X164290000Y-153770000D02*
X156210000Y-153770000D01*
X181184511Y-147340377D02*
X180060000Y-148464888D01*
X205743000Y-103630800D02*
X187963000Y-103630800D01*
X182250000Y-179170000D02*
X182190000Y-179110000D01*
X173810000Y-153770000D02*
X164290000Y-153770000D01*
X111049600Y-172624000D02*
X113273600Y-170400000D01*
X116249850Y-157070000D02*
X117690000Y-157070000D01*
X102140000Y-171430000D02*
X104630000Y-171430000D01*
X164290000Y-153770000D02*
X164290000Y-161280000D01*
X181955592Y-135040000D02*
X178010000Y-135040000D01*
X165510000Y-179040000D02*
X172710000Y-171840000D01*
X117704661Y-157084661D02*
X117704661Y-168584661D01*
X140291472Y-106020000D02*
X139889850Y-106020000D01*
X119820000Y-138960000D02*
X117779322Y-138960000D01*
X165510000Y-179040000D02*
X165510000Y-189200000D01*
X170500000Y-134155866D02*
X174122067Y-137777933D01*
X176575112Y-148464888D02*
X173810000Y-151230000D01*
X162110000Y-113680000D02*
X170500000Y-122070000D01*
X100104600Y-173465400D02*
X102140000Y-171430000D01*
X182230000Y-183880000D02*
X182240000Y-183870000D01*
X117690000Y-157070000D02*
X117704661Y-157084661D01*
X182240000Y-183870000D02*
X182240000Y-181520000D01*
X180060000Y-148464888D02*
X176575112Y-148464888D01*
X182240000Y-181520000D02*
X182250000Y-181510000D01*
X187660000Y-136880000D02*
X186704408Y-136880000D01*
X117779322Y-138960000D02*
X117704661Y-139034661D01*
X172310000Y-169300000D02*
X164290000Y-161280000D01*
X173810000Y-151230000D02*
X173810000Y-153770000D01*
%TO.N,BRAKE_DIN*%
X142390000Y-120020000D02*
X139889850Y-120020000D01*
%TO.N,HVD_IN*%
X126200000Y-124920000D02*
X126200000Y-123823858D01*
X126200000Y-123823858D02*
X130713858Y-119310000D01*
X138980000Y-156710000D02*
X126200000Y-143930000D01*
X130713858Y-119310000D02*
X135360000Y-119310000D01*
X126200000Y-143930000D02*
X126200000Y-133240000D01*
X135360000Y-119310000D02*
X135810000Y-119760000D01*
X142390000Y-118020000D02*
X139889850Y-118020000D01*
X140049850Y-156710000D02*
X138980000Y-156710000D01*
X142400000Y-118010000D02*
X142390000Y-118020000D01*
%TO.N,Net-(Q5-Pad2)*%
X180600000Y-109050000D02*
X177930489Y-111719511D01*
X177930489Y-120430489D02*
X180070000Y-122570000D01*
X177930489Y-111719511D02*
X177930489Y-120430489D01*
X180070000Y-122570000D02*
X180070000Y-123570000D01*
%TO.N,BSPD_IN*%
X138000000Y-115280000D02*
X139149850Y-115280000D01*
X139149850Y-115280000D02*
X139889850Y-116020000D01*
X139909850Y-116040000D02*
X139889850Y-116020000D01*
X140049850Y-152710000D02*
X139648228Y-152710000D01*
X127560000Y-140621772D02*
X127560000Y-133980000D01*
X139648228Y-152710000D02*
X127560000Y-140621772D01*
X142360000Y-116040000D02*
X139909850Y-116040000D01*
%TO.N,Net-(Q4-Pad2)*%
X176550000Y-110770000D02*
X176550000Y-120805000D01*
X174030000Y-123325000D02*
X174030000Y-123550000D01*
X176550000Y-120805000D02*
X174030000Y-123325000D01*
X180600000Y-106720000D02*
X176550000Y-110770000D01*
%TO.N,BMS_IN*%
X142300000Y-114030000D02*
X139899850Y-114030000D01*
X139899850Y-114030000D02*
X139889850Y-114020000D01*
X139541850Y-148710000D02*
X132254511Y-141422661D01*
X140049850Y-148710000D02*
X139541850Y-148710000D01*
X139889850Y-114020000D02*
X137970000Y-114020000D01*
X132254511Y-141422661D02*
X132254511Y-128054511D01*
X137970000Y-114020000D02*
X137760000Y-114230000D01*
%TO.N,Net-(Q2-Pad2)*%
X180050000Y-117069511D02*
X180050000Y-118040000D01*
X181644511Y-105444511D02*
X181644511Y-115475000D01*
X180600000Y-104400000D02*
X181644511Y-105444511D01*
X181644511Y-115475000D02*
X180050000Y-117069511D01*
%TO.N,IMD_IN*%
X140049850Y-144710000D02*
X139541850Y-144710000D01*
X139889850Y-112020000D02*
X142310000Y-112020000D01*
X139541850Y-144710000D02*
X136010000Y-141178150D01*
X136010000Y-141178150D02*
X136010000Y-131270000D01*
%TO.N,Net-(Q1-Pad2)*%
X180620000Y-102090000D02*
X174030000Y-108680000D01*
X174030000Y-108680000D02*
X174030000Y-118040000D01*
%TO.N,LV_ACTIVE*%
X142450000Y-122030000D02*
X142440000Y-122020000D01*
X142440000Y-122020000D02*
X139889850Y-122020000D01*
%TO.N,3V3*%
X153204888Y-161480000D02*
X150930000Y-163754888D01*
X164430000Y-109710000D02*
X164430000Y-108302150D01*
X178810000Y-123580000D02*
X178800000Y-123570000D01*
X177715480Y-130094520D02*
X178810000Y-129000000D01*
X161879520Y-188109520D02*
X162970000Y-189200000D01*
X131530000Y-136570000D02*
X126510000Y-131550000D01*
X173559520Y-130094520D02*
X177715480Y-130094520D01*
X198710000Y-122350000D02*
X198710000Y-122380000D01*
X164430000Y-108302150D02*
X161807850Y-105680000D01*
X172710000Y-129020000D02*
X172710000Y-129245000D01*
X172760000Y-118040000D02*
X172760000Y-123550000D01*
X126510000Y-131550000D02*
X124050000Y-131550000D01*
X198710000Y-122380000D02*
X193775000Y-127315000D01*
X156270000Y-161480000D02*
X153480000Y-161480000D01*
X172760000Y-123550000D02*
X172760000Y-128970000D01*
X153480000Y-161480000D02*
X153204888Y-161480000D01*
X172710000Y-129245000D02*
X173559520Y-130094520D01*
X115610000Y-186395386D02*
X117324134Y-188109520D01*
X178810000Y-129000000D02*
X178810000Y-123580000D01*
X172760000Y-128970000D02*
X172710000Y-129020000D01*
X161807850Y-105680000D02*
X161299850Y-105680000D01*
X164430000Y-109710000D02*
X172760000Y-118040000D01*
X156270000Y-161480000D02*
X156270000Y-158940000D01*
X117324134Y-188109520D02*
X161879520Y-188109520D01*
%TO.N,IMD_Pin*%
X116159850Y-145160000D02*
X116249850Y-145070000D01*
X114490000Y-145160000D02*
X116159850Y-145160000D01*
%TO.N,BMS_Pin*%
X116239850Y-143060000D02*
X116249850Y-143070000D01*
X114550000Y-143060000D02*
X116239850Y-143060000D01*
%TO.N,RTD_ACTIVE_Pin*%
X182639040Y-131154004D02*
X182639040Y-100533323D01*
X117743803Y-98630480D02*
X111950000Y-104424283D01*
X180736197Y-98630480D02*
X117743803Y-98630480D01*
X180110000Y-133683044D02*
X182639040Y-131154004D01*
X113880000Y-113940000D02*
X116059850Y-113940000D01*
X111950000Y-114670000D02*
X112190000Y-114910000D01*
X116059850Y-113940000D02*
X116109850Y-113890000D01*
X111950000Y-104424283D02*
X111950000Y-114670000D01*
X180110000Y-133870000D02*
X180110000Y-133683044D01*
X182639040Y-100533323D02*
X180736197Y-98630480D01*
%TO.N,IN*%
X139648228Y-160710000D02*
X140049850Y-160710000D01*
X124050000Y-134090000D02*
X122410000Y-134090000D01*
X122220000Y-143281772D02*
X139648228Y-160710000D01*
X122410000Y-134090000D02*
X122220000Y-134280000D01*
X122220000Y-134280000D02*
X122220000Y-143281772D01*
%TO.N,BSPD_Pin*%
X114700000Y-141090000D02*
X116229850Y-141090000D01*
X116229850Y-141090000D02*
X116249850Y-141070000D01*
%TO.N,HVD_Pin*%
X114280000Y-127211850D02*
X114280000Y-129120000D01*
X116109850Y-125890000D02*
X115601850Y-125890000D01*
X115601850Y-125890000D02*
X114280000Y-127211850D01*
X114280000Y-129120000D02*
X115450000Y-130290000D01*
%TO.N,APPS*%
X175090000Y-145230000D02*
X176870000Y-143450000D01*
X171650000Y-141725386D02*
X171650000Y-145230000D01*
X139889850Y-128020000D02*
X157944614Y-128020000D01*
X157944614Y-128020000D02*
X171650000Y-141725386D01*
X171650000Y-145230000D02*
X175090000Y-145230000D01*
%TO.N,LV*%
X172088228Y-140870000D02*
X173810000Y-140870000D01*
X173870000Y-161480000D02*
X173870000Y-165810000D01*
X177450000Y-169390000D02*
X177450000Y-171480000D01*
X173810000Y-140870000D02*
X173810000Y-143410000D01*
X152540000Y-121321772D02*
X172088228Y-140870000D01*
X139889850Y-108020000D02*
X140397850Y-108020000D01*
X173870000Y-165810000D02*
X177450000Y-169390000D01*
X177450000Y-171480000D02*
X174710000Y-174220000D01*
X140397850Y-108020000D02*
X152540000Y-120162150D01*
X152540000Y-120162150D02*
X152540000Y-121321772D01*
X173870000Y-158940000D02*
X173870000Y-161480000D01*
%TO.N,BRAKE_Pin*%
X143128472Y-136640000D02*
X128768472Y-122280000D01*
X116109850Y-115890000D02*
X115720000Y-115890000D01*
X165540000Y-136640000D02*
X143128472Y-136640000D01*
X115720000Y-115890000D02*
X113780000Y-117830000D01*
%TO.N,LV_ACTIVE_Pin*%
X180550000Y-99080000D02*
X117930000Y-99080000D01*
X113890000Y-119890000D02*
X113180000Y-119180000D01*
X182189520Y-100719520D02*
X180550000Y-99080000D01*
X117930000Y-99080000D02*
X113055489Y-103954511D01*
X113055489Y-103954511D02*
X113055489Y-119055489D01*
X113055489Y-119055489D02*
X113180000Y-119180000D01*
X116109850Y-119890000D02*
X113890000Y-119890000D01*
X182189520Y-128160480D02*
X182189520Y-100719520D01*
X181350000Y-129000000D02*
X182189520Y-128160480D01*
%TO.N,5V*%
X157100000Y-123460000D02*
X157100000Y-117845386D01*
X151920000Y-131330000D02*
X151920000Y-129300000D01*
X159265386Y-115680000D02*
X161299850Y-115680000D01*
X156390000Y-135800000D02*
X151920000Y-131330000D01*
X161900000Y-161390000D02*
X160610000Y-161390000D01*
X157100000Y-117845386D02*
X159265386Y-115680000D01*
X152965112Y-146654888D02*
X156210000Y-143410000D01*
X160610000Y-161390000D02*
X152965112Y-153745112D01*
X152965112Y-153745112D02*
X152965112Y-146654888D01*
X156210000Y-140870000D02*
X156210000Y-143410000D01*
%TO.N,I2C2_SCL*%
X114470000Y-163691772D02*
X114470000Y-154448228D01*
X116740649Y-174851311D02*
X115840551Y-174851311D01*
X114264680Y-188559040D02*
X114187820Y-188482180D01*
X122136511Y-190286511D02*
X120409040Y-188559040D01*
X114470000Y-154448228D02*
X115848228Y-153070000D01*
X166963489Y-190286511D02*
X122136511Y-190286511D01*
X115200000Y-164421772D02*
X114470000Y-163691772D01*
X114066489Y-186123511D02*
X117870000Y-182320000D01*
X115848228Y-153070000D02*
X116249850Y-153070000D01*
X115200000Y-174210760D02*
X115200000Y-164421772D01*
X117870000Y-182320000D02*
X117870000Y-175980662D01*
X120409040Y-188559040D02*
X114264680Y-188559040D01*
X114066489Y-188360849D02*
X114066489Y-186123511D01*
X117870000Y-175980662D02*
X116740649Y-174851311D01*
X114187820Y-188482180D02*
X114066489Y-188360849D01*
X168050000Y-189200000D02*
X166963489Y-190286511D01*
X115840551Y-174851311D02*
X115200000Y-174210760D01*
%TO.N,I2C2_SDA*%
X121580000Y-157740000D02*
X121580000Y-162280000D01*
X130500000Y-187660000D02*
X163930000Y-187660000D01*
X116249850Y-151070000D02*
X114560000Y-151070000D01*
X121580000Y-162280000D02*
X130500000Y-171200000D01*
X130500000Y-171200000D02*
X130500000Y-187660000D01*
%TO.N,ESP_RX*%
X111499649Y-176617489D02*
X110913600Y-176617489D01*
X114655039Y-122943189D02*
X115708228Y-121890000D01*
X108900000Y-128945039D02*
X114655039Y-123190000D01*
X108900000Y-169774614D02*
X108900000Y-128945039D01*
X109610000Y-175313889D02*
X109610000Y-170484614D01*
X109610000Y-170484614D02*
X108900000Y-169774614D01*
X112136111Y-177253951D02*
X111499649Y-176617489D01*
X112136111Y-179157489D02*
X112136111Y-177253951D01*
X115708228Y-121890000D02*
X116109850Y-121890000D01*
X111049600Y-180244000D02*
X112136111Y-179157489D01*
X110913600Y-176617489D02*
X109610000Y-175313889D01*
X114655039Y-123190000D02*
X114655039Y-122943189D01*
%TO.N,ESP_TX*%
X113770000Y-121270000D02*
X113770000Y-121420000D01*
X113770000Y-121420000D02*
X114140000Y-121790000D01*
X106706000Y-172624000D02*
X105850000Y-173480000D01*
X105090000Y-129950000D02*
X113770000Y-121270000D01*
X105090000Y-149410000D02*
X105090000Y-129950000D01*
X108509600Y-172624000D02*
X106706000Y-172624000D01*
%TO.N,GPS_TX*%
X188460000Y-146620000D02*
X188460000Y-142660000D01*
X155100049Y-150779951D02*
X154580000Y-151300000D01*
X114564511Y-164424511D02*
X112970000Y-162830000D01*
X163840480Y-161093802D02*
X156720793Y-168213489D01*
X177045480Y-145754520D02*
X160148920Y-145754520D01*
X112970000Y-162830000D02*
X112970000Y-162380000D01*
X154580000Y-151300000D02*
X154580000Y-153900000D01*
X188460000Y-142660000D02*
X182230000Y-136430000D01*
X149480000Y-174553440D02*
X149480000Y-180860000D01*
X162440000Y-159180000D02*
X163840480Y-160580480D01*
X199865489Y-142364511D02*
X194585489Y-142364511D01*
X155819951Y-168213489D02*
X149480000Y-174553440D01*
X200000000Y-142230000D02*
X199865489Y-142364511D01*
X194585489Y-142364511D02*
X191310000Y-145640000D01*
X159860000Y-159180000D02*
X162440000Y-159180000D01*
X163840480Y-160580480D02*
X163840480Y-161093802D01*
X154580000Y-153900000D02*
X159860000Y-159180000D01*
X156720793Y-168213489D02*
X155819951Y-168213489D01*
X115659850Y-149660000D02*
X114670000Y-149660000D01*
X160148920Y-145754520D02*
X155123489Y-150779951D01*
X113870000Y-181470000D02*
X114564511Y-180775489D01*
X177960000Y-144840000D02*
X177045480Y-145754520D01*
X116249850Y-149070000D02*
X115659850Y-149660000D01*
X114564511Y-180775489D02*
X114564511Y-164424511D01*
X155123489Y-150779951D02*
X155100049Y-150779951D01*
%TO.N,GPS_RX*%
X112174200Y-189008560D02*
X112174200Y-185967640D01*
X115700000Y-147070000D02*
X114530000Y-148240000D01*
X121946031Y-190736031D02*
X120218560Y-189008560D01*
X213264511Y-115337489D02*
X213264511Y-184392849D01*
X116249850Y-147070000D02*
X115700000Y-147070000D01*
X105980000Y-182720000D02*
X105980000Y-181890000D01*
X109650000Y-146420000D02*
X112540000Y-146420000D01*
X213264511Y-184392849D02*
X206921329Y-190736031D01*
X120218560Y-189008560D02*
X112174200Y-189008560D01*
X112174200Y-185967640D02*
X110136560Y-183930000D01*
X112540000Y-146420000D02*
X113010000Y-146890000D01*
X206921329Y-190736031D02*
X121946031Y-190736031D01*
X225740000Y-102862000D02*
X213264511Y-115337489D01*
X110136560Y-183930000D02*
X107190000Y-183930000D01*
X107190000Y-183930000D02*
X105980000Y-182720000D01*
%TO.N,CAN1_RX*%
X199268000Y-135180000D02*
X192000000Y-127912000D01*
X115708228Y-107890000D02*
X114655039Y-106836811D01*
X117280000Y-102470000D02*
X121720000Y-102470000D01*
X116109850Y-107890000D02*
X115708228Y-107890000D01*
X114655039Y-105094961D02*
X117280000Y-102470000D01*
X114655039Y-106836811D02*
X114655039Y-105094961D01*
X192000000Y-127912000D02*
X192000000Y-127090000D01*
%TO.N,CAN1_TX*%
X179725664Y-100130000D02*
X179385664Y-99790000D01*
X126854336Y-99790000D02*
X116754336Y-109890000D01*
X179900000Y-100130000D02*
X179725664Y-100130000D01*
X196438689Y-102177311D02*
X185107311Y-102177311D01*
X116754336Y-109890000D02*
X116109850Y-109890000D01*
X196728000Y-101888000D02*
X196438689Y-102177311D01*
X126854336Y-99790000D02*
X179385664Y-99790000D01*
%TO.N,RTDS*%
X116109850Y-111890000D02*
X114050000Y-111890000D01*
X208650000Y-110081240D02*
X206193049Y-107624289D01*
X189416489Y-107624289D02*
X187963000Y-106170800D01*
X208650000Y-135400000D02*
X208650000Y-110081240D01*
X206193049Y-107624289D02*
X189416489Y-107624289D01*
%TO.N,RTD_OUT*%
X137580000Y-103570000D02*
X136076811Y-105073189D01*
X142340000Y-106180000D02*
X142340000Y-103570000D01*
X142340000Y-103570000D02*
X137580000Y-103570000D01*
X132466811Y-105073189D02*
X119650000Y-117890000D01*
X161299850Y-107680000D02*
X143840000Y-107680000D01*
X143840000Y-107680000D02*
X142340000Y-106180000D01*
X136076811Y-105073189D02*
X132466811Y-105073189D01*
X119650000Y-117890000D02*
X116109850Y-117890000D01*
%TO.N,Net-(SW2-Pad2)*%
X110700000Y-183260000D02*
X109963089Y-182523089D01*
X101181111Y-185658089D02*
X106548089Y-185658089D01*
X109963089Y-178790511D02*
X111049600Y-177704000D01*
X109963089Y-182523089D02*
X109963089Y-178790511D01*
X100094600Y-186744600D02*
X101181111Y-185658089D01*
%TO.N,CAN_H*%
X170380000Y-165110000D02*
X170380000Y-160140000D01*
X140773250Y-177010000D02*
X141770000Y-178006750D01*
X138766750Y-177010000D02*
X140773250Y-177010000D01*
X168060000Y-167320000D02*
X152860000Y-182520000D01*
X168060000Y-167290000D02*
X168060000Y-167320000D01*
X198898000Y-138090000D02*
X191190000Y-138090000D01*
X170380000Y-160140000D02*
X180120000Y-150400000D01*
X201808000Y-135180000D02*
X198898000Y-138090000D01*
X141770000Y-178006750D02*
X141770000Y-178514750D01*
X152860000Y-182520000D02*
X140350000Y-182520000D01*
X139270000Y-181440000D02*
X137770000Y-179940000D01*
X137770000Y-178514750D02*
X137770000Y-178006750D01*
X145770000Y-178514750D02*
X145770000Y-179022750D01*
X143352750Y-181440000D02*
X139270000Y-181440000D01*
X145770000Y-179022750D02*
X143352750Y-181440000D01*
X137770000Y-179940000D02*
X137770000Y-178514750D01*
X137770000Y-178006750D02*
X138766750Y-177010000D01*
X140350000Y-182520000D02*
X139270000Y-181440000D01*
%TO.N,CAN_L*%
X147770000Y-178006750D02*
X145073250Y-175310000D01*
X161883489Y-177946511D02*
X164750000Y-175080000D01*
X147770000Y-178514750D02*
X147770000Y-178006750D01*
X139770000Y-178514750D02*
X139770000Y-179022750D01*
X192744511Y-139285489D02*
X192010000Y-140020000D01*
X200242511Y-139285489D02*
X192744511Y-139285489D01*
X155556560Y-185450000D02*
X161883489Y-179123071D01*
X143770000Y-176930000D02*
X143770000Y-178514750D01*
X140716811Y-179969561D02*
X143289561Y-179969561D01*
X142150000Y-175310000D02*
X136836372Y-175310000D01*
X143770000Y-179900000D02*
X143770000Y-178514750D01*
X143289561Y-179969561D02*
X143700439Y-179969561D01*
X145073250Y-175310000D02*
X142150000Y-175310000D01*
X143700439Y-179969561D02*
X143770000Y-179900000D01*
X134500000Y-177646372D02*
X142303628Y-185450000D01*
X171170000Y-175670000D02*
X170320000Y-176520000D01*
X204348000Y-135180000D02*
X200242511Y-139285489D01*
X161883489Y-179123071D02*
X161883489Y-177946511D01*
X136836372Y-175310000D02*
X134500000Y-177646372D01*
X173400000Y-175670000D02*
X171170000Y-175670000D01*
X142303628Y-185450000D02*
X155556560Y-185450000D01*
X139770000Y-179022750D02*
X140716811Y-179969561D01*
X142150000Y-175310000D02*
X143770000Y-176930000D01*
D26*
%TO.N,HV_AUX1+*%
X141449259Y-124020000D02*
X139889850Y-124020000D01*
X161299850Y-109680000D02*
X152310000Y-109680000D01*
X144010000Y-121459259D02*
X141449259Y-124020000D01*
X152310000Y-109680000D02*
X149220000Y-112770000D01*
X144010000Y-112770000D02*
X144010000Y-121459259D01*
%TO.N,HV_AUX1-*%
X145870000Y-121160000D02*
X145870000Y-115150000D01*
X139889850Y-126020000D02*
X141010000Y-126020000D01*
X164020000Y-114430000D02*
X164020000Y-113892150D01*
X141010000Y-126020000D02*
X145870000Y-121160000D01*
X161807850Y-111680000D02*
X161299850Y-111680000D01*
X164020000Y-113892150D02*
X161807850Y-111680000D01*
%TO.N,ROUT+*%
X159230000Y-101330000D02*
X159230000Y-104040000D01*
X163360000Y-110430000D02*
X163360000Y-112650000D01*
X165690000Y-114980000D02*
X165820000Y-114980000D01*
X159800000Y-121680000D02*
X161299850Y-121680000D01*
X158910000Y-120790000D02*
X159800000Y-121680000D01*
X158910000Y-117060000D02*
X158910000Y-120790000D01*
X163360000Y-112650000D02*
X165690000Y-114980000D01*
%TO.N,ROUT-*%
X163560000Y-135760000D02*
X164380000Y-135760000D01*
X178810000Y-147320000D02*
X179090000Y-147600000D01*
X160791850Y-123680000D02*
X158811850Y-125660000D01*
X180069259Y-149360000D02*
X180840000Y-150130741D01*
X157580000Y-129200000D02*
X157580000Y-129780000D01*
X180840000Y-150130741D02*
X180840000Y-153270000D01*
X178710000Y-149360000D02*
X180069259Y-149360000D01*
X157580000Y-129780000D02*
X163560000Y-135760000D01*
X158811850Y-125660000D02*
X158680000Y-125660000D01*
X169210000Y-147320000D02*
X178810000Y-147320000D01*
X161299850Y-123680000D02*
X160791850Y-123680000D01*
%TO.N,LOUT+*%
X172748489Y-140430307D02*
X173370307Y-139808489D01*
X169095480Y-132967630D02*
X169095480Y-137155480D01*
X173370307Y-139808489D02*
X174438489Y-139808489D01*
X161299850Y-125680000D02*
X161807850Y-125680000D01*
X161807850Y-125680000D02*
X169095480Y-132967630D01*
X172370307Y-140430307D02*
X172748489Y-140430307D01*
X180010000Y-145380000D02*
X180010000Y-146880000D01*
X182580000Y-145640000D02*
X182580000Y-149322400D01*
X182580000Y-149322400D02*
X186749200Y-153491600D01*
X169095480Y-137155480D02*
X172370307Y-140430307D01*
X174438489Y-139808489D02*
X180010000Y-145380000D01*
%TO.N,LOUT-*%
X166839850Y-133220000D02*
X161299850Y-127680000D01*
X172830000Y-133330000D02*
X172830000Y-132510000D01*
X186749200Y-148411600D02*
X186749200Y-143189200D01*
X172030000Y-131710000D02*
X171980000Y-131660000D01*
X167600000Y-133220000D02*
X166839850Y-133220000D01*
X186749200Y-143189200D02*
X180490000Y-136930000D01*
X172830000Y-134920000D02*
X172830000Y-133330000D01*
X172830000Y-132510000D02*
X172030000Y-131710000D01*
X171980000Y-131660000D02*
X171790000Y-131470000D01*
D25*
%TO.N,CRITICAL_LED*%
X140049850Y-134979850D02*
X140049850Y-140710000D01*
X139889850Y-110020000D02*
X139488228Y-110020000D01*
X137000000Y-112508228D02*
X137000000Y-128460000D01*
X139488228Y-110020000D02*
X137000000Y-112508228D01*
X137000000Y-131930000D02*
X140049850Y-134979850D01*
%TO.N,CR-*%
X148140000Y-169010000D02*
X148140000Y-154398528D01*
X146800000Y-143890000D02*
X145620000Y-142710000D01*
X148140000Y-154398528D02*
X146800000Y-153058528D01*
X146800000Y-153058528D02*
X146800000Y-143890000D01*
X145620000Y-142710000D02*
X140049850Y-142710000D01*
%TO.N,IMD-*%
X145730000Y-146710000D02*
X140049850Y-146710000D01*
X145850000Y-167840000D02*
X145850000Y-146590000D01*
X146990000Y-168980000D02*
X145850000Y-167840000D01*
X145850000Y-146590000D02*
X145730000Y-146710000D01*
%TO.N,BMS-*%
X142010000Y-150710000D02*
X142110000Y-150810000D01*
X149410000Y-168764614D02*
X149410000Y-153820000D01*
X145290000Y-170870000D02*
X147304614Y-170870000D01*
X147304614Y-170870000D02*
X149410000Y-168764614D01*
X140049850Y-150710000D02*
X142010000Y-150710000D01*
%TO.N,BSPD-*%
X138031228Y-173670000D02*
X123560489Y-159199261D01*
X123560489Y-156449511D02*
X124710000Y-155300000D01*
X140049850Y-154710000D02*
X138810000Y-154710000D01*
X138810000Y-154710000D02*
X137990000Y-153890000D01*
X124710000Y-155300000D02*
X132060000Y-155300000D01*
X141170000Y-173670000D02*
X138031228Y-173670000D01*
X123560489Y-159199261D02*
X123560489Y-156449511D01*
%TO.N,HVD-*%
X144400000Y-158710000D02*
X140049850Y-158710000D01*
X144680000Y-168500000D02*
X144680000Y-158990000D01*
X144680000Y-158990000D02*
X144400000Y-158710000D01*
X146180000Y-170000000D02*
X144680000Y-168500000D01*
%TO.N,-*%
X130130000Y-162710000D02*
X140049850Y-162710000D01*
X124285000Y-156865000D02*
X130130000Y-162710000D01*
%TO.N,LCD_SDA*%
X169520000Y-125392150D02*
X169520000Y-136570000D01*
X169520000Y-136570000D02*
X172100000Y-139150000D01*
X161299850Y-117680000D02*
X161807850Y-117680000D01*
X161807850Y-117680000D02*
X169520000Y-125392150D01*
%TO.N,LCD_SCL*%
X168050000Y-179040000D02*
X169136511Y-180126511D01*
X162230000Y-119680000D02*
X161299850Y-119680000D01*
X181848201Y-169318359D02*
X181848201Y-139917712D01*
X181848201Y-139917712D02*
X171010000Y-129079511D01*
X171040049Y-180126511D02*
X181848201Y-169318359D01*
X163370000Y-120820000D02*
X162230000Y-119680000D01*
X171010000Y-129079511D02*
X171010000Y-120860000D01*
X171010000Y-120860000D02*
X167890000Y-117740000D01*
X169136511Y-180126511D02*
X171040049Y-180126511D01*
%TO.N,RIN*%
X209609200Y-176351600D02*
X189783489Y-156525889D01*
X189783489Y-127210311D02*
X205743000Y-111250800D01*
X189783489Y-156525889D02*
X189783489Y-127210311D01*
%TO.N,LIN*%
X189333969Y-125119831D02*
X189333969Y-166236369D01*
X189333969Y-166236369D02*
X209609200Y-186511600D01*
X205743000Y-108710800D02*
X189333969Y-125119831D01*
%TO.N,1*%
X111900001Y-189460039D02*
X103145489Y-180705527D01*
X116550000Y-128330150D02*
X116109850Y-127890000D01*
X207154449Y-191185551D02*
X119932111Y-191185551D01*
X107490000Y-170300000D02*
X107490000Y-129250000D01*
X216268400Y-182071600D02*
X207154449Y-191185551D01*
X118206599Y-189460039D02*
X111900001Y-189460039D01*
X116550000Y-129440000D02*
X116550000Y-128330150D01*
X103145489Y-180705527D02*
X103145489Y-174644511D01*
X216268400Y-167671600D02*
X216268400Y-182071600D01*
X119932111Y-191185551D02*
X118206599Y-189460039D01*
X225314800Y-163868400D02*
X220071600Y-163868400D01*
X220071600Y-163868400D02*
X216268400Y-167671600D01*
X107490000Y-129250000D02*
X112010000Y-124730000D01*
X103145489Y-174644511D02*
X107490000Y-170300000D01*
%TO.N,2*%
X154557067Y-167452933D02*
X159485000Y-162525000D01*
X227314800Y-163868400D02*
X227314800Y-172485200D01*
X150172933Y-167452933D02*
X154557067Y-167452933D01*
X171170000Y-166640000D02*
X173150000Y-166640000D01*
X150172933Y-160356107D02*
X150172933Y-167452933D01*
X151144520Y-159384520D02*
X150172933Y-160356107D01*
X211570000Y-188230000D02*
X210790000Y-188230000D01*
X227314800Y-172485200D02*
X211570000Y-188230000D01*
X210790000Y-188230000D02*
X210790000Y-189350000D01*
X173150000Y-166640000D02*
X176090000Y-169580000D01*
%TO.N,3*%
X214740000Y-156010000D02*
X214740000Y-134460000D01*
X211594751Y-102934191D02*
X205920560Y-97260000D01*
X116195489Y-168724511D02*
X115970000Y-168950000D01*
X226264400Y-160310000D02*
X219040000Y-160310000D01*
X186280000Y-97260000D02*
X185820000Y-97720000D01*
X205920560Y-97260000D02*
X186280000Y-97260000D01*
X116195489Y-165954511D02*
X116195489Y-168724511D01*
X211594751Y-134974751D02*
X211594751Y-102934191D01*
X110430000Y-170280000D02*
X111570000Y-170280000D01*
X229314800Y-163868400D02*
X229314800Y-163360400D01*
X229314800Y-163360400D02*
X226264400Y-160310000D01*
X111570000Y-170280000D02*
X112790000Y-169060000D01*
X219040000Y-160310000D02*
X214740000Y-156010000D01*
X112790000Y-169060000D02*
X113840000Y-169060000D01*
X211960000Y-135340000D02*
X211594751Y-134974751D01*
%TO.N,4*%
X118830000Y-163050000D02*
X120150000Y-163050000D01*
X162060000Y-168610000D02*
X151310000Y-179360000D01*
X136384511Y-174394511D02*
X126760000Y-164770000D01*
X198470000Y-140010000D02*
X198110000Y-140010000D01*
X221060000Y-159300000D02*
X216268400Y-154508400D01*
X216268400Y-154508400D02*
X216268400Y-129608400D01*
X164190000Y-168610000D02*
X162060000Y-168610000D01*
X179120000Y-168790000D02*
X179120000Y-170834614D01*
X216268400Y-129608400D02*
X215090000Y-128430000D01*
X231314800Y-163360400D02*
X227254400Y-159300000D01*
X146180000Y-174230000D02*
X146015489Y-174394511D01*
X179120000Y-170834614D02*
X175009125Y-174945489D01*
X175009125Y-174945489D02*
X171015489Y-174945489D01*
X120650000Y-163550000D02*
X120650000Y-165260000D01*
X198110000Y-140010000D02*
X196480000Y-141640000D01*
X146015489Y-174394511D02*
X136384511Y-174394511D01*
X231314800Y-163868400D02*
X231314800Y-163360400D01*
X227254400Y-159300000D02*
X221060000Y-159300000D01*
X120150000Y-163050000D02*
X120650000Y-163550000D01*
%TD*%
M02*
