%TF.GenerationSoftware,KiCad,Pcbnew,(6.0.2)*%
%TF.CreationDate,2022-08-09T18:47:36+09:00*%
%TF.ProjectId,dash,64617368-2e6b-4696-9361-645f70636258,rev?*%
%TF.SameCoordinates,Original*%
%TF.FileFunction,Soldermask,Bot*%
%TF.FilePolarity,Negative*%
%FSLAX46Y46*%
G04 Gerber Fmt 4.6, Leading zero omitted, Abs format (unit mm)*
G04 Created by KiCad (PCBNEW (6.0.2)) date 2022-08-09 18:47:36*
%MOMM*%
%LPD*%
G01*
G04 APERTURE LIST*
%ADD10C,1.524000*%
%ADD11C,1.400000*%
%ADD12O,1.400000X1.400000*%
%ADD13R,1.050000X1.500000*%
%ADD14O,1.050000X1.500000*%
%ADD15C,4.000000*%
%ADD16R,1.500000X1.050000*%
%ADD17O,1.500000X1.050000*%
G04 APERTURE END LIST*
D10*
%TO.C,U4*%
X196728000Y-135180000D03*
X201808000Y-135180000D03*
X194188000Y-135180000D03*
X199268000Y-135180000D03*
X204348000Y-135180000D03*
X191648000Y-135180000D03*
%TD*%
D11*
%TO.C,R4*%
X174610000Y-186170000D03*
D12*
X182230000Y-186170000D03*
%TD*%
D11*
%TO.C,R10*%
X172980000Y-109050000D03*
D12*
X180600000Y-109050000D03*
%TD*%
D13*
%TO.C,Q6*%
X178840000Y-133870000D03*
D14*
X180110000Y-133870000D03*
X181380000Y-133870000D03*
%TD*%
D11*
%TO.C,R5*%
X174610000Y-188550000D03*
D12*
X182230000Y-188550000D03*
%TD*%
D10*
%TO.C,U9*%
X230820000Y-102862000D03*
X223200000Y-102862000D03*
X225740000Y-102862000D03*
X228280000Y-102862000D03*
%TD*%
D11*
%TO.C,R11*%
X172980000Y-111390000D03*
D12*
X180600000Y-111390000D03*
%TD*%
D11*
%TO.C,R1*%
X119820000Y-138960000D03*
D12*
X119820000Y-131340000D03*
%TD*%
D11*
%TO.C,R3*%
X174630000Y-181510000D03*
D12*
X182250000Y-181510000D03*
%TD*%
D10*
%TO.C,U5*%
X168050000Y-179040000D03*
X162970000Y-179040000D03*
X157890000Y-189200000D03*
X160430000Y-189200000D03*
X160430000Y-179040000D03*
X165510000Y-179040000D03*
X157890000Y-179040000D03*
X168050000Y-189200000D03*
X162970000Y-189200000D03*
X170590000Y-179040000D03*
X170590000Y-189200000D03*
X165510000Y-189200000D03*
%TD*%
%TO.C,U3*%
X156210000Y-140870000D03*
X156210000Y-143410000D03*
X156210000Y-151230000D03*
X156210000Y-153770000D03*
X173810000Y-153770000D03*
X173810000Y-151230000D03*
X173810000Y-143410000D03*
X173810000Y-140870000D03*
%TD*%
%TO.C,ESP_PROGRAM*%
X105174600Y-179124600D03*
X100094600Y-179124600D03*
X105174600Y-186744600D03*
X100094600Y-186744600D03*
%TD*%
D11*
%TO.C,R6*%
X174620000Y-183870000D03*
D12*
X182240000Y-183870000D03*
%TD*%
D15*
%TO.C,REF\u002A\u002A*%
X27266200Y-102450200D03*
X93266200Y-102450200D03*
X27266200Y-181450200D03*
X93266200Y-181450200D03*
%TD*%
D11*
%TO.C,R12*%
X173000000Y-113680000D03*
D12*
X180620000Y-113680000D03*
%TD*%
D16*
%TO.C,Q3*%
X124050000Y-131550000D03*
D17*
X124050000Y-132820000D03*
X124050000Y-134090000D03*
%TD*%
D11*
%TO.C,R8*%
X172980000Y-104400000D03*
D12*
X180600000Y-104400000D03*
%TD*%
D10*
%TO.C,U10*%
X186749200Y-181431600D03*
X209609200Y-176351600D03*
X209609200Y-148411600D03*
X186749200Y-153491600D03*
X186749200Y-186511600D03*
X186749200Y-148411600D03*
X209609200Y-186511600D03*
X209609200Y-153491600D03*
X209609200Y-181431600D03*
%TD*%
%TO.C,U8*%
X205743000Y-106170800D03*
X187963000Y-106170800D03*
X205743000Y-116330800D03*
X205743000Y-118870800D03*
X187963000Y-108710800D03*
X187963000Y-101090800D03*
X187963000Y-113790800D03*
X205743000Y-113790800D03*
X187963000Y-118870800D03*
X205743000Y-101090800D03*
X187963000Y-111250800D03*
X205743000Y-103630800D03*
X187963000Y-116330800D03*
X205743000Y-111250800D03*
X187963000Y-103630800D03*
X205743000Y-108710800D03*
%TD*%
D13*
%TO.C,Q2*%
X178780000Y-118040000D03*
D14*
X180050000Y-118040000D03*
X181320000Y-118040000D03*
%TD*%
D10*
%TO.C,BOOT0*%
X117789200Y-190579200D03*
X117789200Y-185499200D03*
X110169200Y-190579200D03*
X110169200Y-185499200D03*
%TD*%
D13*
%TO.C,Q1*%
X172760000Y-118040000D03*
D14*
X174030000Y-118040000D03*
X175300000Y-118040000D03*
%TD*%
D13*
%TO.C,Q7*%
X172710000Y-129020000D03*
D14*
X173980000Y-129020000D03*
X175250000Y-129020000D03*
%TD*%
D13*
%TO.C,Q4*%
X172760000Y-123550000D03*
D14*
X174030000Y-123550000D03*
X175300000Y-123550000D03*
%TD*%
D10*
%TO.C,ESP_RST*%
X100104600Y-169180000D03*
X105184600Y-169180000D03*
X105184600Y-176800000D03*
X100104600Y-176800000D03*
%TD*%
%TO.C,U2*%
X108509600Y-175164000D03*
X111049600Y-175164000D03*
X108509600Y-172624000D03*
X108509600Y-177704000D03*
X111049600Y-177704000D03*
X111049600Y-172624000D03*
X111049600Y-180244000D03*
X108509600Y-180244000D03*
%TD*%
%TO.C,U6*%
X156270000Y-158940000D03*
X156270000Y-161480000D03*
X156270000Y-169300000D03*
X156270000Y-171840000D03*
X173870000Y-171840000D03*
X173870000Y-169300000D03*
X173870000Y-161480000D03*
X173870000Y-158940000D03*
%TD*%
D11*
%TO.C,R2*%
X174570000Y-179110000D03*
D12*
X182190000Y-179110000D03*
%TD*%
D11*
%TO.C,R9*%
X172980000Y-106720000D03*
D12*
X180600000Y-106720000D03*
%TD*%
D13*
%TO.C,Q8*%
X178810000Y-129000000D03*
D14*
X180080000Y-129000000D03*
X181350000Y-129000000D03*
%TD*%
D11*
%TO.C,R7*%
X173000000Y-102090000D03*
D12*
X180620000Y-102090000D03*
%TD*%
D13*
%TO.C,Q5*%
X178800000Y-123570000D03*
D14*
X180070000Y-123570000D03*
X181340000Y-123570000D03*
%TD*%
M02*
