%TF.GenerationSoftware,KiCad,Pcbnew,(6.0.2)*%
%TF.CreationDate,2022-08-09T18:47:36+09:00*%
%TF.ProjectId,dash,64617368-2e6b-4696-9361-645f70636258,rev?*%
%TF.SameCoordinates,Original*%
%TF.FileFunction,Copper,L2,Bot*%
%TF.FilePolarity,Positive*%
%FSLAX46Y46*%
G04 Gerber Fmt 4.6, Leading zero omitted, Abs format (unit mm)*
G04 Created by KiCad (PCBNEW (6.0.2)) date 2022-08-09 18:47:36*
%MOMM*%
%LPD*%
G01*
G04 APERTURE LIST*
%TA.AperFunction,ComponentPad*%
%ADD10C,1.524000*%
%TD*%
%TA.AperFunction,ComponentPad*%
%ADD11C,1.400000*%
%TD*%
%TA.AperFunction,ComponentPad*%
%ADD12O,1.400000X1.400000*%
%TD*%
%TA.AperFunction,ComponentPad*%
%ADD13R,1.050000X1.500000*%
%TD*%
%TA.AperFunction,ComponentPad*%
%ADD14O,1.050000X1.500000*%
%TD*%
%TA.AperFunction,ComponentPad*%
%ADD15C,4.000000*%
%TD*%
%TA.AperFunction,ComponentPad*%
%ADD16R,1.500000X1.050000*%
%TD*%
%TA.AperFunction,ComponentPad*%
%ADD17O,1.500000X1.050000*%
%TD*%
%TA.AperFunction,ViaPad*%
%ADD18C,3.100000*%
%TD*%
%TA.AperFunction,ViaPad*%
%ADD19C,0.800000*%
%TD*%
%TA.AperFunction,Conductor*%
%ADD20C,0.250000*%
%TD*%
%TA.AperFunction,Conductor*%
%ADD21C,0.200000*%
%TD*%
G04 APERTURE END LIST*
D10*
%TO.P,U4,1*%
%TO.N,CAN1_TX*%
X196728000Y-135180000D03*
%TO.N,CAN_H*%
X201808000Y-135180000D03*
%TO.N,GND*%
X194188000Y-135180000D03*
%TO.N,CAN1_RX*%
X199268000Y-135180000D03*
%TO.N,CAN_L*%
X204348000Y-135180000D03*
%TO.N,3V3*%
X191648000Y-135180000D03*
%TD*%
D11*
%TO.P,R4,1*%
%TO.N,BMS-*%
X174610000Y-186170000D03*
D12*
%TO.P,R4,2*%
%TO.N,GND*%
X182230000Y-186170000D03*
%TD*%
D11*
%TO.P,R10,1*%
%TO.N,HVD_IN*%
X172980000Y-109050000D03*
D12*
%TO.P,R10,2*%
%TO.N,Net-(Q5-Pad2)*%
X180600000Y-109050000D03*
%TD*%
D13*
%TO.P,Q6,1,E*%
%TO.N,LV*%
X178840000Y-133870000D03*
D14*
%TO.P,Q6,2,B*%
%TO.N,RTD_ACTIVE_Pin*%
X180110000Y-133870000D03*
%TO.P,Q6,3,C*%
%TO.N,APPS*%
X181380000Y-133870000D03*
%TD*%
D11*
%TO.P,R5,1*%
%TO.N,BSPD-*%
X174610000Y-188550000D03*
D12*
%TO.P,R5,2*%
%TO.N,GND*%
X182230000Y-188550000D03*
%TD*%
D10*
%TO.P,U9,1*%
%TO.N,GND*%
X230820000Y-102862000D03*
%TO.N,3V3*%
X223200000Y-102862000D03*
%TO.N,GPS_RX*%
X225740000Y-102862000D03*
%TO.N,GPS_TX*%
X228280000Y-102862000D03*
%TD*%
D11*
%TO.P,R11,1*%
%TO.N,BRAKE_DIN*%
X172980000Y-111390000D03*
D12*
%TO.P,R11,2*%
%TO.N,Net-(Q7-Pad2)*%
X180600000Y-111390000D03*
%TD*%
D11*
%TO.P,R1,1*%
%TO.N,GND*%
X119820000Y-138960000D03*
D12*
%TO.P,R1,2*%
%TO.N,-*%
X119820000Y-131340000D03*
%TD*%
D11*
%TO.P,R3,1*%
%TO.N,IMD-*%
X174630000Y-181510000D03*
D12*
%TO.P,R3,2*%
%TO.N,GND*%
X182250000Y-181510000D03*
%TD*%
D10*
%TO.P,U5,1*%
%TO.N,LCD_SCL*%
X168050000Y-179040000D03*
%TO.N,5V*%
X162970000Y-179040000D03*
%TO.N,N/C*%
X157890000Y-189200000D03*
X160430000Y-189200000D03*
X160430000Y-179040000D03*
%TO.N,GND*%
X165510000Y-179040000D03*
%TO.N,N/C*%
X157890000Y-179040000D03*
%TO.N,I2C2_SCL*%
X168050000Y-189200000D03*
%TO.N,3V3*%
X162970000Y-189200000D03*
%TO.N,LCD_SDA*%
X170590000Y-179040000D03*
%TO.N,I2C2_SDA*%
X170590000Y-189200000D03*
%TO.N,GND*%
X165510000Y-189200000D03*
%TD*%
%TO.P,U3,1,VOUT+*%
%TO.N,5V*%
X156210000Y-140870000D03*
%TO.P,U3,2,VOUT+*%
X156210000Y-143410000D03*
%TO.P,U3,3,VOUT-*%
%TO.N,GND*%
X156210000Y-151230000D03*
%TO.P,U3,4,VOUT-*%
X156210000Y-153770000D03*
%TO.P,U3,5,VIN-*%
X173810000Y-153770000D03*
%TO.P,U3,6,VIN-*%
X173810000Y-151230000D03*
%TO.P,U3,7,VIN+*%
%TO.N,LV*%
X173810000Y-143410000D03*
%TO.P,U3,8,VIN+*%
X173810000Y-140870000D03*
%TD*%
%TO.P,ESP_PROGRAM,*%
%TO.N,*%
X105174600Y-179124600D03*
X100094600Y-179124600D03*
%TO.P,ESP_PROGRAM,1,A*%
%TO.N,GND*%
X105174600Y-186744600D03*
%TO.P,ESP_PROGRAM,2,B*%
%TO.N,Net-(SW2-Pad2)*%
X100094600Y-186744600D03*
%TD*%
D11*
%TO.P,R6,1*%
%TO.N,HVD-*%
X174620000Y-183870000D03*
D12*
%TO.P,R6,2*%
%TO.N,GND*%
X182240000Y-183870000D03*
%TD*%
D15*
%TO.P,REF\u002A\u002A,1*%
%TO.N,N/C*%
X27266200Y-102450200D03*
%TO.P,REF\u002A\u002A,2*%
X93266200Y-102450200D03*
%TO.P,REF\u002A\u002A,3*%
X27266200Y-181450200D03*
%TO.P,REF\u002A\u002A,4*%
X93266200Y-181450200D03*
%TD*%
D11*
%TO.P,R12,1*%
%TO.N,LV_ACTIVE*%
X173000000Y-113680000D03*
D12*
%TO.P,R12,2*%
%TO.N,Net-(Q8-Pad2)*%
X180620000Y-113680000D03*
%TD*%
D16*
%TO.P,Q3,1,E*%
%TO.N,3V3*%
X124050000Y-131550000D03*
D17*
%TO.P,Q3,2,B*%
%TO.N,RTD_ACTIVE_Pin*%
X124050000Y-132820000D03*
%TO.P,Q3,3,C*%
%TO.N,IN*%
X124050000Y-134090000D03*
%TD*%
D11*
%TO.P,R8,1*%
%TO.N,BMS_IN*%
X172980000Y-104400000D03*
D12*
%TO.P,R8,2*%
%TO.N,Net-(Q2-Pad2)*%
X180600000Y-104400000D03*
%TD*%
D10*
%TO.P,U10,1*%
%TO.N,GND*%
X186749200Y-181431600D03*
%TO.N,RIN*%
X209609200Y-176351600D03*
%TO.N,ROUT-*%
X209609200Y-148411600D03*
%TO.N,LOUT+*%
X186749200Y-153491600D03*
%TO.N,LV*%
X186749200Y-186511600D03*
%TO.N,LOUT-*%
X186749200Y-148411600D03*
%TO.N,LIN*%
X209609200Y-186511600D03*
%TO.N,ROUT+*%
X209609200Y-153491600D03*
%TO.N,GND*%
X209609200Y-181431600D03*
%TD*%
%TO.P,U8,1*%
%TO.N,N/C*%
X205743000Y-106170800D03*
%TO.N,RTDS*%
X187963000Y-106170800D03*
%TO.N,N/C*%
X205743000Y-116330800D03*
%TO.N,3V3*%
X205743000Y-118870800D03*
%TO.N,N/C*%
X187963000Y-108710800D03*
X187963000Y-101090800D03*
X187963000Y-113790800D03*
X205743000Y-113790800D03*
X187963000Y-118870800D03*
X205743000Y-101090800D03*
X187963000Y-111250800D03*
%TO.N,GND*%
X205743000Y-103630800D03*
%TO.N,N/C*%
X187963000Y-116330800D03*
%TO.N,RIN*%
X205743000Y-111250800D03*
%TO.N,GND*%
X187963000Y-103630800D03*
%TO.N,LIN*%
X205743000Y-108710800D03*
%TD*%
D13*
%TO.P,Q2,1,E*%
%TO.N,3V3*%
X178780000Y-118040000D03*
D14*
%TO.P,Q2,2,B*%
%TO.N,Net-(Q2-Pad2)*%
X180050000Y-118040000D03*
%TO.P,Q2,3,C*%
%TO.N,BMS_Pin*%
X181320000Y-118040000D03*
%TD*%
D10*
%TO.P,BOOT0,*%
%TO.N,*%
X117789200Y-190579200D03*
X117789200Y-185499200D03*
%TO.P,BOOT0,1,A*%
%TO.N,3V3*%
X110169200Y-190579200D03*
%TO.P,BOOT0,2,B*%
%TO.N,BOOT0*%
X110169200Y-185499200D03*
%TD*%
D13*
%TO.P,Q1,1,E*%
%TO.N,3V3*%
X172760000Y-118040000D03*
D14*
%TO.P,Q1,2,B*%
%TO.N,Net-(Q1-Pad2)*%
X174030000Y-118040000D03*
%TO.P,Q1,3,C*%
%TO.N,IMD_Pin*%
X175300000Y-118040000D03*
%TD*%
D13*
%TO.P,Q7,1,E*%
%TO.N,3V3*%
X172710000Y-129020000D03*
D14*
%TO.P,Q7,2,B*%
%TO.N,Net-(Q7-Pad2)*%
X173980000Y-129020000D03*
%TO.P,Q7,3,C*%
%TO.N,BRAKE_Pin*%
X175250000Y-129020000D03*
%TD*%
D13*
%TO.P,Q4,1,E*%
%TO.N,3V3*%
X172760000Y-123550000D03*
D14*
%TO.P,Q4,2,B*%
%TO.N,Net-(Q4-Pad2)*%
X174030000Y-123550000D03*
%TO.P,Q4,3,C*%
%TO.N,BSPD_Pin*%
X175300000Y-123550000D03*
%TD*%
D10*
%TO.P,ESP_RST,*%
%TO.N,*%
X100104600Y-169180000D03*
X105184600Y-169180000D03*
%TO.P,ESP_RST,1,A*%
%TO.N,Net-(SW1-Pad1)*%
X105184600Y-176800000D03*
%TO.P,ESP_RST,2,B*%
%TO.N,GND*%
X100104600Y-176800000D03*
%TD*%
%TO.P,U2,1*%
%TO.N,3V3*%
X108509600Y-175164000D03*
%TO.N,N/C*%
X111049600Y-175164000D03*
%TO.N,ESP_TX*%
X108509600Y-172624000D03*
%TO.N,Net-(SW1-Pad1)*%
X108509600Y-177704000D03*
%TO.N,Net-(SW2-Pad2)*%
X111049600Y-177704000D03*
%TO.N,GND*%
X111049600Y-172624000D03*
%TO.N,ESP_RX*%
X111049600Y-180244000D03*
%TO.N,3V3*%
X108509600Y-180244000D03*
%TD*%
%TO.P,U6,1,VOUT+*%
%TO.N,3V3*%
X156270000Y-158940000D03*
%TO.P,U6,2,VOUT+*%
X156270000Y-161480000D03*
%TO.P,U6,3,VOUT-*%
%TO.N,GND*%
X156270000Y-169300000D03*
%TO.P,U6,4,VOUT-*%
X156270000Y-171840000D03*
%TO.P,U6,5,VIN-*%
X173870000Y-171840000D03*
%TO.P,U6,6,VIN-*%
X173870000Y-169300000D03*
%TO.P,U6,7,VIN+*%
%TO.N,LV*%
X173870000Y-161480000D03*
%TO.P,U6,8,VIN+*%
X173870000Y-158940000D03*
%TD*%
D11*
%TO.P,R2,1*%
%TO.N,CR-*%
X174570000Y-179110000D03*
D12*
%TO.P,R2,2*%
%TO.N,GND*%
X182190000Y-179110000D03*
%TD*%
D11*
%TO.P,R9,1*%
%TO.N,BSPD_IN*%
X172980000Y-106720000D03*
D12*
%TO.P,R9,2*%
%TO.N,Net-(Q4-Pad2)*%
X180600000Y-106720000D03*
%TD*%
D13*
%TO.P,Q8,1,E*%
%TO.N,3V3*%
X178810000Y-129000000D03*
D14*
%TO.P,Q8,2,B*%
%TO.N,Net-(Q8-Pad2)*%
X180080000Y-129000000D03*
%TO.P,Q8,3,C*%
%TO.N,LV_ACTIVE_Pin*%
X181350000Y-129000000D03*
%TD*%
D11*
%TO.P,R7,1*%
%TO.N,IMD_IN*%
X173000000Y-102090000D03*
D12*
%TO.P,R7,2*%
%TO.N,Net-(Q1-Pad2)*%
X180620000Y-102090000D03*
%TD*%
D13*
%TO.P,Q5,1,E*%
%TO.N,3V3*%
X178800000Y-123570000D03*
D14*
%TO.P,Q5,2,B*%
%TO.N,Net-(Q5-Pad2)*%
X180070000Y-123570000D03*
%TO.P,Q5,3,C*%
%TO.N,HVD_Pin*%
X181340000Y-123570000D03*
%TD*%
D18*
%TO.N,*%
X238000000Y-97740000D03*
X21000000Y-97740000D03*
X21000000Y-188280000D03*
X238000000Y-188280000D03*
D19*
%TO.N,GND*%
X176560000Y-133590000D03*
X104630000Y-171430000D03*
X175330000Y-136440000D03*
X113610000Y-170400000D03*
X100104600Y-173465400D03*
X117704661Y-168584661D03*
X187660000Y-136880000D03*
%TO.N,BRAKE_DIN*%
X142390000Y-120020000D03*
%TO.N,HVD_IN*%
X126200000Y-124920000D03*
X135810000Y-119760000D03*
X126200000Y-133240000D03*
X142400000Y-118010000D03*
%TO.N,BSPD_IN*%
X142360000Y-116040000D03*
X138000000Y-115280000D03*
X127560000Y-133980000D03*
%TO.N,BMS_IN*%
X142300000Y-114030000D03*
X132254511Y-128054511D03*
X137760000Y-114230000D03*
%TO.N,IMD_IN*%
X136010000Y-131270000D03*
X142310000Y-112020000D03*
%TO.N,LV_ACTIVE*%
X142450000Y-122030000D03*
%TO.N,3V3*%
X198710000Y-122350000D03*
X131530000Y-136570000D03*
X115610000Y-186395386D03*
X150897444Y-163787444D03*
X193775000Y-127315000D03*
%TO.N,IMD_Pin*%
X114490000Y-145160000D03*
%TO.N,BMS_Pin*%
X114550000Y-143060000D03*
%TO.N,RTD_ACTIVE_Pin*%
X112190000Y-114910000D03*
X113880000Y-113940000D03*
%TO.N,BSPD_Pin*%
X114700000Y-141090000D03*
%TO.N,HVD_Pin*%
X115450000Y-130290000D03*
%TO.N,APPS*%
X176870000Y-143450000D03*
%TO.N,LV*%
X174710000Y-174220000D03*
%TO.N,BRAKE_Pin*%
X165540000Y-136640000D03*
X128768472Y-122280000D03*
X113780000Y-117830000D03*
%TO.N,5V*%
X157100000Y-123460000D03*
X116800000Y-155060000D03*
X156390000Y-135800000D03*
X151920000Y-129300000D03*
X161900000Y-161390000D03*
%TO.N,I2C2_SDA*%
X114560000Y-151070000D03*
X163930000Y-187660000D03*
X121580000Y-157740000D03*
%TO.N,ESP_TX*%
X105090000Y-149410000D03*
X114140000Y-121790000D03*
X116820000Y-123650000D03*
X105850000Y-173480000D03*
%TO.N,GPS_TX*%
X191310000Y-145640000D03*
X114670000Y-149660000D03*
X177960000Y-144840000D03*
X188460000Y-146620000D03*
X182230000Y-136430000D03*
X149480000Y-180860000D03*
X113870000Y-181470000D03*
X112970000Y-162380000D03*
X200000000Y-142230000D03*
%TO.N,GPS_RX*%
X114530000Y-148240000D03*
X105980000Y-181890000D03*
X113010000Y-146890000D03*
X109650000Y-146420000D03*
%TO.N,CAN1_RX*%
X121720000Y-102470000D03*
X192000000Y-127090000D03*
%TO.N,CAN1_TX*%
X179900000Y-100130000D03*
X185107311Y-102177311D03*
X196728000Y-101888000D03*
%TO.N,RTDS*%
X114050000Y-111890000D03*
X208650000Y-135400000D03*
%TO.N,BOOT0*%
X115490000Y-105960000D03*
%TO.N,Net-(SW2-Pad2)*%
X110700000Y-183260000D03*
X106548089Y-185658089D03*
%TO.N,CAN_H*%
X191190000Y-138090000D03*
X168060000Y-167290000D03*
X170380000Y-165110000D03*
X180120000Y-150400000D03*
%TO.N,CAN_L*%
X164750000Y-175080000D03*
X173400000Y-175670000D03*
X170320000Y-176520000D03*
X192010000Y-140020000D03*
%TO.N,HV_AUX1+*%
X144010000Y-112770000D03*
X149220000Y-112770000D03*
%TO.N,HV_AUX1-*%
X164020000Y-114430000D03*
X145870000Y-115150000D03*
%TO.N,ROUT+*%
X159230000Y-104040000D03*
X158910000Y-117060000D03*
X159230000Y-101330000D03*
X163360000Y-110430000D03*
X165820000Y-114980000D03*
%TO.N,ROUT-*%
X169210000Y-147320000D03*
X158680000Y-125660000D03*
X157580000Y-129200000D03*
X179090000Y-147600000D03*
X164380000Y-135760000D03*
X178710000Y-149360000D03*
X180840000Y-153270000D03*
%TO.N,LOUT+*%
X182580000Y-145640000D03*
X180010000Y-146880000D03*
%TO.N,LOUT-*%
X180490000Y-136930000D03*
X172830000Y-134920000D03*
X171790000Y-131470000D03*
X167600000Y-133220000D03*
%TO.N,CRITICAL_LED*%
X137000000Y-131930000D03*
X137000000Y-128460000D03*
%TO.N,CR-*%
X148140000Y-169010000D03*
%TO.N,IMD-*%
X146990000Y-168980000D03*
%TO.N,BMS-*%
X149410000Y-153820000D03*
X145290000Y-170870000D03*
X142110000Y-150810000D03*
%TO.N,BSPD-*%
X141170000Y-173670000D03*
X132060000Y-155300000D03*
X137990000Y-153890000D03*
%TO.N,HVD-*%
X146180000Y-170000000D03*
%TO.N,-*%
X124285000Y-156865000D03*
%TO.N,LCD_SDA*%
X172100000Y-139150000D03*
%TO.N,LCD_SCL*%
X163370000Y-120820000D03*
X167890000Y-117740000D03*
%TO.N,1*%
X112010000Y-124730000D03*
X116550000Y-129440000D03*
%TO.N,2*%
X151144520Y-159384520D03*
X210790000Y-189350000D03*
X159485000Y-162525000D03*
X176090000Y-169580000D03*
X171170000Y-166640000D03*
X116890000Y-159100000D03*
%TO.N,3*%
X110430000Y-170280000D03*
X214740000Y-134460000D03*
X116850000Y-161140000D03*
X116195489Y-165954511D03*
X185820000Y-97720000D03*
X115970000Y-168950000D03*
X211960000Y-135340000D03*
X113840000Y-169060000D03*
%TO.N,4*%
X179120000Y-168790000D03*
X198470000Y-140010000D03*
X164190000Y-168610000D03*
X118830000Y-163050000D03*
X196480000Y-141640000D03*
X116920000Y-163030000D03*
X120650000Y-165260000D03*
X215090000Y-128430000D03*
X146180000Y-174230000D03*
X171015489Y-174945489D03*
X151310000Y-179360000D03*
X126760000Y-164770000D03*
%TD*%
D20*
%TO.N,GND*%
X186749200Y-181431600D02*
X182328400Y-181431600D01*
X176560000Y-133590000D02*
X176560000Y-135210000D01*
X193398000Y-135970000D02*
X192488000Y-136880000D01*
X176560000Y-135210000D02*
X175330000Y-136440000D01*
X230820000Y-102862000D02*
X229733489Y-101775489D01*
X194188000Y-135180000D02*
X193398000Y-135970000D01*
X109855600Y-171430000D02*
X111049600Y-172624000D01*
X105174600Y-181870000D02*
X100104600Y-176800000D01*
X100104600Y-176800000D02*
X100104600Y-173465400D01*
X181140000Y-179110000D02*
X182190000Y-179110000D01*
X207598311Y-101775489D02*
X205743000Y-103630800D01*
X115889322Y-170400000D02*
X113610000Y-170400000D01*
X105174600Y-186744600D02*
X105174600Y-181870000D01*
X173870000Y-171840000D02*
X181140000Y-179110000D01*
X192488000Y-136880000D02*
X187660000Y-136880000D01*
X104630000Y-171430000D02*
X109855600Y-171430000D01*
X186749200Y-181431600D02*
X209609200Y-181431600D01*
X229733489Y-101775489D02*
X207598311Y-101775489D01*
X117704661Y-168584661D02*
X115889322Y-170400000D01*
X182328400Y-181431600D02*
X182250000Y-181510000D01*
%TO.N,BRAKE_DIN*%
X164350000Y-120020000D02*
X142390000Y-120020000D01*
X172980000Y-111390000D02*
X164350000Y-120020000D01*
%TO.N,Net-(Q7-Pad2)*%
X173980000Y-128795000D02*
X173980000Y-129020000D01*
X176149520Y-126625480D02*
X173980000Y-128795000D01*
X176149520Y-115840480D02*
X176149520Y-126625480D01*
X180600000Y-111390000D02*
X176149520Y-115840480D01*
%TO.N,HVD_IN*%
X140650000Y-119760000D02*
X142400000Y-118010000D01*
X172980000Y-109050000D02*
X164010000Y-118020000D01*
X135810000Y-119760000D02*
X140650000Y-119760000D01*
X142410000Y-118020000D02*
X142400000Y-118010000D01*
X126200000Y-133240000D02*
X126200000Y-124920000D01*
X164010000Y-118020000D02*
X142410000Y-118020000D01*
%TO.N,BSPD_IN*%
X127560000Y-133980000D02*
X127560000Y-124513086D01*
X127560000Y-124513086D02*
X131640000Y-120433086D01*
X131640000Y-118920000D02*
X137270000Y-113290000D01*
X163680000Y-116020000D02*
X172980000Y-106720000D01*
X143290000Y-116020000D02*
X143270000Y-116040000D01*
X139400000Y-113880000D02*
X138000000Y-115280000D01*
X139400000Y-113290000D02*
X139400000Y-113880000D01*
X143290000Y-116020000D02*
X163680000Y-116020000D01*
X143270000Y-116040000D02*
X142360000Y-116040000D01*
X131640000Y-120433086D02*
X131640000Y-118920000D01*
X137270000Y-113290000D02*
X139400000Y-113290000D01*
%TO.N,BMS_IN*%
X132254511Y-119735489D02*
X137760000Y-114230000D01*
X132254511Y-128054511D02*
X132254511Y-119735489D01*
X143410000Y-114020000D02*
X163360000Y-114020000D01*
X163360000Y-114020000D02*
X172980000Y-104400000D01*
X143410000Y-114020000D02*
X143400000Y-114030000D01*
X143400000Y-114030000D02*
X142300000Y-114030000D01*
%TO.N,IMD_IN*%
X136010000Y-131270000D02*
X135660000Y-130920000D01*
X142310000Y-112020000D02*
X163070000Y-112020000D01*
X163070000Y-112020000D02*
X173000000Y-102090000D01*
X135660000Y-123170000D02*
X134140000Y-121650000D01*
X135660000Y-130920000D02*
X135660000Y-123170000D01*
X134140000Y-121650000D02*
X134140000Y-120190000D01*
X134140000Y-120190000D02*
X142310000Y-112020000D01*
%TO.N,LV_ACTIVE*%
X173000000Y-113680000D02*
X164660000Y-122020000D01*
X142460000Y-122020000D02*
X142450000Y-122030000D01*
X164660000Y-122020000D02*
X142460000Y-122020000D01*
%TO.N,Net-(Q8-Pad2)*%
X182189520Y-126734078D02*
X180080000Y-128843598D01*
X182189520Y-115249520D02*
X182189520Y-126734078D01*
X180080000Y-128843598D02*
X180080000Y-129000000D01*
X180620000Y-113680000D02*
X182189520Y-115249520D01*
%TO.N,3V3*%
X108509600Y-175164000D02*
X109963089Y-176617489D01*
X154230000Y-136570000D02*
X131530000Y-136570000D01*
X190910000Y-130190000D02*
X179360000Y-130190000D01*
X179360000Y-130190000D02*
X178810000Y-129640000D01*
X108509600Y-180244000D02*
X108708614Y-180244000D01*
X205743000Y-118870800D02*
X202189200Y-118870800D01*
X157296511Y-133503489D02*
X154230000Y-136570000D01*
X193775000Y-127315000D02*
X193775000Y-127325000D01*
X150897444Y-163787444D02*
X142006599Y-172678289D01*
X146448289Y-172678289D02*
X142006599Y-172678289D01*
X114860000Y-186395386D02*
X115610000Y-186395386D01*
X191648000Y-130928000D02*
X191648000Y-135180000D01*
X157296511Y-133503489D02*
X172760000Y-118040000D01*
X223200000Y-102862000D02*
X221751800Y-102862000D01*
X108708614Y-180244000D02*
X114860000Y-186395386D01*
X178810000Y-129640000D02*
X178810000Y-129000000D01*
X178780000Y-118040000D02*
X178780000Y-123550000D01*
X190910000Y-130190000D02*
X191648000Y-130928000D01*
X178780000Y-123550000D02*
X178800000Y-123570000D01*
X162970000Y-189200000D02*
X146448289Y-172678289D01*
X109963089Y-178790511D02*
X108509600Y-180244000D01*
X115610000Y-186395386D02*
X111426186Y-190579200D01*
X156270000Y-158940000D02*
X157296511Y-157913489D01*
X221751800Y-102862000D02*
X205743000Y-118870800D01*
X111426186Y-190579200D02*
X110169200Y-190579200D01*
X202189200Y-118870800D02*
X198710000Y-122350000D01*
X109963089Y-176617489D02*
X109963089Y-178790511D01*
X157296511Y-157913489D02*
X157296511Y-133503489D01*
X193775000Y-127325000D02*
X190910000Y-130190000D01*
%TO.N,IMD_Pin*%
X120290000Y-145160000D02*
X114490000Y-145160000D01*
X132132708Y-133317292D02*
X120290000Y-145160000D01*
X175300000Y-118040000D02*
X175300000Y-117883598D01*
X175300000Y-117883598D02*
X174381891Y-116965489D01*
X155558686Y-133317292D02*
X132132708Y-133317292D01*
X174381891Y-116965489D02*
X171910489Y-116965489D01*
X171910489Y-116965489D02*
X155558686Y-133317292D01*
%TO.N,BMS_Pin*%
X181624511Y-111814367D02*
X181624511Y-110674655D01*
X181018878Y-112420000D02*
X181624511Y-111814367D01*
X130470000Y-132720000D02*
X130460000Y-132720000D01*
X177818878Y-110310000D02*
X155408878Y-132720000D01*
X181320000Y-117815000D02*
X179595489Y-116090489D01*
X155408878Y-132720000D02*
X130640000Y-132720000D01*
X181259856Y-110310000D02*
X177818878Y-110310000D01*
X130640000Y-132720000D02*
X130470000Y-132720000D01*
X179595489Y-116090489D02*
X179595489Y-113255633D01*
X179595489Y-113255633D02*
X180431122Y-112420000D01*
X180431122Y-112420000D02*
X181018878Y-112420000D01*
X120400000Y-142780000D02*
X120120000Y-143060000D01*
X181320000Y-118040000D02*
X181320000Y-117815000D01*
X120120000Y-143060000D02*
X114550000Y-143060000D01*
X130460000Y-132720000D02*
X120400000Y-142780000D01*
X181624511Y-110674655D02*
X181259856Y-110310000D01*
%TO.N,RTD_ACTIVE_Pin*%
X112190000Y-114910000D02*
X112910000Y-114910000D01*
X113055489Y-124329511D02*
X115669511Y-124329511D01*
X122240000Y-132820000D02*
X124050000Y-132820000D01*
X112910000Y-114910000D02*
X113880000Y-113940000D01*
X122220000Y-132840000D02*
X122240000Y-132820000D01*
X121565978Y-130225978D02*
X121565978Y-132840000D01*
X113055489Y-124329511D02*
X113055489Y-114764511D01*
X122220000Y-132840000D02*
X121565978Y-132840000D01*
X115669511Y-124329511D02*
X121565978Y-130225978D01*
X113055489Y-114764511D02*
X113880000Y-113940000D01*
%TO.N,BSPD_Pin*%
X157746031Y-159000529D02*
X156448701Y-160297859D01*
X116590103Y-167044511D02*
X115844511Y-167044511D01*
X157746031Y-141328969D02*
X157746031Y-159000529D01*
X123336755Y-160297859D02*
X116590103Y-167044511D01*
X156448701Y-160297859D02*
X123336755Y-160297859D01*
X175300000Y-123775000D02*
X157746031Y-141328969D01*
X175300000Y-123550000D02*
X175300000Y-123775000D01*
X112400000Y-143390000D02*
X114700000Y-141090000D01*
X115844511Y-167044511D02*
X112160000Y-163360000D01*
X112160000Y-143390000D02*
X112400000Y-143390000D01*
X112160000Y-163360000D02*
X112160000Y-143390000D01*
%TO.N,HVD_Pin*%
X170200000Y-135710000D02*
X170200000Y-149086560D01*
X156720049Y-162566511D02*
X135389132Y-162566511D01*
X181340000Y-123570000D02*
X181340000Y-124570000D01*
X135389132Y-162566511D02*
X130461612Y-167494031D01*
X181340000Y-124570000D02*
X170200000Y-135710000D01*
X170200000Y-149086560D02*
X156720049Y-162566511D01*
X111710480Y-130629520D02*
X115110480Y-130629520D01*
X130461612Y-167494031D02*
X115658314Y-167494031D01*
X115658314Y-167494031D02*
X111710480Y-163546197D01*
X111710480Y-163546197D02*
X111710480Y-130629520D01*
X115110480Y-130629520D02*
X115450000Y-130290000D01*
%TO.N,APPS*%
X176870000Y-143450000D02*
X181380000Y-138940000D01*
X181380000Y-138940000D02*
X181380000Y-133870000D01*
%TO.N,LV*%
X172723489Y-157793489D02*
X173870000Y-158940000D01*
X173810000Y-143410000D02*
X172723489Y-144496511D01*
X172723489Y-144496511D02*
X172723489Y-157793489D01*
X178840000Y-133870000D02*
X178840000Y-135840000D01*
X183083089Y-182845489D02*
X186749200Y-186511600D01*
X174710000Y-174220000D02*
X174710000Y-175739856D01*
X181815633Y-182845489D02*
X183083089Y-182845489D01*
X174710000Y-175739856D02*
X181815633Y-182845489D01*
X178840000Y-135840000D02*
X173810000Y-140870000D01*
%TO.N,BRAKE_Pin*%
X118230000Y-122280000D02*
X113780000Y-117830000D01*
X167855000Y-136640000D02*
X165540000Y-136640000D01*
X175250000Y-129020000D02*
X175250000Y-129245000D01*
X128768472Y-122280000D02*
X118230000Y-122280000D01*
X175250000Y-129245000D02*
X167855000Y-136640000D01*
%TO.N,5V*%
X151920000Y-126040000D02*
X154500000Y-123460000D01*
X156210000Y-140870000D02*
X141740000Y-140870000D01*
X162970000Y-179040000D02*
X162970000Y-162460000D01*
X156210000Y-135980000D02*
X156390000Y-135800000D01*
X120675000Y-158935000D02*
X123675000Y-158935000D01*
X154500000Y-123460000D02*
X157100000Y-123460000D01*
X162970000Y-162460000D02*
X161900000Y-161390000D01*
X156210000Y-140870000D02*
X156210000Y-135980000D01*
X151920000Y-129300000D02*
X151920000Y-126040000D01*
X141740000Y-140870000D02*
X123675000Y-158935000D01*
X116800000Y-155060000D02*
X120675000Y-158935000D01*
%TO.N,I2C2_SDA*%
X115150000Y-151070000D02*
X121580000Y-157500000D01*
X169050000Y-187660000D02*
X170590000Y-189200000D01*
X114560000Y-151070000D02*
X115150000Y-151070000D01*
X163930000Y-187660000D02*
X169050000Y-187660000D01*
X121580000Y-157500000D02*
X121580000Y-157740000D01*
%TO.N,ESP_TX*%
X116820000Y-123650000D02*
X116000000Y-123650000D01*
X103905489Y-150594511D02*
X105090000Y-149410000D01*
X105850000Y-173480000D02*
X104640000Y-173480000D01*
X103905489Y-172745489D02*
X103905489Y-150594511D01*
X116000000Y-123650000D02*
X114140000Y-121790000D01*
X104640000Y-173480000D02*
X103905489Y-172745489D01*
%TO.N,GPS_TX*%
X228280000Y-116554614D02*
X210159125Y-134675489D01*
X113835489Y-161514511D02*
X112970000Y-162380000D01*
X148775489Y-180155489D02*
X118170151Y-180155489D01*
X116855640Y-181470000D02*
X113870000Y-181470000D01*
X118170151Y-180155489D02*
X116855640Y-181470000D01*
X149480000Y-180860000D02*
X148775489Y-180155489D01*
X189440000Y-145640000D02*
X188460000Y-146620000D01*
X114670000Y-149660000D02*
X113835489Y-150494511D01*
X182230000Y-139990000D02*
X182230000Y-136430000D01*
X191310000Y-145640000D02*
X189440000Y-145640000D01*
X207554511Y-134675489D02*
X200000000Y-142230000D01*
X210159125Y-134675489D02*
X207554511Y-134675489D01*
X228280000Y-102862000D02*
X228280000Y-116554614D01*
X177960000Y-144260000D02*
X182230000Y-139990000D01*
X177960000Y-144840000D02*
X177960000Y-144260000D01*
X113835489Y-150494511D02*
X113835489Y-161514511D01*
%TO.N,GPS_RX*%
X113010000Y-146980000D02*
X114270000Y-148240000D01*
X105980000Y-181890000D02*
X101790000Y-177700000D01*
X101790000Y-177700000D02*
X101790000Y-150430000D01*
X114270000Y-148240000D02*
X114530000Y-148240000D01*
X101790000Y-150430000D02*
X105800000Y-146420000D01*
X105800000Y-146420000D02*
X109650000Y-146420000D01*
X113010000Y-146890000D02*
X113010000Y-146980000D01*
%TO.N,CAN1_RX*%
X188450000Y-96970000D02*
X174980000Y-96970000D01*
X192000000Y-100520000D02*
X188450000Y-96970000D01*
X171280000Y-100660000D02*
X171290000Y-100660000D01*
X171290000Y-100660000D02*
X174815000Y-97135000D01*
X174980000Y-96970000D02*
X174815000Y-97135000D01*
X169470000Y-102470000D02*
X171280000Y-100660000D01*
X192000000Y-127090000D02*
X192000000Y-100520000D01*
X121720000Y-102470000D02*
X169470000Y-102470000D01*
%TO.N,CAN1_TX*%
X185107311Y-102177311D02*
X183060000Y-100130000D01*
X196728000Y-135180000D02*
X196728000Y-101958000D01*
X196728000Y-101958000D02*
X196728000Y-101888000D01*
X183060000Y-100130000D02*
X179900000Y-100130000D01*
%TO.N,RTDS*%
X111260960Y-169075574D02*
X111260960Y-114679040D01*
X211900000Y-138650000D02*
X211900000Y-191070000D01*
X208650000Y-135400000D02*
X211900000Y-138650000D01*
X119395640Y-189090000D02*
X113145489Y-182839849D01*
X111260960Y-114679040D02*
X114050000Y-111890000D01*
X211900000Y-191070000D02*
X139880000Y-191070000D01*
X139880000Y-191070000D02*
X137900000Y-189090000D01*
X137900000Y-189090000D02*
X119395640Y-189090000D01*
X113145489Y-182839849D02*
X113145489Y-170960103D01*
X113145489Y-170960103D02*
X111260960Y-169075574D01*
%TO.N,BOOT0*%
X98550000Y-123260000D02*
X115490000Y-106320000D01*
X107176030Y-188492370D02*
X105385810Y-188492370D01*
X105385810Y-188492370D02*
X98550000Y-181656560D01*
X115490000Y-106320000D02*
X115490000Y-105960000D01*
X110169200Y-185499200D02*
X107176030Y-188492370D01*
X98550000Y-181656560D02*
X98550000Y-123260000D01*
%TO.N,Net-(SW2-Pad2)*%
X108475000Y-185485000D02*
X110700000Y-183260000D01*
X106548089Y-185658089D02*
X108301911Y-185658089D01*
X108301911Y-185658089D02*
X108475000Y-185485000D01*
%TO.N,Net-(SW1-Pad1)*%
X106088600Y-177704000D02*
X105184600Y-176800000D01*
X108509600Y-177704000D02*
X106088600Y-177704000D01*
%TO.N,CAN_H*%
X170240000Y-165110000D02*
X170380000Y-165110000D01*
X168060000Y-167290000D02*
X170240000Y-165110000D01*
X191190000Y-138090000D02*
X180120000Y-149160000D01*
X180120000Y-149160000D02*
X180120000Y-150400000D01*
%TO.N,CAN_L*%
X174956511Y-154538875D02*
X174956511Y-169823489D01*
X172783489Y-171389951D02*
X172783489Y-175053489D01*
X174956511Y-169823489D02*
X174080000Y-170700000D01*
X168880000Y-175080000D02*
X164750000Y-175080000D01*
X174080000Y-170700000D02*
X173473440Y-170700000D01*
X170320000Y-176520000D02*
X168880000Y-175080000D01*
X173473440Y-170700000D02*
X172783489Y-171389951D01*
X172783489Y-175053489D02*
X173400000Y-175670000D01*
X177491125Y-154538875D02*
X174956511Y-154538875D01*
X192010000Y-140020000D02*
X177491125Y-154538875D01*
D21*
%TO.N,HV_AUX1+*%
X149220000Y-112770000D02*
X144010000Y-112770000D01*
%TO.N,HV_AUX1-*%
X145870000Y-115150000D02*
X163300000Y-115150000D01*
X163300000Y-115150000D02*
X164020000Y-114430000D01*
%TO.N,ROUT+*%
X192815489Y-96435489D02*
X164124511Y-96435489D01*
X195640000Y-99260000D02*
X192815489Y-96435489D01*
X159230000Y-104040000D02*
X159230000Y-108160000D01*
X161500000Y-110430000D02*
X163360000Y-110430000D01*
X209609200Y-153491600D02*
X195666489Y-139548889D01*
X159230000Y-108160000D02*
X161500000Y-110430000D01*
X195666489Y-99286489D02*
X195640000Y-99260000D01*
X163740000Y-117060000D02*
X158910000Y-117060000D01*
X195666489Y-139548889D02*
X195666489Y-99286489D01*
X165820000Y-114980000D02*
X163740000Y-117060000D01*
X164124511Y-96435489D02*
X159230000Y-101330000D01*
%TO.N,ROUT-*%
X157580000Y-126760000D02*
X157580000Y-129200000D01*
X179090000Y-147600000D02*
X178710000Y-147980000D01*
X210600000Y-156540000D02*
X211070000Y-156070000D01*
X180840000Y-153270000D02*
X182123111Y-154553111D01*
X178710000Y-147980000D02*
X178710000Y-149360000D01*
X211070000Y-149872400D02*
X209609200Y-148411600D01*
X208613111Y-154553111D02*
X210600000Y-156540000D01*
X164380000Y-136469259D02*
X169210000Y-141299259D01*
X158680000Y-125660000D02*
X157580000Y-126760000D01*
X169210000Y-141299259D02*
X169210000Y-147320000D01*
X164380000Y-135760000D02*
X164380000Y-136469259D01*
X182123111Y-154553111D02*
X208613111Y-154553111D01*
X211070000Y-156070000D02*
X211070000Y-149872400D01*
%TO.N,LOUT+*%
X181340000Y-146880000D02*
X182580000Y-145640000D01*
X180010000Y-146880000D02*
X181340000Y-146880000D01*
%TO.N,LOUT-*%
X173351511Y-141931511D02*
X172720000Y-141300000D01*
X172720000Y-141300000D02*
X172720000Y-139510000D01*
X171790000Y-131470000D02*
X169350000Y-131470000D01*
X172830000Y-139400000D02*
X172830000Y-134920000D01*
X172720000Y-139510000D02*
X172830000Y-139400000D01*
X180490000Y-136930000D02*
X175488489Y-141931511D01*
X169350000Y-131470000D02*
X167600000Y-133220000D01*
X175488489Y-141931511D02*
X173351511Y-141931511D01*
D20*
%TO.N,CRITICAL_LED*%
X137000000Y-128460000D02*
X137000000Y-131930000D01*
%TO.N,CR-*%
X148140000Y-170826560D02*
X148140000Y-169010000D01*
X157623440Y-180310000D02*
X148140000Y-170826560D01*
X174570000Y-179110000D02*
X173370000Y-180310000D01*
X173370000Y-180310000D02*
X157623440Y-180310000D01*
%TO.N,IMD-*%
X146990000Y-170312278D02*
X146990000Y-168980000D01*
X158187722Y-181510000D02*
X146990000Y-170312278D01*
X174630000Y-181510000D02*
X158187722Y-181510000D01*
%TO.N,BMS-*%
X145120000Y-153820000D02*
X142110000Y-150810000D01*
X174610000Y-186170000D02*
X160590000Y-186170000D01*
X160590000Y-186170000D02*
X145290000Y-170870000D01*
X149410000Y-153820000D02*
X145120000Y-153820000D01*
%TO.N,BSPD-*%
X159736511Y-190286511D02*
X158976511Y-189526511D01*
X158976511Y-189526511D02*
X158976511Y-188726511D01*
X158976511Y-188726511D02*
X143920000Y-173670000D01*
X174610000Y-188550000D02*
X172873489Y-190286511D01*
X172873489Y-190286511D02*
X159736511Y-190286511D01*
X132060000Y-155300000D02*
X136580000Y-155300000D01*
X143920000Y-173670000D02*
X141170000Y-173670000D01*
X136580000Y-155300000D02*
X137990000Y-153890000D01*
%TO.N,HVD-*%
X146180000Y-170610000D02*
X146180000Y-170000000D01*
X159440000Y-183870000D02*
X146180000Y-170610000D01*
X160530000Y-183870000D02*
X159440000Y-183870000D01*
X174620000Y-183870000D02*
X160530000Y-183870000D01*
%TO.N,-*%
X114850103Y-142335489D02*
X114249897Y-142335489D01*
X119820000Y-137365592D02*
X114850103Y-142335489D01*
X113765489Y-142819897D02*
X113765489Y-146345489D01*
X114249897Y-142335489D02*
X113765489Y-142819897D01*
X113765489Y-146345489D02*
X124285000Y-156865000D01*
X119820000Y-131340000D02*
X119820000Y-137365592D01*
%TO.N,LCD_SDA*%
X172100000Y-139150000D02*
X172100000Y-177530000D01*
X172100000Y-177530000D02*
X170590000Y-179040000D01*
%TO.N,LCD_SCL*%
X164810000Y-120820000D02*
X163370000Y-120820000D01*
X167890000Y-117740000D02*
X164810000Y-120820000D01*
%TO.N,1*%
X112010000Y-124900000D02*
X116550000Y-129440000D01*
X112010000Y-124730000D02*
X112010000Y-124900000D01*
%TO.N,2*%
X116890000Y-159100000D02*
X117174520Y-159384520D01*
X117174520Y-159384520D02*
X151144520Y-159384520D01*
X211280000Y-181565840D02*
X211280000Y-188860000D01*
X166950000Y-169400000D02*
X168920000Y-169400000D01*
X199294160Y-169580000D02*
X211280000Y-181565840D01*
X166950000Y-164590000D02*
X166950000Y-169400000D01*
X211280000Y-188860000D02*
X210790000Y-189350000D01*
X161344511Y-160665489D02*
X163025489Y-160665489D01*
X168920000Y-169400000D02*
X171170000Y-167150000D01*
X171170000Y-167150000D02*
X171170000Y-166640000D01*
X163025489Y-160665489D02*
X166950000Y-164590000D01*
X159485000Y-162525000D02*
X161344511Y-160665489D01*
X176090000Y-169580000D02*
X199294160Y-169580000D01*
%TO.N,3*%
X212840000Y-134460000D02*
X211960000Y-135340000D01*
X175921122Y-97720000D02*
X170391122Y-103250000D01*
X110430000Y-114485386D02*
X110430000Y-170280000D01*
X115860000Y-169060000D02*
X115970000Y-168950000D01*
X116850000Y-161140000D02*
X116195489Y-161794511D01*
X170391122Y-103250000D02*
X121665386Y-103250000D01*
X116195489Y-161794511D02*
X116195489Y-165954511D01*
X214740000Y-134460000D02*
X212840000Y-134460000D01*
X185820000Y-97720000D02*
X175921122Y-97720000D01*
X113840000Y-169060000D02*
X115860000Y-169060000D01*
X121665386Y-103250000D02*
X110430000Y-114485386D01*
%TO.N,4*%
X164210000Y-168590000D02*
X164190000Y-168610000D01*
X198470000Y-140010000D02*
X201054560Y-140010000D01*
X164660000Y-168590000D02*
X164210000Y-168590000D01*
X171015489Y-174945489D02*
X164660000Y-168590000D01*
X179120000Y-153965386D02*
X179120000Y-168790000D01*
X116920000Y-163030000D02*
X118820000Y-163030000D01*
X209720000Y-134090000D02*
X215090000Y-128720000D01*
X206974560Y-134090000D02*
X209720000Y-134090000D01*
X121140000Y-164770000D02*
X120650000Y-165260000D01*
X151310000Y-179360000D02*
X146180000Y-174230000D01*
X126760000Y-164770000D02*
X121140000Y-164770000D01*
X196480000Y-141640000D02*
X191445386Y-141640000D01*
X191445386Y-141640000D02*
X179120000Y-153965386D01*
X215090000Y-128720000D02*
X215090000Y-128430000D01*
X201054560Y-140010000D02*
X206974560Y-134090000D01*
%TD*%
M02*
