M48
; DRILL file {KiCad (6.0.2)} date Tue Aug  9 18:47:33 2022
; FORMAT={-:-/ absolute / metric / decimal}
; #@! TF.CreationDate,2022-08-09T18:47:33+09:00
; #@! TF.GenerationSoftware,Kicad,Pcbnew,(6.0.2)
; #@! TF.FileFunction,Plated,1,2,PTH
FMAT,2
METRIC
; #@! TA.AperFunction,Plated,PTH,ViaDrill
T1C0.400
; #@! TA.AperFunction,Plated,PTH,ComponentDrill
T2C0.700
; #@! TA.AperFunction,Plated,PTH,ComponentDrill
T3C0.750
; #@! TA.AperFunction,Plated,PTH,ComponentDrill
T4C1.050
; #@! TA.AperFunction,Plated,PTH,ComponentDrill
T5C1.100
; #@! TA.AperFunction,Plated,PTH,ComponentDrill
T6C1.200
; #@! TA.AperFunction,Plated,PTH,ViaDrill
T7C3.090
; #@! TA.AperFunction,Plated,PTH,ComponentDrill
T8C3.600
%
G90
G05
T1
X100.105Y-173.465
X104.63Y-171.43
X105.09Y-149.41
X105.85Y-173.48
X105.98Y-181.89
X106.548Y-185.658
X109.65Y-146.42
X110.43Y-170.28
X110.7Y-183.26
X112.01Y-124.73
X112.19Y-114.91
X112.97Y-162.38
X113.01Y-146.89
X113.61Y-170.4
X113.78Y-117.83
X113.84Y-169.06
X113.87Y-181.47
X113.88Y-113.94
X114.05Y-111.89
X114.14Y-121.79
X114.49Y-145.16
X114.53Y-148.24
X114.55Y-143.06
X114.56Y-151.07
X114.67Y-149.66
X114.7Y-141.09
X115.45Y-130.29
X115.49Y-105.96
X115.61Y-186.395
X115.97Y-168.95
X116.195Y-165.955
X116.55Y-129.44
X116.8Y-155.06
X116.82Y-123.65
X116.85Y-161.14
X116.89Y-159.1
X116.92Y-163.03
X117.705Y-168.585
X118.83Y-163.05
X120.65Y-165.26
X121.58Y-157.74
X121.72Y-102.47
X124.285Y-156.865
X126.2Y-124.92
X126.2Y-133.24
X126.76Y-164.77
X127.56Y-133.98
X128.768Y-122.28
X131.53Y-136.57
X132.06Y-155.3
X132.255Y-128.055
X135.81Y-119.76
X136.01Y-131.27
X137.0Y-128.46
X137.0Y-131.93
X137.76Y-114.23
X137.99Y-153.89
X138.0Y-115.28
X141.17Y-173.67
X142.11Y-150.81
X142.3Y-114.03
X142.31Y-112.02
X142.36Y-116.04
X142.39Y-120.02
X142.4Y-118.01
X142.45Y-122.03
X144.01Y-112.77
X145.29Y-170.87
X145.87Y-115.15
X146.18Y-170.0
X146.18Y-174.23
X146.99Y-168.98
X148.14Y-169.01
X149.22Y-112.77
X149.41Y-153.82
X149.48Y-180.86
X150.897Y-163.787
X151.145Y-159.385
X151.31Y-179.36
X151.92Y-129.3
X156.39Y-135.8
X157.1Y-123.46
X157.58Y-129.2
X158.68Y-125.66
X158.91Y-117.06
X159.23Y-101.33
X159.23Y-104.04
X159.485Y-162.525
X161.9Y-161.39
X163.36Y-110.43
X163.37Y-120.82
X163.93Y-187.66
X164.02Y-114.43
X164.19Y-168.61
X164.38Y-135.76
X164.75Y-175.08
X165.54Y-136.64
X165.82Y-114.98
X167.6Y-133.22
X167.89Y-117.74
X168.06Y-167.29
X169.21Y-147.32
X170.32Y-176.52
X170.38Y-165.11
X171.015Y-174.945
X171.17Y-166.64
X171.79Y-131.47
X172.1Y-139.15
X172.83Y-134.92
X173.4Y-175.67
X174.71Y-174.22
X175.33Y-136.44
X176.09Y-169.58
X176.56Y-133.59
X176.87Y-143.45
X177.96Y-144.84
X178.71Y-149.36
X179.09Y-147.6
X179.12Y-168.79
X179.9Y-100.13
X180.01Y-146.88
X180.12Y-150.4
X180.49Y-136.93
X180.84Y-153.27
X182.23Y-136.43
X182.58Y-145.64
X185.107Y-102.177
X185.82Y-97.72
X187.66Y-136.88
X188.46Y-146.62
X191.19Y-138.09
X191.31Y-145.64
X192.0Y-127.09
X192.01Y-140.02
X193.775Y-127.315
X196.48Y-141.64
X196.728Y-101.888
X198.47Y-140.01
X198.71Y-122.35
X200.0Y-142.23
X208.65Y-135.4
X210.79Y-189.35
X211.96Y-135.34
X214.74Y-134.46
X215.09Y-128.43
T2
X119.82Y-131.34
X119.82Y-138.96
X172.98Y-104.4
X172.98Y-106.72
X172.98Y-109.05
X172.98Y-111.39
X173.0Y-102.09
X173.0Y-113.68
X174.57Y-179.11
X174.61Y-186.17
X174.61Y-188.55
X174.62Y-183.87
X174.63Y-181.51
X180.6Y-104.4
X180.6Y-106.72
X180.6Y-109.05
X180.6Y-111.39
X180.62Y-102.09
X180.62Y-113.68
X182.19Y-179.11
X182.23Y-186.17
X182.23Y-188.55
X182.24Y-183.87
X182.25Y-181.51
T3
X124.05Y-131.55
X124.05Y-132.82
X124.05Y-134.09
X172.71Y-129.02
X172.76Y-118.04
X172.76Y-123.55
X173.98Y-129.02
X174.03Y-118.04
X174.03Y-123.55
X175.25Y-129.02
X175.3Y-118.04
X175.3Y-123.55
X178.78Y-118.04
X178.8Y-123.57
X178.81Y-129.0
X178.84Y-133.87
X180.05Y-118.04
X180.07Y-123.57
X180.08Y-129.0
X180.11Y-133.87
X181.32Y-118.04
X181.34Y-123.57
X181.35Y-129.0
X181.38Y-133.87
T4
X187.963Y-101.091
X187.963Y-103.631
X187.963Y-106.171
X187.963Y-108.711
X187.963Y-111.251
X187.963Y-113.791
X187.963Y-116.331
X187.963Y-118.871
X205.743Y-101.091
X205.743Y-103.631
X205.743Y-106.171
X205.743Y-108.711
X205.743Y-111.251
X205.743Y-113.791
X205.743Y-116.331
X205.743Y-118.871
T5
X100.095Y-179.125
X100.095Y-186.745
X100.105Y-169.18
X100.105Y-176.8
X105.175Y-179.125
X105.175Y-186.745
X105.185Y-169.18
X105.185Y-176.8
X108.51Y-172.624
X108.51Y-175.164
X108.51Y-177.704
X108.51Y-180.244
X110.169Y-185.499
X110.169Y-190.579
X111.05Y-172.624
X111.05Y-175.164
X111.05Y-177.704
X111.05Y-180.244
X117.789Y-185.499
X117.789Y-190.579
X156.21Y-140.87
X156.21Y-143.41
X156.21Y-151.23
X156.21Y-153.77
X156.27Y-158.94
X156.27Y-161.48
X156.27Y-169.3
X156.27Y-171.84
X157.89Y-179.04
X157.89Y-189.2
X160.43Y-179.04
X160.43Y-189.2
X162.97Y-179.04
X162.97Y-189.2
X165.51Y-179.04
X165.51Y-189.2
X168.05Y-179.04
X168.05Y-189.2
X170.59Y-179.04
X170.59Y-189.2
X173.81Y-140.87
X173.81Y-143.41
X173.81Y-151.23
X173.81Y-153.77
X173.87Y-158.94
X173.87Y-161.48
X173.87Y-169.3
X173.87Y-171.84
X186.749Y-148.412
X186.749Y-153.492
X186.749Y-181.432
X186.749Y-186.512
X209.609Y-148.412
X209.609Y-153.492
X209.609Y-176.352
X209.609Y-181.432
X209.609Y-186.512
X223.2Y-102.862
X225.74Y-102.862
X228.28Y-102.862
X230.82Y-102.862
T6
X191.648Y-135.18
X194.188Y-135.18
X196.728Y-135.18
X199.268Y-135.18
X201.808Y-135.18
X204.348Y-135.18
T7
X21.0Y-97.74
X21.0Y-188.28
X238.0Y-97.74
X238.0Y-188.28
T8
X27.266Y-102.45
X27.266Y-181.45
X93.266Y-102.45
X93.266Y-181.45
T0
M30
