M48
; DRILL file {KiCad (6.0.5)} date Sat Jul 29 02:07:14 2023
; FORMAT={-:-/ absolute / metric / decimal}
; #@! TF.CreationDate,2023-07-29T02:07:14+09:00
; #@! TF.GenerationSoftware,Kicad,Pcbnew,(6.0.5)
; #@! TF.FileFunction,Plated,1,2,PTH
FMAT,2
METRIC
; #@! TA.AperFunction,Plated,PTH,ViaDrill
T1C0.200
; #@! TA.AperFunction,Plated,PTH,ComponentDrill
T2C0.200
; #@! TA.AperFunction,Plated,PTH,ViaDrill
T3C0.400
; #@! TA.AperFunction,Plated,PTH,ComponentDrill
T4C0.800
; #@! TA.AperFunction,Plated,PTH,ComponentDrill
T5C0.864
; #@! TA.AperFunction,Plated,PTH,ComponentDrill
T6C0.900
; #@! TA.AperFunction,Plated,PTH,ViaDrill
T7C1.000
; #@! TA.AperFunction,Plated,PTH,ComponentDrill
T8C1.000
; #@! TA.AperFunction,Plated,PTH,ComponentDrill
T9C1.050
; #@! TA.AperFunction,Plated,PTH,ComponentDrill
T10C1.100
; #@! TA.AperFunction,Plated,PTH,ComponentDrill
T11C1.118
; #@! TA.AperFunction,Plated,PTH,ComponentDrill
T12C1.200
; #@! TA.AperFunction,Plated,PTH,ComponentDrill
T13C1.300
; #@! TA.AperFunction,Plated,PTH,ComponentDrill
T14C1.397
; #@! TA.AperFunction,Plated,PTH,ComponentDrill
T15C1.400
; #@! TA.AperFunction,Plated,PTH,ComponentDrill
T16C1.500
%
G90
G05
T1
X86.614Y83.312
T2
X227.289Y144.474
X227.289Y142.638
X228.206Y145.391
X228.206Y143.556
X228.206Y141.721
X229.124Y144.474
X229.124Y142.638
X230.041Y145.391
X230.041Y143.556
X230.041Y141.721
X230.959Y144.474
X230.959Y142.638
T3
X72.4Y133.604
X73.914Y71.882
X73.914Y70.612
X74.93Y160.02
X78.232Y80.01
X79.756Y133.604
X81.28Y84.328
X82.804Y136.652
X85.852Y115.824
X89.154Y110.236
X94.996Y67.564
X96.276Y74.422
X97.546Y60.452
X98.552Y130.048
X98.806Y118.872
X100.076Y118.618
X100.34Y141.224
X100.34Y139.446
X102.108Y104.902
X106.934Y121.158
X106.944Y108.712
X111.262Y108.458
X122.936Y62.992
X123.698Y67.564
X127.508Y74.422
X129.032Y59.944
X129.804Y85.09
X132.334Y126.746
X132.852Y140.97
X135.392Y145.034
X141.732Y89.154
X144.78Y98.044
X145.796Y117.602
X147.584Y95.508
X148.336Y97.028
X149.606Y98.044
X150.622Y99.06
X151.892Y101.854
X151.902Y91.694
X153.162Y166.624
X153.162Y113.538
X155.458Y136.652
X156.728Y165.1
X158.75Y68.326
X160.274Y163.83
X160.274Y68.072
X173.746Y98.806
X174.762Y74.168
X176.784Y97.727
X178.054Y134.62
X178.308Y120.396
X178.562Y118.872
X178.816Y116.332
X179.07Y70.104
X180.086Y92.202
X181.62Y91.186
X182.88Y135.636
X183.896Y87.122
X185.43Y135.636
X185.674Y87.122
X188.214Y61.468
X189.738Y60.452
X192.532Y83.058
X196.606Y83.312
X197.229Y162.306
X198.892Y161.29
X207.274Y72.39
X208.534Y130.048
X210.058Y98.298
X211.328Y93.726
X215.392Y97.536
X217.434Y73.152
X217.932Y83.82
X217.932Y75.946
X218.694Y147.32
X219.974Y153.162
X220.98Y88.9
X221.234Y91.694
X221.234Y87.376
X222.768Y83.82
X223.774Y145.542
X224.282Y85.598
X225.054Y96.52
X228.102Y82.55
X228.356Y92.202
X232.928Y94.234
X234.442Y95.504
X237.236Y88.733
X238.252Y81.28
X238.252Y79.756
X239.278Y63.5
X240.548Y63.754
X241.808Y130.048
X242.58Y90.932
X242.834Y142.748
X247.406Y78.486
X247.65Y84.836
X247.914Y83.566
X247.914Y82.296
X248.168Y80.518
X249.946Y101.346
X250.698Y77.978
X251.206Y159.004
X252.222Y154.94
X257.316Y92.198
X257.81Y73.914
X258.064Y72.644
X258.064Y71.374
X258.318Y64.77
X261.884Y115.824
X263.408Y160.528
X263.652Y149.098
X264.668Y86.868
X265.43Y90.17
X266.192Y74.638
X266.446Y91.44
X266.7Y162.56
X267.208Y81.026
X267.716Y66.548
X267.97Y161.798
X268.986Y71.628
X269.25Y61.468
X269.494Y89.662
X270.266Y94.996
X270.51Y90.678
X271.78Y71.628
X272.542Y114.554
X272.796Y160.02
X275.336Y66.04
X275.844Y64.008
X276.362Y114.554
X276.849Y96.541
X278.638Y156.718
X280.162Y166.116
X280.162Y158.496
X281.686Y107.95
X282.194Y118.11
X283.718Y110.49
X285.496Y106.172
X287.538Y118.11
X288.554Y164.846
X289.306Y153.416
X289.824Y78.486
X292.354Y67.31
X293.126Y155.448
X293.634Y120.65
X294.894Y155.194
X295.656Y157.734
X298.958Y65.024
X299.72Y61.722
X305.318Y64.77
X306.07Y109.474
X306.324Y89.662
X306.578Y90.932
X307.858Y67.056
X308.366Y98.298
X309.128Y145.034
X309.128Y133.096
X309.382Y97.536
X310.351Y96.266
X312.684Y167.894
X314.96Y91.44
X316.494Y167.894
X317.5Y131.064
X317.764Y144.018
X318.018Y148.336
X318.272Y166.624
X318.516Y114.046
X319.786Y164.338
X321.31Y86.36
X324.104Y140.218
X324.104Y92.456
X324.114Y166.878
X325.892Y71.628
X326.146Y73.152
X328.178Y88.9
X329.438Y158.496
X330.962Y138.938
X331.988Y77.216
X333.512Y77.216
X334.274Y151.13
X334.518Y130.048
X334.518Y128.27
X336.042Y59.436
X336.804Y60.706
X339.862Y145.796
X340.116Y136.906
X340.868Y58.674
X341.64Y99.314
X341.64Y92.202
X346.842Y92.334
X347.228Y87.63
X348.488Y109.474
X349.25Y107.188
X350.012Y104.394
X350.736Y100.33
X352.054Y87.122
T4
X66.294Y57.15
X76.454Y57.15
X80.116Y165.354
X80.116Y162.814
X80.116Y160.274
X81.026Y155.956
X81.026Y145.796
X110.49Y95.504
X110.49Y85.344
X119.888Y95.504
X119.888Y85.344
X129.032Y67.564
X129.032Y64.77
X139.192Y67.564
X139.192Y64.77
X164.592Y145.542
X164.592Y141.986
X171.704Y113.792
X171.704Y110.236
X171.704Y107.442
X171.704Y104.648
X174.752Y145.542
X174.752Y141.986
X181.864Y113.792
X181.864Y110.236
X181.864Y107.442
X181.864Y104.648
X186.436Y63.5
X186.436Y53.34
X189.23Y63.5
X189.23Y53.34
X192.024Y63.5
X192.024Y53.34
X194.818Y63.5
X194.818Y53.34
X197.612Y63.5
X197.612Y53.34
X200.406Y63.5
X200.406Y53.34
X203.2Y63.5
X203.2Y53.34
X205.994Y63.5
X205.994Y53.34
X211.582Y53.34
X212.852Y57.298
X215.392Y57.298
X217.932Y57.298
X219.964Y93.832
X221.742Y53.34
X222.504Y93.832
X223.52Y126.492
X223.52Y116.332
X224.663Y64.643
X224.663Y54.483
X225.044Y93.832
X225.044Y87.884
X226.314Y126.492
X226.314Y116.332
X227.457Y54.229
X229.108Y126.492
X229.108Y116.332
X231.902Y126.492
X231.902Y116.332
X234.696Y126.492
X234.696Y116.332
X235.204Y87.884
X237.49Y126.492
X237.49Y116.332
X237.617Y54.229
X239.141Y59.817
X239.141Y57.317
X242.57Y64.389
X242.57Y54.229
X245.364Y53.975
X246.898Y152.4
X246.898Y142.24
X246.898Y135.596
X246.898Y125.436
X246.918Y139.954
X246.938Y123.15
X249.418Y139.954
X249.438Y123.15
X249.692Y152.4
X249.692Y142.24
X249.692Y135.596
X249.692Y125.436
X254.254Y149.352
X254.254Y132.588
X255.524Y53.975
X256.794Y149.352
X256.794Y132.588
X256.921Y59.69
X256.921Y57.19
X259.334Y149.352
X259.334Y132.588
X259.461Y78.359
X259.461Y68.199
X261.747Y64.389
X261.747Y54.229
X262.509Y78.359
X262.509Y68.199
X262.92Y138.684
X262.92Y121.666
X264.17Y151.892
X264.17Y141.732
X264.424Y134.62
X264.424Y124.46
X264.541Y53.975
X265.42Y138.684
X265.42Y121.666
X266.319Y78.359
X266.319Y68.199
X268.488Y121.666
X269.113Y78.359
X269.113Y68.199
X269.25Y152.654
X269.398Y149.606
X269.398Y147.066
X269.398Y144.526
X269.504Y132.588
X269.61Y129.794
X269.61Y127.254
X269.61Y124.714
X271.907Y78.359
X271.907Y68.199
X274.701Y78.359
X274.701Y68.199
X274.701Y53.975
X275.971Y59.797
X275.971Y57.297
X276.591Y126.238
X277.495Y78.359
X277.495Y68.199
X278.648Y121.666
X279.091Y126.238
X279.41Y152.654
X279.664Y132.588
X280.289Y78.359
X280.289Y68.199
X280.543Y64.409
X280.543Y54.249
X283.337Y53.995
X284.247Y75.819
X284.247Y73.279
X284.247Y70.739
X289.073Y75.819
X289.073Y73.279
X289.073Y70.739
X293.497Y53.995
X293.899Y75.819
X293.899Y73.279
X293.899Y70.739
X294.396Y137.16
X294.396Y127.0
X295.021Y59.817
X295.021Y57.317
X297.942Y137.922
X298.323Y78.359
X298.323Y68.199
X298.958Y111.76
X299.064Y123.444
X299.064Y120.904
X299.064Y118.364
X301.244Y129.54
X301.244Y126.492
X301.625Y78.359
X301.625Y68.199
X303.53Y159.512
X303.53Y156.464
X304.927Y78.359
X304.927Y68.199
X305.373Y149.352
X307.873Y149.352
X308.102Y137.922
X309.118Y111.76
X311.404Y129.54
X311.404Y126.492
X313.69Y159.512
X313.69Y156.464
X314.198Y117.791
X314.198Y115.291
X328.168Y114.046
X338.328Y114.046
T5
X227.965Y64.643
X227.965Y57.023
X230.505Y64.643
X230.505Y57.023
X233.045Y64.643
X233.045Y57.023
X235.585Y64.643
X235.585Y57.023
X245.872Y64.389
X245.872Y56.769
X248.412Y64.389
X248.412Y56.769
X250.952Y64.389
X250.952Y56.769
X252.994Y144.78
X252.994Y142.24
X252.994Y139.7
X252.994Y137.16
X252.994Y128.016
X252.994Y125.476
X252.994Y122.936
X252.994Y120.396
X253.492Y64.389
X253.492Y56.769
X260.614Y144.78
X260.614Y142.24
X260.614Y139.7
X260.614Y137.16
X260.614Y128.016
X260.614Y125.476
X260.614Y122.936
X260.614Y120.396
X265.049Y64.389
X265.049Y56.769
X267.589Y64.389
X267.589Y56.769
X270.129Y64.389
X270.129Y56.769
X272.669Y64.389
X272.669Y56.769
X282.458Y132.08
X282.458Y129.54
X282.458Y127.0
X282.458Y124.46
X283.845Y64.409
X283.845Y56.789
X286.385Y64.409
X286.385Y56.789
X288.925Y64.409
X288.925Y56.789
X290.078Y132.08
X290.078Y129.54
X290.078Y127.0
X290.078Y124.46
X291.465Y64.409
X291.465Y56.789
X294.64Y149.352
X294.64Y146.812
X294.64Y144.272
X294.64Y141.732
X302.26Y149.352
X302.26Y146.812
X302.26Y144.272
X302.26Y141.732
X302.514Y122.936
X302.514Y120.396
X302.514Y117.856
X302.514Y115.316
X310.134Y122.936
X310.134Y120.396
X310.134Y117.856
X310.134Y115.316
T6
X221.996Y111.76
X221.996Y102.616
X224.536Y111.76
X224.536Y102.616
X229.616Y111.76
X229.616Y102.616
X232.156Y111.76
X232.156Y102.616
X237.236Y111.76
X237.236Y102.616
X237.49Y93.726
X239.776Y111.76
X239.776Y102.616
X240.03Y93.726
X244.856Y111.76
X244.856Y102.616
X245.11Y93.726
X247.396Y111.76
X247.396Y102.616
X247.65Y93.726
X252.476Y112.014
X252.476Y102.616
X252.73Y93.726
X255.016Y112.014
X255.016Y102.616
X255.27Y93.726
X260.096Y112.014
X260.096Y102.616
X262.636Y112.014
X262.636Y102.616
X267.711Y112.014
X267.716Y102.616
X270.251Y112.014
X270.256Y102.616
T7
X85.1Y100.584
X85.608Y55.626
X89.408Y74.93
X89.408Y67.564
X92.466Y58.674
X93.736Y80.264
T8
X66.929Y167.64
X66.929Y165.1
X66.929Y162.56
X66.929Y160.02
X66.929Y157.48
X66.929Y154.94
X66.929Y152.4
X66.929Y149.86
X66.929Y147.32
X66.929Y144.78
X66.929Y142.24
X66.929Y139.7
X66.929Y88.392
X66.929Y85.852
X66.929Y83.312
X66.929Y80.772
X66.929Y78.232
X66.929Y75.692
X66.929Y73.152
X66.929Y70.612
X66.929Y68.072
X66.929Y65.532
X66.929Y62.992
X66.929Y60.452
X68.072Y132.842
X68.072Y130.302
X68.072Y127.762
X68.072Y125.222
X68.072Y122.682
X68.072Y120.142
X68.072Y117.602
X68.072Y115.062
X68.072Y112.522
X68.072Y109.982
X68.072Y107.442
X68.072Y104.902
X72.898Y166.624
X72.898Y164.084
X79.512Y141.986
X79.512Y139.446
X104.399Y79.248
X106.939Y79.248
X109.479Y79.248
X112.019Y79.248
X114.559Y79.248
X117.099Y79.248
X119.639Y79.248
X122.179Y79.248
X124.719Y79.248
X127.259Y79.248
X147.34Y159.521
X147.34Y156.981
X147.34Y154.441
X147.34Y151.901
X147.34Y149.361
X147.34Y146.821
X147.34Y144.281
X147.34Y141.741
X147.34Y139.201
X147.34Y136.661
X147.34Y134.121
X147.34Y131.581
X147.34Y129.041
X147.34Y126.501
X147.34Y123.961
X147.34Y121.421
X147.34Y118.881
X147.34Y116.341
X147.34Y113.801
X147.34Y111.261
X147.34Y108.721
X147.34Y106.181
X147.34Y103.641
X147.34Y101.101
X149.88Y159.521
X149.88Y156.981
X149.88Y154.441
X149.88Y151.901
X149.88Y149.361
X149.88Y146.821
X149.88Y144.281
X149.88Y141.741
X149.88Y139.201
X149.88Y136.661
X149.88Y134.121
X149.88Y131.581
X149.88Y129.041
X149.88Y126.501
X149.88Y123.961
X149.88Y121.421
X149.88Y118.881
X149.88Y116.341
X149.88Y113.801
X149.88Y111.261
X149.88Y108.721
X149.88Y106.181
X149.88Y103.641
X149.88Y101.101
X170.2Y157.748
X172.74Y157.748
X175.28Y157.748
X177.82Y157.748
X213.382Y159.521
X213.382Y156.981
X213.382Y154.441
X213.382Y151.901
X213.382Y149.361
X213.382Y146.821
X213.382Y144.281
X213.382Y141.741
X213.382Y139.201
X213.382Y136.661
X213.382Y134.121
X213.382Y131.581
X213.382Y129.041
X213.382Y126.501
X213.382Y123.961
X213.382Y121.421
X213.382Y118.881
X213.382Y116.341
X213.382Y113.801
X213.382Y111.261
X213.382Y108.721
X213.382Y106.181
X213.382Y103.641
X213.382Y101.101
X215.922Y159.521
X215.922Y156.981
X215.922Y154.441
X215.922Y151.901
X215.922Y149.361
X215.922Y146.821
X215.922Y144.281
X215.922Y141.741
X215.922Y139.201
X215.922Y136.661
X215.922Y134.121
X215.922Y131.581
X215.922Y129.041
X215.922Y126.501
X215.922Y123.961
X215.922Y121.421
X215.922Y118.881
X215.922Y116.341
X215.922Y113.801
X215.922Y111.261
X215.922Y108.721
X215.922Y106.181
X215.922Y103.641
X215.922Y101.101
X282.966Y96.012
X336.052Y96.012
X343.916Y158.486
X343.916Y155.946
X343.916Y153.406
X343.916Y150.866
X343.916Y148.326
X343.916Y145.786
X343.916Y143.246
X343.916Y140.706
X343.916Y138.166
X343.916Y135.626
X343.916Y133.086
X343.916Y130.546
X343.916Y125.72
X343.916Y123.18
X343.916Y120.64
X343.916Y118.1
X343.916Y115.56
X343.916Y113.02
X343.916Y110.48
X343.916Y107.94
X343.916Y105.4
X343.916Y102.86
X343.916Y100.32
X343.916Y97.78
X343.916Y95.24
X343.916Y92.7
X343.916Y87.625
X343.916Y85.085
X343.916Y82.545
X343.916Y80.005
X343.916Y77.465
X343.916Y74.925
X343.916Y72.385
X343.916Y69.845
X343.916Y67.305
X343.916Y64.765
X343.916Y62.225
X343.916Y59.685
T9
X86.544Y164.439
X86.773Y161.899
X86.773Y159.359
X86.773Y156.819
X86.773Y154.279
X86.773Y151.739
X86.773Y149.199
X86.773Y146.659
X104.324Y164.439
X104.324Y161.899
X104.324Y159.359
X104.324Y156.819
X104.324Y154.279
X104.324Y151.739
X104.324Y149.199
X104.324Y146.659
T10
X91.475Y107.409
X94.015Y107.409
X96.555Y107.409
X99.095Y107.409
X115.919Y159.156
X115.919Y156.616
X115.919Y154.076
X115.919Y151.536
X115.919Y148.996
X115.919Y126.136
X115.919Y123.596
X115.919Y121.056
X132.842Y78.811
X135.382Y78.811
X136.239Y159.156
X136.239Y156.616
X136.239Y154.076
X136.239Y126.136
X136.239Y123.596
X136.239Y121.056
X137.922Y78.811
X245.294Y164.51
X245.294Y156.89
X250.374Y164.51
X250.374Y156.89
X274.714Y103.791
X274.714Y85.331
X277.255Y103.791
X277.255Y85.331
X285.654Y103.791
X285.654Y85.331
X288.195Y103.791
X288.195Y85.331
X293.002Y103.791
X293.002Y85.331
X295.542Y103.791
X295.542Y85.331
X303.942Y103.791
X303.942Y85.331
X306.482Y103.791
X306.482Y85.331
X313.277Y151.035
X313.277Y148.495
X313.277Y143.415
X313.277Y138.335
X313.277Y133.255
X320.897Y151.035
X320.897Y148.495
X320.897Y143.415
X320.897Y138.335
X320.897Y133.255
T11
X105.156Y92.202
X105.156Y89.662
X105.156Y87.122
X114.554Y92.202
X114.554Y89.662
X114.554Y87.122
X132.771Y73.8
X135.311Y73.8
X137.851Y73.8
X283.22Y120.396
X285.76Y120.396
X288.3Y120.396
T12
X114.595Y114.395
X114.595Y111.855
X114.595Y109.315
X114.595Y106.775
X114.595Y104.235
X126.484Y97.523
X129.024Y97.523
X131.564Y97.523
X134.104Y97.523
X136.644Y97.523
X139.184Y97.523
X139.595Y114.395
X139.595Y111.855
X139.595Y109.315
X139.595Y106.775
X139.595Y104.235
T13
X79.197Y89.264
X79.197Y77.064
X85.197Y75.064
X91.197Y89.264
X91.197Y77.064
X274.959Y142.601
X276.959Y148.601
X276.959Y136.601
X284.093Y160.381
X286.093Y166.381
X286.093Y154.381
X289.159Y148.601
X289.159Y136.601
X298.293Y166.381
X298.293Y154.381
X315.589Y103.231
X317.589Y109.231
X317.589Y97.231
X321.685Y81.387
X323.685Y87.387
X323.685Y75.387
X329.789Y109.231
X329.789Y97.231
X335.885Y87.387
X335.885Y75.387
T14
X144.332Y63.779
X144.332Y58.739
X144.332Y79.039
X144.332Y53.699
X148.082Y79.039
X151.832Y79.039
X151.832Y63.779
X151.832Y58.739
X151.832Y53.699
X158.616Y63.734
X158.616Y58.694
X158.616Y78.994
X158.616Y53.654
X162.366Y78.994
X166.116Y78.994
X166.116Y63.734
X166.116Y58.694
X166.116Y53.654
X173.034Y63.779
X173.034Y58.739
X173.034Y79.039
X173.034Y53.699
X176.784Y79.039
X180.534Y79.039
X180.534Y63.779
X180.534Y58.739
X180.534Y53.699
T15
X67.743Y98.569
X73.243Y98.569
X79.808Y67.886
X79.808Y63.686
X85.308Y67.886
X85.308Y63.686
X110.542Y66.77
X110.542Y62.57
X110.542Y58.37
X110.542Y54.17
X116.042Y66.77
X116.042Y62.57
X116.042Y58.37
X116.042Y54.17
X126.238Y59.436
X126.238Y53.936
X135.138Y59.384
X135.138Y53.884
T16
X79.632Y54.102
X102.232Y54.102
T8
G00X189.836Y77.919
M15
G01X190.836Y77.919
M16
G05
G00X189.836Y75.419
M15
G01X190.836Y75.419
M16
G05
G00X189.836Y72.919
M15
G01X190.836Y72.919
M16
G05
G00X193.936Y77.919
M15
G01X194.936Y77.919
M16
G05
G00X193.936Y75.419
M15
G01X194.936Y75.419
M16
G05
G00X193.936Y72.919
M15
G01X194.936Y72.919
M16
G05
G00X200.123Y77.919
M15
G01X201.123Y77.919
M16
G05
G00X200.123Y75.419
M15
G01X201.123Y75.419
M16
G05
G00X200.123Y72.919
M15
G01X201.123Y72.919
M16
G05
G00X204.223Y77.919
M15
G01X205.223Y77.919
M16
G05
G00X204.223Y75.419
M15
G01X205.223Y75.419
M16
G05
G00X204.223Y72.919
M15
G01X205.223Y72.919
M16
G05
G00X210.156Y77.919
M15
G01X211.156Y77.919
M16
G05
G00X210.156Y75.419
M15
G01X211.156Y75.419
M16
G05
G00X210.156Y72.919
M15
G01X211.156Y72.919
M16
G05
G00X214.256Y77.919
M15
G01X215.256Y77.919
M16
G05
G00X214.256Y75.419
M15
G01X215.256Y75.419
M16
G05
G00X214.256Y72.919
M15
G01X215.256Y72.919
M16
G05
G00X220.316Y77.919
M15
G01X221.316Y77.919
M16
G05
G00X220.316Y75.419
M15
G01X221.316Y75.419
M16
G05
G00X220.316Y72.919
M15
G01X221.316Y72.919
M16
G05
G00X224.416Y77.919
M15
G01X225.416Y77.919
M16
G05
G00X224.416Y75.419
M15
G01X225.416Y75.419
M16
G05
G00X224.416Y72.919
M15
G01X225.416Y72.919
M16
G05
G00X230.476Y77.919
M15
G01X231.476Y77.919
M16
G05
G00X230.476Y75.419
M15
G01X231.476Y75.419
M16
G05
G00X230.476Y72.919
M15
G01X231.476Y72.919
M16
G05
G00X234.576Y77.919
M15
G01X235.576Y77.919
M16
G05
G00X234.576Y75.419
M15
G01X235.576Y75.419
M16
G05
G00X234.576Y72.919
M15
G01X235.576Y72.919
M16
G05
T0
M30
