%TF.GenerationSoftware,KiCad,Pcbnew,(6.0.5)*%
%TF.CreationDate,2023-07-29T02:07:02+09:00*%
%TF.ProjectId,LV_PCB,4c565f50-4342-42e6-9b69-6361645f7063,rev?*%
%TF.SameCoordinates,Original*%
%TF.FileFunction,Paste,Top*%
%TF.FilePolarity,Positive*%
%FSLAX46Y46*%
G04 Gerber Fmt 4.6, Leading zero omitted, Abs format (unit mm)*
G04 Created by KiCad (PCBNEW (6.0.5)) date 2023-07-29 02:07:02*
%MOMM*%
%LPD*%
G01*
G04 APERTURE LIST*
%ADD10R,0.889000X1.473200*%
%ADD11R,3.200400X1.473200*%
%ADD12R,2.000000X0.900000*%
%ADD13R,0.900000X2.000000*%
%ADD14R,1.330000X1.330000*%
G04 APERTURE END LIST*
D10*
%TO.C,U4*%
X249632000Y68237100D03*
X251922000Y68237100D03*
X254212000Y68237100D03*
D11*
X251922000Y74764900D03*
%TD*%
D12*
%TO.C,U11*%
X221624000Y151056000D03*
X221624000Y149786000D03*
X221624000Y148516000D03*
X221624000Y147246000D03*
X221624000Y145976000D03*
X221624000Y144706000D03*
X221624000Y143436000D03*
X221624000Y142166000D03*
X221624000Y140896000D03*
X221624000Y139626000D03*
X221624000Y138356000D03*
X221624000Y137086000D03*
X221624000Y135816000D03*
X221624000Y134546000D03*
D13*
X224409000Y133546000D03*
X225679000Y133546000D03*
X226949000Y133546000D03*
X228219000Y133546000D03*
X229489000Y133546000D03*
X230759000Y133546000D03*
X232029000Y133546000D03*
X233299000Y133546000D03*
X234569000Y133546000D03*
X235839000Y133546000D03*
D12*
X238624000Y134546000D03*
X238624000Y135816000D03*
X238624000Y137086000D03*
X238624000Y138356000D03*
X238624000Y139626000D03*
X238624000Y140896000D03*
X238624000Y142166000D03*
X238624000Y143436000D03*
X238624000Y144706000D03*
X238624000Y145976000D03*
X238624000Y147246000D03*
X238624000Y148516000D03*
X238624000Y149786000D03*
X238624000Y151056000D03*
D14*
X227289000Y145391000D03*
X229124000Y145391000D03*
X230959000Y145391000D03*
X227289000Y143556000D03*
X229124000Y143556000D03*
X230959000Y143556000D03*
X227289000Y141721000D03*
X229124000Y141721000D03*
X230959000Y141721000D03*
%TD*%
M02*
