%TF.GenerationSoftware,KiCad,Pcbnew,(6.0.5)*%
%TF.CreationDate,2023-07-29T02:07:02+09:00*%
%TF.ProjectId,LV_PCB,4c565f50-4342-42e6-9b69-6361645f7063,rev?*%
%TF.SameCoordinates,Original*%
%TF.FileFunction,Legend,Bot*%
%TF.FilePolarity,Positive*%
%FSLAX46Y46*%
G04 Gerber Fmt 4.6, Leading zero omitted, Abs format (unit mm)*
G04 Created by KiCad (PCBNEW (6.0.5)) date 2023-07-29 02:07:02*
%MOMM*%
%LPD*%
G01*
G04 APERTURE LIST*
%ADD10C,0.150000*%
%ADD11C,0.100000*%
%ADD12C,0.120000*%
G04 APERTURE END LIST*
D10*
%TO.C,K5*%
X283478285Y161807857D02*
X283430666Y161760238D01*
X283287809Y161712619D01*
X283192571Y161712619D01*
X283049714Y161760238D01*
X282954476Y161855476D01*
X282906857Y161950714D01*
X282859238Y162141190D01*
X282859238Y162284047D01*
X282906857Y162474523D01*
X282954476Y162569761D01*
X283049714Y162665000D01*
X283192571Y162712619D01*
X283287809Y162712619D01*
X283430666Y162665000D01*
X283478285Y162617380D01*
X284097333Y162712619D02*
X284287809Y162712619D01*
X284383047Y162665000D01*
X284478285Y162569761D01*
X284525904Y162379285D01*
X284525904Y162045952D01*
X284478285Y161855476D01*
X284383047Y161760238D01*
X284287809Y161712619D01*
X284097333Y161712619D01*
X284002095Y161760238D01*
X283906857Y161855476D01*
X283859238Y162045952D01*
X283859238Y162379285D01*
X283906857Y162569761D01*
X284002095Y162665000D01*
X284097333Y162712619D01*
X284954476Y161712619D02*
X284954476Y162712619D01*
X285287809Y161998333D01*
X285621142Y162712619D01*
X285621142Y161712619D01*
X288685142Y159580657D02*
X288732761Y159533038D01*
X288780380Y159390180D01*
X288780380Y159294942D01*
X288732761Y159152085D01*
X288637523Y159056847D01*
X288542285Y159009228D01*
X288351809Y158961609D01*
X288208952Y158961609D01*
X288018476Y159009228D01*
X287923238Y159056847D01*
X287828000Y159152085D01*
X287780380Y159294942D01*
X287780380Y159390180D01*
X287828000Y159533038D01*
X287875619Y159580657D01*
X287780380Y160199704D02*
X287780380Y160390180D01*
X287828000Y160485419D01*
X287923238Y160580657D01*
X288113714Y160628276D01*
X288447047Y160628276D01*
X288637523Y160580657D01*
X288732761Y160485419D01*
X288780380Y160390180D01*
X288780380Y160199704D01*
X288732761Y160104466D01*
X288637523Y160009228D01*
X288447047Y159961609D01*
X288113714Y159961609D01*
X287923238Y160009228D01*
X287828000Y160104466D01*
X287780380Y160199704D01*
X288780380Y161056847D02*
X287780380Y161056847D01*
X288780380Y162009228D02*
X288780380Y161533038D01*
X287780380Y161533038D01*
X295383276Y153679019D02*
X295383276Y154679019D01*
X295954704Y153679019D01*
X295954704Y154679019D01*
X296621371Y154679019D02*
X296811847Y154679019D01*
X296907085Y154631400D01*
X297002323Y154536161D01*
X297049942Y154345685D01*
X297049942Y154012352D01*
X297002323Y153821876D01*
X296907085Y153726638D01*
X296811847Y153679019D01*
X296621371Y153679019D01*
X296526133Y153726638D01*
X296430895Y153821876D01*
X296383276Y154012352D01*
X296383276Y154345685D01*
X296430895Y154536161D01*
X296526133Y154631400D01*
X296621371Y154679019D01*
X295407085Y165679019D02*
X295407085Y166679019D01*
X295978514Y165679019D01*
X295978514Y166679019D01*
X297026133Y165774257D02*
X296978514Y165726638D01*
X296835657Y165679019D01*
X296740419Y165679019D01*
X296597561Y165726638D01*
X296502323Y165821876D01*
X296454704Y165917114D01*
X296407085Y166107590D01*
X296407085Y166250447D01*
X296454704Y166440923D01*
X296502323Y166536161D01*
X296597561Y166631400D01*
X296740419Y166679019D01*
X296835657Y166679019D01*
X296978514Y166631400D01*
X297026133Y166583780D01*
D11*
%TO.C,U4*%
X253971495Y66525009D02*
X253971495Y67025009D01*
X254209590Y66525009D02*
X254209590Y67025009D01*
X254495304Y66525009D01*
X254495304Y67025009D01*
X249204247Y67052000D02*
X249156628Y67075809D01*
X249085200Y67075809D01*
X249013771Y67052000D01*
X248966152Y67004380D01*
X248942342Y66956761D01*
X248918533Y66861523D01*
X248918533Y66790095D01*
X248942342Y66694857D01*
X248966152Y66647238D01*
X249013771Y66599619D01*
X249085200Y66575809D01*
X249132819Y66575809D01*
X249204247Y66599619D01*
X249228057Y66623428D01*
X249228057Y66790095D01*
X249132819Y66790095D01*
X249442342Y66575809D02*
X249442342Y67075809D01*
X249728057Y66575809D01*
X249728057Y67075809D01*
X249966152Y66575809D02*
X249966152Y67075809D01*
X250085200Y67075809D01*
X250156628Y67052000D01*
X250204247Y67004380D01*
X250228057Y66956761D01*
X250251866Y66861523D01*
X250251866Y66790095D01*
X250228057Y66694857D01*
X250204247Y66647238D01*
X250156628Y66599619D01*
X250085200Y66575809D01*
X249966152Y66575809D01*
X251345800Y67075809D02*
X251441038Y67075809D01*
X251488657Y67052000D01*
X251536276Y67004380D01*
X251560085Y66909142D01*
X251560085Y66742476D01*
X251536276Y66647238D01*
X251488657Y66599619D01*
X251441038Y66575809D01*
X251345800Y66575809D01*
X251298180Y66599619D01*
X251250561Y66647238D01*
X251226752Y66742476D01*
X251226752Y66909142D01*
X251250561Y67004380D01*
X251298180Y67052000D01*
X251345800Y67075809D01*
X251774371Y67075809D02*
X251774371Y66671047D01*
X251798180Y66623428D01*
X251821990Y66599619D01*
X251869609Y66575809D01*
X251964847Y66575809D01*
X252012466Y66599619D01*
X252036276Y66623428D01*
X252060085Y66671047D01*
X252060085Y67075809D01*
X252226752Y67075809D02*
X252512466Y67075809D01*
X252369609Y66575809D02*
X252369609Y67075809D01*
D10*
%TO.C,K2*%
X85997942Y79655942D02*
X86045561Y79703561D01*
X86188419Y79751180D01*
X86283657Y79751180D01*
X86426514Y79703561D01*
X86521752Y79608323D01*
X86569371Y79513085D01*
X86616990Y79322609D01*
X86616990Y79179752D01*
X86569371Y78989276D01*
X86521752Y78894038D01*
X86426514Y78798800D01*
X86283657Y78751180D01*
X86188419Y78751180D01*
X86045561Y78798800D01*
X85997942Y78846419D01*
X85378895Y78751180D02*
X85188419Y78751180D01*
X85093180Y78798800D01*
X84997942Y78894038D01*
X84950323Y79084514D01*
X84950323Y79417847D01*
X84997942Y79608323D01*
X85093180Y79703561D01*
X85188419Y79751180D01*
X85378895Y79751180D01*
X85474133Y79703561D01*
X85569371Y79608323D01*
X85616990Y79417847D01*
X85616990Y79084514D01*
X85569371Y78894038D01*
X85474133Y78798800D01*
X85378895Y78751180D01*
X84521752Y79751180D02*
X84521752Y78751180D01*
X83569371Y79751180D02*
X84045561Y79751180D01*
X84045561Y78751180D01*
X79899580Y86377885D02*
X78899580Y86377885D01*
X79899580Y86949314D01*
X78899580Y86949314D01*
X79804342Y87996933D02*
X79851961Y87949314D01*
X79899580Y87806457D01*
X79899580Y87711219D01*
X79851961Y87568361D01*
X79756723Y87473123D01*
X79661485Y87425504D01*
X79471009Y87377885D01*
X79328152Y87377885D01*
X79137676Y87425504D01*
X79042438Y87473123D01*
X78947200Y87568361D01*
X78899580Y87711219D01*
X78899580Y87806457D01*
X78947200Y87949314D01*
X78994819Y87996933D01*
X91899580Y86354076D02*
X90899580Y86354076D01*
X91899580Y86925504D01*
X90899580Y86925504D01*
X90899580Y87592171D02*
X90899580Y87782647D01*
X90947200Y87877885D01*
X91042438Y87973123D01*
X91232914Y88020742D01*
X91566247Y88020742D01*
X91756723Y87973123D01*
X91851961Y87877885D01*
X91899580Y87782647D01*
X91899580Y87592171D01*
X91851961Y87496933D01*
X91756723Y87401695D01*
X91566247Y87354076D01*
X91232914Y87354076D01*
X91042438Y87401695D01*
X90947200Y87496933D01*
X90899580Y87592171D01*
X83770742Y74449085D02*
X83818361Y74401466D01*
X83865980Y74258609D01*
X83865980Y74163371D01*
X83818361Y74020514D01*
X83723123Y73925276D01*
X83627885Y73877657D01*
X83437409Y73830038D01*
X83294552Y73830038D01*
X83104076Y73877657D01*
X83008838Y73925276D01*
X82913600Y74020514D01*
X82865980Y74163371D01*
X82865980Y74258609D01*
X82913600Y74401466D01*
X82961219Y74449085D01*
X82865980Y75068133D02*
X82865980Y75258609D01*
X82913600Y75353847D01*
X83008838Y75449085D01*
X83199314Y75496704D01*
X83532647Y75496704D01*
X83723123Y75449085D01*
X83818361Y75353847D01*
X83865980Y75258609D01*
X83865980Y75068133D01*
X83818361Y74972895D01*
X83723123Y74877657D01*
X83532647Y74830038D01*
X83199314Y74830038D01*
X83008838Y74877657D01*
X82913600Y74972895D01*
X82865980Y75068133D01*
X83865980Y75925276D02*
X82865980Y75925276D01*
X83580266Y76258609D01*
X82865980Y76591942D01*
X83865980Y76591942D01*
%TO.C,K1*%
X286273085Y147899019D02*
X286273085Y148899019D01*
X286844514Y147899019D01*
X286844514Y148899019D01*
X287892133Y147994257D02*
X287844514Y147946638D01*
X287701657Y147899019D01*
X287606419Y147899019D01*
X287463561Y147946638D01*
X287368323Y148041876D01*
X287320704Y148137114D01*
X287273085Y148327590D01*
X287273085Y148470447D01*
X287320704Y148660923D01*
X287368323Y148756161D01*
X287463561Y148851400D01*
X287606419Y148899019D01*
X287701657Y148899019D01*
X287844514Y148851400D01*
X287892133Y148803780D01*
X274344285Y144027857D02*
X274296666Y143980238D01*
X274153809Y143932619D01*
X274058571Y143932619D01*
X273915714Y143980238D01*
X273820476Y144075476D01*
X273772857Y144170714D01*
X273725238Y144361190D01*
X273725238Y144504047D01*
X273772857Y144694523D01*
X273820476Y144789761D01*
X273915714Y144885000D01*
X274058571Y144932619D01*
X274153809Y144932619D01*
X274296666Y144885000D01*
X274344285Y144837380D01*
X274963333Y144932619D02*
X275153809Y144932619D01*
X275249047Y144885000D01*
X275344285Y144789761D01*
X275391904Y144599285D01*
X275391904Y144265952D01*
X275344285Y144075476D01*
X275249047Y143980238D01*
X275153809Y143932619D01*
X274963333Y143932619D01*
X274868095Y143980238D01*
X274772857Y144075476D01*
X274725238Y144265952D01*
X274725238Y144599285D01*
X274772857Y144789761D01*
X274868095Y144885000D01*
X274963333Y144932619D01*
X275820476Y143932619D02*
X275820476Y144932619D01*
X276153809Y144218333D01*
X276487142Y144932619D01*
X276487142Y143932619D01*
X279551142Y141800657D02*
X279598761Y141753038D01*
X279646380Y141610180D01*
X279646380Y141514942D01*
X279598761Y141372085D01*
X279503523Y141276847D01*
X279408285Y141229228D01*
X279217809Y141181609D01*
X279074952Y141181609D01*
X278884476Y141229228D01*
X278789238Y141276847D01*
X278694000Y141372085D01*
X278646380Y141514942D01*
X278646380Y141610180D01*
X278694000Y141753038D01*
X278741619Y141800657D01*
X278646380Y142419704D02*
X278646380Y142610180D01*
X278694000Y142705419D01*
X278789238Y142800657D01*
X278979714Y142848276D01*
X279313047Y142848276D01*
X279503523Y142800657D01*
X279598761Y142705419D01*
X279646380Y142610180D01*
X279646380Y142419704D01*
X279598761Y142324466D01*
X279503523Y142229228D01*
X279313047Y142181609D01*
X278979714Y142181609D01*
X278789238Y142229228D01*
X278694000Y142324466D01*
X278646380Y142419704D01*
X279646380Y143276847D02*
X278646380Y143276847D01*
X279646380Y144229228D02*
X279646380Y143753038D01*
X278646380Y143753038D01*
X286249276Y135899019D02*
X286249276Y136899019D01*
X286820704Y135899019D01*
X286820704Y136899019D01*
X287487371Y136899019D02*
X287677847Y136899019D01*
X287773085Y136851400D01*
X287868323Y136756161D01*
X287915942Y136565685D01*
X287915942Y136232352D01*
X287868323Y136041876D01*
X287773085Y135946638D01*
X287677847Y135899019D01*
X287487371Y135899019D01*
X287392133Y135946638D01*
X287296895Y136041876D01*
X287249276Y136232352D01*
X287249276Y136565685D01*
X287296895Y136756161D01*
X287392133Y136851400D01*
X287487371Y136899019D01*
%TO.C,K4*%
X320181142Y102430657D02*
X320228761Y102383038D01*
X320276380Y102240180D01*
X320276380Y102144942D01*
X320228761Y102002085D01*
X320133523Y101906847D01*
X320038285Y101859228D01*
X319847809Y101811609D01*
X319704952Y101811609D01*
X319514476Y101859228D01*
X319419238Y101906847D01*
X319324000Y102002085D01*
X319276380Y102144942D01*
X319276380Y102240180D01*
X319324000Y102383038D01*
X319371619Y102430657D01*
X319276380Y103049704D02*
X319276380Y103240180D01*
X319324000Y103335419D01*
X319419238Y103430657D01*
X319609714Y103478276D01*
X319943047Y103478276D01*
X320133523Y103430657D01*
X320228761Y103335419D01*
X320276380Y103240180D01*
X320276380Y103049704D01*
X320228761Y102954466D01*
X320133523Y102859228D01*
X319943047Y102811609D01*
X319609714Y102811609D01*
X319419238Y102859228D01*
X319324000Y102954466D01*
X319276380Y103049704D01*
X320276380Y103906847D02*
X319276380Y103906847D01*
X320276380Y104859228D02*
X320276380Y104383038D01*
X319276380Y104383038D01*
X326879276Y96529019D02*
X326879276Y97529019D01*
X327450704Y96529019D01*
X327450704Y97529019D01*
X328117371Y97529019D02*
X328307847Y97529019D01*
X328403085Y97481400D01*
X328498323Y97386161D01*
X328545942Y97195685D01*
X328545942Y96862352D01*
X328498323Y96671876D01*
X328403085Y96576638D01*
X328307847Y96529019D01*
X328117371Y96529019D01*
X328022133Y96576638D01*
X327926895Y96671876D01*
X327879276Y96862352D01*
X327879276Y97195685D01*
X327926895Y97386161D01*
X328022133Y97481400D01*
X328117371Y97529019D01*
X326903085Y108529019D02*
X326903085Y109529019D01*
X327474514Y108529019D01*
X327474514Y109529019D01*
X328522133Y108624257D02*
X328474514Y108576638D01*
X328331657Y108529019D01*
X328236419Y108529019D01*
X328093561Y108576638D01*
X327998323Y108671876D01*
X327950704Y108767114D01*
X327903085Y108957590D01*
X327903085Y109100447D01*
X327950704Y109290923D01*
X327998323Y109386161D01*
X328093561Y109481400D01*
X328236419Y109529019D01*
X328331657Y109529019D01*
X328474514Y109481400D01*
X328522133Y109433780D01*
X314974285Y104657857D02*
X314926666Y104610238D01*
X314783809Y104562619D01*
X314688571Y104562619D01*
X314545714Y104610238D01*
X314450476Y104705476D01*
X314402857Y104800714D01*
X314355238Y104991190D01*
X314355238Y105134047D01*
X314402857Y105324523D01*
X314450476Y105419761D01*
X314545714Y105515000D01*
X314688571Y105562619D01*
X314783809Y105562619D01*
X314926666Y105515000D01*
X314974285Y105467380D01*
X315593333Y105562619D02*
X315783809Y105562619D01*
X315879047Y105515000D01*
X315974285Y105419761D01*
X316021904Y105229285D01*
X316021904Y104895952D01*
X315974285Y104705476D01*
X315879047Y104610238D01*
X315783809Y104562619D01*
X315593333Y104562619D01*
X315498095Y104610238D01*
X315402857Y104705476D01*
X315355238Y104895952D01*
X315355238Y105229285D01*
X315402857Y105419761D01*
X315498095Y105515000D01*
X315593333Y105562619D01*
X316450476Y104562619D02*
X316450476Y105562619D01*
X316783809Y104848333D01*
X317117142Y105562619D01*
X317117142Y104562619D01*
%TO.C,K3*%
X332999085Y86685019D02*
X332999085Y87685019D01*
X333570514Y86685019D01*
X333570514Y87685019D01*
X334618133Y86780257D02*
X334570514Y86732638D01*
X334427657Y86685019D01*
X334332419Y86685019D01*
X334189561Y86732638D01*
X334094323Y86827876D01*
X334046704Y86923114D01*
X333999085Y87113590D01*
X333999085Y87256447D01*
X334046704Y87446923D01*
X334094323Y87542161D01*
X334189561Y87637400D01*
X334332419Y87685019D01*
X334427657Y87685019D01*
X334570514Y87637400D01*
X334618133Y87589780D01*
X321070285Y82813857D02*
X321022666Y82766238D01*
X320879809Y82718619D01*
X320784571Y82718619D01*
X320641714Y82766238D01*
X320546476Y82861476D01*
X320498857Y82956714D01*
X320451238Y83147190D01*
X320451238Y83290047D01*
X320498857Y83480523D01*
X320546476Y83575761D01*
X320641714Y83671000D01*
X320784571Y83718619D01*
X320879809Y83718619D01*
X321022666Y83671000D01*
X321070285Y83623380D01*
X321689333Y83718619D02*
X321879809Y83718619D01*
X321975047Y83671000D01*
X322070285Y83575761D01*
X322117904Y83385285D01*
X322117904Y83051952D01*
X322070285Y82861476D01*
X321975047Y82766238D01*
X321879809Y82718619D01*
X321689333Y82718619D01*
X321594095Y82766238D01*
X321498857Y82861476D01*
X321451238Y83051952D01*
X321451238Y83385285D01*
X321498857Y83575761D01*
X321594095Y83671000D01*
X321689333Y83718619D01*
X322546476Y82718619D02*
X322546476Y83718619D01*
X322879809Y83004333D01*
X323213142Y83718619D01*
X323213142Y82718619D01*
X326277142Y80586657D02*
X326324761Y80539038D01*
X326372380Y80396180D01*
X326372380Y80300942D01*
X326324761Y80158085D01*
X326229523Y80062847D01*
X326134285Y80015228D01*
X325943809Y79967609D01*
X325800952Y79967609D01*
X325610476Y80015228D01*
X325515238Y80062847D01*
X325420000Y80158085D01*
X325372380Y80300942D01*
X325372380Y80396180D01*
X325420000Y80539038D01*
X325467619Y80586657D01*
X325372380Y81205704D02*
X325372380Y81396180D01*
X325420000Y81491419D01*
X325515238Y81586657D01*
X325705714Y81634276D01*
X326039047Y81634276D01*
X326229523Y81586657D01*
X326324761Y81491419D01*
X326372380Y81396180D01*
X326372380Y81205704D01*
X326324761Y81110466D01*
X326229523Y81015228D01*
X326039047Y80967609D01*
X325705714Y80967609D01*
X325515238Y81015228D01*
X325420000Y81110466D01*
X325372380Y81205704D01*
X326372380Y82062847D02*
X325372380Y82062847D01*
X326372380Y83015228D02*
X326372380Y82539038D01*
X325372380Y82539038D01*
X332975276Y74685019D02*
X332975276Y75685019D01*
X333546704Y74685019D01*
X333546704Y75685019D01*
X334213371Y75685019D02*
X334403847Y75685019D01*
X334499085Y75637400D01*
X334594323Y75542161D01*
X334641942Y75351685D01*
X334641942Y75018352D01*
X334594323Y74827876D01*
X334499085Y74732638D01*
X334403847Y74685019D01*
X334213371Y74685019D01*
X334118133Y74732638D01*
X334022895Y74827876D01*
X333975276Y75018352D01*
X333975276Y75351685D01*
X334022895Y75542161D01*
X334118133Y75637400D01*
X334213371Y75685019D01*
D12*
%TO.C,K5*%
X287337400Y165594000D02*
X287337400Y155357800D01*
%TO.C,K2*%
X79984600Y78308200D02*
X90220800Y78308200D01*
%TO.C,K1*%
X278203400Y147814000D02*
X278203400Y137577800D01*
%TO.C,K4*%
X318833400Y108444000D02*
X318833400Y98207800D01*
%TO.C,K3*%
X324929400Y86600000D02*
X324929400Y76363800D01*
%TD*%
M02*
