M48
; DRILL file {KiCad (6.0.5)} date Sun Sep  4 18:07:02 2022
; FORMAT={-:-/ absolute / inch / decimal}
; #@! TF.CreationDate,2022-09-04T18:07:02+09:00
; #@! TF.GenerationSoftware,Kicad,Pcbnew,(6.0.5)
; #@! TF.FileFunction,Plated,1,2,PTH
FMAT,2
INCH
; #@! TA.AperFunction,Plated,PTH,ViaDrill
T1C0.0157
; #@! TA.AperFunction,Plated,PTH,ComponentDrill
T2C0.0276
; #@! TA.AperFunction,Plated,PTH,ViaDrill
T3C0.0315
; #@! TA.AperFunction,Plated,PTH,ComponentDrill
T4C0.0315
; #@! TA.AperFunction,Plated,PTH,ComponentDrill
T5C0.0340
; #@! TA.AperFunction,Plated,PTH,ComponentDrill
T6C0.0354
; #@! TA.AperFunction,Plated,PTH,ComponentDrill
T7C0.0394
; #@! TA.AperFunction,Plated,PTH,ComponentDrill
T8C0.0433
; #@! TA.AperFunction,Plated,PTH,ComponentDrill
T9C0.0440
; #@! TA.AperFunction,Plated,PTH,ComponentDrill
T10C0.0472
; #@! TA.AperFunction,Plated,PTH,ComponentDrill
T11C0.0512
; #@! TA.AperFunction,Plated,PTH,ComponentDrill
T12C0.0550
; #@! TA.AperFunction,Plated,PTH,ComponentDrill
T13C0.0600
; #@! TA.AperFunction,Plated,PTH,ComponentDrill
T14C0.0787
; #@! TA.AperFunction,Plated,PTH,ComponentDrill
T15C0.1181
%
G90
G05
T1
X2.48Y-5.52
X3.06Y-5.16
X3.08Y-6.48
X3.3Y-6.14
X3.36Y-6.42
X3.52Y-3.1
X4.04Y-6.4485
X4.1Y-6.38
X4.14Y-3.72
X4.2Y-3.92
X4.48Y-3.92
X4.58Y-6.26
X4.74Y-3.08
X4.7802Y-6.3202
X5.08Y-5.88
X5.08Y-6.48
X5.1Y-6.28
X5.1Y-6.34
X5.3Y-4.72
X5.32Y-5.24
X5.42Y-5.76
X5.88Y-5.72
X5.9Y-4.12
X5.9798Y-4.8002
X6.08Y-4.7
X6.14Y-4.74
X6.28Y-5.4
X6.56Y-3.28
T2
X2.62Y-5.64
X2.62Y-5.84
X2.92Y-5.16
X2.92Y-5.36
X3.22Y-5.14
X3.42Y-5.14
X3.46Y-6.12
X3.5Y-5.04
X3.62Y-6.38
X3.66Y-6.12
X3.7Y-5.04
X3.72Y-5.36
X3.72Y-5.56
X3.82Y-5.6
X3.82Y-6.0
X3.82Y-6.38
X4.02Y-5.6
X4.02Y-6.0
X4.2Y-5.52
X4.4Y-5.52
X4.64Y-3.76
X4.64Y-3.96
X4.7Y-5.02
X4.7Y-5.22
X4.82Y-4.08
X4.82Y-4.2
X5.02Y-4.08
X5.02Y-4.2
X5.64Y-5.86
X5.84Y-5.86
T3
X5.26Y-4.9
X5.5Y-4.88
X5.86Y-4.02
T4
X2.86Y-5.56
X2.86Y-5.66
X2.86Y-5.76
X3.1016Y-5.84
X3.2216Y-5.28
X3.2984Y-5.84
X3.4184Y-5.28
X3.46Y-5.9458
X3.56Y-5.9458
X3.66Y-5.9458
X3.82Y-5.8
X3.92Y-5.8
X3.9616Y-4.88
X4.02Y-5.8
X4.1584Y-4.88
X4.2Y-5.6942
X4.3Y-5.6942
X4.4Y-5.6942
X4.42Y-5.04
X4.42Y-5.14
X4.42Y-5.24
X4.5416Y-5.4
X4.7Y-5.669
X4.7Y-5.8186
X4.7384Y-5.4
T5
X3.13Y-5.43
X3.13Y-5.73
X3.23Y-5.43
X3.23Y-5.73
X3.33Y-5.43
X3.33Y-5.73
X3.43Y-5.43
X3.43Y-5.73
X3.87Y-5.03
X3.87Y-5.33
X3.97Y-5.03
X3.97Y-5.33
X4.07Y-5.03
X4.07Y-5.33
X4.15Y-5.91
X4.15Y-6.01
X4.15Y-6.11
X4.15Y-6.21
X4.17Y-5.03
X4.17Y-5.33
X4.45Y-5.91
X4.45Y-6.01
X4.45Y-6.11
X4.45Y-6.21
T6
X6.3702Y-4.32
X6.3702Y-4.6
X6.3702Y-4.92
X6.4702Y-4.32
X6.4702Y-4.6
X6.4702Y-4.92
T7
X2.4Y-2.8248
X2.4Y-2.9248
X2.4Y-3.0248
X2.4Y-3.1248
X2.4Y-3.2248
X2.4Y-3.3248
X2.4Y-3.4248
X2.4Y-3.5248
X2.4Y-3.6248
X2.4Y-3.7248
X2.4Y-3.8248
X2.4Y-3.9248
X2.4Y-5.2756
X2.4Y-5.3756
X2.4Y-5.4756
X2.4Y-5.5756
X2.4Y-5.6756
X2.4Y-5.7756
X2.4Y-5.8756
X2.4Y-5.9756
X2.4Y-6.35
X2.5Y-6.35
X2.6Y-6.35
X2.7Y-6.35
X2.8Y-6.35
X2.9Y-6.35
X3.0Y-6.35
X3.1Y-6.35
X3.2Y-6.35
X3.3Y-6.35
X3.4Y-6.35
X3.5Y-6.35
X4.9498Y-6.4
X5.0498Y-6.4
X5.1498Y-6.4
X5.2498Y-6.4
X5.3498Y-6.4
X5.4498Y-6.4
X5.5498Y-6.4
X5.6498Y-6.4
X5.7498Y-6.4
X5.8498Y-6.4
X5.9498Y-6.4
X6.0498Y-6.4
X6.14Y-6.02
X6.14Y-6.12
X6.32Y-6.02
X6.32Y-6.12
X6.425Y-2.8748
X6.425Y-2.9748
X6.425Y-3.0748
X6.425Y-3.1748
X6.425Y-3.2748
X6.425Y-3.3748
X6.425Y-3.4748
X6.425Y-3.5748
X6.425Y-3.6748
X6.425Y-3.7748
X6.425Y-3.8748
X6.425Y-3.9748
X6.5Y-6.02
X6.5Y-6.12
T8
X5.74Y-6.1172
X5.84Y-6.1172
X5.94Y-6.1172
T9
X2.66Y-6.0045
X2.76Y-6.0045
X2.86Y-6.0045
T11
X3.7713Y-4.05
X3.85Y-3.8138
X3.85Y-4.2862
X4.3303Y-3.8138
X4.3303Y-4.2862
X5.0238Y-5.6097
X5.0238Y-6.09
X5.2113Y-4.24
X5.26Y-6.1687
X5.29Y-4.0038
X5.29Y-4.4762
X5.4962Y-5.6097
X5.4962Y-6.09
X5.7703Y-4.0038
X5.7703Y-4.4762
T12
X2.425Y-4.967
T13
X3.6345Y-2.7922
X3.8345Y-3.1922
X4.0345Y-2.7922
X4.6345Y-2.7922
X4.6345Y-2.9922
X4.6345Y-3.1922
X4.8345Y-2.7922
X4.8395Y-3.3422
X5.0345Y-3.1922
X5.0395Y-3.7422
X5.2345Y-2.7922
X5.2395Y-3.3422
X5.8345Y-2.7922
X5.8345Y-2.9922
X5.8345Y-3.1922
X5.8395Y-3.3422
X5.8395Y-3.5422
X5.8395Y-3.7422
T14
X2.425Y-4.225
T15
X2.425Y-4.442
X2.425Y-4.75
T10
G00X2.576Y-2.9213
M15
G01X2.5878Y-2.9213
M16
G05
G00X2.7053Y-3.6787
M15
G01X2.6935Y-3.6787
M16
G05
G00X2.7053Y-4.0537
M15
G01X2.6935Y-4.0537
M16
G05
G00X2.7053Y-4.4287
M15
G01X2.6935Y-4.4287
M16
G05
G00X2.7053Y-4.8037
M15
G01X2.6935Y-4.8037
M16
G05
G00X3.4697Y-2.9213
M15
G01X3.4815Y-2.9213
M16
G05
G00X3.599Y-3.6787
M15
G01X3.5872Y-3.6787
M16
G05
G00X3.599Y-4.0537
M15
G01X3.5872Y-4.0537
M16
G05
G00X3.599Y-4.4287
M15
G01X3.5872Y-4.4287
M16
G05
G00X3.599Y-4.8037
M15
G01X3.5872Y-4.8037
M16
G05
T0
M30
