%TF.GenerationSoftware,KiCad,Pcbnew,(6.0.5)*%
%TF.CreationDate,2022-09-04T18:06:33+09:00*%
%TF.ProjectId,LAST SHUTDOWN,4c415354-2053-4485-9554-444f574e2e6b,rev?*%
%TF.SameCoordinates,Original*%
%TF.FileFunction,Legend,Top*%
%TF.FilePolarity,Positive*%
%FSLAX46Y46*%
G04 Gerber Fmt 4.6, Leading zero omitted, Abs format (unit mm)*
G04 Created by KiCad (PCBNEW (6.0.5)) date 2022-09-04 18:06:33*
%MOMM*%
%LPD*%
G01*
G04 APERTURE LIST*
%ADD10C,0.150000*%
%ADD11C,0.120000*%
G04 APERTURE END LIST*
D10*
%TO.C,D2*%
X162334904Y-121252380D02*
X162334904Y-120252380D01*
X162573000Y-120252380D01*
X162715857Y-120300000D01*
X162811095Y-120395238D01*
X162858714Y-120490476D01*
X162906333Y-120680952D01*
X162906333Y-120823809D01*
X162858714Y-121014285D01*
X162811095Y-121109523D01*
X162715857Y-121204761D01*
X162573000Y-121252380D01*
X162334904Y-121252380D01*
X163287285Y-120347619D02*
X163334904Y-120300000D01*
X163430142Y-120252380D01*
X163668238Y-120252380D01*
X163763476Y-120300000D01*
X163811095Y-120347619D01*
X163858714Y-120442857D01*
X163858714Y-120538095D01*
X163811095Y-120680952D01*
X163239666Y-121252380D01*
X163858714Y-121252380D01*
%TO.C,D1*%
X162334904Y-114140380D02*
X162334904Y-113140380D01*
X162573000Y-113140380D01*
X162715857Y-113188000D01*
X162811095Y-113283238D01*
X162858714Y-113378476D01*
X162906333Y-113568952D01*
X162906333Y-113711809D01*
X162858714Y-113902285D01*
X162811095Y-113997523D01*
X162715857Y-114092761D01*
X162573000Y-114140380D01*
X162334904Y-114140380D01*
X163858714Y-114140380D02*
X163287285Y-114140380D01*
X163573000Y-114140380D02*
X163573000Y-113140380D01*
X163477761Y-113283238D01*
X163382523Y-113378476D01*
X163287285Y-113426095D01*
%TO.C,D3*%
X162334904Y-129380380D02*
X162334904Y-128380380D01*
X162573000Y-128380380D01*
X162715857Y-128428000D01*
X162811095Y-128523238D01*
X162858714Y-128618476D01*
X162906333Y-128808952D01*
X162906333Y-128951809D01*
X162858714Y-129142285D01*
X162811095Y-129237523D01*
X162715857Y-129332761D01*
X162573000Y-129380380D01*
X162334904Y-129380380D01*
X163239666Y-128380380D02*
X163858714Y-128380380D01*
X163525380Y-128761333D01*
X163668238Y-128761333D01*
X163763476Y-128808952D01*
X163811095Y-128856571D01*
X163858714Y-128951809D01*
X163858714Y-129189904D01*
X163811095Y-129285142D01*
X163763476Y-129332761D01*
X163668238Y-129380380D01*
X163382523Y-129380380D01*
X163287285Y-129332761D01*
X163239666Y-129285142D01*
%TO.C,R9*%
X65080380Y-145962666D02*
X64604190Y-146296000D01*
X65080380Y-146534095D02*
X64080380Y-146534095D01*
X64080380Y-146153142D01*
X64128000Y-146057904D01*
X64175619Y-146010285D01*
X64270857Y-145962666D01*
X64413714Y-145962666D01*
X64508952Y-146010285D01*
X64556571Y-146057904D01*
X64604190Y-146153142D01*
X64604190Y-146534095D01*
X65080380Y-145486476D02*
X65080380Y-145296000D01*
X65032761Y-145200761D01*
X64985142Y-145153142D01*
X64842285Y-145057904D01*
X64651809Y-145010285D01*
X64270857Y-145010285D01*
X64175619Y-145057904D01*
X64128000Y-145105523D01*
X64080380Y-145200761D01*
X64080380Y-145391238D01*
X64128000Y-145486476D01*
X64175619Y-145534095D01*
X64270857Y-145581714D01*
X64508952Y-145581714D01*
X64604190Y-145534095D01*
X64651809Y-145486476D01*
X64699428Y-145391238D01*
X64699428Y-145200761D01*
X64651809Y-145105523D01*
X64604190Y-145057904D01*
X64508952Y-145010285D01*
%TO.C,RELAY_BSPD*%
X138628380Y-79763704D02*
X138152190Y-80097038D01*
X138628380Y-80335133D02*
X137628380Y-80335133D01*
X137628380Y-79954180D01*
X137676000Y-79858942D01*
X137723619Y-79811323D01*
X137818857Y-79763704D01*
X137961714Y-79763704D01*
X138056952Y-79811323D01*
X138104571Y-79858942D01*
X138152190Y-79954180D01*
X138152190Y-80335133D01*
X138104571Y-79335133D02*
X138104571Y-79001800D01*
X138628380Y-78858942D02*
X138628380Y-79335133D01*
X137628380Y-79335133D01*
X137628380Y-78858942D01*
X138628380Y-77954180D02*
X138628380Y-78430371D01*
X137628380Y-78430371D01*
X138342666Y-77668466D02*
X138342666Y-77192276D01*
X138628380Y-77763704D02*
X137628380Y-77430371D01*
X138628380Y-77097038D01*
X138152190Y-76573228D02*
X138628380Y-76573228D01*
X137628380Y-76906561D02*
X138152190Y-76573228D01*
X137628380Y-76239895D01*
X138723619Y-76144657D02*
X138723619Y-75382752D01*
X138104571Y-74811323D02*
X138152190Y-74668466D01*
X138199809Y-74620847D01*
X138295047Y-74573228D01*
X138437904Y-74573228D01*
X138533142Y-74620847D01*
X138580761Y-74668466D01*
X138628380Y-74763704D01*
X138628380Y-75144657D01*
X137628380Y-75144657D01*
X137628380Y-74811323D01*
X137676000Y-74716085D01*
X137723619Y-74668466D01*
X137818857Y-74620847D01*
X137914095Y-74620847D01*
X138009333Y-74668466D01*
X138056952Y-74716085D01*
X138104571Y-74811323D01*
X138104571Y-75144657D01*
X138580761Y-74192276D02*
X138628380Y-74049419D01*
X138628380Y-73811323D01*
X138580761Y-73716085D01*
X138533142Y-73668466D01*
X138437904Y-73620847D01*
X138342666Y-73620847D01*
X138247428Y-73668466D01*
X138199809Y-73716085D01*
X138152190Y-73811323D01*
X138104571Y-74001800D01*
X138056952Y-74097038D01*
X138009333Y-74144657D01*
X137914095Y-74192276D01*
X137818857Y-74192276D01*
X137723619Y-74144657D01*
X137676000Y-74097038D01*
X137628380Y-74001800D01*
X137628380Y-73763704D01*
X137676000Y-73620847D01*
X138628380Y-73192276D02*
X137628380Y-73192276D01*
X137628380Y-72811323D01*
X137676000Y-72716085D01*
X137723619Y-72668466D01*
X137818857Y-72620847D01*
X137961714Y-72620847D01*
X138056952Y-72668466D01*
X138104571Y-72716085D01*
X138152190Y-72811323D01*
X138152190Y-73192276D01*
X138628380Y-72192276D02*
X137628380Y-72192276D01*
X137628380Y-71954180D01*
X137676000Y-71811323D01*
X137771238Y-71716085D01*
X137866476Y-71668466D01*
X138056952Y-71620847D01*
X138199809Y-71620847D01*
X138390285Y-71668466D01*
X138485523Y-71716085D01*
X138580761Y-71811323D01*
X138628380Y-71954180D01*
X138628380Y-72192276D01*
X135663166Y-79501800D02*
X135663166Y-79025609D01*
X135948880Y-79597038D02*
X134948880Y-79263704D01*
X135948880Y-78930371D01*
X135948880Y-78597038D02*
X134948880Y-78597038D01*
X134948880Y-78358942D01*
X134996500Y-78216085D01*
X135091738Y-78120847D01*
X135186976Y-78073228D01*
X135377452Y-78025609D01*
X135520309Y-78025609D01*
X135710785Y-78073228D01*
X135806023Y-78120847D01*
X135901261Y-78216085D01*
X135948880Y-78358942D01*
X135948880Y-78597038D01*
X134948880Y-77311323D02*
X135663166Y-77311323D01*
X135806023Y-77358942D01*
X135901261Y-77454180D01*
X135948880Y-77597038D01*
X135948880Y-77692276D01*
X135948880Y-76311323D02*
X135948880Y-76882752D01*
X135948880Y-76597038D02*
X134948880Y-76597038D01*
X135091738Y-76692276D01*
X135186976Y-76787514D01*
X135234595Y-76882752D01*
X135282214Y-75454180D02*
X135948880Y-75454180D01*
X134901261Y-75692276D02*
X135615547Y-75930371D01*
X135615547Y-75311323D01*
X134948880Y-74739895D02*
X134948880Y-74644657D01*
X134996500Y-74549419D01*
X135044119Y-74501800D01*
X135139357Y-74454180D01*
X135329833Y-74406561D01*
X135567928Y-74406561D01*
X135758404Y-74454180D01*
X135853642Y-74501800D01*
X135901261Y-74549419D01*
X135948880Y-74644657D01*
X135948880Y-74739895D01*
X135901261Y-74835133D01*
X135853642Y-74882752D01*
X135758404Y-74930371D01*
X135567928Y-74977990D01*
X135329833Y-74977990D01*
X135139357Y-74930371D01*
X135044119Y-74882752D01*
X134996500Y-74835133D01*
X134948880Y-74739895D01*
X135948880Y-73454180D02*
X135948880Y-74025609D01*
X135948880Y-73739895D02*
X134948880Y-73739895D01*
X135091738Y-73835133D01*
X135186976Y-73930371D01*
X135234595Y-74025609D01*
X135044119Y-73073228D02*
X134996500Y-73025609D01*
X134948880Y-72930371D01*
X134948880Y-72692276D01*
X134996500Y-72597038D01*
X135044119Y-72549419D01*
X135139357Y-72501800D01*
X135234595Y-72501800D01*
X135377452Y-72549419D01*
X135948880Y-73120847D01*
X135948880Y-72501800D01*
X147648880Y-70921800D02*
X147886976Y-70921800D01*
X147791738Y-71159895D02*
X147886976Y-70921800D01*
X147791738Y-70683704D01*
X148077452Y-71064657D02*
X147886976Y-70921800D01*
X148077452Y-70778942D01*
%TO.C,J2*%
X155622666Y-157670380D02*
X155622666Y-158384666D01*
X155575047Y-158527523D01*
X155479809Y-158622761D01*
X155336952Y-158670380D01*
X155241714Y-158670380D01*
X156051238Y-157765619D02*
X156098857Y-157718000D01*
X156194095Y-157670380D01*
X156432190Y-157670380D01*
X156527428Y-157718000D01*
X156575047Y-157765619D01*
X156622666Y-157860857D01*
X156622666Y-157956095D01*
X156575047Y-158098952D01*
X156003619Y-158670380D01*
X156622666Y-158670380D01*
%TO.C,R13*%
X124325142Y-102164380D02*
X123991809Y-101688190D01*
X123753714Y-102164380D02*
X123753714Y-101164380D01*
X124134666Y-101164380D01*
X124229904Y-101212000D01*
X124277523Y-101259619D01*
X124325142Y-101354857D01*
X124325142Y-101497714D01*
X124277523Y-101592952D01*
X124229904Y-101640571D01*
X124134666Y-101688190D01*
X123753714Y-101688190D01*
X125277523Y-102164380D02*
X124706095Y-102164380D01*
X124991809Y-102164380D02*
X124991809Y-101164380D01*
X124896571Y-101307238D01*
X124801333Y-101402476D01*
X124706095Y-101450095D01*
X125610857Y-101164380D02*
X126229904Y-101164380D01*
X125896571Y-101545333D01*
X126039428Y-101545333D01*
X126134666Y-101592952D01*
X126182285Y-101640571D01*
X126229904Y-101735809D01*
X126229904Y-101973904D01*
X126182285Y-102069142D01*
X126134666Y-102116761D01*
X126039428Y-102164380D01*
X125753714Y-102164380D01*
X125658476Y-102116761D01*
X125610857Y-102069142D01*
%TO.C,R15*%
X98925142Y-154772380D02*
X98591809Y-154296190D01*
X98353714Y-154772380D02*
X98353714Y-153772380D01*
X98734666Y-153772380D01*
X98829904Y-153820000D01*
X98877523Y-153867619D01*
X98925142Y-153962857D01*
X98925142Y-154105714D01*
X98877523Y-154200952D01*
X98829904Y-154248571D01*
X98734666Y-154296190D01*
X98353714Y-154296190D01*
X99877523Y-154772380D02*
X99306095Y-154772380D01*
X99591809Y-154772380D02*
X99591809Y-153772380D01*
X99496571Y-153915238D01*
X99401333Y-154010476D01*
X99306095Y-154058095D01*
X100782285Y-153772380D02*
X100306095Y-153772380D01*
X100258476Y-154248571D01*
X100306095Y-154200952D01*
X100401333Y-154153333D01*
X100639428Y-154153333D01*
X100734666Y-154200952D01*
X100782285Y-154248571D01*
X100829904Y-154343809D01*
X100829904Y-154581904D01*
X100782285Y-154677142D01*
X100734666Y-154724761D01*
X100639428Y-154772380D01*
X100401333Y-154772380D01*
X100306095Y-154724761D01*
X100258476Y-154677142D01*
%TO.C,Q5*%
X109124761Y-143803619D02*
X109029523Y-143756000D01*
X108934285Y-143660761D01*
X108791428Y-143517904D01*
X108696190Y-143470285D01*
X108600952Y-143470285D01*
X108648571Y-143708380D02*
X108553333Y-143660761D01*
X108458095Y-143565523D01*
X108410476Y-143375047D01*
X108410476Y-143041714D01*
X108458095Y-142851238D01*
X108553333Y-142756000D01*
X108648571Y-142708380D01*
X108839047Y-142708380D01*
X108934285Y-142756000D01*
X109029523Y-142851238D01*
X109077142Y-143041714D01*
X109077142Y-143375047D01*
X109029523Y-143565523D01*
X108934285Y-143660761D01*
X108839047Y-143708380D01*
X108648571Y-143708380D01*
X109981904Y-142708380D02*
X109505714Y-142708380D01*
X109458095Y-143184571D01*
X109505714Y-143136952D01*
X109600952Y-143089333D01*
X109839047Y-143089333D01*
X109934285Y-143136952D01*
X109981904Y-143184571D01*
X110029523Y-143279809D01*
X110029523Y-143517904D01*
X109981904Y-143613142D01*
X109934285Y-143660761D01*
X109839047Y-143708380D01*
X109600952Y-143708380D01*
X109505714Y-143660761D01*
X109458095Y-143613142D01*
%TO.C,F5*%
X76374666Y-79684571D02*
X76041333Y-79684571D01*
X76041333Y-80208380D02*
X76041333Y-79208380D01*
X76517523Y-79208380D01*
X77374666Y-79208380D02*
X76898476Y-79208380D01*
X76850857Y-79684571D01*
X76898476Y-79636952D01*
X76993714Y-79589333D01*
X77231809Y-79589333D01*
X77327047Y-79636952D01*
X77374666Y-79684571D01*
X77422285Y-79779809D01*
X77422285Y-80017904D01*
X77374666Y-80113142D01*
X77327047Y-80160761D01*
X77231809Y-80208380D01*
X76993714Y-80208380D01*
X76898476Y-80160761D01*
X76850857Y-80113142D01*
%TO.C,J4*%
X160194666Y-157670380D02*
X160194666Y-158384666D01*
X160147047Y-158527523D01*
X160051809Y-158622761D01*
X159908952Y-158670380D01*
X159813714Y-158670380D01*
X161099428Y-158003714D02*
X161099428Y-158670380D01*
X160861333Y-157622761D02*
X160623238Y-158337047D01*
X161242285Y-158337047D01*
%TO.C,R14*%
X98925142Y-144612380D02*
X98591809Y-144136190D01*
X98353714Y-144612380D02*
X98353714Y-143612380D01*
X98734666Y-143612380D01*
X98829904Y-143660000D01*
X98877523Y-143707619D01*
X98925142Y-143802857D01*
X98925142Y-143945714D01*
X98877523Y-144040952D01*
X98829904Y-144088571D01*
X98734666Y-144136190D01*
X98353714Y-144136190D01*
X99877523Y-144612380D02*
X99306095Y-144612380D01*
X99591809Y-144612380D02*
X99591809Y-143612380D01*
X99496571Y-143755238D01*
X99401333Y-143850476D01*
X99306095Y-143898095D01*
X100734666Y-143945714D02*
X100734666Y-144612380D01*
X100496571Y-143564761D02*
X100258476Y-144279047D01*
X100877523Y-144279047D01*
%TO.C,F4*%
X87042666Y-120324571D02*
X86709333Y-120324571D01*
X86709333Y-120848380D02*
X86709333Y-119848380D01*
X87185523Y-119848380D01*
X87995047Y-120181714D02*
X87995047Y-120848380D01*
X87756952Y-119800761D02*
X87518857Y-120515047D01*
X88137904Y-120515047D01*
%TO.C,DASHBOARD*%
X57856380Y-165432857D02*
X56856380Y-165432857D01*
X56856380Y-165194761D01*
X56904000Y-165051904D01*
X56999238Y-164956666D01*
X57094476Y-164909047D01*
X57284952Y-164861428D01*
X57427809Y-164861428D01*
X57618285Y-164909047D01*
X57713523Y-164956666D01*
X57808761Y-165051904D01*
X57856380Y-165194761D01*
X57856380Y-165432857D01*
X57570666Y-164480476D02*
X57570666Y-164004285D01*
X57856380Y-164575714D02*
X56856380Y-164242380D01*
X57856380Y-163909047D01*
X57808761Y-163623333D02*
X57856380Y-163480476D01*
X57856380Y-163242380D01*
X57808761Y-163147142D01*
X57761142Y-163099523D01*
X57665904Y-163051904D01*
X57570666Y-163051904D01*
X57475428Y-163099523D01*
X57427809Y-163147142D01*
X57380190Y-163242380D01*
X57332571Y-163432857D01*
X57284952Y-163528095D01*
X57237333Y-163575714D01*
X57142095Y-163623333D01*
X57046857Y-163623333D01*
X56951619Y-163575714D01*
X56904000Y-163528095D01*
X56856380Y-163432857D01*
X56856380Y-163194761D01*
X56904000Y-163051904D01*
X57856380Y-162623333D02*
X56856380Y-162623333D01*
X57332571Y-162623333D02*
X57332571Y-162051904D01*
X57856380Y-162051904D02*
X56856380Y-162051904D01*
X57332571Y-161242380D02*
X57380190Y-161099523D01*
X57427809Y-161051904D01*
X57523047Y-161004285D01*
X57665904Y-161004285D01*
X57761142Y-161051904D01*
X57808761Y-161099523D01*
X57856380Y-161194761D01*
X57856380Y-161575714D01*
X56856380Y-161575714D01*
X56856380Y-161242380D01*
X56904000Y-161147142D01*
X56951619Y-161099523D01*
X57046857Y-161051904D01*
X57142095Y-161051904D01*
X57237333Y-161099523D01*
X57284952Y-161147142D01*
X57332571Y-161242380D01*
X57332571Y-161575714D01*
X56856380Y-160385238D02*
X56856380Y-160194761D01*
X56904000Y-160099523D01*
X56999238Y-160004285D01*
X57189714Y-159956666D01*
X57523047Y-159956666D01*
X57713523Y-160004285D01*
X57808761Y-160099523D01*
X57856380Y-160194761D01*
X57856380Y-160385238D01*
X57808761Y-160480476D01*
X57713523Y-160575714D01*
X57523047Y-160623333D01*
X57189714Y-160623333D01*
X56999238Y-160575714D01*
X56904000Y-160480476D01*
X56856380Y-160385238D01*
X57570666Y-159575714D02*
X57570666Y-159099523D01*
X57856380Y-159670952D02*
X56856380Y-159337619D01*
X57856380Y-159004285D01*
X57856380Y-158099523D02*
X57380190Y-158432857D01*
X57856380Y-158670952D02*
X56856380Y-158670952D01*
X56856380Y-158290000D01*
X56904000Y-158194761D01*
X56951619Y-158147142D01*
X57046857Y-158099523D01*
X57189714Y-158099523D01*
X57284952Y-158147142D01*
X57332571Y-158194761D01*
X57380190Y-158290000D01*
X57380190Y-158670952D01*
X57856380Y-157670952D02*
X56856380Y-157670952D01*
X56856380Y-157432857D01*
X56904000Y-157290000D01*
X56999238Y-157194761D01*
X57094476Y-157147142D01*
X57284952Y-157099523D01*
X57427809Y-157099523D01*
X57618285Y-157147142D01*
X57713523Y-157194761D01*
X57808761Y-157290000D01*
X57856380Y-157432857D01*
X57856380Y-157670952D01*
%TO.C,R7*%
X84161333Y-131008380D02*
X83828000Y-130532190D01*
X83589904Y-131008380D02*
X83589904Y-130008380D01*
X83970857Y-130008380D01*
X84066095Y-130056000D01*
X84113714Y-130103619D01*
X84161333Y-130198857D01*
X84161333Y-130341714D01*
X84113714Y-130436952D01*
X84066095Y-130484571D01*
X83970857Y-130532190D01*
X83589904Y-130532190D01*
X84494666Y-130008380D02*
X85161333Y-130008380D01*
X84732761Y-131008380D01*
%TO.C,F3*%
X81962666Y-111180571D02*
X81629333Y-111180571D01*
X81629333Y-111704380D02*
X81629333Y-110704380D01*
X82105523Y-110704380D01*
X82391238Y-110704380D02*
X83010285Y-110704380D01*
X82676952Y-111085333D01*
X82819809Y-111085333D01*
X82915047Y-111132952D01*
X82962666Y-111180571D01*
X83010285Y-111275809D01*
X83010285Y-111513904D01*
X82962666Y-111609142D01*
X82915047Y-111656761D01*
X82819809Y-111704380D01*
X82534095Y-111704380D01*
X82438857Y-111656761D01*
X82391238Y-111609142D01*
%TO.C,Q2*%
X150272761Y-151654619D02*
X150177523Y-151607000D01*
X150082285Y-151511761D01*
X149939428Y-151368904D01*
X149844190Y-151321285D01*
X149748952Y-151321285D01*
X149796571Y-151559380D02*
X149701333Y-151511761D01*
X149606095Y-151416523D01*
X149558476Y-151226047D01*
X149558476Y-150892714D01*
X149606095Y-150702238D01*
X149701333Y-150607000D01*
X149796571Y-150559380D01*
X149987047Y-150559380D01*
X150082285Y-150607000D01*
X150177523Y-150702238D01*
X150225142Y-150892714D01*
X150225142Y-151226047D01*
X150177523Y-151416523D01*
X150082285Y-151511761D01*
X149987047Y-151559380D01*
X149796571Y-151559380D01*
X150606095Y-150654619D02*
X150653714Y-150607000D01*
X150748952Y-150559380D01*
X150987047Y-150559380D01*
X151082285Y-150607000D01*
X151129904Y-150654619D01*
X151177523Y-150749857D01*
X151177523Y-150845095D01*
X151129904Y-150987952D01*
X150558476Y-151559380D01*
X151177523Y-151559380D01*
%TO.C,R11*%
X96860380Y-139326857D02*
X96384190Y-139660190D01*
X96860380Y-139898285D02*
X95860380Y-139898285D01*
X95860380Y-139517333D01*
X95908000Y-139422095D01*
X95955619Y-139374476D01*
X96050857Y-139326857D01*
X96193714Y-139326857D01*
X96288952Y-139374476D01*
X96336571Y-139422095D01*
X96384190Y-139517333D01*
X96384190Y-139898285D01*
X96860380Y-138374476D02*
X96860380Y-138945904D01*
X96860380Y-138660190D02*
X95860380Y-138660190D01*
X96003238Y-138755428D01*
X96098476Y-138850666D01*
X96146095Y-138945904D01*
X96860380Y-137422095D02*
X96860380Y-137993523D01*
X96860380Y-137707809D02*
X95860380Y-137707809D01*
X96003238Y-137803047D01*
X96098476Y-137898285D01*
X96146095Y-137993523D01*
%TO.C,K3*%
X132865904Y-150312380D02*
X132865904Y-149312380D01*
X133437333Y-150312380D02*
X133008761Y-149740952D01*
X133437333Y-149312380D02*
X132865904Y-149883809D01*
X133770666Y-149312380D02*
X134389714Y-149312380D01*
X134056380Y-149693333D01*
X134199238Y-149693333D01*
X134294476Y-149740952D01*
X134342095Y-149788571D01*
X134389714Y-149883809D01*
X134389714Y-150121904D01*
X134342095Y-150217142D01*
X134294476Y-150264761D01*
X134199238Y-150312380D01*
X133913523Y-150312380D01*
X133818285Y-150264761D01*
X133770666Y-150217142D01*
%TO.C,Q1*%
X63912761Y-154979619D02*
X63817523Y-154932000D01*
X63722285Y-154836761D01*
X63579428Y-154693904D01*
X63484190Y-154646285D01*
X63388952Y-154646285D01*
X63436571Y-154884380D02*
X63341333Y-154836761D01*
X63246095Y-154741523D01*
X63198476Y-154551047D01*
X63198476Y-154217714D01*
X63246095Y-154027238D01*
X63341333Y-153932000D01*
X63436571Y-153884380D01*
X63627047Y-153884380D01*
X63722285Y-153932000D01*
X63817523Y-154027238D01*
X63865142Y-154217714D01*
X63865142Y-154551047D01*
X63817523Y-154741523D01*
X63722285Y-154836761D01*
X63627047Y-154884380D01*
X63436571Y-154884380D01*
X64817523Y-154884380D02*
X64246095Y-154884380D01*
X64531809Y-154884380D02*
X64531809Y-153884380D01*
X64436571Y-154027238D01*
X64341333Y-154122476D01*
X64246095Y-154170095D01*
X70794857Y-155900380D02*
X70794857Y-154900380D01*
X71842476Y-155900380D02*
X71509142Y-155424190D01*
X71271047Y-155900380D02*
X71271047Y-154900380D01*
X71652000Y-154900380D01*
X71747238Y-154948000D01*
X71794857Y-154995619D01*
X71842476Y-155090857D01*
X71842476Y-155233714D01*
X71794857Y-155328952D01*
X71747238Y-155376571D01*
X71652000Y-155424190D01*
X71271047Y-155424190D01*
X72604380Y-155376571D02*
X72271047Y-155376571D01*
X72271047Y-155900380D02*
X72271047Y-154900380D01*
X72747238Y-154900380D01*
X73556761Y-154900380D02*
X73366285Y-154900380D01*
X73271047Y-154948000D01*
X73223428Y-154995619D01*
X73128190Y-155138476D01*
X73080571Y-155328952D01*
X73080571Y-155709904D01*
X73128190Y-155805142D01*
X73175809Y-155852761D01*
X73271047Y-155900380D01*
X73461523Y-155900380D01*
X73556761Y-155852761D01*
X73604380Y-155805142D01*
X73652000Y-155709904D01*
X73652000Y-155471809D01*
X73604380Y-155376571D01*
X73556761Y-155328952D01*
X73461523Y-155281333D01*
X73271047Y-155281333D01*
X73175809Y-155328952D01*
X73128190Y-155376571D01*
X73080571Y-155471809D01*
X74509142Y-155233714D02*
X74509142Y-155900380D01*
X74271047Y-154852761D02*
X74032952Y-155567047D01*
X74652000Y-155567047D01*
X75223428Y-154900380D02*
X75318666Y-154900380D01*
X75413904Y-154948000D01*
X75461523Y-154995619D01*
X75509142Y-155090857D01*
X75556761Y-155281333D01*
X75556761Y-155519428D01*
X75509142Y-155709904D01*
X75461523Y-155805142D01*
X75413904Y-155852761D01*
X75318666Y-155900380D01*
X75223428Y-155900380D01*
X75128190Y-155852761D01*
X75080571Y-155805142D01*
X75032952Y-155709904D01*
X74985333Y-155519428D01*
X74985333Y-155281333D01*
X75032952Y-155090857D01*
X75080571Y-154995619D01*
X75128190Y-154948000D01*
X75223428Y-154900380D01*
%TO.C,PEDAL*%
X59928380Y-131516380D02*
X59928380Y-130516380D01*
X60309333Y-130516380D01*
X60404571Y-130564000D01*
X60452190Y-130611619D01*
X60499809Y-130706857D01*
X60499809Y-130849714D01*
X60452190Y-130944952D01*
X60404571Y-130992571D01*
X60309333Y-131040190D01*
X59928380Y-131040190D01*
X60928380Y-130992571D02*
X61261714Y-130992571D01*
X61404571Y-131516380D02*
X60928380Y-131516380D01*
X60928380Y-130516380D01*
X61404571Y-130516380D01*
X61833142Y-131516380D02*
X61833142Y-130516380D01*
X62071238Y-130516380D01*
X62214095Y-130564000D01*
X62309333Y-130659238D01*
X62356952Y-130754476D01*
X62404571Y-130944952D01*
X62404571Y-131087809D01*
X62356952Y-131278285D01*
X62309333Y-131373523D01*
X62214095Y-131468761D01*
X62071238Y-131516380D01*
X61833142Y-131516380D01*
X62785523Y-131230666D02*
X63261714Y-131230666D01*
X62690285Y-131516380D02*
X63023619Y-130516380D01*
X63356952Y-131516380D01*
X64166476Y-131516380D02*
X63690285Y-131516380D01*
X63690285Y-130516380D01*
%TO.C,RELAY_BMS*%
X101036380Y-79335133D02*
X100560190Y-79668466D01*
X101036380Y-79906561D02*
X100036380Y-79906561D01*
X100036380Y-79525609D01*
X100084000Y-79430371D01*
X100131619Y-79382752D01*
X100226857Y-79335133D01*
X100369714Y-79335133D01*
X100464952Y-79382752D01*
X100512571Y-79430371D01*
X100560190Y-79525609D01*
X100560190Y-79906561D01*
X100512571Y-78906561D02*
X100512571Y-78573228D01*
X101036380Y-78430371D02*
X101036380Y-78906561D01*
X100036380Y-78906561D01*
X100036380Y-78430371D01*
X101036380Y-77525609D02*
X101036380Y-78001800D01*
X100036380Y-78001800D01*
X100750666Y-77239895D02*
X100750666Y-76763704D01*
X101036380Y-77335133D02*
X100036380Y-77001800D01*
X101036380Y-76668466D01*
X100560190Y-76144657D02*
X101036380Y-76144657D01*
X100036380Y-76477990D02*
X100560190Y-76144657D01*
X100036380Y-75811323D01*
X101131619Y-75716085D02*
X101131619Y-74954180D01*
X100512571Y-74382752D02*
X100560190Y-74239895D01*
X100607809Y-74192276D01*
X100703047Y-74144657D01*
X100845904Y-74144657D01*
X100941142Y-74192276D01*
X100988761Y-74239895D01*
X101036380Y-74335133D01*
X101036380Y-74716085D01*
X100036380Y-74716085D01*
X100036380Y-74382752D01*
X100084000Y-74287514D01*
X100131619Y-74239895D01*
X100226857Y-74192276D01*
X100322095Y-74192276D01*
X100417333Y-74239895D01*
X100464952Y-74287514D01*
X100512571Y-74382752D01*
X100512571Y-74716085D01*
X101036380Y-73716085D02*
X100036380Y-73716085D01*
X100750666Y-73382752D01*
X100036380Y-73049419D01*
X101036380Y-73049419D01*
X100988761Y-72620847D02*
X101036380Y-72477990D01*
X101036380Y-72239895D01*
X100988761Y-72144657D01*
X100941142Y-72097038D01*
X100845904Y-72049419D01*
X100750666Y-72049419D01*
X100655428Y-72097038D01*
X100607809Y-72144657D01*
X100560190Y-72239895D01*
X100512571Y-72430371D01*
X100464952Y-72525609D01*
X100417333Y-72573228D01*
X100322095Y-72620847D01*
X100226857Y-72620847D01*
X100131619Y-72573228D01*
X100084000Y-72525609D01*
X100036380Y-72430371D01*
X100036380Y-72192276D01*
X100084000Y-72049419D01*
X105183166Y-79501800D02*
X105183166Y-79025609D01*
X105468880Y-79597038D02*
X104468880Y-79263704D01*
X105468880Y-78930371D01*
X105468880Y-78597038D02*
X104468880Y-78597038D01*
X104468880Y-78358942D01*
X104516500Y-78216085D01*
X104611738Y-78120847D01*
X104706976Y-78073228D01*
X104897452Y-78025609D01*
X105040309Y-78025609D01*
X105230785Y-78073228D01*
X105326023Y-78120847D01*
X105421261Y-78216085D01*
X105468880Y-78358942D01*
X105468880Y-78597038D01*
X104468880Y-77311323D02*
X105183166Y-77311323D01*
X105326023Y-77358942D01*
X105421261Y-77454180D01*
X105468880Y-77597038D01*
X105468880Y-77692276D01*
X105468880Y-76311323D02*
X105468880Y-76882752D01*
X105468880Y-76597038D02*
X104468880Y-76597038D01*
X104611738Y-76692276D01*
X104706976Y-76787514D01*
X104754595Y-76882752D01*
X104802214Y-75454180D02*
X105468880Y-75454180D01*
X104421261Y-75692276D02*
X105135547Y-75930371D01*
X105135547Y-75311323D01*
X104468880Y-74739895D02*
X104468880Y-74644657D01*
X104516500Y-74549419D01*
X104564119Y-74501800D01*
X104659357Y-74454180D01*
X104849833Y-74406561D01*
X105087928Y-74406561D01*
X105278404Y-74454180D01*
X105373642Y-74501800D01*
X105421261Y-74549419D01*
X105468880Y-74644657D01*
X105468880Y-74739895D01*
X105421261Y-74835133D01*
X105373642Y-74882752D01*
X105278404Y-74930371D01*
X105087928Y-74977990D01*
X104849833Y-74977990D01*
X104659357Y-74930371D01*
X104564119Y-74882752D01*
X104516500Y-74835133D01*
X104468880Y-74739895D01*
X105468880Y-73454180D02*
X105468880Y-74025609D01*
X105468880Y-73739895D02*
X104468880Y-73739895D01*
X104611738Y-73835133D01*
X104706976Y-73930371D01*
X104754595Y-74025609D01*
X104564119Y-73073228D02*
X104516500Y-73025609D01*
X104468880Y-72930371D01*
X104468880Y-72692276D01*
X104516500Y-72597038D01*
X104564119Y-72549419D01*
X104659357Y-72501800D01*
X104754595Y-72501800D01*
X104897452Y-72549419D01*
X105468880Y-73120847D01*
X105468880Y-72501800D01*
X117168880Y-70921800D02*
X117406976Y-70921800D01*
X117311738Y-71159895D02*
X117406976Y-70921800D01*
X117311738Y-70683704D01*
X117597452Y-71064657D02*
X117406976Y-70921800D01*
X117597452Y-70778942D01*
%TO.C,J5*%
X61261666Y-109523280D02*
X61261666Y-110237566D01*
X61214047Y-110380423D01*
X61118809Y-110475661D01*
X60975952Y-110523280D01*
X60880714Y-110523280D01*
X62214047Y-109523280D02*
X61737857Y-109523280D01*
X61690238Y-109999471D01*
X61737857Y-109951852D01*
X61833095Y-109904233D01*
X62071190Y-109904233D01*
X62166428Y-109951852D01*
X62214047Y-109999471D01*
X62261666Y-110094709D01*
X62261666Y-110332804D01*
X62214047Y-110428042D01*
X62166428Y-110475661D01*
X62071190Y-110523280D01*
X61833095Y-110523280D01*
X61737857Y-110475661D01*
X61690238Y-110428042D01*
X55808571Y-112053523D02*
X55856190Y-111910666D01*
X55903809Y-111863047D01*
X55999047Y-111815428D01*
X56141904Y-111815428D01*
X56237142Y-111863047D01*
X56284761Y-111910666D01*
X56332380Y-112005904D01*
X56332380Y-112386857D01*
X55332380Y-112386857D01*
X55332380Y-112053523D01*
X55380000Y-111958285D01*
X55427619Y-111910666D01*
X55522857Y-111863047D01*
X55618095Y-111863047D01*
X55713333Y-111910666D01*
X55760952Y-111958285D01*
X55808571Y-112053523D01*
X55808571Y-112386857D01*
X55332380Y-111196380D02*
X55332380Y-111005904D01*
X55380000Y-110910666D01*
X55475238Y-110815428D01*
X55665714Y-110767809D01*
X55999047Y-110767809D01*
X56189523Y-110815428D01*
X56284761Y-110910666D01*
X56332380Y-111005904D01*
X56332380Y-111196380D01*
X56284761Y-111291619D01*
X56189523Y-111386857D01*
X55999047Y-111434476D01*
X55665714Y-111434476D01*
X55475238Y-111386857D01*
X55380000Y-111291619D01*
X55332380Y-111196380D01*
X55332380Y-110482095D02*
X55332380Y-109910666D01*
X56332380Y-110196380D02*
X55332380Y-110196380D01*
X56284761Y-109624952D02*
X56332380Y-109482095D01*
X56332380Y-109244000D01*
X56284761Y-109148761D01*
X56237142Y-109101142D01*
X56141904Y-109053523D01*
X56046666Y-109053523D01*
X55951428Y-109101142D01*
X55903809Y-109148761D01*
X55856190Y-109244000D01*
X55808571Y-109434476D01*
X55760952Y-109529714D01*
X55713333Y-109577333D01*
X55618095Y-109624952D01*
X55522857Y-109624952D01*
X55427619Y-109577333D01*
X55380000Y-109529714D01*
X55332380Y-109434476D01*
X55332380Y-109196380D01*
X55380000Y-109053523D01*
X61595000Y-106767380D02*
X61595000Y-107005476D01*
X61356904Y-106910238D02*
X61595000Y-107005476D01*
X61833095Y-106910238D01*
X61452142Y-107195952D02*
X61595000Y-107005476D01*
X61737857Y-107195952D01*
%TO.C,R3*%
X122880380Y-130214666D02*
X122404190Y-130548000D01*
X122880380Y-130786095D02*
X121880380Y-130786095D01*
X121880380Y-130405142D01*
X121928000Y-130309904D01*
X121975619Y-130262285D01*
X122070857Y-130214666D01*
X122213714Y-130214666D01*
X122308952Y-130262285D01*
X122356571Y-130309904D01*
X122404190Y-130405142D01*
X122404190Y-130786095D01*
X121880380Y-129881333D02*
X121880380Y-129262285D01*
X122261333Y-129595619D01*
X122261333Y-129452761D01*
X122308952Y-129357523D01*
X122356571Y-129309904D01*
X122451809Y-129262285D01*
X122689904Y-129262285D01*
X122785142Y-129309904D01*
X122832761Y-129357523D01*
X122880380Y-129452761D01*
X122880380Y-129738476D01*
X122832761Y-129833714D01*
X122785142Y-129881333D01*
%TO.C,R12*%
X143121142Y-147264380D02*
X142787809Y-146788190D01*
X142549714Y-147264380D02*
X142549714Y-146264380D01*
X142930666Y-146264380D01*
X143025904Y-146312000D01*
X143073523Y-146359619D01*
X143121142Y-146454857D01*
X143121142Y-146597714D01*
X143073523Y-146692952D01*
X143025904Y-146740571D01*
X142930666Y-146788190D01*
X142549714Y-146788190D01*
X144073523Y-147264380D02*
X143502095Y-147264380D01*
X143787809Y-147264380D02*
X143787809Y-146264380D01*
X143692571Y-146407238D01*
X143597333Y-146502476D01*
X143502095Y-146550095D01*
X144454476Y-146359619D02*
X144502095Y-146312000D01*
X144597333Y-146264380D01*
X144835428Y-146264380D01*
X144930666Y-146312000D01*
X144978285Y-146359619D01*
X145025904Y-146454857D01*
X145025904Y-146550095D01*
X144978285Y-146692952D01*
X144406857Y-147264380D01*
X145025904Y-147264380D01*
%TO.C,J3*%
X164766666Y-157670380D02*
X164766666Y-158384666D01*
X164719047Y-158527523D01*
X164623809Y-158622761D01*
X164480952Y-158670380D01*
X164385714Y-158670380D01*
X165147619Y-157670380D02*
X165766666Y-157670380D01*
X165433333Y-158051333D01*
X165576190Y-158051333D01*
X165671428Y-158098952D01*
X165719047Y-158146571D01*
X165766666Y-158241809D01*
X165766666Y-158479904D01*
X165719047Y-158575142D01*
X165671428Y-158622761D01*
X165576190Y-158670380D01*
X165290476Y-158670380D01*
X165195238Y-158622761D01*
X165147619Y-158575142D01*
%TO.C,Q4*%
X99472761Y-149391619D02*
X99377523Y-149344000D01*
X99282285Y-149248761D01*
X99139428Y-149105904D01*
X99044190Y-149058285D01*
X98948952Y-149058285D01*
X98996571Y-149296380D02*
X98901333Y-149248761D01*
X98806095Y-149153523D01*
X98758476Y-148963047D01*
X98758476Y-148629714D01*
X98806095Y-148439238D01*
X98901333Y-148344000D01*
X98996571Y-148296380D01*
X99187047Y-148296380D01*
X99282285Y-148344000D01*
X99377523Y-148439238D01*
X99425142Y-148629714D01*
X99425142Y-148963047D01*
X99377523Y-149153523D01*
X99282285Y-149248761D01*
X99187047Y-149296380D01*
X98996571Y-149296380D01*
X100282285Y-148629714D02*
X100282285Y-149296380D01*
X100044190Y-148248761D02*
X99806095Y-148963047D01*
X100425142Y-148963047D01*
%TO.C,Q3*%
X90328761Y-152947619D02*
X90233523Y-152900000D01*
X90138285Y-152804761D01*
X89995428Y-152661904D01*
X89900190Y-152614285D01*
X89804952Y-152614285D01*
X89852571Y-152852380D02*
X89757333Y-152804761D01*
X89662095Y-152709523D01*
X89614476Y-152519047D01*
X89614476Y-152185714D01*
X89662095Y-151995238D01*
X89757333Y-151900000D01*
X89852571Y-151852380D01*
X90043047Y-151852380D01*
X90138285Y-151900000D01*
X90233523Y-151995238D01*
X90281142Y-152185714D01*
X90281142Y-152519047D01*
X90233523Y-152709523D01*
X90138285Y-152804761D01*
X90043047Y-152852380D01*
X89852571Y-152852380D01*
X90614476Y-151852380D02*
X91233523Y-151852380D01*
X90900190Y-152233333D01*
X91043047Y-152233333D01*
X91138285Y-152280952D01*
X91185904Y-152328571D01*
X91233523Y-152423809D01*
X91233523Y-152661904D01*
X91185904Y-152757142D01*
X91138285Y-152804761D01*
X91043047Y-152852380D01*
X90757333Y-152852380D01*
X90662095Y-152804761D01*
X90614476Y-152757142D01*
%TO.C,C2*%
X102957333Y-124309142D02*
X102909714Y-124356761D01*
X102766857Y-124404380D01*
X102671619Y-124404380D01*
X102528761Y-124356761D01*
X102433523Y-124261523D01*
X102385904Y-124166285D01*
X102338285Y-123975809D01*
X102338285Y-123832952D01*
X102385904Y-123642476D01*
X102433523Y-123547238D01*
X102528761Y-123452000D01*
X102671619Y-123404380D01*
X102766857Y-123404380D01*
X102909714Y-123452000D01*
X102957333Y-123499619D01*
X103338285Y-123499619D02*
X103385904Y-123452000D01*
X103481142Y-123404380D01*
X103719238Y-123404380D01*
X103814476Y-123452000D01*
X103862095Y-123499619D01*
X103909714Y-123594857D01*
X103909714Y-123690095D01*
X103862095Y-123832952D01*
X103290666Y-124404380D01*
X103909714Y-124404380D01*
%TO.C,RV1*%
X69436380Y-144359238D02*
X68960190Y-144692571D01*
X69436380Y-144930666D02*
X68436380Y-144930666D01*
X68436380Y-144549714D01*
X68484000Y-144454476D01*
X68531619Y-144406857D01*
X68626857Y-144359238D01*
X68769714Y-144359238D01*
X68864952Y-144406857D01*
X68912571Y-144454476D01*
X68960190Y-144549714D01*
X68960190Y-144930666D01*
X68436380Y-144073523D02*
X69436380Y-143740190D01*
X68436380Y-143406857D01*
X69436380Y-142549714D02*
X69436380Y-143121142D01*
X69436380Y-142835428D02*
X68436380Y-142835428D01*
X68579238Y-142930666D01*
X68674476Y-143025904D01*
X68722095Y-143121142D01*
%TO.C,RELAY_IMD*%
X138628380Y-93067038D02*
X138152190Y-93400371D01*
X138628380Y-93638466D02*
X137628380Y-93638466D01*
X137628380Y-93257514D01*
X137676000Y-93162276D01*
X137723619Y-93114657D01*
X137818857Y-93067038D01*
X137961714Y-93067038D01*
X138056952Y-93114657D01*
X138104571Y-93162276D01*
X138152190Y-93257514D01*
X138152190Y-93638466D01*
X138104571Y-92638466D02*
X138104571Y-92305133D01*
X138628380Y-92162276D02*
X138628380Y-92638466D01*
X137628380Y-92638466D01*
X137628380Y-92162276D01*
X138628380Y-91257514D02*
X138628380Y-91733704D01*
X137628380Y-91733704D01*
X138342666Y-90971800D02*
X138342666Y-90495609D01*
X138628380Y-91067038D02*
X137628380Y-90733704D01*
X138628380Y-90400371D01*
X138152190Y-89876561D02*
X138628380Y-89876561D01*
X137628380Y-90209895D02*
X138152190Y-89876561D01*
X137628380Y-89543228D01*
X138723619Y-89447990D02*
X138723619Y-88686085D01*
X138628380Y-88447990D02*
X137628380Y-88447990D01*
X138628380Y-87971800D02*
X137628380Y-87971800D01*
X138342666Y-87638466D01*
X137628380Y-87305133D01*
X138628380Y-87305133D01*
X138628380Y-86828942D02*
X137628380Y-86828942D01*
X137628380Y-86590847D01*
X137676000Y-86447990D01*
X137771238Y-86352752D01*
X137866476Y-86305133D01*
X138056952Y-86257514D01*
X138199809Y-86257514D01*
X138390285Y-86305133D01*
X138485523Y-86352752D01*
X138580761Y-86447990D01*
X138628380Y-86590847D01*
X138628380Y-86828942D01*
X135790166Y-93471800D02*
X135790166Y-92995609D01*
X136075880Y-93567038D02*
X135075880Y-93233704D01*
X136075880Y-92900371D01*
X136075880Y-92567038D02*
X135075880Y-92567038D01*
X135075880Y-92328942D01*
X135123500Y-92186085D01*
X135218738Y-92090847D01*
X135313976Y-92043228D01*
X135504452Y-91995609D01*
X135647309Y-91995609D01*
X135837785Y-92043228D01*
X135933023Y-92090847D01*
X136028261Y-92186085D01*
X136075880Y-92328942D01*
X136075880Y-92567038D01*
X135075880Y-91281323D02*
X135790166Y-91281323D01*
X135933023Y-91328942D01*
X136028261Y-91424180D01*
X136075880Y-91567038D01*
X136075880Y-91662276D01*
X136075880Y-90281323D02*
X136075880Y-90852752D01*
X136075880Y-90567038D02*
X135075880Y-90567038D01*
X135218738Y-90662276D01*
X135313976Y-90757514D01*
X135361595Y-90852752D01*
X135409214Y-89424180D02*
X136075880Y-89424180D01*
X135028261Y-89662276D02*
X135742547Y-89900371D01*
X135742547Y-89281323D01*
X135075880Y-88709895D02*
X135075880Y-88614657D01*
X135123500Y-88519419D01*
X135171119Y-88471800D01*
X135266357Y-88424180D01*
X135456833Y-88376561D01*
X135694928Y-88376561D01*
X135885404Y-88424180D01*
X135980642Y-88471800D01*
X136028261Y-88519419D01*
X136075880Y-88614657D01*
X136075880Y-88709895D01*
X136028261Y-88805133D01*
X135980642Y-88852752D01*
X135885404Y-88900371D01*
X135694928Y-88947990D01*
X135456833Y-88947990D01*
X135266357Y-88900371D01*
X135171119Y-88852752D01*
X135123500Y-88805133D01*
X135075880Y-88709895D01*
X136075880Y-87424180D02*
X136075880Y-87995609D01*
X136075880Y-87709895D02*
X135075880Y-87709895D01*
X135218738Y-87805133D01*
X135313976Y-87900371D01*
X135361595Y-87995609D01*
X135171119Y-87043228D02*
X135123500Y-86995609D01*
X135075880Y-86900371D01*
X135075880Y-86662276D01*
X135123500Y-86567038D01*
X135171119Y-86519419D01*
X135266357Y-86471800D01*
X135361595Y-86471800D01*
X135504452Y-86519419D01*
X136075880Y-87090847D01*
X136075880Y-86471800D01*
%TO.C,R2*%
X74620380Y-133262666D02*
X74144190Y-133596000D01*
X74620380Y-133834095D02*
X73620380Y-133834095D01*
X73620380Y-133453142D01*
X73668000Y-133357904D01*
X73715619Y-133310285D01*
X73810857Y-133262666D01*
X73953714Y-133262666D01*
X74048952Y-133310285D01*
X74096571Y-133357904D01*
X74144190Y-133453142D01*
X74144190Y-133834095D01*
X73715619Y-132881714D02*
X73668000Y-132834095D01*
X73620380Y-132738857D01*
X73620380Y-132500761D01*
X73668000Y-132405523D01*
X73715619Y-132357904D01*
X73810857Y-132310285D01*
X73906095Y-132310285D01*
X74048952Y-132357904D01*
X74620380Y-132929333D01*
X74620380Y-132310285D01*
%TO.C,JUNCTION*%
X160123571Y-70142380D02*
X160123571Y-70856666D01*
X160075952Y-70999523D01*
X159980714Y-71094761D01*
X159837857Y-71142380D01*
X159742619Y-71142380D01*
X160599761Y-70142380D02*
X160599761Y-70951904D01*
X160647380Y-71047142D01*
X160695000Y-71094761D01*
X160790238Y-71142380D01*
X160980714Y-71142380D01*
X161075952Y-71094761D01*
X161123571Y-71047142D01*
X161171190Y-70951904D01*
X161171190Y-70142380D01*
X161647380Y-71142380D02*
X161647380Y-70142380D01*
X162218809Y-71142380D01*
X162218809Y-70142380D01*
X163266428Y-71047142D02*
X163218809Y-71094761D01*
X163075952Y-71142380D01*
X162980714Y-71142380D01*
X162837857Y-71094761D01*
X162742619Y-70999523D01*
X162695000Y-70904285D01*
X162647380Y-70713809D01*
X162647380Y-70570952D01*
X162695000Y-70380476D01*
X162742619Y-70285238D01*
X162837857Y-70190000D01*
X162980714Y-70142380D01*
X163075952Y-70142380D01*
X163218809Y-70190000D01*
X163266428Y-70237619D01*
X163552142Y-70142380D02*
X164123571Y-70142380D01*
X163837857Y-71142380D02*
X163837857Y-70142380D01*
X164456904Y-71142380D02*
X164456904Y-70142380D01*
X165123571Y-70142380D02*
X165314047Y-70142380D01*
X165409285Y-70190000D01*
X165504523Y-70285238D01*
X165552142Y-70475714D01*
X165552142Y-70809047D01*
X165504523Y-70999523D01*
X165409285Y-71094761D01*
X165314047Y-71142380D01*
X165123571Y-71142380D01*
X165028333Y-71094761D01*
X164933095Y-70999523D01*
X164885476Y-70809047D01*
X164885476Y-70475714D01*
X164933095Y-70285238D01*
X165028333Y-70190000D01*
X165123571Y-70142380D01*
X165980714Y-71142380D02*
X165980714Y-70142380D01*
X166552142Y-71142380D01*
X166552142Y-70142380D01*
%TO.C,RV2*%
X116380380Y-131151238D02*
X115904190Y-131484571D01*
X116380380Y-131722666D02*
X115380380Y-131722666D01*
X115380380Y-131341714D01*
X115428000Y-131246476D01*
X115475619Y-131198857D01*
X115570857Y-131151238D01*
X115713714Y-131151238D01*
X115808952Y-131198857D01*
X115856571Y-131246476D01*
X115904190Y-131341714D01*
X115904190Y-131722666D01*
X115380380Y-130865523D02*
X116380380Y-130532190D01*
X115380380Y-130198857D01*
X115475619Y-129913142D02*
X115428000Y-129865523D01*
X115380380Y-129770285D01*
X115380380Y-129532190D01*
X115428000Y-129436952D01*
X115475619Y-129389333D01*
X115570857Y-129341714D01*
X115666095Y-129341714D01*
X115808952Y-129389333D01*
X116380380Y-129960761D01*
X116380380Y-129341714D01*
%TO.C,U2*%
X89114380Y-142493904D02*
X89923904Y-142493904D01*
X90019142Y-142446285D01*
X90066761Y-142398666D01*
X90114380Y-142303428D01*
X90114380Y-142112952D01*
X90066761Y-142017714D01*
X90019142Y-141970095D01*
X89923904Y-141922476D01*
X89114380Y-141922476D01*
X89209619Y-141493904D02*
X89162000Y-141446285D01*
X89114380Y-141351047D01*
X89114380Y-141112952D01*
X89162000Y-141017714D01*
X89209619Y-140970095D01*
X89304857Y-140922476D01*
X89400095Y-140922476D01*
X89542952Y-140970095D01*
X90114380Y-141541523D01*
X90114380Y-140922476D01*
X81732380Y-143422476D02*
X81732380Y-143898666D01*
X80732380Y-143898666D01*
X81732380Y-143089142D02*
X80732380Y-143089142D01*
X81446666Y-142755809D01*
X80732380Y-142422476D01*
X81732380Y-142422476D01*
X80732380Y-142041523D02*
X80732380Y-141422476D01*
X81113333Y-141755809D01*
X81113333Y-141612952D01*
X81160952Y-141517714D01*
X81208571Y-141470095D01*
X81303809Y-141422476D01*
X81541904Y-141422476D01*
X81637142Y-141470095D01*
X81684761Y-141517714D01*
X81732380Y-141612952D01*
X81732380Y-141898666D01*
X81684761Y-141993904D01*
X81637142Y-142041523D01*
X81732380Y-140470095D02*
X81732380Y-141041523D01*
X81732380Y-140755809D02*
X80732380Y-140755809D01*
X80875238Y-140851047D01*
X80970476Y-140946285D01*
X81018095Y-141041523D01*
X81732380Y-139517714D02*
X81732380Y-140089142D01*
X81732380Y-139803428D02*
X80732380Y-139803428D01*
X80875238Y-139898666D01*
X80970476Y-139993904D01*
X81018095Y-140089142D01*
%TO.C,R16*%
X124325142Y-109164380D02*
X123991809Y-108688190D01*
X123753714Y-109164380D02*
X123753714Y-108164380D01*
X124134666Y-108164380D01*
X124229904Y-108212000D01*
X124277523Y-108259619D01*
X124325142Y-108354857D01*
X124325142Y-108497714D01*
X124277523Y-108592952D01*
X124229904Y-108640571D01*
X124134666Y-108688190D01*
X123753714Y-108688190D01*
X125277523Y-109164380D02*
X124706095Y-109164380D01*
X124991809Y-109164380D02*
X124991809Y-108164380D01*
X124896571Y-108307238D01*
X124801333Y-108402476D01*
X124706095Y-108450095D01*
X126134666Y-108164380D02*
X125944190Y-108164380D01*
X125848952Y-108212000D01*
X125801333Y-108259619D01*
X125706095Y-108402476D01*
X125658476Y-108592952D01*
X125658476Y-108973904D01*
X125706095Y-109069142D01*
X125753714Y-109116761D01*
X125848952Y-109164380D01*
X126039428Y-109164380D01*
X126134666Y-109116761D01*
X126182285Y-109069142D01*
X126229904Y-108973904D01*
X126229904Y-108735809D01*
X126182285Y-108640571D01*
X126134666Y-108592952D01*
X126039428Y-108545333D01*
X125848952Y-108545333D01*
X125753714Y-108592952D01*
X125706095Y-108640571D01*
X125658476Y-108735809D01*
%TO.C,F1*%
X84502666Y-102544571D02*
X84169333Y-102544571D01*
X84169333Y-103068380D02*
X84169333Y-102068380D01*
X84645523Y-102068380D01*
X85550285Y-103068380D02*
X84978857Y-103068380D01*
X85264571Y-103068380D02*
X85264571Y-102068380D01*
X85169333Y-102211238D01*
X85074095Y-102306476D01*
X84978857Y-102354095D01*
%TO.C,R1*%
X94321333Y-162504380D02*
X93988000Y-162028190D01*
X93749904Y-162504380D02*
X93749904Y-161504380D01*
X94130857Y-161504380D01*
X94226095Y-161552000D01*
X94273714Y-161599619D01*
X94321333Y-161694857D01*
X94321333Y-161837714D01*
X94273714Y-161932952D01*
X94226095Y-161980571D01*
X94130857Y-162028190D01*
X93749904Y-162028190D01*
X95273714Y-162504380D02*
X94702285Y-162504380D01*
X94988000Y-162504380D02*
X94988000Y-161504380D01*
X94892761Y-161647238D01*
X94797523Y-161742476D01*
X94702285Y-161790095D01*
%TO.C,C1*%
X84161333Y-134469142D02*
X84113714Y-134516761D01*
X83970857Y-134564380D01*
X83875619Y-134564380D01*
X83732761Y-134516761D01*
X83637523Y-134421523D01*
X83589904Y-134326285D01*
X83542285Y-134135809D01*
X83542285Y-133992952D01*
X83589904Y-133802476D01*
X83637523Y-133707238D01*
X83732761Y-133612000D01*
X83875619Y-133564380D01*
X83970857Y-133564380D01*
X84113714Y-133612000D01*
X84161333Y-133659619D01*
X85113714Y-134564380D02*
X84542285Y-134564380D01*
X84828000Y-134564380D02*
X84828000Y-133564380D01*
X84732761Y-133707238D01*
X84637523Y-133802476D01*
X84542285Y-133850095D01*
%TO.C,U1*%
X67818095Y-132548380D02*
X67818095Y-133357904D01*
X67865714Y-133453142D01*
X67913333Y-133500761D01*
X68008571Y-133548380D01*
X68199047Y-133548380D01*
X68294285Y-133500761D01*
X68341904Y-133453142D01*
X68389523Y-133357904D01*
X68389523Y-132548380D01*
X69389523Y-133548380D02*
X68818095Y-133548380D01*
X69103809Y-133548380D02*
X69103809Y-132548380D01*
X69008571Y-132691238D01*
X68913333Y-132786476D01*
X68818095Y-132834095D01*
X64088000Y-134786666D02*
X64564190Y-134786666D01*
X63992761Y-135072380D02*
X64326095Y-134072380D01*
X64659428Y-135072380D01*
X64992761Y-135072380D02*
X64992761Y-134072380D01*
X65326095Y-134786666D01*
X65659428Y-134072380D01*
X65659428Y-135072380D01*
X66088000Y-135024761D02*
X66230857Y-135072380D01*
X66468952Y-135072380D01*
X66564190Y-135024761D01*
X66611809Y-134977142D01*
X66659428Y-134881904D01*
X66659428Y-134786666D01*
X66611809Y-134691428D01*
X66564190Y-134643809D01*
X66468952Y-134596190D01*
X66278476Y-134548571D01*
X66183238Y-134500952D01*
X66135619Y-134453333D01*
X66088000Y-134358095D01*
X66088000Y-134262857D01*
X66135619Y-134167619D01*
X66183238Y-134120000D01*
X66278476Y-134072380D01*
X66516571Y-134072380D01*
X66659428Y-134120000D01*
X67611809Y-135072380D02*
X67040380Y-135072380D01*
X67326095Y-135072380D02*
X67326095Y-134072380D01*
X67230857Y-134215238D01*
X67135619Y-134310476D01*
X67040380Y-134358095D01*
X68564190Y-135072380D02*
X67992761Y-135072380D01*
X68278476Y-135072380D02*
X68278476Y-134072380D01*
X68183238Y-134215238D01*
X68088000Y-134310476D01*
X67992761Y-134358095D01*
X69516571Y-135072380D02*
X68945142Y-135072380D01*
X69230857Y-135072380D02*
X69230857Y-134072380D01*
X69135619Y-134215238D01*
X69040380Y-134310476D01*
X68945142Y-134358095D01*
X69849904Y-134072380D02*
X70516571Y-134072380D01*
X70088000Y-135072380D01*
X70897523Y-134691428D02*
X71659428Y-134691428D01*
X72611809Y-134072380D02*
X72135619Y-134072380D01*
X72088000Y-134548571D01*
X72135619Y-134500952D01*
X72230857Y-134453333D01*
X72468952Y-134453333D01*
X72564190Y-134500952D01*
X72611809Y-134548571D01*
X72659428Y-134643809D01*
X72659428Y-134881904D01*
X72611809Y-134977142D01*
X72564190Y-135024761D01*
X72468952Y-135072380D01*
X72230857Y-135072380D01*
X72135619Y-135024761D01*
X72088000Y-134977142D01*
X73088000Y-134977142D02*
X73135619Y-135024761D01*
X73088000Y-135072380D01*
X73040380Y-135024761D01*
X73088000Y-134977142D01*
X73088000Y-135072380D01*
X73754666Y-134072380D02*
X73849904Y-134072380D01*
X73945142Y-134120000D01*
X73992761Y-134167619D01*
X74040380Y-134262857D01*
X74088000Y-134453333D01*
X74088000Y-134691428D01*
X74040380Y-134881904D01*
X73992761Y-134977142D01*
X73945142Y-135024761D01*
X73849904Y-135072380D01*
X73754666Y-135072380D01*
X73659428Y-135024761D01*
X73611809Y-134977142D01*
X73564190Y-134881904D01*
X73516571Y-134691428D01*
X73516571Y-134453333D01*
X73564190Y-134262857D01*
X73611809Y-134167619D01*
X73659428Y-134120000D01*
X73754666Y-134072380D01*
%TO.C,F2*%
X84502666Y-93400571D02*
X84169333Y-93400571D01*
X84169333Y-93924380D02*
X84169333Y-92924380D01*
X84645523Y-92924380D01*
X84978857Y-93019619D02*
X85026476Y-92972000D01*
X85121714Y-92924380D01*
X85359809Y-92924380D01*
X85455047Y-92972000D01*
X85502666Y-93019619D01*
X85550285Y-93114857D01*
X85550285Y-93210095D01*
X85502666Y-93352952D01*
X84931238Y-93924380D01*
X85550285Y-93924380D01*
%TO.C,R4*%
X120228380Y-98210666D02*
X119752190Y-98544000D01*
X120228380Y-98782095D02*
X119228380Y-98782095D01*
X119228380Y-98401142D01*
X119276000Y-98305904D01*
X119323619Y-98258285D01*
X119418857Y-98210666D01*
X119561714Y-98210666D01*
X119656952Y-98258285D01*
X119704571Y-98305904D01*
X119752190Y-98401142D01*
X119752190Y-98782095D01*
X119561714Y-97353523D02*
X120228380Y-97353523D01*
X119180761Y-97591619D02*
X119895047Y-97829714D01*
X119895047Y-97210666D01*
%TO.C,BATTERY_PACK*%
X130318476Y-166044571D02*
X130461333Y-166092190D01*
X130508952Y-166139809D01*
X130556571Y-166235047D01*
X130556571Y-166377904D01*
X130508952Y-166473142D01*
X130461333Y-166520761D01*
X130366095Y-166568380D01*
X129985142Y-166568380D01*
X129985142Y-165568380D01*
X130318476Y-165568380D01*
X130413714Y-165616000D01*
X130461333Y-165663619D01*
X130508952Y-165758857D01*
X130508952Y-165854095D01*
X130461333Y-165949333D01*
X130413714Y-165996952D01*
X130318476Y-166044571D01*
X129985142Y-166044571D01*
X130937523Y-166282666D02*
X131413714Y-166282666D01*
X130842285Y-166568380D02*
X131175619Y-165568380D01*
X131508952Y-166568380D01*
X131699428Y-165568380D02*
X132270857Y-165568380D01*
X131985142Y-166568380D02*
X131985142Y-165568380D01*
X132461333Y-165568380D02*
X133032761Y-165568380D01*
X132747047Y-166568380D02*
X132747047Y-165568380D01*
X133366095Y-166044571D02*
X133699428Y-166044571D01*
X133842285Y-166568380D02*
X133366095Y-166568380D01*
X133366095Y-165568380D01*
X133842285Y-165568380D01*
X134842285Y-166568380D02*
X134508952Y-166092190D01*
X134270857Y-166568380D02*
X134270857Y-165568380D01*
X134651809Y-165568380D01*
X134747047Y-165616000D01*
X134794666Y-165663619D01*
X134842285Y-165758857D01*
X134842285Y-165901714D01*
X134794666Y-165996952D01*
X134747047Y-166044571D01*
X134651809Y-166092190D01*
X134270857Y-166092190D01*
X135461333Y-166092190D02*
X135461333Y-166568380D01*
X135128000Y-165568380D02*
X135461333Y-166092190D01*
X135794666Y-165568380D01*
X135889904Y-166663619D02*
X136651809Y-166663619D01*
X136889904Y-166568380D02*
X136889904Y-165568380D01*
X137270857Y-165568380D01*
X137366095Y-165616000D01*
X137413714Y-165663619D01*
X137461333Y-165758857D01*
X137461333Y-165901714D01*
X137413714Y-165996952D01*
X137366095Y-166044571D01*
X137270857Y-166092190D01*
X136889904Y-166092190D01*
X137842285Y-166282666D02*
X138318476Y-166282666D01*
X137747047Y-166568380D02*
X138080380Y-165568380D01*
X138413714Y-166568380D01*
X139318476Y-166473142D02*
X139270857Y-166520761D01*
X139128000Y-166568380D01*
X139032761Y-166568380D01*
X138889904Y-166520761D01*
X138794666Y-166425523D01*
X138747047Y-166330285D01*
X138699428Y-166139809D01*
X138699428Y-165996952D01*
X138747047Y-165806476D01*
X138794666Y-165711238D01*
X138889904Y-165616000D01*
X139032761Y-165568380D01*
X139128000Y-165568380D01*
X139270857Y-165616000D01*
X139318476Y-165663619D01*
X139747047Y-166568380D02*
X139747047Y-165568380D01*
X140318476Y-166568380D02*
X139889904Y-165996952D01*
X140318476Y-165568380D02*
X139747047Y-166139809D01*
%TO.C,U3*%
X105624380Y-132333904D02*
X106433904Y-132333904D01*
X106529142Y-132286285D01*
X106576761Y-132238666D01*
X106624380Y-132143428D01*
X106624380Y-131952952D01*
X106576761Y-131857714D01*
X106529142Y-131810095D01*
X106433904Y-131762476D01*
X105624380Y-131762476D01*
X105624380Y-131381523D02*
X105624380Y-130762476D01*
X106005333Y-131095809D01*
X106005333Y-130952952D01*
X106052952Y-130857714D01*
X106100571Y-130810095D01*
X106195809Y-130762476D01*
X106433904Y-130762476D01*
X106529142Y-130810095D01*
X106576761Y-130857714D01*
X106624380Y-130952952D01*
X106624380Y-131238666D01*
X106576761Y-131333904D01*
X106529142Y-131381523D01*
X96210380Y-133262476D02*
X96210380Y-133738666D01*
X95210380Y-133738666D01*
X96210380Y-132929142D02*
X95210380Y-132929142D01*
X95924666Y-132595809D01*
X95210380Y-132262476D01*
X96210380Y-132262476D01*
X95210380Y-131881523D02*
X95210380Y-131262476D01*
X95591333Y-131595809D01*
X95591333Y-131452952D01*
X95638952Y-131357714D01*
X95686571Y-131310095D01*
X95781809Y-131262476D01*
X96019904Y-131262476D01*
X96115142Y-131310095D01*
X96162761Y-131357714D01*
X96210380Y-131452952D01*
X96210380Y-131738666D01*
X96162761Y-131833904D01*
X96115142Y-131881523D01*
X96210380Y-130310095D02*
X96210380Y-130881523D01*
X96210380Y-130595809D02*
X95210380Y-130595809D01*
X95353238Y-130691047D01*
X95448476Y-130786285D01*
X95496095Y-130881523D01*
X96210380Y-129357714D02*
X96210380Y-129929142D01*
X96210380Y-129643428D02*
X95210380Y-129643428D01*
X95353238Y-129738666D01*
X95448476Y-129833904D01*
X95496095Y-129929142D01*
%TO.C,C3*%
X81113333Y-150893142D02*
X81065714Y-150940761D01*
X80922857Y-150988380D01*
X80827619Y-150988380D01*
X80684761Y-150940761D01*
X80589523Y-150845523D01*
X80541904Y-150750285D01*
X80494285Y-150559809D01*
X80494285Y-150416952D01*
X80541904Y-150226476D01*
X80589523Y-150131238D01*
X80684761Y-150036000D01*
X80827619Y-149988380D01*
X80922857Y-149988380D01*
X81065714Y-150036000D01*
X81113333Y-150083619D01*
X81446666Y-149988380D02*
X82065714Y-149988380D01*
X81732380Y-150369333D01*
X81875238Y-150369333D01*
X81970476Y-150416952D01*
X82018095Y-150464571D01*
X82065714Y-150559809D01*
X82065714Y-150797904D01*
X82018095Y-150893142D01*
X81970476Y-150940761D01*
X81875238Y-150988380D01*
X81589523Y-150988380D01*
X81494285Y-150940761D01*
X81446666Y-150893142D01*
%TO.C,U4*%
X108458095Y-153376380D02*
X108458095Y-154185904D01*
X108505714Y-154281142D01*
X108553333Y-154328761D01*
X108648571Y-154376380D01*
X108839047Y-154376380D01*
X108934285Y-154328761D01*
X108981904Y-154281142D01*
X109029523Y-154185904D01*
X109029523Y-153376380D01*
X109934285Y-153709714D02*
X109934285Y-154376380D01*
X109696190Y-153328761D02*
X109458095Y-154043047D01*
X110077142Y-154043047D01*
X106553333Y-156408380D02*
X106553333Y-155408380D01*
X107124761Y-156408380D01*
X107124761Y-155408380D01*
X107600952Y-155884571D02*
X107934285Y-155884571D01*
X108077142Y-156408380D02*
X107600952Y-156408380D01*
X107600952Y-155408380D01*
X108077142Y-155408380D01*
X108981904Y-155408380D02*
X108505714Y-155408380D01*
X108458095Y-155884571D01*
X108505714Y-155836952D01*
X108600952Y-155789333D01*
X108839047Y-155789333D01*
X108934285Y-155836952D01*
X108981904Y-155884571D01*
X109029523Y-155979809D01*
X109029523Y-156217904D01*
X108981904Y-156313142D01*
X108934285Y-156360761D01*
X108839047Y-156408380D01*
X108600952Y-156408380D01*
X108505714Y-156360761D01*
X108458095Y-156313142D01*
X109934285Y-155408380D02*
X109458095Y-155408380D01*
X109410476Y-155884571D01*
X109458095Y-155836952D01*
X109553333Y-155789333D01*
X109791428Y-155789333D01*
X109886666Y-155836952D01*
X109934285Y-155884571D01*
X109981904Y-155979809D01*
X109981904Y-156217904D01*
X109934285Y-156313142D01*
X109886666Y-156360761D01*
X109791428Y-156408380D01*
X109553333Y-156408380D01*
X109458095Y-156360761D01*
X109410476Y-156313142D01*
X110886666Y-155408380D02*
X110410476Y-155408380D01*
X110362857Y-155884571D01*
X110410476Y-155836952D01*
X110505714Y-155789333D01*
X110743809Y-155789333D01*
X110839047Y-155836952D01*
X110886666Y-155884571D01*
X110934285Y-155979809D01*
X110934285Y-156217904D01*
X110886666Y-156313142D01*
X110839047Y-156360761D01*
X110743809Y-156408380D01*
X110505714Y-156408380D01*
X110410476Y-156360761D01*
X110362857Y-156313142D01*
X111362857Y-156408380D02*
X111362857Y-155408380D01*
X111600952Y-155408380D01*
X111743809Y-155456000D01*
X111839047Y-155551238D01*
X111886666Y-155646476D01*
X111934285Y-155836952D01*
X111934285Y-155979809D01*
X111886666Y-156170285D01*
X111839047Y-156265523D01*
X111743809Y-156360761D01*
X111600952Y-156408380D01*
X111362857Y-156408380D01*
%TO.C,J1*%
X61261666Y-122858280D02*
X61261666Y-123572566D01*
X61214047Y-123715423D01*
X61118809Y-123810661D01*
X60975952Y-123858280D01*
X60880714Y-123858280D01*
X62261666Y-123858280D02*
X61690238Y-123858280D01*
X61975952Y-123858280D02*
X61975952Y-122858280D01*
X61880714Y-123001138D01*
X61785476Y-123096376D01*
X61690238Y-123143995D01*
X56332380Y-129261523D02*
X55332380Y-129261523D01*
X55808571Y-129261523D02*
X55808571Y-128690095D01*
X56332380Y-128690095D02*
X55332380Y-128690095D01*
X56332380Y-128213904D02*
X55332380Y-128213904D01*
X55380000Y-127213904D02*
X55332380Y-127309142D01*
X55332380Y-127452000D01*
X55380000Y-127594857D01*
X55475238Y-127690095D01*
X55570476Y-127737714D01*
X55760952Y-127785333D01*
X55903809Y-127785333D01*
X56094285Y-127737714D01*
X56189523Y-127690095D01*
X56284761Y-127594857D01*
X56332380Y-127452000D01*
X56332380Y-127356761D01*
X56284761Y-127213904D01*
X56237142Y-127166285D01*
X55903809Y-127166285D01*
X55903809Y-127356761D01*
X56332380Y-126737714D02*
X55332380Y-126737714D01*
X55808571Y-126737714D02*
X55808571Y-126166285D01*
X56332380Y-126166285D02*
X55332380Y-126166285D01*
X56427619Y-125928190D02*
X56427619Y-125166285D01*
X56237142Y-124356761D02*
X56284761Y-124404380D01*
X56332380Y-124547238D01*
X56332380Y-124642476D01*
X56284761Y-124785333D01*
X56189523Y-124880571D01*
X56094285Y-124928190D01*
X55903809Y-124975809D01*
X55760952Y-124975809D01*
X55570476Y-124928190D01*
X55475238Y-124880571D01*
X55380000Y-124785333D01*
X55332380Y-124642476D01*
X55332380Y-124547238D01*
X55380000Y-124404380D01*
X55427619Y-124356761D01*
X55332380Y-123928190D02*
X56141904Y-123928190D01*
X56237142Y-123880571D01*
X56284761Y-123832952D01*
X56332380Y-123737714D01*
X56332380Y-123547238D01*
X56284761Y-123452000D01*
X56237142Y-123404380D01*
X56141904Y-123356761D01*
X55332380Y-123356761D01*
X56332380Y-122309142D02*
X55856190Y-122642476D01*
X56332380Y-122880571D02*
X55332380Y-122880571D01*
X55332380Y-122499619D01*
X55380000Y-122404380D01*
X55427619Y-122356761D01*
X55522857Y-122309142D01*
X55665714Y-122309142D01*
X55760952Y-122356761D01*
X55808571Y-122404380D01*
X55856190Y-122499619D01*
X55856190Y-122880571D01*
X56332380Y-121309142D02*
X55856190Y-121642476D01*
X56332380Y-121880571D02*
X55332380Y-121880571D01*
X55332380Y-121499619D01*
X55380000Y-121404380D01*
X55427619Y-121356761D01*
X55522857Y-121309142D01*
X55665714Y-121309142D01*
X55760952Y-121356761D01*
X55808571Y-121404380D01*
X55856190Y-121499619D01*
X55856190Y-121880571D01*
X55808571Y-120880571D02*
X55808571Y-120547238D01*
X56332380Y-120404380D02*
X56332380Y-120880571D01*
X55332380Y-120880571D01*
X55332380Y-120404380D01*
X56332380Y-119975809D02*
X55332380Y-119975809D01*
X56332380Y-119404380D01*
X55332380Y-119404380D01*
X55332380Y-119071047D02*
X55332380Y-118499619D01*
X56332380Y-118785333D02*
X55332380Y-118785333D01*
X61595000Y-120102380D02*
X61595000Y-120340476D01*
X61356904Y-120245238D02*
X61595000Y-120340476D01*
X61833095Y-120245238D01*
X61452142Y-120530952D02*
X61595000Y-120340476D01*
X61737857Y-120530952D01*
%TO.C,C5*%
X124987142Y-146060015D02*
X125034761Y-146107634D01*
X125082380Y-146250491D01*
X125082380Y-146345729D01*
X125034761Y-146488587D01*
X124939523Y-146583825D01*
X124844285Y-146631444D01*
X124653809Y-146679063D01*
X124510952Y-146679063D01*
X124320476Y-146631444D01*
X124225238Y-146583825D01*
X124130000Y-146488587D01*
X124082380Y-146345729D01*
X124082380Y-146250491D01*
X124130000Y-146107634D01*
X124177619Y-146060015D01*
X124082380Y-145155253D02*
X124082380Y-145631444D01*
X124558571Y-145679063D01*
X124510952Y-145631444D01*
X124463333Y-145536206D01*
X124463333Y-145298110D01*
X124510952Y-145202872D01*
X124558571Y-145155253D01*
X124653809Y-145107634D01*
X124891904Y-145107634D01*
X124987142Y-145155253D01*
X125034761Y-145202872D01*
X125082380Y-145298110D01*
X125082380Y-145536206D01*
X125034761Y-145631444D01*
X124987142Y-145679063D01*
%TO.C,SWITCH*%
X58460000Y-69492761D02*
X58602857Y-69540380D01*
X58840952Y-69540380D01*
X58936190Y-69492761D01*
X58983809Y-69445142D01*
X59031428Y-69349904D01*
X59031428Y-69254666D01*
X58983809Y-69159428D01*
X58936190Y-69111809D01*
X58840952Y-69064190D01*
X58650476Y-69016571D01*
X58555238Y-68968952D01*
X58507619Y-68921333D01*
X58460000Y-68826095D01*
X58460000Y-68730857D01*
X58507619Y-68635619D01*
X58555238Y-68588000D01*
X58650476Y-68540380D01*
X58888571Y-68540380D01*
X59031428Y-68588000D01*
X59364761Y-68540380D02*
X59602857Y-69540380D01*
X59793333Y-68826095D01*
X59983809Y-69540380D01*
X60221904Y-68540380D01*
X60602857Y-69540380D02*
X60602857Y-68540380D01*
X60936190Y-68540380D02*
X61507619Y-68540380D01*
X61221904Y-69540380D02*
X61221904Y-68540380D01*
X62412380Y-69445142D02*
X62364761Y-69492761D01*
X62221904Y-69540380D01*
X62126666Y-69540380D01*
X61983809Y-69492761D01*
X61888571Y-69397523D01*
X61840952Y-69302285D01*
X61793333Y-69111809D01*
X61793333Y-68968952D01*
X61840952Y-68778476D01*
X61888571Y-68683238D01*
X61983809Y-68588000D01*
X62126666Y-68540380D01*
X62221904Y-68540380D01*
X62364761Y-68588000D01*
X62412380Y-68635619D01*
X62840952Y-69540380D02*
X62840952Y-68540380D01*
X62840952Y-69016571D02*
X63412380Y-69016571D01*
X63412380Y-69540380D02*
X63412380Y-68540380D01*
%TO.C,R8*%
X91273333Y-130388380D02*
X90940000Y-129912190D01*
X90701904Y-130388380D02*
X90701904Y-129388380D01*
X91082857Y-129388380D01*
X91178095Y-129436000D01*
X91225714Y-129483619D01*
X91273333Y-129578857D01*
X91273333Y-129721714D01*
X91225714Y-129816952D01*
X91178095Y-129864571D01*
X91082857Y-129912190D01*
X90701904Y-129912190D01*
X91844761Y-129816952D02*
X91749523Y-129769333D01*
X91701904Y-129721714D01*
X91654285Y-129626476D01*
X91654285Y-129578857D01*
X91701904Y-129483619D01*
X91749523Y-129436000D01*
X91844761Y-129388380D01*
X92035238Y-129388380D01*
X92130476Y-129436000D01*
X92178095Y-129483619D01*
X92225714Y-129578857D01*
X92225714Y-129626476D01*
X92178095Y-129721714D01*
X92130476Y-129769333D01*
X92035238Y-129816952D01*
X91844761Y-129816952D01*
X91749523Y-129864571D01*
X91701904Y-129912190D01*
X91654285Y-130007428D01*
X91654285Y-130197904D01*
X91701904Y-130293142D01*
X91749523Y-130340761D01*
X91844761Y-130388380D01*
X92035238Y-130388380D01*
X92130476Y-130340761D01*
X92178095Y-130293142D01*
X92225714Y-130197904D01*
X92225714Y-130007428D01*
X92178095Y-129912190D01*
X92130476Y-129864571D01*
X92035238Y-129816952D01*
%TO.C,R10*%
X89781142Y-157932380D02*
X89447809Y-157456190D01*
X89209714Y-157932380D02*
X89209714Y-156932380D01*
X89590666Y-156932380D01*
X89685904Y-156980000D01*
X89733523Y-157027619D01*
X89781142Y-157122857D01*
X89781142Y-157265714D01*
X89733523Y-157360952D01*
X89685904Y-157408571D01*
X89590666Y-157456190D01*
X89209714Y-157456190D01*
X90733523Y-157932380D02*
X90162095Y-157932380D01*
X90447809Y-157932380D02*
X90447809Y-156932380D01*
X90352571Y-157075238D01*
X90257333Y-157170476D01*
X90162095Y-157218095D01*
X91352571Y-156932380D02*
X91447809Y-156932380D01*
X91543047Y-156980000D01*
X91590666Y-157027619D01*
X91638285Y-157122857D01*
X91685904Y-157313333D01*
X91685904Y-157551428D01*
X91638285Y-157741904D01*
X91590666Y-157837142D01*
X91543047Y-157884761D01*
X91447809Y-157932380D01*
X91352571Y-157932380D01*
X91257333Y-157884761D01*
X91209714Y-157837142D01*
X91162095Y-157741904D01*
X91114476Y-157551428D01*
X91114476Y-157313333D01*
X91162095Y-157122857D01*
X91209714Y-157027619D01*
X91257333Y-156980000D01*
X91352571Y-156932380D01*
%TO.C,K1*%
X136421904Y-102052380D02*
X136421904Y-101052380D01*
X136993333Y-102052380D02*
X136564761Y-101480952D01*
X136993333Y-101052380D02*
X136421904Y-101623809D01*
X137945714Y-102052380D02*
X137374285Y-102052380D01*
X137660000Y-102052380D02*
X137660000Y-101052380D01*
X137564761Y-101195238D01*
X137469523Y-101290476D01*
X137374285Y-101338095D01*
%TO.C,K2*%
X95273904Y-99004380D02*
X95273904Y-98004380D01*
X95845333Y-99004380D02*
X95416761Y-98432952D01*
X95845333Y-98004380D02*
X95273904Y-98575809D01*
X96226285Y-98099619D02*
X96273904Y-98052000D01*
X96369142Y-98004380D01*
X96607238Y-98004380D01*
X96702476Y-98052000D01*
X96750095Y-98099619D01*
X96797714Y-98194857D01*
X96797714Y-98290095D01*
X96750095Y-98432952D01*
X96178666Y-99004380D01*
X96797714Y-99004380D01*
%TO.C,R17*%
X108577142Y-140660380D02*
X108243809Y-140184190D01*
X108005714Y-140660380D02*
X108005714Y-139660380D01*
X108386666Y-139660380D01*
X108481904Y-139708000D01*
X108529523Y-139755619D01*
X108577142Y-139850857D01*
X108577142Y-139993714D01*
X108529523Y-140088952D01*
X108481904Y-140136571D01*
X108386666Y-140184190D01*
X108005714Y-140184190D01*
X109529523Y-140660380D02*
X108958095Y-140660380D01*
X109243809Y-140660380D02*
X109243809Y-139660380D01*
X109148571Y-139803238D01*
X109053333Y-139898476D01*
X108958095Y-139946095D01*
X109862857Y-139660380D02*
X110529523Y-139660380D01*
X110100952Y-140660380D01*
%TO.C,C4*%
X117689333Y-139717142D02*
X117641714Y-139764761D01*
X117498857Y-139812380D01*
X117403619Y-139812380D01*
X117260761Y-139764761D01*
X117165523Y-139669523D01*
X117117904Y-139574285D01*
X117070285Y-139383809D01*
X117070285Y-139240952D01*
X117117904Y-139050476D01*
X117165523Y-138955238D01*
X117260761Y-138860000D01*
X117403619Y-138812380D01*
X117498857Y-138812380D01*
X117641714Y-138860000D01*
X117689333Y-138907619D01*
X118546476Y-139145714D02*
X118546476Y-139812380D01*
X118308380Y-138764761D02*
X118070285Y-139479047D01*
X118689333Y-139479047D01*
D11*
%TO.C,D2*%
X165633000Y-118385000D02*
X165633000Y-115295000D01*
X160083000Y-116839538D02*
G75*
G03*
X165633000Y-118384830I2990000J-462D01*
G01*
X165633000Y-115295170D02*
G75*
G03*
X160083000Y-116840462I-2560000J-1544830D01*
G01*
X165573000Y-116840000D02*
G75*
G03*
X165573000Y-116840000I-2500000J0D01*
G01*
%TO.C,D1*%
X165633000Y-111273000D02*
X165633000Y-108183000D01*
X165633000Y-108183170D02*
G75*
G03*
X160083000Y-109728462I-2560000J-1544830D01*
G01*
X160083000Y-109727538D02*
G75*
G03*
X165633000Y-111272830I2990000J-462D01*
G01*
X165573000Y-109728000D02*
G75*
G03*
X165573000Y-109728000I-2500000J0D01*
G01*
%TO.C,D3*%
X165633000Y-126513000D02*
X165633000Y-123423000D01*
X160083000Y-124967538D02*
G75*
G03*
X165633000Y-126512830I2990000J-462D01*
G01*
X165633000Y-123423170D02*
G75*
G03*
X160083000Y-124968462I-2560000J-1544830D01*
G01*
X165573000Y-124968000D02*
G75*
G03*
X165573000Y-124968000I-2500000J0D01*
G01*
%TO.C,R9*%
X67468000Y-147716000D02*
X67468000Y-143876000D01*
X65628000Y-147716000D02*
X65628000Y-143876000D01*
%TO.C,RELAY_BSPD*%
X149999900Y-69499400D02*
X120993100Y-69499400D01*
X149999900Y-82504200D02*
X149999900Y-69499400D01*
X120993100Y-69499400D02*
X120993100Y-82504200D01*
X120993100Y-82504200D02*
X149999900Y-82504200D01*
X148323500Y-68381800D02*
G75*
G03*
X148323500Y-68381800I-127000J0D01*
G01*
%TO.C,J2*%
X154626000Y-154178000D02*
X154626000Y-151578000D01*
X157286000Y-151578000D02*
X154626000Y-151578000D01*
X154626000Y-156778000D02*
X154626000Y-155448000D01*
X157286000Y-154178000D02*
X154626000Y-154178000D01*
X155956000Y-156778000D02*
X154626000Y-156778000D01*
X157286000Y-154178000D02*
X157286000Y-151578000D01*
%TO.C,R13*%
X123048000Y-102712000D02*
X126888000Y-102712000D01*
X123048000Y-104552000D02*
X126888000Y-104552000D01*
%TO.C,R15*%
X101488000Y-153320000D02*
X97648000Y-153320000D01*
X101488000Y-151480000D02*
X97648000Y-151480000D01*
%TO.C,Q5*%
X107420000Y-146482000D02*
X111020000Y-146482000D01*
X109220000Y-142032000D02*
G75*
G03*
X106863600Y-143533193I0J-2600000D01*
G01*
X106895816Y-145754795D02*
G75*
G03*
X107420000Y-146482000I2324184J1122795D01*
G01*
X111576400Y-143533193D02*
G75*
G03*
X109220000Y-142032000I-2356400J-1098807D01*
G01*
X111020000Y-146482000D02*
G75*
G03*
X111544184Y-145754795I-1800000J1850000D01*
G01*
%TO.C,F5*%
X64030000Y-78700000D02*
X89830000Y-78700000D01*
X89830000Y-78700000D02*
X89830000Y-69700000D01*
X89830000Y-69700000D02*
X64030000Y-69700000D01*
X64030000Y-69700000D02*
X64030000Y-78700000D01*
%TO.C,J4*%
X161858000Y-154178000D02*
X161858000Y-151578000D01*
X161858000Y-154178000D02*
X159198000Y-154178000D01*
X159198000Y-156778000D02*
X159198000Y-155448000D01*
X161858000Y-151578000D02*
X159198000Y-151578000D01*
X160528000Y-156778000D02*
X159198000Y-156778000D01*
X159198000Y-154178000D02*
X159198000Y-151578000D01*
%TO.C,R14*%
X101488000Y-141320000D02*
X97648000Y-141320000D01*
X101488000Y-143160000D02*
X97648000Y-143160000D01*
%TO.C,F4*%
X92815000Y-117515000D02*
X67015000Y-117515000D01*
X67015000Y-117515000D02*
X67015000Y-126515000D01*
X67015000Y-126515000D02*
X92815000Y-126515000D01*
X92815000Y-126515000D02*
X92815000Y-117515000D01*
%TO.C,DASHBOARD*%
X62230000Y-162620000D02*
X62230000Y-159960000D01*
X90230000Y-162620000D02*
X90230000Y-159960000D01*
X60960000Y-162620000D02*
X59630000Y-162620000D01*
X62230000Y-162620000D02*
X90230000Y-162620000D01*
X62230000Y-159960000D02*
X90230000Y-159960000D01*
X59630000Y-162620000D02*
X59630000Y-161290000D01*
%TO.C,R7*%
X86248000Y-131476000D02*
X82408000Y-131476000D01*
X86248000Y-129636000D02*
X82408000Y-129636000D01*
%TO.C,F3*%
X92815000Y-107990000D02*
X67015000Y-107990000D01*
X67015000Y-107990000D02*
X67015000Y-116990000D01*
X67015000Y-116990000D02*
X92815000Y-116990000D01*
X92815000Y-116990000D02*
X92815000Y-107990000D01*
%TO.C,Q2*%
X143216000Y-156748000D02*
X153456000Y-156748000D01*
X153456000Y-152107000D02*
X153456000Y-156748000D01*
X143216000Y-153617000D02*
X153456000Y-153617000D01*
X143216000Y-152107000D02*
X153456000Y-152107000D01*
X146486000Y-152107000D02*
X146486000Y-153617000D01*
X150187000Y-152107000D02*
X150187000Y-153617000D01*
X143216000Y-152107000D02*
X143216000Y-156748000D01*
%TO.C,R11*%
X93568000Y-136764000D02*
X93568000Y-140604000D01*
X95408000Y-136764000D02*
X95408000Y-140604000D01*
%TO.C,K3*%
X125854000Y-157836000D02*
X141354000Y-157836000D01*
X141354000Y-157836000D02*
X141354000Y-138836000D01*
X141354000Y-138836000D02*
X125854000Y-138836000D01*
X125854000Y-138836000D02*
X125854000Y-157836000D01*
%TO.C,Q1*%
X64871600Y-149567900D02*
X64871600Y-154216100D01*
X64998600Y-150837900D02*
X75209400Y-150837900D01*
X64871600Y-154216100D02*
X75336400Y-154216100D01*
X75336400Y-149567900D02*
X64871600Y-149567900D01*
X75336400Y-154216100D02*
X75336400Y-149567900D01*
%TO.C,PEDAL*%
X59630000Y-135270000D02*
X62290000Y-135270000D01*
X59630000Y-134000000D02*
X59630000Y-132670000D01*
X59630000Y-135270000D02*
X59630000Y-153110000D01*
X59630000Y-153110000D02*
X62290000Y-153110000D01*
X59630000Y-132670000D02*
X60960000Y-132670000D01*
X62290000Y-135270000D02*
X62290000Y-153110000D01*
%TO.C,RELAY_BMS*%
X119519900Y-82504200D02*
X119519900Y-69499400D01*
X90513100Y-82504200D02*
X119519900Y-82504200D01*
X119519900Y-69499400D02*
X90513100Y-69499400D01*
X90513100Y-69499400D02*
X90513100Y-82504200D01*
X117843500Y-68381800D02*
G75*
G03*
X117843500Y-68381800I-127000J0D01*
G01*
%TO.C,J5*%
X64389000Y-104902000D02*
X58801000Y-104902000D01*
X64389000Y-116332000D02*
X64389000Y-104902000D01*
X58801000Y-116332000D02*
X64389000Y-116332000D01*
X58801000Y-104902000D02*
X58801000Y-116332000D01*
X58547000Y-107315000D02*
G75*
G03*
X58547000Y-107315000I-381000J0D01*
G01*
%TO.C,R3*%
X120300000Y-131968000D02*
X120300000Y-128128000D01*
X118460000Y-131968000D02*
X118460000Y-128128000D01*
%TO.C,R12*%
X147716000Y-149764000D02*
X143876000Y-149764000D01*
X147716000Y-147924000D02*
X143876000Y-147924000D01*
%TO.C,J3*%
X166430000Y-154178000D02*
X166430000Y-151578000D01*
X163770000Y-156778000D02*
X163770000Y-155448000D01*
X163770000Y-154178000D02*
X163770000Y-151578000D01*
X166430000Y-154178000D02*
X163770000Y-154178000D01*
X165100000Y-156778000D02*
X163770000Y-156778000D01*
X166430000Y-151578000D02*
X163770000Y-151578000D01*
%TO.C,Q4*%
X101368000Y-145470000D02*
X97768000Y-145470000D01*
X101892184Y-146197205D02*
G75*
G03*
X101368000Y-145470000I-2324184J-1122795D01*
G01*
X97768000Y-145470000D02*
G75*
G03*
X97243816Y-146197205I1800000J-1850000D01*
G01*
X97211600Y-148418807D02*
G75*
G03*
X99568000Y-149920000I2356400J1098807D01*
G01*
X99568000Y-149920000D02*
G75*
G03*
X101924400Y-148418807I0J2600000D01*
G01*
%TO.C,Q3*%
X92224000Y-149174000D02*
X88624000Y-149174000D01*
X92748184Y-149901205D02*
G75*
G03*
X92224000Y-149174000I-2324184J-1122795D01*
G01*
X88624000Y-149174000D02*
G75*
G03*
X88099816Y-149901205I1800000J-1850000D01*
G01*
X88067600Y-152122807D02*
G75*
G03*
X90424000Y-153624000I2356400J1098807D01*
G01*
X90424000Y-153624000D02*
G75*
G03*
X92780400Y-152122807I0J2600000D01*
G01*
%TO.C,C2*%
X105394000Y-122882000D02*
X100854000Y-122882000D01*
X100854000Y-125022000D02*
X100854000Y-125007000D01*
X100854000Y-122897000D02*
X100854000Y-122882000D01*
X105394000Y-125022000D02*
X105394000Y-125007000D01*
X105394000Y-125022000D02*
X100854000Y-125022000D01*
X105394000Y-122897000D02*
X105394000Y-122882000D01*
%TO.C,RV1*%
X70114000Y-148649000D02*
X75184000Y-148649000D01*
X70114000Y-148649000D02*
X70114000Y-138879000D01*
X75184000Y-148649000D02*
X75184000Y-138879000D01*
X70114000Y-138879000D02*
X75184000Y-138879000D01*
%TO.C,RELAY_IMD*%
X150126900Y-83469400D02*
X121120100Y-83469400D01*
X121120100Y-96474200D02*
X150126900Y-96474200D01*
X121120100Y-83469400D02*
X121120100Y-96474200D01*
X150126900Y-96474200D02*
X150126900Y-83469400D01*
X148450500Y-82351800D02*
G75*
G03*
X148450500Y-82351800I-127000J0D01*
G01*
%TO.C,R2*%
X73248000Y-135524000D02*
X73248000Y-131684000D01*
X75088000Y-135524000D02*
X75088000Y-131684000D01*
%TO.C,JUNCTION*%
X161865000Y-74290000D02*
X164525000Y-74290000D01*
X161865000Y-73020000D02*
X161865000Y-71690000D01*
X161865000Y-74290000D02*
X161865000Y-102290000D01*
X164525000Y-74290000D02*
X164525000Y-102290000D01*
X161865000Y-102290000D02*
X164525000Y-102290000D01*
X161865000Y-71690000D02*
X163195000Y-71690000D01*
%TO.C,RV2*%
X109728000Y-125671000D02*
X109728000Y-135441000D01*
X114798000Y-125671000D02*
X109728000Y-125671000D01*
X114798000Y-135441000D02*
X109728000Y-135441000D01*
X114798000Y-125671000D02*
X114798000Y-135441000D01*
%TO.C,U2*%
X81097403Y-138303000D02*
X80446597Y-138303000D01*
X83637403Y-138303000D02*
X82986597Y-138303000D01*
X88519000Y-138303000D02*
X88140540Y-138303000D01*
X85526597Y-145161000D02*
X86177403Y-145161000D01*
X78105000Y-145161000D02*
X78557403Y-145161000D01*
X86103460Y-138303000D02*
X85526597Y-138303000D01*
X80446597Y-145161000D02*
X81097403Y-145161000D01*
X78557403Y-138303000D02*
X78105000Y-138303000D01*
X78105000Y-138303000D02*
X78105000Y-145161000D01*
X88066597Y-145161000D02*
X88519000Y-145161000D01*
X88519000Y-145161000D02*
X88519000Y-138303000D01*
X82986597Y-145161000D02*
X83637403Y-145161000D01*
%TO.C,R16*%
X123048000Y-107600000D02*
X126888000Y-107600000D01*
X123048000Y-105760000D02*
X126888000Y-105760000D01*
%TO.C,F1*%
X92815000Y-98465000D02*
X67015000Y-98465000D01*
X67015000Y-98465000D02*
X67015000Y-107465000D01*
X67015000Y-107465000D02*
X92815000Y-107465000D01*
X92815000Y-107465000D02*
X92815000Y-98465000D01*
%TO.C,R1*%
X96408000Y-161132000D02*
X92568000Y-161132000D01*
X96408000Y-162972000D02*
X92568000Y-162972000D01*
%TO.C,C1*%
X86598000Y-135182000D02*
X82058000Y-135182000D01*
X86598000Y-135182000D02*
X86598000Y-135167000D01*
X86598000Y-133042000D02*
X82058000Y-133042000D01*
X86598000Y-133057000D02*
X86598000Y-133042000D01*
X82058000Y-135182000D02*
X82058000Y-135167000D01*
X82058000Y-133057000D02*
X82058000Y-133042000D01*
%TO.C,U1*%
X65100200Y-131622800D02*
X65100200Y-135585200D01*
X65100200Y-135585200D02*
X72059800Y-135585200D01*
X72059800Y-131622800D02*
X65100200Y-131622800D01*
X72059800Y-135585200D02*
X72059800Y-131622800D01*
X64084200Y-137248900D02*
G75*
G03*
X64084200Y-137248900I-127000J0D01*
G01*
%TO.C,F2*%
X92815000Y-88940000D02*
X67015000Y-88940000D01*
X67015000Y-88940000D02*
X67015000Y-97940000D01*
X67015000Y-97940000D02*
X92815000Y-97940000D01*
X92815000Y-97940000D02*
X92815000Y-88940000D01*
%TO.C,R4*%
X116936000Y-96124000D02*
X116936000Y-99964000D01*
X118776000Y-96124000D02*
X118776000Y-99964000D01*
%TO.C,BATTERY_PACK*%
X154995000Y-163890000D02*
X154995000Y-161230000D01*
X125725000Y-163890000D02*
X124395000Y-163890000D01*
X126995000Y-161230000D02*
X154995000Y-161230000D01*
X124395000Y-163890000D02*
X124395000Y-162560000D01*
X126995000Y-163890000D02*
X126995000Y-161230000D01*
X126995000Y-163890000D02*
X154995000Y-163890000D01*
%TO.C,U3*%
X101782597Y-135001000D02*
X102433403Y-135001000D01*
X97353403Y-128143000D02*
X96901000Y-128143000D01*
X96901000Y-128143000D02*
X96901000Y-135001000D01*
X104899460Y-128143000D02*
X104322597Y-128143000D01*
X104322597Y-135001000D02*
X104973403Y-135001000D01*
X99893403Y-128143000D02*
X99242597Y-128143000D01*
X107315000Y-128143000D02*
X106936540Y-128143000D01*
X96901000Y-135001000D02*
X97353403Y-135001000D01*
X99242597Y-135001000D02*
X99893403Y-135001000D01*
X102433403Y-128143000D02*
X101782597Y-128143000D01*
X106862597Y-135001000D02*
X107315000Y-135001000D01*
X107315000Y-135001000D02*
X107315000Y-128143000D01*
%TO.C,C3*%
X83550000Y-147266000D02*
X79010000Y-147266000D01*
X79010000Y-149406000D02*
X79010000Y-149391000D01*
X83550000Y-149406000D02*
X79010000Y-149406000D01*
X83550000Y-149406000D02*
X83550000Y-149391000D01*
X79010000Y-147281000D02*
X79010000Y-147266000D01*
X83550000Y-147281000D02*
X83550000Y-147266000D01*
%TO.C,U4*%
X112522000Y-154311186D02*
X112522000Y-153536814D01*
X112522000Y-151771186D02*
X112522000Y-150996814D01*
X112522000Y-148844000D02*
X105918000Y-148844000D01*
X105918000Y-159004000D02*
X112522000Y-159004000D01*
X105918000Y-151132540D02*
X105918000Y-151771186D01*
X112522000Y-159004000D02*
X112522000Y-158616814D01*
X112522000Y-149231186D02*
X112522000Y-148844000D01*
X105918000Y-153536814D02*
X105918000Y-154311186D01*
X105918000Y-158616814D02*
X105918000Y-159004000D01*
X112522000Y-156851186D02*
X112522000Y-156076814D01*
X105918000Y-156076814D02*
X105918000Y-156851186D01*
X108915200Y-148844000D02*
G75*
G03*
X109524800Y-148844000I304800J0D01*
G01*
%TO.C,J1*%
X64389000Y-118237000D02*
X58801000Y-118237000D01*
X58801000Y-129667000D02*
X64389000Y-129667000D01*
X58801000Y-118237000D02*
X58801000Y-129667000D01*
X64389000Y-129667000D02*
X64389000Y-118237000D01*
X58547000Y-120650000D02*
G75*
G03*
X58547000Y-120650000I-381000J0D01*
G01*
%TO.C,C5*%
X123046000Y-147694349D02*
X120420000Y-147694349D01*
X118340000Y-147414349D02*
X115590000Y-147414349D01*
X122718000Y-148254349D02*
X120420000Y-148254349D01*
X123230000Y-147254349D02*
X120420000Y-147254349D01*
X123441000Y-146293349D02*
X115319000Y-146293349D01*
X123410000Y-146533349D02*
X115350000Y-146533349D01*
X118340000Y-148574349D02*
X116290000Y-148574349D01*
X123397000Y-146614349D02*
X115363000Y-146614349D01*
X118340000Y-148534349D02*
X116256000Y-148534349D01*
X118340000Y-147894349D02*
X115818000Y-147894349D01*
X123422000Y-146453349D02*
X115338000Y-146453349D01*
X123120000Y-147534349D02*
X120420000Y-147534349D01*
X121695000Y-141483651D02*
X121695000Y-142283651D01*
X118340000Y-147254349D02*
X115530000Y-147254349D01*
X123454000Y-146133349D02*
X115306000Y-146133349D01*
X123282000Y-147094349D02*
X120420000Y-147094349D01*
X123365000Y-146774349D02*
X120420000Y-146774349D01*
X122206000Y-148854349D02*
X116554000Y-148854349D01*
X118340000Y-147694349D02*
X115714000Y-147694349D01*
X118340000Y-147094349D02*
X115478000Y-147094349D01*
X123404000Y-146573349D02*
X115356000Y-146573349D01*
X120609000Y-149814349D02*
X118151000Y-149814349D01*
X118340000Y-148814349D02*
X116513000Y-148814349D01*
X118340000Y-147534349D02*
X115640000Y-147534349D01*
X123327000Y-146934349D02*
X120420000Y-146934349D01*
X123374000Y-146734349D02*
X115386000Y-146734349D01*
X121725000Y-149254349D02*
X117035000Y-149254349D01*
X118340000Y-147454349D02*
X115606000Y-147454349D01*
X123428000Y-146413349D02*
X115332000Y-146413349D01*
X123460000Y-145933349D02*
X115300000Y-145933349D01*
X122325000Y-148734349D02*
X120420000Y-148734349D01*
X123066000Y-147654349D02*
X120420000Y-147654349D01*
X118340000Y-147854349D02*
X115796000Y-147854349D01*
X122873000Y-148014349D02*
X120420000Y-148014349D01*
X123460000Y-145893349D02*
X115300000Y-145893349D01*
X121834000Y-149174349D02*
X116926000Y-149174349D01*
X121025000Y-149654349D02*
X117735000Y-149654349D01*
X123437000Y-146333349D02*
X115323000Y-146333349D01*
X118340000Y-148414349D02*
X116160000Y-148414349D01*
X122363000Y-148694349D02*
X120420000Y-148694349D01*
X120726000Y-149774349D02*
X118034000Y-149774349D01*
X118340000Y-147774349D02*
X115753000Y-147774349D01*
X118340000Y-147374349D02*
X115575000Y-147374349D01*
X118340000Y-148374349D02*
X116130000Y-148374349D01*
X123007000Y-147774349D02*
X120420000Y-147774349D01*
X122964000Y-147854349D02*
X120420000Y-147854349D01*
X123257000Y-147174349D02*
X120420000Y-147174349D01*
X122849000Y-148054349D02*
X120420000Y-148054349D01*
X123390000Y-146654349D02*
X115370000Y-146654349D01*
X123460000Y-145973349D02*
X115300000Y-145973349D01*
X118340000Y-147334349D02*
X115559000Y-147334349D01*
X123356000Y-146814349D02*
X120420000Y-146814349D01*
X123084000Y-147614349D02*
X120420000Y-147614349D01*
X118340000Y-148694349D02*
X116397000Y-148694349D01*
X123316000Y-146974349D02*
X120420000Y-146974349D01*
X118340000Y-147014349D02*
X115455000Y-147014349D01*
X121414000Y-149454349D02*
X117346000Y-149454349D01*
X123456000Y-146093349D02*
X115304000Y-146093349D01*
X118340000Y-147814349D02*
X115774000Y-147814349D01*
X122095000Y-141883651D02*
X121295000Y-141883651D01*
X118340000Y-148454349D02*
X116191000Y-148454349D01*
X121111000Y-149614349D02*
X117649000Y-149614349D01*
X122504000Y-148534349D02*
X120420000Y-148534349D01*
X123417000Y-146493349D02*
X115343000Y-146493349D01*
X120328000Y-149894349D02*
X118432000Y-149894349D01*
X120833000Y-149734349D02*
X117927000Y-149734349D01*
X123305000Y-147014349D02*
X120420000Y-147014349D01*
X122247000Y-148814349D02*
X120420000Y-148814349D01*
X122745000Y-148214349D02*
X120420000Y-148214349D01*
X121193000Y-149574349D02*
X117567000Y-149574349D01*
X122569000Y-148454349D02*
X120420000Y-148454349D01*
X122942000Y-147894349D02*
X120420000Y-147894349D01*
X118340000Y-147654349D02*
X115694000Y-147654349D01*
X121546000Y-149374349D02*
X117214000Y-149374349D01*
X122121000Y-148934349D02*
X116639000Y-148934349D01*
X123243000Y-147214349D02*
X120420000Y-147214349D01*
X120478000Y-149854349D02*
X118282000Y-149854349D01*
X121482000Y-149414349D02*
X117278000Y-149414349D01*
X122077000Y-148974349D02*
X116683000Y-148974349D01*
X118340000Y-148734349D02*
X116435000Y-148734349D01*
X121936000Y-149094349D02*
X116824000Y-149094349D01*
X122287000Y-148774349D02*
X120420000Y-148774349D01*
X118340000Y-148334349D02*
X116100000Y-148334349D01*
X123269000Y-147134349D02*
X120420000Y-147134349D01*
X118340000Y-147934349D02*
X115840000Y-147934349D01*
X118340000Y-148054349D02*
X115911000Y-148054349D01*
X118340000Y-148014349D02*
X115887000Y-148014349D01*
X122164000Y-148894349D02*
X116596000Y-148894349D01*
X123137000Y-147494349D02*
X120420000Y-147494349D01*
X118340000Y-147734349D02*
X115733000Y-147734349D01*
X122798000Y-148134349D02*
X120420000Y-148134349D01*
X118340000Y-147494349D02*
X115623000Y-147494349D01*
X118340000Y-148174349D02*
X115988000Y-148174349D01*
X121608000Y-149334349D02*
X117152000Y-149334349D01*
X118340000Y-146934349D02*
X115433000Y-146934349D01*
X118340000Y-148614349D02*
X116325000Y-148614349D01*
X122470000Y-148574349D02*
X120420000Y-148574349D01*
X118340000Y-147214349D02*
X115517000Y-147214349D01*
X122399000Y-148654349D02*
X120420000Y-148654349D01*
X118340000Y-147294349D02*
X115545000Y-147294349D01*
X123027000Y-147734349D02*
X120420000Y-147734349D01*
X122435000Y-148614349D02*
X120420000Y-148614349D01*
X123170000Y-147414349D02*
X120420000Y-147414349D01*
X123448000Y-146213349D02*
X115312000Y-146213349D01*
X123294000Y-147054349D02*
X120420000Y-147054349D01*
X123215000Y-147294349D02*
X120420000Y-147294349D01*
X122897000Y-147974349D02*
X120420000Y-147974349D01*
X122630000Y-148374349D02*
X120420000Y-148374349D01*
X118340000Y-148214349D02*
X116015000Y-148214349D01*
X123457000Y-146053349D02*
X115303000Y-146053349D01*
X121667000Y-149294349D02*
X117093000Y-149294349D01*
X122824000Y-148094349D02*
X120420000Y-148094349D01*
X123445000Y-146253349D02*
X115315000Y-146253349D01*
X118340000Y-148094349D02*
X115936000Y-148094349D01*
X118340000Y-148494349D02*
X116224000Y-148494349D01*
X120932000Y-149694349D02*
X117828000Y-149694349D01*
X118340000Y-147974349D02*
X115863000Y-147974349D01*
X121885000Y-149134349D02*
X116875000Y-149134349D01*
X123185000Y-147374349D02*
X120420000Y-147374349D01*
X122600000Y-148414349D02*
X120420000Y-148414349D01*
X118340000Y-147574349D02*
X115658000Y-147574349D01*
X118340000Y-147614349D02*
X115676000Y-147614349D01*
X123337000Y-146894349D02*
X120420000Y-146894349D01*
X118340000Y-147174349D02*
X115503000Y-147174349D01*
X118340000Y-147134349D02*
X115491000Y-147134349D01*
X118340000Y-148294349D02*
X116071000Y-148294349D01*
X122660000Y-148334349D02*
X120420000Y-148334349D01*
X122031000Y-149014349D02*
X116729000Y-149014349D01*
X123382000Y-146694349D02*
X115378000Y-146694349D01*
X122772000Y-148174349D02*
X120420000Y-148174349D01*
X121270000Y-149534349D02*
X117490000Y-149534349D01*
X122920000Y-147934349D02*
X120420000Y-147934349D01*
X118340000Y-146894349D02*
X115423000Y-146894349D01*
X118340000Y-147054349D02*
X115466000Y-147054349D01*
X118340000Y-146814349D02*
X115404000Y-146814349D01*
X122689000Y-148294349D02*
X120420000Y-148294349D01*
X118340000Y-148134349D02*
X115962000Y-148134349D01*
X123102000Y-147574349D02*
X120420000Y-147574349D01*
X118340000Y-148654349D02*
X116361000Y-148654349D01*
X118340000Y-148254349D02*
X116042000Y-148254349D01*
X118340000Y-146854349D02*
X115413000Y-146854349D01*
X118340000Y-148774349D02*
X116473000Y-148774349D01*
X120148000Y-149934349D02*
X118612000Y-149934349D01*
X123154000Y-147454349D02*
X120420000Y-147454349D01*
X118340000Y-146774349D02*
X115395000Y-146774349D01*
X121984000Y-149054349D02*
X116776000Y-149054349D01*
X121780000Y-149214349D02*
X116980000Y-149214349D01*
X122536000Y-148494349D02*
X120420000Y-148494349D01*
X119913000Y-149974349D02*
X118847000Y-149974349D01*
X122986000Y-147814349D02*
X120420000Y-147814349D01*
X123201000Y-147334349D02*
X120420000Y-147334349D01*
X123451000Y-146173349D02*
X115309000Y-146173349D01*
X123347000Y-146854349D02*
X120420000Y-146854349D01*
X118340000Y-146974349D02*
X115444000Y-146974349D01*
X123459000Y-146013349D02*
X115301000Y-146013349D01*
X121344000Y-149494349D02*
X117416000Y-149494349D01*
X123432000Y-146373349D02*
X115328000Y-146373349D01*
X123500000Y-145893349D02*
G75*
G03*
X123500000Y-145893349I-4120000J0D01*
G01*
%TO.C,SWITCH*%
X59630000Y-73020000D02*
X62290000Y-73020000D01*
X62290000Y-73020000D02*
X62290000Y-101020000D01*
X59630000Y-71750000D02*
X59630000Y-70420000D01*
X59630000Y-101020000D02*
X62290000Y-101020000D01*
X59630000Y-73020000D02*
X59630000Y-101020000D01*
X59630000Y-70420000D02*
X60960000Y-70420000D01*
%TO.C,R8*%
X93360000Y-128936000D02*
X89520000Y-128936000D01*
X93360000Y-127096000D02*
X89520000Y-127096000D01*
%TO.C,R10*%
X88504000Y-156368000D02*
X92344000Y-156368000D01*
X88504000Y-154528000D02*
X92344000Y-154528000D01*
%TO.C,K1*%
X131216000Y-99946000D02*
X150216000Y-99946000D01*
X150216000Y-99946000D02*
X150216000Y-115446000D01*
X150216000Y-115446000D02*
X131216000Y-115446000D01*
X131216000Y-115446000D02*
X131216000Y-99946000D01*
%TO.C,K2*%
X94640000Y-95120000D02*
X113640000Y-95120000D01*
X113640000Y-95120000D02*
X113640000Y-110620000D01*
X113640000Y-110620000D02*
X94640000Y-110620000D01*
X94640000Y-110620000D02*
X94640000Y-95120000D01*
%TO.C,R17*%
X111140000Y-141128000D02*
X107300000Y-141128000D01*
X111140000Y-139288000D02*
X107300000Y-139288000D01*
%TO.C,C4*%
X120126000Y-138230000D02*
X115586000Y-138230000D01*
X115586000Y-136105000D02*
X115586000Y-136090000D01*
X120126000Y-138230000D02*
X120126000Y-138215000D01*
X115586000Y-138230000D02*
X115586000Y-138215000D01*
X120126000Y-136105000D02*
X120126000Y-136090000D01*
X120126000Y-136090000D02*
X115586000Y-136090000D01*
%TD*%
M02*
