%TF.GenerationSoftware,KiCad,Pcbnew,(6.0.5)*%
%TF.CreationDate,2023-08-09T01:27:26+09:00*%
%TF.ProjectId,TSAL,5453414c-2e6b-4696-9361-645f70636258,rev?*%
%TF.SameCoordinates,Original*%
%TF.FileFunction,Legend,Bot*%
%TF.FilePolarity,Positive*%
%FSLAX46Y46*%
G04 Gerber Fmt 4.6, Leading zero omitted, Abs format (unit mm)*
G04 Created by KiCad (PCBNEW (6.0.5)) date 2023-08-09 01:27:26*
%MOMM*%
%LPD*%
G01*
G04 APERTURE LIST*
%ADD10C,0.150000*%
%ADD11C,0.120000*%
G04 APERTURE END LIST*
D10*
%TO.C,R37*%
X157354857Y-140120380D02*
X157688190Y-139644190D01*
X157926285Y-140120380D02*
X157926285Y-139120380D01*
X157545333Y-139120380D01*
X157450095Y-139168000D01*
X157402476Y-139215619D01*
X157354857Y-139310857D01*
X157354857Y-139453714D01*
X157402476Y-139548952D01*
X157450095Y-139596571D01*
X157545333Y-139644190D01*
X157926285Y-139644190D01*
X157021523Y-139120380D02*
X156402476Y-139120380D01*
X156735809Y-139501333D01*
X156592952Y-139501333D01*
X156497714Y-139548952D01*
X156450095Y-139596571D01*
X156402476Y-139691809D01*
X156402476Y-139929904D01*
X156450095Y-140025142D01*
X156497714Y-140072761D01*
X156592952Y-140120380D01*
X156878666Y-140120380D01*
X156973904Y-140072761D01*
X157021523Y-140025142D01*
X156069142Y-139120380D02*
X155402476Y-139120380D01*
X155831047Y-140120380D01*
%TO.C,D32*%
X175566285Y-125010380D02*
X175566285Y-124010380D01*
X175328190Y-124010380D01*
X175185333Y-124058000D01*
X175090095Y-124153238D01*
X175042476Y-124248476D01*
X174994857Y-124438952D01*
X174994857Y-124581809D01*
X175042476Y-124772285D01*
X175090095Y-124867523D01*
X175185333Y-124962761D01*
X175328190Y-125010380D01*
X175566285Y-125010380D01*
X174661523Y-124010380D02*
X174042476Y-124010380D01*
X174375809Y-124391333D01*
X174232952Y-124391333D01*
X174137714Y-124438952D01*
X174090095Y-124486571D01*
X174042476Y-124581809D01*
X174042476Y-124819904D01*
X174090095Y-124915142D01*
X174137714Y-124962761D01*
X174232952Y-125010380D01*
X174518666Y-125010380D01*
X174613904Y-124962761D01*
X174661523Y-124915142D01*
X173661523Y-124105619D02*
X173613904Y-124058000D01*
X173518666Y-124010380D01*
X173280571Y-124010380D01*
X173185333Y-124058000D01*
X173137714Y-124105619D01*
X173090095Y-124200857D01*
X173090095Y-124296095D01*
X173137714Y-124438952D01*
X173709142Y-125010380D01*
X173090095Y-125010380D01*
%TO.C,D39*%
X166428285Y-124991980D02*
X166428285Y-123991980D01*
X166190190Y-123991980D01*
X166047333Y-124039600D01*
X165952095Y-124134838D01*
X165904476Y-124230076D01*
X165856857Y-124420552D01*
X165856857Y-124563409D01*
X165904476Y-124753885D01*
X165952095Y-124849123D01*
X166047333Y-124944361D01*
X166190190Y-124991980D01*
X166428285Y-124991980D01*
X165523523Y-123991980D02*
X164904476Y-123991980D01*
X165237809Y-124372933D01*
X165094952Y-124372933D01*
X164999714Y-124420552D01*
X164952095Y-124468171D01*
X164904476Y-124563409D01*
X164904476Y-124801504D01*
X164952095Y-124896742D01*
X164999714Y-124944361D01*
X165094952Y-124991980D01*
X165380666Y-124991980D01*
X165475904Y-124944361D01*
X165523523Y-124896742D01*
X164428285Y-124991980D02*
X164237809Y-124991980D01*
X164142571Y-124944361D01*
X164094952Y-124896742D01*
X163999714Y-124753885D01*
X163952095Y-124563409D01*
X163952095Y-124182457D01*
X163999714Y-124087219D01*
X164047333Y-124039600D01*
X164142571Y-123991980D01*
X164333047Y-123991980D01*
X164428285Y-124039600D01*
X164475904Y-124087219D01*
X164523523Y-124182457D01*
X164523523Y-124420552D01*
X164475904Y-124515790D01*
X164428285Y-124563409D01*
X164333047Y-124611028D01*
X164142571Y-124611028D01*
X164047333Y-124563409D01*
X163999714Y-124515790D01*
X163952095Y-124420552D01*
%TO.C,R36*%
X124084857Y-135020380D02*
X124418190Y-134544190D01*
X124656285Y-135020380D02*
X124656285Y-134020380D01*
X124275333Y-134020380D01*
X124180095Y-134068000D01*
X124132476Y-134115619D01*
X124084857Y-134210857D01*
X124084857Y-134353714D01*
X124132476Y-134448952D01*
X124180095Y-134496571D01*
X124275333Y-134544190D01*
X124656285Y-134544190D01*
X123751523Y-134020380D02*
X123132476Y-134020380D01*
X123465809Y-134401333D01*
X123322952Y-134401333D01*
X123227714Y-134448952D01*
X123180095Y-134496571D01*
X123132476Y-134591809D01*
X123132476Y-134829904D01*
X123180095Y-134925142D01*
X123227714Y-134972761D01*
X123322952Y-135020380D01*
X123608666Y-135020380D01*
X123703904Y-134972761D01*
X123751523Y-134925142D01*
X122275333Y-134020380D02*
X122465809Y-134020380D01*
X122561047Y-134068000D01*
X122608666Y-134115619D01*
X122703904Y-134258476D01*
X122751523Y-134448952D01*
X122751523Y-134829904D01*
X122703904Y-134925142D01*
X122656285Y-134972761D01*
X122561047Y-135020380D01*
X122370571Y-135020380D01*
X122275333Y-134972761D01*
X122227714Y-134925142D01*
X122180095Y-134829904D01*
X122180095Y-134591809D01*
X122227714Y-134496571D01*
X122275333Y-134448952D01*
X122370571Y-134401333D01*
X122561047Y-134401333D01*
X122656285Y-134448952D01*
X122703904Y-134496571D01*
X122751523Y-134591809D01*
%TO.C,D23*%
X151327285Y-125003380D02*
X151327285Y-124003380D01*
X151089190Y-124003380D01*
X150946333Y-124051000D01*
X150851095Y-124146238D01*
X150803476Y-124241476D01*
X150755857Y-124431952D01*
X150755857Y-124574809D01*
X150803476Y-124765285D01*
X150851095Y-124860523D01*
X150946333Y-124955761D01*
X151089190Y-125003380D01*
X151327285Y-125003380D01*
X150374904Y-124098619D02*
X150327285Y-124051000D01*
X150232047Y-124003380D01*
X149993952Y-124003380D01*
X149898714Y-124051000D01*
X149851095Y-124098619D01*
X149803476Y-124193857D01*
X149803476Y-124289095D01*
X149851095Y-124431952D01*
X150422523Y-125003380D01*
X149803476Y-125003380D01*
X149470142Y-124003380D02*
X148851095Y-124003380D01*
X149184428Y-124384333D01*
X149041571Y-124384333D01*
X148946333Y-124431952D01*
X148898714Y-124479571D01*
X148851095Y-124574809D01*
X148851095Y-124812904D01*
X148898714Y-124908142D01*
X148946333Y-124955761D01*
X149041571Y-125003380D01*
X149327285Y-125003380D01*
X149422523Y-124955761D01*
X149470142Y-124908142D01*
%TO.C,R35*%
X124084857Y-137570380D02*
X124418190Y-137094190D01*
X124656285Y-137570380D02*
X124656285Y-136570380D01*
X124275333Y-136570380D01*
X124180095Y-136618000D01*
X124132476Y-136665619D01*
X124084857Y-136760857D01*
X124084857Y-136903714D01*
X124132476Y-136998952D01*
X124180095Y-137046571D01*
X124275333Y-137094190D01*
X124656285Y-137094190D01*
X123751523Y-136570380D02*
X123132476Y-136570380D01*
X123465809Y-136951333D01*
X123322952Y-136951333D01*
X123227714Y-136998952D01*
X123180095Y-137046571D01*
X123132476Y-137141809D01*
X123132476Y-137379904D01*
X123180095Y-137475142D01*
X123227714Y-137522761D01*
X123322952Y-137570380D01*
X123608666Y-137570380D01*
X123703904Y-137522761D01*
X123751523Y-137475142D01*
X122227714Y-136570380D02*
X122703904Y-136570380D01*
X122751523Y-137046571D01*
X122703904Y-136998952D01*
X122608666Y-136951333D01*
X122370571Y-136951333D01*
X122275333Y-136998952D01*
X122227714Y-137046571D01*
X122180095Y-137141809D01*
X122180095Y-137379904D01*
X122227714Y-137475142D01*
X122275333Y-137522761D01*
X122370571Y-137570380D01*
X122608666Y-137570380D01*
X122703904Y-137522761D01*
X122751523Y-137475142D01*
%TO.C,D24*%
X184704285Y-136140380D02*
X184704285Y-135140380D01*
X184466190Y-135140380D01*
X184323333Y-135188000D01*
X184228095Y-135283238D01*
X184180476Y-135378476D01*
X184132857Y-135568952D01*
X184132857Y-135711809D01*
X184180476Y-135902285D01*
X184228095Y-135997523D01*
X184323333Y-136092761D01*
X184466190Y-136140380D01*
X184704285Y-136140380D01*
X183751904Y-135235619D02*
X183704285Y-135188000D01*
X183609047Y-135140380D01*
X183370952Y-135140380D01*
X183275714Y-135188000D01*
X183228095Y-135235619D01*
X183180476Y-135330857D01*
X183180476Y-135426095D01*
X183228095Y-135568952D01*
X183799523Y-136140380D01*
X183180476Y-136140380D01*
X182323333Y-135473714D02*
X182323333Y-136140380D01*
X182561428Y-135092761D02*
X182799523Y-135807047D01*
X182180476Y-135807047D01*
%TO.C,D25*%
X184706285Y-125010380D02*
X184706285Y-124010380D01*
X184468190Y-124010380D01*
X184325333Y-124058000D01*
X184230095Y-124153238D01*
X184182476Y-124248476D01*
X184134857Y-124438952D01*
X184134857Y-124581809D01*
X184182476Y-124772285D01*
X184230095Y-124867523D01*
X184325333Y-124962761D01*
X184468190Y-125010380D01*
X184706285Y-125010380D01*
X183753904Y-124105619D02*
X183706285Y-124058000D01*
X183611047Y-124010380D01*
X183372952Y-124010380D01*
X183277714Y-124058000D01*
X183230095Y-124105619D01*
X183182476Y-124200857D01*
X183182476Y-124296095D01*
X183230095Y-124438952D01*
X183801523Y-125010380D01*
X183182476Y-125010380D01*
X182277714Y-124010380D02*
X182753904Y-124010380D01*
X182801523Y-124486571D01*
X182753904Y-124438952D01*
X182658666Y-124391333D01*
X182420571Y-124391333D01*
X182325333Y-124438952D01*
X182277714Y-124486571D01*
X182230095Y-124581809D01*
X182230095Y-124819904D01*
X182277714Y-124915142D01*
X182325333Y-124962761D01*
X182420571Y-125010380D01*
X182658666Y-125010380D01*
X182753904Y-124962761D01*
X182801523Y-124915142D01*
%TO.C,R38*%
X157364857Y-137570380D02*
X157698190Y-137094190D01*
X157936285Y-137570380D02*
X157936285Y-136570380D01*
X157555333Y-136570380D01*
X157460095Y-136618000D01*
X157412476Y-136665619D01*
X157364857Y-136760857D01*
X157364857Y-136903714D01*
X157412476Y-136998952D01*
X157460095Y-137046571D01*
X157555333Y-137094190D01*
X157936285Y-137094190D01*
X157031523Y-136570380D02*
X156412476Y-136570380D01*
X156745809Y-136951333D01*
X156602952Y-136951333D01*
X156507714Y-136998952D01*
X156460095Y-137046571D01*
X156412476Y-137141809D01*
X156412476Y-137379904D01*
X156460095Y-137475142D01*
X156507714Y-137522761D01*
X156602952Y-137570380D01*
X156888666Y-137570380D01*
X156983904Y-137522761D01*
X157031523Y-137475142D01*
X155841047Y-136998952D02*
X155936285Y-136951333D01*
X155983904Y-136903714D01*
X156031523Y-136808476D01*
X156031523Y-136760857D01*
X155983904Y-136665619D01*
X155936285Y-136618000D01*
X155841047Y-136570380D01*
X155650571Y-136570380D01*
X155555333Y-136618000D01*
X155507714Y-136665619D01*
X155460095Y-136760857D01*
X155460095Y-136808476D01*
X155507714Y-136903714D01*
X155555333Y-136951333D01*
X155650571Y-136998952D01*
X155841047Y-136998952D01*
X155936285Y-137046571D01*
X155983904Y-137094190D01*
X156031523Y-137189428D01*
X156031523Y-137379904D01*
X155983904Y-137475142D01*
X155936285Y-137522761D01*
X155841047Y-137570380D01*
X155650571Y-137570380D01*
X155555333Y-137522761D01*
X155507714Y-137475142D01*
X155460095Y-137379904D01*
X155460095Y-137189428D01*
X155507714Y-137094190D01*
X155555333Y-137046571D01*
X155650571Y-136998952D01*
%TO.C,D38*%
X166566285Y-136140380D02*
X166566285Y-135140380D01*
X166328190Y-135140380D01*
X166185333Y-135188000D01*
X166090095Y-135283238D01*
X166042476Y-135378476D01*
X165994857Y-135568952D01*
X165994857Y-135711809D01*
X166042476Y-135902285D01*
X166090095Y-135997523D01*
X166185333Y-136092761D01*
X166328190Y-136140380D01*
X166566285Y-136140380D01*
X165661523Y-135140380D02*
X165042476Y-135140380D01*
X165375809Y-135521333D01*
X165232952Y-135521333D01*
X165137714Y-135568952D01*
X165090095Y-135616571D01*
X165042476Y-135711809D01*
X165042476Y-135949904D01*
X165090095Y-136045142D01*
X165137714Y-136092761D01*
X165232952Y-136140380D01*
X165518666Y-136140380D01*
X165613904Y-136092761D01*
X165661523Y-136045142D01*
X164471047Y-135568952D02*
X164566285Y-135521333D01*
X164613904Y-135473714D01*
X164661523Y-135378476D01*
X164661523Y-135330857D01*
X164613904Y-135235619D01*
X164566285Y-135188000D01*
X164471047Y-135140380D01*
X164280571Y-135140380D01*
X164185333Y-135188000D01*
X164137714Y-135235619D01*
X164090095Y-135330857D01*
X164090095Y-135378476D01*
X164137714Y-135473714D01*
X164185333Y-135521333D01*
X164280571Y-135568952D01*
X164471047Y-135568952D01*
X164566285Y-135616571D01*
X164613904Y-135664190D01*
X164661523Y-135759428D01*
X164661523Y-135949904D01*
X164613904Y-136045142D01*
X164566285Y-136092761D01*
X164471047Y-136140380D01*
X164280571Y-136140380D01*
X164185333Y-136092761D01*
X164137714Y-136045142D01*
X164090095Y-135949904D01*
X164090095Y-135759428D01*
X164137714Y-135664190D01*
X164185333Y-135616571D01*
X164280571Y-135568952D01*
%TO.C,D31*%
X175456285Y-136140380D02*
X175456285Y-135140380D01*
X175218190Y-135140380D01*
X175075333Y-135188000D01*
X174980095Y-135283238D01*
X174932476Y-135378476D01*
X174884857Y-135568952D01*
X174884857Y-135711809D01*
X174932476Y-135902285D01*
X174980095Y-135997523D01*
X175075333Y-136092761D01*
X175218190Y-136140380D01*
X175456285Y-136140380D01*
X174551523Y-135140380D02*
X173932476Y-135140380D01*
X174265809Y-135521333D01*
X174122952Y-135521333D01*
X174027714Y-135568952D01*
X173980095Y-135616571D01*
X173932476Y-135711809D01*
X173932476Y-135949904D01*
X173980095Y-136045142D01*
X174027714Y-136092761D01*
X174122952Y-136140380D01*
X174408666Y-136140380D01*
X174503904Y-136092761D01*
X174551523Y-136045142D01*
X172980095Y-136140380D02*
X173551523Y-136140380D01*
X173265809Y-136140380D02*
X173265809Y-135140380D01*
X173361047Y-135283238D01*
X173456285Y-135378476D01*
X173551523Y-135426095D01*
%TO.C,R32*%
X190744857Y-126430380D02*
X191078190Y-125954190D01*
X191316285Y-126430380D02*
X191316285Y-125430380D01*
X190935333Y-125430380D01*
X190840095Y-125478000D01*
X190792476Y-125525619D01*
X190744857Y-125620857D01*
X190744857Y-125763714D01*
X190792476Y-125858952D01*
X190840095Y-125906571D01*
X190935333Y-125954190D01*
X191316285Y-125954190D01*
X190411523Y-125430380D02*
X189792476Y-125430380D01*
X190125809Y-125811333D01*
X189982952Y-125811333D01*
X189887714Y-125858952D01*
X189840095Y-125906571D01*
X189792476Y-126001809D01*
X189792476Y-126239904D01*
X189840095Y-126335142D01*
X189887714Y-126382761D01*
X189982952Y-126430380D01*
X190268666Y-126430380D01*
X190363904Y-126382761D01*
X190411523Y-126335142D01*
X189411523Y-125525619D02*
X189363904Y-125478000D01*
X189268666Y-125430380D01*
X189030571Y-125430380D01*
X188935333Y-125478000D01*
X188887714Y-125525619D01*
X188840095Y-125620857D01*
X188840095Y-125716095D01*
X188887714Y-125858952D01*
X189459142Y-126430380D01*
X188840095Y-126430380D01*
%TO.C,D29*%
X108916285Y-124970380D02*
X108916285Y-123970380D01*
X108678190Y-123970380D01*
X108535333Y-124018000D01*
X108440095Y-124113238D01*
X108392476Y-124208476D01*
X108344857Y-124398952D01*
X108344857Y-124541809D01*
X108392476Y-124732285D01*
X108440095Y-124827523D01*
X108535333Y-124922761D01*
X108678190Y-124970380D01*
X108916285Y-124970380D01*
X107963904Y-124065619D02*
X107916285Y-124018000D01*
X107821047Y-123970380D01*
X107582952Y-123970380D01*
X107487714Y-124018000D01*
X107440095Y-124065619D01*
X107392476Y-124160857D01*
X107392476Y-124256095D01*
X107440095Y-124398952D01*
X108011523Y-124970380D01*
X107392476Y-124970380D01*
X106916285Y-124970380D02*
X106725809Y-124970380D01*
X106630571Y-124922761D01*
X106582952Y-124875142D01*
X106487714Y-124732285D01*
X106440095Y-124541809D01*
X106440095Y-124160857D01*
X106487714Y-124065619D01*
X106535333Y-124018000D01*
X106630571Y-123970380D01*
X106821047Y-123970380D01*
X106916285Y-124018000D01*
X106963904Y-124065619D01*
X107011523Y-124160857D01*
X107011523Y-124398952D01*
X106963904Y-124494190D01*
X106916285Y-124541809D01*
X106821047Y-124589428D01*
X106630571Y-124589428D01*
X106535333Y-124541809D01*
X106487714Y-124494190D01*
X106440095Y-124398952D01*
%TO.C,D41*%
X133046285Y-136140380D02*
X133046285Y-135140380D01*
X132808190Y-135140380D01*
X132665333Y-135188000D01*
X132570095Y-135283238D01*
X132522476Y-135378476D01*
X132474857Y-135568952D01*
X132474857Y-135711809D01*
X132522476Y-135902285D01*
X132570095Y-135997523D01*
X132665333Y-136092761D01*
X132808190Y-136140380D01*
X133046285Y-136140380D01*
X131617714Y-135473714D02*
X131617714Y-136140380D01*
X131855809Y-135092761D02*
X132093904Y-135807047D01*
X131474857Y-135807047D01*
X130570095Y-136140380D02*
X131141523Y-136140380D01*
X130855809Y-136140380D02*
X130855809Y-135140380D01*
X130951047Y-135283238D01*
X131046285Y-135378476D01*
X131141523Y-135426095D01*
%TO.C,R39*%
X157354857Y-135030380D02*
X157688190Y-134554190D01*
X157926285Y-135030380D02*
X157926285Y-134030380D01*
X157545333Y-134030380D01*
X157450095Y-134078000D01*
X157402476Y-134125619D01*
X157354857Y-134220857D01*
X157354857Y-134363714D01*
X157402476Y-134458952D01*
X157450095Y-134506571D01*
X157545333Y-134554190D01*
X157926285Y-134554190D01*
X157021523Y-134030380D02*
X156402476Y-134030380D01*
X156735809Y-134411333D01*
X156592952Y-134411333D01*
X156497714Y-134458952D01*
X156450095Y-134506571D01*
X156402476Y-134601809D01*
X156402476Y-134839904D01*
X156450095Y-134935142D01*
X156497714Y-134982761D01*
X156592952Y-135030380D01*
X156878666Y-135030380D01*
X156973904Y-134982761D01*
X157021523Y-134935142D01*
X155926285Y-135030380D02*
X155735809Y-135030380D01*
X155640571Y-134982761D01*
X155592952Y-134935142D01*
X155497714Y-134792285D01*
X155450095Y-134601809D01*
X155450095Y-134220857D01*
X155497714Y-134125619D01*
X155545333Y-134078000D01*
X155640571Y-134030380D01*
X155831047Y-134030380D01*
X155926285Y-134078000D01*
X155973904Y-134125619D01*
X156021523Y-134220857D01*
X156021523Y-134458952D01*
X155973904Y-134554190D01*
X155926285Y-134601809D01*
X155831047Y-134649428D01*
X155640571Y-134649428D01*
X155545333Y-134601809D01*
X155497714Y-134554190D01*
X155450095Y-134458952D01*
%TO.C,R31*%
X190744857Y-128940380D02*
X191078190Y-128464190D01*
X191316285Y-128940380D02*
X191316285Y-127940380D01*
X190935333Y-127940380D01*
X190840095Y-127988000D01*
X190792476Y-128035619D01*
X190744857Y-128130857D01*
X190744857Y-128273714D01*
X190792476Y-128368952D01*
X190840095Y-128416571D01*
X190935333Y-128464190D01*
X191316285Y-128464190D01*
X190411523Y-127940380D02*
X189792476Y-127940380D01*
X190125809Y-128321333D01*
X189982952Y-128321333D01*
X189887714Y-128368952D01*
X189840095Y-128416571D01*
X189792476Y-128511809D01*
X189792476Y-128749904D01*
X189840095Y-128845142D01*
X189887714Y-128892761D01*
X189982952Y-128940380D01*
X190268666Y-128940380D01*
X190363904Y-128892761D01*
X190411523Y-128845142D01*
X188840095Y-128940380D02*
X189411523Y-128940380D01*
X189125809Y-128940380D02*
X189125809Y-127940380D01*
X189221047Y-128083238D01*
X189316285Y-128178476D01*
X189411523Y-128226095D01*
%TO.C,R27*%
X157361457Y-123879780D02*
X157694790Y-123403590D01*
X157932885Y-123879780D02*
X157932885Y-122879780D01*
X157551933Y-122879780D01*
X157456695Y-122927400D01*
X157409076Y-122975019D01*
X157361457Y-123070257D01*
X157361457Y-123213114D01*
X157409076Y-123308352D01*
X157456695Y-123355971D01*
X157551933Y-123403590D01*
X157932885Y-123403590D01*
X156980504Y-122975019D02*
X156932885Y-122927400D01*
X156837647Y-122879780D01*
X156599552Y-122879780D01*
X156504314Y-122927400D01*
X156456695Y-122975019D01*
X156409076Y-123070257D01*
X156409076Y-123165495D01*
X156456695Y-123308352D01*
X157028123Y-123879780D01*
X156409076Y-123879780D01*
X156075742Y-122879780D02*
X155409076Y-122879780D01*
X155837647Y-123879780D01*
%TO.C,D26*%
X118046285Y-136150380D02*
X118046285Y-135150380D01*
X117808190Y-135150380D01*
X117665333Y-135198000D01*
X117570095Y-135293238D01*
X117522476Y-135388476D01*
X117474857Y-135578952D01*
X117474857Y-135721809D01*
X117522476Y-135912285D01*
X117570095Y-136007523D01*
X117665333Y-136102761D01*
X117808190Y-136150380D01*
X118046285Y-136150380D01*
X117093904Y-135245619D02*
X117046285Y-135198000D01*
X116951047Y-135150380D01*
X116712952Y-135150380D01*
X116617714Y-135198000D01*
X116570095Y-135245619D01*
X116522476Y-135340857D01*
X116522476Y-135436095D01*
X116570095Y-135578952D01*
X117141523Y-136150380D01*
X116522476Y-136150380D01*
X115665333Y-135150380D02*
X115855809Y-135150380D01*
X115951047Y-135198000D01*
X115998666Y-135245619D01*
X116093904Y-135388476D01*
X116141523Y-135578952D01*
X116141523Y-135959904D01*
X116093904Y-136055142D01*
X116046285Y-136102761D01*
X115951047Y-136150380D01*
X115760571Y-136150380D01*
X115665333Y-136102761D01*
X115617714Y-136055142D01*
X115570095Y-135959904D01*
X115570095Y-135721809D01*
X115617714Y-135626571D01*
X115665333Y-135578952D01*
X115760571Y-135531333D01*
X115951047Y-135531333D01*
X116046285Y-135578952D01*
X116093904Y-135626571D01*
X116141523Y-135721809D01*
%TO.C,D36*%
X99776285Y-124968380D02*
X99776285Y-123968380D01*
X99538190Y-123968380D01*
X99395333Y-124016000D01*
X99300095Y-124111238D01*
X99252476Y-124206476D01*
X99204857Y-124396952D01*
X99204857Y-124539809D01*
X99252476Y-124730285D01*
X99300095Y-124825523D01*
X99395333Y-124920761D01*
X99538190Y-124968380D01*
X99776285Y-124968380D01*
X98871523Y-123968380D02*
X98252476Y-123968380D01*
X98585809Y-124349333D01*
X98442952Y-124349333D01*
X98347714Y-124396952D01*
X98300095Y-124444571D01*
X98252476Y-124539809D01*
X98252476Y-124777904D01*
X98300095Y-124873142D01*
X98347714Y-124920761D01*
X98442952Y-124968380D01*
X98728666Y-124968380D01*
X98823904Y-124920761D01*
X98871523Y-124873142D01*
X97395333Y-123968380D02*
X97585809Y-123968380D01*
X97681047Y-124016000D01*
X97728666Y-124063619D01*
X97823904Y-124206476D01*
X97871523Y-124396952D01*
X97871523Y-124777904D01*
X97823904Y-124873142D01*
X97776285Y-124920761D01*
X97681047Y-124968380D01*
X97490571Y-124968380D01*
X97395333Y-124920761D01*
X97347714Y-124873142D01*
X97300095Y-124777904D01*
X97300095Y-124539809D01*
X97347714Y-124444571D01*
X97395333Y-124396952D01*
X97490571Y-124349333D01*
X97681047Y-124349333D01*
X97776285Y-124396952D01*
X97823904Y-124444571D01*
X97871523Y-124539809D01*
%TO.C,R25*%
X157361457Y-128959780D02*
X157694790Y-128483590D01*
X157932885Y-128959780D02*
X157932885Y-127959780D01*
X157551933Y-127959780D01*
X157456695Y-128007400D01*
X157409076Y-128055019D01*
X157361457Y-128150257D01*
X157361457Y-128293114D01*
X157409076Y-128388352D01*
X157456695Y-128435971D01*
X157551933Y-128483590D01*
X157932885Y-128483590D01*
X156980504Y-128055019D02*
X156932885Y-128007400D01*
X156837647Y-127959780D01*
X156599552Y-127959780D01*
X156504314Y-128007400D01*
X156456695Y-128055019D01*
X156409076Y-128150257D01*
X156409076Y-128245495D01*
X156456695Y-128388352D01*
X157028123Y-128959780D01*
X156409076Y-128959780D01*
X155504314Y-127959780D02*
X155980504Y-127959780D01*
X156028123Y-128435971D01*
X155980504Y-128388352D01*
X155885266Y-128340733D01*
X155647171Y-128340733D01*
X155551933Y-128388352D01*
X155504314Y-128435971D01*
X155456695Y-128531209D01*
X155456695Y-128769304D01*
X155504314Y-128864542D01*
X155551933Y-128912161D01*
X155647171Y-128959780D01*
X155885266Y-128959780D01*
X155980504Y-128912161D01*
X156028123Y-128864542D01*
%TO.C,D37*%
X133046285Y-125010380D02*
X133046285Y-124010380D01*
X132808190Y-124010380D01*
X132665333Y-124058000D01*
X132570095Y-124153238D01*
X132522476Y-124248476D01*
X132474857Y-124438952D01*
X132474857Y-124581809D01*
X132522476Y-124772285D01*
X132570095Y-124867523D01*
X132665333Y-124962761D01*
X132808190Y-125010380D01*
X133046285Y-125010380D01*
X132141523Y-124010380D02*
X131522476Y-124010380D01*
X131855809Y-124391333D01*
X131712952Y-124391333D01*
X131617714Y-124438952D01*
X131570095Y-124486571D01*
X131522476Y-124581809D01*
X131522476Y-124819904D01*
X131570095Y-124915142D01*
X131617714Y-124962761D01*
X131712952Y-125010380D01*
X131998666Y-125010380D01*
X132093904Y-124962761D01*
X132141523Y-124915142D01*
X131189142Y-124010380D02*
X130522476Y-124010380D01*
X130951047Y-125010380D01*
%TO.C,R34*%
X124084857Y-140120380D02*
X124418190Y-139644190D01*
X124656285Y-140120380D02*
X124656285Y-139120380D01*
X124275333Y-139120380D01*
X124180095Y-139168000D01*
X124132476Y-139215619D01*
X124084857Y-139310857D01*
X124084857Y-139453714D01*
X124132476Y-139548952D01*
X124180095Y-139596571D01*
X124275333Y-139644190D01*
X124656285Y-139644190D01*
X123751523Y-139120380D02*
X123132476Y-139120380D01*
X123465809Y-139501333D01*
X123322952Y-139501333D01*
X123227714Y-139548952D01*
X123180095Y-139596571D01*
X123132476Y-139691809D01*
X123132476Y-139929904D01*
X123180095Y-140025142D01*
X123227714Y-140072761D01*
X123322952Y-140120380D01*
X123608666Y-140120380D01*
X123703904Y-140072761D01*
X123751523Y-140025142D01*
X122275333Y-139453714D02*
X122275333Y-140120380D01*
X122513428Y-139072761D02*
X122751523Y-139787047D01*
X122132476Y-139787047D01*
%TO.C,D30*%
X142176285Y-125000380D02*
X142176285Y-124000380D01*
X141938190Y-124000380D01*
X141795333Y-124048000D01*
X141700095Y-124143238D01*
X141652476Y-124238476D01*
X141604857Y-124428952D01*
X141604857Y-124571809D01*
X141652476Y-124762285D01*
X141700095Y-124857523D01*
X141795333Y-124952761D01*
X141938190Y-125000380D01*
X142176285Y-125000380D01*
X141271523Y-124000380D02*
X140652476Y-124000380D01*
X140985809Y-124381333D01*
X140842952Y-124381333D01*
X140747714Y-124428952D01*
X140700095Y-124476571D01*
X140652476Y-124571809D01*
X140652476Y-124809904D01*
X140700095Y-124905142D01*
X140747714Y-124952761D01*
X140842952Y-125000380D01*
X141128666Y-125000380D01*
X141223904Y-124952761D01*
X141271523Y-124905142D01*
X140033428Y-124000380D02*
X139938190Y-124000380D01*
X139842952Y-124048000D01*
X139795333Y-124095619D01*
X139747714Y-124190857D01*
X139700095Y-124381333D01*
X139700095Y-124619428D01*
X139747714Y-124809904D01*
X139795333Y-124905142D01*
X139842952Y-124952761D01*
X139938190Y-125000380D01*
X140033428Y-125000380D01*
X140128666Y-124952761D01*
X140176285Y-124905142D01*
X140223904Y-124809904D01*
X140271523Y-124619428D01*
X140271523Y-124381333D01*
X140223904Y-124190857D01*
X140176285Y-124095619D01*
X140128666Y-124048000D01*
X140033428Y-124000380D01*
%TO.C,D40*%
X99766285Y-136140380D02*
X99766285Y-135140380D01*
X99528190Y-135140380D01*
X99385333Y-135188000D01*
X99290095Y-135283238D01*
X99242476Y-135378476D01*
X99194857Y-135568952D01*
X99194857Y-135711809D01*
X99242476Y-135902285D01*
X99290095Y-135997523D01*
X99385333Y-136092761D01*
X99528190Y-136140380D01*
X99766285Y-136140380D01*
X98337714Y-135473714D02*
X98337714Y-136140380D01*
X98575809Y-135092761D02*
X98813904Y-135807047D01*
X98194857Y-135807047D01*
X97623428Y-135140380D02*
X97528190Y-135140380D01*
X97432952Y-135188000D01*
X97385333Y-135235619D01*
X97337714Y-135330857D01*
X97290095Y-135521333D01*
X97290095Y-135759428D01*
X97337714Y-135949904D01*
X97385333Y-136045142D01*
X97432952Y-136092761D01*
X97528190Y-136140380D01*
X97623428Y-136140380D01*
X97718666Y-136092761D01*
X97766285Y-136045142D01*
X97813904Y-135949904D01*
X97861523Y-135759428D01*
X97861523Y-135521333D01*
X97813904Y-135330857D01*
X97766285Y-135235619D01*
X97718666Y-135188000D01*
X97623428Y-135140380D01*
%TO.C,D33*%
X108906285Y-136150380D02*
X108906285Y-135150380D01*
X108668190Y-135150380D01*
X108525333Y-135198000D01*
X108430095Y-135293238D01*
X108382476Y-135388476D01*
X108334857Y-135578952D01*
X108334857Y-135721809D01*
X108382476Y-135912285D01*
X108430095Y-136007523D01*
X108525333Y-136102761D01*
X108668190Y-136150380D01*
X108906285Y-136150380D01*
X108001523Y-135150380D02*
X107382476Y-135150380D01*
X107715809Y-135531333D01*
X107572952Y-135531333D01*
X107477714Y-135578952D01*
X107430095Y-135626571D01*
X107382476Y-135721809D01*
X107382476Y-135959904D01*
X107430095Y-136055142D01*
X107477714Y-136102761D01*
X107572952Y-136150380D01*
X107858666Y-136150380D01*
X107953904Y-136102761D01*
X108001523Y-136055142D01*
X107049142Y-135150380D02*
X106430095Y-135150380D01*
X106763428Y-135531333D01*
X106620571Y-135531333D01*
X106525333Y-135578952D01*
X106477714Y-135626571D01*
X106430095Y-135721809D01*
X106430095Y-135959904D01*
X106477714Y-136055142D01*
X106525333Y-136102761D01*
X106620571Y-136150380D01*
X106906285Y-136150380D01*
X107001523Y-136102761D01*
X107049142Y-136055142D01*
%TO.C,D22*%
X118056285Y-124968380D02*
X118056285Y-123968380D01*
X117818190Y-123968380D01*
X117675333Y-124016000D01*
X117580095Y-124111238D01*
X117532476Y-124206476D01*
X117484857Y-124396952D01*
X117484857Y-124539809D01*
X117532476Y-124730285D01*
X117580095Y-124825523D01*
X117675333Y-124920761D01*
X117818190Y-124968380D01*
X118056285Y-124968380D01*
X117103904Y-124063619D02*
X117056285Y-124016000D01*
X116961047Y-123968380D01*
X116722952Y-123968380D01*
X116627714Y-124016000D01*
X116580095Y-124063619D01*
X116532476Y-124158857D01*
X116532476Y-124254095D01*
X116580095Y-124396952D01*
X117151523Y-124968380D01*
X116532476Y-124968380D01*
X116151523Y-124063619D02*
X116103904Y-124016000D01*
X116008666Y-123968380D01*
X115770571Y-123968380D01*
X115675333Y-124016000D01*
X115627714Y-124063619D01*
X115580095Y-124158857D01*
X115580095Y-124254095D01*
X115627714Y-124396952D01*
X116199142Y-124968380D01*
X115580095Y-124968380D01*
%TO.C,D34*%
X142176285Y-136140380D02*
X142176285Y-135140380D01*
X141938190Y-135140380D01*
X141795333Y-135188000D01*
X141700095Y-135283238D01*
X141652476Y-135378476D01*
X141604857Y-135568952D01*
X141604857Y-135711809D01*
X141652476Y-135902285D01*
X141700095Y-135997523D01*
X141795333Y-136092761D01*
X141938190Y-136140380D01*
X142176285Y-136140380D01*
X141271523Y-135140380D02*
X140652476Y-135140380D01*
X140985809Y-135521333D01*
X140842952Y-135521333D01*
X140747714Y-135568952D01*
X140700095Y-135616571D01*
X140652476Y-135711809D01*
X140652476Y-135949904D01*
X140700095Y-136045142D01*
X140747714Y-136092761D01*
X140842952Y-136140380D01*
X141128666Y-136140380D01*
X141223904Y-136092761D01*
X141271523Y-136045142D01*
X139795333Y-135473714D02*
X139795333Y-136140380D01*
X140033428Y-135092761D02*
X140271523Y-135807047D01*
X139652476Y-135807047D01*
%TO.C,R24*%
X124086857Y-124108380D02*
X124420190Y-123632190D01*
X124658285Y-124108380D02*
X124658285Y-123108380D01*
X124277333Y-123108380D01*
X124182095Y-123156000D01*
X124134476Y-123203619D01*
X124086857Y-123298857D01*
X124086857Y-123441714D01*
X124134476Y-123536952D01*
X124182095Y-123584571D01*
X124277333Y-123632190D01*
X124658285Y-123632190D01*
X123705904Y-123203619D02*
X123658285Y-123156000D01*
X123563047Y-123108380D01*
X123324952Y-123108380D01*
X123229714Y-123156000D01*
X123182095Y-123203619D01*
X123134476Y-123298857D01*
X123134476Y-123394095D01*
X123182095Y-123536952D01*
X123753523Y-124108380D01*
X123134476Y-124108380D01*
X122277333Y-123441714D02*
X122277333Y-124108380D01*
X122515428Y-123060761D02*
X122753523Y-123775047D01*
X122134476Y-123775047D01*
%TO.C,R28*%
X190632857Y-140110380D02*
X190966190Y-139634190D01*
X191204285Y-140110380D02*
X191204285Y-139110380D01*
X190823333Y-139110380D01*
X190728095Y-139158000D01*
X190680476Y-139205619D01*
X190632857Y-139300857D01*
X190632857Y-139443714D01*
X190680476Y-139538952D01*
X190728095Y-139586571D01*
X190823333Y-139634190D01*
X191204285Y-139634190D01*
X190251904Y-139205619D02*
X190204285Y-139158000D01*
X190109047Y-139110380D01*
X189870952Y-139110380D01*
X189775714Y-139158000D01*
X189728095Y-139205619D01*
X189680476Y-139300857D01*
X189680476Y-139396095D01*
X189728095Y-139538952D01*
X190299523Y-140110380D01*
X189680476Y-140110380D01*
X189109047Y-139538952D02*
X189204285Y-139491333D01*
X189251904Y-139443714D01*
X189299523Y-139348476D01*
X189299523Y-139300857D01*
X189251904Y-139205619D01*
X189204285Y-139158000D01*
X189109047Y-139110380D01*
X188918571Y-139110380D01*
X188823333Y-139158000D01*
X188775714Y-139205619D01*
X188728095Y-139300857D01*
X188728095Y-139348476D01*
X188775714Y-139443714D01*
X188823333Y-139491333D01*
X188918571Y-139538952D01*
X189109047Y-139538952D01*
X189204285Y-139586571D01*
X189251904Y-139634190D01*
X189299523Y-139729428D01*
X189299523Y-139919904D01*
X189251904Y-140015142D01*
X189204285Y-140062761D01*
X189109047Y-140110380D01*
X188918571Y-140110380D01*
X188823333Y-140062761D01*
X188775714Y-140015142D01*
X188728095Y-139919904D01*
X188728095Y-139729428D01*
X188775714Y-139634190D01*
X188823333Y-139586571D01*
X188918571Y-139538952D01*
%TO.C,R23*%
X124086857Y-126648380D02*
X124420190Y-126172190D01*
X124658285Y-126648380D02*
X124658285Y-125648380D01*
X124277333Y-125648380D01*
X124182095Y-125696000D01*
X124134476Y-125743619D01*
X124086857Y-125838857D01*
X124086857Y-125981714D01*
X124134476Y-126076952D01*
X124182095Y-126124571D01*
X124277333Y-126172190D01*
X124658285Y-126172190D01*
X123705904Y-125743619D02*
X123658285Y-125696000D01*
X123563047Y-125648380D01*
X123324952Y-125648380D01*
X123229714Y-125696000D01*
X123182095Y-125743619D01*
X123134476Y-125838857D01*
X123134476Y-125934095D01*
X123182095Y-126076952D01*
X123753523Y-126648380D01*
X123134476Y-126648380D01*
X122801142Y-125648380D02*
X122182095Y-125648380D01*
X122515428Y-126029333D01*
X122372571Y-126029333D01*
X122277333Y-126076952D01*
X122229714Y-126124571D01*
X122182095Y-126219809D01*
X122182095Y-126457904D01*
X122229714Y-126553142D01*
X122277333Y-126600761D01*
X122372571Y-126648380D01*
X122658285Y-126648380D01*
X122753523Y-126600761D01*
X122801142Y-126553142D01*
%TO.C,R30*%
X190632857Y-135030380D02*
X190966190Y-134554190D01*
X191204285Y-135030380D02*
X191204285Y-134030380D01*
X190823333Y-134030380D01*
X190728095Y-134078000D01*
X190680476Y-134125619D01*
X190632857Y-134220857D01*
X190632857Y-134363714D01*
X190680476Y-134458952D01*
X190728095Y-134506571D01*
X190823333Y-134554190D01*
X191204285Y-134554190D01*
X190299523Y-134030380D02*
X189680476Y-134030380D01*
X190013809Y-134411333D01*
X189870952Y-134411333D01*
X189775714Y-134458952D01*
X189728095Y-134506571D01*
X189680476Y-134601809D01*
X189680476Y-134839904D01*
X189728095Y-134935142D01*
X189775714Y-134982761D01*
X189870952Y-135030380D01*
X190156666Y-135030380D01*
X190251904Y-134982761D01*
X190299523Y-134935142D01*
X189061428Y-134030380D02*
X188966190Y-134030380D01*
X188870952Y-134078000D01*
X188823333Y-134125619D01*
X188775714Y-134220857D01*
X188728095Y-134411333D01*
X188728095Y-134649428D01*
X188775714Y-134839904D01*
X188823333Y-134935142D01*
X188870952Y-134982761D01*
X188966190Y-135030380D01*
X189061428Y-135030380D01*
X189156666Y-134982761D01*
X189204285Y-134935142D01*
X189251904Y-134839904D01*
X189299523Y-134649428D01*
X189299523Y-134411333D01*
X189251904Y-134220857D01*
X189204285Y-134125619D01*
X189156666Y-134078000D01*
X189061428Y-134030380D01*
%TO.C,R29*%
X190632857Y-137570380D02*
X190966190Y-137094190D01*
X191204285Y-137570380D02*
X191204285Y-136570380D01*
X190823333Y-136570380D01*
X190728095Y-136618000D01*
X190680476Y-136665619D01*
X190632857Y-136760857D01*
X190632857Y-136903714D01*
X190680476Y-136998952D01*
X190728095Y-137046571D01*
X190823333Y-137094190D01*
X191204285Y-137094190D01*
X190251904Y-136665619D02*
X190204285Y-136618000D01*
X190109047Y-136570380D01*
X189870952Y-136570380D01*
X189775714Y-136618000D01*
X189728095Y-136665619D01*
X189680476Y-136760857D01*
X189680476Y-136856095D01*
X189728095Y-136998952D01*
X190299523Y-137570380D01*
X189680476Y-137570380D01*
X189204285Y-137570380D02*
X189013809Y-137570380D01*
X188918571Y-137522761D01*
X188870952Y-137475142D01*
X188775714Y-137332285D01*
X188728095Y-137141809D01*
X188728095Y-136760857D01*
X188775714Y-136665619D01*
X188823333Y-136618000D01*
X188918571Y-136570380D01*
X189109047Y-136570380D01*
X189204285Y-136618000D01*
X189251904Y-136665619D01*
X189299523Y-136760857D01*
X189299523Y-136998952D01*
X189251904Y-137094190D01*
X189204285Y-137141809D01*
X189109047Y-137189428D01*
X188918571Y-137189428D01*
X188823333Y-137141809D01*
X188775714Y-137094190D01*
X188728095Y-136998952D01*
%TO.C,R22*%
X124086857Y-129188380D02*
X124420190Y-128712190D01*
X124658285Y-129188380D02*
X124658285Y-128188380D01*
X124277333Y-128188380D01*
X124182095Y-128236000D01*
X124134476Y-128283619D01*
X124086857Y-128378857D01*
X124086857Y-128521714D01*
X124134476Y-128616952D01*
X124182095Y-128664571D01*
X124277333Y-128712190D01*
X124658285Y-128712190D01*
X123705904Y-128283619D02*
X123658285Y-128236000D01*
X123563047Y-128188380D01*
X123324952Y-128188380D01*
X123229714Y-128236000D01*
X123182095Y-128283619D01*
X123134476Y-128378857D01*
X123134476Y-128474095D01*
X123182095Y-128616952D01*
X123753523Y-129188380D01*
X123134476Y-129188380D01*
X122753523Y-128283619D02*
X122705904Y-128236000D01*
X122610666Y-128188380D01*
X122372571Y-128188380D01*
X122277333Y-128236000D01*
X122229714Y-128283619D01*
X122182095Y-128378857D01*
X122182095Y-128474095D01*
X122229714Y-128616952D01*
X122801142Y-129188380D01*
X122182095Y-129188380D01*
%TO.C,D27*%
X151316285Y-136150380D02*
X151316285Y-135150380D01*
X151078190Y-135150380D01*
X150935333Y-135198000D01*
X150840095Y-135293238D01*
X150792476Y-135388476D01*
X150744857Y-135578952D01*
X150744857Y-135721809D01*
X150792476Y-135912285D01*
X150840095Y-136007523D01*
X150935333Y-136102761D01*
X151078190Y-136150380D01*
X151316285Y-136150380D01*
X150363904Y-135245619D02*
X150316285Y-135198000D01*
X150221047Y-135150380D01*
X149982952Y-135150380D01*
X149887714Y-135198000D01*
X149840095Y-135245619D01*
X149792476Y-135340857D01*
X149792476Y-135436095D01*
X149840095Y-135578952D01*
X150411523Y-136150380D01*
X149792476Y-136150380D01*
X149459142Y-135150380D02*
X148792476Y-135150380D01*
X149221047Y-136150380D01*
%TO.C,R33*%
X190744857Y-123850380D02*
X191078190Y-123374190D01*
X191316285Y-123850380D02*
X191316285Y-122850380D01*
X190935333Y-122850380D01*
X190840095Y-122898000D01*
X190792476Y-122945619D01*
X190744857Y-123040857D01*
X190744857Y-123183714D01*
X190792476Y-123278952D01*
X190840095Y-123326571D01*
X190935333Y-123374190D01*
X191316285Y-123374190D01*
X190411523Y-122850380D02*
X189792476Y-122850380D01*
X190125809Y-123231333D01*
X189982952Y-123231333D01*
X189887714Y-123278952D01*
X189840095Y-123326571D01*
X189792476Y-123421809D01*
X189792476Y-123659904D01*
X189840095Y-123755142D01*
X189887714Y-123802761D01*
X189982952Y-123850380D01*
X190268666Y-123850380D01*
X190363904Y-123802761D01*
X190411523Y-123755142D01*
X189459142Y-122850380D02*
X188840095Y-122850380D01*
X189173428Y-123231333D01*
X189030571Y-123231333D01*
X188935333Y-123278952D01*
X188887714Y-123326571D01*
X188840095Y-123421809D01*
X188840095Y-123659904D01*
X188887714Y-123755142D01*
X188935333Y-123802761D01*
X189030571Y-123850380D01*
X189316285Y-123850380D01*
X189411523Y-123802761D01*
X189459142Y-123755142D01*
%TO.C,R26*%
X157361457Y-126419780D02*
X157694790Y-125943590D01*
X157932885Y-126419780D02*
X157932885Y-125419780D01*
X157551933Y-125419780D01*
X157456695Y-125467400D01*
X157409076Y-125515019D01*
X157361457Y-125610257D01*
X157361457Y-125753114D01*
X157409076Y-125848352D01*
X157456695Y-125895971D01*
X157551933Y-125943590D01*
X157932885Y-125943590D01*
X156980504Y-125515019D02*
X156932885Y-125467400D01*
X156837647Y-125419780D01*
X156599552Y-125419780D01*
X156504314Y-125467400D01*
X156456695Y-125515019D01*
X156409076Y-125610257D01*
X156409076Y-125705495D01*
X156456695Y-125848352D01*
X157028123Y-126419780D01*
X156409076Y-126419780D01*
X155551933Y-125419780D02*
X155742409Y-125419780D01*
X155837647Y-125467400D01*
X155885266Y-125515019D01*
X155980504Y-125657876D01*
X156028123Y-125848352D01*
X156028123Y-126229304D01*
X155980504Y-126324542D01*
X155932885Y-126372161D01*
X155837647Y-126419780D01*
X155647171Y-126419780D01*
X155551933Y-126372161D01*
X155504314Y-126324542D01*
X155456695Y-126229304D01*
X155456695Y-125991209D01*
X155504314Y-125895971D01*
X155551933Y-125848352D01*
X155647171Y-125800733D01*
X155837647Y-125800733D01*
X155932885Y-125848352D01*
X155980504Y-125895971D01*
X156028123Y-125991209D01*
D11*
%TO.C,R37*%
X157439064Y-140578000D02*
X155984936Y-140578000D01*
X157439064Y-142398000D02*
X155984936Y-142398000D01*
%TO.C,D32*%
X177952000Y-125358000D02*
X171852000Y-125358000D01*
X171852000Y-130758000D02*
X176852000Y-130758000D01*
X177952000Y-126458000D02*
X177952000Y-125358000D01*
%TO.C,D39*%
X168814000Y-125339600D02*
X162714000Y-125339600D01*
X162714000Y-130739600D02*
X167714000Y-130739600D01*
X168814000Y-126439600D02*
X168814000Y-125339600D01*
%TO.C,R36*%
X124169064Y-135478000D02*
X122714936Y-135478000D01*
X124169064Y-137298000D02*
X122714936Y-137298000D01*
%TO.C,D23*%
X147613000Y-130751000D02*
X152613000Y-130751000D01*
X153713000Y-125351000D02*
X147613000Y-125351000D01*
X153713000Y-126451000D02*
X153713000Y-125351000D01*
%TO.C,R35*%
X124169064Y-138028000D02*
X122714936Y-138028000D01*
X124169064Y-139848000D02*
X122714936Y-139848000D01*
%TO.C,D24*%
X187090000Y-137588000D02*
X187090000Y-136488000D01*
X180990000Y-141888000D02*
X185990000Y-141888000D01*
X187090000Y-136488000D02*
X180990000Y-136488000D01*
%TO.C,D25*%
X180992000Y-130758000D02*
X185992000Y-130758000D01*
X187092000Y-126458000D02*
X187092000Y-125358000D01*
X187092000Y-125358000D02*
X180992000Y-125358000D01*
%TO.C,R38*%
X157449064Y-139848000D02*
X155994936Y-139848000D01*
X157449064Y-138028000D02*
X155994936Y-138028000D01*
%TO.C,D38*%
X168952000Y-137588000D02*
X168952000Y-136488000D01*
X162852000Y-141888000D02*
X167852000Y-141888000D01*
X168952000Y-136488000D02*
X162852000Y-136488000D01*
%TO.C,D31*%
X177842000Y-137588000D02*
X177842000Y-136488000D01*
X171742000Y-141888000D02*
X176742000Y-141888000D01*
X177842000Y-136488000D02*
X171742000Y-136488000D01*
%TO.C,R32*%
X190829064Y-126888000D02*
X189374936Y-126888000D01*
X190829064Y-128708000D02*
X189374936Y-128708000D01*
%TO.C,D29*%
X111302000Y-125318000D02*
X105202000Y-125318000D01*
X105202000Y-130718000D02*
X110202000Y-130718000D01*
X111302000Y-126418000D02*
X111302000Y-125318000D01*
%TO.C,D41*%
X135432000Y-136488000D02*
X129332000Y-136488000D01*
X135432000Y-137588000D02*
X135432000Y-136488000D01*
X129332000Y-141888000D02*
X134332000Y-141888000D01*
%TO.C,R39*%
X157439064Y-135488000D02*
X155984936Y-135488000D01*
X157439064Y-137308000D02*
X155984936Y-137308000D01*
%TO.C,R31*%
X190829064Y-129398000D02*
X189374936Y-129398000D01*
X190829064Y-131218000D02*
X189374936Y-131218000D01*
%TO.C,R27*%
X157445664Y-124337400D02*
X155991536Y-124337400D01*
X157445664Y-126157400D02*
X155991536Y-126157400D01*
%TO.C,D26*%
X120432000Y-136498000D02*
X114332000Y-136498000D01*
X120432000Y-137598000D02*
X120432000Y-136498000D01*
X114332000Y-141898000D02*
X119332000Y-141898000D01*
%TO.C,D36*%
X102162000Y-125316000D02*
X96062000Y-125316000D01*
X102162000Y-126416000D02*
X102162000Y-125316000D01*
X96062000Y-130716000D02*
X101062000Y-130716000D01*
%TO.C,R25*%
X157445664Y-129417400D02*
X155991536Y-129417400D01*
X157445664Y-131237400D02*
X155991536Y-131237400D01*
%TO.C,D37*%
X135432000Y-126458000D02*
X135432000Y-125358000D01*
X129332000Y-130758000D02*
X134332000Y-130758000D01*
X135432000Y-125358000D02*
X129332000Y-125358000D01*
%TO.C,R34*%
X124169064Y-142398000D02*
X122714936Y-142398000D01*
X124169064Y-140578000D02*
X122714936Y-140578000D01*
%TO.C,D30*%
X144562000Y-126448000D02*
X144562000Y-125348000D01*
X144562000Y-125348000D02*
X138462000Y-125348000D01*
X138462000Y-130748000D02*
X143462000Y-130748000D01*
%TO.C,D40*%
X102152000Y-137588000D02*
X102152000Y-136488000D01*
X102152000Y-136488000D02*
X96052000Y-136488000D01*
X96052000Y-141888000D02*
X101052000Y-141888000D01*
%TO.C,D33*%
X111292000Y-136498000D02*
X105192000Y-136498000D01*
X111292000Y-137598000D02*
X111292000Y-136498000D01*
X105192000Y-141898000D02*
X110192000Y-141898000D01*
%TO.C,D22*%
X114342000Y-130716000D02*
X119342000Y-130716000D01*
X120442000Y-126416000D02*
X120442000Y-125316000D01*
X120442000Y-125316000D02*
X114342000Y-125316000D01*
%TO.C,D34*%
X144562000Y-137588000D02*
X144562000Y-136488000D01*
X144562000Y-136488000D02*
X138462000Y-136488000D01*
X138462000Y-141888000D02*
X143462000Y-141888000D01*
%TO.C,R24*%
X124171064Y-126386000D02*
X122716936Y-126386000D01*
X124171064Y-124566000D02*
X122716936Y-124566000D01*
%TO.C,R28*%
X190717064Y-142388000D02*
X189262936Y-142388000D01*
X190717064Y-140568000D02*
X189262936Y-140568000D01*
%TO.C,R23*%
X124171064Y-127106000D02*
X122716936Y-127106000D01*
X124171064Y-128926000D02*
X122716936Y-128926000D01*
%TO.C,R30*%
X190717064Y-135488000D02*
X189262936Y-135488000D01*
X190717064Y-137308000D02*
X189262936Y-137308000D01*
%TO.C,R29*%
X190717064Y-139848000D02*
X189262936Y-139848000D01*
X190717064Y-138028000D02*
X189262936Y-138028000D01*
%TO.C,R22*%
X124171064Y-131466000D02*
X122716936Y-131466000D01*
X124171064Y-129646000D02*
X122716936Y-129646000D01*
%TO.C,D27*%
X153702000Y-137598000D02*
X153702000Y-136498000D01*
X147602000Y-141898000D02*
X152602000Y-141898000D01*
X153702000Y-136498000D02*
X147602000Y-136498000D01*
%TO.C,R33*%
X190829064Y-126128000D02*
X189374936Y-126128000D01*
X190829064Y-124308000D02*
X189374936Y-124308000D01*
%TO.C,R26*%
X157445664Y-128697400D02*
X155991536Y-128697400D01*
X157445664Y-126877400D02*
X155991536Y-126877400D01*
%TD*%
M02*
