%TF.GenerationSoftware,KiCad,Pcbnew,(6.0.5)*%
%TF.CreationDate,2023-08-09T01:27:25+09:00*%
%TF.ProjectId,TSAL,5453414c-2e6b-4696-9361-645f70636258,rev?*%
%TF.SameCoordinates,Original*%
%TF.FileFunction,Copper,L1,Top*%
%TF.FilePolarity,Positive*%
%FSLAX46Y46*%
G04 Gerber Fmt 4.6, Leading zero omitted, Abs format (unit mm)*
G04 Created by KiCad (PCBNEW (6.0.5)) date 2023-08-09 01:27:25*
%MOMM*%
%LPD*%
G01*
G04 APERTURE LIST*
G04 Aperture macros list*
%AMRoundRect*
0 Rectangle with rounded corners*
0 $1 Rounding radius*
0 $2 $3 $4 $5 $6 $7 $8 $9 X,Y pos of 4 corners*
0 Add a 4 corners polygon primitive as box body*
4,1,4,$2,$3,$4,$5,$6,$7,$8,$9,$2,$3,0*
0 Add four circle primitives for the rounded corners*
1,1,$1+$1,$2,$3*
1,1,$1+$1,$4,$5*
1,1,$1+$1,$6,$7*
1,1,$1+$1,$8,$9*
0 Add four rect primitives between the rounded corners*
20,1,$1+$1,$2,$3,$4,$5,0*
20,1,$1+$1,$4,$5,$6,$7,0*
20,1,$1+$1,$6,$7,$8,$9,0*
20,1,$1+$1,$8,$9,$2,$3,0*%
G04 Aperture macros list end*
%TA.AperFunction,SMDPad,CuDef*%
%ADD10RoundRect,0.250000X0.400000X0.625000X-0.400000X0.625000X-0.400000X-0.625000X0.400000X-0.625000X0*%
%TD*%
%TA.AperFunction,SMDPad,CuDef*%
%ADD11R,2.000000X1.100000*%
%TD*%
%TA.AperFunction,ComponentPad*%
%ADD12R,1.700000X1.700000*%
%TD*%
%TA.AperFunction,ComponentPad*%
%ADD13O,1.700000X1.700000*%
%TD*%
%TA.AperFunction,ViaPad*%
%ADD14C,0.800000*%
%TD*%
%TA.AperFunction,Conductor*%
%ADD15C,0.250000*%
%TD*%
G04 APERTURE END LIST*
D10*
%TO.P,R13,1*%
%TO.N,TSAL_RED*%
X158268000Y-141478000D03*
%TO.P,R13,2*%
%TO.N,Net-(D1-Pad3)*%
X155168000Y-141478000D03*
%TD*%
%TO.P,R2,1*%
%TO.N,TSAL_GREEN*%
X124994000Y-128016000D03*
%TO.P,R2,2*%
%TO.N,Net-(D9-Pad2)*%
X121894000Y-128016000D03*
%TD*%
%TO.P,R8,1*%
%TO.N,TSAL_GREEN*%
X191656000Y-127797142D03*
%TO.P,R8,2*%
%TO.N,Net-(D11-Pad2)*%
X188556000Y-127797142D03*
%TD*%
%TO.P,R10,1*%
%TO.N,TSAL_RED*%
X124994000Y-141478000D03*
%TO.P,R10,2*%
%TO.N,Net-(D12-Pad3)*%
X121894000Y-141478000D03*
%TD*%
%TO.P,R9,1*%
%TO.N,TSAL_BLUE*%
X191656000Y-125222000D03*
%TO.P,R9,2*%
%TO.N,Net-(D11-Pad1)*%
X188556000Y-125222000D03*
%TD*%
%TO.P,R18,1*%
%TO.N,TSAL_BLUE*%
X191542000Y-136398000D03*
%TO.P,R18,2*%
%TO.N,Net-(D2-Pad1)*%
X188442000Y-136398000D03*
%TD*%
D11*
%TO.P,D20,1,BK*%
%TO.N,Net-(D16-Pad4)*%
X96152000Y-137492000D03*
%TO.P,D20,2,GK*%
%TO.N,Net-(D16-Pad5)*%
X96152000Y-139192000D03*
%TO.P,D20,3,RK*%
%TO.N,Net-(D16-Pad6)*%
X96152000Y-140892000D03*
%TO.P,D20,4,BA*%
%TO.N,12V*%
X100952000Y-140892000D03*
%TO.P,D20,5,GA*%
X100952000Y-139192000D03*
%TO.P,D20,6,RA*%
X100952000Y-137492000D03*
%TD*%
%TO.P,D16,1,BK*%
%TO.N,Net-(D12-Pad4)*%
X105296000Y-137492000D03*
%TO.P,D16,2,GK*%
%TO.N,Net-(D12-Pad5)*%
X105296000Y-139192000D03*
%TO.P,D16,3,RK*%
%TO.N,Net-(D12-Pad6)*%
X105296000Y-140892000D03*
%TO.P,D16,4,BA*%
%TO.N,Net-(D16-Pad4)*%
X110096000Y-140892000D03*
%TO.P,D16,5,GA*%
%TO.N,Net-(D16-Pad5)*%
X110096000Y-139192000D03*
%TO.P,D16,6,RA*%
%TO.N,Net-(D16-Pad6)*%
X110096000Y-137492000D03*
%TD*%
%TO.P,D8,1,BK*%
%TO.N,Net-(D5-Pad4)*%
X162954000Y-137492000D03*
%TO.P,D8,2,GK*%
%TO.N,Net-(D5-Pad5)*%
X162954000Y-139192000D03*
%TO.P,D8,3,RK*%
%TO.N,Net-(D5-Pad6)*%
X162954000Y-140892000D03*
%TO.P,D8,4,BA*%
%TO.N,12V*%
X167754000Y-140892000D03*
%TO.P,D8,5,GA*%
X167754000Y-139192000D03*
%TO.P,D8,6,RA*%
X167754000Y-137492000D03*
%TD*%
%TO.P,D7,1,BK*%
%TO.N,Net-(D4-Pad4)*%
X129426000Y-137492000D03*
%TO.P,D7,2,GK*%
%TO.N,Net-(D4-Pad5)*%
X129426000Y-139192000D03*
%TO.P,D7,3,RK*%
%TO.N,Net-(D4-Pad6)*%
X129426000Y-140892000D03*
%TO.P,D7,4,BA*%
%TO.N,12V*%
X134226000Y-140892000D03*
%TO.P,D7,5,GA*%
X134226000Y-139192000D03*
%TO.P,D7,6,RA*%
X134226000Y-137492000D03*
%TD*%
D10*
%TO.P,R5,1*%
%TO.N,TSAL_GREEN*%
X158268000Y-127797142D03*
%TO.P,R5,2*%
%TO.N,Net-(D10-Pad2)*%
X155168000Y-127797142D03*
%TD*%
%TO.P,R17,1*%
%TO.N,TSAL_GREEN*%
X191542000Y-138938000D03*
%TO.P,R17,2*%
%TO.N,Net-(D2-Pad2)*%
X188442000Y-138938000D03*
%TD*%
D11*
%TO.P,D1,1,BK*%
%TO.N,Net-(D1-Pad1)*%
X147714000Y-137492000D03*
%TO.P,D1,2,GK*%
%TO.N,Net-(D1-Pad2)*%
X147714000Y-139192000D03*
%TO.P,D1,3,RK*%
%TO.N,Net-(D1-Pad3)*%
X147714000Y-140892000D03*
%TO.P,D1,4,BA*%
%TO.N,Net-(D1-Pad4)*%
X152514000Y-140892000D03*
%TO.P,D1,5,GA*%
%TO.N,Net-(D1-Pad5)*%
X152514000Y-139192000D03*
%TO.P,D1,6,RA*%
%TO.N,Net-(D1-Pad6)*%
X152514000Y-137492000D03*
%TD*%
D10*
%TO.P,R12,1*%
%TO.N,TSAL_BLUE*%
X124994000Y-136398000D03*
%TO.P,R12,2*%
%TO.N,Net-(D12-Pad1)*%
X121894000Y-136398000D03*
%TD*%
%TO.P,R6,1*%
%TO.N,TSAL_BLUE*%
X158268000Y-125257142D03*
%TO.P,R6,2*%
%TO.N,Net-(D10-Pad1)*%
X155168000Y-125257142D03*
%TD*%
D11*
%TO.P,D17,1,BK*%
%TO.N,Net-(D13-Pad4)*%
X96152000Y-126316000D03*
%TO.P,D17,2,GK*%
%TO.N,Net-(D13-Pad5)*%
X96152000Y-128016000D03*
%TO.P,D17,3,RK*%
%TO.N,Net-(D13-Pad6)*%
X96152000Y-129716000D03*
%TO.P,D17,4,BA*%
%TO.N,12V*%
X100952000Y-129716000D03*
%TO.P,D17,5,GA*%
X100952000Y-128016000D03*
%TO.P,D17,6,RA*%
X100952000Y-126316000D03*
%TD*%
D10*
%TO.P,R15,1*%
%TO.N,TSAL_BLUE*%
X158268000Y-136398000D03*
%TO.P,R15,2*%
%TO.N,Net-(D1-Pad1)*%
X155168000Y-136398000D03*
%TD*%
%TO.P,R11,1*%
%TO.N,TSAL_GREEN*%
X124994000Y-138938000D03*
%TO.P,R11,2*%
%TO.N,Net-(D12-Pad2)*%
X121894000Y-138938000D03*
%TD*%
D11*
%TO.P,D13,1,BK*%
%TO.N,Net-(D13-Pad1)*%
X105296000Y-126316000D03*
%TO.P,D13,2,GK*%
%TO.N,Net-(D13-Pad2)*%
X105296000Y-128016000D03*
%TO.P,D13,3,RK*%
%TO.N,Net-(D13-Pad3)*%
X105296000Y-129716000D03*
%TO.P,D13,4,BA*%
%TO.N,Net-(D13-Pad4)*%
X110096000Y-129716000D03*
%TO.P,D13,5,GA*%
%TO.N,Net-(D13-Pad5)*%
X110096000Y-128016000D03*
%TO.P,D13,6,RA*%
%TO.N,Net-(D13-Pad6)*%
X110096000Y-126316000D03*
%TD*%
D10*
%TO.P,R7,1*%
%TO.N,TSAL_RED*%
X191656000Y-130302000D03*
%TO.P,R7,2*%
%TO.N,Net-(D11-Pad3)*%
X188556000Y-130302000D03*
%TD*%
D11*
%TO.P,D19,1,BK*%
%TO.N,Net-(D15-Pad4)*%
X162814000Y-126351142D03*
%TO.P,D19,2,GK*%
%TO.N,Net-(D15-Pad5)*%
X162814000Y-128051142D03*
%TO.P,D19,3,RK*%
%TO.N,Net-(D15-Pad6)*%
X162814000Y-129751142D03*
%TO.P,D19,4,BA*%
%TO.N,12V*%
X167614000Y-129751142D03*
%TO.P,D19,5,GA*%
X167614000Y-128051142D03*
%TO.P,D19,6,RA*%
X167614000Y-126351142D03*
%TD*%
D12*
%TO.P,J1,1*%
%TO.N,12V*%
X141812000Y-119778000D03*
D13*
%TO.P,J1,2*%
%TO.N,TSAL_RED*%
X144352000Y-119778000D03*
%TO.P,J1,3*%
%TO.N,TSAL_GREEN*%
X146892000Y-119778000D03*
%TO.P,J1,4*%
%TO.N,TSAL_BLUE*%
X149432000Y-119778000D03*
%TD*%
D10*
%TO.P,R14,1*%
%TO.N,TSAL_GREEN*%
X158268000Y-138938000D03*
%TO.P,R14,2*%
%TO.N,Net-(D1-Pad2)*%
X155168000Y-138938000D03*
%TD*%
%TO.P,R4,1*%
%TO.N,TSAL_RED*%
X158268000Y-130337142D03*
%TO.P,R4,2*%
%TO.N,Net-(D10-Pad3)*%
X155168000Y-130337142D03*
%TD*%
D11*
%TO.P,D4,1,BK*%
%TO.N,Net-(D1-Pad4)*%
X138570000Y-137492000D03*
%TO.P,D4,2,GK*%
%TO.N,Net-(D1-Pad5)*%
X138570000Y-139192000D03*
%TO.P,D4,3,RK*%
%TO.N,Net-(D1-Pad6)*%
X138570000Y-140892000D03*
%TO.P,D4,4,BA*%
%TO.N,Net-(D4-Pad4)*%
X143370000Y-140892000D03*
%TO.P,D4,5,GA*%
%TO.N,Net-(D4-Pad5)*%
X143370000Y-139192000D03*
%TO.P,D4,6,RA*%
%TO.N,Net-(D4-Pad6)*%
X143370000Y-137492000D03*
%TD*%
%TO.P,D2,1,BK*%
%TO.N,Net-(D2-Pad1)*%
X181102000Y-137492000D03*
%TO.P,D2,2,GK*%
%TO.N,Net-(D2-Pad2)*%
X181102000Y-139192000D03*
%TO.P,D2,3,RK*%
%TO.N,Net-(D2-Pad3)*%
X181102000Y-140892000D03*
%TO.P,D2,4,BA*%
%TO.N,Net-(D2-Pad4)*%
X185902000Y-140892000D03*
%TO.P,D2,5,GA*%
%TO.N,Net-(D2-Pad5)*%
X185902000Y-139192000D03*
%TO.P,D2,6,RA*%
%TO.N,Net-(D2-Pad6)*%
X185902000Y-137492000D03*
%TD*%
%TO.P,D14,1,BK*%
%TO.N,Net-(D10-Pad4)*%
X138570000Y-126351142D03*
%TO.P,D14,2,GK*%
%TO.N,Net-(D10-Pad5)*%
X138570000Y-128051142D03*
%TO.P,D14,3,RK*%
%TO.N,Net-(D10-Pad6)*%
X138570000Y-129751142D03*
%TO.P,D14,4,BA*%
%TO.N,Net-(D14-Pad4)*%
X143370000Y-129751142D03*
%TO.P,D14,5,GA*%
%TO.N,Net-(D14-Pad5)*%
X143370000Y-128051142D03*
%TO.P,D14,6,RA*%
%TO.N,Net-(D14-Pad6)*%
X143370000Y-126351142D03*
%TD*%
%TO.P,D5,1,BK*%
%TO.N,Net-(D2-Pad4)*%
X171844000Y-137492000D03*
%TO.P,D5,2,GK*%
%TO.N,Net-(D2-Pad5)*%
X171844000Y-139192000D03*
%TO.P,D5,3,RK*%
%TO.N,Net-(D2-Pad6)*%
X171844000Y-140892000D03*
%TO.P,D5,4,BA*%
%TO.N,Net-(D5-Pad4)*%
X176644000Y-140892000D03*
%TO.P,D5,5,GA*%
%TO.N,Net-(D5-Pad5)*%
X176644000Y-139192000D03*
%TO.P,D5,6,RA*%
%TO.N,Net-(D5-Pad6)*%
X176644000Y-137492000D03*
%TD*%
D10*
%TO.P,R16,1*%
%TO.N,TSAL_RED*%
X191542000Y-141478000D03*
%TO.P,R16,2*%
%TO.N,Net-(D2-Pad3)*%
X188442000Y-141478000D03*
%TD*%
D11*
%TO.P,D11,1,BK*%
%TO.N,Net-(D11-Pad1)*%
X181102000Y-126351142D03*
%TO.P,D11,2,GK*%
%TO.N,Net-(D11-Pad2)*%
X181102000Y-128051142D03*
%TO.P,D11,3,RK*%
%TO.N,Net-(D11-Pad3)*%
X181102000Y-129751142D03*
%TO.P,D11,4,BA*%
%TO.N,Net-(D11-Pad4)*%
X185902000Y-129751142D03*
%TO.P,D11,5,GA*%
%TO.N,Net-(D11-Pad5)*%
X185902000Y-128051142D03*
%TO.P,D11,6,RA*%
%TO.N,Net-(D11-Pad6)*%
X185902000Y-126351142D03*
%TD*%
D10*
%TO.P,R1,1*%
%TO.N,TSAL_RED*%
X124994000Y-130556000D03*
%TO.P,R1,2*%
%TO.N,Net-(D9-Pad3)*%
X121894000Y-130556000D03*
%TD*%
D11*
%TO.P,D15,1,BK*%
%TO.N,Net-(D11-Pad4)*%
X171958000Y-126351142D03*
%TO.P,D15,2,GK*%
%TO.N,Net-(D11-Pad5)*%
X171958000Y-128051142D03*
%TO.P,D15,3,RK*%
%TO.N,Net-(D11-Pad6)*%
X171958000Y-129751142D03*
%TO.P,D15,4,BA*%
%TO.N,Net-(D15-Pad4)*%
X176758000Y-129751142D03*
%TO.P,D15,5,GA*%
%TO.N,Net-(D15-Pad5)*%
X176758000Y-128051142D03*
%TO.P,D15,6,RA*%
%TO.N,Net-(D15-Pad6)*%
X176758000Y-126351142D03*
%TD*%
%TO.P,D12,1,BK*%
%TO.N,Net-(D12-Pad1)*%
X114440000Y-137492000D03*
%TO.P,D12,2,GK*%
%TO.N,Net-(D12-Pad2)*%
X114440000Y-139192000D03*
%TO.P,D12,3,RK*%
%TO.N,Net-(D12-Pad3)*%
X114440000Y-140892000D03*
%TO.P,D12,4,BA*%
%TO.N,Net-(D12-Pad4)*%
X119240000Y-140892000D03*
%TO.P,D12,5,GA*%
%TO.N,Net-(D12-Pad5)*%
X119240000Y-139192000D03*
%TO.P,D12,6,RA*%
%TO.N,Net-(D12-Pad6)*%
X119240000Y-137492000D03*
%TD*%
D10*
%TO.P,R3,1*%
%TO.N,TSAL_BLUE*%
X124994000Y-125476000D03*
%TO.P,R3,2*%
%TO.N,Net-(D9-Pad1)*%
X121894000Y-125476000D03*
%TD*%
D11*
%TO.P,D18,1,BK*%
%TO.N,Net-(D14-Pad4)*%
X129426000Y-126351142D03*
%TO.P,D18,2,GK*%
%TO.N,Net-(D14-Pad5)*%
X129426000Y-128051142D03*
%TO.P,D18,3,RK*%
%TO.N,Net-(D14-Pad6)*%
X129426000Y-129751142D03*
%TO.P,D18,4,BA*%
%TO.N,12V*%
X134226000Y-129751142D03*
%TO.P,D18,5,GA*%
X134226000Y-128051142D03*
%TO.P,D18,6,RA*%
X134226000Y-126351142D03*
%TD*%
%TO.P,D10,1,BK*%
%TO.N,Net-(D10-Pad1)*%
X147714000Y-126351142D03*
%TO.P,D10,2,GK*%
%TO.N,Net-(D10-Pad2)*%
X147714000Y-128051142D03*
%TO.P,D10,3,RK*%
%TO.N,Net-(D10-Pad3)*%
X147714000Y-129751142D03*
%TO.P,D10,4,BA*%
%TO.N,Net-(D10-Pad4)*%
X152514000Y-129751142D03*
%TO.P,D10,5,GA*%
%TO.N,Net-(D10-Pad5)*%
X152514000Y-128051142D03*
%TO.P,D10,6,RA*%
%TO.N,Net-(D10-Pad6)*%
X152514000Y-126351142D03*
%TD*%
%TO.P,D9,1,BK*%
%TO.N,Net-(D9-Pad1)*%
X114440000Y-126316000D03*
%TO.P,D9,2,GK*%
%TO.N,Net-(D9-Pad2)*%
X114440000Y-128016000D03*
%TO.P,D9,3,RK*%
%TO.N,Net-(D9-Pad3)*%
X114440000Y-129716000D03*
%TO.P,D9,4,BA*%
%TO.N,Net-(D13-Pad1)*%
X119240000Y-129716000D03*
%TO.P,D9,5,GA*%
%TO.N,Net-(D13-Pad2)*%
X119240000Y-128016000D03*
%TO.P,D9,6,RA*%
%TO.N,Net-(D13-Pad3)*%
X119240000Y-126316000D03*
%TD*%
D14*
%TO.N,TSAL_RED*%
X124994000Y-130556000D03*
X191656000Y-130302000D03*
X158242000Y-141478000D03*
X158242000Y-130302000D03*
X124968000Y-141478000D03*
X191542000Y-141478000D03*
%TO.N,TSAL_GREEN*%
X159943500Y-137922000D03*
X159949070Y-126746000D03*
X156718000Y-133858000D03*
X191542000Y-138938000D03*
X158242000Y-138938000D03*
X156718000Y-122936000D03*
X124988430Y-138938000D03*
X158242000Y-127762000D03*
X191656000Y-127797142D03*
X124994000Y-128016000D03*
%TO.N,TSAL_BLUE*%
X124988430Y-136377570D03*
X160020000Y-123444000D03*
X158242000Y-133350000D03*
X191656000Y-125222000D03*
X158399571Y-125125571D03*
X191650430Y-136398000D03*
X157480000Y-122174000D03*
X158242000Y-136398000D03*
X124994000Y-125476000D03*
X160528000Y-134874000D03*
%TO.N,12V*%
X165245000Y-143401000D03*
X94996000Y-143002000D03*
X131608000Y-143510000D03*
%TD*%
D15*
%TO.N,TSAL_RED*%
X158262430Y-141513142D02*
X156712430Y-139963142D01*
X155993489Y-134158103D02*
X155993489Y-134149489D01*
X156718000Y-128787142D02*
X156718000Y-124206000D01*
X155956000Y-123444000D02*
X156718000Y-124206000D01*
X156712430Y-134888184D02*
X157234614Y-134366000D01*
X126740430Y-135636000D02*
X126740430Y-139705570D01*
X155993489Y-134149489D02*
X155956000Y-134112000D01*
X193040000Y-130302000D02*
X193802000Y-131064000D01*
X158876282Y-134366000D02*
X160029322Y-133212960D01*
X193802000Y-140208000D02*
X192532000Y-141478000D01*
X193040000Y-130302000D02*
X191656000Y-130302000D01*
X160029322Y-133212960D02*
X191632960Y-133212960D01*
X127762000Y-123444000D02*
X155956000Y-123444000D01*
X192532000Y-141478000D02*
X191542000Y-141478000D01*
X126740430Y-139705570D02*
X124968000Y-141478000D01*
X156712430Y-134888184D02*
X156718000Y-134882614D01*
X156718000Y-134882614D02*
X155993489Y-134158103D01*
X124994000Y-130556000D02*
X126746000Y-128804000D01*
X128264430Y-134112000D02*
X126740430Y-135636000D01*
X193802000Y-135382000D02*
X193802000Y-135636000D01*
X156712430Y-139963142D02*
X156712430Y-134888184D01*
X193802000Y-135636000D02*
X193802000Y-140208000D01*
X193802000Y-131064000D02*
X193802000Y-135636000D01*
X155956000Y-134112000D02*
X128264430Y-134112000D01*
X157234614Y-134366000D02*
X158876282Y-134366000D01*
X191632960Y-133212960D02*
X193802000Y-135382000D01*
X126746000Y-124460000D02*
X127762000Y-123444000D01*
X126746000Y-128804000D02*
X126746000Y-124460000D01*
X158268000Y-130337142D02*
X156718000Y-128787142D01*
%TO.N,Net-(D2-Pad3)*%
X190327520Y-140021622D02*
X188582000Y-141767142D01*
X189936480Y-134713622D02*
X190327520Y-135104662D01*
X178702000Y-139481142D02*
X178702000Y-136179142D01*
X180148000Y-140927142D02*
X178702000Y-139481142D01*
X190327520Y-135104662D02*
X190327520Y-140021622D01*
X180167520Y-134713622D02*
X189936480Y-134713622D01*
X178702000Y-136179142D02*
X180167520Y-134713622D01*
%TO.N,TSAL_GREEN*%
X159471288Y-138973142D02*
X158262430Y-138973142D01*
X125724430Y-138938000D02*
X124988430Y-138938000D01*
X159943500Y-138500930D02*
X159471288Y-138973142D01*
X159949070Y-126746000D02*
X159949070Y-127324930D01*
X157734000Y-134874000D02*
X159004000Y-134874000D01*
X126232430Y-138430000D02*
X125724430Y-138938000D01*
X156718000Y-133858000D02*
X156464000Y-133604000D01*
X159943500Y-137922000D02*
X159943500Y-138500930D01*
X157226000Y-137936712D02*
X157226000Y-135382000D01*
X157293480Y-126822622D02*
X157293480Y-124394169D01*
X159949070Y-127324930D02*
X159476858Y-127797142D01*
X126232430Y-135382000D02*
X126232430Y-138430000D01*
X159004000Y-134874000D02*
X160215520Y-133662480D01*
X156464000Y-133604000D02*
X128010430Y-133604000D01*
X192786000Y-138430000D02*
X192278000Y-138938000D01*
X128010430Y-133604000D02*
X126232430Y-135382000D01*
X192750858Y-127797142D02*
X191656000Y-127797142D01*
X192278000Y-138938000D02*
X191542000Y-138938000D01*
X126238000Y-124206000D02*
X126238000Y-127254000D01*
X191320480Y-133662480D02*
X192786000Y-135128000D01*
X157293480Y-124394169D02*
X159513649Y-122174000D01*
X158262430Y-138973142D02*
X157226000Y-137936712D01*
X156718000Y-122936000D02*
X127508000Y-122936000D01*
X127508000Y-122936000D02*
X126238000Y-124206000D01*
X193040000Y-127508000D02*
X192750858Y-127797142D01*
X159476858Y-127797142D02*
X158268000Y-127797142D01*
X126238000Y-127254000D02*
X125476000Y-128016000D01*
X125476000Y-128016000D02*
X124994000Y-128016000D01*
X160215520Y-133662480D02*
X191320480Y-133662480D01*
X191516000Y-122174000D02*
X193040000Y-123698000D01*
X193040000Y-123698000D02*
X193040000Y-127508000D01*
X159513649Y-122174000D02*
X191516000Y-122174000D01*
X158268000Y-127797142D02*
X157293480Y-126822622D01*
X192786000Y-135128000D02*
X192786000Y-138430000D01*
X157226000Y-135382000D02*
X157734000Y-134874000D01*
%TO.N,Net-(D2-Pad2)*%
X179464000Y-136179142D02*
X180480000Y-135163142D01*
X179464000Y-138465142D02*
X179464000Y-136179142D01*
X189116000Y-135163142D02*
X189624000Y-135671142D01*
X189624000Y-135671142D02*
X189624000Y-138185142D01*
X180480000Y-135163142D02*
X189116000Y-135163142D01*
X189624000Y-138185142D02*
X188582000Y-139227142D01*
X180226000Y-139227142D02*
X179464000Y-138465142D01*
%TO.N,TSAL_BLUE*%
X190494430Y-134112000D02*
X191650430Y-135268000D01*
X155084000Y-119778000D02*
X157480000Y-122174000D01*
X161290000Y-134112000D02*
X190494430Y-134112000D01*
X126746000Y-122174000D02*
X124994000Y-123926000D01*
X158262430Y-136433142D02*
X158968858Y-136433142D01*
X191650430Y-135268000D02*
X191650430Y-136398000D01*
X190246000Y-122682000D02*
X191656000Y-124092000D01*
X158242000Y-133350000D02*
X157988000Y-133096000D01*
X191656000Y-124092000D02*
X191656000Y-125222000D01*
X126994430Y-133096000D02*
X124988430Y-135102000D01*
X158399571Y-125125571D02*
X160843142Y-122682000D01*
X158968858Y-136433142D02*
X161290000Y-134112000D01*
X124988430Y-135102000D02*
X124988430Y-136377570D01*
X157988000Y-133096000D02*
X126994430Y-133096000D01*
X124994000Y-123926000D02*
X124994000Y-125476000D01*
X160843142Y-122682000D02*
X190246000Y-122682000D01*
X158268000Y-125257142D02*
X158399571Y-125125571D01*
X149432000Y-119778000D02*
X155084000Y-119778000D01*
X157480000Y-122174000D02*
X126746000Y-122174000D01*
%TO.N,Net-(D2-Pad1)*%
X181128000Y-136547142D02*
X181242000Y-136433142D01*
X181242000Y-136433142D02*
X188328000Y-136433142D01*
X181128000Y-137527142D02*
X181128000Y-136547142D01*
%TO.N,Net-(D9-Pad3)*%
X120650000Y-129540000D02*
X121666000Y-130556000D01*
X120396000Y-125441489D02*
X120650000Y-125695489D01*
X116078000Y-129032000D02*
X116078000Y-126492000D01*
X115394000Y-129716000D02*
X116078000Y-129032000D01*
X120650000Y-125695489D02*
X120650000Y-129540000D01*
X117128511Y-125441489D02*
X120396000Y-125441489D01*
X114440000Y-129716000D02*
X115394000Y-129716000D01*
X121666000Y-130556000D02*
X121894000Y-130556000D01*
X116078000Y-126492000D02*
X117128511Y-125441489D01*
%TO.N,Net-(D9-Pad2)*%
X122936000Y-124460000D02*
X122936000Y-126974000D01*
X122428000Y-123952000D02*
X122936000Y-124460000D01*
X112776000Y-124968000D02*
X113792000Y-123952000D01*
X112776000Y-127254000D02*
X112776000Y-124968000D01*
X113792000Y-123952000D02*
X122428000Y-123952000D01*
X122936000Y-126974000D02*
X121894000Y-128016000D01*
X113538000Y-128016000D02*
X112776000Y-127254000D01*
X114440000Y-128016000D02*
X113538000Y-128016000D01*
%TO.N,Net-(D1-Pad4)*%
X136392430Y-142021142D02*
X137408430Y-143037142D01*
X137408430Y-143037142D02*
X151632430Y-143037142D01*
X136392430Y-138211142D02*
X136392430Y-142021142D01*
X138564430Y-137527142D02*
X137076430Y-137527142D01*
X152508430Y-142161142D02*
X152508430Y-140927142D01*
X137076430Y-137527142D02*
X136392430Y-138211142D01*
X151632430Y-143037142D02*
X152508430Y-142161142D01*
%TO.N,Net-(D1-Pad5)*%
X137154430Y-139227142D02*
X136900430Y-139481142D01*
X138564430Y-139227142D02*
X137154430Y-139227142D01*
X136900430Y-141767142D02*
X137662430Y-142529142D01*
X150616430Y-139735142D02*
X151124430Y-139227142D01*
X151124430Y-139227142D02*
X152508430Y-139227142D01*
X137662430Y-142529142D02*
X149728147Y-142529142D01*
X149728147Y-142529142D02*
X150616430Y-141640859D01*
X150616430Y-141640859D02*
X150616430Y-139735142D01*
X136900430Y-139481142D02*
X136900430Y-141767142D01*
%TO.N,Net-(D1-Pad6)*%
X150792430Y-137527142D02*
X152508430Y-137527142D01*
X149854430Y-141767142D02*
X149854430Y-138465142D01*
X149854430Y-138465142D02*
X150792430Y-137527142D01*
X139658430Y-142021142D02*
X149600430Y-142021142D01*
X149600430Y-142021142D02*
X149854430Y-141767142D01*
X138564430Y-140927142D02*
X139658430Y-142021142D01*
%TO.N,Net-(D13-Pad1)*%
X105296000Y-126316000D02*
X103808000Y-126316000D01*
X119240000Y-130950000D02*
X119240000Y-129716000D01*
X103808000Y-126316000D02*
X103124000Y-127000000D01*
X103124000Y-127000000D02*
X103124000Y-130810000D01*
X118364000Y-131826000D02*
X119240000Y-130950000D01*
X103124000Y-130810000D02*
X104140000Y-131826000D01*
X104140000Y-131826000D02*
X118364000Y-131826000D01*
%TO.N,Net-(D13-Pad2)*%
X103632000Y-130556000D02*
X104394000Y-131318000D01*
X117856000Y-128016000D02*
X119240000Y-128016000D01*
X117348000Y-130429717D02*
X117348000Y-128524000D01*
X116459717Y-131318000D02*
X117348000Y-130429717D01*
X103632000Y-128270000D02*
X103632000Y-130556000D01*
X105296000Y-128016000D02*
X103886000Y-128016000D01*
X104394000Y-131318000D02*
X116459717Y-131318000D01*
X103886000Y-128016000D02*
X103632000Y-128270000D01*
X117348000Y-128524000D02*
X117856000Y-128016000D01*
%TO.N,Net-(D13-Pad3)*%
X106390000Y-130810000D02*
X116332000Y-130810000D01*
X116586000Y-127254000D02*
X117524000Y-126316000D01*
X105296000Y-129716000D02*
X106390000Y-130810000D01*
X117524000Y-126316000D02*
X119240000Y-126316000D01*
X116586000Y-130556000D02*
X116586000Y-127254000D01*
X116332000Y-130810000D02*
X116586000Y-130556000D01*
%TO.N,Net-(D9-Pad1)*%
X115062000Y-124714000D02*
X121132000Y-124714000D01*
X114440000Y-125336000D02*
X115062000Y-124714000D01*
X114440000Y-126316000D02*
X114440000Y-125336000D01*
X121132000Y-124714000D02*
X121894000Y-125476000D01*
%TO.N,12V*%
X100952000Y-131432000D02*
X100952000Y-126316000D01*
X100330000Y-143002000D02*
X100838000Y-143510000D01*
X167754000Y-137492000D02*
X167754000Y-140892000D01*
X134226000Y-137492000D02*
X134226000Y-140892000D01*
X95250000Y-132588000D02*
X93472000Y-134366000D01*
X167614000Y-132588000D02*
X167614000Y-126351142D01*
X102108000Y-132588000D02*
X100952000Y-131432000D01*
X93472000Y-141478000D02*
X94996000Y-143002000D01*
X102362000Y-132588000D02*
X102108000Y-132588000D01*
X135128000Y-132588000D02*
X102362000Y-132588000D01*
X135128000Y-132588000D02*
X167614000Y-132588000D01*
X100330000Y-143002000D02*
X100952000Y-142380000D01*
X131608000Y-143510000D02*
X165136000Y-143510000D01*
X94996000Y-143002000D02*
X100330000Y-143002000D01*
X135128000Y-132588000D02*
X134226000Y-131686000D01*
X165245000Y-143401000D02*
X167754000Y-140892000D01*
X102362000Y-132588000D02*
X95250000Y-132588000D01*
X93472000Y-134366000D02*
X93472000Y-141478000D01*
X100838000Y-143510000D02*
X131608000Y-143510000D01*
X134226000Y-131686000D02*
X134226000Y-126351142D01*
X100952000Y-142380000D02*
X100952000Y-137492000D01*
X131608000Y-143510000D02*
X134226000Y-140892000D01*
X165136000Y-143510000D02*
X165245000Y-143401000D01*
%TO.N,Net-(D1-Pad1)*%
X147734430Y-137527142D02*
X147734430Y-136547142D01*
X154391288Y-135890000D02*
X154934430Y-136433142D01*
X148391572Y-135890000D02*
X154391288Y-135890000D01*
X147734430Y-136547142D02*
X148391572Y-135890000D01*
%TO.N,Net-(D1-Pad2)*%
X156204430Y-135133570D02*
X156204430Y-138211142D01*
X156204430Y-138211142D02*
X155188430Y-139227142D01*
X146832430Y-139227142D02*
X146070430Y-138465142D01*
X155702000Y-134620000D02*
X156210000Y-135128000D01*
X156210000Y-135128000D02*
X156204430Y-135133570D01*
X146070430Y-138465142D02*
X146070430Y-136179142D01*
X146070430Y-136179142D02*
X147629572Y-134620000D01*
X147629572Y-134620000D02*
X155702000Y-134620000D01*
%TO.N,Net-(D1-Pad3)*%
X150870430Y-136398000D02*
X149092430Y-138176000D01*
X148373288Y-140927142D02*
X147708430Y-140927142D01*
X154172430Y-140523142D02*
X154172430Y-136900430D01*
X153670000Y-136398000D02*
X150870430Y-136398000D01*
X155162430Y-141513142D02*
X154172430Y-140523142D01*
X149092430Y-138176000D02*
X149092430Y-140208000D01*
X154172430Y-136900430D02*
X153670000Y-136398000D01*
X149092430Y-140208000D02*
X148373288Y-140927142D01*
%TO.N,Net-(D4-Pad4)*%
X129420430Y-136652000D02*
X129674430Y-136398000D01*
X140710430Y-136624000D02*
X140710430Y-139926000D01*
X140710430Y-139926000D02*
X141648430Y-140864000D01*
X141648430Y-140864000D02*
X143364430Y-140864000D01*
X129674430Y-136398000D02*
X140484430Y-136398000D01*
X140484430Y-136398000D02*
X140710430Y-136624000D01*
X129420430Y-137464000D02*
X129420430Y-136652000D01*
%TO.N,Net-(D4-Pad5)*%
X128970430Y-139164000D02*
X128010430Y-138204000D01*
X128010430Y-136116000D02*
X128236430Y-135890000D01*
X141472430Y-136433141D02*
X141472430Y-138656000D01*
X141980430Y-139164000D02*
X143364430Y-139164000D01*
X128236430Y-135890000D02*
X140929289Y-135890000D01*
X141472430Y-138656000D02*
X141980430Y-139164000D01*
X140929289Y-135890000D02*
X141472430Y-136433141D01*
X128010430Y-138204000D02*
X128010430Y-136116000D01*
%TO.N,Net-(D4-Pad6)*%
X141282430Y-135382000D02*
X143364430Y-137464000D01*
X128858266Y-140864000D02*
X127502430Y-139508164D01*
X127502430Y-135890000D02*
X128010430Y-135382000D01*
X128010430Y-135382000D02*
X141282430Y-135382000D01*
X127502430Y-139508164D02*
X127502430Y-135890000D01*
X129420430Y-140864000D02*
X128858266Y-140864000D01*
%TO.N,Net-(D5-Pad4)*%
X174130000Y-139989142D02*
X175068000Y-140927142D01*
X162840000Y-136293142D02*
X162954000Y-136179142D01*
X162954000Y-136179142D02*
X173622000Y-136179142D01*
X173622000Y-136179142D02*
X174130000Y-136687142D01*
X175068000Y-140927142D02*
X176784000Y-140927142D01*
X162840000Y-137527142D02*
X162840000Y-136293142D01*
X174130000Y-136687142D02*
X174130000Y-139989142D01*
%TO.N,Net-(D5-Pad5)*%
X174892000Y-138719142D02*
X175400000Y-139227142D01*
X175400000Y-139227142D02*
X176784000Y-139227142D01*
X162524858Y-135671142D02*
X174066859Y-135671142D01*
X162390000Y-139227142D02*
X161544000Y-138381142D01*
X174066859Y-135671142D02*
X174892000Y-136496283D01*
X161544000Y-136652000D02*
X162524858Y-135671142D01*
X174892000Y-136496283D02*
X174892000Y-138719142D01*
X161544000Y-138381142D02*
X161544000Y-136652000D01*
%TO.N,Net-(D5-Pad6)*%
X161036000Y-140611142D02*
X161036000Y-136144000D01*
X161352000Y-140927142D02*
X161036000Y-140611142D01*
X162840000Y-140927142D02*
X161352000Y-140927142D01*
X174478480Y-135221622D02*
X176784000Y-137527142D01*
X161036000Y-136144000D02*
X161958378Y-135221622D01*
X161958378Y-135221622D02*
X174478480Y-135221622D01*
%TO.N,Net-(D10-Pad1)*%
X148143142Y-124968000D02*
X154650858Y-124968000D01*
X147740000Y-125371142D02*
X148143142Y-124968000D01*
X147740000Y-126351142D02*
X147740000Y-125371142D01*
X154650858Y-124968000D02*
X154940000Y-125257142D01*
%TO.N,Net-(D10-Pad2)*%
X146076000Y-127289142D02*
X146076000Y-125003142D01*
X156210000Y-127035142D02*
X155194000Y-128051142D01*
X146076000Y-125003142D02*
X147092000Y-123987142D01*
X147092000Y-123987142D02*
X155735493Y-123987142D01*
X155735493Y-123987142D02*
X156210000Y-124461649D01*
X146838000Y-128051142D02*
X146076000Y-127289142D01*
X156210000Y-124461649D02*
X156210000Y-127035142D01*
%TO.N,Net-(D10-Pad3)*%
X154178000Y-129347142D02*
X154178000Y-125816120D01*
X153838511Y-125476631D02*
X150621369Y-125476631D01*
X149098000Y-129032000D02*
X148378858Y-129751142D01*
X150621369Y-125476631D02*
X149098000Y-127000000D01*
X154178000Y-125816120D02*
X153838511Y-125476631D01*
X155168000Y-130337142D02*
X154178000Y-129347142D01*
X149098000Y-127000000D02*
X149098000Y-129032000D01*
X148378858Y-129751142D02*
X147714000Y-129751142D01*
%TO.N,Net-(D11-Pad1)*%
X181133570Y-125371142D02*
X181247570Y-125257142D01*
X181247570Y-125257142D02*
X188333570Y-125257142D01*
X181133570Y-126351142D02*
X181133570Y-125371142D01*
%TO.N,Net-(D11-Pad2)*%
X179469570Y-125003142D02*
X180774712Y-123698000D01*
X180774712Y-123698000D02*
X189230000Y-123698000D01*
X189629570Y-127009142D02*
X188587570Y-128051142D01*
X180231570Y-128051142D02*
X179469570Y-127289142D01*
X179469570Y-127289142D02*
X179469570Y-125003142D01*
X189629570Y-124097570D02*
X189629570Y-127009142D01*
X189230000Y-123698000D02*
X189629570Y-124097570D01*
%TO.N,Net-(D11-Pad3)*%
X190333090Y-123928662D02*
X190333090Y-128845622D01*
X178707570Y-128305142D02*
X178707570Y-125003142D01*
X190333090Y-128845622D02*
X188587570Y-130591142D01*
X178707570Y-125003142D02*
X180520712Y-123190000D01*
X180520712Y-123190000D02*
X189594428Y-123190000D01*
X189594428Y-123190000D02*
X190333090Y-123928662D01*
X180153570Y-129751142D02*
X178707570Y-128305142D01*
%TO.N,Net-(D12-Pad1)*%
X114434430Y-137492000D02*
X114434430Y-136512000D01*
X121126430Y-135890000D02*
X121888430Y-136652000D01*
X114434430Y-136512000D02*
X115056430Y-135890000D01*
X115056430Y-135890000D02*
X121126430Y-135890000D01*
%TO.N,Net-(D12-Pad2)*%
X112770430Y-138430000D02*
X112770430Y-136144000D01*
X114434430Y-139192000D02*
X113532430Y-139192000D01*
X113532430Y-139192000D02*
X112770430Y-138430000D01*
X122930430Y-135128000D02*
X122930430Y-138150000D01*
X113786430Y-135128000D02*
X122930430Y-135128000D01*
X122930430Y-138150000D02*
X121888430Y-139192000D01*
X112770430Y-136144000D02*
X113786430Y-135128000D01*
%TO.N,Net-(D12-Pad3)*%
X120390430Y-136617489D02*
X120644430Y-136871489D01*
X114434430Y-140892000D02*
X115388430Y-140892000D01*
X116072430Y-137668000D02*
X117122941Y-136617489D01*
X120644430Y-136871489D02*
X120644430Y-140716000D01*
X117122941Y-136617489D02*
X120390430Y-136617489D01*
X120644430Y-140716000D02*
X121660430Y-141732000D01*
X116072430Y-140208000D02*
X116072430Y-137668000D01*
X121660430Y-141732000D02*
X121888430Y-141732000D01*
X115388430Y-140892000D02*
X116072430Y-140208000D01*
%TO.N,Net-(D10-Pad4)*%
X137082000Y-126351142D02*
X136398000Y-127035142D01*
X136398000Y-127035142D02*
X136398000Y-130845142D01*
X137414000Y-131861142D02*
X151638000Y-131861142D01*
X138570000Y-126351142D02*
X137082000Y-126351142D01*
X136398000Y-130845142D02*
X137414000Y-131861142D01*
X152514000Y-130985142D02*
X152514000Y-129751142D01*
X151638000Y-131861142D02*
X152514000Y-130985142D01*
%TO.N,Net-(D10-Pad5)*%
X136906000Y-128305142D02*
X136906000Y-130591142D01*
X136906000Y-130591142D02*
X137668000Y-131353142D01*
X138570000Y-128051142D02*
X137160000Y-128051142D01*
X137668000Y-131353142D02*
X149733717Y-131353142D01*
X137160000Y-128051142D02*
X136906000Y-128305142D01*
X150622000Y-130464859D02*
X150622000Y-128559142D01*
X150622000Y-128559142D02*
X151130000Y-128051142D01*
X151130000Y-128051142D02*
X152514000Y-128051142D01*
X149733717Y-131353142D02*
X150622000Y-130464859D01*
%TO.N,Net-(D10-Pad6)*%
X150798000Y-126351142D02*
X152514000Y-126351142D01*
X149860000Y-130591142D02*
X149860000Y-127289142D01*
X139664000Y-130845142D02*
X149606000Y-130845142D01*
X138570000Y-129751142D02*
X139664000Y-130845142D01*
X149606000Y-130845142D02*
X149860000Y-130591142D01*
X149860000Y-127289142D02*
X150798000Y-126351142D01*
%TO.N,Net-(D11-Pad4)*%
X170833570Y-131861142D02*
X185057570Y-131861142D01*
X185933570Y-130985142D02*
X185933570Y-129751142D01*
X169817570Y-130845142D02*
X170833570Y-131861142D01*
X169817570Y-127035142D02*
X169817570Y-130845142D01*
X171989570Y-126351142D02*
X170501570Y-126351142D01*
X185057570Y-131861142D02*
X185933570Y-130985142D01*
X170501570Y-126351142D02*
X169817570Y-127035142D01*
%TO.N,Net-(D11-Pad5)*%
X171087570Y-131353142D02*
X183153287Y-131353142D01*
X184041570Y-128559142D02*
X184549570Y-128051142D01*
X183153287Y-131353142D02*
X184041570Y-130464859D01*
X170325570Y-128305142D02*
X170325570Y-130591142D01*
X170579570Y-128051142D02*
X170325570Y-128305142D01*
X171989570Y-128051142D02*
X170579570Y-128051142D01*
X184041570Y-130464859D02*
X184041570Y-128559142D01*
X184549570Y-128051142D02*
X185933570Y-128051142D01*
X170325570Y-130591142D02*
X171087570Y-131353142D01*
%TO.N,Net-(D11-Pad6)*%
X184217570Y-126351142D02*
X185933570Y-126351142D01*
X171989570Y-129751142D02*
X173083570Y-130845142D01*
X183025570Y-130845142D02*
X183279570Y-130591142D01*
X173083570Y-130845142D02*
X183025570Y-130845142D01*
X183279570Y-127289142D02*
X184217570Y-126351142D01*
X183279570Y-130591142D02*
X183279570Y-127289142D01*
%TO.N,Net-(D12-Pad4)*%
X105290430Y-137492000D02*
X103802430Y-137492000D01*
X119234430Y-142126000D02*
X119234430Y-140892000D01*
X103118430Y-138176000D02*
X103118430Y-141986000D01*
X104134430Y-143002000D02*
X118358430Y-143002000D01*
X118358430Y-143002000D02*
X119234430Y-142126000D01*
X103118430Y-141986000D02*
X104134430Y-143002000D01*
X103802430Y-137492000D02*
X103118430Y-138176000D01*
%TO.N,Net-(D12-Pad5)*%
X117850430Y-139192000D02*
X119234430Y-139192000D01*
X117342430Y-141605717D02*
X117342430Y-139700000D01*
X103626430Y-139446000D02*
X103626430Y-141732000D01*
X103880430Y-139192000D02*
X103626430Y-139446000D01*
X103626430Y-141732000D02*
X104388430Y-142494000D01*
X104388430Y-142494000D02*
X116454147Y-142494000D01*
X105290430Y-139192000D02*
X103880430Y-139192000D01*
X116454147Y-142494000D02*
X117342430Y-141605717D01*
X117342430Y-139700000D02*
X117850430Y-139192000D01*
%TO.N,Net-(D12-Pad6)*%
X116326430Y-141986000D02*
X116580430Y-141732000D01*
X117518430Y-137492000D02*
X119234430Y-137492000D01*
X106384430Y-141986000D02*
X116326430Y-141986000D01*
X116580430Y-138430000D02*
X117518430Y-137492000D01*
X105290430Y-140892000D02*
X106384430Y-141986000D01*
X116580430Y-141732000D02*
X116580430Y-138430000D01*
%TO.N,Net-(D13-Pad4)*%
X107442000Y-128778000D02*
X108380000Y-129716000D01*
X108380000Y-129716000D02*
X110096000Y-129716000D01*
X107442000Y-125476000D02*
X107442000Y-128778000D01*
X106934000Y-124968000D02*
X107442000Y-125476000D01*
X96152000Y-126316000D02*
X96152000Y-125082000D01*
X96266000Y-124968000D02*
X106934000Y-124968000D01*
X96152000Y-125082000D02*
X96266000Y-124968000D01*
%TO.N,Net-(D13-Pad5)*%
X108712000Y-128016000D02*
X110096000Y-128016000D01*
X96152000Y-128016000D02*
X95702000Y-128016000D01*
X108204000Y-127508000D02*
X108712000Y-128016000D01*
X94742000Y-124968000D02*
X95250000Y-124460000D01*
X95250000Y-124460000D02*
X107378859Y-124460000D01*
X95702000Y-128016000D02*
X94742000Y-127056000D01*
X108204000Y-125285141D02*
X108204000Y-127508000D01*
X107378859Y-124460000D02*
X108204000Y-125285141D01*
X94742000Y-127056000D02*
X94742000Y-124968000D01*
%TO.N,Net-(D13-Pad6)*%
X94551142Y-123952000D02*
X108966000Y-123952000D01*
X93980000Y-124523142D02*
X94551142Y-123952000D01*
X94664000Y-129716000D02*
X93980000Y-129032000D01*
X96152000Y-129716000D02*
X94664000Y-129716000D01*
X93980000Y-129032000D02*
X93980000Y-124523142D01*
X110096000Y-125082000D02*
X110096000Y-126316000D01*
X108966000Y-123952000D02*
X110096000Y-125082000D01*
%TO.N,Net-(D14-Pad4)*%
X140716000Y-128750000D02*
X141654000Y-129688000D01*
X129426000Y-126288000D02*
X129426000Y-125476000D01*
X129680000Y-125222000D02*
X140490000Y-125222000D01*
X140490000Y-125222000D02*
X140716000Y-125448000D01*
X140716000Y-125448000D02*
X140716000Y-128750000D01*
X129426000Y-125476000D02*
X129680000Y-125222000D01*
X141654000Y-129688000D02*
X143370000Y-129688000D01*
%TO.N,Net-(D14-Pad5)*%
X141478000Y-127480000D02*
X141986000Y-127988000D01*
X141478000Y-125257141D02*
X141478000Y-127480000D01*
X128016000Y-127028000D02*
X128016000Y-124940000D01*
X141986000Y-127988000D02*
X143370000Y-127988000D01*
X128242000Y-124714000D02*
X140934859Y-124714000D01*
X140934859Y-124714000D02*
X141478000Y-125257141D01*
X128976000Y-127988000D02*
X128016000Y-127028000D01*
X128016000Y-124940000D02*
X128242000Y-124714000D01*
%TO.N,Net-(D14-Pad6)*%
X128863836Y-129688000D02*
X127508000Y-128332164D01*
X129426000Y-129688000D02*
X128863836Y-129688000D01*
X127508000Y-124714000D02*
X128016000Y-124206000D01*
X128016000Y-124206000D02*
X141288000Y-124206000D01*
X141288000Y-124206000D02*
X143370000Y-126288000D01*
X127508000Y-128332164D02*
X127508000Y-124714000D01*
%TO.N,Net-(D15-Pad4)*%
X174135570Y-128813142D02*
X175073570Y-129751142D01*
X173627570Y-125003142D02*
X174135570Y-125511142D01*
X162959570Y-125003142D02*
X173627570Y-125003142D01*
X162845570Y-126351142D02*
X162845570Y-125117142D01*
X175073570Y-129751142D02*
X176789570Y-129751142D01*
X162845570Y-125117142D02*
X162959570Y-125003142D01*
X174135570Y-125511142D02*
X174135570Y-128813142D01*
%TO.N,Net-(D15-Pad5)*%
X161435570Y-127091142D02*
X161435570Y-125003142D01*
X174897570Y-125320283D02*
X174897570Y-127543142D01*
X174897570Y-127543142D02*
X175405570Y-128051142D01*
X175405570Y-128051142D02*
X176789570Y-128051142D01*
X162395570Y-128051142D02*
X161435570Y-127091142D01*
X161943570Y-124495142D02*
X174072429Y-124495142D01*
X174072429Y-124495142D02*
X174897570Y-125320283D01*
X161435570Y-125003142D02*
X161943570Y-124495142D01*
%TO.N,Net-(D15-Pad6)*%
X162845570Y-129751142D02*
X161357570Y-129751142D01*
X176789570Y-125117142D02*
X176789570Y-126351142D01*
X160673570Y-124558284D02*
X161244712Y-123987142D01*
X175659570Y-123987142D02*
X176789570Y-125117142D01*
X160673570Y-129067142D02*
X160673570Y-124558284D01*
X161357570Y-129751142D02*
X160673570Y-129067142D01*
X161244712Y-123987142D02*
X175659570Y-123987142D01*
%TO.N,Net-(D16-Pad4)*%
X96146430Y-136258000D02*
X96260430Y-136144000D01*
X106928430Y-136144000D02*
X107436430Y-136652000D01*
X107436430Y-139954000D02*
X108374430Y-140892000D01*
X96260430Y-136144000D02*
X106928430Y-136144000D01*
X108374430Y-140892000D02*
X110090430Y-140892000D01*
X96146430Y-137492000D02*
X96146430Y-136258000D01*
X107436430Y-136652000D02*
X107436430Y-139954000D01*
%TO.N,Net-(D16-Pad5)*%
X107373289Y-135636000D02*
X108198430Y-136461141D01*
X108198430Y-138684000D02*
X108706430Y-139192000D01*
X94736430Y-138232000D02*
X94736430Y-136144000D01*
X108706430Y-139192000D02*
X110090430Y-139192000D01*
X108198430Y-136461141D02*
X108198430Y-138684000D01*
X95696430Y-139192000D02*
X94736430Y-138232000D01*
X95244430Y-135636000D02*
X107373289Y-135636000D01*
X96146430Y-139192000D02*
X95696430Y-139192000D01*
X94736430Y-136144000D02*
X95244430Y-135636000D01*
%TO.N,Net-(D16-Pad6)*%
X93974430Y-140208000D02*
X93974430Y-135699142D01*
X94545572Y-135128000D02*
X108960430Y-135128000D01*
X110090430Y-136258000D02*
X110090430Y-137492000D01*
X96146430Y-140892000D02*
X94658430Y-140892000D01*
X94658430Y-140892000D02*
X93974430Y-140208000D01*
X108960430Y-135128000D02*
X110090430Y-136258000D01*
X93974430Y-135699142D02*
X94545572Y-135128000D01*
%TO.N,Net-(D2-Pad4)*%
X170496000Y-137527142D02*
X169812000Y-138211142D01*
X169812000Y-142021142D02*
X170828000Y-143037142D01*
X169812000Y-138211142D02*
X169812000Y-142021142D01*
X171984000Y-137527142D02*
X170496000Y-137527142D01*
X170828000Y-143037142D02*
X185052000Y-143037142D01*
X185928000Y-142161142D02*
X185928000Y-140927142D01*
X185052000Y-143037142D02*
X185928000Y-142161142D01*
%TO.N,Net-(D2-Pad5)*%
X170574000Y-139227142D02*
X170320000Y-139481142D01*
X170320000Y-139481142D02*
X170320000Y-141767142D01*
X184036000Y-141640859D02*
X184036000Y-139735142D01*
X171984000Y-139227142D02*
X170574000Y-139227142D01*
X184036000Y-139735142D02*
X184544000Y-139227142D01*
X171082000Y-142529142D02*
X183147717Y-142529142D01*
X183147717Y-142529142D02*
X184036000Y-141640859D01*
X170320000Y-141767142D02*
X171082000Y-142529142D01*
X184544000Y-139227142D02*
X185928000Y-139227142D01*
%TO.N,Net-(D2-Pad6)*%
X171984000Y-140927142D02*
X173078000Y-142021142D01*
X183274000Y-138465142D02*
X184212000Y-137527142D01*
X173078000Y-142021142D02*
X183020000Y-142021142D01*
X183020000Y-142021142D02*
X183274000Y-141767142D01*
X184212000Y-137527142D02*
X185928000Y-137527142D01*
X183274000Y-141767142D02*
X183274000Y-138465142D01*
%TD*%
M02*
