M48
; DRILL file {KiCad (6.0.5)} date Wed Aug  9 01:27:28 2023
; FORMAT={-:-/ absolute / metric / decimal}
; #@! TF.CreationDate,2023-08-09T01:27:28+09:00
; #@! TF.GenerationSoftware,Kicad,Pcbnew,(6.0.5)
; #@! TF.FileFunction,Plated,1,2,PTH
FMAT,2
METRIC
; #@! TA.AperFunction,Plated,PTH,ViaDrill
T1C0.400
; #@! TA.AperFunction,Plated,PTH,ComponentDrill
T2C1.000
%
G90
G05
T1
X94.996Y-143.002
X124.968Y-141.478
X124.988Y-136.378
X124.988Y-138.938
X124.994Y-125.476
X124.994Y-128.016
X124.994Y-130.556
X131.608Y-143.51
X156.718Y-122.936
X156.718Y-133.858
X157.48Y-122.174
X158.242Y-127.762
X158.242Y-130.302
X158.242Y-133.35
X158.242Y-136.398
X158.242Y-138.938
X158.242Y-141.478
X158.4Y-125.126
X159.944Y-137.922
X159.949Y-126.746
X160.02Y-123.444
X160.528Y-134.874
X165.245Y-143.401
X191.542Y-138.938
X191.542Y-141.478
X191.65Y-136.398
X191.656Y-125.222
X191.656Y-127.797
X191.656Y-130.302
T2
X141.812Y-119.778
X144.352Y-119.778
X146.892Y-119.778
X149.432Y-119.778
T0
M30
