%TF.GenerationSoftware,KiCad,Pcbnew,(6.0.5)*%
%TF.CreationDate,2023-08-09T01:27:25+09:00*%
%TF.ProjectId,TSAL,5453414c-2e6b-4696-9361-645f70636258,rev?*%
%TF.SameCoordinates,Original*%
%TF.FileFunction,Legend,Top*%
%TF.FilePolarity,Positive*%
%FSLAX46Y46*%
G04 Gerber Fmt 4.6, Leading zero omitted, Abs format (unit mm)*
G04 Created by KiCad (PCBNEW (6.0.5)) date 2023-08-09 01:27:25*
%MOMM*%
%LPD*%
G01*
G04 APERTURE LIST*
%ADD10C,0.150000*%
%ADD11C,0.120000*%
G04 APERTURE END LIST*
D10*
%TO.C,R13*%
X156075142Y-143750380D02*
X155741809Y-143274190D01*
X155503714Y-143750380D02*
X155503714Y-142750380D01*
X155884666Y-142750380D01*
X155979904Y-142798000D01*
X156027523Y-142845619D01*
X156075142Y-142940857D01*
X156075142Y-143083714D01*
X156027523Y-143178952D01*
X155979904Y-143226571D01*
X155884666Y-143274190D01*
X155503714Y-143274190D01*
X157027523Y-143750380D02*
X156456095Y-143750380D01*
X156741809Y-143750380D02*
X156741809Y-142750380D01*
X156646571Y-142893238D01*
X156551333Y-142988476D01*
X156456095Y-143036095D01*
X157360857Y-142750380D02*
X157979904Y-142750380D01*
X157646571Y-143131333D01*
X157789428Y-143131333D01*
X157884666Y-143178952D01*
X157932285Y-143226571D01*
X157979904Y-143321809D01*
X157979904Y-143559904D01*
X157932285Y-143655142D01*
X157884666Y-143702761D01*
X157789428Y-143750380D01*
X157503714Y-143750380D01*
X157408476Y-143702761D01*
X157360857Y-143655142D01*
%TO.C,R2*%
X123277333Y-130288380D02*
X122944000Y-129812190D01*
X122705904Y-130288380D02*
X122705904Y-129288380D01*
X123086857Y-129288380D01*
X123182095Y-129336000D01*
X123229714Y-129383619D01*
X123277333Y-129478857D01*
X123277333Y-129621714D01*
X123229714Y-129716952D01*
X123182095Y-129764571D01*
X123086857Y-129812190D01*
X122705904Y-129812190D01*
X123658285Y-129383619D02*
X123705904Y-129336000D01*
X123801142Y-129288380D01*
X124039238Y-129288380D01*
X124134476Y-129336000D01*
X124182095Y-129383619D01*
X124229714Y-129478857D01*
X124229714Y-129574095D01*
X124182095Y-129716952D01*
X123610666Y-130288380D01*
X124229714Y-130288380D01*
%TO.C,R8*%
X189939333Y-130069522D02*
X189606000Y-129593332D01*
X189367904Y-130069522D02*
X189367904Y-129069522D01*
X189748857Y-129069522D01*
X189844095Y-129117142D01*
X189891714Y-129164761D01*
X189939333Y-129259999D01*
X189939333Y-129402856D01*
X189891714Y-129498094D01*
X189844095Y-129545713D01*
X189748857Y-129593332D01*
X189367904Y-129593332D01*
X190510761Y-129498094D02*
X190415523Y-129450475D01*
X190367904Y-129402856D01*
X190320285Y-129307618D01*
X190320285Y-129259999D01*
X190367904Y-129164761D01*
X190415523Y-129117142D01*
X190510761Y-129069522D01*
X190701238Y-129069522D01*
X190796476Y-129117142D01*
X190844095Y-129164761D01*
X190891714Y-129259999D01*
X190891714Y-129307618D01*
X190844095Y-129402856D01*
X190796476Y-129450475D01*
X190701238Y-129498094D01*
X190510761Y-129498094D01*
X190415523Y-129545713D01*
X190367904Y-129593332D01*
X190320285Y-129688570D01*
X190320285Y-129879046D01*
X190367904Y-129974284D01*
X190415523Y-130021903D01*
X190510761Y-130069522D01*
X190701238Y-130069522D01*
X190796476Y-130021903D01*
X190844095Y-129974284D01*
X190891714Y-129879046D01*
X190891714Y-129688570D01*
X190844095Y-129593332D01*
X190796476Y-129545713D01*
X190701238Y-129498094D01*
%TO.C,R10*%
X122801142Y-143750380D02*
X122467809Y-143274190D01*
X122229714Y-143750380D02*
X122229714Y-142750380D01*
X122610666Y-142750380D01*
X122705904Y-142798000D01*
X122753523Y-142845619D01*
X122801142Y-142940857D01*
X122801142Y-143083714D01*
X122753523Y-143178952D01*
X122705904Y-143226571D01*
X122610666Y-143274190D01*
X122229714Y-143274190D01*
X123753523Y-143750380D02*
X123182095Y-143750380D01*
X123467809Y-143750380D02*
X123467809Y-142750380D01*
X123372571Y-142893238D01*
X123277333Y-142988476D01*
X123182095Y-143036095D01*
X124372571Y-142750380D02*
X124467809Y-142750380D01*
X124563047Y-142798000D01*
X124610666Y-142845619D01*
X124658285Y-142940857D01*
X124705904Y-143131333D01*
X124705904Y-143369428D01*
X124658285Y-143559904D01*
X124610666Y-143655142D01*
X124563047Y-143702761D01*
X124467809Y-143750380D01*
X124372571Y-143750380D01*
X124277333Y-143702761D01*
X124229714Y-143655142D01*
X124182095Y-143559904D01*
X124134476Y-143369428D01*
X124134476Y-143131333D01*
X124182095Y-142940857D01*
X124229714Y-142845619D01*
X124277333Y-142798000D01*
X124372571Y-142750380D01*
%TO.C,R9*%
X189939333Y-127494380D02*
X189606000Y-127018190D01*
X189367904Y-127494380D02*
X189367904Y-126494380D01*
X189748857Y-126494380D01*
X189844095Y-126542000D01*
X189891714Y-126589619D01*
X189939333Y-126684857D01*
X189939333Y-126827714D01*
X189891714Y-126922952D01*
X189844095Y-126970571D01*
X189748857Y-127018190D01*
X189367904Y-127018190D01*
X190415523Y-127494380D02*
X190606000Y-127494380D01*
X190701238Y-127446761D01*
X190748857Y-127399142D01*
X190844095Y-127256285D01*
X190891714Y-127065809D01*
X190891714Y-126684857D01*
X190844095Y-126589619D01*
X190796476Y-126542000D01*
X190701238Y-126494380D01*
X190510761Y-126494380D01*
X190415523Y-126542000D01*
X190367904Y-126589619D01*
X190320285Y-126684857D01*
X190320285Y-126922952D01*
X190367904Y-127018190D01*
X190415523Y-127065809D01*
X190510761Y-127113428D01*
X190701238Y-127113428D01*
X190796476Y-127065809D01*
X190844095Y-127018190D01*
X190891714Y-126922952D01*
%TO.C,R18*%
X189349142Y-138670380D02*
X189015809Y-138194190D01*
X188777714Y-138670380D02*
X188777714Y-137670380D01*
X189158666Y-137670380D01*
X189253904Y-137718000D01*
X189301523Y-137765619D01*
X189349142Y-137860857D01*
X189349142Y-138003714D01*
X189301523Y-138098952D01*
X189253904Y-138146571D01*
X189158666Y-138194190D01*
X188777714Y-138194190D01*
X190301523Y-138670380D02*
X189730095Y-138670380D01*
X190015809Y-138670380D02*
X190015809Y-137670380D01*
X189920571Y-137813238D01*
X189825333Y-137908476D01*
X189730095Y-137956095D01*
X190872952Y-138098952D02*
X190777714Y-138051333D01*
X190730095Y-138003714D01*
X190682476Y-137908476D01*
X190682476Y-137860857D01*
X190730095Y-137765619D01*
X190777714Y-137718000D01*
X190872952Y-137670380D01*
X191063428Y-137670380D01*
X191158666Y-137718000D01*
X191206285Y-137765619D01*
X191253904Y-137860857D01*
X191253904Y-137908476D01*
X191206285Y-138003714D01*
X191158666Y-138051333D01*
X191063428Y-138098952D01*
X190872952Y-138098952D01*
X190777714Y-138146571D01*
X190730095Y-138194190D01*
X190682476Y-138289428D01*
X190682476Y-138479904D01*
X190730095Y-138575142D01*
X190777714Y-138622761D01*
X190872952Y-138670380D01*
X191063428Y-138670380D01*
X191158666Y-138622761D01*
X191206285Y-138575142D01*
X191253904Y-138479904D01*
X191253904Y-138289428D01*
X191206285Y-138194190D01*
X191158666Y-138146571D01*
X191063428Y-138098952D01*
%TO.C,D20*%
X97337714Y-136144380D02*
X97337714Y-135144380D01*
X97575809Y-135144380D01*
X97718666Y-135192000D01*
X97813904Y-135287238D01*
X97861523Y-135382476D01*
X97909142Y-135572952D01*
X97909142Y-135715809D01*
X97861523Y-135906285D01*
X97813904Y-136001523D01*
X97718666Y-136096761D01*
X97575809Y-136144380D01*
X97337714Y-136144380D01*
X98290095Y-135239619D02*
X98337714Y-135192000D01*
X98432952Y-135144380D01*
X98671047Y-135144380D01*
X98766285Y-135192000D01*
X98813904Y-135239619D01*
X98861523Y-135334857D01*
X98861523Y-135430095D01*
X98813904Y-135572952D01*
X98242476Y-136144380D01*
X98861523Y-136144380D01*
X99480571Y-135144380D02*
X99575809Y-135144380D01*
X99671047Y-135192000D01*
X99718666Y-135239619D01*
X99766285Y-135334857D01*
X99813904Y-135525333D01*
X99813904Y-135763428D01*
X99766285Y-135953904D01*
X99718666Y-136049142D01*
X99671047Y-136096761D01*
X99575809Y-136144380D01*
X99480571Y-136144380D01*
X99385333Y-136096761D01*
X99337714Y-136049142D01*
X99290095Y-135953904D01*
X99242476Y-135763428D01*
X99242476Y-135525333D01*
X99290095Y-135334857D01*
X99337714Y-135239619D01*
X99385333Y-135192000D01*
X99480571Y-135144380D01*
%TO.C,D16*%
X106481714Y-136144380D02*
X106481714Y-135144380D01*
X106719809Y-135144380D01*
X106862666Y-135192000D01*
X106957904Y-135287238D01*
X107005523Y-135382476D01*
X107053142Y-135572952D01*
X107053142Y-135715809D01*
X107005523Y-135906285D01*
X106957904Y-136001523D01*
X106862666Y-136096761D01*
X106719809Y-136144380D01*
X106481714Y-136144380D01*
X108005523Y-136144380D02*
X107434095Y-136144380D01*
X107719809Y-136144380D02*
X107719809Y-135144380D01*
X107624571Y-135287238D01*
X107529333Y-135382476D01*
X107434095Y-135430095D01*
X108862666Y-135144380D02*
X108672190Y-135144380D01*
X108576952Y-135192000D01*
X108529333Y-135239619D01*
X108434095Y-135382476D01*
X108386476Y-135572952D01*
X108386476Y-135953904D01*
X108434095Y-136049142D01*
X108481714Y-136096761D01*
X108576952Y-136144380D01*
X108767428Y-136144380D01*
X108862666Y-136096761D01*
X108910285Y-136049142D01*
X108957904Y-135953904D01*
X108957904Y-135715809D01*
X108910285Y-135620571D01*
X108862666Y-135572952D01*
X108767428Y-135525333D01*
X108576952Y-135525333D01*
X108481714Y-135572952D01*
X108434095Y-135620571D01*
X108386476Y-135715809D01*
%TO.C,D8*%
X164615904Y-136144380D02*
X164615904Y-135144380D01*
X164854000Y-135144380D01*
X164996857Y-135192000D01*
X165092095Y-135287238D01*
X165139714Y-135382476D01*
X165187333Y-135572952D01*
X165187333Y-135715809D01*
X165139714Y-135906285D01*
X165092095Y-136001523D01*
X164996857Y-136096761D01*
X164854000Y-136144380D01*
X164615904Y-136144380D01*
X165758761Y-135572952D02*
X165663523Y-135525333D01*
X165615904Y-135477714D01*
X165568285Y-135382476D01*
X165568285Y-135334857D01*
X165615904Y-135239619D01*
X165663523Y-135192000D01*
X165758761Y-135144380D01*
X165949238Y-135144380D01*
X166044476Y-135192000D01*
X166092095Y-135239619D01*
X166139714Y-135334857D01*
X166139714Y-135382476D01*
X166092095Y-135477714D01*
X166044476Y-135525333D01*
X165949238Y-135572952D01*
X165758761Y-135572952D01*
X165663523Y-135620571D01*
X165615904Y-135668190D01*
X165568285Y-135763428D01*
X165568285Y-135953904D01*
X165615904Y-136049142D01*
X165663523Y-136096761D01*
X165758761Y-136144380D01*
X165949238Y-136144380D01*
X166044476Y-136096761D01*
X166092095Y-136049142D01*
X166139714Y-135953904D01*
X166139714Y-135763428D01*
X166092095Y-135668190D01*
X166044476Y-135620571D01*
X165949238Y-135572952D01*
%TO.C,D7*%
X131087904Y-136144380D02*
X131087904Y-135144380D01*
X131326000Y-135144380D01*
X131468857Y-135192000D01*
X131564095Y-135287238D01*
X131611714Y-135382476D01*
X131659333Y-135572952D01*
X131659333Y-135715809D01*
X131611714Y-135906285D01*
X131564095Y-136001523D01*
X131468857Y-136096761D01*
X131326000Y-136144380D01*
X131087904Y-136144380D01*
X131992666Y-135144380D02*
X132659333Y-135144380D01*
X132230761Y-136144380D01*
%TO.C,R5*%
X156551333Y-130069522D02*
X156218000Y-129593332D01*
X155979904Y-130069522D02*
X155979904Y-129069522D01*
X156360857Y-129069522D01*
X156456095Y-129117142D01*
X156503714Y-129164761D01*
X156551333Y-129259999D01*
X156551333Y-129402856D01*
X156503714Y-129498094D01*
X156456095Y-129545713D01*
X156360857Y-129593332D01*
X155979904Y-129593332D01*
X157456095Y-129069522D02*
X156979904Y-129069522D01*
X156932285Y-129545713D01*
X156979904Y-129498094D01*
X157075142Y-129450475D01*
X157313238Y-129450475D01*
X157408476Y-129498094D01*
X157456095Y-129545713D01*
X157503714Y-129640951D01*
X157503714Y-129879046D01*
X157456095Y-129974284D01*
X157408476Y-130021903D01*
X157313238Y-130069522D01*
X157075142Y-130069522D01*
X156979904Y-130021903D01*
X156932285Y-129974284D01*
%TO.C,R17*%
X189349142Y-141210380D02*
X189015809Y-140734190D01*
X188777714Y-141210380D02*
X188777714Y-140210380D01*
X189158666Y-140210380D01*
X189253904Y-140258000D01*
X189301523Y-140305619D01*
X189349142Y-140400857D01*
X189349142Y-140543714D01*
X189301523Y-140638952D01*
X189253904Y-140686571D01*
X189158666Y-140734190D01*
X188777714Y-140734190D01*
X190301523Y-141210380D02*
X189730095Y-141210380D01*
X190015809Y-141210380D02*
X190015809Y-140210380D01*
X189920571Y-140353238D01*
X189825333Y-140448476D01*
X189730095Y-140496095D01*
X190634857Y-140210380D02*
X191301523Y-140210380D01*
X190872952Y-141210380D01*
%TO.C,D1*%
X149375904Y-136144380D02*
X149375904Y-135144380D01*
X149614000Y-135144380D01*
X149756857Y-135192000D01*
X149852095Y-135287238D01*
X149899714Y-135382476D01*
X149947333Y-135572952D01*
X149947333Y-135715809D01*
X149899714Y-135906285D01*
X149852095Y-136001523D01*
X149756857Y-136096761D01*
X149614000Y-136144380D01*
X149375904Y-136144380D01*
X150899714Y-136144380D02*
X150328285Y-136144380D01*
X150614000Y-136144380D02*
X150614000Y-135144380D01*
X150518761Y-135287238D01*
X150423523Y-135382476D01*
X150328285Y-135430095D01*
%TO.C,R12*%
X122801142Y-138670380D02*
X122467809Y-138194190D01*
X122229714Y-138670380D02*
X122229714Y-137670380D01*
X122610666Y-137670380D01*
X122705904Y-137718000D01*
X122753523Y-137765619D01*
X122801142Y-137860857D01*
X122801142Y-138003714D01*
X122753523Y-138098952D01*
X122705904Y-138146571D01*
X122610666Y-138194190D01*
X122229714Y-138194190D01*
X123753523Y-138670380D02*
X123182095Y-138670380D01*
X123467809Y-138670380D02*
X123467809Y-137670380D01*
X123372571Y-137813238D01*
X123277333Y-137908476D01*
X123182095Y-137956095D01*
X124134476Y-137765619D02*
X124182095Y-137718000D01*
X124277333Y-137670380D01*
X124515428Y-137670380D01*
X124610666Y-137718000D01*
X124658285Y-137765619D01*
X124705904Y-137860857D01*
X124705904Y-137956095D01*
X124658285Y-138098952D01*
X124086857Y-138670380D01*
X124705904Y-138670380D01*
%TO.C,R6*%
X156551333Y-127529522D02*
X156218000Y-127053332D01*
X155979904Y-127529522D02*
X155979904Y-126529522D01*
X156360857Y-126529522D01*
X156456095Y-126577142D01*
X156503714Y-126624761D01*
X156551333Y-126719999D01*
X156551333Y-126862856D01*
X156503714Y-126958094D01*
X156456095Y-127005713D01*
X156360857Y-127053332D01*
X155979904Y-127053332D01*
X157408476Y-126529522D02*
X157218000Y-126529522D01*
X157122761Y-126577142D01*
X157075142Y-126624761D01*
X156979904Y-126767618D01*
X156932285Y-126958094D01*
X156932285Y-127339046D01*
X156979904Y-127434284D01*
X157027523Y-127481903D01*
X157122761Y-127529522D01*
X157313238Y-127529522D01*
X157408476Y-127481903D01*
X157456095Y-127434284D01*
X157503714Y-127339046D01*
X157503714Y-127100951D01*
X157456095Y-127005713D01*
X157408476Y-126958094D01*
X157313238Y-126910475D01*
X157122761Y-126910475D01*
X157027523Y-126958094D01*
X156979904Y-127005713D01*
X156932285Y-127100951D01*
%TO.C,D17*%
X97337714Y-124968380D02*
X97337714Y-123968380D01*
X97575809Y-123968380D01*
X97718666Y-124016000D01*
X97813904Y-124111238D01*
X97861523Y-124206476D01*
X97909142Y-124396952D01*
X97909142Y-124539809D01*
X97861523Y-124730285D01*
X97813904Y-124825523D01*
X97718666Y-124920761D01*
X97575809Y-124968380D01*
X97337714Y-124968380D01*
X98861523Y-124968380D02*
X98290095Y-124968380D01*
X98575809Y-124968380D02*
X98575809Y-123968380D01*
X98480571Y-124111238D01*
X98385333Y-124206476D01*
X98290095Y-124254095D01*
X99194857Y-123968380D02*
X99861523Y-123968380D01*
X99432952Y-124968380D01*
%TO.C,R15*%
X156075142Y-138670380D02*
X155741809Y-138194190D01*
X155503714Y-138670380D02*
X155503714Y-137670380D01*
X155884666Y-137670380D01*
X155979904Y-137718000D01*
X156027523Y-137765619D01*
X156075142Y-137860857D01*
X156075142Y-138003714D01*
X156027523Y-138098952D01*
X155979904Y-138146571D01*
X155884666Y-138194190D01*
X155503714Y-138194190D01*
X157027523Y-138670380D02*
X156456095Y-138670380D01*
X156741809Y-138670380D02*
X156741809Y-137670380D01*
X156646571Y-137813238D01*
X156551333Y-137908476D01*
X156456095Y-137956095D01*
X157932285Y-137670380D02*
X157456095Y-137670380D01*
X157408476Y-138146571D01*
X157456095Y-138098952D01*
X157551333Y-138051333D01*
X157789428Y-138051333D01*
X157884666Y-138098952D01*
X157932285Y-138146571D01*
X157979904Y-138241809D01*
X157979904Y-138479904D01*
X157932285Y-138575142D01*
X157884666Y-138622761D01*
X157789428Y-138670380D01*
X157551333Y-138670380D01*
X157456095Y-138622761D01*
X157408476Y-138575142D01*
%TO.C,R11*%
X122801142Y-141210380D02*
X122467809Y-140734190D01*
X122229714Y-141210380D02*
X122229714Y-140210380D01*
X122610666Y-140210380D01*
X122705904Y-140258000D01*
X122753523Y-140305619D01*
X122801142Y-140400857D01*
X122801142Y-140543714D01*
X122753523Y-140638952D01*
X122705904Y-140686571D01*
X122610666Y-140734190D01*
X122229714Y-140734190D01*
X123753523Y-141210380D02*
X123182095Y-141210380D01*
X123467809Y-141210380D02*
X123467809Y-140210380D01*
X123372571Y-140353238D01*
X123277333Y-140448476D01*
X123182095Y-140496095D01*
X124705904Y-141210380D02*
X124134476Y-141210380D01*
X124420190Y-141210380D02*
X124420190Y-140210380D01*
X124324952Y-140353238D01*
X124229714Y-140448476D01*
X124134476Y-140496095D01*
%TO.C,D13*%
X106481714Y-124968380D02*
X106481714Y-123968380D01*
X106719809Y-123968380D01*
X106862666Y-124016000D01*
X106957904Y-124111238D01*
X107005523Y-124206476D01*
X107053142Y-124396952D01*
X107053142Y-124539809D01*
X107005523Y-124730285D01*
X106957904Y-124825523D01*
X106862666Y-124920761D01*
X106719809Y-124968380D01*
X106481714Y-124968380D01*
X108005523Y-124968380D02*
X107434095Y-124968380D01*
X107719809Y-124968380D02*
X107719809Y-123968380D01*
X107624571Y-124111238D01*
X107529333Y-124206476D01*
X107434095Y-124254095D01*
X108338857Y-123968380D02*
X108957904Y-123968380D01*
X108624571Y-124349333D01*
X108767428Y-124349333D01*
X108862666Y-124396952D01*
X108910285Y-124444571D01*
X108957904Y-124539809D01*
X108957904Y-124777904D01*
X108910285Y-124873142D01*
X108862666Y-124920761D01*
X108767428Y-124968380D01*
X108481714Y-124968380D01*
X108386476Y-124920761D01*
X108338857Y-124873142D01*
%TO.C,R7*%
X189939333Y-132574380D02*
X189606000Y-132098190D01*
X189367904Y-132574380D02*
X189367904Y-131574380D01*
X189748857Y-131574380D01*
X189844095Y-131622000D01*
X189891714Y-131669619D01*
X189939333Y-131764857D01*
X189939333Y-131907714D01*
X189891714Y-132002952D01*
X189844095Y-132050571D01*
X189748857Y-132098190D01*
X189367904Y-132098190D01*
X190272666Y-131574380D02*
X190939333Y-131574380D01*
X190510761Y-132574380D01*
%TO.C,D19*%
X163999714Y-125003522D02*
X163999714Y-124003522D01*
X164237809Y-124003522D01*
X164380666Y-124051142D01*
X164475904Y-124146380D01*
X164523523Y-124241618D01*
X164571142Y-124432094D01*
X164571142Y-124574951D01*
X164523523Y-124765427D01*
X164475904Y-124860665D01*
X164380666Y-124955903D01*
X164237809Y-125003522D01*
X163999714Y-125003522D01*
X165523523Y-125003522D02*
X164952095Y-125003522D01*
X165237809Y-125003522D02*
X165237809Y-124003522D01*
X165142571Y-124146380D01*
X165047333Y-124241618D01*
X164952095Y-124289237D01*
X165999714Y-125003522D02*
X166190190Y-125003522D01*
X166285428Y-124955903D01*
X166333047Y-124908284D01*
X166428285Y-124765427D01*
X166475904Y-124574951D01*
X166475904Y-124193999D01*
X166428285Y-124098761D01*
X166380666Y-124051142D01*
X166285428Y-124003522D01*
X166094952Y-124003522D01*
X165999714Y-124051142D01*
X165952095Y-124098761D01*
X165904476Y-124193999D01*
X165904476Y-124432094D01*
X165952095Y-124527332D01*
X165999714Y-124574951D01*
X166094952Y-124622570D01*
X166285428Y-124622570D01*
X166380666Y-124574951D01*
X166428285Y-124527332D01*
X166475904Y-124432094D01*
%TO.C,J1*%
X138934380Y-120111333D02*
X139648666Y-120111333D01*
X139791523Y-120158952D01*
X139886761Y-120254190D01*
X139934380Y-120397047D01*
X139934380Y-120492285D01*
X139934380Y-119111333D02*
X139934380Y-119682761D01*
X139934380Y-119397047D02*
X138934380Y-119397047D01*
X139077238Y-119492285D01*
X139172476Y-119587523D01*
X139220095Y-119682761D01*
%TO.C,R14*%
X156075142Y-141210380D02*
X155741809Y-140734190D01*
X155503714Y-141210380D02*
X155503714Y-140210380D01*
X155884666Y-140210380D01*
X155979904Y-140258000D01*
X156027523Y-140305619D01*
X156075142Y-140400857D01*
X156075142Y-140543714D01*
X156027523Y-140638952D01*
X155979904Y-140686571D01*
X155884666Y-140734190D01*
X155503714Y-140734190D01*
X157027523Y-141210380D02*
X156456095Y-141210380D01*
X156741809Y-141210380D02*
X156741809Y-140210380D01*
X156646571Y-140353238D01*
X156551333Y-140448476D01*
X156456095Y-140496095D01*
X157884666Y-140543714D02*
X157884666Y-141210380D01*
X157646571Y-140162761D02*
X157408476Y-140877047D01*
X158027523Y-140877047D01*
%TO.C,R4*%
X156551333Y-132609522D02*
X156218000Y-132133332D01*
X155979904Y-132609522D02*
X155979904Y-131609522D01*
X156360857Y-131609522D01*
X156456095Y-131657142D01*
X156503714Y-131704761D01*
X156551333Y-131799999D01*
X156551333Y-131942856D01*
X156503714Y-132038094D01*
X156456095Y-132085713D01*
X156360857Y-132133332D01*
X155979904Y-132133332D01*
X157408476Y-131942856D02*
X157408476Y-132609522D01*
X157170380Y-131561903D02*
X156932285Y-132276189D01*
X157551333Y-132276189D01*
%TO.C,D4*%
X140231904Y-136144380D02*
X140231904Y-135144380D01*
X140470000Y-135144380D01*
X140612857Y-135192000D01*
X140708095Y-135287238D01*
X140755714Y-135382476D01*
X140803333Y-135572952D01*
X140803333Y-135715809D01*
X140755714Y-135906285D01*
X140708095Y-136001523D01*
X140612857Y-136096761D01*
X140470000Y-136144380D01*
X140231904Y-136144380D01*
X141660476Y-135477714D02*
X141660476Y-136144380D01*
X141422380Y-135096761D02*
X141184285Y-135811047D01*
X141803333Y-135811047D01*
%TO.C,D2*%
X182763904Y-136144380D02*
X182763904Y-135144380D01*
X183002000Y-135144380D01*
X183144857Y-135192000D01*
X183240095Y-135287238D01*
X183287714Y-135382476D01*
X183335333Y-135572952D01*
X183335333Y-135715809D01*
X183287714Y-135906285D01*
X183240095Y-136001523D01*
X183144857Y-136096761D01*
X183002000Y-136144380D01*
X182763904Y-136144380D01*
X183716285Y-135239619D02*
X183763904Y-135192000D01*
X183859142Y-135144380D01*
X184097238Y-135144380D01*
X184192476Y-135192000D01*
X184240095Y-135239619D01*
X184287714Y-135334857D01*
X184287714Y-135430095D01*
X184240095Y-135572952D01*
X183668666Y-136144380D01*
X184287714Y-136144380D01*
%TO.C,D14*%
X139755714Y-125003522D02*
X139755714Y-124003522D01*
X139993809Y-124003522D01*
X140136666Y-124051142D01*
X140231904Y-124146380D01*
X140279523Y-124241618D01*
X140327142Y-124432094D01*
X140327142Y-124574951D01*
X140279523Y-124765427D01*
X140231904Y-124860665D01*
X140136666Y-124955903D01*
X139993809Y-125003522D01*
X139755714Y-125003522D01*
X141279523Y-125003522D02*
X140708095Y-125003522D01*
X140993809Y-125003522D02*
X140993809Y-124003522D01*
X140898571Y-124146380D01*
X140803333Y-124241618D01*
X140708095Y-124289237D01*
X142136666Y-124336856D02*
X142136666Y-125003522D01*
X141898571Y-123955903D02*
X141660476Y-124670189D01*
X142279523Y-124670189D01*
%TO.C,D5*%
X173505904Y-136144380D02*
X173505904Y-135144380D01*
X173744000Y-135144380D01*
X173886857Y-135192000D01*
X173982095Y-135287238D01*
X174029714Y-135382476D01*
X174077333Y-135572952D01*
X174077333Y-135715809D01*
X174029714Y-135906285D01*
X173982095Y-136001523D01*
X173886857Y-136096761D01*
X173744000Y-136144380D01*
X173505904Y-136144380D01*
X174982095Y-135144380D02*
X174505904Y-135144380D01*
X174458285Y-135620571D01*
X174505904Y-135572952D01*
X174601142Y-135525333D01*
X174839238Y-135525333D01*
X174934476Y-135572952D01*
X174982095Y-135620571D01*
X175029714Y-135715809D01*
X175029714Y-135953904D01*
X174982095Y-136049142D01*
X174934476Y-136096761D01*
X174839238Y-136144380D01*
X174601142Y-136144380D01*
X174505904Y-136096761D01*
X174458285Y-136049142D01*
%TO.C,R16*%
X189349142Y-143750380D02*
X189015809Y-143274190D01*
X188777714Y-143750380D02*
X188777714Y-142750380D01*
X189158666Y-142750380D01*
X189253904Y-142798000D01*
X189301523Y-142845619D01*
X189349142Y-142940857D01*
X189349142Y-143083714D01*
X189301523Y-143178952D01*
X189253904Y-143226571D01*
X189158666Y-143274190D01*
X188777714Y-143274190D01*
X190301523Y-143750380D02*
X189730095Y-143750380D01*
X190015809Y-143750380D02*
X190015809Y-142750380D01*
X189920571Y-142893238D01*
X189825333Y-142988476D01*
X189730095Y-143036095D01*
X191158666Y-142750380D02*
X190968190Y-142750380D01*
X190872952Y-142798000D01*
X190825333Y-142845619D01*
X190730095Y-142988476D01*
X190682476Y-143178952D01*
X190682476Y-143559904D01*
X190730095Y-143655142D01*
X190777714Y-143702761D01*
X190872952Y-143750380D01*
X191063428Y-143750380D01*
X191158666Y-143702761D01*
X191206285Y-143655142D01*
X191253904Y-143559904D01*
X191253904Y-143321809D01*
X191206285Y-143226571D01*
X191158666Y-143178952D01*
X191063428Y-143131333D01*
X190872952Y-143131333D01*
X190777714Y-143178952D01*
X190730095Y-143226571D01*
X190682476Y-143321809D01*
%TO.C,D11*%
X182287714Y-125003522D02*
X182287714Y-124003522D01*
X182525809Y-124003522D01*
X182668666Y-124051142D01*
X182763904Y-124146380D01*
X182811523Y-124241618D01*
X182859142Y-124432094D01*
X182859142Y-124574951D01*
X182811523Y-124765427D01*
X182763904Y-124860665D01*
X182668666Y-124955903D01*
X182525809Y-125003522D01*
X182287714Y-125003522D01*
X183811523Y-125003522D02*
X183240095Y-125003522D01*
X183525809Y-125003522D02*
X183525809Y-124003522D01*
X183430571Y-124146380D01*
X183335333Y-124241618D01*
X183240095Y-124289237D01*
X184763904Y-125003522D02*
X184192476Y-125003522D01*
X184478190Y-125003522D02*
X184478190Y-124003522D01*
X184382952Y-124146380D01*
X184287714Y-124241618D01*
X184192476Y-124289237D01*
%TO.C,R1*%
X156551333Y-122957522D02*
X156218000Y-122481332D01*
X155979904Y-122957522D02*
X155979904Y-121957522D01*
X156360857Y-121957522D01*
X156456095Y-122005142D01*
X156503714Y-122052761D01*
X156551333Y-122147999D01*
X156551333Y-122290856D01*
X156503714Y-122386094D01*
X156456095Y-122433713D01*
X156360857Y-122481332D01*
X155979904Y-122481332D01*
X157503714Y-122957522D02*
X156932285Y-122957522D01*
X157218000Y-122957522D02*
X157218000Y-121957522D01*
X157122761Y-122100380D01*
X157027523Y-122195618D01*
X156932285Y-122243237D01*
%TO.C,D15*%
X173143714Y-125003522D02*
X173143714Y-124003522D01*
X173381809Y-124003522D01*
X173524666Y-124051142D01*
X173619904Y-124146380D01*
X173667523Y-124241618D01*
X173715142Y-124432094D01*
X173715142Y-124574951D01*
X173667523Y-124765427D01*
X173619904Y-124860665D01*
X173524666Y-124955903D01*
X173381809Y-125003522D01*
X173143714Y-125003522D01*
X174667523Y-125003522D02*
X174096095Y-125003522D01*
X174381809Y-125003522D02*
X174381809Y-124003522D01*
X174286571Y-124146380D01*
X174191333Y-124241618D01*
X174096095Y-124289237D01*
X175572285Y-124003522D02*
X175096095Y-124003522D01*
X175048476Y-124479713D01*
X175096095Y-124432094D01*
X175191333Y-124384475D01*
X175429428Y-124384475D01*
X175524666Y-124432094D01*
X175572285Y-124479713D01*
X175619904Y-124574951D01*
X175619904Y-124813046D01*
X175572285Y-124908284D01*
X175524666Y-124955903D01*
X175429428Y-125003522D01*
X175191333Y-125003522D01*
X175096095Y-124955903D01*
X175048476Y-124908284D01*
%TO.C,D12*%
X115625714Y-136144380D02*
X115625714Y-135144380D01*
X115863809Y-135144380D01*
X116006666Y-135192000D01*
X116101904Y-135287238D01*
X116149523Y-135382476D01*
X116197142Y-135572952D01*
X116197142Y-135715809D01*
X116149523Y-135906285D01*
X116101904Y-136001523D01*
X116006666Y-136096761D01*
X115863809Y-136144380D01*
X115625714Y-136144380D01*
X117149523Y-136144380D02*
X116578095Y-136144380D01*
X116863809Y-136144380D02*
X116863809Y-135144380D01*
X116768571Y-135287238D01*
X116673333Y-135382476D01*
X116578095Y-135430095D01*
X117530476Y-135239619D02*
X117578095Y-135192000D01*
X117673333Y-135144380D01*
X117911428Y-135144380D01*
X118006666Y-135192000D01*
X118054285Y-135239619D01*
X118101904Y-135334857D01*
X118101904Y-135430095D01*
X118054285Y-135572952D01*
X117482857Y-136144380D01*
X118101904Y-136144380D01*
%TO.C,R3*%
X123277333Y-127748380D02*
X122944000Y-127272190D01*
X122705904Y-127748380D02*
X122705904Y-126748380D01*
X123086857Y-126748380D01*
X123182095Y-126796000D01*
X123229714Y-126843619D01*
X123277333Y-126938857D01*
X123277333Y-127081714D01*
X123229714Y-127176952D01*
X123182095Y-127224571D01*
X123086857Y-127272190D01*
X122705904Y-127272190D01*
X123610666Y-126748380D02*
X124229714Y-126748380D01*
X123896380Y-127129333D01*
X124039238Y-127129333D01*
X124134476Y-127176952D01*
X124182095Y-127224571D01*
X124229714Y-127319809D01*
X124229714Y-127557904D01*
X124182095Y-127653142D01*
X124134476Y-127700761D01*
X124039238Y-127748380D01*
X123753523Y-127748380D01*
X123658285Y-127700761D01*
X123610666Y-127653142D01*
%TO.C,D18*%
X130611714Y-125003522D02*
X130611714Y-124003522D01*
X130849809Y-124003522D01*
X130992666Y-124051142D01*
X131087904Y-124146380D01*
X131135523Y-124241618D01*
X131183142Y-124432094D01*
X131183142Y-124574951D01*
X131135523Y-124765427D01*
X131087904Y-124860665D01*
X130992666Y-124955903D01*
X130849809Y-125003522D01*
X130611714Y-125003522D01*
X132135523Y-125003522D02*
X131564095Y-125003522D01*
X131849809Y-125003522D02*
X131849809Y-124003522D01*
X131754571Y-124146380D01*
X131659333Y-124241618D01*
X131564095Y-124289237D01*
X132706952Y-124432094D02*
X132611714Y-124384475D01*
X132564095Y-124336856D01*
X132516476Y-124241618D01*
X132516476Y-124193999D01*
X132564095Y-124098761D01*
X132611714Y-124051142D01*
X132706952Y-124003522D01*
X132897428Y-124003522D01*
X132992666Y-124051142D01*
X133040285Y-124098761D01*
X133087904Y-124193999D01*
X133087904Y-124241618D01*
X133040285Y-124336856D01*
X132992666Y-124384475D01*
X132897428Y-124432094D01*
X132706952Y-124432094D01*
X132611714Y-124479713D01*
X132564095Y-124527332D01*
X132516476Y-124622570D01*
X132516476Y-124813046D01*
X132564095Y-124908284D01*
X132611714Y-124955903D01*
X132706952Y-125003522D01*
X132897428Y-125003522D01*
X132992666Y-124955903D01*
X133040285Y-124908284D01*
X133087904Y-124813046D01*
X133087904Y-124622570D01*
X133040285Y-124527332D01*
X132992666Y-124479713D01*
X132897428Y-124432094D01*
%TO.C,D10*%
X148899714Y-125003522D02*
X148899714Y-124003522D01*
X149137809Y-124003522D01*
X149280666Y-124051142D01*
X149375904Y-124146380D01*
X149423523Y-124241618D01*
X149471142Y-124432094D01*
X149471142Y-124574951D01*
X149423523Y-124765427D01*
X149375904Y-124860665D01*
X149280666Y-124955903D01*
X149137809Y-125003522D01*
X148899714Y-125003522D01*
X150423523Y-125003522D02*
X149852095Y-125003522D01*
X150137809Y-125003522D02*
X150137809Y-124003522D01*
X150042571Y-124146380D01*
X149947333Y-124241618D01*
X149852095Y-124289237D01*
X151042571Y-124003522D02*
X151137809Y-124003522D01*
X151233047Y-124051142D01*
X151280666Y-124098761D01*
X151328285Y-124193999D01*
X151375904Y-124384475D01*
X151375904Y-124622570D01*
X151328285Y-124813046D01*
X151280666Y-124908284D01*
X151233047Y-124955903D01*
X151137809Y-125003522D01*
X151042571Y-125003522D01*
X150947333Y-124955903D01*
X150899714Y-124908284D01*
X150852095Y-124813046D01*
X150804476Y-124622570D01*
X150804476Y-124384475D01*
X150852095Y-124193999D01*
X150899714Y-124098761D01*
X150947333Y-124051142D01*
X151042571Y-124003522D01*
%TO.C,D9*%
X116101904Y-124968380D02*
X116101904Y-123968380D01*
X116340000Y-123968380D01*
X116482857Y-124016000D01*
X116578095Y-124111238D01*
X116625714Y-124206476D01*
X116673333Y-124396952D01*
X116673333Y-124539809D01*
X116625714Y-124730285D01*
X116578095Y-124825523D01*
X116482857Y-124920761D01*
X116340000Y-124968380D01*
X116101904Y-124968380D01*
X117149523Y-124968380D02*
X117340000Y-124968380D01*
X117435238Y-124920761D01*
X117482857Y-124873142D01*
X117578095Y-124730285D01*
X117625714Y-124539809D01*
X117625714Y-124158857D01*
X117578095Y-124063619D01*
X117530476Y-124016000D01*
X117435238Y-123968380D01*
X117244761Y-123968380D01*
X117149523Y-124016000D01*
X117101904Y-124063619D01*
X117054285Y-124158857D01*
X117054285Y-124396952D01*
X117101904Y-124492190D01*
X117149523Y-124539809D01*
X117244761Y-124587428D01*
X117435238Y-124587428D01*
X117530476Y-124539809D01*
X117578095Y-124492190D01*
X117625714Y-124396952D01*
D11*
%TO.C,R13*%
X157445064Y-142388000D02*
X155990936Y-142388000D01*
X157445064Y-140568000D02*
X155990936Y-140568000D01*
%TO.C,R2*%
X124171064Y-127106000D02*
X122716936Y-127106000D01*
X124171064Y-128926000D02*
X122716936Y-128926000D01*
%TO.C,R8*%
X190833064Y-128707142D02*
X189378936Y-128707142D01*
X190833064Y-126887142D02*
X189378936Y-126887142D01*
%TO.C,R10*%
X124171064Y-142388000D02*
X122716936Y-142388000D01*
X124171064Y-140568000D02*
X122716936Y-140568000D01*
%TO.C,R9*%
X190833064Y-126132000D02*
X189378936Y-126132000D01*
X190833064Y-124312000D02*
X189378936Y-124312000D01*
%TO.C,R18*%
X190719064Y-135488000D02*
X189264936Y-135488000D01*
X190719064Y-137308000D02*
X189264936Y-137308000D01*
%TO.C,D20*%
X101052000Y-141892000D02*
X96052000Y-141892000D01*
X94952000Y-136492000D02*
X101052000Y-136492000D01*
X94952000Y-137592000D02*
X94952000Y-136492000D01*
%TO.C,D16*%
X104096000Y-137592000D02*
X104096000Y-136492000D01*
X110196000Y-141892000D02*
X105196000Y-141892000D01*
X104096000Y-136492000D02*
X110196000Y-136492000D01*
%TO.C,D8*%
X167854000Y-141892000D02*
X162854000Y-141892000D01*
X161754000Y-136492000D02*
X167854000Y-136492000D01*
X161754000Y-137592000D02*
X161754000Y-136492000D01*
%TO.C,D7*%
X128226000Y-137592000D02*
X128226000Y-136492000D01*
X134326000Y-141892000D02*
X129326000Y-141892000D01*
X128226000Y-136492000D02*
X134326000Y-136492000D01*
%TO.C,R5*%
X157445064Y-128707142D02*
X155990936Y-128707142D01*
X157445064Y-126887142D02*
X155990936Y-126887142D01*
%TO.C,R17*%
X190719064Y-139848000D02*
X189264936Y-139848000D01*
X190719064Y-138028000D02*
X189264936Y-138028000D01*
%TO.C,D1*%
X146514000Y-137592000D02*
X146514000Y-136492000D01*
X146514000Y-136492000D02*
X152614000Y-136492000D01*
X152614000Y-141892000D02*
X147614000Y-141892000D01*
%TO.C,R12*%
X124171064Y-135488000D02*
X122716936Y-135488000D01*
X124171064Y-137308000D02*
X122716936Y-137308000D01*
%TO.C,R6*%
X157445064Y-124347142D02*
X155990936Y-124347142D01*
X157445064Y-126167142D02*
X155990936Y-126167142D01*
%TO.C,D17*%
X94952000Y-125316000D02*
X101052000Y-125316000D01*
X94952000Y-126416000D02*
X94952000Y-125316000D01*
X101052000Y-130716000D02*
X96052000Y-130716000D01*
%TO.C,R15*%
X157445064Y-137308000D02*
X155990936Y-137308000D01*
X157445064Y-135488000D02*
X155990936Y-135488000D01*
%TO.C,R11*%
X124171064Y-139848000D02*
X122716936Y-139848000D01*
X124171064Y-138028000D02*
X122716936Y-138028000D01*
%TO.C,D13*%
X104096000Y-125316000D02*
X110196000Y-125316000D01*
X110196000Y-130716000D02*
X105196000Y-130716000D01*
X104096000Y-126416000D02*
X104096000Y-125316000D01*
%TO.C,R7*%
X190833064Y-129392000D02*
X189378936Y-129392000D01*
X190833064Y-131212000D02*
X189378936Y-131212000D01*
%TO.C,D19*%
X167714000Y-130751142D02*
X162714000Y-130751142D01*
X161614000Y-126451142D02*
X161614000Y-125351142D01*
X161614000Y-125351142D02*
X167714000Y-125351142D01*
%TO.C,J1*%
X141812000Y-121108000D02*
X140482000Y-121108000D01*
X143082000Y-121108000D02*
X150762000Y-121108000D01*
X143082000Y-121108000D02*
X143082000Y-118448000D01*
X140482000Y-121108000D02*
X140482000Y-119778000D01*
X150762000Y-121108000D02*
X150762000Y-118448000D01*
X143082000Y-118448000D02*
X150762000Y-118448000D01*
%TO.C,R14*%
X157445064Y-139848000D02*
X155990936Y-139848000D01*
X157445064Y-138028000D02*
X155990936Y-138028000D01*
%TO.C,R4*%
X157445064Y-131247142D02*
X155990936Y-131247142D01*
X157445064Y-129427142D02*
X155990936Y-129427142D01*
%TO.C,D4*%
X143470000Y-141892000D02*
X138470000Y-141892000D01*
X137370000Y-137592000D02*
X137370000Y-136492000D01*
X137370000Y-136492000D02*
X143470000Y-136492000D01*
%TO.C,D2*%
X179902000Y-136492000D02*
X186002000Y-136492000D01*
X179902000Y-137592000D02*
X179902000Y-136492000D01*
X186002000Y-141892000D02*
X181002000Y-141892000D01*
%TO.C,D14*%
X137370000Y-126451142D02*
X137370000Y-125351142D01*
X137370000Y-125351142D02*
X143470000Y-125351142D01*
X143470000Y-130751142D02*
X138470000Y-130751142D01*
%TO.C,D5*%
X176744000Y-141892000D02*
X171744000Y-141892000D01*
X170644000Y-136492000D02*
X176744000Y-136492000D01*
X170644000Y-137592000D02*
X170644000Y-136492000D01*
%TO.C,R16*%
X190719064Y-142388000D02*
X189264936Y-142388000D01*
X190719064Y-140568000D02*
X189264936Y-140568000D01*
%TO.C,D11*%
X179902000Y-126451142D02*
X179902000Y-125351142D01*
X179902000Y-125351142D02*
X186002000Y-125351142D01*
X186002000Y-130751142D02*
X181002000Y-130751142D01*
%TO.C,R1*%
X124171064Y-131466000D02*
X122716936Y-131466000D01*
X124171064Y-129646000D02*
X122716936Y-129646000D01*
%TO.C,D15*%
X176858000Y-130751142D02*
X171858000Y-130751142D01*
X170758000Y-126451142D02*
X170758000Y-125351142D01*
X170758000Y-125351142D02*
X176858000Y-125351142D01*
%TO.C,D12*%
X119340000Y-141892000D02*
X114340000Y-141892000D01*
X113240000Y-137592000D02*
X113240000Y-136492000D01*
X113240000Y-136492000D02*
X119340000Y-136492000D01*
%TO.C,R3*%
X124171064Y-124566000D02*
X122716936Y-124566000D01*
X124171064Y-126386000D02*
X122716936Y-126386000D01*
%TO.C,D18*%
X128226000Y-126451142D02*
X128226000Y-125351142D01*
X134326000Y-130751142D02*
X129326000Y-130751142D01*
X128226000Y-125351142D02*
X134326000Y-125351142D01*
%TO.C,D10*%
X146514000Y-125351142D02*
X152614000Y-125351142D01*
X152614000Y-130751142D02*
X147614000Y-130751142D01*
X146514000Y-126451142D02*
X146514000Y-125351142D01*
%TO.C,D9*%
X113240000Y-126416000D02*
X113240000Y-125316000D01*
X113240000Y-125316000D02*
X119340000Y-125316000D01*
X119340000Y-130716000D02*
X114340000Y-130716000D01*
%TD*%
M02*
