%TF.GenerationSoftware,KiCad,Pcbnew,(6.0.5)*%
%TF.CreationDate,2023-08-09T01:27:25+09:00*%
%TF.ProjectId,TSAL,5453414c-2e6b-4696-9361-645f70636258,rev?*%
%TF.SameCoordinates,Original*%
%TF.FileFunction,Paste,Bot*%
%TF.FilePolarity,Positive*%
%FSLAX46Y46*%
G04 Gerber Fmt 4.6, Leading zero omitted, Abs format (unit mm)*
G04 Created by KiCad (PCBNEW (6.0.5)) date 2023-08-09 01:27:25*
%MOMM*%
%LPD*%
G01*
G04 APERTURE LIST*
G04 Aperture macros list*
%AMRoundRect*
0 Rectangle with rounded corners*
0 $1 Rounding radius*
0 $2 $3 $4 $5 $6 $7 $8 $9 X,Y pos of 4 corners*
0 Add a 4 corners polygon primitive as box body*
4,1,4,$2,$3,$4,$5,$6,$7,$8,$9,$2,$3,0*
0 Add four circle primitives for the rounded corners*
1,1,$1+$1,$2,$3*
1,1,$1+$1,$4,$5*
1,1,$1+$1,$6,$7*
1,1,$1+$1,$8,$9*
0 Add four rect primitives between the rounded corners*
20,1,$1+$1,$2,$3,$4,$5,0*
20,1,$1+$1,$4,$5,$6,$7,0*
20,1,$1+$1,$6,$7,$8,$9,0*
20,1,$1+$1,$8,$9,$2,$3,0*%
G04 Aperture macros list end*
%ADD10RoundRect,0.250000X0.400000X0.625000X-0.400000X0.625000X-0.400000X-0.625000X0.400000X-0.625000X0*%
%ADD11R,2.000000X1.100000*%
G04 APERTURE END LIST*
D10*
%TO.C,R37*%
X158262000Y-141488000D03*
X155162000Y-141488000D03*
%TD*%
D11*
%TO.C,D32*%
X176752000Y-126358000D03*
X176752000Y-128058000D03*
X176752000Y-129758000D03*
X171952000Y-129758000D03*
X171952000Y-128058000D03*
X171952000Y-126358000D03*
%TD*%
%TO.C,D39*%
X167614000Y-126339600D03*
X167614000Y-128039600D03*
X167614000Y-129739600D03*
X162814000Y-129739600D03*
X162814000Y-128039600D03*
X162814000Y-126339600D03*
%TD*%
D10*
%TO.C,R36*%
X124992000Y-136388000D03*
X121892000Y-136388000D03*
%TD*%
D11*
%TO.C,D23*%
X152513000Y-126351000D03*
X152513000Y-128051000D03*
X152513000Y-129751000D03*
X147713000Y-129751000D03*
X147713000Y-128051000D03*
X147713000Y-126351000D03*
%TD*%
D10*
%TO.C,R35*%
X124992000Y-138938000D03*
X121892000Y-138938000D03*
%TD*%
D11*
%TO.C,D24*%
X185890000Y-137488000D03*
X185890000Y-139188000D03*
X185890000Y-140888000D03*
X181090000Y-140888000D03*
X181090000Y-139188000D03*
X181090000Y-137488000D03*
%TD*%
%TO.C,D25*%
X185892000Y-126358000D03*
X185892000Y-128058000D03*
X185892000Y-129758000D03*
X181092000Y-129758000D03*
X181092000Y-128058000D03*
X181092000Y-126358000D03*
%TD*%
D10*
%TO.C,R38*%
X158272000Y-138938000D03*
X155172000Y-138938000D03*
%TD*%
D11*
%TO.C,D38*%
X167752000Y-137488000D03*
X167752000Y-139188000D03*
X167752000Y-140888000D03*
X162952000Y-140888000D03*
X162952000Y-139188000D03*
X162952000Y-137488000D03*
%TD*%
%TO.C,D31*%
X176642000Y-137488000D03*
X176642000Y-139188000D03*
X176642000Y-140888000D03*
X171842000Y-140888000D03*
X171842000Y-139188000D03*
X171842000Y-137488000D03*
%TD*%
D10*
%TO.C,R32*%
X191652000Y-127798000D03*
X188552000Y-127798000D03*
%TD*%
D11*
%TO.C,D29*%
X110102000Y-126318000D03*
X110102000Y-128018000D03*
X110102000Y-129718000D03*
X105302000Y-129718000D03*
X105302000Y-128018000D03*
X105302000Y-126318000D03*
%TD*%
%TO.C,D41*%
X134232000Y-137488000D03*
X134232000Y-139188000D03*
X134232000Y-140888000D03*
X129432000Y-140888000D03*
X129432000Y-139188000D03*
X129432000Y-137488000D03*
%TD*%
D10*
%TO.C,R39*%
X158262000Y-136398000D03*
X155162000Y-136398000D03*
%TD*%
%TO.C,R31*%
X191652000Y-130308000D03*
X188552000Y-130308000D03*
%TD*%
%TO.C,R27*%
X158268600Y-125247400D03*
X155168600Y-125247400D03*
%TD*%
D11*
%TO.C,D26*%
X119232000Y-137498000D03*
X119232000Y-139198000D03*
X119232000Y-140898000D03*
X114432000Y-140898000D03*
X114432000Y-139198000D03*
X114432000Y-137498000D03*
%TD*%
%TO.C,D36*%
X100962000Y-126316000D03*
X100962000Y-128016000D03*
X100962000Y-129716000D03*
X96162000Y-129716000D03*
X96162000Y-128016000D03*
X96162000Y-126316000D03*
%TD*%
D10*
%TO.C,R25*%
X158268600Y-130327400D03*
X155168600Y-130327400D03*
%TD*%
D11*
%TO.C,D37*%
X134232000Y-126358000D03*
X134232000Y-128058000D03*
X134232000Y-129758000D03*
X129432000Y-129758000D03*
X129432000Y-128058000D03*
X129432000Y-126358000D03*
%TD*%
D10*
%TO.C,R34*%
X124992000Y-141488000D03*
X121892000Y-141488000D03*
%TD*%
D11*
%TO.C,D30*%
X143362000Y-126348000D03*
X143362000Y-128048000D03*
X143362000Y-129748000D03*
X138562000Y-129748000D03*
X138562000Y-128048000D03*
X138562000Y-126348000D03*
%TD*%
%TO.C,D40*%
X100952000Y-137488000D03*
X100952000Y-139188000D03*
X100952000Y-140888000D03*
X96152000Y-140888000D03*
X96152000Y-139188000D03*
X96152000Y-137488000D03*
%TD*%
%TO.C,D33*%
X110092000Y-137498000D03*
X110092000Y-139198000D03*
X110092000Y-140898000D03*
X105292000Y-140898000D03*
X105292000Y-139198000D03*
X105292000Y-137498000D03*
%TD*%
%TO.C,D22*%
X119242000Y-126316000D03*
X119242000Y-128016000D03*
X119242000Y-129716000D03*
X114442000Y-129716000D03*
X114442000Y-128016000D03*
X114442000Y-126316000D03*
%TD*%
%TO.C,D34*%
X143362000Y-137488000D03*
X143362000Y-139188000D03*
X143362000Y-140888000D03*
X138562000Y-140888000D03*
X138562000Y-139188000D03*
X138562000Y-137488000D03*
%TD*%
D10*
%TO.C,R24*%
X124994000Y-125476000D03*
X121894000Y-125476000D03*
%TD*%
%TO.C,R28*%
X191540000Y-141478000D03*
X188440000Y-141478000D03*
%TD*%
%TO.C,R23*%
X124994000Y-128016000D03*
X121894000Y-128016000D03*
%TD*%
%TO.C,R30*%
X191540000Y-136398000D03*
X188440000Y-136398000D03*
%TD*%
%TO.C,R29*%
X191540000Y-138938000D03*
X188440000Y-138938000D03*
%TD*%
%TO.C,R22*%
X124994000Y-130556000D03*
X121894000Y-130556000D03*
%TD*%
D11*
%TO.C,D27*%
X152502000Y-137498000D03*
X152502000Y-139198000D03*
X152502000Y-140898000D03*
X147702000Y-140898000D03*
X147702000Y-139198000D03*
X147702000Y-137498000D03*
%TD*%
D10*
%TO.C,R33*%
X191652000Y-125218000D03*
X188552000Y-125218000D03*
%TD*%
%TO.C,R26*%
X158268600Y-127787400D03*
X155168600Y-127787400D03*
%TD*%
M02*
