%TF.GenerationSoftware,KiCad,Pcbnew,(6.0.5)*%
%TF.CreationDate,2023-08-09T01:27:26+09:00*%
%TF.ProjectId,TSAL,5453414c-2e6b-4696-9361-645f70636258,rev?*%
%TF.SameCoordinates,Original*%
%TF.FileFunction,Soldermask,Top*%
%TF.FilePolarity,Negative*%
%FSLAX46Y46*%
G04 Gerber Fmt 4.6, Leading zero omitted, Abs format (unit mm)*
G04 Created by KiCad (PCBNEW (6.0.5)) date 2023-08-09 01:27:26*
%MOMM*%
%LPD*%
G01*
G04 APERTURE LIST*
G04 Aperture macros list*
%AMRoundRect*
0 Rectangle with rounded corners*
0 $1 Rounding radius*
0 $2 $3 $4 $5 $6 $7 $8 $9 X,Y pos of 4 corners*
0 Add a 4 corners polygon primitive as box body*
4,1,4,$2,$3,$4,$5,$6,$7,$8,$9,$2,$3,0*
0 Add four circle primitives for the rounded corners*
1,1,$1+$1,$2,$3*
1,1,$1+$1,$4,$5*
1,1,$1+$1,$6,$7*
1,1,$1+$1,$8,$9*
0 Add four rect primitives between the rounded corners*
20,1,$1+$1,$2,$3,$4,$5,0*
20,1,$1+$1,$4,$5,$6,$7,0*
20,1,$1+$1,$6,$7,$8,$9,0*
20,1,$1+$1,$8,$9,$2,$3,0*%
G04 Aperture macros list end*
%ADD10RoundRect,0.250000X0.400000X0.625000X-0.400000X0.625000X-0.400000X-0.625000X0.400000X-0.625000X0*%
%ADD11R,2.000000X1.100000*%
%ADD12R,1.700000X1.700000*%
%ADD13O,1.700000X1.700000*%
G04 APERTURE END LIST*
D10*
%TO.C,R13*%
X158268000Y-141478000D03*
X155168000Y-141478000D03*
%TD*%
%TO.C,R2*%
X124994000Y-128016000D03*
X121894000Y-128016000D03*
%TD*%
%TO.C,R8*%
X191656000Y-127797142D03*
X188556000Y-127797142D03*
%TD*%
%TO.C,R10*%
X124994000Y-141478000D03*
X121894000Y-141478000D03*
%TD*%
%TO.C,R9*%
X191656000Y-125222000D03*
X188556000Y-125222000D03*
%TD*%
%TO.C,R18*%
X191542000Y-136398000D03*
X188442000Y-136398000D03*
%TD*%
D11*
%TO.C,D20*%
X96152000Y-137492000D03*
X96152000Y-139192000D03*
X96152000Y-140892000D03*
X100952000Y-140892000D03*
X100952000Y-139192000D03*
X100952000Y-137492000D03*
%TD*%
%TO.C,D16*%
X105296000Y-137492000D03*
X105296000Y-139192000D03*
X105296000Y-140892000D03*
X110096000Y-140892000D03*
X110096000Y-139192000D03*
X110096000Y-137492000D03*
%TD*%
%TO.C,D8*%
X162954000Y-137492000D03*
X162954000Y-139192000D03*
X162954000Y-140892000D03*
X167754000Y-140892000D03*
X167754000Y-139192000D03*
X167754000Y-137492000D03*
%TD*%
%TO.C,D7*%
X129426000Y-137492000D03*
X129426000Y-139192000D03*
X129426000Y-140892000D03*
X134226000Y-140892000D03*
X134226000Y-139192000D03*
X134226000Y-137492000D03*
%TD*%
D10*
%TO.C,R5*%
X158268000Y-127797142D03*
X155168000Y-127797142D03*
%TD*%
%TO.C,R17*%
X191542000Y-138938000D03*
X188442000Y-138938000D03*
%TD*%
D11*
%TO.C,D1*%
X147714000Y-137492000D03*
X147714000Y-139192000D03*
X147714000Y-140892000D03*
X152514000Y-140892000D03*
X152514000Y-139192000D03*
X152514000Y-137492000D03*
%TD*%
D10*
%TO.C,R12*%
X124994000Y-136398000D03*
X121894000Y-136398000D03*
%TD*%
%TO.C,R6*%
X158268000Y-125257142D03*
X155168000Y-125257142D03*
%TD*%
D11*
%TO.C,D17*%
X96152000Y-126316000D03*
X96152000Y-128016000D03*
X96152000Y-129716000D03*
X100952000Y-129716000D03*
X100952000Y-128016000D03*
X100952000Y-126316000D03*
%TD*%
D10*
%TO.C,R15*%
X158268000Y-136398000D03*
X155168000Y-136398000D03*
%TD*%
%TO.C,R11*%
X124994000Y-138938000D03*
X121894000Y-138938000D03*
%TD*%
D11*
%TO.C,D13*%
X105296000Y-126316000D03*
X105296000Y-128016000D03*
X105296000Y-129716000D03*
X110096000Y-129716000D03*
X110096000Y-128016000D03*
X110096000Y-126316000D03*
%TD*%
D10*
%TO.C,R7*%
X191656000Y-130302000D03*
X188556000Y-130302000D03*
%TD*%
D11*
%TO.C,D19*%
X162814000Y-126351142D03*
X162814000Y-128051142D03*
X162814000Y-129751142D03*
X167614000Y-129751142D03*
X167614000Y-128051142D03*
X167614000Y-126351142D03*
%TD*%
D12*
%TO.C,J1*%
X141812000Y-119778000D03*
D13*
X144352000Y-119778000D03*
X146892000Y-119778000D03*
X149432000Y-119778000D03*
%TD*%
D10*
%TO.C,R14*%
X158268000Y-138938000D03*
X155168000Y-138938000D03*
%TD*%
%TO.C,R4*%
X158268000Y-130337142D03*
X155168000Y-130337142D03*
%TD*%
D11*
%TO.C,D4*%
X138570000Y-137492000D03*
X138570000Y-139192000D03*
X138570000Y-140892000D03*
X143370000Y-140892000D03*
X143370000Y-139192000D03*
X143370000Y-137492000D03*
%TD*%
%TO.C,D2*%
X181102000Y-137492000D03*
X181102000Y-139192000D03*
X181102000Y-140892000D03*
X185902000Y-140892000D03*
X185902000Y-139192000D03*
X185902000Y-137492000D03*
%TD*%
%TO.C,D14*%
X138570000Y-126351142D03*
X138570000Y-128051142D03*
X138570000Y-129751142D03*
X143370000Y-129751142D03*
X143370000Y-128051142D03*
X143370000Y-126351142D03*
%TD*%
%TO.C,D5*%
X171844000Y-137492000D03*
X171844000Y-139192000D03*
X171844000Y-140892000D03*
X176644000Y-140892000D03*
X176644000Y-139192000D03*
X176644000Y-137492000D03*
%TD*%
D10*
%TO.C,R16*%
X191542000Y-141478000D03*
X188442000Y-141478000D03*
%TD*%
D11*
%TO.C,D11*%
X181102000Y-126351142D03*
X181102000Y-128051142D03*
X181102000Y-129751142D03*
X185902000Y-129751142D03*
X185902000Y-128051142D03*
X185902000Y-126351142D03*
%TD*%
D10*
%TO.C,R1*%
X124994000Y-130556000D03*
X121894000Y-130556000D03*
%TD*%
D11*
%TO.C,D15*%
X171958000Y-126351142D03*
X171958000Y-128051142D03*
X171958000Y-129751142D03*
X176758000Y-129751142D03*
X176758000Y-128051142D03*
X176758000Y-126351142D03*
%TD*%
%TO.C,D12*%
X114440000Y-137492000D03*
X114440000Y-139192000D03*
X114440000Y-140892000D03*
X119240000Y-140892000D03*
X119240000Y-139192000D03*
X119240000Y-137492000D03*
%TD*%
D10*
%TO.C,R3*%
X124994000Y-125476000D03*
X121894000Y-125476000D03*
%TD*%
D11*
%TO.C,D18*%
X129426000Y-126351142D03*
X129426000Y-128051142D03*
X129426000Y-129751142D03*
X134226000Y-129751142D03*
X134226000Y-128051142D03*
X134226000Y-126351142D03*
%TD*%
%TO.C,D10*%
X147714000Y-126351142D03*
X147714000Y-128051142D03*
X147714000Y-129751142D03*
X152514000Y-129751142D03*
X152514000Y-128051142D03*
X152514000Y-126351142D03*
%TD*%
%TO.C,D9*%
X114440000Y-126316000D03*
X114440000Y-128016000D03*
X114440000Y-129716000D03*
X119240000Y-129716000D03*
X119240000Y-128016000D03*
X119240000Y-126316000D03*
%TD*%
M02*
