%TF.GenerationSoftware,KiCad,Pcbnew,(6.0.2)*%
%TF.CreationDate,2022-07-14T16:29:58+09:00*%
%TF.ProjectId,TSAL&DIS,5453414c-2644-4495-932e-6b696361645f,rev?*%
%TF.SameCoordinates,Original*%
%TF.FileFunction,Soldermask,Bot*%
%TF.FilePolarity,Negative*%
%FSLAX46Y46*%
G04 Gerber Fmt 4.6, Leading zero omitted, Abs format (unit mm)*
G04 Created by KiCad (PCBNEW (6.0.2)) date 2022-07-14 16:29:58*
%MOMM*%
%LPD*%
G01*
G04 APERTURE LIST*
G04 Aperture macros list*
%AMRoundRect*
0 Rectangle with rounded corners*
0 $1 Rounding radius*
0 $2 $3 $4 $5 $6 $7 $8 $9 X,Y pos of 4 corners*
0 Add a 4 corners polygon primitive as box body*
4,1,4,$2,$3,$4,$5,$6,$7,$8,$9,$2,$3,0*
0 Add four circle primitives for the rounded corners*
1,1,$1+$1,$2,$3*
1,1,$1+$1,$4,$5*
1,1,$1+$1,$6,$7*
1,1,$1+$1,$8,$9*
0 Add four rect primitives between the rounded corners*
20,1,$1+$1,$2,$3,$4,$5,0*
20,1,$1+$1,$4,$5,$6,$7,0*
20,1,$1+$1,$6,$7,$8,$9,0*
20,1,$1+$1,$8,$9,$2,$3,0*%
G04 Aperture macros list end*
%ADD10C,1.320800*%
%ADD11C,3.049999*%
%ADD12R,1.520000X1.520000*%
%ADD13C,1.520000*%
%ADD14C,2.200000*%
%ADD15C,1.750000*%
%ADD16R,1.700000X1.700000*%
%ADD17C,1.700000*%
%ADD18C,1.600000*%
%ADD19O,1.600000X1.600000*%
%ADD20R,1.625600X1.625600*%
%ADD21C,1.625600*%
%ADD22R,2.000000X2.000000*%
%ADD23C,1.524000*%
%ADD24R,2.400000X2.400000*%
%ADD25O,2.400000X2.400000*%
%ADD26C,1.905000*%
%ADD27R,1.600000X1.600000*%
%ADD28C,1.950000*%
%ADD29R,1.371600X1.371600*%
%ADD30C,1.371600*%
%ADD31C,3.200000*%
%ADD32RoundRect,0.250001X-1.099999X-1.599999X1.099999X-1.599999X1.099999X1.599999X-1.099999X1.599999X0*%
%ADD33O,2.700000X3.700000*%
%ADD34R,1.295400X1.498600*%
G04 APERTURE END LIST*
D10*
%TO.C,U8*%
X275980000Y-131393000D03*
X277250000Y-130123000D03*
X278520000Y-131393000D03*
%TD*%
D11*
%TO.C,J4*%
X251499974Y-102973501D03*
X237500002Y-102973501D03*
D12*
X253249983Y-110883500D03*
D13*
X249749982Y-110883500D03*
X246249982Y-110883500D03*
X242749981Y-110883500D03*
X239249981Y-110883500D03*
X235749980Y-110883500D03*
D14*
X255749978Y-102973508D03*
X233250023Y-102973508D03*
%TD*%
D15*
%TO.C,J2*%
X168549999Y-102249999D03*
X125950084Y-102249999D03*
D16*
X166500000Y-106750000D03*
D17*
X162999999Y-106750000D03*
X159499999Y-106750000D03*
X155999998Y-106750000D03*
X152499998Y-106750000D03*
X148999997Y-106750000D03*
X145499996Y-106750000D03*
X141999996Y-106750000D03*
X138499995Y-106750000D03*
X134999994Y-106750000D03*
X131499994Y-106750000D03*
X127999993Y-106750000D03*
%TD*%
D18*
%TO.C,R7*%
X254170000Y-177000000D03*
D19*
X264330000Y-177000000D03*
%TD*%
D10*
%TO.C,U5*%
X260730000Y-128143000D03*
X262000000Y-126873000D03*
X263270000Y-128143000D03*
%TD*%
D18*
%TO.C,R5*%
X231920000Y-162250000D03*
D19*
X242080000Y-162250000D03*
%TD*%
D20*
%TO.C,Q1*%
X140040000Y-132750000D03*
D21*
X137500000Y-132750000D03*
X134960000Y-132750000D03*
%TD*%
D22*
%TO.C,F1*%
X185245000Y-134655000D03*
X207945000Y-134655000D03*
%TD*%
D23*
%TO.C,PS1*%
X218864000Y-176816000D03*
X221404000Y-176816000D03*
X231564000Y-176816000D03*
X234104000Y-176816000D03*
%TD*%
D18*
%TO.C,R19*%
X184000000Y-116000000D03*
D19*
X173840000Y-116000000D03*
%TD*%
D18*
%TO.C,R11*%
X242000000Y-168000000D03*
D19*
X231840000Y-168000000D03*
%TD*%
D18*
%TO.C,R4*%
X242040000Y-154750000D03*
D19*
X231880000Y-154750000D03*
%TD*%
D24*
%TO.C,D1*%
X285000000Y-161330000D03*
D25*
X285000000Y-151170000D03*
%TD*%
D18*
%TO.C,R20*%
X147000000Y-113670000D03*
D19*
X147000000Y-123830000D03*
%TD*%
D26*
%TO.C,U3*%
X176750000Y-131650000D03*
X166590000Y-131650000D03*
X158970000Y-131650000D03*
X161510000Y-139270000D03*
X176750000Y-139270000D03*
%TD*%
D24*
%TO.C,D4*%
X232420000Y-142000000D03*
D25*
X242580000Y-142000000D03*
%TD*%
D18*
%TO.C,R21*%
X151750000Y-113500000D03*
D19*
X151750000Y-123660000D03*
%TD*%
D18*
%TO.C,C5*%
X272500000Y-109500000D03*
D19*
X287500000Y-109500000D03*
%TD*%
D10*
%TO.C,U9*%
X276000000Y-125143000D03*
X277270000Y-123873000D03*
X278540000Y-125143000D03*
%TD*%
D18*
%TO.C,R18*%
X278170000Y-104500000D03*
D19*
X288330000Y-104500000D03*
%TD*%
D18*
%TO.C,C1*%
X246250000Y-163500000D03*
X246250000Y-158500000D03*
%TD*%
%TO.C,R14*%
X271500000Y-119170000D03*
D19*
X271500000Y-129330000D03*
%TD*%
D27*
%TO.C,C4*%
X271500000Y-134000000D03*
D18*
X271500000Y-139000000D03*
%TD*%
D20*
%TO.C,Q2*%
X140000000Y-146500000D03*
D21*
X137460000Y-146500000D03*
X134920000Y-146500000D03*
%TD*%
D18*
%TO.C,R17*%
X272420000Y-114250000D03*
D19*
X282580000Y-114250000D03*
%TD*%
D18*
%TO.C,R1*%
X231920000Y-149500000D03*
D19*
X242080000Y-149500000D03*
%TD*%
D15*
%TO.C,J3*%
X175200097Y-102178500D03*
X217800012Y-102178500D03*
D16*
X215750013Y-106678501D03*
D17*
X212250012Y-106678501D03*
X208750012Y-106678501D03*
X205250011Y-106678501D03*
X201750011Y-106678501D03*
X198250010Y-106678501D03*
X194750009Y-106678501D03*
X191250009Y-106678501D03*
X187750008Y-106678501D03*
X184250007Y-106678501D03*
X180750007Y-106678501D03*
X177250006Y-106678501D03*
%TD*%
D18*
%TO.C,R8*%
X267420000Y-177000000D03*
D19*
X277580000Y-177000000D03*
%TD*%
D10*
%TO.C,U4*%
X260730000Y-134643000D03*
X262000000Y-133373000D03*
X263270000Y-134643000D03*
%TD*%
D28*
%TO.C,PRECHARGE1*%
X216225000Y-128750000D03*
X232725000Y-128750000D03*
X239725000Y-128750000D03*
X236225000Y-121250000D03*
X216225000Y-121250000D03*
%TD*%
D27*
%TO.C,C3*%
X260597349Y-142000000D03*
D18*
X265597349Y-142000000D03*
%TD*%
D29*
%TO.C,U1*%
X259690000Y-154690000D03*
D30*
X259690000Y-157230000D03*
X259690000Y-159770000D03*
X259690000Y-162310000D03*
X267310000Y-162310000D03*
X267310000Y-159770000D03*
X267310000Y-157230000D03*
X267310000Y-154690000D03*
%TD*%
D18*
%TO.C,R15*%
X267500000Y-129330000D03*
D19*
X267500000Y-119170000D03*
%TD*%
D18*
%TO.C,C2*%
X276000000Y-147000000D03*
X276000000Y-152000000D03*
%TD*%
%TO.C,R16*%
X283250000Y-130830000D03*
D19*
X283250000Y-120670000D03*
%TD*%
D10*
%TO.C,U7*%
X277730000Y-137893000D03*
X279000000Y-136623000D03*
X280270000Y-137893000D03*
%TD*%
D24*
%TO.C,D5*%
X245920000Y-142000000D03*
D25*
X256080000Y-142000000D03*
%TD*%
D31*
%TO.C,J1*%
X273000000Y-103825000D03*
X264000000Y-103825000D03*
D32*
X268500000Y-108025000D03*
D33*
X268500000Y-113525000D03*
%TD*%
D18*
%TO.C,R10*%
X271250000Y-146920000D03*
D19*
X271250000Y-157080000D03*
%TD*%
D20*
%TO.C,Q3*%
X146500000Y-133622300D03*
D21*
X149040000Y-133622300D03*
X151580000Y-133622300D03*
%TD*%
D10*
%TO.C,U6*%
X260730000Y-122143000D03*
X262000000Y-120873000D03*
X263270000Y-122143000D03*
%TD*%
D18*
%TO.C,R2*%
X245250000Y-149500000D03*
D19*
X255410000Y-149500000D03*
%TD*%
D24*
%TO.C,D2*%
X249500000Y-126920000D03*
D25*
X249500000Y-137080000D03*
%TD*%
D18*
%TO.C,R3*%
X255330000Y-154750000D03*
D19*
X245170000Y-154750000D03*
%TD*%
D18*
%TO.C,R13*%
X156080000Y-146000000D03*
D19*
X145920000Y-146000000D03*
%TD*%
D18*
%TO.C,R12*%
X132920000Y-155000000D03*
D19*
X143080000Y-155000000D03*
%TD*%
D34*
%TO.C,U2*%
X229060000Y-168290000D03*
X229060000Y-165750000D03*
X229060000Y-163210000D03*
X221440000Y-163210000D03*
X221440000Y-165750000D03*
X221440000Y-168290000D03*
%TD*%
D24*
%TO.C,D3*%
X242580000Y-136500000D03*
D25*
X232420000Y-136500000D03*
%TD*%
D18*
%TO.C,R9*%
X280750000Y-177080000D03*
D19*
X280750000Y-166920000D03*
%TD*%
D18*
%TO.C,R6*%
X240920000Y-177000000D03*
D19*
X251080000Y-177000000D03*
%TD*%
D24*
%TO.C,D6*%
X255500000Y-137080000D03*
D25*
X255500000Y-126920000D03*
%TD*%
M02*
