M48
; DRILL file {KiCad (6.0.2)} date Thu Jul 14 16:29:56 2022
; FORMAT={-:-/ absolute / metric / decimal}
; #@! TF.CreationDate,2022-07-14T16:29:56+09:00
; #@! TF.GenerationSoftware,Kicad,Pcbnew,(6.0.2)
; #@! TF.FileFunction,Plated,1,2,PTH
FMAT,2
METRIC
; #@! TA.AperFunction,Plated,PTH,ViaDrill
T1C0.400
; #@! TA.AperFunction,Plated,PTH,ComponentDrill
T2C0.762
; #@! TA.AperFunction,Plated,PTH,ComponentDrill
T3C0.800
; #@! TA.AperFunction,Plated,PTH,ComponentDrill
T4C0.813
; #@! TA.AperFunction,Plated,PTH,ComponentDrill
T5C0.864
; #@! TA.AperFunction,Plated,PTH,ViaDrill
T6C1.000
; #@! TA.AperFunction,Plated,PTH,ComponentDrill
T7C1.016
; #@! TA.AperFunction,Plated,PTH,ComponentDrill
T8C1.118
; #@! TA.AperFunction,Plated,PTH,ComponentDrill
T9C1.200
; #@! TA.AperFunction,Plated,PTH,ComponentDrill
T10C1.300
; #@! TA.AperFunction,Plated,PTH,ComponentDrill
T11C1.397
; #@! TA.AperFunction,Plated,PTH,ComponentDrill
T12C1.702
; #@! TA.AperFunction,Plated,PTH,ComponentDrill
T13C1.800
; #@! TA.AperFunction,Plated,PTH,ViaDrill
T14C3.500
%
G90
G05
T1
X140.0Y-140.0
X149.0Y-112.0
X149.5Y-126.5
X162.0Y-118.0
X182.0Y-124.0
X191.0Y-116.0
X193.5Y-131.5
X208.71Y-163.21
X279.0Y-160.0
T2
X218.864Y-176.816
X221.404Y-176.816
X231.564Y-176.816
X234.104Y-176.816
T3
X132.92Y-155.0
X143.08Y-155.0
X145.92Y-146.0
X147.0Y-113.67
X147.0Y-123.83
X151.75Y-113.5
X151.75Y-123.66
X156.08Y-146.0
X173.84Y-116.0
X184.0Y-116.0
X231.84Y-168.0
X231.88Y-154.75
X231.92Y-149.5
X231.92Y-162.25
X240.92Y-177.0
X242.0Y-168.0
X242.04Y-154.75
X242.08Y-149.5
X242.08Y-162.25
X245.17Y-154.75
X245.25Y-149.5
X246.25Y-158.5
X246.25Y-163.5
X251.08Y-177.0
X254.17Y-177.0
X255.33Y-154.75
X255.41Y-149.5
X260.597Y-142.0
X264.33Y-177.0
X265.597Y-142.0
X267.42Y-177.0
X267.5Y-119.17
X267.5Y-129.33
X271.25Y-146.92
X271.25Y-157.08
X271.5Y-119.17
X271.5Y-129.33
X271.5Y-134.0
X271.5Y-139.0
X272.42Y-114.25
X272.5Y-109.5
X276.0Y-147.0
X276.0Y-152.0
X277.58Y-177.0
X278.17Y-104.5
X280.75Y-166.92
X280.75Y-177.08
X282.58Y-114.25
X283.25Y-120.67
X283.25Y-130.83
X287.5Y-109.5
X288.33Y-104.5
T4
X260.73Y-122.143
X260.73Y-128.143
X260.73Y-134.643
X262.0Y-120.873
X262.0Y-126.873
X262.0Y-133.373
X263.27Y-122.143
X263.27Y-128.143
X263.27Y-134.643
X275.98Y-131.393
X276.0Y-125.143
X277.25Y-130.123
X277.27Y-123.873
X277.73Y-137.893
X278.52Y-131.393
X278.54Y-125.143
X279.0Y-136.623
X280.27Y-137.893
T5
X221.44Y-163.21
X221.44Y-165.75
X221.44Y-168.29
X229.06Y-163.21
X229.06Y-165.75
X229.06Y-168.29
X259.69Y-154.69
X259.69Y-157.23
X259.69Y-159.77
X259.69Y-162.31
X267.31Y-154.69
X267.31Y-157.23
X267.31Y-159.77
X267.31Y-162.31
T6
X192.0Y-112.5
T7
X235.75Y-110.883
X239.25Y-110.883
X242.75Y-110.883
X246.25Y-110.883
X249.75Y-110.883
X253.25Y-110.883
T8
X134.92Y-146.5
X134.96Y-132.75
X137.46Y-146.5
X137.5Y-132.75
X140.0Y-146.5
X140.04Y-132.75
X146.5Y-133.622
X149.04Y-133.622
X151.58Y-133.622
T9
X128.0Y-106.75
X131.5Y-106.75
X135.0Y-106.75
X138.5Y-106.75
X142.0Y-106.75
X145.5Y-106.75
X149.0Y-106.75
X152.5Y-106.75
X156.0Y-106.75
X159.5Y-106.75
X163.0Y-106.75
X166.5Y-106.75
X177.25Y-106.679
X180.75Y-106.679
X184.25Y-106.679
X187.75Y-106.679
X191.25Y-106.679
X194.75Y-106.679
X198.25Y-106.679
X201.75Y-106.679
X205.25Y-106.679
X208.75Y-106.679
X212.25Y-106.679
X215.75Y-106.679
X232.42Y-136.5
X232.42Y-142.0
X242.58Y-136.5
X242.58Y-142.0
X245.92Y-142.0
X249.5Y-126.92
X249.5Y-137.08
X255.5Y-126.92
X255.5Y-137.08
X256.08Y-142.0
X285.0Y-151.17
X285.0Y-161.33
T10
X216.225Y-121.25
X216.225Y-128.75
X232.725Y-128.75
X236.225Y-121.25
X239.725Y-128.75
T11
X158.97Y-131.65
X161.51Y-139.27
X166.59Y-131.65
X176.75Y-131.65
X176.75Y-139.27
T12
X233.25Y-102.974
X255.75Y-102.974
T13
X268.5Y-108.025
X268.5Y-113.525
T14
X127.0Y-117.0
X127.0Y-166.75
X302.5Y-117.0
X302.5Y-166.75
T9
G00X185.095Y-134.655
M15
G01X185.395Y-134.655
M16
G05
G00X207.795Y-134.655
M15
G01X208.095Y-134.655
M16
G05
T0
M30
